<svg version="1.1" id="Слой_1" xmlns="http://www.w3.org/2000/svg" x="0" y="0" width="200.4" height="97.9" viewBox="0 0 200.4 97.9" xml:space="preserve"><style>.st0{fill:#FFFFFF}</style><path class="st0" d="M12.1 15.9c0 .8-.1 1.4-.4 2-.3.5-.6 1-1.1 1.4-.4.4-.9.7-1.5.9-.5.2-1.1.3-1.7.4V22H4.7v-1.4c-.8-.1-1.6-.3-2.2-.6s-1.1-.7-1.5-1.1c-.4-.4-.6-1-.8-1.6S0 16.1 0 15.4V9.6c0-.7.1-1.4.4-2 .3-.6.6-1 1.1-1.4.4-.4.9-.7 1.5-.9.5-.2 1.1-.3 1.7-.3v-.9h2.8V5c.6 0 1.1.2 1.7.4.5.2 1 .5 1.5.9.4.4.8.9 1.1 1.4.3.6.4 1.2.4 2v6.2zM4.7 7.2c-.7.1-1.1.3-1.5.7-.4.3-.6.8-.6 1.5v6.8c0 .3.1.6.2.9.1.2.3.5.5.6.2.2.4.3.6.4.2.1.5.1.7.2V7.2zm4.8 2.2c0-.7-.2-1.2-.6-1.5-.4-.4-.8-.6-1.4-.7v11c.2 0 .5-.1.7-.2.2-.1.5-.2.7-.4.1-.1.3-.3.4-.6.1-.2.2-.5.2-.8V9.4zm16.4 8c0 1.6-.4 2.7-1.1 3.5-.7.8-1.8 1.2-3.3 1.2-1.5 0-2.6-.4-3.3-1.1-.7-.8-1-1.9-1-3.3v-9c0-.7.1-1.3.2-1.9.2-.6.4-1.1.8-1.5.3-.4.8-.7 1.4-1 .6-.2 1.2-.3 2-.3s1.5.1 2.1.3c.6.2 1 .5 1.3.9.3.4.6.9.7 1.5.1.6.2 1.2.2 2v8.7zm-2.8-9c0-.5-.1-.9-.3-1.3-.2-.4-.6-.6-1.2-.6-.3 0-.6.1-.8.2-.2.1-.4.3-.5.5-.2.3-.2.5-.3.8 0 .3-.1.5-.1.7v9c0 .5.1.9.4 1.2.2.4.6.6 1.2.6s1-.2 1.2-.6c.2-.4.4-.9.4-1.4V8.4zM37.2 22v-7.8H34V22h-2.8V4.1H34v7.5h3.2V4.1H40V22h-2.8zm9.4 0v3.4h-2.4v-5.7l1.1-.2c.5-.5.8-1.1 1-1.8.2-.7.3-1.6.3-2.7l.3-10.9H55v15.4h1.1v5.9h-2.4V22h-7.1zm2.5-7.1c0 1-.1 1.9-.2 2.7-.1.7-.3 1.4-.6 1.9h3.9V6.7h-2.9l-.2 8.2zM73 3.9c.7 0 1.4.1 1.9.3.5.2 1 .5 1.3.9.4.4.6.8.8 1.3.2.5.2 1.1.2 1.7l-2.7.7c0-.7-.1-1.2-.4-1.6-.2-.4-.6-.6-1.2-.6-.3 0-.6.1-.8.2-.1.1-.3.2-.4.4-.1.2-.2.4-.2.7 0 .2-.1.5-.1.7v9.1c0 .2 0 .4.1.6 0 .2.1.4.2.6.1.2.3.3.5.5.2.1.4.2.8.2 1 0 1.6-.7 1.6-2.2.5.1.9.2 1.4.2.5.1.9.1 1.4.2 0 1.4-.4 2.4-1.1 3.2-.7.8-1.8 1.2-3.2 1.2-1.5 0-2.6-.4-3.3-1.1-.7-.7-1.1-1.8-1.1-3.3v-9c0-.7.1-1.3.2-1.9.1-.6.4-1.1.7-1.6.3-.4.8-.8 1.4-1.1.5-.2 1.2-.3 2-.3zm17.6 13.5c0 1.6-.4 2.7-1.1 3.5-.7.8-1.8 1.2-3.3 1.2-1.5 0-2.6-.4-3.3-1.1-.7-.8-1-1.9-1-3.3v-9c0-.7.1-1.3.2-1.9.2-.6.4-1.1.8-1.5.3-.4.8-.7 1.4-1 .6-.2 1.2-.3 2-.3s1.5.1 2.1.3c.6.2 1 .5 1.3.9.3.4.6.9.7 1.5.1.6.2 1.2.2 2v8.7zm-2.8-9c0-.5-.1-.9-.3-1.3-.2-.4-.6-.6-1.2-.6-.3 0-.6.1-.8.2-.2.1-.4.3-.5.5-.1.2-.2.5-.2.7 0 .3-.1.5-.1.7v9c0 .5.1.9.4 1.2.2.4.6.6 1.2.6s1-.2 1.2-.6c.2-.4.4-.9.4-1.4v-9zM97.1 22v3.4h-2.4v-5.7l1.1-.2c.5-.5.8-1.1 1-1.8.2-.7.3-1.6.3-2.7l.3-10.9h8.1v15.4h1.1v5.9h-2.4V22h-7.1zm2.5-7.1c0 1-.1 1.9-.2 2.7-.1.7-.3 1.4-.6 1.9h3.9V6.7h-2.9l-.2 8.2zm11.6 7.1V4.1h8v2.6H114v4.9h4.5v2.6H114v5.2h5.2V22h-8zm18.9-11.3L126.4 22h-2.7V4.1h2.7v11.3h.1l3.8-11.3h2.7V22h-2.7l-.2-11.3zM126.8 0c0 .2.1.4.2.6.1.2.2.4.4.6.1.2.3.3.5.4.2.1.4.2.6.2.3 0 .5-.1.7-.2.2-.1.4-.3.5-.4l.3-.6c.1-.2.1-.4.1-.6h2.1c0 .4-.1.8-.3 1.2-.2.4-.4.8-.7 1.2-.3.4-.7.6-1.1.9-.4.2-1 .3-1.6.3-.7 0-1.2-.1-1.7-.3-.5-.2-.8-.5-1.1-.9-.3-.4-.5-.7-.6-1.2-.1-.4-.2-.8-.2-1.2h1.9zm15.7 3.9c.7 0 1.4.1 1.9.3.5.2 1 .5 1.3.9.4.4.6.8.8 1.3.2.5.2 1.1.2 1.7l-2.7.7c0-.7-.1-1.2-.4-1.6-.2-.4-.6-.6-1.2-.6-.3 0-.6.1-.8.2-.2.1-.4.3-.5.5-.1.2-.2.4-.2.7 0 .2-.1.5-.1.7v9.1c0 .2 0 .4.1.6 0 .2.1.4.2.6.1.2.3.3.5.5.2.1.5.2.8.2 1 0 1.6-.7 1.6-2.2.5.1.9.2 1.4.2.5.1.9.1 1.4.2 0 1.4-.4 2.4-1.1 3.2-.7.8-1.8 1.2-3.2 1.2-1.5 0-2.6-.4-3.3-1.1-.7-.7-1.1-1.8-1.1-3.3V8.8c0-.7.1-1.3.2-1.9.1-.6.4-1.1.7-1.6.3-.4.8-.8 1.4-1.1.6-.2 1.3-.3 2.1-.3zM156 6.7V22h-2.8V6.7h-2.9V4.1h8.6v2.6H156zm13.7 5.9c.8.3 1.3.7 1.6 1.5.3.7.4 1.5.4 2.5 0 1.9-.4 3.2-1.2 4.1-.8.9-2 1.3-3.7 1.3h-3.7V4.1h3.9c1.6 0 2.7.4 3.5 1.2.7.8 1.1 2 1.1 3.6 0 .8-.1 1.5-.4 2.2-.3.6-.8 1.1-1.5 1.4v.1zm-.8-3.6c0-.8-.2-1.4-.5-1.8-.3-.4-.9-.5-1.6-.5h-.9v4.6h.9c.7 0 1.3-.2 1.6-.6.3-.4.5-1 .5-1.7zm.2 7.3c0-.8-.2-1.5-.5-1.9-.3-.4-.9-.6-1.6-.6h-1.1v5.6h1.1c.4 0 .8-.1 1.1-.2.3-.2.5-.4.6-.7.1-.3.2-.6.3-1 0-.4.1-.8.1-1.2zm14.3-5.6L179.6 22h-2.7V4.1h2.7v11.3h.1l3.8-11.3h2.7V22h-2.7l-.1-11.3zm7.4 11.3l1-5.7c.1-.6.3-1.1.6-1.6s.6-.9 1.1-1.1c-.8-.3-1.4-.9-1.7-1.6-.3-.7-.5-1.5-.5-2.5 0-1.8.4-3.1 1.3-4 .9-.9 2-1.4 3.5-1.4h4.1V22h-2.8v-7.6h-.7c-.5 0-.9.2-1.3.6-.4.4-.7 1-.9 2l-.9 5.1h-2.8zm5.6-15.3c-.8 0-1.4.3-1.8.8-.3.5-.5 1.2-.5 2 0 .9.2 1.5.6 1.8.4.3 1 .5 1.6.5h1.1V6.7h-1zM8.4 36.9L3.7 50.8H.4V28.6h3.4v14.1h.1l4.7-14.1H12v22.2H8.5l-.1-13.9zm20.5 13.9v-9.7h-4v9.7h-3.5V28.6h3.5v9.3h4v-9.3h3.5v22.2h-3.5zm20.6 0v-9.7h-4v9.7H42V28.6h3.5v9.3h4v-9.3H53v22.2h-3.5zm23.7-5.7c0 1.9-.4 3.4-1.3 4.4-.9 1-2.3 1.5-4.1 1.5-1.9 0-3.2-.5-4.1-1.4-.9-.9-1.3-2.3-1.3-4.1V34.3c0-.9.1-1.7.3-2.4.2-.7.5-1.3.9-1.9.4-.5 1-.9 1.7-1.2.7-.3 1.5-.4 2.5-.4s1.9.1 2.6.4c.7.3 1.3.7 1.7 1.2.4.5.7 1.1.9 1.9.2.7.3 1.5.3 2.5v10.7zM69.8 34c0-.6-.1-1.2-.4-1.7-.3-.5-.8-.7-1.5-.7-.4 0-.7.1-1 .3-.3.2-.5.4-.6.7l-.3.9c-.1.3-.1.6-.1.9v11.2c0 .6.1 1.1.4 1.5.3.5.8.7 1.5.7s1.2-.2 1.5-.7c.3-.5.5-1.1.5-1.7V34zm21.1 5.2c1 .3 1.7.9 2 1.8.4.9.5 1.9.5 3.1 0 2.3-.5 4-1.5 5.1-1 1.1-2.5 1.6-4.6 1.6h-4.6V28.6h4.9c2 0 3.4.5 4.3 1.5.9 1 1.3 2.5 1.3 4.5 0 1-.2 1.9-.5 2.7-.4.8-1 1.3-1.8 1.7v.2zm-1-4.5c0-1-.2-1.8-.6-2.2-.4-.4-1.1-.7-2-.7h-1.1v5.7h1.1c.9 0 1.6-.2 2-.7.4-.5.6-1.2.6-2.1zm.2 9c0-1-.2-1.8-.6-2.3-.4-.5-1.1-.8-2-.8h-1.3v6.9h1.4c.6 0 1-.1 1.3-.3.3-.2.6-.5.8-.8.2-.3.3-.7.4-1.2v-1.5zm20.8 7.1l-.9-4.6h-4.1c-.2.8-.3 1.5-.4 2.3-.1.8-.3 1.5-.4 2.3h-3.5c.8-3.7 1.5-7.4 2.3-11.1.8-3.7 1.5-7.4 2.3-11.1h3.9l4.5 22.2h-3.7zm-3-17.1c-.2 1.5-.4 3.1-.7 4.6-.2 1.5-.5 3.1-.8 4.6h3.1l-1.4-9.2h-.2zm25.6-5.1v19h1.4V55H132v-4.2h-9.4V28.6h3.5v19h3.9v-19h3.5zm17.8 8.3l-4.7 13.9h-3.3V28.6h3.4v14.1h.1l4.7-14.1h3.4v22.2h-3.4l-.2-13.9zm12.2 13.9l1.3-7.1c.2-.7.4-1.4.7-2 .3-.6.8-1.1 1.4-1.4-1-.4-1.7-1.1-2.1-1.9-.4-.9-.6-1.9-.6-3.1 0-2.2.5-3.8 1.6-5 1.1-1.1 2.5-1.7 4.4-1.7h5.1v22.2h-3.5v-9.5h-.9c-.6 0-1.2.2-1.7.7-.5.5-.9 1.3-1.1 2.5l-1.1 6.3h-3.5zm6.8-19c-1.1 0-1.8.3-2.2.9-.4.6-.6 1.4-.6 2.5s.3 1.8.8 2.2c.5.4 1.2.6 2 .6h1.4v-6.3h-1.4zm20.9 14.1l-1.6-4.1-1.4-3.9h-.2v12.9h-3.5V28.6h3.4l2.4 6.3 1.8 4.8h.2l1.8-4.9 2.4-6.2h3.3v22.2h-3.5V38h-.1l-1.4 4-1.6 4h-2z"/><path d="M200.1 57.5c-48.2 47.2-144.7 39-179.7 0H.5c26.4 28 64.3 38.6 96.1 40 3.3.1 6.5.2 9.7.1 20.6-.3 43.6-4.8 63.5-15.4 11.4-6.1 21.8-14.2 30.3-24.7z" fill="#EA2227"/><path d="M200.1 57.5c-.8.6-1.5 1-2.2 1.5-52.5 35.1-125.7 28.2-157-1.5H20.4c35 39 131.5 47.2 179.7 0z" fill="#25A8E0"/><path class="st0" d="M188.5 62.4c-23.9 9.3-46.4 13.3-66 13.4-27.4.2-49.1-7.2-60.7-18.3h-21C72 87 144.3 94 196.8 59.7c.4-.2.7-.5 1.1-.7.7-.5 1.4-1 2.1-1.4h.1c-3.9 1.7-7.7 3.3-11.6 4.8z"/><path d="M61.8 57.5c11.4 11 32.6 18.3 59.6 18.3h1.1c19.6-.1 42.2-4.2 66-13.4 3.8-1.5 7.7-3.1 11.6-4.9-8.5 10.5-18.9 18.6-30.4 24.7-19.9 10.6-42.9 15.1-63.5 15.4h-2.4c-2.4 0-4.8-.1-7.3-.2-31.8-1.4-69.6-12-96.1-40h61.4m0-.2H.5c-.1 0-.2.1-.3.2v.3c12.3 13 27.8 23.1 46.1 30 15.4 5.8 32.7 9.3 50.1 10 2.4.1 4.9.2 7.3.2h2.4c10.9-.2 21.7-1.5 32.1-3.8 11.4-2.6 22-6.5 31.6-11.6 12.2-6.5 22.4-14.8 30.5-24.8v-.3s0-.1-.1-.1h-.3c-3.8 1.7-7.7 3.4-11.5 4.9-22.2 8.6-45 13.3-65.9 13.4h-1.1C95.7 75.5 74 68.9 62 57.3c0 0-.1-.1-.2-.1z" fill="#CDCCCB"/></svg>