<svg width="15" height="21" viewBox="0 0 15 21" fill="none" xmlns="http://www.w3.org/2000/svg"><path fill-rule="evenodd" clip-rule="evenodd" d="M6.946.01C5.03.2 3.49.897 2.206 2.16-.055 4.387-.64 7.732.742 10.56c.288.59 6.25 10.076 6.457 10.273.26.249.67.217.898-.07.17-.212 5.908-9.651 6.117-10.061a7.56 7.56 0 00.714-2.134c.088-.475.099-1.743.02-2.238-.264-1.634-.98-3.031-2.135-4.168A7.544 7.544 0 008.598.07C8.265.019 7.22-.018 6.946.009zm1.439 1.27a6.43 6.43 0 013.546 1.746 6.178 6.178 0 011.721 3.16c.136.626.137 1.763.001 2.381a6.358 6.358 0 01-.55 1.56c-.11.215-1.393 2.346-2.85 4.736l-2.65 4.346-2.758-4.372C3.328 12.432 2.003 10.3 1.901 10.1a5.65 5.65 0 01-.64-2.478c-.113-2.838 1.725-5.355 4.496-6.158a6.437 6.437 0 012.628-.185zM6.83 3.743a3.815 3.815 0 00-2.959 2.71c-.13.467-.13 1.374-.001 1.847a3.78 3.78 0 001.98 2.38c.594.288.937.363 1.66.365.72 0 1.057-.073 1.658-.364a3.77 3.77 0 001.98-2.38c.13-.474.13-1.38 0-1.849a3.835 3.835 0 00-2.7-2.65c-.441-.114-1.182-.14-1.618-.06zm1.19 1.215c.399.082.87.329 1.184.622.321.298.518.59.678 1.006.092.238.107.345.11.77.003.524-.04.717-.259 1.15-.303.601-.966 1.114-1.643 1.271-1.557.36-3.081-.82-3.084-2.389-.001-.401.062-.668.253-1.074.302-.637.974-1.174 1.683-1.344a3.155 3.155 0 011.078-.012z" fill="#fff"/></svg>