<svg width="402" height="807" viewBox="0 0 402 807" fill="none" xmlns="http://www.w3.org/2000/svg">
<path opacity="0.05" d="M58.66 47.25C58.52 50.4233 57.8667 53.4567 56.7 56.35C55.58 59.1967 53.9233 61.74 51.73 63.98C49.5833 66.22 46.8767 67.97 43.61 69.23C40.39 70.49 36.6333 71.12 32.34 71.12C28.2333 71.12 24.3833 70.5367 20.79 69.37C17.1967 68.1567 14.0233 66.3833 11.27 64.05C8.56333 61.7167 6.44 58.8467 4.9 55.44C3.40667 52.0333 2.66 48.1367 2.66 43.75C2.66 39.3633 3.43 35.4667 4.97 32.06C6.51 28.6533 8.65667 25.7833 11.41 23.45C14.21 21.1167 17.43 19.3667 21.07 18.2C24.7567 16.9867 28.77 16.38 33.11 16.38C38.8967 16.38 43.89 17.2667 48.09 19.04C52.29 20.8133 55.6733 23.24 58.24 26.32C60.8067 29.4 62.4633 32.97 63.21 37.03H48.58C48.1133 35.2567 47.1567 33.74 45.71 32.48C44.31 31.1733 42.5367 30.1933 40.39 29.54C38.29 28.84 35.8867 28.49 33.18 28.49C29.9133 28.49 27.09 29.0733 24.71 30.24C22.33 31.36 20.4867 33.0633 19.18 35.35C17.8733 37.59 17.22 40.39 17.22 43.75C17.22 47.1567 17.92 50.0267 19.32 52.36C20.72 54.6933 22.7033 56.4433 25.27 57.61C27.8833 58.7767 30.94 59.36 34.44 59.36C37.8467 59.36 40.8567 58.8933 43.47 57.96C46.0833 56.98 48.16 55.5567 49.7 53.69C51.2867 51.8233 52.1967 49.5833 52.43 46.97L58.66 47.25ZM35.84 53.06V42.84H63.7V70H53.41L51.38 49.21L54.11 53.06H35.84ZM72.3707 17.5H86.8607V70H72.3707V17.5ZM122.818 17.5C129.025 17.5 134.462 18.5967 139.128 20.79C143.842 22.9367 147.482 25.9933 150.048 29.96C152.662 33.88 153.968 38.4767 153.968 43.75C153.968 49.0233 152.662 53.6433 150.048 57.61C147.482 61.53 143.842 64.5867 139.128 66.78C134.462 68.9267 129.025 70 122.818 70H96.6383V17.5H122.818ZM111.058 63.91L104.128 57.12H123.938C127.065 57.12 129.772 56.5833 132.058 55.51C134.392 54.39 136.188 52.8267 137.448 50.82C138.708 48.8133 139.338 46.4567 139.338 43.75C139.338 40.9967 138.708 38.64 137.448 36.68C136.188 34.6733 134.392 33.1333 132.058 32.06C129.772 30.94 127.065 30.38 123.938 30.38H104.128L111.058 23.59V63.91ZM205.698 38.5V49H167.268V38.5H205.698ZM177.138 43.75L173.708 64.82L167.828 58.24H208.008V70H159.218L163.208 43.75L159.218 17.5H207.658V29.26H167.828L173.708 22.68L177.138 43.75ZM244.424 71.12C238.217 71.12 232.757 69.9767 228.044 67.69C223.377 65.4033 219.737 62.2067 217.124 58.1C214.557 53.9933 213.274 49.21 213.274 43.75C213.274 38.29 214.557 33.5067 217.124 29.4C219.737 25.2933 223.377 22.0967 228.044 19.81C232.757 17.5233 238.217 16.38 244.424 16.38C250.677 16.38 256.137 17.5233 260.804 19.81C265.47 22.0967 269.11 25.2933 271.724 29.4C274.337 33.5067 275.644 38.29 275.644 43.75C275.644 49.21 274.337 53.9933 271.724 58.1C269.11 62.2067 265.47 65.4033 260.804 67.69C256.137 69.9767 250.677 71.12 244.424 71.12ZM244.424 58.17C247.83 58.17 250.77 57.5867 253.244 56.42C255.717 55.2533 257.607 53.5967 258.914 51.45C260.267 49.3033 260.944 46.7367 260.944 43.75C260.944 40.7633 260.267 38.1967 258.914 36.05C257.607 33.9033 255.717 32.2467 253.244 31.08C250.77 29.9133 247.83 29.33 244.424 29.33C241.064 29.33 238.147 29.9133 235.674 31.08C233.2 32.2467 231.287 33.9033 229.934 36.05C228.58 38.1967 227.904 40.7633 227.904 43.75C227.904 46.7367 228.58 49.3033 229.934 51.45C231.287 53.5967 233.2 55.2533 235.674 56.42C238.147 57.5867 241.064 58.17 244.424 58.17ZM331.773 59.85L327.293 60.76V17.5H341.363V70H323.093L292.783 26.81L297.193 25.9V70H283.123V17.5H301.883L331.773 59.85ZM396.01 38.5V49H357.58V38.5H396.01ZM367.45 43.75L364.02 64.82L358.14 58.24H398.32V70H349.53L353.52 43.75L349.53 17.5H397.97V29.26H358.14L364.02 22.68L367.45 43.75Z" fill="#646987"/>
<path opacity="0.05" d="M58.66 137.25C58.52 140.423 57.8667 143.457 56.7 146.35C55.58 149.197 53.9233 151.74 51.73 153.98C49.5833 156.22 46.8767 157.97 43.61 159.23C40.39 160.49 36.6333 161.12 32.34 161.12C28.2333 161.12 24.3833 160.537 20.79 159.37C17.1967 158.157 14.0233 156.383 11.27 154.05C8.56333 151.717 6.44 148.847 4.9 145.44C3.40667 142.033 2.66 138.137 2.66 133.75C2.66 129.363 3.43 125.467 4.97 122.06C6.51 118.653 8.65667 115.783 11.41 113.45C14.21 111.117 17.43 109.367 21.07 108.2C24.7567 106.987 28.77 106.38 33.11 106.38C38.8967 106.38 43.89 107.267 48.09 109.04C52.29 110.813 55.6733 113.24 58.24 116.32C60.8067 119.4 62.4633 122.97 63.21 127.03H48.58C48.1133 125.257 47.1567 123.74 45.71 122.48C44.31 121.173 42.5367 120.193 40.39 119.54C38.29 118.84 35.8867 118.49 33.18 118.49C29.9133 118.49 27.09 119.073 24.71 120.24C22.33 121.36 20.4867 123.063 19.18 125.35C17.8733 127.59 17.22 130.39 17.22 133.75C17.22 137.157 17.92 140.027 19.32 142.36C20.72 144.693 22.7033 146.443 25.27 147.61C27.8833 148.777 30.94 149.36 34.44 149.36C37.8467 149.36 40.8567 148.893 43.47 147.96C46.0833 146.98 48.16 145.557 49.7 143.69C51.2867 141.823 52.1967 139.583 52.43 136.97L58.66 137.25ZM35.84 143.06V132.84H63.7V160H53.41L51.38 139.21L54.11 143.06H35.84ZM72.3707 107.5H86.8607V160H72.3707V107.5ZM122.818 107.5C129.025 107.5 134.462 108.597 139.128 110.79C143.842 112.937 147.482 115.993 150.048 119.96C152.662 123.88 153.968 128.477 153.968 133.75C153.968 139.023 152.662 143.643 150.048 147.61C147.482 151.53 143.842 154.587 139.128 156.78C134.462 158.927 129.025 160 122.818 160H96.6383V107.5H122.818ZM111.058 153.91L104.128 147.12H123.938C127.065 147.12 129.772 146.583 132.058 145.51C134.392 144.39 136.188 142.827 137.448 140.82C138.708 138.813 139.338 136.457 139.338 133.75C139.338 130.997 138.708 128.64 137.448 126.68C136.188 124.673 134.392 123.133 132.058 122.06C129.772 120.94 127.065 120.38 123.938 120.38H104.128L111.058 113.59V153.91ZM205.698 128.5V139H167.268V128.5H205.698ZM177.138 133.75L173.708 154.82L167.828 148.24H208.008V160H159.218L163.208 133.75L159.218 107.5H207.658V119.26H167.828L173.708 112.68L177.138 133.75ZM244.424 161.12C238.217 161.12 232.757 159.977 228.044 157.69C223.377 155.403 219.737 152.207 217.124 148.1C214.557 143.993 213.274 139.21 213.274 133.75C213.274 128.29 214.557 123.507 217.124 119.4C219.737 115.293 223.377 112.097 228.044 109.81C232.757 107.523 238.217 106.38 244.424 106.38C250.677 106.38 256.137 107.523 260.804 109.81C265.47 112.097 269.11 115.293 271.724 119.4C274.337 123.507 275.644 128.29 275.644 133.75C275.644 139.21 274.337 143.993 271.724 148.1C269.11 152.207 265.47 155.403 260.804 157.69C256.137 159.977 250.677 161.12 244.424 161.12ZM244.424 148.17C247.83 148.17 250.77 147.587 253.244 146.42C255.717 145.253 257.607 143.597 258.914 141.45C260.267 139.303 260.944 136.737 260.944 133.75C260.944 130.763 260.267 128.197 258.914 126.05C257.607 123.903 255.717 122.247 253.244 121.08C250.77 119.913 247.83 119.33 244.424 119.33C241.064 119.33 238.147 119.913 235.674 121.08C233.2 122.247 231.287 123.903 229.934 126.05C228.58 128.197 227.904 130.763 227.904 133.75C227.904 136.737 228.58 139.303 229.934 141.45C231.287 143.597 233.2 145.253 235.674 146.42C238.147 147.587 241.064 148.17 244.424 148.17ZM331.773 149.85L327.293 150.76V107.5H341.363V160H323.093L292.783 116.81L297.193 115.9V160H283.123V107.5H301.883L331.773 149.85ZM396.01 128.5V139H357.58V128.5H396.01ZM367.45 133.75L364.02 154.82L358.14 148.24H398.32V160H349.53L353.52 133.75L349.53 107.5H397.97V119.26H358.14L364.02 112.68L367.45 133.75Z" fill="#646987"/>
<path opacity="0.05" d="M58.66 227.25C58.52 230.423 57.8667 233.457 56.7 236.35C55.58 239.197 53.9233 241.74 51.73 243.98C49.5833 246.22 46.8767 247.97 43.61 249.23C40.39 250.49 36.6333 251.12 32.34 251.12C28.2333 251.12 24.3833 250.537 20.79 249.37C17.1967 248.157 14.0233 246.383 11.27 244.05C8.56333 241.717 6.44 238.847 4.9 235.44C3.40667 232.033 2.66 228.137 2.66 223.75C2.66 219.363 3.43 215.467 4.97 212.06C6.51 208.653 8.65667 205.783 11.41 203.45C14.21 201.117 17.43 199.367 21.07 198.2C24.7567 196.987 28.77 196.38 33.11 196.38C38.8967 196.38 43.89 197.267 48.09 199.04C52.29 200.813 55.6733 203.24 58.24 206.32C60.8067 209.4 62.4633 212.97 63.21 217.03H48.58C48.1133 215.257 47.1567 213.74 45.71 212.48C44.31 211.173 42.5367 210.193 40.39 209.54C38.29 208.84 35.8867 208.49 33.18 208.49C29.9133 208.49 27.09 209.073 24.71 210.24C22.33 211.36 20.4867 213.063 19.18 215.35C17.8733 217.59 17.22 220.39 17.22 223.75C17.22 227.157 17.92 230.027 19.32 232.36C20.72 234.693 22.7033 236.443 25.27 237.61C27.8833 238.777 30.94 239.36 34.44 239.36C37.8467 239.36 40.8567 238.893 43.47 237.96C46.0833 236.98 48.16 235.557 49.7 233.69C51.2867 231.823 52.1967 229.583 52.43 226.97L58.66 227.25ZM35.84 233.06V222.84H63.7V250H53.41L51.38 229.21L54.11 233.06H35.84ZM72.3707 197.5H86.8607V250H72.3707V197.5ZM122.818 197.5C129.025 197.5 134.462 198.597 139.128 200.79C143.842 202.937 147.482 205.993 150.048 209.96C152.662 213.88 153.968 218.477 153.968 223.75C153.968 229.023 152.662 233.643 150.048 237.61C147.482 241.53 143.842 244.587 139.128 246.78C134.462 248.927 129.025 250 122.818 250H96.6383V197.5H122.818ZM111.058 243.91L104.128 237.12H123.938C127.065 237.12 129.772 236.583 132.058 235.51C134.392 234.39 136.188 232.827 137.448 230.82C138.708 228.813 139.338 226.457 139.338 223.75C139.338 220.997 138.708 218.64 137.448 216.68C136.188 214.673 134.392 213.133 132.058 212.06C129.772 210.94 127.065 210.38 123.938 210.38H104.128L111.058 203.59V243.91ZM205.698 218.5V229H167.268V218.5H205.698ZM177.138 223.75L173.708 244.82L167.828 238.24H208.008V250H159.218L163.208 223.75L159.218 197.5H207.658V209.26H167.828L173.708 202.68L177.138 223.75ZM244.424 251.12C238.217 251.12 232.757 249.977 228.044 247.69C223.377 245.403 219.737 242.207 217.124 238.1C214.557 233.993 213.274 229.21 213.274 223.75C213.274 218.29 214.557 213.507 217.124 209.4C219.737 205.293 223.377 202.097 228.044 199.81C232.757 197.523 238.217 196.38 244.424 196.38C250.677 196.38 256.137 197.523 260.804 199.81C265.47 202.097 269.11 205.293 271.724 209.4C274.337 213.507 275.644 218.29 275.644 223.75C275.644 229.21 274.337 233.993 271.724 238.1C269.11 242.207 265.47 245.403 260.804 247.69C256.137 249.977 250.677 251.12 244.424 251.12ZM244.424 238.17C247.83 238.17 250.77 237.587 253.244 236.42C255.717 235.253 257.607 233.597 258.914 231.45C260.267 229.303 260.944 226.737 260.944 223.75C260.944 220.763 260.267 218.197 258.914 216.05C257.607 213.903 255.717 212.247 253.244 211.08C250.77 209.913 247.83 209.33 244.424 209.33C241.064 209.33 238.147 209.913 235.674 211.08C233.2 212.247 231.287 213.903 229.934 216.05C228.58 218.197 227.904 220.763 227.904 223.75C227.904 226.737 228.58 229.303 229.934 231.45C231.287 233.597 233.2 235.253 235.674 236.42C238.147 237.587 241.064 238.17 244.424 238.17ZM331.773 239.85L327.293 240.76V197.5H341.363V250H323.093L292.783 206.81L297.193 205.9V250H283.123V197.5H301.883L331.773 239.85ZM396.01 218.5V229H357.58V218.5H396.01ZM367.45 223.75L364.02 244.82L358.14 238.24H398.32V250H349.53L353.52 223.75L349.53 197.5H397.97V209.26H358.14L364.02 202.68L367.45 223.75Z" fill="#646987"/>
<path opacity="0.05" d="M58.66 317.25C58.52 320.423 57.8667 323.457 56.7 326.35C55.58 329.197 53.9233 331.74 51.73 333.98C49.5833 336.22 46.8767 337.97 43.61 339.23C40.39 340.49 36.6333 341.12 32.34 341.12C28.2333 341.12 24.3833 340.537 20.79 339.37C17.1967 338.157 14.0233 336.383 11.27 334.05C8.56333 331.717 6.44 328.847 4.9 325.44C3.40667 322.033 2.66 318.137 2.66 313.75C2.66 309.363 3.43 305.467 4.97 302.06C6.51 298.653 8.65667 295.783 11.41 293.45C14.21 291.117 17.43 289.367 21.07 288.2C24.7567 286.987 28.77 286.38 33.11 286.38C38.8967 286.38 43.89 287.267 48.09 289.04C52.29 290.813 55.6733 293.24 58.24 296.32C60.8067 299.4 62.4633 302.97 63.21 307.03H48.58C48.1133 305.257 47.1567 303.74 45.71 302.48C44.31 301.173 42.5367 300.193 40.39 299.54C38.29 298.84 35.8867 298.49 33.18 298.49C29.9133 298.49 27.09 299.073 24.71 300.24C22.33 301.36 20.4867 303.063 19.18 305.35C17.8733 307.59 17.22 310.39 17.22 313.75C17.22 317.157 17.92 320.027 19.32 322.36C20.72 324.693 22.7033 326.443 25.27 327.61C27.8833 328.777 30.94 329.36 34.44 329.36C37.8467 329.36 40.8567 328.893 43.47 327.96C46.0833 326.98 48.16 325.557 49.7 323.69C51.2867 321.823 52.1967 319.583 52.43 316.97L58.66 317.25ZM35.84 323.06V312.84H63.7V340H53.41L51.38 319.21L54.11 323.06H35.84ZM72.3707 287.5H86.8607V340H72.3707V287.5ZM122.818 287.5C129.025 287.5 134.462 288.597 139.128 290.79C143.842 292.937 147.482 295.993 150.048 299.96C152.662 303.88 153.968 308.477 153.968 313.75C153.968 319.023 152.662 323.643 150.048 327.61C147.482 331.53 143.842 334.587 139.128 336.78C134.462 338.927 129.025 340 122.818 340H96.6383V287.5H122.818ZM111.058 333.91L104.128 327.12H123.938C127.065 327.12 129.772 326.583 132.058 325.51C134.392 324.39 136.188 322.827 137.448 320.82C138.708 318.813 139.338 316.457 139.338 313.75C139.338 310.997 138.708 308.64 137.448 306.68C136.188 304.673 134.392 303.133 132.058 302.06C129.772 300.94 127.065 300.38 123.938 300.38H104.128L111.058 293.59V333.91ZM205.698 308.5V319H167.268V308.5H205.698ZM177.138 313.75L173.708 334.82L167.828 328.24H208.008V340H159.218L163.208 313.75L159.218 287.5H207.658V299.26H167.828L173.708 292.68L177.138 313.75ZM244.424 341.12C238.217 341.12 232.757 339.977 228.044 337.69C223.377 335.403 219.737 332.207 217.124 328.1C214.557 323.993 213.274 319.21 213.274 313.75C213.274 308.29 214.557 303.507 217.124 299.4C219.737 295.293 223.377 292.097 228.044 289.81C232.757 287.523 238.217 286.38 244.424 286.38C250.677 286.38 256.137 287.523 260.804 289.81C265.47 292.097 269.11 295.293 271.724 299.4C274.337 303.507 275.644 308.29 275.644 313.75C275.644 319.21 274.337 323.993 271.724 328.1C269.11 332.207 265.47 335.403 260.804 337.69C256.137 339.977 250.677 341.12 244.424 341.12ZM244.424 328.17C247.83 328.17 250.77 327.587 253.244 326.42C255.717 325.253 257.607 323.597 258.914 321.45C260.267 319.303 260.944 316.737 260.944 313.75C260.944 310.763 260.267 308.197 258.914 306.05C257.607 303.903 255.717 302.247 253.244 301.08C250.77 299.913 247.83 299.33 244.424 299.33C241.064 299.33 238.147 299.913 235.674 301.08C233.2 302.247 231.287 303.903 229.934 306.05C228.58 308.197 227.904 310.763 227.904 313.75C227.904 316.737 228.58 319.303 229.934 321.45C231.287 323.597 233.2 325.253 235.674 326.42C238.147 327.587 241.064 328.17 244.424 328.17ZM331.773 329.85L327.293 330.76V287.5H341.363V340H323.093L292.783 296.81L297.193 295.9V340H283.123V287.5H301.883L331.773 329.85ZM396.01 308.5V319H357.58V308.5H396.01ZM367.45 313.75L364.02 334.82L358.14 328.24H398.32V340H349.53L353.52 313.75L349.53 287.5H397.97V299.26H358.14L364.02 292.68L367.45 313.75Z" fill="#646987"/>
<path opacity="0.05" d="M58.66 407.25C58.52 410.423 57.8667 413.457 56.7 416.35C55.58 419.197 53.9233 421.74 51.73 423.98C49.5833 426.22 46.8767 427.97 43.61 429.23C40.39 430.49 36.6333 431.12 32.34 431.12C28.2333 431.12 24.3833 430.537 20.79 429.37C17.1967 428.157 14.0233 426.383 11.27 424.05C8.56333 421.717 6.44 418.847 4.9 415.44C3.40667 412.033 2.66 408.137 2.66 403.75C2.66 399.363 3.43 395.467 4.97 392.06C6.51 388.653 8.65667 385.783 11.41 383.45C14.21 381.117 17.43 379.367 21.07 378.2C24.7567 376.987 28.77 376.38 33.11 376.38C38.8967 376.38 43.89 377.267 48.09 379.04C52.29 380.813 55.6733 383.24 58.24 386.32C60.8067 389.4 62.4633 392.97 63.21 397.03H48.58C48.1133 395.257 47.1567 393.74 45.71 392.48C44.31 391.173 42.5367 390.193 40.39 389.54C38.29 388.84 35.8867 388.49 33.18 388.49C29.9133 388.49 27.09 389.073 24.71 390.24C22.33 391.36 20.4867 393.063 19.18 395.35C17.8733 397.59 17.22 400.39 17.22 403.75C17.22 407.157 17.92 410.027 19.32 412.36C20.72 414.693 22.7033 416.443 25.27 417.61C27.8833 418.777 30.94 419.36 34.44 419.36C37.8467 419.36 40.8567 418.893 43.47 417.96C46.0833 416.98 48.16 415.557 49.7 413.69C51.2867 411.823 52.1967 409.583 52.43 406.97L58.66 407.25ZM35.84 413.06V402.84H63.7V430H53.41L51.38 409.21L54.11 413.06H35.84ZM72.3707 377.5H86.8607V430H72.3707V377.5ZM122.818 377.5C129.025 377.5 134.462 378.597 139.128 380.79C143.842 382.937 147.482 385.993 150.048 389.96C152.662 393.88 153.968 398.477 153.968 403.75C153.968 409.023 152.662 413.643 150.048 417.61C147.482 421.53 143.842 424.587 139.128 426.78C134.462 428.927 129.025 430 122.818 430H96.6383V377.5H122.818ZM111.058 423.91L104.128 417.12H123.938C127.065 417.12 129.772 416.583 132.058 415.51C134.392 414.39 136.188 412.827 137.448 410.82C138.708 408.813 139.338 406.457 139.338 403.75C139.338 400.997 138.708 398.64 137.448 396.68C136.188 394.673 134.392 393.133 132.058 392.06C129.772 390.94 127.065 390.38 123.938 390.38H104.128L111.058 383.59V423.91ZM205.698 398.5V409H167.268V398.5H205.698ZM177.138 403.75L173.708 424.82L167.828 418.24H208.008V430H159.218L163.208 403.75L159.218 377.5H207.658V389.26H167.828L173.708 382.68L177.138 403.75ZM244.424 431.12C238.217 431.12 232.757 429.977 228.044 427.69C223.377 425.403 219.737 422.207 217.124 418.1C214.557 413.993 213.274 409.21 213.274 403.75C213.274 398.29 214.557 393.507 217.124 389.4C219.737 385.293 223.377 382.097 228.044 379.81C232.757 377.523 238.217 376.38 244.424 376.38C250.677 376.38 256.137 377.523 260.804 379.81C265.47 382.097 269.11 385.293 271.724 389.4C274.337 393.507 275.644 398.29 275.644 403.75C275.644 409.21 274.337 413.993 271.724 418.1C269.11 422.207 265.47 425.403 260.804 427.69C256.137 429.977 250.677 431.12 244.424 431.12ZM244.424 418.17C247.83 418.17 250.77 417.587 253.244 416.42C255.717 415.253 257.607 413.597 258.914 411.45C260.267 409.303 260.944 406.737 260.944 403.75C260.944 400.763 260.267 398.197 258.914 396.05C257.607 393.903 255.717 392.247 253.244 391.08C250.77 389.913 247.83 389.33 244.424 389.33C241.064 389.33 238.147 389.913 235.674 391.08C233.2 392.247 231.287 393.903 229.934 396.05C228.58 398.197 227.904 400.763 227.904 403.75C227.904 406.737 228.58 409.303 229.934 411.45C231.287 413.597 233.2 415.253 235.674 416.42C238.147 417.587 241.064 418.17 244.424 418.17ZM331.773 419.85L327.293 420.76V377.5H341.363V430H323.093L292.783 386.81L297.193 385.9V430H283.123V377.5H301.883L331.773 419.85ZM396.01 398.5V409H357.58V398.5H396.01ZM367.45 403.75L364.02 424.82L358.14 418.24H398.32V430H349.53L353.52 403.75L349.53 377.5H397.97V389.26H358.14L364.02 382.68L367.45 403.75Z" fill="#646987"/>
<path opacity="0.05" d="M58.66 497.25C58.52 500.423 57.8667 503.457 56.7 506.35C55.58 509.197 53.9233 511.74 51.73 513.98C49.5833 516.22 46.8767 517.97 43.61 519.23C40.39 520.49 36.6333 521.12 32.34 521.12C28.2333 521.12 24.3833 520.537 20.79 519.37C17.1967 518.157 14.0233 516.383 11.27 514.05C8.56333 511.717 6.44 508.847 4.9 505.44C3.40667 502.033 2.66 498.137 2.66 493.75C2.66 489.363 3.43 485.467 4.97 482.06C6.51 478.653 8.65667 475.783 11.41 473.45C14.21 471.117 17.43 469.367 21.07 468.2C24.7567 466.987 28.77 466.38 33.11 466.38C38.8967 466.38 43.89 467.267 48.09 469.04C52.29 470.813 55.6733 473.24 58.24 476.32C60.8067 479.4 62.4633 482.97 63.21 487.03H48.58C48.1133 485.257 47.1567 483.74 45.71 482.48C44.31 481.173 42.5367 480.193 40.39 479.54C38.29 478.84 35.8867 478.49 33.18 478.49C29.9133 478.49 27.09 479.073 24.71 480.24C22.33 481.36 20.4867 483.063 19.18 485.35C17.8733 487.59 17.22 490.39 17.22 493.75C17.22 497.157 17.92 500.027 19.32 502.36C20.72 504.693 22.7033 506.443 25.27 507.61C27.8833 508.777 30.94 509.36 34.44 509.36C37.8467 509.36 40.8567 508.893 43.47 507.96C46.0833 506.98 48.16 505.557 49.7 503.69C51.2867 501.823 52.1967 499.583 52.43 496.97L58.66 497.25ZM35.84 503.06V492.84H63.7V520H53.41L51.38 499.21L54.11 503.06H35.84ZM72.3707 467.5H86.8607V520H72.3707V467.5ZM122.818 467.5C129.025 467.5 134.462 468.597 139.128 470.79C143.842 472.937 147.482 475.993 150.048 479.96C152.662 483.88 153.968 488.477 153.968 493.75C153.968 499.023 152.662 503.643 150.048 507.61C147.482 511.53 143.842 514.587 139.128 516.78C134.462 518.927 129.025 520 122.818 520H96.6383V467.5H122.818ZM111.058 513.91L104.128 507.12H123.938C127.065 507.12 129.772 506.583 132.058 505.51C134.392 504.39 136.188 502.827 137.448 500.82C138.708 498.813 139.338 496.457 139.338 493.75C139.338 490.997 138.708 488.64 137.448 486.68C136.188 484.673 134.392 483.133 132.058 482.06C129.772 480.94 127.065 480.38 123.938 480.38H104.128L111.058 473.59V513.91ZM205.698 488.5V499H167.268V488.5H205.698ZM177.138 493.75L173.708 514.82L167.828 508.24H208.008V520H159.218L163.208 493.75L159.218 467.5H207.658V479.26H167.828L173.708 472.68L177.138 493.75ZM244.424 521.12C238.217 521.12 232.757 519.977 228.044 517.69C223.377 515.403 219.737 512.207 217.124 508.1C214.557 503.993 213.274 499.21 213.274 493.75C213.274 488.29 214.557 483.507 217.124 479.4C219.737 475.293 223.377 472.097 228.044 469.81C232.757 467.523 238.217 466.38 244.424 466.38C250.677 466.38 256.137 467.523 260.804 469.81C265.47 472.097 269.11 475.293 271.724 479.4C274.337 483.507 275.644 488.29 275.644 493.75C275.644 499.21 274.337 503.993 271.724 508.1C269.11 512.207 265.47 515.403 260.804 517.69C256.137 519.977 250.677 521.12 244.424 521.12ZM244.424 508.17C247.83 508.17 250.77 507.587 253.244 506.42C255.717 505.253 257.607 503.597 258.914 501.45C260.267 499.303 260.944 496.737 260.944 493.75C260.944 490.763 260.267 488.197 258.914 486.05C257.607 483.903 255.717 482.247 253.244 481.08C250.77 479.913 247.83 479.33 244.424 479.33C241.064 479.33 238.147 479.913 235.674 481.08C233.2 482.247 231.287 483.903 229.934 486.05C228.58 488.197 227.904 490.763 227.904 493.75C227.904 496.737 228.58 499.303 229.934 501.45C231.287 503.597 233.2 505.253 235.674 506.42C238.147 507.587 241.064 508.17 244.424 508.17ZM331.773 509.85L327.293 510.76V467.5H341.363V520H323.093L292.783 476.81L297.193 475.9V520H283.123V467.5H301.883L331.773 509.85ZM396.01 488.5V499H357.58V488.5H396.01ZM367.45 493.75L364.02 514.82L358.14 508.24H398.32V520H349.53L353.52 493.75L349.53 467.5H397.97V479.26H358.14L364.02 472.68L367.45 493.75Z" fill="#646987"/>
<path opacity="0.05" d="M58.66 587.25C58.52 590.423 57.8667 593.457 56.7 596.35C55.58 599.197 53.9233 601.74 51.73 603.98C49.5833 606.22 46.8767 607.97 43.61 609.23C40.39 610.49 36.6333 611.12 32.34 611.12C28.2333 611.12 24.3833 610.537 20.79 609.37C17.1967 608.157 14.0233 606.383 11.27 604.05C8.56333 601.717 6.44 598.847 4.9 595.44C3.40667 592.033 2.66 588.137 2.66 583.75C2.66 579.363 3.43 575.467 4.97 572.06C6.51 568.653 8.65667 565.783 11.41 563.45C14.21 561.117 17.43 559.367 21.07 558.2C24.7567 556.987 28.77 556.38 33.11 556.38C38.8967 556.38 43.89 557.267 48.09 559.04C52.29 560.813 55.6733 563.24 58.24 566.32C60.8067 569.4 62.4633 572.97 63.21 577.03H48.58C48.1133 575.257 47.1567 573.74 45.71 572.48C44.31 571.173 42.5367 570.193 40.39 569.54C38.29 568.84 35.8867 568.49 33.18 568.49C29.9133 568.49 27.09 569.073 24.71 570.24C22.33 571.36 20.4867 573.063 19.18 575.35C17.8733 577.59 17.22 580.39 17.22 583.75C17.22 587.157 17.92 590.027 19.32 592.36C20.72 594.693 22.7033 596.443 25.27 597.61C27.8833 598.777 30.94 599.36 34.44 599.36C37.8467 599.36 40.8567 598.893 43.47 597.96C46.0833 596.98 48.16 595.557 49.7 593.69C51.2867 591.823 52.1967 589.583 52.43 586.97L58.66 587.25ZM35.84 593.06V582.84H63.7V610H53.41L51.38 589.21L54.11 593.06H35.84ZM72.3707 557.5H86.8607V610H72.3707V557.5ZM122.818 557.5C129.025 557.5 134.462 558.597 139.128 560.79C143.842 562.937 147.482 565.993 150.048 569.96C152.662 573.88 153.968 578.477 153.968 583.75C153.968 589.023 152.662 593.643 150.048 597.61C147.482 601.53 143.842 604.587 139.128 606.78C134.462 608.927 129.025 610 122.818 610H96.6383V557.5H122.818ZM111.058 603.91L104.128 597.12H123.938C127.065 597.12 129.772 596.583 132.058 595.51C134.392 594.39 136.188 592.827 137.448 590.82C138.708 588.813 139.338 586.457 139.338 583.75C139.338 580.997 138.708 578.64 137.448 576.68C136.188 574.673 134.392 573.133 132.058 572.06C129.772 570.94 127.065 570.38 123.938 570.38H104.128L111.058 563.59V603.91ZM205.698 578.5V589H167.268V578.5H205.698ZM177.138 583.75L173.708 604.82L167.828 598.24H208.008V610H159.218L163.208 583.75L159.218 557.5H207.658V569.26H167.828L173.708 562.68L177.138 583.75ZM244.424 611.12C238.217 611.12 232.757 609.977 228.044 607.69C223.377 605.403 219.737 602.207 217.124 598.1C214.557 593.993 213.274 589.21 213.274 583.75C213.274 578.29 214.557 573.507 217.124 569.4C219.737 565.293 223.377 562.097 228.044 559.81C232.757 557.523 238.217 556.38 244.424 556.38C250.677 556.38 256.137 557.523 260.804 559.81C265.47 562.097 269.11 565.293 271.724 569.4C274.337 573.507 275.644 578.29 275.644 583.75C275.644 589.21 274.337 593.993 271.724 598.1C269.11 602.207 265.47 605.403 260.804 607.69C256.137 609.977 250.677 611.12 244.424 611.12ZM244.424 598.17C247.83 598.17 250.77 597.587 253.244 596.42C255.717 595.253 257.607 593.597 258.914 591.45C260.267 589.303 260.944 586.737 260.944 583.75C260.944 580.763 260.267 578.197 258.914 576.05C257.607 573.903 255.717 572.247 253.244 571.08C250.77 569.913 247.83 569.33 244.424 569.33C241.064 569.33 238.147 569.913 235.674 571.08C233.2 572.247 231.287 573.903 229.934 576.05C228.58 578.197 227.904 580.763 227.904 583.75C227.904 586.737 228.58 589.303 229.934 591.45C231.287 593.597 233.2 595.253 235.674 596.42C238.147 597.587 241.064 598.17 244.424 598.17ZM331.773 599.85L327.293 600.76V557.5H341.363V610H323.093L292.783 566.81L297.193 565.9V610H283.123V557.5H301.883L331.773 599.85ZM396.01 578.5V589H357.58V578.5H396.01ZM367.45 583.75L364.02 604.82L358.14 598.24H398.32V610H349.53L353.52 583.75L349.53 557.5H397.97V569.26H358.14L364.02 562.68L367.45 583.75Z" fill="#646987"/>
<path opacity="0.05" d="M58.66 677.25C58.52 680.423 57.8667 683.457 56.7 686.35C55.58 689.197 53.9233 691.74 51.73 693.98C49.5833 696.22 46.8767 697.97 43.61 699.23C40.39 700.49 36.6333 701.12 32.34 701.12C28.2333 701.12 24.3833 700.537 20.79 699.37C17.1967 698.157 14.0233 696.383 11.27 694.05C8.56333 691.717 6.44 688.847 4.9 685.44C3.40667 682.033 2.66 678.137 2.66 673.75C2.66 669.363 3.43 665.467 4.97 662.06C6.51 658.653 8.65667 655.783 11.41 653.45C14.21 651.117 17.43 649.367 21.07 648.2C24.7567 646.987 28.77 646.38 33.11 646.38C38.8967 646.38 43.89 647.267 48.09 649.04C52.29 650.813 55.6733 653.24 58.24 656.32C60.8067 659.4 62.4633 662.97 63.21 667.03H48.58C48.1133 665.257 47.1567 663.74 45.71 662.48C44.31 661.173 42.5367 660.193 40.39 659.54C38.29 658.84 35.8867 658.49 33.18 658.49C29.9133 658.49 27.09 659.073 24.71 660.24C22.33 661.36 20.4867 663.063 19.18 665.35C17.8733 667.59 17.22 670.39 17.22 673.75C17.22 677.157 17.92 680.027 19.32 682.36C20.72 684.693 22.7033 686.443 25.27 687.61C27.8833 688.777 30.94 689.36 34.44 689.36C37.8467 689.36 40.8567 688.893 43.47 687.96C46.0833 686.98 48.16 685.557 49.7 683.69C51.2867 681.823 52.1967 679.583 52.43 676.97L58.66 677.25ZM35.84 683.06V672.84H63.7V700H53.41L51.38 679.21L54.11 683.06H35.84ZM72.3707 647.5H86.8607V700H72.3707V647.5ZM122.818 647.5C129.025 647.5 134.462 648.597 139.128 650.79C143.842 652.937 147.482 655.993 150.048 659.96C152.662 663.88 153.968 668.477 153.968 673.75C153.968 679.023 152.662 683.643 150.048 687.61C147.482 691.53 143.842 694.587 139.128 696.78C134.462 698.927 129.025 700 122.818 700H96.6383V647.5H122.818ZM111.058 693.91L104.128 687.12H123.938C127.065 687.12 129.772 686.583 132.058 685.51C134.392 684.39 136.188 682.827 137.448 680.82C138.708 678.813 139.338 676.457 139.338 673.75C139.338 670.997 138.708 668.64 137.448 666.68C136.188 664.673 134.392 663.133 132.058 662.06C129.772 660.94 127.065 660.38 123.938 660.38H104.128L111.058 653.59V693.91ZM205.698 668.5V679H167.268V668.5H205.698ZM177.138 673.75L173.708 694.82L167.828 688.24H208.008V700H159.218L163.208 673.75L159.218 647.5H207.658V659.26H167.828L173.708 652.68L177.138 673.75ZM244.424 701.12C238.217 701.12 232.757 699.977 228.044 697.69C223.377 695.403 219.737 692.207 217.124 688.1C214.557 683.993 213.274 679.21 213.274 673.75C213.274 668.29 214.557 663.507 217.124 659.4C219.737 655.293 223.377 652.097 228.044 649.81C232.757 647.523 238.217 646.38 244.424 646.38C250.677 646.38 256.137 647.523 260.804 649.81C265.47 652.097 269.11 655.293 271.724 659.4C274.337 663.507 275.644 668.29 275.644 673.75C275.644 679.21 274.337 683.993 271.724 688.1C269.11 692.207 265.47 695.403 260.804 697.69C256.137 699.977 250.677 701.12 244.424 701.12ZM244.424 688.17C247.83 688.17 250.77 687.587 253.244 686.42C255.717 685.253 257.607 683.597 258.914 681.45C260.267 679.303 260.944 676.737 260.944 673.75C260.944 670.763 260.267 668.197 258.914 666.05C257.607 663.903 255.717 662.247 253.244 661.08C250.77 659.913 247.83 659.33 244.424 659.33C241.064 659.33 238.147 659.913 235.674 661.08C233.2 662.247 231.287 663.903 229.934 666.05C228.58 668.197 227.904 670.763 227.904 673.75C227.904 676.737 228.58 679.303 229.934 681.45C231.287 683.597 233.2 685.253 235.674 686.42C238.147 687.587 241.064 688.17 244.424 688.17ZM331.773 689.85L327.293 690.76V647.5H341.363V700H323.093L292.783 656.81L297.193 655.9V700H283.123V647.5H301.883L331.773 689.85ZM396.01 668.5V679H357.58V668.5H396.01ZM367.45 673.75L364.02 694.82L358.14 688.24H398.32V700H349.53L353.52 673.75L349.53 647.5H397.97V659.26H358.14L364.02 652.68L367.45 673.75Z" fill="#646987"/>
<path opacity="0.05" d="M58.66 767.25C58.52 770.423 57.8667 773.457 56.7 776.35C55.58 779.197 53.9233 781.74 51.73 783.98C49.5833 786.22 46.8767 787.97 43.61 789.23C40.39 790.49 36.6333 791.12 32.34 791.12C28.2333 791.12 24.3833 790.537 20.79 789.37C17.1967 788.157 14.0233 786.383 11.27 784.05C8.56333 781.717 6.44 778.847 4.9 775.44C3.40667 772.033 2.66 768.137 2.66 763.75C2.66 759.363 3.43 755.467 4.97 752.06C6.51 748.653 8.65667 745.783 11.41 743.45C14.21 741.117 17.43 739.367 21.07 738.2C24.7567 736.987 28.77 736.38 33.11 736.38C38.8967 736.38 43.89 737.267 48.09 739.04C52.29 740.813 55.6733 743.24 58.24 746.32C60.8067 749.4 62.4633 752.97 63.21 757.03H48.58C48.1133 755.257 47.1567 753.74 45.71 752.48C44.31 751.173 42.5367 750.193 40.39 749.54C38.29 748.84 35.8867 748.49 33.18 748.49C29.9133 748.49 27.09 749.073 24.71 750.24C22.33 751.36 20.4867 753.063 19.18 755.35C17.8733 757.59 17.22 760.39 17.22 763.75C17.22 767.157 17.92 770.027 19.32 772.36C20.72 774.693 22.7033 776.443 25.27 777.61C27.8833 778.777 30.94 779.36 34.44 779.36C37.8467 779.36 40.8567 778.893 43.47 777.96C46.0833 776.98 48.16 775.557 49.7 773.69C51.2867 771.823 52.1967 769.583 52.43 766.97L58.66 767.25ZM35.84 773.06V762.84H63.7V790H53.41L51.38 769.21L54.11 773.06H35.84ZM72.3707 737.5H86.8607V790H72.3707V737.5ZM122.818 737.5C129.025 737.5 134.462 738.597 139.128 740.79C143.842 742.937 147.482 745.993 150.048 749.96C152.662 753.88 153.968 758.477 153.968 763.75C153.968 769.023 152.662 773.643 150.048 777.61C147.482 781.53 143.842 784.587 139.128 786.78C134.462 788.927 129.025 790 122.818 790H96.6383V737.5H122.818ZM111.058 783.91L104.128 777.12H123.938C127.065 777.12 129.772 776.583 132.058 775.51C134.392 774.39 136.188 772.827 137.448 770.82C138.708 768.813 139.338 766.457 139.338 763.75C139.338 760.997 138.708 758.64 137.448 756.68C136.188 754.673 134.392 753.133 132.058 752.06C129.772 750.94 127.065 750.38 123.938 750.38H104.128L111.058 743.59V783.91ZM205.698 758.5V769H167.268V758.5H205.698ZM177.138 763.75L173.708 784.82L167.828 778.24H208.008V790H159.218L163.208 763.75L159.218 737.5H207.658V749.26H167.828L173.708 742.68L177.138 763.75ZM244.424 791.12C238.217 791.12 232.757 789.977 228.044 787.69C223.377 785.403 219.737 782.207 217.124 778.1C214.557 773.993 213.274 769.21 213.274 763.75C213.274 758.29 214.557 753.507 217.124 749.4C219.737 745.293 223.377 742.097 228.044 739.81C232.757 737.523 238.217 736.38 244.424 736.38C250.677 736.38 256.137 737.523 260.804 739.81C265.47 742.097 269.11 745.293 271.724 749.4C274.337 753.507 275.644 758.29 275.644 763.75C275.644 769.21 274.337 773.993 271.724 778.1C269.11 782.207 265.47 785.403 260.804 787.69C256.137 789.977 250.677 791.12 244.424 791.12ZM244.424 778.17C247.83 778.17 250.77 777.587 253.244 776.42C255.717 775.253 257.607 773.597 258.914 771.45C260.267 769.303 260.944 766.737 260.944 763.75C260.944 760.763 260.267 758.197 258.914 756.05C257.607 753.903 255.717 752.247 253.244 751.08C250.77 749.913 247.83 749.33 244.424 749.33C241.064 749.33 238.147 749.913 235.674 751.08C233.2 752.247 231.287 753.903 229.934 756.05C228.58 758.197 227.904 760.763 227.904 763.75C227.904 766.737 228.58 769.303 229.934 771.45C231.287 773.597 233.2 775.253 235.674 776.42C238.147 777.587 241.064 778.17 244.424 778.17ZM331.773 779.85L327.293 780.76V737.5H341.363V790H323.093L292.783 746.81L297.193 745.9V790H283.123V737.5H301.883L331.773 779.85ZM396.01 758.5V769H357.58V758.5H396.01ZM367.45 763.75L364.02 784.82L358.14 778.24H398.32V790H349.53L353.52 763.75L349.53 737.5H397.97V749.26H358.14L364.02 742.68L367.45 763.75Z" fill="#646987"/>
</svg>
