<svg width="307" height="255" viewBox="0 0 307 255" fill="none" xmlns="http://www.w3.org/2000/svg">
<mask id="mask0_336_770" style="mask-type:luminance" maskUnits="userSpaceOnUse" x="0" y="0" width="307" height="255">
<path d="M306.18 0.320312H0.699219V254.872H306.18V0.320312Z" fill="white"/>
</mask>
<g mask="url(#mask0_336_770)">
<path opacity="0.4" d="M151.41 214.043H130.97V228.153H151.41V214.043Z" fill="#C9D2DF"/>
<path d="M151.459 254.87C150.78 254.87 150.129 254.6 149.648 254.12C149.168 253.64 148.898 252.988 148.898 252.309V214.039C148.762 213.653 148.721 213.24 148.778 212.835C148.835 212.429 148.988 212.043 149.224 211.709C149.461 211.375 149.774 211.103 150.138 210.915C150.501 210.727 150.905 210.629 151.314 210.629C151.723 210.629 152.127 210.727 152.49 210.915C152.854 211.103 153.167 211.375 153.404 211.709C153.64 212.043 153.794 212.429 153.85 212.835C153.907 213.24 153.866 213.653 153.73 214.039V252.309C153.745 252.944 153.52 253.561 153.098 254.036C152.677 254.511 152.091 254.809 151.459 254.87Z" fill="#3E3126"/>
<path d="M131.165 254.87C130.831 254.87 130.5 254.804 130.192 254.674C129.884 254.545 129.605 254.356 129.371 254.117C129.137 253.879 128.953 253.596 128.83 253.285C128.706 252.975 128.646 252.643 128.652 252.309V214.039C128.517 213.653 128.475 213.24 128.532 212.835C128.589 212.429 128.742 212.043 128.979 211.709C129.215 211.375 129.528 211.103 129.892 210.915C130.256 210.727 130.659 210.629 131.068 210.629C131.478 210.629 131.881 210.727 132.245 210.915C132.608 211.103 132.921 211.375 133.158 211.709C133.395 212.043 133.548 212.429 133.605 212.835C133.661 213.24 133.62 213.653 133.484 214.039V252.309C133.487 252.948 133.251 253.566 132.822 254.04C132.392 254.513 131.801 254.81 131.165 254.87Z" fill="#3E3126"/>
<path d="M16.7417 87.3005V25.9336H290.187V198.921C290.187 203.278 288.456 207.457 285.375 210.538C282.294 213.619 278.115 215.35 273.758 215.35H42.2548C38.5677 215.357 34.9163 214.626 31.5157 213.201C28.1151 211.776 25.0341 209.685 22.454 207.051C19.8739 204.417 17.847 201.293 16.4925 197.863C15.138 194.434 14.4834 190.768 14.5672 187.082L16.7417 87.3005Z" fill="white"/>
<path opacity="0.4" d="M289.945 111.797C276.538 131.742 258.964 148.541 238.435 161.035C238.164 160.25 237.624 159.585 236.911 159.159C236.198 158.732 235.357 158.571 234.537 158.704C233.716 158.837 232.969 159.255 232.427 159.885C231.885 160.515 231.583 161.316 231.574 162.147C231.604 163.073 231.984 163.953 232.637 164.611C228.674 166.882 224.615 169.057 220.46 171.038C219.261 169.151 217.49 167.696 215.407 166.887C213.323 166.077 211.035 165.955 208.876 166.537C206.718 167.12 204.802 168.378 203.409 170.126C202.016 171.874 201.218 174.022 201.132 176.256C201.132 177.172 201.262 178.083 201.518 178.962C197.314 180.508 193.014 181.861 188.713 183.166C187.77 182.101 186.597 181.265 185.282 180.721C183.968 180.177 182.547 179.939 181.127 180.025C176.295 180.025 172.671 182.441 172.671 185.437C172.683 186.048 172.849 186.647 173.154 187.177C120.51 197.969 65.9867 195.192 14.7119 179.107V186.838C14.6022 190.531 15.2326 194.208 16.5657 197.653C17.8989 201.098 19.908 204.241 22.4746 206.898C25.0412 209.555 28.1135 211.671 31.5105 213.122C34.9075 214.573 38.5605 215.33 42.2545 215.347H273.757C278.114 215.347 282.293 213.617 285.374 210.536C288.455 207.455 290.186 203.276 290.186 198.919L289.945 111.797Z" fill="#C9D2DF"/>
<path opacity="0.6" d="M288.834 24.7266H19.3994V49.8532H288.834V24.7266Z" fill="#C9D2DF"/>
<path d="M273.758 217.76H94.3925C93.7133 217.76 93.0619 217.49 92.5816 217.01C92.1013 216.53 91.8315 215.878 91.8315 215.199C91.8315 214.52 92.1013 213.869 92.5816 213.388C93.0619 212.908 93.7133 212.638 94.3925 212.638H273.758C277.436 212.638 280.963 211.177 283.564 208.576C286.164 205.976 287.626 202.448 287.626 198.77V28.4891H19.2543V87.2951C19.3901 87.6812 19.4313 88.0943 19.3745 88.4997C19.3177 88.905 19.1646 89.2909 18.928 89.6249C18.6914 89.9589 18.3782 90.2313 18.0146 90.4193C17.651 90.6073 17.2476 90.7054 16.8383 90.7054C16.429 90.7054 16.0256 90.6073 15.662 90.4193C15.2984 90.2313 14.9852 89.9589 14.7486 89.6249C14.5119 89.2909 14.3588 88.905 14.3021 88.4997C14.2453 88.0943 14.2865 87.6812 14.4223 87.2951V25.9282C14.4223 25.249 14.6921 24.5976 15.1724 24.1173C15.6526 23.637 16.304 23.3672 16.9832 23.3672H290.186C290.866 23.3672 291.517 23.637 291.997 24.1173C292.478 24.5976 292.747 25.249 292.747 25.9282V198.915C292.697 203.922 290.675 208.708 287.121 212.235C283.566 215.763 278.765 217.748 273.758 217.76Z" fill="#3E3126"/>
<path d="M68.8319 217.754H33.1232C28.1201 217.742 23.3242 215.755 19.7774 212.227C16.2307 208.698 14.2198 203.912 14.1816 198.909V116.281C14.0458 115.895 14.0046 115.482 14.0614 115.077C14.1181 114.672 14.2713 114.286 14.5079 113.952C14.7445 113.618 15.0577 113.345 15.4213 113.157C15.7849 112.969 16.1883 112.871 16.5976 112.871C17.0069 112.871 17.4103 112.969 17.7739 113.157C18.1375 113.345 18.4507 113.618 18.6873 113.952C18.9239 114.286 19.0771 114.672 19.1338 115.077C19.1906 115.482 19.1494 115.895 19.0136 116.281V198.909C18.994 200.763 19.3462 202.602 20.0495 204.317C20.7529 206.033 21.793 207.59 23.1084 208.896C24.4239 210.203 25.9879 211.232 27.708 211.924C29.4282 212.615 31.2695 212.955 33.1232 212.922H68.8319C69.5112 212.922 70.1625 213.192 70.6428 213.672C71.1231 214.153 71.3929 214.804 71.3929 215.483C71.3929 216.162 71.1231 216.814 70.6428 217.294C70.1625 217.774 69.5112 218.044 68.8319 218.044V217.754Z" fill="#3E3126"/>
<path d="M88.1106 68.9883L91.9279 76.7679L100.577 78.0725L94.344 84.1126L95.7936 92.7136L88.1106 88.6547L80.3794 92.7136L81.829 84.1126L75.5957 78.0725L84.245 76.7679L88.1106 68.9883Z" fill="#FF9C01"/>
<path d="M120.244 68.9883L124.062 76.7679L132.711 78.0725L126.478 84.1126L127.927 92.7136L120.244 88.6547L112.513 92.7136L114.011 84.1126L107.778 78.0725L116.379 76.7679L120.244 68.9883Z" fill="#FF9C01"/>
<path d="M152.376 68.9883L156.193 76.7679L164.842 78.0725L158.609 84.1126L160.059 92.7136L152.376 88.6547L144.644 92.7136L146.142 84.1126L139.861 78.0725L148.51 76.7679L152.376 68.9883Z" fill="#FF9C01"/>
<path d="M184.509 68.9883L188.375 76.7679L196.976 78.0725L190.743 84.1126L192.192 92.7136L184.509 88.6547L176.778 92.7136L178.276 84.1126L172.043 78.0725L180.644 76.7679L184.509 68.9883Z" fill="#FF9C01"/>
<path d="M216.642 68.9883L220.508 76.7679L229.109 78.0725L222.875 84.1126L224.325 92.7136L216.642 88.6547L208.911 92.7136L210.409 84.1126L204.175 78.0725L212.776 76.7679L216.642 68.9883Z" fill="#FF9C01"/>
<path d="M33.3644 75.0639H32.9295C32.6249 74.9447 32.3788 74.7115 32.2434 74.4137C32.1081 74.1159 32.0942 73.7771 32.2047 73.4693L38.9213 57.5719C39.059 57.2725 39.305 57.0363 39.6098 56.9108C39.9145 56.7853 40.2555 56.7798 40.5641 56.8954C40.863 57.0325 41.0962 57.2814 41.2137 57.5886C41.3311 57.8958 41.3235 58.2367 41.1923 58.5383L34.5241 74.2907C34.4343 74.5236 34.2747 74.723 34.067 74.8614C33.8593 74.9999 33.6139 75.0706 33.3644 75.0639Z" fill="#3E3126"/>
<path d="M42.3504 67.3862H41.8672C41.7167 67.3278 41.5794 67.2398 41.4634 67.1274C41.3475 67.015 41.2552 66.8805 41.1922 66.7318C41.1291 66.5832 41.0965 66.4234 41.0962 66.2619C41.096 66.1004 41.1281 65.9405 41.1907 65.7917L44.8148 57.2389C44.8722 57.0882 44.9604 56.9512 45.0738 56.8365C45.1872 56.7218 45.3233 56.632 45.4734 56.5729C45.6235 56.5138 45.7842 56.4866 45.9454 56.4931C46.1065 56.4997 46.2645 56.5397 46.4093 56.6108C46.5723 56.6677 46.7211 56.7589 46.8458 56.8783C46.9705 56.9976 47.0682 57.1422 47.1323 57.3025C47.1964 57.4627 47.2255 57.6349 47.2174 57.8073C47.2094 57.9797 47.1645 58.1484 47.0858 58.302L43.4618 66.8547C43.3413 67.0349 43.1745 67.1793 42.979 67.2728C42.7834 67.3663 42.5663 67.4055 42.3504 67.3862Z" fill="#3E3126"/>
<path d="M81.7815 218.629C83.3294 218.629 84.5841 217.374 84.5841 215.826C84.5841 214.278 83.3294 213.023 81.7815 213.023C80.2337 213.023 78.979 214.278 78.979 215.826C78.979 217.374 80.2337 218.629 81.7815 218.629Z" fill="#3E3126"/>
<path d="M16.7425 104.207C18.2903 104.207 19.5451 102.952 19.5451 101.404C19.5451 99.8563 18.2903 98.6016 16.7425 98.6016C15.1947 98.6016 13.9399 99.8563 13.9399 101.404C13.9399 102.952 15.1947 104.207 16.7425 104.207Z" fill="#3E3126"/>
<path d="M290.185 2.11328H16.7402C9.29461 2.11328 3.25879 8.1491 3.25879 15.5947C3.25879 23.0402 9.29461 29.0761 16.7402 29.0761H290.185C297.631 29.0761 303.667 23.0402 303.667 15.5947C303.667 8.1491 297.631 2.11328 290.185 2.11328Z" fill="#6AE184"/>
<path d="M301.397 16.3144C301.43 18.1101 301.095 19.8935 300.413 21.5553C299.732 23.217 298.719 24.7222 297.435 25.9784C294.865 28.5259 291.39 29.9507 287.771 29.9407L9.3972 27.8629C5.77317 27.8629 6.30469 21.7746 3.88867 19.6485C118.698 26.365 263.417 32.0668 295.454 5.15234C297.288 6.37892 298.79 8.03979 299.827 9.98719C300.864 11.9346 301.403 14.1081 301.397 16.3144Z" fill="#389D9C"/>
<path d="M254.911 24.7692C257.18 24.7692 259.018 22.9303 259.018 20.6619C259.018 18.3936 257.18 16.5547 254.911 16.5547C252.643 16.5547 250.804 18.3936 250.804 20.6619C250.804 22.9303 252.643 24.7692 254.911 24.7692Z" fill="#389D9C"/>
<path d="M267.815 19.412C268.589 19.412 269.216 18.7846 269.216 18.0107C269.216 17.2368 268.589 16.6094 267.815 16.6094C267.041 16.6094 266.414 17.2368 266.414 18.0107C266.414 18.7846 267.041 19.412 267.815 19.412Z" fill="#389D9C"/>
<path d="M242.495 24.7269C243.615 24.7269 244.524 23.8183 244.524 22.6974C244.524 21.5766 243.615 20.668 242.495 20.668C241.374 20.668 240.465 21.5766 240.465 22.6974C240.465 23.8183 241.374 24.7269 242.495 24.7269Z" fill="#389D9C"/>
<path opacity="0.45" d="M231.574 20.6552C232.321 20.6552 232.927 20.0494 232.927 19.3022C232.927 18.555 232.321 17.9492 231.574 17.9492C230.826 17.9492 230.221 18.555 230.221 19.3022C230.221 20.0494 230.826 20.6552 231.574 20.6552Z" fill="#389D9C"/>
<path opacity="0.45" d="M240.125 17.5742C241.46 17.5742 242.542 16.4925 242.542 15.1582C242.542 13.8239 241.46 12.7422 240.125 12.7422C238.791 12.7422 237.709 13.8239 237.709 15.1582C237.709 16.4925 238.791 17.5742 240.125 17.5742Z" fill="#389D9C"/>
<path opacity="0.45" d="M248.777 12.4016C249.924 12.4016 250.854 11.4714 250.854 10.3239C250.854 9.17635 249.924 8.24609 248.777 8.24609C247.629 8.24609 246.699 9.17635 246.699 10.3239C246.699 11.4714 247.629 12.4016 248.777 12.4016Z" fill="#389D9C"/>
<path opacity="0.4" d="M226.259 160.453C227.299 160.453 228.143 159.609 228.143 158.568C228.143 157.527 227.299 156.684 226.259 156.684C225.218 156.684 224.374 157.527 224.374 158.568C224.374 159.609 225.218 160.453 226.259 160.453Z" fill="#C9D2DF"/>
<path opacity="0.4" d="M186.395 169.195C187.942 169.195 189.197 167.94 189.197 166.392C189.197 164.845 187.942 163.59 186.395 163.59C184.847 163.59 183.592 164.845 183.592 166.392C183.592 167.94 184.847 169.195 186.395 169.195Z" fill="#C9D2DF"/>
<path opacity="0.4" d="M206.591 156.723C207.312 156.723 207.896 156.138 207.896 155.418C207.896 154.697 207.312 154.113 206.591 154.113C205.871 154.113 205.287 154.697 205.287 155.418C205.287 156.138 205.871 156.723 206.591 156.723Z" fill="#C9D2DF"/>
<path d="M86.7096 3.11328H11.3299C8.34095 3.11328 5.91797 5.53626 5.91797 8.52517V8.57349C5.91797 11.5624 8.34095 13.9854 11.3299 13.9854H86.7096C89.6985 13.9854 92.1215 11.5624 92.1215 8.57349V8.52517C92.1215 5.53626 89.6985 3.11328 86.7096 3.11328Z" fill="#C0FFCC"/>
<path d="M290.186 32.6075H16.7413C14.5638 32.7271 12.3847 32.4015 10.3372 31.6506C8.28977 30.8996 6.41692 29.7391 4.8331 28.2399C3.24929 26.7407 1.98777 24.9344 1.12564 22.9312C0.2635 20.928 -0.181152 18.7701 -0.181152 16.5892C-0.181152 14.4084 0.2635 12.2505 1.12564 10.2473C1.98777 8.24412 3.24929 6.43775 4.8331 4.93857C6.41692 3.43938 8.28977 2.27887 10.3372 1.52793C12.3847 0.776988 14.5638 0.451393 16.7413 0.571036H104.491C104.854 0.520886 105.223 0.549012 105.573 0.653518C105.924 0.758024 106.248 0.936484 106.524 1.17687C106.8 1.41726 107.021 1.714 107.173 2.04709C107.325 2.38018 107.403 2.7419 107.403 3.10786C107.403 3.47382 107.325 3.83553 107.173 4.16862C107.021 4.50171 106.8 4.79845 106.524 5.03884C106.248 5.27923 105.924 5.45769 105.573 5.56219C105.223 5.6667 104.854 5.69483 104.491 5.64468H16.7413C13.8451 5.64468 11.0674 6.79522 9.01943 8.84319C6.97146 10.8912 5.82092 13.6688 5.82092 16.5651C5.82092 19.4614 6.97146 22.239 9.01943 24.287C11.0674 26.335 13.8451 27.4855 16.7413 27.4855H290.186C291.62 27.4855 293.041 27.203 294.365 26.6542C295.69 26.1054 296.894 25.301 297.908 24.287C298.922 23.2729 299.727 22.0691 300.276 20.7441C300.824 19.4192 301.107 17.9992 301.107 16.5651C301.107 15.131 300.824 13.7109 300.276 12.386C299.727 11.0611 298.922 9.85724 297.908 8.84319C296.894 7.82914 295.69 7.02474 294.365 6.47594C293.041 5.92714 291.62 5.64468 290.186 5.64468H126.332C125.682 5.61968 125.068 5.34396 124.617 4.87542C124.167 4.40689 123.915 3.782 123.916 3.13202C123.903 2.47372 124.149 1.83656 124.6 1.35762C125.052 0.878678 125.674 0.596229 126.332 0.571036H290.186C294.283 0.796097 298.137 2.58183 300.957 5.56113C303.777 8.54043 305.349 12.4869 305.349 16.5892C305.349 20.6916 303.777 24.6381 300.957 27.6174C298.137 30.5967 294.283 32.3824 290.186 32.6075Z" fill="#3E3126"/>
<path d="M115.459 5.92548C117.007 5.92548 118.262 4.67072 118.262 3.12289C118.262 1.57507 117.007 0.320312 115.459 0.320312C113.911 0.320312 112.657 1.57507 112.657 3.12289C112.657 4.67072 113.911 5.92548 115.459 5.92548Z" fill="#3E3126"/>
<path d="M242.687 99.4743C242.493 99.4808 242.299 99.4481 242.118 99.3782C241.936 99.3082 241.771 99.2025 241.631 99.0672C241.491 98.9319 241.38 98.7699 241.304 98.5908C241.228 98.4117 241.189 98.2192 241.189 98.0247V32.3573C241.189 31.96 241.347 31.579 241.628 31.2981C241.909 31.0172 242.29 30.8594 242.687 30.8594C243.085 30.8594 243.466 31.0172 243.747 31.2981C244.027 31.579 244.185 31.96 244.185 32.3573V98.0247C244.185 98.2192 244.146 98.4117 244.071 98.5908C243.995 98.7699 243.884 98.9319 243.744 99.0672C243.604 99.2025 243.438 99.3082 243.257 99.3782C243.075 99.4481 242.882 99.4808 242.687 99.4743Z" fill="#3E3126"/>
<path d="M242.688 126.332C239.821 126.332 237.018 125.482 234.634 123.889C232.25 122.296 230.392 120.032 229.295 117.383C228.198 114.735 227.911 111.82 228.47 109.008C229.03 106.196 230.41 103.613 232.437 101.586C234.465 99.5583 237.048 98.1777 239.86 97.6184C242.672 97.0591 245.586 97.3461 248.235 98.4433C250.884 99.5405 253.148 101.398 254.741 103.782C256.334 106.166 257.184 108.969 257.184 111.836C257.184 115.681 255.657 119.368 252.938 122.086C250.22 124.805 246.532 126.332 242.688 126.332ZM242.688 100.239C240.392 100.239 238.148 100.92 236.24 102.197C234.332 103.473 232.845 105.287 231.969 107.409C231.093 109.531 230.866 111.865 231.317 114.116C231.769 116.367 232.878 118.433 234.505 120.053C236.131 121.673 238.202 122.774 240.455 123.216C242.708 123.658 245.041 123.421 247.159 122.536C249.277 121.651 251.085 120.157 252.354 118.244C253.622 116.33 254.294 114.083 254.285 111.788C254.285 110.267 253.984 108.761 253.401 107.357C252.818 105.953 251.963 104.677 250.885 103.604C249.808 102.531 248.529 101.682 247.122 101.104C245.715 100.527 244.208 100.233 242.688 100.239Z" fill="#3E3126"/>
<path d="M213.358 109.723H120.293C119.546 109.723 118.94 110.328 118.94 111.076V115.859C118.94 116.607 119.546 117.212 120.293 117.212H213.358C214.105 117.212 214.711 116.607 214.711 115.859V111.076C214.711 110.328 214.105 109.723 213.358 109.723Z" fill="#C9D2DF"/>
<path d="M213.358 126.727H120.293C119.546 126.727 118.94 127.332 118.94 128.08V132.863C118.94 133.61 119.546 134.216 120.293 134.216H213.358C214.105 134.216 214.711 133.61 214.711 132.863V128.08C214.711 127.332 214.105 126.727 213.358 126.727Z" fill="#C9D2DF"/>
<path d="M213.358 143.695H120.293C119.546 143.695 118.94 144.301 118.94 145.048V149.832C118.94 150.579 119.546 151.185 120.293 151.185H213.358C214.105 151.185 214.711 150.579 214.711 149.832V145.048C214.711 144.301 214.105 143.695 213.358 143.695Z" fill="#C9D2DF"/>
<path d="M100.481 133.983C100.036 132.981 99.3949 132.077 98.5966 131.325C97.8457 130.603 97.0005 129.985 96.0839 129.489C95.1951 129.009 94.2749 128.589 93.3296 128.233L89.8023 126.783C88.8177 126.392 87.916 125.818 87.1446 125.092C86.8127 124.775 86.551 124.392 86.3762 123.967C86.2014 123.543 86.1175 123.087 86.1299 122.628C86.1145 121.927 86.2634 121.231 86.5648 120.598C86.9227 120.035 87.4459 119.596 88.0627 119.342C88.8779 119.024 89.7493 118.876 90.6237 118.907C91.54 118.88 92.445 119.115 93.233 119.583C93.9859 120.03 94.6429 120.621 95.1658 121.323C95.7317 122.085 96.2327 122.893 96.6637 123.739L100.819 121.178C100.271 120.016 99.5545 118.942 98.6932 117.989C97.732 116.961 96.5841 116.124 95.3108 115.525C94.4691 115.124 93.574 114.847 92.6532 114.703V109.871H88.4493V114.703C87.3609 114.871 86.3027 115.196 85.3085 115.67C83.9048 116.275 82.6993 117.263 81.8294 118.52C80.9693 119.661 80.5106 121.054 80.5247 122.483C80.4898 123.787 80.7717 125.08 81.3462 126.252C81.8434 127.261 82.5327 128.164 83.3756 128.909C84.1832 129.614 85.076 130.215 86.0333 130.697C86.8622 131.122 87.7176 131.493 88.5942 131.809C89.8023 132.243 90.9136 132.727 91.9767 133.21C92.9285 133.692 93.7939 134.329 94.5376 135.094C95.2323 135.858 95.597 136.865 95.5524 137.897C95.5713 138.702 95.3886 139.5 95.0209 140.216C94.6688 140.849 94.1282 141.355 93.4746 141.666C92.6347 142.019 91.7275 142.184 90.817 142.149C89.6891 142.176 88.5737 141.909 87.5795 141.376C86.5852 140.835 85.7133 140.095 85.0185 139.202C84.1664 138.092 83.4374 136.893 82.8441 135.626L78.7852 138.283C79.4466 139.852 80.3789 141.291 81.5395 142.536C82.6798 143.773 84.0397 144.789 85.5501 145.532C86.469 145.916 87.424 146.207 88.401 146.401V151.233H92.5082V146.401C93.8089 146.287 95.0822 145.961 96.2772 145.435C97.7595 144.751 99.0044 143.641 99.8529 142.246C100.72 140.786 101.155 139.111 101.109 137.414C101.137 136.239 100.923 135.072 100.481 133.983Z" fill="#42CAF8"/>
</g>
</svg>
