<svg width="42" height="28" viewBox="0 0 42 28" fill="none" xmlns="http://www.w3.org/2000/svg">
<path d="M0.75 2.75C0.75 1.50736 1.75736 0.5 3 0.5H39C40.2426 0.5 41.25 1.50736 41.25 2.75C41.25 3.99264 40.2426 5 39 5H3C1.75736 5 0.75 3.99264 0.75 2.75Z" fill="white"/>
<path d="M0.75 14C0.75 12.7574 1.75736 11.75 3 11.75H39C40.2426 11.75 41.25 12.7574 41.25 14C41.25 15.2426 40.2426 16.25 39 16.25H3C1.75736 16.25 0.75 15.2426 0.75 14Z" fill="white"/>
<path d="M0.75 25.25C0.75 24.0074 1.75736 23 3 23H39C40.2426 23 41.25 24.0074 41.25 25.25C41.25 26.4926 40.2426 27.5 39 27.5H3C1.75736 27.5 0.75 26.4926 0.75 25.25Z" fill="white"/>
</svg>
