<svg width="1097" height="804" viewBox="0 0 1097 804" fill="none" xmlns="http://www.w3.org/2000/svg">
<path d="M158.041 801H40.9588C37.7884 800.995 34.7488 799.178 32.5069 795.948C30.265 792.718 29.0038 788.339 29 783.771V551.229C29.0038 546.661 30.265 542.282 32.5069 539.052C34.7488 535.822 37.7884 534.005 40.9588 534H158.041C161.212 534.005 164.251 535.822 166.493 539.052C168.735 542.282 169.996 546.661 170 551.229V783.771C169.996 788.339 168.735 792.718 166.493 795.948C164.251 799.178 161.212 800.995 158.041 801Z" fill="#2A3051"/>
<path d="M370.126 801H253.874C250.726 800.995 247.708 799.33 245.482 796.368C243.256 793.407 242.004 789.392 242 785.205V369.795C242.004 365.607 243.256 361.593 245.482 358.631C247.708 355.67 250.726 354.005 253.874 354H370.126C373.274 354.005 376.292 355.67 378.518 358.631C380.744 361.593 381.996 365.607 382 369.795V785.205C381.996 789.392 380.744 793.407 378.518 796.368C376.292 799.33 373.274 800.995 370.126 801Z" fill="#2A3051"/>
<path d="M583.041 801H465.959C462.788 800.995 459.749 799.178 457.507 795.948C455.265 792.718 454.004 788.339 454 783.771V551.229C454.004 546.661 455.265 542.282 457.507 539.052C459.749 535.822 462.788 534.005 465.959 534H583.041C586.212 534.005 589.251 535.822 591.493 539.052C593.735 542.282 594.996 546.661 595 551.229V783.771C594.996 788.339 593.735 792.718 591.493 795.948C589.251 799.178 586.212 800.995 583.041 801Z" fill="#2A3051"/>
<path d="M795.126 800.996H678.874C675.798 801.083 672.821 799.571 670.595 796.792C668.369 794.013 667.077 790.193 667 786.169V297.831C667.077 293.807 668.369 289.987 670.595 287.208C672.821 284.429 675.798 282.917 678.874 283.004H795.126C798.202 282.917 801.179 284.429 803.405 287.208C805.631 289.987 806.923 293.807 807 297.831V786.169C806.923 790.193 805.631 794.013 803.405 796.792C801.179 799.571 798.202 801.083 795.126 800.996Z" fill="#2A3051"/>
<path d="M1007.13 788H890.874C887.726 787.996 884.708 786.426 882.482 783.634C880.256 780.843 879.004 777.059 879 773.112V170.888C879.004 166.941 880.256 163.157 882.482 160.365C884.708 157.574 887.726 156.004 890.874 156H1007.13C1010.27 156.004 1013.29 157.574 1015.52 160.365C1017.74 163.157 1019 166.941 1019 170.888V773.112C1019 777.059 1017.74 780.843 1015.52 783.634C1013.29 786.426 1010.27 787.996 1007.13 788Z" fill="#2D3255"/>
<path d="M99.493 428.586C112.776 428.586 123.544 417.82 123.544 404.54C123.544 391.259 112.776 380.493 99.493 380.493C86.2102 380.493 75.4424 391.259 75.4424 404.54C75.4424 417.82 86.2102 428.586 99.493 428.586Z" fill="#3F466A"/>
<path d="M311.939 272.284C325.222 272.284 335.99 261.518 335.99 248.238C335.99 234.957 325.222 224.191 311.939 224.191C298.656 224.191 287.889 234.957 287.889 248.238C287.889 261.518 298.656 272.284 311.939 272.284Z" fill="#3F466A"/>
<path d="M524.386 428.586C537.669 428.586 548.437 417.82 548.437 404.54C548.437 391.259 537.669 380.493 524.386 380.493C511.104 380.493 500.336 391.259 500.336 404.54C500.336 417.82 511.104 428.586 524.386 428.586Z" fill="#3F466A"/>
<path d="M736.834 196.137C750.117 196.137 760.884 185.371 760.884 172.09C760.884 158.81 750.117 148.044 736.834 148.044C723.551 148.044 712.783 158.81 712.783 172.09C712.783 185.371 723.551 196.137 736.834 196.137Z" fill="#3F466A"/>
<path d="M949.281 107.966C962.564 107.966 973.332 97.2005 973.332 83.92C973.332 70.6395 962.564 59.8735 949.281 59.8735C935.998 59.8735 925.23 70.6395 925.23 83.92C925.23 97.2005 935.998 107.966 949.281 107.966Z" fill="#3F466A"/>
<path d="M524.894 409.926L311.939 250.45L101.897 407.747L97.0898 401.332L311.939 240.433L523.879 399.153L734.49 168.714L735.336 168.372L947.781 82.7882L950.779 90.2244L739.176 175.465L524.894 409.926Z" fill="#3F466A"/>
<path d="M1049.04 801H931.959C928.788 800.996 925.749 799.443 923.507 796.683C921.265 793.923 920.004 790.18 920 786.276V190.724C920.004 186.82 921.265 183.077 923.507 180.317C925.749 177.557 928.788 176.004 931.959 176H1049.04C1052.21 176.004 1055.25 177.557 1057.49 180.317C1059.74 183.077 1061 186.82 1061 190.724V786.276C1061 790.18 1059.74 793.923 1057.49 796.683C1055.25 799.443 1052.21 800.996 1049.04 801Z" fill="#374072"/>
</svg>
