<svg width="255" height="200" viewBox="0 0 255 200" fill="none" xmlns="http://www.w3.org/2000/svg">
<path d="M61.3675 186.931H34.1514C33.4145 186.93 32.7079 186.506 32.1868 185.752C31.6656 184.998 31.3725 183.976 31.3716 182.91V128.641C31.3725 127.575 31.6656 126.553 32.1868 125.8C32.7079 125.046 33.4145 124.622 34.1514 124.621H61.3675C62.1045 124.622 62.811 125.046 63.3322 125.8C63.8533 126.553 64.1465 127.575 64.1473 128.641V182.91C64.1465 183.976 63.8533 184.998 63.3322 185.752C62.811 186.506 62.1045 186.93 61.3675 186.931Z" fill="#515A8F"/>
<path d="M103.423 186.931H76.3998C75.6681 186.93 74.9665 186.541 74.4491 185.85C73.9316 185.159 73.6405 184.222 73.6396 183.245V86.3C73.6405 85.3226 73.9316 84.3857 74.4491 83.6946C74.9665 83.0036 75.6681 82.6149 76.3998 82.6138H103.423C104.155 82.6149 104.856 83.0036 105.374 83.6946C105.891 84.3857 106.182 85.3226 106.183 86.3V183.245C106.182 184.222 105.891 185.159 105.374 185.85C104.856 186.541 104.155 186.93 103.423 186.931Z" fill="#6AE184"/>
<path d="M146.396 186.931H119.18C118.443 186.93 117.736 186.506 117.215 185.752C116.694 184.998 116.401 183.976 116.4 182.91V128.641C116.401 127.575 116.694 126.553 117.215 125.8C117.736 125.046 118.443 124.622 119.18 124.621H146.396C147.133 124.622 147.839 125.046 148.36 125.8C148.882 126.553 149.175 127.575 149.176 128.641V182.91C149.175 183.976 148.882 184.998 148.36 185.752C147.839 186.506 147.133 186.93 146.396 186.931Z" fill="#515A8F"/>
<path d="M189.176 186.93H162.153C161.438 186.951 160.746 186.598 160.228 185.949C159.711 185.301 159.41 184.409 159.393 183.47V69.5054C159.41 68.5664 159.711 67.6749 160.228 67.0264C160.746 66.3778 161.438 66.0249 162.153 66.0451H189.176C189.891 66.0249 190.583 66.3778 191.1 67.0264C191.618 67.6749 191.918 68.5664 191.936 69.5054V183.47C191.918 184.409 191.618 185.301 191.1 185.949C190.583 186.598 189.891 186.951 189.176 186.93Z" fill="#6AE184"/>
<path d="M229.727 183.897H202.704C201.972 183.896 201.27 183.53 200.753 182.879C200.235 182.227 199.944 181.344 199.943 180.423V39.8807C199.944 38.9595 200.235 38.0763 200.753 37.4249C201.27 36.7735 201.972 36.4072 202.704 36.4061H229.727C230.458 36.4072 231.16 36.7735 231.677 37.4249C232.195 38.0763 232.486 38.9595 232.487 39.8807V180.423C232.486 181.344 232.195 182.227 231.677 182.879C231.16 183.53 230.458 183.896 229.727 183.897Z" fill="#2D3255"/>
<path d="M29.6473 96.3838C32.7349 96.3838 35.2379 93.8714 35.2379 90.7721C35.2379 87.6728 32.7349 85.1603 29.6473 85.1603C26.5596 85.1603 24.0566 87.6728 24.0566 90.7721C24.0566 93.8714 26.5596 96.3838 29.6473 96.3838Z" fill="#3F466A"/>
<path d="M79.031 59.9072C82.1186 59.9072 84.6216 57.3947 84.6216 54.2954C84.6216 51.1961 82.1186 48.6836 79.031 48.6836C75.9434 48.6836 73.4404 51.1961 73.4404 54.2954C73.4404 57.3947 75.9434 59.9072 79.031 59.9072Z" fill="#3F466A"/>
<path d="M128.415 96.3838C131.502 96.3838 134.005 93.8714 134.005 90.7721C134.005 87.6728 131.502 85.1603 128.415 85.1603C125.327 85.1603 122.824 87.6728 122.824 90.7721C122.824 93.8714 125.327 96.3838 128.415 96.3838Z" fill="#3F466A"/>
<path d="M177.799 42.1365C180.886 42.1365 183.389 39.624 183.389 36.5247C183.389 33.4254 180.886 30.913 177.799 30.913C174.711 30.913 172.208 33.4254 172.208 36.5247C172.208 39.624 174.711 42.1365 177.799 42.1365Z" fill="#3F466A"/>
<path d="M227.182 21.56C230.27 21.56 232.773 19.0475 232.773 15.9482C232.773 12.8489 230.27 10.3364 227.182 10.3364C224.095 10.3364 221.592 12.8489 221.592 15.9482C221.592 19.0475 224.095 21.56 227.182 21.56Z" fill="#3F466A"/>
<path d="M128.533 92.029L79.031 54.8117L30.2063 91.5205L29.0889 90.0233L79.031 52.474L128.297 89.5148L177.254 35.7368L177.45 35.6568L226.834 15.6841L227.531 17.4195L178.343 37.3123L128.533 92.029Z" fill="#3F466A"/>
<path d="M239.47 186.931H212.254C211.517 186.93 210.81 186.568 210.289 185.924C209.768 185.279 209.475 184.406 209.474 183.495V44.5096C209.475 43.5985 209.768 42.7251 210.289 42.081C210.81 41.4368 211.517 41.0745 212.254 41.0735H239.47C240.207 41.0745 240.913 41.4368 241.434 42.081C241.955 42.7251 242.249 43.5985 242.249 44.5096V183.495C242.249 184.406 241.955 185.279 241.434 185.924C240.913 186.568 240.207 186.93 239.47 186.931Z" fill="#6AE184"/>
</svg>
