<svg width="37" height="37" viewBox="0 0 37 37" fill="none" xmlns="http://www.w3.org/2000/svg">
<path fill-rule="evenodd" clip-rule="evenodd" d="M1.37865 1.39357C2.62808 0.149764 4.65357 0.150012 5.9027 1.39413L18.4174 13.8504L30.948 1.37149C32.1967 0.126965 34.2222 0.126054 35.472 1.36945C36.7219 2.61285 36.7228 4.62971 35.4741 5.87424L22.9409 18.3557L35.6297 31.125C36.8788 32.3691 36.8786 34.386 35.6292 35.6298C34.3797 36.8736 32.3542 36.8734 31.1051 35.6292L18.4189 22.8626L6.00919 35.5324C4.76047 36.7769 2.73498 36.7778 1.48513 35.5344C0.235288 34.291 0.234372 32.2742 1.48309 31.0296L13.8954 18.3572L1.37809 5.89836C0.128961 4.65424 0.12921 2.63738 1.37865 1.39357Z" fill="white"/>
</svg>
