<svg width="245" height="252" viewBox="0 0 245 252" fill="none" xmlns="http://www.w3.org/2000/svg">
<mask id="mask0_336_494" style="mask-type:luminance" maskUnits="userSpaceOnUse" x="0" y="0" width="245" height="252">
<path d="M245 0H0V252H245V0Z" fill="white"/>
</mask>
<g mask="url(#mask0_336_494)">
<path d="M121.922 249.609C187.749 249.609 241.113 196.174 241.113 130.258C241.113 64.3424 187.749 10.9071 121.922 10.9071C56.0943 10.9071 2.73047 64.3424 2.73047 130.258C2.73047 196.174 56.0943 249.609 121.922 249.609Z" fill="#FBD947"/>
<path d="M120.267 10.9872C119.564 53.8957 106.785 148.675 10.4637 172.545C5.34588 159.047 2.739 144.73 2.77126 130.297C2.75173 124.978 3.11106 119.665 3.84655 114.397C7.08345 89.976 17.8214 67.1572 34.5821 49.0818C51.3429 31.0064 73.3025 18.5631 97.4382 13.465C104.946 11.8842 112.594 11.0542 120.267 10.9872Z" fill="#FBE481"/>
<path opacity="0.5" d="M239.004 128.845C239.048 160.437 226.533 190.756 204.209 213.141C181.884 235.527 151.575 248.15 119.936 248.238C105.37 248.276 90.9233 245.601 77.3389 240.349C176.886 203.636 199.839 117.282 194.793 36.0897C208.62 47.2822 219.766 61.4201 227.415 77.4689C235.065 93.5177 239.025 111.071 239.004 128.845Z" fill="#F8A547"/>
<path d="M46.9825 107.783H46.5276C46.3752 107.724 46.236 107.635 46.1182 107.522C46.0003 107.409 45.906 107.274 45.8406 107.124C45.7753 106.974 45.7402 106.813 45.7375 106.65C45.7347 106.487 45.7643 106.324 45.8244 106.172L52.5657 90.1897C52.6935 89.8905 52.9345 89.653 53.2363 89.529C53.5383 89.4051 53.8768 89.406 54.1787 89.529C54.472 89.6649 54.7032 89.9068 54.8258 90.2051C54.9485 90.5033 54.9537 90.8375 54.8404 91.1401L48.0992 107.122C47.9855 107.319 47.8231 107.483 47.6275 107.598C47.4319 107.715 47.2098 107.778 46.9825 107.783Z" fill="#3E3126"/>
<path d="M55.9571 100.059H55.5022C55.3498 99.9996 55.2106 99.9107 55.0928 99.7979C54.9749 99.6842 54.8806 99.5492 54.8152 99.3996C54.7499 99.25 54.7148 99.0885 54.7121 98.9253C54.7093 98.762 54.7389 98.6005 54.799 98.4484L58.3971 89.9C58.4559 89.7478 58.545 89.6094 58.6591 89.4923C58.7733 89.3761 58.9101 89.2838 59.0611 89.2222C59.212 89.1607 59.3742 89.1299 59.5373 89.1325C59.7005 89.1359 59.8613 89.1718 60.0101 89.2385C60.3103 89.3667 60.5481 89.6068 60.6719 89.9085C60.7959 90.2102 60.7958 90.5478 60.6718 90.8495L57.1151 99.109C57.0408 99.3654 56.8904 99.5936 56.6837 99.7637C56.4769 99.9329 56.2236 100.036 55.9571 100.059Z" fill="#3E3126"/>
<path d="M121.92 249.933C98.1817 250.015 74.9529 243.061 55.1752 229.951C35.3975 216.84 19.9607 198.165 10.8195 176.288C1.67846 154.411 -0.755755 130.318 3.82518 107.059C8.40617 83.7999 19.7962 62.4214 36.5529 45.6307C53.3097 28.8401 74.6793 17.3926 97.9557 12.7379C121.233 8.08324 145.369 10.4307 167.308 19.4831C189.247 28.5355 208.003 43.8856 221.2 63.5895C234.397 83.2935 241.442 106.465 241.442 130.169C241.443 161.861 228.863 192.262 206.46 214.71C184.058 237.159 153.657 249.825 121.92 249.933ZM121.92 20.1519C100.089 20.0865 78.7299 26.4916 60.5469 38.5561C42.3638 50.6207 28.175 67.8019 19.7772 87.9239C11.3793 108.046 9.15011 130.204 13.372 151.593C17.5939 172.981 28.0768 192.637 43.4933 208.072C58.9099 223.508 78.5666 234.027 99.9748 238.299C121.382 242.571 143.578 240.404 163.751 232.071C183.924 223.738 201.167 209.614 213.297 191.489C225.427 173.363 231.897 152.052 231.889 130.252C231.889 101.102 220.313 73.141 199.698 52.5016C179.083 31.862 151.112 20.2284 121.92 20.1519Z" fill="#F8A547"/>
<path d="M2.72931 132.642C2.41622 132.642 2.10627 132.579 1.81752 132.459C1.52879 132.338 1.26705 132.161 1.0476 131.938C0.828158 131.715 0.655387 131.45 0.539377 131.16C0.42337 130.869 0.366453 130.559 0.371945 130.246C0.372604 122.023 1.18996 113.819 2.81202 105.757C2.8711 105.449 2.99127 105.156 3.16546 104.894C3.33966 104.633 3.56436 104.41 3.82638 104.236C4.08838 104.063 4.3824 103.945 4.69116 103.887C4.99992 103.828 5.31718 103.833 5.6243 103.898C5.93289 103.957 6.22654 104.077 6.48801 104.251C6.74948 104.425 6.97349 104.65 7.14688 104.911C7.32027 105.173 7.43953 105.467 7.49766 105.775C7.55579 106.083 7.55162 106.4 7.48538 106.707C5.91127 114.454 5.1215 122.341 5.12802 130.246C5.12802 130.561 5.06598 130.873 4.94543 131.163C4.82488 131.454 4.6482 131.718 4.42545 131.94C4.20271 132.162 3.93828 132.339 3.64725 132.46C3.35622 132.579 3.04431 132.642 2.72931 132.642Z" fill="#3E3126"/>
<path d="M121.921 251.921C93.1629 251.99 65.3157 241.854 43.3478 223.321C21.38 204.789 6.72051 179.066 1.98479 150.741C1.95047 150.426 1.97901 150.108 2.06878 149.804C2.15855 149.5 2.30775 149.217 2.50774 148.971C2.70775 148.726 2.95458 148.522 3.23396 148.372C3.51333 148.222 3.81972 148.129 4.13536 148.098C4.44298 148.039 4.75941 148.043 5.06548 148.11C5.37156 148.176 5.66093 148.304 5.9161 148.485C6.17126 148.667 6.38691 148.898 6.55 149.165C6.71309 149.432 6.82023 149.729 6.86494 150.039C11.6768 177.781 26.3527 202.858 48.1961 220.661C70.0396 238.464 97.5836 247.798 125.767 246.948C153.949 246.097 180.878 235.119 201.605 216.032C222.332 196.944 235.465 171.029 238.591 143.047C241.715 115.065 234.624 86.8966 218.618 63.7173C202.612 40.5383 178.767 23.9057 151.464 16.8755C124.162 9.84521 95.235 12.8897 70.0006 25.4495C44.7656 38.0093 24.9173 59.2406 14.1025 85.2426C13.8319 85.7838 13.3661 86.2035 12.7987 86.4154C12.2312 86.6282 11.6043 86.6188 11.0439 86.3881C10.4833 86.1582 10.0309 85.7249 9.77739 85.1751C9.52387 84.6255 9.4881 84.0004 9.67725 83.4255C18.1904 63.159 32.0492 45.5779 49.7773 32.5545C67.5055 19.5313 88.4392 11.5534 110.348 9.47078C132.258 7.38812 154.323 11.2787 174.194 20.7281C194.064 30.1774 210.996 44.8318 223.185 63.1303C235.375 81.4288 242.366 102.686 243.414 124.639C244.461 146.591 239.527 168.416 229.136 187.789C218.744 207.162 203.285 223.358 184.404 234.652C165.524 245.945 143.929 251.914 121.921 251.921Z" fill="#3E3126"/>
<path d="M2.48143 142.644C3.85189 142.644 4.96287 141.535 4.96287 140.166C4.96287 138.798 3.85189 137.689 2.48143 137.689C1.11098 137.689 0 138.798 0 140.166C0 141.535 1.11098 142.644 2.48143 142.644Z" fill="#3E3126"/>
<path d="M121.921 226.897C102.767 226.954 84.0287 221.334 68.0759 210.751C52.1232 200.167 39.6741 185.095 32.305 167.442C24.9359 149.788 22.978 130.349 26.6794 111.585C30.3807 92.8195 39.5748 75.5733 53.0976 62.0295C66.6203 48.4855 83.8636 39.253 102.644 35.5007C121.424 31.7485 140.898 33.6452 158.598 40.9509C176.298 48.2566 191.43 60.6426 202.077 76.5407C212.723 92.4392 218.407 111.134 218.407 130.259C218.407 155.839 208.251 180.375 190.164 198.49C172.078 216.605 147.537 226.82 121.921 226.897ZM121.921 43.2033C104.652 43.1298 87.7499 48.1763 73.3569 57.7037C58.9635 67.2311 47.7261 80.8104 41.0685 96.7211C34.411 112.632 32.6329 130.158 35.9596 147.079C39.2863 164 47.568 179.553 59.7555 191.77C71.943 203.986 87.488 212.315 104.42 215.701C121.352 219.087 138.91 217.379 154.868 210.791C170.827 204.203 184.469 193.035 194.065 178.697C203.66 164.361 208.779 147.503 208.77 130.259C208.771 107.228 199.631 85.1347 183.353 68.8179C167.074 52.5013 144.984 43.2907 121.921 43.2033Z" fill="#F8A547"/>
<path d="M55.2945 199.798C55.0427 199.804 54.7925 199.759 54.5582 199.667C54.3239 199.574 54.1103 199.437 53.9297 199.262C42.3703 187.822 33.8715 173.669 29.212 158.097C24.5525 142.527 23.8815 126.037 27.2604 110.14C30.6395 94.2433 37.9604 79.4479 48.5522 67.1097C59.144 54.7715 72.6678 45.2854 87.884 39.5211C88.3453 39.3865 88.8409 39.4315 89.2706 39.6469C89.7002 39.8623 90.0323 40.2322 90.2001 40.6822C90.3678 41.1322 90.3584 41.6288 90.1744 42.0724C89.9904 42.5159 89.6446 42.8733 89.2072 43.0727C74.579 48.6057 61.577 57.7196 51.3947 69.5774C41.2125 81.4353 34.1763 95.657 30.9322 110.938C27.6881 126.218 28.34 142.068 32.828 157.032C37.3159 171.995 45.4962 185.593 56.6179 196.577C56.9741 196.934 57.1741 197.416 57.1741 197.919C57.1741 198.422 56.9741 198.905 56.6179 199.262C56.4437 199.433 56.237 199.569 56.0099 199.662C55.7827 199.754 55.5397 199.8 55.2945 199.798Z" fill="#3E3126"/>
<path d="M121.92 227.141C104.314 227.173 87.0358 222.388 71.9606 213.306C71.5277 213.048 71.2148 212.63 71.0908 212.142C70.9667 211.654 71.0416 211.137 71.2989 210.704C71.5648 210.269 71.9914 209.956 72.4867 209.832C72.982 209.708 73.506 209.784 73.9458 210.043C86.2578 217.405 100.106 221.827 114.412 222.965C128.716 224.103 143.091 221.927 156.415 216.605C169.739 211.283 181.652 202.96 191.226 192.285C200.799 181.61 207.773 168.871 211.605 155.062C215.437 141.253 216.023 126.746 213.319 112.673C210.613 98.6005 204.689 85.342 196.008 73.9313C187.328 62.5206 176.125 53.2663 163.274 46.8898C150.423 40.5133 136.27 37.187 121.92 37.1704C116.947 37.1759 111.983 37.5763 107.073 38.368C106.826 38.4093 106.572 38.4014 106.329 38.3449C106.085 38.2883 105.854 38.184 105.651 38.0382C105.447 37.8924 105.274 37.7078 105.141 37.4951C105.01 37.2823 104.921 37.0457 104.881 36.7987C104.839 36.5519 104.848 36.2993 104.904 36.0555C104.961 35.8117 105.065 35.5815 105.212 35.3781C105.357 35.1747 105.542 35.0022 105.755 34.8703C105.968 34.7385 106.205 34.65 106.453 34.6099C111.57 33.8181 116.741 33.4178 121.92 33.4122C147.311 33.9357 171.485 44.3753 189.257 62.4917C207.029 80.608 216.982 104.958 216.982 130.318C216.982 155.678 207.029 180.027 189.257 198.144C171.485 216.26 147.311 226.7 121.92 227.223V227.141Z" fill="#3E3126"/>
<path d="M97.7684 40.7217C99.1386 40.7217 100.25 39.6122 100.25 38.2437C100.25 36.8752 99.1386 35.7659 97.7684 35.7659C96.3981 35.7659 95.2871 36.8752 95.2871 38.2437C95.2871 39.6122 96.3981 40.7217 97.7684 40.7217Z" fill="#3E3126"/>
<path d="M63.4834 208.22C64.8538 208.22 65.9648 207.111 65.9648 205.742C65.9648 204.373 64.8538 203.264 63.4834 203.264C62.1129 203.264 61.002 204.373 61.002 205.742C61.002 207.111 62.1129 208.22 63.4834 208.22Z" fill="#3E3126"/>
<path d="M121.921 226.897C102.767 226.954 84.0287 221.334 68.0759 210.751C52.1232 200.167 39.6741 185.095 32.305 167.442C24.9359 149.788 22.978 130.349 26.6794 111.585C30.3807 92.8195 39.5748 75.5733 53.0976 62.0295C66.6203 48.4855 83.8636 39.253 102.644 35.5007C121.424 31.7485 140.898 33.6452 158.598 40.9509C176.298 48.2566 191.43 60.6426 202.077 76.5407C212.723 92.4392 218.407 111.134 218.407 130.259C218.407 155.839 208.251 180.375 190.164 198.49C172.078 216.605 147.537 226.82 121.921 226.897ZM121.921 43.2033C104.652 43.1298 87.7499 48.1763 73.3569 57.7037C58.9635 67.2311 47.7261 80.8104 41.0685 96.7211C34.411 112.632 32.6329 130.158 35.9596 147.079C39.2863 164 47.568 179.553 59.7555 191.77C71.943 203.986 87.488 212.315 104.42 215.701C121.352 219.087 138.91 217.379 154.868 210.791C170.827 204.203 184.469 193.035 194.065 178.697C203.66 164.361 208.779 147.503 208.77 130.259C208.771 107.228 199.631 85.1347 183.353 68.8179C167.074 52.5013 144.984 43.2907 121.921 43.2033Z" fill="#F8A547"/>
<path d="M55.2945 199.798C55.0427 199.804 54.7925 199.759 54.5582 199.667C54.3239 199.574 54.1103 199.437 53.9297 199.262C42.3703 187.822 33.8715 173.669 29.212 158.097C24.5525 142.527 23.8815 126.037 27.2604 110.14C30.6395 94.2433 37.9604 79.4479 48.5522 67.1097C59.144 54.7715 72.6678 45.2854 87.884 39.5211C88.3453 39.3865 88.8409 39.4315 89.2706 39.6469C89.7002 39.8623 90.0323 40.2322 90.2001 40.6822C90.3678 41.1322 90.3584 41.6288 90.1744 42.0724C89.9904 42.5159 89.6446 42.8733 89.2072 43.0727C74.579 48.6057 61.577 57.7196 51.3947 69.5774C41.2125 81.4353 34.1763 95.657 30.9322 110.938C27.6881 126.218 28.34 142.068 32.828 157.032C37.3159 171.995 45.4962 185.593 56.6179 196.577C56.9741 196.934 57.1741 197.416 57.1741 197.919C57.1741 198.422 56.9741 198.905 56.6179 199.262C56.4437 199.433 56.237 199.569 56.0099 199.662C55.7827 199.754 55.5397 199.8 55.2945 199.798Z" fill="#3E3126"/>
<path d="M121.92 227.141C104.314 227.173 87.0358 222.388 71.9606 213.306C71.5277 213.048 71.2148 212.63 71.0908 212.142C70.9667 211.654 71.0416 211.137 71.2989 210.704C71.5648 210.269 71.9914 209.956 72.4867 209.832C72.982 209.708 73.506 209.784 73.9458 210.043C86.2578 217.405 100.106 221.827 114.412 222.965C128.716 224.103 143.091 221.927 156.415 216.605C169.739 211.283 181.652 202.96 191.226 192.285C200.799 181.61 207.773 168.871 211.605 155.062C215.437 141.253 216.023 126.746 213.319 112.673C210.613 98.6005 204.689 85.342 196.008 73.9313C187.328 62.5206 176.125 53.2663 163.274 46.8898C150.423 40.5133 136.27 37.187 121.92 37.1704C116.947 37.1759 111.983 37.5763 107.073 38.368C106.826 38.4093 106.572 38.4014 106.329 38.3449C106.085 38.2883 105.854 38.184 105.651 38.0382C105.447 37.8924 105.274 37.7078 105.141 37.4951C105.01 37.2823 104.921 37.0457 104.881 36.7987C104.839 36.5519 104.848 36.2993 104.904 36.0555C104.961 35.8117 105.065 35.5815 105.212 35.3781C105.357 35.1747 105.542 35.0022 105.755 34.8703C105.968 34.7385 106.205 34.65 106.453 34.6099C111.57 33.8181 116.741 33.4178 121.92 33.4122C147.311 33.9357 171.485 44.3753 189.257 62.4917C207.029 80.608 216.982 104.958 216.982 130.318C216.982 155.678 207.029 180.027 189.257 198.144C171.485 216.26 147.311 226.7 121.92 227.223V227.141Z" fill="#3E3126"/>
<path d="M97.7684 40.7217C99.1386 40.7217 100.25 39.6122 100.25 38.2437C100.25 36.8752 99.1386 35.7659 97.7684 35.7659C96.3981 35.7659 95.2871 36.8752 95.2871 38.2437C95.2871 39.6122 96.3981 40.7217 97.7684 40.7217Z" fill="#3E3126"/>
<path d="M63.4834 208.22C64.8538 208.22 65.9648 207.111 65.9648 205.742C65.9648 204.373 64.8538 203.264 63.4834 203.264C62.1129 203.264 61.002 204.373 61.002 205.742C61.002 207.111 62.1129 208.22 63.4834 208.22Z" fill="#3E3126"/>
<path d="M8.02244 97.1364C9.39288 97.1364 10.5039 96.027 10.5039 94.6587C10.5039 93.2904 9.39288 92.181 8.02244 92.181C6.65199 92.181 5.54102 93.2904 5.54102 94.6587C5.54102 96.027 6.65199 97.1364 8.02244 97.1364Z" fill="#3E3126"/>
<path d="M66.9774 45.837C68.9823 44.1423 69.7699 41.7806 68.7369 40.562C67.7038 39.3434 65.2411 39.7295 63.2364 41.4242C61.2316 43.119 60.4438 45.4807 61.4769 46.6992C62.51 47.9178 64.9726 47.5317 66.9774 45.837Z" fill="white"/>
<path d="M35.2767 75.4053C34.8402 75.4141 34.4101 75.2996 34.036 75.0749C33.5003 74.7345 33.1186 74.199 32.9718 73.5822C32.8251 72.9653 32.925 72.3156 33.2502 71.7711C39.2058 62.898 46.4863 54.9873 54.8386 48.3138C55.077 48.0746 55.3632 47.8884 55.6785 47.7673C55.9939 47.6462 56.3314 47.5931 56.6688 47.6113C57.0062 47.6295 57.3359 47.7186 57.6364 47.873C57.9369 48.0272 58.2013 48.2432 58.4123 48.5067C58.6235 48.7702 58.7764 49.0752 58.8612 49.4018C58.9461 49.7284 58.9608 50.0692 58.9045 50.4019C58.8482 50.7346 58.7223 51.0517 58.5347 51.3323C58.3472 51.613 58.1024 51.8509 57.8164 52.0306C49.8458 58.3649 42.8991 65.8866 37.2205 74.3315C37.0098 74.6562 36.7222 74.924 36.3832 75.1114C36.0442 75.2986 35.6641 75.3996 35.2767 75.4053Z" fill="white"/>
<path opacity="0.4" d="M157.158 183.232C158.323 183.232 159.267 182.289 159.267 181.126C159.267 179.962 158.323 179.02 157.158 179.02C155.993 179.02 155.049 179.962 155.049 181.126C155.049 182.289 155.993 183.232 157.158 183.232Z" fill="#F8A547"/>
<path d="M158.44 213.383C162.483 213.383 165.76 210.111 165.76 206.073C165.76 202.037 162.483 198.764 158.44 198.764C154.396 198.764 151.119 202.037 151.119 206.073C151.119 210.111 154.396 213.383 158.44 213.383Z" fill="#F8A547"/>
<path d="M163.319 192.944C164.667 192.944 165.759 191.852 165.759 190.507C165.759 189.161 164.667 188.071 163.319 188.071C161.972 188.071 160.879 189.161 160.879 190.507C160.879 191.852 161.972 192.944 163.319 192.944Z" fill="#F8A547"/>
<path d="M141.484 211.77C142.831 211.77 143.924 210.679 143.924 209.333C143.924 207.988 142.831 206.896 141.484 206.896C140.136 206.896 139.043 207.988 139.043 209.333C139.043 210.679 140.136 211.77 141.484 211.77Z" fill="#F8A547"/>
<path d="M176.637 201.325C178.304 201.325 179.656 199.975 179.656 198.31C179.656 196.645 178.304 195.295 176.637 195.295C174.969 195.295 173.617 196.645 173.617 198.31C173.617 199.975 174.969 201.325 176.637 201.325Z" fill="#F8A547"/>
<path opacity="0.4" d="M143.469 202.282C144.634 202.282 145.578 201.339 145.578 200.176C145.578 199.012 144.634 198.069 143.469 198.069C142.304 198.069 141.359 199.012 141.359 200.176C141.359 201.339 142.304 202.282 143.469 202.282Z" fill="#F8A547"/>
<path opacity="0.4" d="M149.838 196.204C151.048 196.204 152.03 195.224 152.03 194.015C152.03 192.806 151.048 191.826 149.838 191.826C148.628 191.826 147.646 192.806 147.646 194.015C147.646 195.224 148.628 196.204 149.838 196.204Z" fill="#F8A547"/>
<path opacity="0.4" d="M149.63 185.753C150.087 185.753 150.458 185.384 150.458 184.927C150.458 184.471 150.087 184.101 149.63 184.101C149.174 184.101 148.803 184.471 148.803 184.927C148.803 185.384 149.174 185.753 149.63 185.753Z" fill="#F8A547"/>
<path d="M152.566 240.718C154.964 240.718 156.908 238.777 156.908 236.382C156.908 233.988 154.964 232.046 152.566 232.046C150.167 232.046 148.224 233.988 148.224 236.382C148.224 238.777 150.167 240.718 152.566 240.718Z" fill="#F8A547"/>
<path d="M155.543 230.403C156.342 230.403 156.99 229.756 156.99 228.958C156.99 228.16 156.342 227.512 155.543 227.512C154.744 227.512 154.096 228.16 154.096 228.958C154.096 229.756 154.744 230.403 155.543 230.403Z" fill="#F8A547"/>
<path d="M142.559 241.597C143.358 241.597 144.006 240.95 144.006 240.152C144.006 239.353 143.358 238.706 142.559 238.706C141.759 238.706 141.111 239.353 141.111 240.152C141.111 240.95 141.759 241.597 142.559 241.597Z" fill="#F8A547"/>
<path d="M163.485 235.354C164.468 235.354 165.264 234.559 165.264 233.578C165.264 232.597 164.468 231.802 163.485 231.802C162.503 231.802 161.707 232.597 161.707 233.578C161.707 234.559 162.503 235.354 163.485 235.354Z" fill="#F8A547"/>
<path opacity="0.4" d="M143.717 235.926C144.402 235.926 144.958 235.371 144.958 234.687C144.958 234.003 144.402 233.448 143.717 233.448C143.032 233.448 142.477 234.003 142.477 234.687C142.477 235.371 143.032 235.926 143.717 235.926Z" fill="#F8A547"/>
<path opacity="0.4" d="M147.522 232.332C148.252 232.332 148.845 231.74 148.845 231.011C148.845 230.281 148.252 229.689 147.522 229.689C146.791 229.689 146.198 230.281 146.198 231.011C146.198 231.74 146.791 232.332 147.522 232.332Z" fill="#F8A547"/>
<path opacity="0.4" d="M147.397 226.146C147.671 226.146 147.893 225.925 147.893 225.65C147.893 225.377 147.671 225.156 147.397 225.156C147.123 225.156 146.9 225.377 146.9 225.65C146.9 225.925 147.123 226.146 147.397 226.146Z" fill="#F8A547"/>
<path d="M126.428 219.91C127.913 219.91 129.117 218.709 129.117 217.226C129.117 215.744 127.913 214.542 126.428 214.542C124.944 214.542 123.741 215.744 123.741 217.226C123.741 218.709 124.944 219.91 126.428 219.91Z" fill="#F8A547"/>
<path d="M81.5504 78.4838C85.8599 72.2932 85.9523 64.914 81.7568 62.0018C77.5614 59.0897 70.6668 61.7473 66.3574 67.9379C62.048 74.1286 61.9557 81.5078 66.1511 84.42C70.3465 87.3325 77.241 84.6744 81.5504 78.4838Z" fill="#FFEFAE"/>
<path d="M150.953 140.402C149.641 137.493 147.789 134.858 145.494 132.639C143.244 130.518 140.728 128.699 138.008 127.228C135.42 125.917 132.738 124.8 129.985 123.883C126.345 122.479 122.912 121.075 119.728 119.754C116.852 118.572 114.205 116.896 111.912 114.797C110.907 113.845 110.118 112.689 109.597 111.407C109.076 110.125 108.836 108.746 108.893 107.364C108.834 105.351 109.305 103.358 110.257 101.582C111.213 99.9423 112.66 98.6424 114.393 97.8655C116.771 96.9168 119.319 96.4664 121.879 96.5442C124.578 96.4749 127.242 97.1621 129.571 98.5261C131.769 99.8569 133.692 101.595 135.237 103.647C136.813 105.851 138.197 108.186 139.373 110.627L151.863 103.235C150.263 99.862 148.173 96.7442 145.66 93.9836C142.863 90.9478 139.507 88.4804 135.775 86.7146C133.381 85.5471 130.833 84.7263 128.206 84.2784V69.6589H115.799L116.089 84.1545C112.882 84.5973 109.76 85.5164 106.825 86.8804C102.768 88.7146 99.2504 91.5589 96.6099 95.1399C94.1621 98.4971 92.8577 102.55 92.8876 106.703C92.7721 110.541 93.58 114.351 95.2448 117.813C96.734 120.744 98.7693 123.365 101.242 125.535C103.58 127.611 106.18 129.375 108.975 130.78C111.407 131.985 113.906 133.047 116.461 133.96C119.935 135.281 123.203 136.644 126.304 138.09C129.138 139.393 131.694 141.23 133.831 143.5C135.835 145.775 136.886 148.732 136.768 151.759C136.832 154.091 136.321 156.403 135.278 158.491C134.255 160.326 132.657 161.777 130.729 162.62C128.278 163.677 125.621 164.17 122.954 164.066C119.673 164.131 116.428 163.364 113.525 161.836C110.629 160.236 108.085 158.074 106.039 155.476C103.576 152.339 101.481 148.93 99.7938 145.317L88.0903 153.204C89.9733 157.775 92.6625 161.972 96.0305 165.594C99.3873 169.207 103.401 172.151 107.859 174.267C110.496 175.476 113.275 176.351 116.13 176.869L115.799 190.868H128.206L127.959 177.24C131.774 176.922 135.509 175.958 139.001 174.391C143.299 172.416 146.912 169.211 149.381 165.181C151.872 160.973 153.132 156.151 153.021 151.263C153.124 147.536 152.419 143.831 150.953 140.402Z" fill="white"/>
<path d="M191.938 105.188C220.649 105.188 243.924 81.8728 243.924 53.1116C243.924 24.3505 220.649 1.03491 191.938 1.03491C163.227 1.03491 139.952 24.3505 139.952 53.1116C139.952 81.8728 163.227 105.188 191.938 105.188Z" fill="#FBD947"/>
<path d="M191.235 1.06836C190.904 19.7763 185.321 61.1156 143.302 71.5226C141.084 65.6345 139.949 59.3947 139.952 53.1037C140.004 50.7782 140.225 48.4594 140.614 46.1657C142.007 35.5335 146.663 25.593 153.943 17.7102C161.222 9.82721 170.768 4.38882 181.268 2.14211C184.545 1.44748 187.885 1.08772 191.235 1.06836Z" fill="#FBE481"/>
<path opacity="0.5" d="M243.015 52.494C243.025 59.322 241.689 66.0852 239.083 72.3976C236.476 78.7099 232.65 84.4478 227.823 89.2837C222.996 94.1194 217.261 97.9585 210.948 100.582C204.635 103.204 197.867 104.56 191.029 104.571C184.694 104.587 178.41 103.424 172.5 101.143C215.926 85.1194 225.934 47.4557 223.742 12.0221C229.767 16.912 234.623 23.0825 237.958 30.084C241.291 37.0853 243.019 44.7414 243.015 52.494Z" fill="#F8A547"/>
<path d="M167.997 16.2382C168.868 15.5014 169.216 14.4807 168.773 13.9585C168.331 13.4363 167.265 13.6102 166.393 14.3471C165.522 15.0839 165.174 16.1046 165.617 16.6268C166.059 17.149 167.125 16.9751 167.997 16.2382Z" fill="white"/>
<path d="M159.226 43.2802C159.102 43.2178 159.003 43.1123 158.95 42.9833C158.897 42.8542 158.892 42.7104 158.936 42.5782L161.873 35.5988C161.9 35.5337 161.94 35.4746 161.99 35.4248C162.04 35.3751 162.1 35.3357 162.165 35.3089C162.23 35.282 162.3 35.2683 162.37 35.2684C162.441 35.2686 162.511 35.2826 162.576 35.3097C162.701 35.3722 162.799 35.4777 162.853 35.6066C162.906 35.7357 162.91 35.8796 162.866 36.0118L159.888 42.9911C159.871 43.0588 159.839 43.1218 159.794 43.1751C159.749 43.2285 159.693 43.2708 159.629 43.2987C159.565 43.3267 159.495 43.3396 159.425 43.3363C159.356 43.3332 159.287 43.3139 159.226 43.2802Z" fill="#3E3126"/>
<path d="M163.155 39.9342H162.948C162.878 39.9123 162.815 39.8755 162.762 39.8265C162.709 39.7776 162.667 39.7175 162.639 39.6506C162.611 39.5836 162.599 39.5115 162.602 39.4392C162.605 39.367 162.625 39.2962 162.658 39.2321L164.23 35.5153C164.285 35.3839 164.39 35.2796 164.522 35.2253C164.653 35.1712 164.802 35.1715 164.933 35.2262C165.064 35.281 165.169 35.3858 165.224 35.5174C165.277 35.6491 165.277 35.7969 165.223 35.9283L163.651 39.6451C163.601 39.7323 163.528 39.8047 163.442 39.8554C163.354 39.9062 163.255 39.9333 163.155 39.9342Z" fill="#3E3126"/>
<path d="M191.939 105.305C181.592 105.346 171.465 102.32 162.841 96.6091C154.217 90.8974 147.484 82.7596 143.497 73.2248C139.508 63.69 138.443 53.1878 140.437 43.0483C142.43 32.9088 147.393 23.5883 154.695 16.2672C161.998 8.94615 171.312 3.95401 181.458 1.92304C191.604 -0.107921 202.125 0.913692 211.69 4.85849C221.254 8.80325 229.43 15.4938 235.183 24.0825C240.937 32.6713 244.009 42.7719 244.009 53.105C244.009 66.9137 238.529 80.16 228.77 89.9436C219.011 99.727 205.768 105.251 191.939 105.305ZM191.939 5.07549C182.42 5.04279 173.105 7.83186 165.173 13.0895C157.241 18.3472 151.051 25.8368 147.385 34.6102C143.719 43.3834 142.743 53.0457 144.58 62.3734C146.417 71.7011 150.985 80.2745 157.705 87.0078C164.425 93.7417 172.995 98.3321 182.329 100.2C191.665 102.066 201.344 101.124 210.143 97.4937C218.941 93.8639 226.463 87.7077 231.755 79.8058C237.048 71.9039 239.873 62.6113 239.873 53.105C239.884 40.392 234.842 28.1942 225.856 19.1893C216.869 10.1843 204.671 5.10831 191.939 5.07549Z" fill="#F8A547"/>
<path d="M139.952 54.1369C139.678 54.1369 139.416 54.0281 139.221 53.8345C139.027 53.6408 138.918 53.3783 138.918 53.1045C138.904 49.5114 139.264 45.9266 139.994 42.4083C140.013 42.2731 140.061 42.1433 140.133 42.0272C140.205 41.9111 140.3 41.8111 140.413 41.7336C140.526 41.656 140.652 41.6026 140.787 41.5765C140.921 41.5504 141.06 41.5525 141.193 41.5823C141.33 41.6068 141.461 41.6588 141.578 41.735C141.694 41.8112 141.794 41.9102 141.871 42.0259C141.948 42.1415 142.001 42.2717 142.027 42.4084C142.053 42.545 142.05 42.6854 142.02 42.8212C141.323 46.2044 140.976 49.6503 140.986 53.1045C140.986 53.3783 140.878 53.6408 140.683 53.8345C140.49 54.0281 140.227 54.1369 139.952 54.1369Z" fill="#3E3126"/>
<path d="M191.939 106.216C179.381 106.234 167.226 101.791 157.648 93.6801C148.072 85.5684 141.696 74.3198 139.663 61.9451C139.623 61.8048 139.613 61.6576 139.633 61.5133C139.654 61.3688 139.705 61.2304 139.783 61.1071C139.862 60.9838 139.965 60.8785 140.087 60.798C140.209 60.7176 140.346 60.6638 140.491 60.6403C140.635 60.6168 140.782 60.6241 140.923 60.6617C141.064 60.6992 141.196 60.7663 141.309 60.8583C141.423 60.9504 141.515 61.0654 141.581 61.1958C141.646 61.3261 141.684 61.4689 141.69 61.6146C143.811 73.7406 150.245 84.6943 159.809 92.4605C169.372 100.227 181.423 104.284 193.744 103.886C206.065 103.487 217.826 98.6586 226.867 90.2905C235.907 81.9217 241.617 70.575 242.947 58.3373C244.276 46.0997 241.137 33.7941 234.104 23.684C227.072 13.574 216.62 6.33943 204.672 3.31113C192.724 0.282832 180.082 1.66443 169.073 7.20179C158.063 12.7391 149.426 22.0599 144.751 33.4495C144.641 33.7023 144.437 33.9034 144.184 34.011C143.93 34.1186 143.644 34.1246 143.386 34.0276C143.132 33.9181 142.931 33.7154 142.823 33.4618C142.715 33.2081 142.709 32.9227 142.807 32.6648C146.522 23.8273 152.567 16.1606 160.297 10.4801C168.029 4.79963 177.157 1.31772 186.712 0.404722C196.266 -0.508276 205.89 1.18178 214.559 5.29515C223.229 9.40847 230.62 15.7914 235.946 23.7649C241.273 31.7384 244.335 41.0044 244.808 50.5773C245.281 60.1502 243.147 69.6723 238.632 78.1305C234.117 86.5889 227.392 93.6673 219.17 98.6124C210.948 103.558 201.538 106.186 191.939 106.216Z" fill="#3E3126"/>
<path d="M139.828 58.4822C140.421 58.4822 140.903 58.0015 140.903 57.4084C140.903 56.8155 140.421 56.3347 139.828 56.3347C139.234 56.3347 138.752 56.8155 138.752 57.4084C138.752 58.0015 139.234 58.4822 139.828 58.4822Z" fill="#3E3126"/>
<path d="M191.938 95.2374C183.58 95.2622 175.402 92.8084 168.441 88.1889C161.48 83.5686 156.048 76.9894 152.834 69.2845C149.62 61.5797 148.769 53.0956 150.388 44.9071C152.007 36.7185 156.023 29.194 161.927 23.2863C167.831 17.3786 175.359 13.3537 183.556 11.7214C191.753 10.089 200.251 10.9227 207.973 14.1167C215.696 17.3107 222.295 22.7215 226.935 29.6636C231.575 36.6057 234.048 44.7669 234.04 53.1134C234.04 64.2711 229.607 74.9729 221.713 82.8703C213.82 90.7675 203.112 95.2152 191.938 95.2374ZM191.938 15.1193C184.407 15.0948 177.039 17.3023 170.766 21.4622C164.492 25.622 159.597 31.5474 156.698 38.4876C153.799 45.428 153.028 53.0712 154.482 60.4495C155.936 67.8277 159.55 74.6092 164.866 79.9352C170.182 85.2612 176.961 88.8923 184.346 90.3683C191.73 91.8443 199.386 91.0991 206.346 88.2274C213.306 85.3548 219.255 80.4854 223.441 74.2347C227.628 67.9839 229.863 60.6332 229.863 53.1134C229.873 43.0549 225.886 33.4033 218.774 26.2792C211.663 19.1551 202.012 15.1412 191.938 15.1193Z" fill="#F8A547"/>
<path d="M162.865 83.4543C162.647 83.4511 162.439 83.3621 162.285 83.2065C158.319 79.2626 155.179 74.5691 153.049 69.4C150.918 64.2309 149.841 58.6898 149.878 53.1003C149.898 44.509 152.525 36.1254 157.413 29.055C162.3 21.9847 169.219 16.5597 177.257 13.4956C177.36 13.4562 177.47 13.4378 177.58 13.4415C177.691 13.4452 177.799 13.4708 177.9 13.5171C178 13.5632 178.09 13.6289 178.164 13.7104C178.238 13.7918 178.296 13.8873 178.333 13.9912C178.401 14.1996 178.388 14.4264 178.296 14.6256C178.203 14.8249 178.039 14.9818 177.836 15.0649C171.457 17.4787 165.788 21.4533 161.348 26.6239C156.908 31.7946 153.839 37.9959 152.423 44.659C151.006 51.322 151.289 58.2333 153.244 64.7592C155.198 71.285 158.763 77.2162 163.61 82.0089C163.764 82.1702 163.849 82.3847 163.849 82.6077C163.849 82.8307 163.764 83.0452 163.61 83.2065C163.515 83.3061 163.398 83.3809 163.268 83.4241C163.138 83.4674 162.999 83.4777 162.865 83.4543Z" fill="#3E3126"/>
<path d="M191.939 95.4032C184.256 95.4015 176.719 93.3015 170.144 89.3325C170.049 89.2812 169.965 89.2103 169.897 89.1256C169.831 89.0402 169.783 88.9427 169.755 88.8376C169.728 88.7333 169.723 88.6239 169.74 88.5171C169.757 88.4103 169.795 88.3086 169.855 88.2171C169.91 88.1205 169.984 88.0359 170.073 87.9693C170.162 87.9017 170.264 87.853 170.372 87.8257C170.48 87.7992 170.592 87.7941 170.703 87.812C170.812 87.8291 170.918 87.8684 171.013 87.9282C176.387 91.1033 182.422 92.9999 188.648 93.4699C194.875 93.94 201.126 92.9716 206.918 90.6393C212.71 88.3069 217.885 84.674 222.044 80.022C226.202 75.3698 229.231 69.8237 230.896 63.8138C232.561 57.8039 232.817 51.4917 231.645 45.3669C230.472 39.2422 227.902 33.4695 224.135 28.4966C220.367 23.5237 215.503 19.4843 209.92 16.6918C204.336 13.8993 198.184 12.4288 191.939 12.3941C189.765 12.3917 187.595 12.5574 185.446 12.8898C185.254 12.9428 185.049 12.9213 184.873 12.8293C184.696 12.7373 184.561 12.5817 184.495 12.3941C184.478 12.2855 184.482 12.1745 184.507 12.0676C184.534 11.9607 184.581 11.86 184.646 11.7715C184.712 11.6831 184.794 11.6085 184.889 11.5523C184.983 11.4961 185.089 11.4594 185.198 11.4443C187.426 11.0778 189.681 10.8981 191.939 10.9074C203.171 10.9074 213.943 15.3628 221.885 23.2937C229.827 31.2244 234.289 41.9807 234.289 53.1965C234.289 64.4123 229.827 75.1686 221.885 83.0994C213.943 91.0298 203.171 95.4852 191.939 95.4852V95.4032Z" fill="#3E3126"/>
<path d="M181.393 13.9893C181.987 13.9893 182.468 13.5086 182.468 12.9156C182.468 12.3225 181.987 11.8418 181.393 11.8418C180.799 11.8418 180.318 12.3225 180.318 12.9156C180.318 13.5086 180.799 13.9893 181.393 13.9893Z" fill="#3E3126"/>
<path d="M166.421 87.1C167.015 87.1 167.497 86.6197 167.497 86.0266C167.497 85.4334 167.015 84.9528 166.421 84.9528C165.828 84.9528 165.346 85.4334 165.346 86.0266C165.346 86.6197 165.828 87.1 166.421 87.1Z" fill="#3E3126"/>
<path d="M191.938 95.2374C183.58 95.2622 175.402 92.8084 168.441 88.1889C161.48 83.5686 156.048 76.9894 152.834 69.2845C149.62 61.5797 148.769 53.0956 150.388 44.9071C152.007 36.7185 156.023 29.194 161.927 23.2863C167.831 17.3786 175.359 13.3537 183.556 11.7214C191.753 10.089 200.251 10.9227 207.973 14.1167C215.696 17.3107 222.295 22.7215 226.935 29.6636C231.575 36.6057 234.048 44.7669 234.04 53.1134C234.04 64.2711 229.607 74.9729 221.713 82.8703C213.82 90.7675 203.112 95.2152 191.938 95.2374ZM191.938 15.1193C184.407 15.0948 177.039 17.3023 170.766 21.4622C164.492 25.622 159.597 31.5474 156.698 38.4876C153.799 45.428 153.028 53.0712 154.482 60.4495C155.936 67.8277 159.55 74.6092 164.866 79.9352C170.182 85.2612 176.961 88.8923 184.346 90.3683C191.73 91.8443 199.386 91.0991 206.346 88.2274C213.306 85.3548 219.255 80.4854 223.441 74.2347C227.628 67.9839 229.863 60.6332 229.863 53.1134C229.873 43.0549 225.886 33.4033 218.774 26.2792C211.663 19.1551 202.012 15.1412 191.938 15.1193Z" fill="#F8A547"/>
<path d="M162.865 83.4543C162.647 83.4511 162.439 83.3621 162.285 83.2065C158.319 79.2626 155.179 74.5691 153.049 69.4C150.918 64.2309 149.841 58.6898 149.878 53.1003C149.898 44.509 152.525 36.1254 157.413 29.055C162.3 21.9847 169.219 16.5597 177.257 13.4956C177.36 13.4562 177.47 13.4378 177.58 13.4415C177.691 13.4452 177.799 13.4708 177.9 13.5171C178 13.5632 178.09 13.6289 178.164 13.7104C178.238 13.7918 178.296 13.8873 178.333 13.9912C178.401 14.1996 178.388 14.4264 178.296 14.6256C178.203 14.8249 178.039 14.9818 177.836 15.0649C171.457 17.4787 165.788 21.4533 161.348 26.6239C156.908 31.7946 153.839 37.9959 152.423 44.659C151.006 51.322 151.289 58.2333 153.244 64.7592C155.198 71.285 158.763 77.2162 163.61 82.0089C163.764 82.1702 163.849 82.3847 163.849 82.6077C163.849 82.8307 163.764 83.0452 163.61 83.2065C163.515 83.3061 163.398 83.3809 163.268 83.4241C163.138 83.4674 162.999 83.4777 162.865 83.4543Z" fill="#3E3126"/>
<path d="M191.939 95.4032C184.256 95.4015 176.719 93.3015 170.144 89.3325C170.049 89.2812 169.965 89.2103 169.897 89.1256C169.831 89.0402 169.783 88.9427 169.755 88.8376C169.728 88.7333 169.723 88.6239 169.74 88.5171C169.757 88.4103 169.795 88.3086 169.855 88.2171C169.91 88.1205 169.984 88.0359 170.073 87.9693C170.162 87.9017 170.264 87.853 170.372 87.8257C170.48 87.7992 170.592 87.7941 170.703 87.812C170.812 87.8291 170.918 87.8684 171.013 87.9282C176.387 91.1033 182.422 92.9999 188.648 93.4699C194.875 93.94 201.126 92.9716 206.918 90.6393C212.71 88.3069 217.885 84.674 222.044 80.022C226.202 75.3698 229.231 69.8237 230.896 63.8138C232.561 57.8039 232.817 51.4917 231.645 45.3669C230.472 39.2422 227.902 33.4695 224.135 28.4966C220.367 23.5237 215.503 19.4843 209.92 16.6918C204.336 13.8993 198.184 12.4288 191.939 12.3941C189.765 12.3917 187.595 12.5574 185.446 12.8898C185.254 12.9428 185.049 12.9213 184.873 12.8293C184.696 12.7373 184.561 12.5817 184.495 12.3941C184.478 12.2855 184.482 12.1745 184.507 12.0676C184.534 11.9607 184.581 11.86 184.646 11.7715C184.712 11.6831 184.794 11.6085 184.889 11.5523C184.983 11.4961 185.089 11.4594 185.198 11.4443C187.426 11.0778 189.681 10.8981 191.939 10.9074C203.171 10.9074 213.943 15.3628 221.885 23.2937C229.827 31.2244 234.289 41.9807 234.289 53.1965C234.289 64.4123 229.827 75.1686 221.885 83.0994C213.943 91.0298 203.171 95.4852 191.939 95.4852V95.4032Z" fill="#3E3126"/>
<path d="M181.393 13.9893C181.987 13.9893 182.468 13.5086 182.468 12.9156C182.468 12.3225 181.987 11.8418 181.393 11.8418C180.799 11.8418 180.318 12.3225 180.318 12.9156C180.318 13.5086 180.799 13.9893 181.393 13.9893Z" fill="#3E3126"/>
<path d="M166.421 87.1C167.015 87.1 167.497 86.6197 167.497 86.0266C167.497 85.4334 167.015 84.9528 166.421 84.9528C165.828 84.9528 165.346 85.4334 165.346 86.0266C165.346 86.6197 165.828 87.1 166.421 87.1Z" fill="#3E3126"/>
<path d="M142.269 38.6079C142.863 38.6079 143.345 38.1271 143.345 37.534C143.345 36.9411 142.863 36.4603 142.269 36.4603C141.675 36.4603 141.194 36.9411 141.194 37.534C141.194 38.1271 141.675 38.6079 142.269 38.6079Z" fill="#3E3126"/>
<path d="M154.138 29.1467C153.961 29.1846 153.777 29.1846 153.6 29.1467C153.481 29.075 153.379 28.9803 153.298 28.8681C153.217 28.756 153.159 28.6288 153.129 28.494C153.097 28.3591 153.094 28.2195 153.118 28.0833C153.142 27.9472 153.194 27.8172 153.269 27.7013C155.839 23.7794 159.007 20.2821 162.657 17.3355C162.858 17.1437 163.125 17.0366 163.402 17.0366C163.679 17.0366 163.946 17.1437 164.147 17.3355C164.336 17.5285 164.442 17.788 164.442 18.0582C164.442 18.3285 164.336 18.5879 164.147 18.7809C160.58 21.6344 157.507 25.0524 155.048 28.8989C154.923 29.004 154.777 29.0806 154.621 29.1234C154.463 29.1663 154.299 29.1742 154.138 29.1467Z" fill="white"/>
<path opacity="0.4" d="M207.324 76.1866C207.826 76.1866 208.234 75.7798 208.234 75.278C208.234 74.7762 207.826 74.3695 207.324 74.3695C206.821 74.3695 206.414 74.7762 206.414 75.278C206.414 75.7798 206.821 76.1866 207.324 76.1866Z" fill="#F8A547"/>
<path d="M207.863 89.3631C209.621 89.3631 211.046 87.9392 211.046 86.1829C211.046 84.4266 209.621 83.0029 207.863 83.0029C206.104 83.0029 204.678 84.4266 204.678 86.1829C204.678 87.9392 206.104 89.3631 207.863 89.3631Z" fill="#F8A547"/>
<path d="M210.012 80.4532C210.606 80.4532 211.087 79.9724 211.087 79.3795C211.087 78.7864 210.606 78.3057 210.012 78.3057C209.418 78.3057 208.937 78.7864 208.937 79.3795C208.937 79.9724 209.418 80.4532 210.012 80.4532Z" fill="#F8A547"/>
<path d="M200.501 88.6659C201.094 88.6659 201.576 88.1855 201.576 87.5924C201.576 86.9992 201.094 86.5189 200.501 86.5189C199.907 86.5189 199.425 86.9992 199.425 87.5924C199.425 88.1855 199.907 88.6659 200.501 88.6659Z" fill="#F8A547"/>
<path d="M215.801 84.1271C216.532 84.1271 217.125 83.5354 217.125 82.8056C217.125 82.0757 216.532 81.484 215.801 81.484C215.07 81.484 214.478 82.0757 214.478 82.8056C214.478 83.5354 215.07 84.1271 215.801 84.1271Z" fill="#F8A547"/>
<path opacity="0.4" d="M201.327 84.4963C201.829 84.4963 202.237 84.0896 202.237 83.5878C202.237 83.086 201.829 82.6792 201.327 82.6792C200.824 82.6792 200.417 83.086 200.417 83.5878C200.417 84.0896 200.824 84.4963 201.327 84.4963Z" fill="#F8A547"/>
<path opacity="0.4" d="M204.138 81.8513C204.664 81.8513 205.089 81.426 205.089 80.9014C205.089 80.3768 204.664 79.9515 204.138 79.9515C203.613 79.9515 203.188 80.3768 203.188 80.9014C203.188 81.426 203.613 81.8513 204.138 81.8513Z" fill="#F8A547"/>
<path opacity="0.4" d="M204.016 77.3563C204.221 77.3563 204.388 77.1899 204.388 76.9847C204.388 76.7794 204.221 76.613 204.016 76.613C203.81 76.613 203.644 76.7794 203.644 76.9847C203.644 77.1899 203.81 77.3563 204.016 77.3563Z" fill="#F8A547"/>
<path d="M205.298 101.305C206.348 101.305 207.2 100.454 207.2 99.4055C207.2 98.356 206.348 97.5056 205.298 97.5056C204.247 97.5056 203.396 98.356 203.396 99.4055C203.396 100.454 204.247 101.305 205.298 101.305Z" fill="#F8A547"/>
<path d="M206.621 96.8082C206.963 96.8082 207.241 96.5313 207.241 96.1886C207.241 95.8467 206.963 95.569 206.621 95.569C206.278 95.569 206 95.8467 206 96.1886C206 96.5313 206.278 96.8082 206.621 96.8082Z" fill="#F8A547"/>
<path d="M200.955 101.679C201.297 101.679 201.575 101.402 201.575 101.059C201.575 100.717 201.297 100.441 200.955 100.441C200.612 100.441 200.334 100.717 200.334 101.059C200.334 101.402 200.612 101.679 200.955 101.679Z" fill="#F8A547"/>
<path d="M210.054 98.9449C210.488 98.9449 210.839 98.5936 210.839 98.1603C210.839 97.727 210.488 97.3757 210.054 97.3757C209.62 97.3757 209.268 97.727 209.268 98.1603C209.268 98.5936 209.62 98.9449 210.054 98.9449Z" fill="#F8A547"/>
<path opacity="0.4" d="M201.451 99.1902C201.748 99.1902 201.989 98.95 201.989 98.6534C201.989 98.3569 201.748 98.1167 201.451 98.1167C201.154 98.1167 200.914 98.3569 200.914 98.6534C200.914 98.95 201.154 99.1902 201.451 99.1902Z" fill="#F8A547"/>
<path opacity="0.4" d="M203.106 97.6269C203.425 97.6269 203.684 97.368 203.684 97.0492C203.684 96.7295 203.425 96.4706 203.106 96.4706C202.786 96.4706 202.526 96.7295 202.526 97.0492C202.526 97.368 202.786 97.6269 203.106 97.6269Z" fill="#F8A547"/>
<path opacity="0.4" d="M203.063 94.9012C203.177 94.9012 203.27 94.8088 203.27 94.6941C203.27 94.5802 203.177 94.4878 203.063 94.4878C202.949 94.4878 202.856 94.5802 202.856 94.6941C202.856 94.8088 202.949 94.9012 203.063 94.9012Z" fill="#F8A547"/>
<path d="M193.923 92.1699C194.563 92.1699 195.081 91.652 195.081 91.0135C195.081 90.3751 194.563 89.8572 193.923 89.8572C193.284 89.8572 192.765 90.3751 192.765 91.0135C192.765 91.652 193.284 92.1699 193.923 92.1699Z" fill="#F8A547"/>
<path d="M174.43 30.6167C176.325 27.9046 176.373 24.669 174.538 23.3899C172.702 22.1107 169.678 23.2722 167.783 25.9843C165.887 28.6964 165.839 31.9319 167.674 33.2111C169.51 34.4903 172.535 33.3287 174.43 30.6167Z" fill="#FFEFAE"/>
<path d="M204.594 57.8237C204.039 56.5513 203.237 55.4006 202.237 54.4373C201.259 53.5084 200.16 52.7165 198.97 52.0833C197.844 51.4527 196.668 50.914 195.454 50.4727C193.882 49.8532 192.394 49.2751 190.988 48.6556C189.729 48.1407 188.568 47.4144 187.555 46.5081C187.126 46.1006 186.789 45.6058 186.568 45.0572C186.346 44.5086 186.246 43.9189 186.273 43.3281C186.254 42.4403 186.453 41.5613 186.852 40.7677C187.294 40.0546 187.943 39.4927 188.713 39.1571C189.752 38.7459 190.863 38.5492 191.98 38.5789C193.158 38.5402 194.321 38.8413 195.33 39.4461C196.288 40.0303 197.129 40.7864 197.812 41.6762C198.527 42.6425 199.163 43.6644 199.714 44.7322L205.007 41.3045C204.324 39.8015 203.417 38.4095 202.32 37.1748C201.096 35.8398 199.62 34.7591 197.977 33.9948C196.9 33.5139 195.757 33.1938 194.586 33.045V26.6851H189.333V33.0036C187.905 33.1798 186.511 33.5696 185.198 34.16C183.414 34.9768 181.875 36.2436 180.731 37.8355C179.655 39.293 179.088 41.0632 179.118 42.8739C179.061 44.5447 179.416 46.2041 180.152 47.7057C180.796 48.9906 181.68 50.1401 182.758 51.0922C183.777 52.0025 184.919 52.7669 186.149 53.3635C187.208 53.898 188.299 54.3669 189.416 54.7677C190.905 55.3459 192.352 55.924 193.552 56.5848C194.797 57.1488 195.92 57.9482 196.86 58.9387C197.735 59.9269 198.194 61.2139 198.142 62.5317C198.183 63.55 197.955 64.5611 197.481 65.4639C197.048 66.2891 196.348 66.9441 195.496 67.3223C194.423 67.7716 193.266 67.983 192.104 67.9417C190.669 67.9663 189.249 67.6403 187.968 66.9918C186.702 66.2828 185.592 65.328 184.701 64.1836C183.614 62.8275 182.698 61.3434 181.972 59.7647L176.802 63.1099C177.602 65.1314 178.781 66.9817 180.276 68.5612C181.738 70.1486 183.494 71.4388 185.446 72.3606C186.601 72.8987 187.826 73.274 189.085 73.4756V79.5464H194.42V73.5995C196.093 73.4722 197.731 73.0529 199.259 72.3606C201.146 71.4554 202.726 70.0202 203.808 68.2308C204.878 66.3887 205.422 64.289 205.38 62.16C205.419 60.676 205.151 59.2 204.594 57.8237Z" fill="white"/>
</g>
</svg>
