<svg width="172" height="176" viewBox="0 0 172 176" fill="none" xmlns="http://www.w3.org/2000/svg">
<mask id="mask0_336_494" style="mask-type:luminance" maskUnits="userSpaceOnUse" x="0" y="0" width="172" height="176">
<path d="M171.111 0H0V176H171.111V0Z" fill="white"/>
</mask>
<g mask="url(#mask0_336_494)">
<path d="M85.1523 174.33C131.127 174.33 168.397 137.01 168.397 90.974C168.397 44.9375 131.127 7.61768 85.1523 7.61768C39.1772 7.61768 1.90723 44.9375 1.90723 90.974C1.90723 137.01 39.1772 174.33 85.1523 174.33Z" fill="#FBD947"/>
<path d="M38.6183 139.542C38.4424 139.545 38.2676 139.514 38.104 139.45C37.9404 139.385 37.7912 139.289 37.6651 139.167C29.5918 131.177 23.6561 121.292 20.4019 110.417C17.1476 99.5425 16.679 88.0257 19.0389 76.9232C21.3989 65.8206 26.5119 55.4873 33.9094 46.8701C41.3068 38.253 50.752 31.6278 61.3792 27.6019C61.7014 27.5079 62.0475 27.5393 62.3476 27.6898C62.6477 27.8402 62.8796 28.0985 62.9967 28.4128C63.1139 28.7271 63.1073 29.0739 62.9788 29.3837C62.8503 29.6935 62.6088 29.9431 62.3033 30.0824C52.0868 33.9467 43.006 40.3119 35.8946 48.5936C28.7832 56.8753 23.8691 66.8079 21.6033 77.4801C19.3376 88.1523 19.7929 99.222 22.9273 109.673C26.0618 120.123 31.775 129.62 39.5425 137.292C39.7913 137.541 39.931 137.878 39.931 138.229C39.931 138.581 39.7913 138.918 39.5425 139.167C39.4208 139.287 39.2765 139.382 39.1179 139.446C38.9592 139.511 38.7895 139.543 38.6183 139.542Z" fill="#3E3126"/>
<path d="M85.1508 158.638C72.8541 158.661 60.7869 155.319 50.2583 148.976C49.9559 148.795 49.7374 148.503 49.6508 148.162C49.5641 147.822 49.6164 147.461 49.7961 147.158C49.9818 146.854 50.2798 146.636 50.6257 146.549C50.9716 146.463 51.3376 146.516 51.6447 146.697C60.2436 151.838 69.9155 154.926 79.9066 155.721C89.8971 156.516 99.9366 154.996 109.242 151.279C118.548 147.563 126.868 141.75 133.554 134.294C140.24 126.839 145.111 117.942 147.788 108.297C150.464 98.6525 150.874 88.5211 148.985 78.6924C147.095 68.8636 142.957 59.6037 136.895 51.6344C130.832 43.665 123.008 37.2016 114.033 32.7483C105.057 28.2948 95.173 25.9717 85.1508 25.9601C81.6771 25.9639 78.2101 26.2436 74.7813 26.7965C74.6085 26.8254 74.4316 26.8199 74.2612 26.7803C74.0909 26.7408 73.9301 26.668 73.7878 26.5662C73.6455 26.4643 73.5248 26.3354 73.4321 26.1868C73.3401 26.0383 73.2785 25.873 73.2504 25.7005C73.2211 25.5281 73.2271 25.3517 73.2665 25.1814C73.306 25.0112 73.3789 24.8503 73.4811 24.7083C73.5828 24.5663 73.7119 24.4458 73.8607 24.3537C74.0096 24.2616 74.1752 24.1998 74.3479 24.1718C77.922 23.6188 81.5337 23.3392 85.1508 23.3353C102.884 23.7009 119.768 30.9921 132.18 43.6448C144.592 56.2974 151.543 73.3035 151.543 91.0156C151.543 108.727 144.592 125.733 132.18 138.386C119.768 151.039 102.884 158.33 85.1508 158.695V158.638Z" fill="#3E3126"/>
<path d="M85.1508 158.638C72.8541 158.661 60.7869 155.319 50.2583 148.976C49.9559 148.795 49.7374 148.503 49.6508 148.162C49.5641 147.822 49.6164 147.461 49.7961 147.158C49.9818 146.854 50.2798 146.636 50.6257 146.549C50.9716 146.463 51.3376 146.516 51.6447 146.697C60.2436 151.838 69.9155 154.926 79.9066 155.721C89.8971 156.516 99.9366 154.996 109.242 151.279C118.548 147.563 126.868 141.75 133.554 134.294C140.24 126.839 145.111 117.942 147.788 108.297C150.464 98.6525 150.874 88.5211 148.985 78.6924C147.095 68.8636 142.957 59.6037 136.895 51.6344C130.832 43.665 123.008 37.2016 114.033 32.7483C105.057 28.2948 95.173 25.9717 85.1508 25.9601C81.6771 25.9639 78.2101 26.2436 74.7813 26.7965C74.6085 26.8254 74.4316 26.8199 74.2612 26.7803C74.0909 26.7408 73.9301 26.668 73.7878 26.5662C73.6455 26.4643 73.5248 26.3354 73.4321 26.1868C73.3401 26.0383 73.2785 25.873 73.2504 25.7005C73.2211 25.5281 73.2271 25.3517 73.2665 25.1814C73.306 25.0112 73.3789 24.8503 73.4811 24.7083C73.5828 24.5663 73.7119 24.4458 73.8607 24.3537C74.0096 24.2616 74.1752 24.1998 74.3479 24.1718C77.922 23.6188 81.5337 23.3392 85.1508 23.3353C102.884 23.7009 119.768 30.9921 132.18 43.6448C144.592 56.2974 151.543 73.3035 151.543 91.0156C151.543 108.727 144.592 125.733 132.18 138.386C119.768 151.039 102.884 158.33 85.1508 158.695V158.638Z" fill="#3E3126"/>
<path d="M134.051 73.4648C154.104 73.4648 170.359 57.181 170.359 37.0938C170.359 17.0067 154.104 0.722778 134.051 0.722778C113.999 0.722778 97.7441 17.0067 97.7441 37.0938C97.7441 57.181 113.999 73.4648 134.051 73.4648Z" fill="#FBD947"/>
<path d="M97.7449 37.8098C97.5536 37.8098 97.3701 37.7338 97.2344 37.5986C97.0987 37.4633 97.0228 37.28 97.0228 37.0887C97.0126 34.5793 97.2643 32.0756 97.7742 29.6184C97.7873 29.5239 97.8208 29.4333 97.871 29.3522C97.9212 29.2712 97.9876 29.2013 98.0665 29.1472C98.1454 29.093 98.2338 29.0557 98.3277 29.0375C98.4215 29.0193 98.5184 29.0207 98.6116 29.0415C98.7073 29.0587 98.7987 29.0949 98.88 29.1481C98.9613 29.2014 99.0313 29.2705 99.0851 29.3513C99.1389 29.4321 99.1759 29.523 99.1939 29.6184C99.2118 29.7139 99.21 29.812 99.1891 29.9068C98.7019 32.2696 98.4598 34.6763 98.467 37.0887C98.467 37.28 98.391 37.4633 98.2554 37.5986C98.1203 37.7338 97.9367 37.8098 97.7449 37.8098Z" fill="#3E3126"/>
<path d="M134.053 74.1828C125.283 74.1953 116.793 71.092 110.104 65.4273C103.416 59.762 98.9629 51.9058 97.5432 43.2631C97.5152 43.1652 97.508 43.0624 97.5223 42.9615C97.5367 42.8607 97.5725 42.764 97.6269 42.6779C97.6819 42.5918 97.7543 42.5182 97.8392 42.462C97.924 42.4058 98.0203 42.3683 98.1213 42.3519C98.2217 42.3354 98.3245 42.3405 98.4232 42.3668C98.5218 42.393 98.6139 42.4398 98.6928 42.5041C98.7723 42.5684 98.8368 42.6488 98.8829 42.7398C98.9283 42.8308 98.9546 42.9306 98.9588 43.0323C100.44 51.5013 104.933 59.1515 111.613 64.5755C118.292 69.9996 126.709 72.8332 135.314 72.555C143.919 72.2762 152.133 68.9043 158.447 63.0599C164.761 57.215 168.749 49.2904 169.678 40.7434C170.606 32.1965 168.413 23.6021 163.502 16.5411C158.59 9.48012 151.291 4.42743 142.946 2.31243C134.601 0.197427 125.772 1.16235 118.083 5.02971C110.394 8.89706 104.362 15.4068 101.096 23.3614C101.02 23.538 100.878 23.6784 100.701 23.7536C100.523 23.8287 100.323 23.8329 100.143 23.7652C99.966 23.6887 99.8255 23.5472 99.7502 23.37C99.6749 23.1929 99.6707 22.9935 99.7389 22.8134C102.334 16.6412 106.555 11.2867 111.954 7.31936C117.354 3.35202 123.729 0.920204 130.403 0.282556C137.075 -0.355093 143.797 0.825265 149.852 3.69809C155.907 6.57089 161.069 11.0288 164.789 16.5976C168.508 22.1664 170.647 28.6379 170.978 35.3237C171.308 42.0096 169.818 48.6599 166.664 54.5672C163.511 60.4747 158.814 65.4183 153.072 68.872C147.33 72.3264 140.757 74.1613 134.053 74.1828Z" fill="#3E3126"/>
<path d="M113.747 58.2854C113.594 58.2831 113.449 58.2209 113.342 58.1123C110.572 55.3578 108.379 52.0798 106.891 48.4697C105.403 44.8595 104.651 40.9895 104.677 37.0857C104.691 31.0855 106.525 25.2302 109.939 20.2922C113.352 15.3542 118.185 11.5653 123.798 9.42533C123.871 9.39781 123.947 9.38491 124.024 9.38754C124.101 9.39011 124.177 9.40802 124.247 9.44031C124.317 9.47254 124.38 9.51844 124.432 9.57533C124.484 9.63222 124.524 9.69889 124.55 9.77141C124.598 9.917 124.589 10.0754 124.524 10.2145C124.459 10.3537 124.345 10.4633 124.203 10.5213C119.748 12.2072 115.788 14.9831 112.688 18.5943C109.586 22.2056 107.443 26.5366 106.454 31.1902C105.465 35.8437 105.662 40.6707 107.027 45.2284C108.392 49.7862 110.882 53.9286 114.267 57.2759C114.375 57.3885 114.434 57.5383 114.434 57.694C114.434 57.8498 114.375 57.9996 114.267 58.1123C114.201 58.1819 114.119 58.2341 114.028 58.2643C113.938 58.2945 113.841 58.3017 113.747 58.2854Z" fill="#3E3126"/>
<path d="M134.053 66.6308C128.687 66.6296 123.423 65.163 118.831 62.3909C118.765 62.3551 118.706 62.3056 118.659 62.2465C118.612 62.1868 118.579 62.1187 118.56 62.0453C118.541 61.9725 118.537 61.8961 118.549 61.8215C118.561 61.7469 118.588 61.6758 118.629 61.612C118.668 61.5445 118.719 61.4854 118.781 61.4389C118.844 61.3917 118.915 61.3577 118.99 61.3386C119.066 61.3201 119.144 61.3165 119.221 61.329C119.298 61.341 119.372 61.3684 119.438 61.4102C123.191 63.6277 127.406 64.9523 131.755 65.2806C136.104 65.6089 140.47 64.9326 144.515 63.3036C148.56 61.6746 152.174 59.1374 155.078 55.8884C157.982 52.6393 160.098 48.7658 161.261 44.5684C162.424 40.371 162.603 35.9625 161.784 31.6849C160.965 27.4073 159.17 23.3755 156.539 19.9024C153.907 16.4293 150.51 13.6081 146.611 11.6578C142.711 9.70746 138.415 8.68042 134.053 8.65624C132.535 8.65451 131.019 8.77025 129.519 9.00239C129.384 9.03946 129.241 9.02442 129.118 8.96013C128.994 8.8959 128.9 8.78727 128.854 8.65624C128.842 8.58038 128.845 8.50284 128.863 8.42816C128.881 8.35349 128.914 8.28317 128.96 8.22139C129.006 8.15961 129.063 8.10756 129.129 8.06829C129.195 8.02907 129.269 8.0034 129.345 7.99284C130.901 7.73688 132.476 7.61141 134.053 7.61792C141.898 7.61792 149.421 10.7296 154.968 16.2686C160.515 21.8075 163.631 29.3199 163.631 37.1531C163.631 44.9864 160.515 52.4987 154.968 58.0377C149.421 63.5764 141.898 66.6881 134.053 66.6881V66.6308Z" fill="#3E3126"/>
<path d="M134.053 66.6308C128.687 66.6296 123.423 65.163 118.831 62.3909C118.765 62.3551 118.706 62.3056 118.659 62.2465C118.612 62.1868 118.579 62.1187 118.56 62.0453C118.541 61.9725 118.537 61.8961 118.549 61.8215C118.561 61.7469 118.588 61.6758 118.629 61.612C118.668 61.5445 118.719 61.4854 118.781 61.4389C118.844 61.3917 118.915 61.3577 118.99 61.3386C119.066 61.3201 119.144 61.3165 119.221 61.329C119.298 61.341 119.372 61.3684 119.438 61.4102C123.191 63.6277 127.406 64.9523 131.755 65.2806C136.104 65.6089 140.47 64.9326 144.515 63.3036C148.56 61.6746 152.174 59.1374 155.078 55.8884C157.982 52.6393 160.098 48.7658 161.261 44.5684C162.424 40.371 162.603 35.9625 161.784 31.6849C160.965 27.4073 159.17 23.3755 156.539 19.9024C153.907 16.4293 150.51 13.6081 146.611 11.6578C142.711 9.70746 138.415 8.68042 134.053 8.65624C132.535 8.65451 131.019 8.77025 129.519 9.00239C129.384 9.03946 129.241 9.02442 129.118 8.96013C128.994 8.8959 128.9 8.78727 128.854 8.65624C128.842 8.58038 128.845 8.50284 128.863 8.42816C128.881 8.35349 128.914 8.28317 128.96 8.22139C129.006 8.15961 129.063 8.10756 129.129 8.06829C129.195 8.02907 129.269 8.0034 129.345 7.99284C130.901 7.73688 132.476 7.61141 134.053 7.61792C141.898 7.61792 149.421 10.7296 154.968 16.2686C160.515 21.8075 163.631 29.3199 163.631 37.1531C163.631 44.9864 160.515 52.4987 154.968 58.0377C149.421 63.5764 141.898 66.6881 134.053 66.6881V66.6308Z" fill="#3E3126"/>
</g>
<path d="M90.9125 68.68H68.3525L73.0725 63.88V121H62.5125V61H91.4725C95.5792 61 99.1258 61.7467 102.113 63.24C105.099 64.7333 107.419 66.8133 109.073 69.48C110.726 72.1467 111.553 75.2667 111.553 78.84C111.553 82.36 110.726 85.4533 109.073 88.12C107.419 90.7867 105.099 92.8667 102.113 94.36C99.1258 95.8533 95.5792 96.6 91.4725 96.6H53.3125V88.92H90.9125C93.9525 88.92 96.3525 88.0133 98.1125 86.2C99.9258 84.3867 100.833 81.9333 100.833 78.84C100.833 75.6933 99.9258 73.2133 98.1125 71.4C96.3525 69.5867 93.9525 68.68 90.9125 68.68ZM53.2325 110.92V104.04H99.8725V110.92H53.2325Z" fill="white"/>
</svg>
