<svg width="404" height="404" viewBox="0 0 404 404" fill="none" xmlns="http://www.w3.org/2000/svg">
<path d="M196.78 9.21231C199.078 5.15633 204.922 5.15633 207.22 9.21231L252.535 89.1815C253.769 91.3593 256.225 92.5421 258.697 92.1491L349.473 77.7176C354.077 76.9856 357.72 81.5544 355.982 85.8801L321.713 171.169C320.78 173.491 321.386 176.149 323.235 177.837L391.116 239.81C394.559 242.953 393.258 248.65 388.792 249.989L300.745 276.372C298.347 277.091 296.647 279.222 296.48 281.72L290.351 373.431C290.04 378.082 284.775 380.618 280.944 377.961L205.42 325.572C203.363 324.146 200.637 324.146 198.58 325.572L123.056 377.961C119.225 380.618 113.96 378.082 113.649 373.431L107.52 281.72C107.353 279.222 105.653 277.091 103.255 276.372L15.2075 249.989C10.7418 248.65 9.44144 242.953 12.8843 239.81L80.7651 177.837C82.6136 176.149 83.2202 173.491 82.287 171.169L48.0178 85.8801C46.2797 81.5544 49.9232 76.9856 54.5272 77.7176L145.303 92.1491C147.775 92.5421 150.231 91.3593 151.465 89.1815L196.78 9.21231Z" fill="#32385B"/>
<g clip-path="url(#clip0_326_96)">
<mask id="mask0_326_96" style="mask-type:luminance" maskUnits="userSpaceOnUse" x="58" y="86" width="295" height="171">
<path d="M352.78 86H58V256.915H352.78V86Z" fill="white"/>
</mask>
<g mask="url(#mask0_326_96)">
<path d="M337.225 189.026C326.807 216.001 307.221 239.634 280.016 250.02C276.477 251.368 272.864 252.513 269.194 253.447C249.784 258.395 228.55 256.674 210.657 247.656C203.063 243.826 196.139 238.765 188.517 234.99C180.896 231.214 172.193 228.743 163.897 230.607C156.755 232.211 150.729 236.81 144.662 240.906C130.359 250.563 113.161 258.205 96.2239 254.888C88.4305 253.364 80.7564 249.142 77.1371 242.084C69.1375 226.481 84.2244 207.93 81.169 190.674C79.2138 179.63 70.2836 171.36 64.732 161.613C55.231 144.942 56.3542 122.797 67.494 107.175C78.6339 91.5536 99.1991 83.2672 118.054 86.811C141.047 91.1341 158.431 110.593 180.788 117.479C194.77 121.781 209.951 120.497 223.305 114.831C244.881 105.674 274.524 91.6292 298.804 93.9169C311.716 95.134 324.38 100.865 332.902 110.65C343.675 123.003 346.905 140.541 345.108 156.829C343.875 167.855 341.225 178.677 337.225 189.026Z" fill="url(#paint0_linear_326_96)"/>
<path d="M344.157 210.362C343.678 210.362 343.201 210.304 342.736 210.19C341.264 209.829 339.988 208.919 339.165 207.648C338.342 206.376 338.035 204.838 338.308 203.348C338.578 201.857 339.41 200.527 340.629 199.629C341.849 198.73 343.366 198.331 344.87 198.513C346.374 198.695 347.751 199.444 348.721 200.608C349.693 201.771 350.181 203.261 350.091 204.773C350 206.285 349.335 207.706 348.233 208.744C347.13 209.783 345.672 210.362 344.157 210.362ZM344.157 201.152C343.369 201.155 342.61 201.446 342.021 201.97C341.432 202.495 341.056 203.216 340.962 203.999C340.87 204.781 341.065 205.571 341.514 206.219C341.961 206.867 342.631 207.329 343.396 207.518C343.838 207.624 344.299 207.636 344.748 207.551C345.195 207.467 345.619 207.289 345.993 207.029C346.367 206.769 346.683 206.432 346.917 206.041C347.151 205.651 347.302 205.215 347.355 204.763C347.41 204.31 347.366 203.852 347.231 203.417C347.096 202.982 346.869 202.581 346.566 202.24C346.264 201.899 345.895 201.625 345.477 201.438C345.063 201.25 344.613 201.153 344.157 201.152Z" fill="#E7F6FF"/>
<path d="M338.731 216.668C339.068 215.274 338.213 213.87 336.817 213.532C335.424 213.194 334.021 214.05 333.682 215.444C333.345 216.838 334.2 218.242 335.593 218.58C336.989 218.918 338.392 218.062 338.731 216.668Z" fill="#E7F6FF"/>
<path d="M70.6503 209.796C69.076 209.761 67.5787 209.107 66.4836 207.976C65.3885 206.844 64.7839 205.326 64.8011 203.752C64.8183 202.177 65.4559 200.672 66.5755 199.565C67.6951 198.457 69.2063 197.836 70.781 197.836C72.3558 197.836 73.8669 198.457 74.9865 199.565C76.1061 200.672 76.7437 202.177 76.7609 203.752C76.7781 205.326 76.1735 206.844 75.0784 207.976C73.9833 209.107 72.486 209.761 70.9117 209.796H70.6503ZM70.6503 200.588H70.5151C69.6648 200.606 68.8561 200.959 68.2645 201.57C67.673 202.182 67.3464 203.001 67.3556 203.852C67.3648 204.702 67.7091 205.515 68.3137 206.113C68.9183 206.711 69.7345 207.047 70.585 207.047C71.4355 207.047 72.2517 206.711 72.8563 206.113C73.461 205.515 73.8053 204.702 73.8145 203.852C73.8237 203.001 73.4971 202.182 72.9055 201.57C72.3139 200.959 71.5052 200.606 70.6549 200.588H70.6503Z" fill="#E7F6FF"/>
<path d="M66.3867 219.831C67.8197 219.77 68.9312 218.558 68.8694 217.125C68.8076 215.692 67.5958 214.58 66.1629 214.642C64.7299 214.704 63.6184 215.916 63.6802 217.349C63.742 218.782 64.9538 219.893 66.3867 219.831Z" fill="#E7F6FF"/>
<path d="M220.532 113.107C219.105 113.108 217.725 112.599 216.641 111.67C215.557 110.742 214.841 109.456 214.623 108.046C214.405 106.636 214.7 105.194 215.453 103.981C216.205 102.769 217.368 101.867 218.728 101.437C220.089 101.007 221.559 101.079 222.871 101.639C224.184 102.2 225.252 103.211 225.884 104.491C226.515 105.771 226.667 107.234 226.313 108.617C225.958 109.999 225.121 111.209 223.952 112.027C222.949 112.729 221.755 113.106 220.532 113.107ZM220.514 103.901C219.679 103.901 218.876 104.222 218.272 104.799C217.668 105.375 217.31 106.163 217.272 106.997C217.235 107.831 217.521 108.648 218.07 109.276C218.62 109.905 219.391 110.297 220.223 110.371C221.054 110.445 221.882 110.195 222.535 109.674C223.187 109.152 223.612 108.399 223.723 107.572C223.833 106.744 223.62 105.906 223.128 105.231C222.635 104.557 221.902 104.099 221.08 103.952C220.893 103.919 220.703 103.902 220.514 103.901Z" fill="#E7F6FF"/>
<path d="M208.339 112.781C209.513 111.957 209.798 110.338 208.974 109.163C208.15 107.989 206.531 107.705 205.357 108.528C204.182 109.352 203.898 110.971 204.721 112.146C205.545 113.32 207.165 113.604 208.339 112.781Z" fill="#E7F6FF"/>
<path d="M352.771 143.915C352.771 141.394 351.769 138.977 349.988 137.195C348.205 135.412 345.789 134.411 343.267 134.411C343.057 134.411 342.848 134.411 342.642 134.432C342.655 134.225 342.662 134.017 342.662 133.806C342.662 132.455 342.373 131.12 341.816 129.89C341.259 128.659 340.448 127.561 339.433 126.669C338.417 125.778 337.225 125.113 335.933 124.718C334.642 124.324 333.281 124.209 331.942 124.383C330.601 124.556 329.315 125.012 328.164 125.722C327.016 126.432 326.03 127.379 325.276 128.499C324.522 129.619 324.016 130.888 323.789 132.219C323.564 133.551 323.624 134.916 323.967 136.222C322.819 135.389 321.499 134.824 320.103 134.568C318.707 134.312 317.272 134.372 315.904 134.743C314.533 135.114 313.265 135.787 312.188 136.712C311.113 137.638 310.26 138.792 309.687 140.091C309.117 141.39 308.844 142.8 308.89 144.219C308.936 145.637 309.298 147.027 309.951 148.287C310.602 149.546 311.528 150.644 312.66 151.499C313.793 152.354 315.101 152.945 316.493 153.228C317.061 154.733 318.001 156.07 319.227 157.113C320.451 158.156 321.923 158.87 323.498 159.189C325.075 159.509 326.709 159.422 328.242 158.939C329.776 158.455 331.163 157.589 332.272 156.423C333.407 157.28 334.718 157.871 336.111 158.153C337.505 158.435 338.942 158.401 340.32 158.053C341.7 157.706 342.981 157.053 344.074 156.145C345.168 155.236 346.041 154.093 346.635 152.802C348.438 152.118 349.99 150.902 351.088 149.314C352.184 147.727 352.771 145.844 352.771 143.915Z" fill="white"/>
<path d="M101.883 121.07C101.884 119.822 101.64 118.585 101.163 117.431C100.686 116.277 99.9863 115.229 99.1038 114.345C98.2216 113.462 97.1739 112.761 96.0204 112.283C94.8673 111.804 93.6309 111.558 92.3823 111.558C92.1715 111.558 91.9629 111.558 91.7566 111.578C91.7703 111.372 91.7772 111.163 91.7772 110.953C91.777 109.602 91.4889 108.267 90.9319 107.036C90.3751 105.806 89.5623 104.708 88.5478 103.816C87.5333 102.924 86.3402 102.259 85.0484 101.865C83.7565 101.471 82.3954 101.356 81.0559 101.529C79.7164 101.702 78.4292 102.159 77.28 102.869C76.1309 103.579 75.1462 104.525 74.3917 105.646C73.6372 106.766 73.1302 108.034 72.9044 109.366C72.6786 110.698 72.7393 112.062 73.0824 113.369C71.9339 112.536 70.6134 111.97 69.2179 111.715C67.8224 111.458 66.3872 111.518 65.0178 111.889C63.6484 112.26 62.3795 112.933 61.3041 113.859C60.2287 114.785 59.3742 115.939 58.8033 117.238C58.2324 118.537 57.9596 119.947 58.0048 121.365C58.0501 122.783 58.4123 124.173 59.0649 125.433C59.7174 126.693 60.6438 127.791 61.776 128.646C62.9081 129.501 64.2174 130.092 65.6077 130.375C66.1759 131.879 67.1164 133.214 68.3412 134.256C69.566 135.298 71.0351 136.011 72.6109 136.331C74.1868 136.65 75.8178 136.564 77.3515 136.081C78.8852 135.599 80.2712 134.734 81.38 133.57C82.5144 134.426 83.8264 135.017 85.2194 135.299C86.6123 135.581 88.0509 135.547 89.4289 135.2C90.8069 134.852 92.0896 134.2 93.1823 133.291C94.275 132.382 95.1499 131.24 95.7426 129.948C97.5456 129.266 99.0986 128.051 100.195 126.466C101.292 124.88 101.881 122.998 101.883 121.07Z" fill="white"/>
<path d="M276.713 256.296H139.986V253.316H276.713C277.108 253.316 277.487 253.473 277.766 253.753C278.046 254.032 278.203 254.411 278.203 254.806C278.203 255.202 278.046 255.58 277.766 255.86C277.487 256.139 277.108 256.296 276.713 256.296Z" fill="#426572"/>
<path d="M133.87 256.296H125.511C125.116 256.296 124.737 256.139 124.457 255.86C124.178 255.58 124.021 255.202 124.021 254.806C124.021 254.411 124.178 254.032 124.457 253.753C124.737 253.473 125.116 253.316 125.511 253.316H133.87C134.266 253.316 134.644 253.473 134.924 253.753C135.203 254.032 135.36 254.411 135.36 254.806C135.36 255.202 135.203 255.58 134.924 255.86C134.644 256.139 134.266 256.296 133.87 256.296Z" fill="#426572"/>
<path d="M120.086 256.296H117.422C117.027 256.296 116.648 256.139 116.369 255.86C116.089 255.58 115.932 255.202 115.932 254.806C115.932 254.411 116.089 254.032 116.369 253.753C116.648 253.473 117.027 253.316 117.422 253.316H120.086C120.481 253.316 120.86 253.473 121.139 253.753C121.418 254.032 121.575 254.411 121.575 254.806C121.575 255.202 121.418 255.58 121.139 255.86C120.86 256.139 120.481 256.296 120.086 256.296Z" fill="#426572"/>
<path d="M324.655 256.296H282.631V253.316H324.655C325.049 253.316 325.43 253.473 325.71 253.753C325.989 254.032 326.145 254.411 326.145 254.806C326.145 255.202 325.989 255.58 325.71 255.86C325.43 256.139 325.049 256.296 324.655 256.296Z" fill="#426572"/>
<path d="M109.803 256.296H67.7759V253.316H109.803C110.198 253.316 110.577 253.473 110.856 253.753C111.135 254.032 111.292 254.411 111.292 254.806C111.292 255.202 111.135 255.58 110.856 255.86C110.577 256.139 110.198 256.296 109.803 256.296Z" fill="#426572"/>
<path d="M123.12 139.995H276.195C278.958 139.995 281.607 141.092 283.561 143.046C285.515 144.999 286.614 147.648 286.615 150.411V249.495H112.7V150.411C112.701 147.648 113.8 144.999 115.754 143.046C117.708 141.092 120.358 139.995 123.12 139.995Z" fill="#EBF0F9"/>
<path d="M280.57 147.594H119.434V239.65H280.57V147.594Z" fill="#637F91"/>
<path d="M118.226 239.478H281.256C281.256 240.209 280.966 240.91 280.451 241.428C279.935 241.946 279.236 242.239 278.505 242.242H120.988C120.255 242.242 119.552 241.951 119.034 241.433C118.515 240.914 118.224 240.211 118.224 239.478H118.226Z" fill="white"/>
<g opacity="0.5">
<path opacity="0.5" d="M167.586 147.25L143.493 240.167H131.36L155.453 147.25H167.586Z" fill="#A7BCD5"/>
<path opacity="0.5" d="M198.509 147.25L174.418 240.167H148.976L173.068 147.25H198.509Z" fill="#A7BCD5"/>
</g>
<path d="M287.99 250.87H111.325V145.969C111.327 144.021 112.102 142.153 113.48 140.775C114.857 139.397 116.725 138.622 118.673 138.62H280.641C282.59 138.622 284.457 139.397 285.835 140.775C287.213 142.153 287.988 144.021 287.99 145.969V250.87ZM114.075 248.12H285.239V145.969C285.238 144.75 284.754 143.581 283.891 142.719C283.029 141.857 281.861 141.372 280.641 141.371H118.673C117.454 141.372 116.285 141.857 115.423 142.719C114.561 143.581 114.076 144.75 114.075 145.969V248.12Z" fill="#426572"/>
<path d="M90.7666 246.215H313.213V246.946C313.213 249.317 312.271 251.591 310.595 253.267C308.918 254.944 306.644 255.886 304.274 255.886H99.706C97.3352 255.886 95.0614 254.944 93.3849 253.267C91.7084 251.591 90.7666 249.317 90.7666 246.946V246.215Z" fill="#EBF0F9"/>
<path opacity="0.5" d="M312.074 250.877C311.585 252.149 310.721 253.242 309.598 254.013C308.475 254.784 307.143 255.197 305.782 255.196H96.8108C95.4493 255.196 94.1196 254.783 92.9971 254.012C91.8747 253.241 91.0124 252.148 90.5234 250.877H312.074Z" fill="#A7BCD5"/>
<path d="M303.235 256.915H98.6697C95.9349 256.912 93.3131 255.824 91.3795 253.89C89.4456 251.956 88.358 249.334 88.355 246.6V244.493H313.552V246.6C313.55 249.335 312.461 251.957 310.526 253.891C308.592 255.825 305.97 256.912 303.235 256.915ZM91.1308 247.244C91.2921 249.131 92.1561 250.89 93.5515 252.171C94.9472 253.453 96.7727 254.164 98.6674 254.164H303.235C305.131 254.164 306.955 253.453 308.351 252.171C309.747 250.89 310.611 249.131 310.772 247.244H91.1308Z" fill="#426572"/>
<path d="M281.599 240.507H117.71V146.218H281.599V240.507ZM120.461 237.756H278.849V148.969H120.461V237.756Z" fill="#426572"/>
<path d="M255.939 118.043V239.132H146.097V118.043C146.101 117.497 146.319 116.975 146.705 116.589C147.091 116.203 147.614 115.984 148.16 115.98H253.867C253.992 115.98 254.116 115.991 254.238 116.014C254.713 116.102 255.143 116.352 255.453 116.723C255.764 117.093 255.935 117.56 255.939 118.043Z" fill="white"/>
<path d="M147.825 125.988H256.285V118.703L254.211 115.971H159.224H149.897L146.443 118.703V125.988H147.825Z" fill="#E2F2FF"/>
<path d="M257.66 240.507H145.067V118.043C145.071 117.132 145.434 116.26 146.078 115.616C146.723 114.971 147.595 114.608 148.506 114.604H254.208C255.119 114.608 255.992 114.971 256.635 115.616C257.279 116.26 257.643 117.132 257.646 118.043L257.66 240.507ZM147.818 237.757H254.91V118.043C254.905 117.862 254.831 117.69 254.703 117.562C254.575 117.434 254.403 117.36 254.222 117.355H148.515C148.334 117.36 148.162 117.434 148.034 117.562C147.906 117.69 147.832 117.862 147.827 118.043L147.818 237.757Z" fill="#426572"/>
<path d="M249.528 120.216H152.904C152.141 120.216 151.522 120.835 151.522 121.598C151.522 122.362 152.141 122.98 152.904 122.98H249.528C250.291 122.98 250.91 122.362 250.91 121.598C250.91 120.835 250.291 120.216 249.528 120.216Z" fill="#CADCE8"/>
<path d="M182.26 138.959H159.675V164.694H182.26V138.959Z" fill="#E8837E"/>
<path d="M237.943 138.959H184.392V164.694H237.943V138.959Z" fill="#E8837E"/>
<path d="M237.943 167.543H212.658V193.278H237.943V167.543Z" fill="#DDE4ED"/>
<path d="M210.527 167.543H159.959V193.278H210.527V167.543Z" fill="#DDE4ED"/>
<path d="M238.085 196.127H159.959V221.862H238.085V196.127Z" fill="#DDE4ED"/>
<path d="M238.775 225.321H218.742V228.071H238.775V225.321Z" fill="#DDE4ED"/>
<path d="M129.337 232.574H96.5451C96.005 232.578 95.473 232.445 94.9979 232.189C94.3102 231.813 93.8701 231.196 93.8701 230.502L93.8885 185.423C93.8889 185.128 93.968 184.838 94.1177 184.584C94.5348 183.859 95.4769 183.351 96.5634 183.351H129.355C130.501 183.351 131.466 183.905 131.851 184.68C131.968 184.91 132.029 185.163 132.03 185.42L132.014 230.502C132.014 231.542 131.008 232.411 129.708 232.553C129.585 232.567 129.461 232.574 129.337 232.574Z" fill="white"/>
<path d="M130.228 232.228L97.4249 232.221C96.8851 232.225 96.3529 232.092 95.8777 231.836C95.1901 231.46 94.75 230.843 94.75 230.149L94.7683 185.07C94.7688 184.775 94.8479 184.485 94.9976 184.231C95.4147 183.507 96.3568 182.998 97.4433 182.998H97.8902L97.8834 227.384C97.8834 228.072 98.328 228.696 99.0111 229.072C99.4863 229.328 100.019 229.461 100.558 229.457H132.905V230.144C132.905 231.185 131.899 232.054 130.599 232.196C130.476 232.213 130.352 232.224 130.228 232.228Z" fill="#D6DEE9"/>
<path d="M129.781 233.603H96.9874C96.2143 233.607 95.4523 233.415 94.7732 233.046C93.6271 232.411 92.9395 231.329 92.9395 230.155L92.9578 185.077C92.9605 184.539 93.1052 184.012 93.3773 183.548C94.0649 182.367 95.4402 181.631 97.0103 181.631H129.802C131.406 181.631 132.839 182.422 133.49 183.651L133.673 183.933V184.061C133.792 184.388 133.853 184.733 133.852 185.081L133.834 230.16C133.834 231.888 132.314 233.369 130.302 233.578C130.129 233.596 129.955 233.604 129.781 233.603ZM97.0034 184.371C96.3869 184.371 95.9055 184.643 95.7519 184.914C95.7219 184.96 95.7052 185.013 95.7038 185.067L95.6855 230.146C95.6855 230.298 95.8528 230.49 96.1026 230.63C96.3752 230.774 96.6791 230.848 96.9874 230.845H129.779C129.851 230.846 129.923 230.842 129.994 230.834C130.682 230.761 131.081 230.376 131.081 230.146L131.099 185.067C131.099 185.04 131.095 185.013 131.085 184.987L130.957 184.79C130.64 184.504 130.224 184.354 129.797 184.371H97.0057H97.0034Z" fill="#426572"/>
<path d="M125.999 202.857H103.761V205.608H125.999V202.857Z" fill="#426572"/>
<path d="M125.999 197.117H103.761V199.868H125.999V197.117Z" fill="#426572"/>
<path d="M125.999 209.36H103.761V212.111H125.999V209.36Z" fill="#426572"/>
<path opacity="0.2" d="M303.719 151.099C305.321 148.092 306.304 144.794 306.612 141.401C306.919 138.007 306.543 134.587 305.507 131.341C304.471 128.095 302.793 125.09 300.576 122.502C298.36 119.915 295.648 117.797 292.6 116.275C289.551 114.753 286.229 113.856 282.829 113.639C279.428 113.422 276.019 113.888 272.802 115.009C269.585 116.131 266.624 117.886 264.096 120.17C261.568 122.455 259.523 125.222 258.082 128.31C256.092 132.047 255.063 136.221 255.088 140.455C255.113 144.69 256.191 148.851 258.225 152.565C260.26 156.279 263.186 159.428 266.741 161.728C270.295 164.029 274.367 165.409 278.588 165.744C277.851 165.918 277.103 166.06 276.344 166.168C280.339 166.744 284.415 166.364 288.235 165.059C292.054 163.753 295.511 161.56 298.319 158.659C300.565 156.49 302.396 153.927 303.719 151.099Z" fill="#606060"/>
<path d="M277.763 159.786C291.852 159.786 303.274 148.364 303.274 134.273C303.274 120.183 291.852 108.761 277.763 108.761C263.673 108.761 252.251 120.183 252.251 134.273C252.251 148.364 263.673 159.786 277.763 159.786Z" fill="#A8EF9E"/>
<path d="M302.057 136.096C302.057 139.754 301.269 143.369 299.749 146.696C298.229 150.023 296.011 152.984 293.246 155.379C290.482 157.774 287.234 159.546 283.724 160.575C280.214 161.605 276.524 161.867 272.903 161.345C278.974 160.468 284.525 157.432 288.54 152.795C292.556 148.158 294.766 142.229 294.766 136.095C294.766 129.961 292.556 124.033 288.54 119.395C284.525 114.758 278.974 111.723 272.903 110.845C276.524 110.323 280.215 110.586 283.725 111.615C287.236 112.644 290.484 114.417 293.248 116.811C296.013 119.206 298.232 122.168 299.751 125.495C301.273 128.823 302.06 132.438 302.06 136.096H302.057Z" fill="#A7E59C"/>
<path d="M277.155 162.375C271.837 162.375 266.639 160.797 262.217 157.843C257.796 154.889 254.35 150.689 252.315 145.776C250.28 140.863 249.747 135.457 250.785 130.241C251.822 125.025 254.383 120.234 258.143 116.474C261.903 112.714 266.694 110.153 271.91 109.116C277.125 108.078 282.531 108.611 287.444 110.646C292.357 112.681 296.556 116.127 299.51 120.549C302.465 124.97 304.042 130.169 304.042 135.487C304.035 142.615 301.2 149.45 296.159 154.491C291.119 159.531 284.283 162.366 277.155 162.375ZM277.155 111.352C272.381 111.352 267.715 112.768 263.746 115.42C259.776 118.072 256.683 121.842 254.856 126.252C253.029 130.662 252.551 135.516 253.482 140.198C254.414 144.88 256.712 149.181 260.088 152.556C263.463 155.932 267.764 158.231 272.446 159.162C277.128 160.094 281.981 159.616 286.392 157.789C290.802 155.962 294.571 152.868 297.223 148.899C299.875 144.93 301.291 140.263 301.291 135.489C301.284 129.09 298.74 122.954 294.215 118.429C289.688 113.904 283.554 111.359 277.155 111.352Z" fill="#426572"/>
<path d="M290.041 125.055C289.491 124.747 288.842 124.665 288.233 124.825C287.623 124.984 287.099 125.374 286.77 125.912L282.353 133.132L275.296 144.658L275.099 144.981L266.95 138.462L265.465 137.275C264.491 136.495 263.021 136.25 262.084 137.275C261.286 138.143 261.041 139.821 262.084 140.656L272.561 149.036L274.047 150.223C274.663 150.718 275.25 150.989 276.055 150.881C276.414 150.837 276.759 150.711 277.062 150.512C277.364 150.313 277.618 150.047 277.801 149.735L282.218 142.515L289.278 130.992L290.908 128.328C291.552 127.26 291.167 125.655 290.041 125.055Z" fill="white"/>
</g>
</g>
<defs>
<linearGradient id="paint0_linear_326_96" x1="58.3025" y1="171.085" x2="345.573" y2="171.085" gradientUnits="userSpaceOnUse">
<stop stop-color="#C5E9FA"/>
<stop offset="1" stop-color="#C4F4EA"/>
</linearGradient>
<clipPath id="clip0_326_96">
<rect width="295" height="171" fill="white" transform="translate(58 86)"/>
</clipPath>
</defs>
</svg>
