<svg width="404" height="404" viewBox="0 0 404 404" fill="none" xmlns="http://www.w3.org/2000/svg">
<path d="M196.78 9.21231C199.078 5.15633 204.922 5.15633 207.22 9.21231L252.535 89.1815C253.769 91.3593 256.225 92.5421 258.697 92.1491L349.473 77.7176C354.077 76.9856 357.72 81.5544 355.982 85.8801L321.713 171.169C320.78 173.491 321.386 176.149 323.235 177.837L391.116 239.81C394.559 242.953 393.258 248.65 388.792 249.989L300.745 276.372C298.347 277.091 296.647 279.222 296.48 281.72L290.351 373.431C290.04 378.082 284.775 380.618 280.944 377.961L205.42 325.572C203.363 324.146 200.637 324.146 198.58 325.572L123.056 377.961C119.225 380.618 113.96 378.082 113.649 373.431L107.52 281.72C107.353 279.222 105.653 277.091 103.255 276.372L15.2075 249.989C10.7418 248.65 9.44144 242.953 12.8843 239.81L80.7651 177.837C82.6136 176.149 83.2202 173.491 82.287 171.169L48.0178 85.8801C46.2797 81.5544 49.9232 76.9856 54.5272 77.7176L145.303 92.1491C147.775 92.5421 150.231 91.3593 151.465 89.1815L196.78 9.21231Z" fill="#32385B"/>
<mask id="mask0_326_96" style="mask-type:luminance" maskUnits="userSpaceOnUse" x="72" y="102" width="268" height="155">
<path d="M339.331 102H72V257H339.331V102Z" fill="white"/>
</mask>
<g mask="url(#mask0_326_96)">
<path d="M325.225 195.432C315.777 219.895 298.014 241.327 273.342 250.746C270.133 251.97 266.856 253.007 263.528 253.854C245.926 258.342 226.669 256.781 210.442 248.603C203.555 245.13 197.276 240.54 190.364 237.116C183.452 233.692 175.559 231.451 168.036 233.141C161.559 234.596 156.094 238.766 150.592 242.481C137.621 251.239 122.024 258.17 106.665 255.162C99.5969 253.779 92.6374 249.95 89.3551 243.55C82.1004 229.399 95.7825 212.576 93.0116 196.927C91.2384 186.911 83.1398 179.411 78.1051 170.572C69.4889 155.453 70.5074 135.37 80.61 121.203C90.7125 107.036 109.363 99.5216 126.462 102.735C147.314 106.656 163.079 124.303 183.355 130.547C196.035 134.449 209.802 133.285 221.913 128.146C241.479 119.842 268.361 107.105 290.381 109.18C302.091 110.283 313.575 115.48 321.304 124.355C331.074 135.557 334.003 151.462 332.373 166.234C331.255 176.233 328.852 186.047 325.225 195.432Z" fill="url(#paint0_linear_326_96)"/>
<path d="M339.322 154.522C339.322 152.236 338.414 150.044 336.799 148.427C335.182 146.811 332.991 145.903 330.704 145.903C330.513 145.903 330.324 145.903 330.136 145.922C330.149 145.735 330.155 145.545 330.155 145.354C330.155 144.129 329.893 142.919 329.388 141.803C328.883 140.687 328.147 139.691 327.226 138.882C326.305 138.074 325.224 137.47 324.052 137.113C322.882 136.755 321.647 136.651 320.433 136.808C319.217 136.966 318.051 137.38 317.007 138.023C315.966 138.667 315.072 139.526 314.388 140.541C313.704 141.558 313.245 142.708 313.039 143.915C312.835 145.123 312.889 146.361 313.201 147.545C312.16 146.79 310.962 146.277 309.696 146.045C308.431 145.813 307.129 145.867 305.888 146.204C304.645 146.54 303.496 147.15 302.519 147.99C301.544 148.829 300.771 149.876 300.251 151.054C299.733 152.232 299.486 153.511 299.527 154.797C299.569 156.083 299.897 157.344 300.49 158.486C301.08 159.629 301.92 160.625 302.947 161.4C303.974 162.175 305.161 162.711 306.423 162.968C306.938 164.333 307.79 165.545 308.902 166.491C310.012 167.436 311.347 168.084 312.775 168.374C314.205 168.664 315.687 168.585 317.078 168.147C318.469 167.708 319.726 166.923 320.732 165.866C321.761 166.642 322.95 167.178 324.214 167.434C325.478 167.69 326.781 167.659 328.031 167.344C329.282 167.029 330.444 166.437 331.436 165.613C332.427 164.789 333.219 163.753 333.758 162.581C335.394 161.961 336.801 160.858 337.797 159.418C338.79 157.979 339.322 156.271 339.322 154.522Z" fill="white"/>
<path d="M111.797 133.805C111.798 132.673 111.576 131.551 111.144 130.505C110.711 129.458 110.077 128.507 109.276 127.706C108.476 126.905 107.526 126.269 106.48 125.835C105.434 125.402 104.313 125.178 103.181 125.178C102.99 125.178 102.8 125.178 102.613 125.197C102.626 125.01 102.632 124.82 102.632 124.629C102.632 123.404 102.37 122.193 101.865 121.077C101.36 119.961 100.623 118.966 99.7033 118.157C98.7832 117.349 97.7013 116.745 96.5297 116.388C95.3581 116.03 94.1238 115.926 92.909 116.083C91.6943 116.24 90.5269 116.654 89.4847 117.298C88.4426 117.942 87.5496 118.8 86.8654 119.816C86.1811 120.832 85.7213 121.983 85.5165 123.19C85.3118 124.398 85.3668 125.635 85.678 126.82C84.6364 126.065 83.4389 125.552 82.1733 125.32C80.9077 125.088 79.6062 125.142 78.3643 125.478C77.1225 125.815 75.9717 126.425 74.9964 127.265C74.0212 128.104 73.2463 129.151 72.7285 130.329C72.2108 131.507 71.9633 132.786 72.0044 134.072C72.0454 135.358 72.3739 136.619 72.9657 137.761C73.5575 138.904 74.3976 139.899 75.4244 140.675C76.4511 141.45 77.6385 141.986 78.8993 142.243C79.4146 143.607 80.2675 144.818 81.3783 145.762C82.489 146.707 83.8213 147.355 85.2504 147.644C86.6795 147.934 88.1587 147.856 89.5495 147.418C90.9404 146.98 92.1974 146.196 93.2029 145.14C94.2317 145.917 95.4215 146.453 96.6848 146.709C97.948 146.965 99.2526 146.934 100.502 146.618C101.752 146.303 102.915 145.712 103.906 144.888C104.897 144.063 105.691 143.028 106.228 141.856C107.863 141.237 109.272 140.136 110.266 138.698C111.261 137.26 111.795 135.553 111.797 133.805Z" fill="white"/>
<path d="M270.347 256.439H146.352V253.736H270.347C270.705 253.736 271.049 253.879 271.302 254.132C271.556 254.385 271.698 254.729 271.698 255.088C271.698 255.446 271.556 255.79 271.302 256.043C271.049 256.296 270.705 256.439 270.347 256.439Z" fill="#426572"/>
<path d="M140.805 256.439H133.224C132.866 256.439 132.522 256.296 132.269 256.043C132.015 255.79 131.873 255.446 131.873 255.088C131.873 254.729 132.015 254.385 132.269 254.132C132.522 253.879 132.866 253.736 133.224 253.736H140.805C141.164 253.736 141.507 253.879 141.761 254.132C142.014 254.385 142.156 254.729 142.156 255.088C142.156 255.446 142.014 255.79 141.761 256.043C141.507 256.296 141.164 256.439 140.805 256.439Z" fill="#426572"/>
<path d="M128.304 256.439H125.889C125.53 256.439 125.187 256.296 124.933 256.043C124.68 255.79 124.538 255.446 124.538 255.088C124.538 254.729 124.68 254.385 124.933 254.132C125.187 253.879 125.53 253.736 125.889 253.736H128.304C128.663 253.736 129.006 253.879 129.26 254.132C129.513 254.385 129.655 254.729 129.655 255.088C129.655 255.446 129.513 255.79 129.26 256.043C129.006 256.296 128.663 256.439 128.304 256.439Z" fill="#426572"/>
<path d="M131.056 150.968H269.877C272.382 150.968 274.785 151.962 276.557 153.734C278.33 155.505 279.326 157.908 279.327 160.413V250.271H121.606V160.413C121.607 157.908 122.604 155.505 124.376 153.734C126.148 151.962 128.551 150.968 131.056 150.968Z" fill="#EBF0F9"/>
<path d="M273.845 157.858H127.713V241.342H273.845V157.858Z" fill="#637F91"/>
<path d="M126.618 241.187H274.467C274.467 241.849 274.204 242.485 273.737 242.955C273.269 243.425 272.635 243.69 271.972 243.694H129.123C128.458 243.694 127.821 243.429 127.35 242.959C126.88 242.489 126.616 241.851 126.616 241.187H126.618Z" fill="white"/>
<g opacity="0.5">
<path opacity="0.5" d="M199.425 157.546L177.578 241.812H154.504L176.354 157.546H199.425Z" fill="#A7BCD5"/>
</g>
<path d="M101.715 247.296H303.448V247.959C303.448 250.11 302.594 252.172 301.074 253.692C299.553 255.212 297.491 256.067 295.341 256.067H109.822C107.672 256.067 105.61 255.212 104.09 253.692C102.569 252.172 101.715 250.11 101.715 247.959V247.296Z" fill="#EBF0F9"/>
<path d="M294.399 257H108.883C106.402 256.997 104.025 256.01 102.271 254.257C100.517 252.503 99.531 250.125 99.5283 247.645V245.735H303.756V247.645C303.754 250.125 302.766 252.504 301.012 254.257C299.257 256.011 296.879 256.997 294.399 257ZM102.046 248.229C102.192 249.941 102.975 251.536 104.241 252.698C105.507 253.86 107.162 254.505 108.88 254.505H294.399C296.118 254.505 297.773 253.86 299.039 252.698C300.305 251.536 301.089 249.941 301.234 248.229H102.046Z" fill="#426572"/>
<path d="M251.508 131.059V240.872H151.894V131.059C151.897 130.564 152.096 130.09 152.446 129.74C152.796 129.39 153.269 129.192 153.764 129.188H249.628C249.741 129.188 249.854 129.199 249.965 129.219C250.396 129.299 250.786 129.526 251.067 129.862C251.349 130.197 251.504 130.621 251.508 131.059Z" fill="white"/>
<path d="M153.461 138.264H251.822V131.658L249.94 129.18H163.798H155.34L152.208 131.658V138.264H153.461Z" fill="#E2F2FF"/>
<path d="M184.689 150.028H164.208V173.366H184.689V150.028Z" fill="#E8837E"/>
<path d="M235.188 150.028H186.623V173.366H235.188V150.028Z" fill="#E8837E"/>
<path d="M235.187 175.95H212.257V199.289H235.187V175.95Z" fill="#DDE4ED"/>
<path d="M210.324 175.95H164.465V199.289H210.324V175.95Z" fill="#DDE4ED"/>
<path d="M235.316 201.872H164.465V225.211H235.316V201.872Z" fill="#DDE4ED"/>
<path d="M235.942 228.348H217.774V230.842H235.942V228.348Z" fill="#DDE4ED"/>
<path d="M136.694 234.925H106.956C106.466 234.929 105.983 234.809 105.553 234.576C104.929 234.235 104.53 233.676 104.53 233.046L104.546 192.165C104.547 191.897 104.619 191.635 104.754 191.404C105.133 190.747 105.987 190.286 106.972 190.286H136.71C137.75 190.286 138.625 190.789 138.974 191.491C139.08 191.699 139.135 191.929 139.136 192.163L139.122 233.046C139.122 233.99 138.209 234.778 137.03 234.907C136.919 234.919 136.806 234.926 136.694 234.925Z" fill="white"/>
<path d="M133.667 207.976H113.5V210.47H133.667V207.976Z" fill="#426572"/>
<path d="M133.667 202.771H113.5V205.265H133.667V202.771Z" fill="#426572"/>
<path d="M133.667 213.873H113.5V216.368H133.667V213.873Z" fill="#426572"/>
<path d="M271.299 168.915C284.077 168.915 294.435 158.556 294.435 145.778C294.435 133 284.077 122.642 271.299 122.642C258.521 122.642 248.163 133 248.163 145.778C248.163 158.556 258.521 168.915 271.299 168.915Z" fill="#A8EF9E"/>
<path d="M270.748 171.263C265.925 171.263 261.211 169.833 257.201 167.153C253.192 164.474 250.066 160.666 248.221 156.21C246.375 151.755 245.892 146.852 246.833 142.122C247.774 137.392 250.096 133.047 253.506 129.637C256.916 126.226 261.261 123.904 265.991 122.963C270.721 122.022 275.624 122.505 280.079 124.351C284.534 126.196 288.342 129.322 291.022 133.332C293.701 137.341 295.131 142.056 295.131 146.879C295.125 153.344 292.554 159.542 287.983 164.113C283.412 168.684 277.213 171.256 270.748 171.263ZM270.748 124.991C266.419 124.991 262.187 126.275 258.587 128.68C254.988 131.086 252.182 134.504 250.525 138.504C248.869 142.504 248.435 146.905 249.28 151.151C250.124 155.397 252.209 159.298 255.27 162.359C258.331 165.42 262.232 167.505 266.478 168.35C270.724 169.194 275.125 168.761 279.125 167.104C283.125 165.447 286.542 162.642 288.947 159.042C291.352 155.442 292.637 151.21 292.637 146.881C292.631 141.077 290.323 135.513 286.22 131.409C282.114 127.305 276.551 124.997 270.748 124.991Z" fill="#426572"/>
<path d="M282.434 137.418C281.935 137.139 281.347 137.064 280.794 137.209C280.241 137.354 279.766 137.708 279.468 138.195L275.462 144.744L269.062 155.196L268.883 155.489L261.493 149.577L260.146 148.5C259.263 147.793 257.93 147.571 257.08 148.5C256.356 149.288 256.134 150.809 257.08 151.566L266.582 159.166L267.929 160.243C268.488 160.692 269.02 160.937 269.75 160.84C270.076 160.8 270.388 160.685 270.663 160.505C270.937 160.324 271.167 160.083 271.334 159.8L275.339 153.252L281.742 142.802L283.22 140.387C283.804 139.418 283.455 137.963 282.434 137.418Z" fill="white"/>
</g>
<defs>
<linearGradient id="paint0_linear_326_96" x1="72.2743" y1="179.162" x2="332.795" y2="179.162" gradientUnits="userSpaceOnUse">
<stop stop-color="#C5E9FA"/>
<stop offset="1" stop-color="#C4F4EA"/>
</linearGradient>
</defs>
</svg>
