<svg width="64" height="62" viewBox="0 0 64 62" fill="none" xmlns="http://www.w3.org/2000/svg">
<path d="M31.0303 62C48.168 62 62.0606 48.1209 62.0606 31C62.0606 13.8792 48.168 0 31.0303 0C13.8927 0 0 13.8792 0 31C0 48.1209 13.8927 62 31.0303 62Z" fill="url(#paint0_linear_210_79)"/>
<path fill-rule="evenodd" clip-rule="evenodd" d="M43.7073 34.9952L39.2335 36.3046L36.0932 26.9521C36.0932 26.9521 47.6356 21.7294 51.2061 22.4481C54.1203 23.0349 54.9628 28.774 55.1742 30.8642C55.6439 34.7545 55.2427 38.7228 53.9423 42.4704C52.0105 48.0369 48.2536 52.7894 43.2799 55.9577C38.3059 59.1261 32.4067 60.5249 26.5374 59.9277C20.6682 59.3303 15.1728 56.7718 10.9412 52.6668C6.70976 48.5614 3.99007 43.15 3.22261 37.3087C2.45514 31.4674 3.68498 25.5384 6.71286 20.4821C9.74075 15.4259 14.3893 11.5384 19.9056 9.44946C25.422 7.36052 31.4829 7.19242 37.1069 8.9724L33.5908 20.0508C30.4655 19.0617 27.0974 19.1551 24.0321 20.3159C20.9668 21.4768 18.3836 23.6369 16.7012 26.4466C15.0186 29.2563 14.3352 32.5509 14.7617 35.7968C15.1881 39.0427 16.6994 42.0499 19.0508 44.3311C21.4023 46.6123 24.4559 48.034 27.7173 48.366C30.9789 48.6979 34.2569 47.9206 37.0208 46.1598C39.7847 44.3993 41.8726 41.7584 42.9459 38.6651C43.36 37.4718 43.6138 36.2382 43.7073 34.9952Z" fill="white"/>
<defs>
<linearGradient id="paint0_linear_210_79" x1="12.2311" y1="6.70747" x2="56.502" y2="49.1242" gradientUnits="userSpaceOnUse">
<stop stop-color="#ED4A27"/>
<stop offset="1" stop-color="#EF9A3E"/>
</linearGradient>
</defs>
</svg>
