<svg width="320" height="324" viewBox="0 0 320 324" fill="none" xmlns="http://www.w3.org/2000/svg">
<path d="M154.78 13.0624C157.078 9.00644 162.922 9.00643 165.22 13.0624L199.601 73.7361C200.835 75.9138 203.291 77.0966 205.763 76.7036L274.636 65.7542C279.24 65.0223 282.883 69.591 281.145 73.9168L255.145 138.626C254.212 140.949 254.818 143.607 256.667 145.294L308.169 192.314C311.612 195.457 310.311 201.155 305.846 202.493L239.043 222.51C236.645 223.229 234.945 225.36 234.778 227.858L230.128 297.44C229.817 302.092 224.552 304.627 220.721 301.97L163.42 262.222C161.363 260.796 158.637 260.796 156.58 262.222L99.2789 301.97C95.4483 304.627 90.1834 302.092 89.8725 297.44L85.2217 227.858C85.0548 225.36 83.355 223.229 80.9574 222.51L14.1545 202.493C9.68877 201.155 8.38841 195.457 11.8313 192.314L63.3333 145.294C65.1818 143.607 65.7884 140.949 64.8552 138.626L38.8547 73.9168C37.1166 69.591 40.7601 65.0223 45.3642 65.7542L114.237 76.7036C116.709 77.0966 119.165 75.9138 120.399 73.7361L154.78 13.0624Z" fill="#C4BFFB"/>
<g clip-path="url(#clip0_336_1122)">
<mask id="mask0_336_1122" style="mask-type:luminance" maskUnits="userSpaceOnUse" x="32" y="1" width="219" height="271">
<path d="M158.274 1.23559L32.5991 55.0635L125.107 271.047L250.782 217.219L158.274 1.23559Z" fill="white"/>
</mask>
<g mask="url(#mask0_336_1122)">
<path d="M144.037 212.531L146.863 219.13C147.355 220.288 148.176 221.276 149.223 221.967C150.27 222.659 151.496 223.024 152.744 223.015C153.479 223.013 154.325 223.002 155.223 222.93L156.025 223.719L158.215 228.832C158.594 229.723 159.227 230.482 160.033 231.013C160.839 231.544 161.782 231.823 162.742 231.814L164.374 231.74L164.911 232.993C166.874 237.062 170.315 240.223 174.519 241.818C178.723 243.414 183.365 243.321 187.48 241.558C191.595 239.796 194.866 236.5 196.611 232.356C198.357 228.212 198.444 223.541 196.853 219.312L196.768 217.669L197.561 216.901C198.23 216.212 198.679 215.336 198.85 214.387C199.023 213.437 198.91 212.455 198.526 211.567L196.35 206.486L196.506 206.849L196.039 205.76L198.301 203.542C199.169 202.644 199.75 201.505 199.972 200.271C200.194 199.035 200.046 197.759 199.547 196.604L196.72 190.005L144.037 212.531Z" fill="#D9E1E4"/>
<path d="M183.643 232.463C178.468 234.685 172.95 236.006 167.324 236.368C166.867 236.372 166.424 236.2 166.088 235.885C165.752 235.571 165.548 235.14 165.518 234.681C165.51 234.222 165.682 233.779 165.995 233.447C166.309 233.116 166.74 232.922 167.196 232.908C177.183 232.237 186.629 228.191 194.005 221.426C194.163 221.262 194.353 221.133 194.562 221.046C194.772 220.958 194.996 220.913 195.224 220.914C195.451 220.915 195.676 220.961 195.886 221.051C196.096 221.14 196.286 221.27 196.446 221.434C196.767 221.759 196.95 222.195 196.958 222.651C196.965 223.107 196.796 223.546 196.487 223.877C192.798 227.546 188.438 230.461 183.643 232.463Z" fill="#94B5BF"/>
<path d="M174.773 210.309C165.71 214.229 156.047 216.585 146.188 217.282C145.732 217.296 145.288 217.127 144.954 216.812C144.619 216.498 144.422 216.064 144.405 215.605C144.388 215.146 144.553 214.7 144.863 214.366C145.174 214.032 145.604 213.836 146.06 213.822C146.321 213.71 175.557 212.59 194.773 192.957C194.934 192.799 195.124 192.674 195.333 192.59C195.543 192.506 195.767 192.464 195.993 192.467C196.219 192.47 196.442 192.517 196.65 192.607C196.858 192.697 197.047 192.827 197.205 192.99C197.364 193.153 197.49 193.345 197.575 193.556C197.659 193.767 197.702 193.993 197.701 194.22C197.7 194.447 197.654 194.672 197.566 194.88C197.479 195.089 197.351 195.278 197.19 195.437C190.751 201.809 183.138 206.86 174.773 210.309Z" fill="#94B5BF"/>
<path d="M195.3 205.842L195.767 206.931L195.611 206.568L197.138 210.132L196.615 210.629C191.226 215.747 185.037 219.941 178.293 223.045C171.541 225.77 164.386 227.371 157.108 227.784L155.398 223.792L154.99 223.381C162.277 223.014 169.445 221.435 176.203 218.708L195.3 205.842Z" fill="#94B5BF"/>
<path d="M198.876 184.289L193.407 171.52C193.407 171.52 181.771 148.507 185.083 126.159C188.395 103.811 193.69 88.8912 182.935 63.7824C172.181 38.6733 135.796 12.9838 96.204 29.9417C56.612 46.8994 50.0699 90.9748 60.8244 116.084C71.5788 141.193 85.9801 147.716 104.526 160.663C115.388 168.161 123.79 178.748 128.648 191.057L137.128 210.854C137.36 211.423 137.75 211.914 138.252 212.267C138.753 212.621 139.344 212.821 139.954 212.846C150.917 213.031 161.782 210.901 171.845 206.59C181.909 202.28 190.948 195.885 198.378 187.822C198.801 187.353 199.076 186.765 199.165 186.136C199.253 185.507 199.153 184.864 198.876 184.289Z" fill="#FBE481"/>
<path opacity="0.5" d="M184.079 123.244C182.013 136.28 183.879 149.666 189.436 161.677L197.915 181.474C198.156 182.041 198.234 182.665 198.138 183.272C198.042 183.88 197.777 184.446 197.374 184.907C191.923 190.918 185.548 196.007 178.49 199.985C177.486 197.643 176.06 194.856 174.441 191.528L165.962 171.731C160.359 159.75 158.457 146.373 160.507 133.341C163.834 111.025 169.128 96.1055 158.36 70.9637C148.722 48.4613 119.705 28.32 84.9996 35.9999C88.5759 33.5731 94.0241 30.6909 98 29C139.5 15.5 171.177 35.7585 181.989 60.9995C192.8 86.2407 187.373 100.943 184.079 123.244Z" fill="#F8A547"/>
<path d="M175.818 204.347C175.635 204.426 175.438 204.467 175.238 204.467C175.039 204.468 174.841 204.428 174.657 204.351C174.472 204.273 174.305 204.16 174.164 204.017C174.023 203.873 173.912 203.704 173.837 203.517L152.244 153.101L145.247 156.098L166.601 205.953C166.693 206.31 166.656 206.687 166.495 207.017C166.335 207.347 166.062 207.607 165.726 207.751C165.391 207.895 165.014 207.912 164.665 207.801C164.315 207.69 164.016 207.456 163.822 207.143L142.468 157.288L135.668 160.201C133.153 161.278 130.31 161.303 127.763 160.27C125.217 159.237 123.175 157.23 122.088 154.693L121.325 152.911C120.238 150.373 120.195 147.512 121.204 144.956C122.214 142.4 124.194 140.359 126.708 139.282C129.223 138.205 132.066 138.18 134.613 139.213C137.159 140.246 139.201 142.251 140.288 144.79L143.948 153.335L150.944 150.339L147.284 141.793C146.379 139.287 146.457 136.534 147.503 134.098C148.549 131.661 150.484 129.725 152.91 128.686C155.337 127.646 158.073 127.582 160.558 128.507C163.043 129.43 165.09 131.273 166.279 133.657L167.042 135.439C168.108 137.949 168.158 140.772 167.183 143.306C166.208 145.84 164.284 147.883 161.823 148.998L155.284 151.799L176.878 202.214C176.972 202.424 177.018 202.651 177.014 202.88C177.01 203.109 176.955 203.334 176.854 203.538C176.752 203.742 176.606 203.921 176.428 204.061C176.248 204.201 176.04 204.299 175.818 204.347ZM153.821 149.106L160.36 146.306C161.251 145.934 162.059 145.389 162.738 144.701C163.417 144.013 163.952 143.196 164.315 142.297C164.678 141.398 164.86 140.434 164.851 139.462C164.842 138.489 164.643 137.526 164.263 136.629L163.5 134.847C162.647 133.181 161.198 131.899 159.449 131.26C157.699 130.621 155.778 130.671 154.073 131.401C152.368 132.132 151.006 133.487 150.262 135.195C149.517 136.903 149.447 138.835 150.063 140.603L153.821 149.106ZM127.909 142.086C126.206 142.865 124.871 144.276 124.179 146.026C123.488 147.776 123.494 149.731 124.197 151.486L124.96 153.267C125.716 155.033 127.126 156.437 128.889 157.177C130.652 157.918 132.628 157.937 134.396 157.231L140.935 154.43L137.345 146.05C136.589 144.284 135.179 142.88 133.416 142.14C131.653 141.399 129.677 141.38 127.909 142.086Z" fill="#3E3126"/>
<path d="M167.237 223.246L166.975 223.358C162.135 224.438 157.194 225.01 152.23 225.066C150.7 225.087 149.196 224.651 147.907 223.813C146.618 222.975 145.603 221.772 144.99 220.357L142.164 213.758C142.046 213.569 141.971 213.358 141.942 213.137C141.914 212.917 141.933 212.693 141.998 212.481C142.063 212.269 142.174 212.075 142.322 211.91C142.469 211.746 142.65 211.616 142.853 211.529C143.056 211.442 143.275 211.4 143.496 211.407C143.717 211.414 143.933 211.468 144.132 211.567C144.33 211.666 144.506 211.806 144.646 211.979C144.786 212.152 144.887 212.353 144.942 212.568L147.769 219.167C148.14 220.047 148.759 220.799 149.55 221.328C150.342 221.858 151.269 222.141 152.217 222.144C156.963 222.003 161.683 221.407 166.311 220.362C166.503 220.318 166.702 220.312 166.898 220.346C167.092 220.378 167.279 220.45 167.447 220.556C167.614 220.662 167.76 220.8 167.875 220.963C167.989 221.126 168.071 221.31 168.115 221.503C168.193 221.853 168.148 222.217 167.988 222.536C167.827 222.853 167.562 223.105 167.237 223.246Z" fill="#3E3126"/>
<path d="M176.895 220.325C176.541 220.416 176.166 220.375 175.837 220.212C175.508 220.048 175.248 219.772 175.102 219.433C174.957 219.094 174.937 218.715 175.046 218.364C175.154 218.013 175.384 217.714 175.694 217.52C183.501 214.047 190.58 209.121 196.559 203C197.219 202.315 197.662 201.448 197.831 200.507C197.999 199.565 197.886 198.594 197.506 197.713L194.68 191.114C194.562 190.925 194.486 190.713 194.457 190.493C194.429 190.272 194.448 190.048 194.514 189.837C194.579 189.625 194.689 189.43 194.837 189.266C194.985 189.101 195.166 188.971 195.369 188.885C195.572 188.798 195.791 188.756 196.011 188.763C196.232 188.769 196.449 188.824 196.648 188.923C196.846 189.021 197.021 189.162 197.161 189.335C197.301 189.507 197.402 189.709 197.458 189.924L200.285 196.523C200.885 197.948 201.051 199.517 200.762 201.031C200.474 202.545 199.744 203.936 198.665 205.026C192.447 211.475 185.059 216.667 176.895 220.325Z" fill="#3E3126"/>
<path d="M182.313 229.717C175.946 232.335 169.14 233.727 162.248 233.82C160.985 233.827 159.747 233.457 158.689 232.756C157.631 232.055 156.802 231.056 156.306 229.884L154.13 224.802C154.012 224.613 153.937 224.401 153.908 224.181C153.88 223.96 153.899 223.736 153.964 223.524C154.03 223.313 154.14 223.118 154.287 222.953C154.435 222.789 154.616 222.659 154.819 222.572C155.022 222.485 155.241 222.444 155.462 222.45C155.683 222.458 155.9 222.512 156.098 222.61C156.297 222.709 156.472 222.85 156.612 223.023C156.752 223.196 156.853 223.396 156.909 223.612L159.085 228.693C159.339 229.308 159.769 229.834 160.32 230.203C160.871 230.573 161.518 230.768 162.178 230.765C168.682 230.692 175.105 229.385 181.111 226.912C181.298 226.796 181.509 226.721 181.728 226.693C181.946 226.666 182.169 226.687 182.38 226.754C182.591 226.821 182.785 226.934 182.949 227.083C183.113 227.233 183.244 227.416 183.332 227.621C183.419 227.826 183.462 228.047 183.457 228.269C183.452 228.491 183.399 228.709 183.302 228.908C183.206 229.107 183.067 229.283 182.896 229.422C182.725 229.561 182.526 229.662 182.313 229.717Z" fill="#3E3126"/>
<path d="M181.396 230.11C181.209 230.226 180.999 230.301 180.78 230.328C180.561 230.356 180.338 230.335 180.127 230.268C179.917 230.2 179.722 230.088 179.558 229.938C179.394 229.789 179.264 229.606 179.176 229.401C179.088 229.196 179.045 228.975 179.05 228.753C179.055 228.531 179.108 228.313 179.205 228.114C179.302 227.915 179.44 227.739 179.611 227.6C179.782 227.46 179.981 227.36 180.195 227.305C186.119 224.669 191.486 220.926 196.014 216.273C196.476 215.799 196.784 215.195 196.897 214.541C197.01 213.886 196.923 213.211 196.649 212.604L194.473 207.523C194.355 207.334 194.279 207.122 194.251 206.902C194.223 206.681 194.241 206.457 194.307 206.245C194.372 206.033 194.483 205.839 194.63 205.674C194.778 205.51 194.959 205.38 195.162 205.293C195.364 205.206 195.584 205.165 195.804 205.171C196.025 205.178 196.242 205.232 196.441 205.331C196.639 205.43 196.815 205.571 196.954 205.744C197.094 205.916 197.195 206.117 197.251 206.332L199.428 211.414C199.93 212.577 200.083 213.862 199.867 215.106C199.65 216.352 199.074 217.503 198.21 218.417C193.387 223.342 187.684 227.307 181.396 230.11Z" fill="#3E3126"/>
<path d="M187.947 244.139C183.342 246.112 178.136 246.156 173.473 244.266C168.81 242.374 165.072 238.701 163.082 234.055C162.965 233.865 162.889 233.654 162.861 233.433C162.832 233.213 162.851 232.989 162.917 232.777C162.982 232.565 163.092 232.371 163.24 232.206C163.388 232.042 163.569 231.912 163.772 231.825C163.974 231.738 164.194 231.697 164.414 231.703C164.635 231.71 164.852 231.764 165.051 231.863C165.249 231.962 165.424 232.102 165.564 232.275C165.704 232.448 165.805 232.649 165.861 232.865C167.533 236.767 170.672 239.852 174.589 241.441C178.505 243.029 182.878 242.991 186.745 241.334C190.612 239.678 193.658 236.539 195.21 232.608C196.763 228.678 196.695 224.276 195.024 220.374C194.906 220.184 194.831 219.973 194.802 219.752C194.774 219.532 194.793 219.308 194.858 219.096C194.924 218.884 195.034 218.69 195.182 218.525C195.329 218.361 195.51 218.231 195.713 218.144C195.916 218.057 196.135 218.016 196.356 218.022C196.577 218.029 196.794 218.083 196.992 218.182C197.191 218.281 197.366 218.421 197.506 218.594C197.646 218.767 197.747 218.968 197.803 219.184C198.788 221.484 199.315 223.954 199.353 226.454C199.391 228.953 198.94 231.433 198.024 233.75C197.109 236.067 195.748 238.177 194.019 239.96C192.29 241.743 190.226 243.163 187.947 244.139Z" fill="#3E3126"/>
<path d="M86.325 92.7746C87.556 86.7121 85.2416 81.095 81.1556 80.2286C77.0695 79.3623 72.7592 83.5747 71.5282 89.6373C70.2972 95.6999 72.6116 101.317 76.6976 102.183C80.7836 103.05 85.094 98.8372 86.325 92.7746Z" fill="#FFEFAE"/>
</g>
</g>
<defs>
<clipPath id="clip0_336_1122">
<rect width="136.906" height="235.478" fill="white" transform="translate(32.2935 54.7935) rotate(-23.186)"/>
</clipPath>
</defs>
</svg>
