<svg width="171" height="29" viewBox="0 0 171 29" fill="none" xmlns="http://www.w3.org/2000/svg">
<path fill-rule="evenodd" clip-rule="evenodd" d="M24.0918 28.8993C28.4198 26.1083 31.2867 21.2355 31.2867 15.6911C31.2867 7.02514 24.2829 0 15.6433 0C7.00377 0 0 7.02514 0 15.6911C0 21.3028 2.93691 26.2265 7.35309 29C7.27805 28.622 7.26837 28.2201 7.33587 27.8038C7.99602 23.7331 9.90661 17.9963 15.4324 17.9963C20.8648 17.9963 23.123 23.5408 24.0481 27.596C24.151 28.0474 24.1606 28.4862 24.0918 28.8993ZM20.8127 11.5979C20.8127 14.6121 18.3766 17.0557 15.3716 17.0557C12.3665 17.0557 9.9304 14.6121 9.9304 11.5979C9.9304 8.58364 12.3665 6.14012 15.3716 6.14012C18.3766 6.14012 20.8127 8.58364 20.8127 11.5979Z" fill="white"/>
<path d="M52.5138 16.3182H56.4356V25.3153C55.2878 26.2397 53.9486 26.9492 52.4182 27.4436C50.8877 27.9381 49.3147 28.1853 47.6993 28.1853C45.4248 28.1853 43.3736 27.6909 41.5455 26.7019C39.7175 25.6915 38.2827 24.3049 37.2411 22.542C36.1996 20.7791 35.6788 18.7905 35.6788 16.5762C35.6788 14.3618 36.1996 12.3732 37.2411 10.6103C38.2827 8.84746 39.7175 7.47155 41.5455 6.48262C43.3949 5.4722 45.4673 4.96698 47.763 4.96698C49.6336 4.96698 51.3341 5.27871 52.8646 5.90217C54.395 6.52562 55.681 7.43931 56.7226 8.64322L54.1081 11.223C52.4076 9.50316 50.3563 8.64322 47.9543 8.64322C46.3814 8.64322 44.9785 8.97645 43.7456 9.6429C42.534 10.3094 41.5774 11.2445 40.876 12.4485C40.1958 13.6524 39.8557 15.0283 39.8557 16.5762C39.8557 18.0811 40.1958 19.4355 40.876 20.6394C41.5774 21.8433 42.534 22.7892 43.7456 23.4772C44.9785 24.1651 46.3707 24.5091 47.9225 24.5091C49.6655 24.5091 51.1959 24.1221 52.5138 23.3482V16.3182Z" fill="white"/>
<path d="M61.52 10.6426H65.5055V27.8629H61.52V10.6426ZM63.5287 7.80478C62.806 7.80478 62.2002 7.57905 61.7113 7.12758C61.2224 6.65461 60.9779 6.07415 60.9779 5.3862C60.9779 4.69825 61.2224 4.12854 61.7113 3.67707C62.2002 3.20411 62.806 2.96762 63.5287 2.96762C64.2514 2.96762 64.8572 3.19336 65.3461 3.64483C65.835 4.0748 66.0795 4.62301 66.0795 5.28946C66.0795 5.99891 65.835 6.60087 65.3461 7.09533C64.8785 7.5683 64.2727 7.80478 63.5287 7.80478Z" fill="white"/>
<path d="M87.4122 3.93506V27.8629H83.5861V25.6378C82.9271 26.4547 82.1087 27.0674 81.1309 27.4759C80.1744 27.8844 79.1116 28.0886 77.9425 28.0886C76.3057 28.0886 74.8284 27.7231 73.5105 26.9922C72.2139 26.2612 71.1936 25.2293 70.4496 23.8964C69.7057 22.542 69.3337 20.9941 69.3337 19.2527C69.3337 17.5113 69.7057 15.9742 70.4496 14.6413C71.1936 13.3084 72.2139 12.2765 73.5105 11.5455C74.8284 10.8146 76.3057 10.4491 77.9425 10.4491C79.0691 10.4491 80.1 10.6426 81.0353 11.0296C81.9706 11.4165 82.7677 11.997 83.4266 12.7709V3.93506H87.4122ZM78.4208 24.6381C79.3773 24.6381 80.2382 24.4231 81.0034 23.9931C81.7686 23.5417 82.3744 22.9075 82.8208 22.0905C83.2672 21.2736 83.4904 20.3276 83.4904 19.2527C83.4904 18.1778 83.2672 17.2319 82.8208 16.4149C82.3744 15.598 81.7686 14.9745 81.0034 14.5446C80.2382 14.0931 79.3773 13.8674 78.4208 13.8674C77.4642 13.8674 76.6033 14.0931 75.8381 14.5446C75.0729 14.9745 74.4671 15.598 74.0207 16.4149C73.5743 17.2319 73.3511 18.1778 73.3511 19.2527C73.3511 20.3276 73.5743 21.2736 74.0207 22.0905C74.4671 22.9075 75.0729 23.5417 75.8381 23.9931C76.6033 24.4231 77.4642 24.6381 78.4208 24.6381Z" fill="white"/>
<path d="M108.632 19.3495C108.632 19.6289 108.611 20.0267 108.568 20.5426H95.2087C95.4425 21.811 96.0483 22.8215 97.0261 23.5739C98.0252 24.3049 99.258 24.6703 100.725 24.6703C102.595 24.6703 104.136 24.0469 105.348 22.8L107.484 25.283C106.719 26.2075 105.752 26.9062 104.583 27.3792C103.414 27.8521 102.096 28.0886 100.629 28.0886C98.7585 28.0886 97.1112 27.7124 95.687 26.9599C94.2628 26.2075 93.1575 25.1648 92.371 23.8319C91.6058 22.4775 91.2231 20.9511 91.2231 19.2527C91.2231 17.5758 91.5951 16.0709 92.3391 14.738C93.1043 13.3836 94.1565 12.3302 95.4957 11.5778C96.8348 10.8253 98.344 10.4491 100.023 10.4491C101.681 10.4491 103.159 10.8253 104.455 11.5778C105.773 12.3087 106.793 13.3514 107.516 14.7058C108.26 16.0387 108.632 17.5866 108.632 19.3495ZM100.023 13.6739C98.7479 13.6739 97.6638 14.0608 96.7711 14.8348C95.8996 15.5872 95.3681 16.5977 95.1768 17.8661H104.838C104.668 16.6192 104.147 15.6087 103.275 14.8348C102.404 14.0608 101.32 13.6739 100.023 13.6739Z" fill="white"/>
<path d="M120.113 28.0886C118.391 28.0886 116.839 27.7124 115.458 26.9599C114.076 26.2075 112.992 25.1648 112.205 23.8319C111.44 22.4775 111.058 20.9511 111.058 19.2527C111.058 17.5543 111.44 16.0387 112.205 14.7058C112.992 13.3729 114.076 12.3302 115.458 11.5778C116.839 10.8253 118.391 10.4491 120.113 10.4491C121.856 10.4491 123.418 10.8253 124.8 11.5778C126.181 12.3302 127.255 13.3729 128.02 14.7058C128.807 16.0387 129.2 17.5543 129.2 19.2527C129.2 20.9511 128.807 22.4775 128.02 23.8319C127.255 25.1648 126.181 26.2075 124.8 26.9599C123.418 27.7124 121.856 28.0886 120.113 28.0886ZM120.113 24.6381C121.579 24.6381 122.791 24.1436 123.748 23.1547C124.704 22.1658 125.182 20.8651 125.182 19.2527C125.182 17.6403 124.704 16.3397 123.748 15.3507C122.791 14.3618 121.579 13.8674 120.113 13.8674C118.646 13.8674 117.434 14.3618 116.478 15.3507C115.543 16.3397 115.075 17.6403 115.075 19.2527C115.075 20.8651 115.543 22.1658 116.478 23.1547C117.434 24.1436 118.646 24.6381 120.113 24.6381Z" fill="white"/>
<path d="M142.672 10.4491C144.819 10.4491 146.541 11.0833 147.837 12.3517C149.134 13.6201 149.782 15.5012 149.782 17.9951V27.8629H145.797V18.511C145.797 17.0061 145.446 15.8775 144.745 15.125C144.043 14.3511 143.044 13.9641 141.747 13.9641C140.281 13.9641 139.122 14.4156 138.272 15.3185C137.422 16.1999 136.997 17.4791 136.997 19.156V27.8629H133.011V10.6426H136.805V12.8677C137.464 12.0722 138.293 11.4703 139.292 11.0618C140.291 10.6533 141.418 10.4491 142.672 10.4491Z" fill="white"/>
<path d="M171 19.3495C171 19.6289 170.979 20.0267 170.936 20.5426H157.577C157.81 21.811 158.416 22.8215 159.394 23.5739C160.393 24.3049 161.626 24.6703 163.093 24.6703C164.963 24.6703 166.504 24.0469 167.716 22.8L169.852 25.283C169.087 26.2075 168.12 26.9062 166.951 27.3792C165.782 27.8521 164.464 28.0886 162.997 28.0886C161.126 28.0886 159.479 27.7124 158.055 26.9599C156.631 26.2075 155.525 25.1648 154.739 23.8319C153.974 22.4775 153.591 20.9511 153.591 19.2527C153.591 17.5758 153.963 16.0709 154.707 14.738C155.472 13.3836 156.524 12.3302 157.864 11.5778C159.203 10.8253 160.712 10.4491 162.391 10.4491C164.049 10.4491 165.526 10.8253 166.823 11.5778C168.141 12.3087 169.161 13.3514 169.884 14.7058C170.628 16.0387 171 17.5866 171 19.3495ZM162.391 13.6739C161.116 13.6739 160.032 14.0608 159.139 14.8348C158.267 15.5872 157.736 16.5977 157.545 17.8661H167.206C167.036 16.6192 166.515 15.6087 165.643 14.8348C164.772 14.0608 163.688 13.6739 162.391 13.6739Z" fill="white"/>
</svg>
