<svg width="278" height="286" viewBox="0 0 278 286" fill="none" xmlns="http://www.w3.org/2000/svg">
<mask id="mask0_336_586" style="mask-type:luminance" maskUnits="userSpaceOnUse" x="0" y="0" width="278" height="286">
<path d="M277.96 0H0V285.677H277.96V0Z" fill="white"/>
</mask>
<g mask="url(#mask0_336_586)">
<path d="M106.35 190.978H153.235C153.235 192.252 152.983 193.514 152.494 194.692C152.006 195.87 151.29 196.94 150.387 197.842C149.484 198.743 148.412 199.458 147.233 199.946C146.053 200.434 144.789 200.685 143.512 200.685H116.072C114.796 200.685 113.531 200.434 112.352 199.946C111.172 199.458 110.1 198.743 109.197 197.842C108.295 196.94 107.578 195.87 107.09 194.692C106.601 193.514 106.35 192.252 106.35 190.978Z" fill="#ECF2FA"/>
<path d="M153.433 191.793C153.33 193.446 152.805 195.045 151.908 196.438C151.01 197.831 149.771 198.972 148.307 199.752C147.729 200.029 147.124 200.245 146.502 200.398L146.535 200.31C146.744 199.715 146.81 199.079 146.726 198.454C146.642 197.828 146.412 197.232 146.054 196.713C145.695 196.193 145.219 195.766 144.663 195.465C144.108 195.165 143.489 194.999 142.857 194.983L107.475 193.973C107.244 193.259 107.098 192.519 107.041 191.771C107.301 191.807 107.562 191.826 107.824 191.826H120.187V192.688H122.78V191.826H129.399C129.329 191.976 129.252 192.127 129.182 192.277L139 192.27V191.837H152.723C152.961 191.838 153.198 191.823 153.433 191.793Z" fill="#8BBACC"/>
<path d="M113.48 192.274H112.616V200.039H113.48V192.274Z" fill="#274B5B"/>
<path opacity="0.2" d="M114.127 192.274H113.263V198.96H114.127V192.274Z" fill="#274B5B"/>
<path opacity="0.2" d="M119.529 192.274H118.665V198.96H119.529V192.274Z" fill="#274B5B"/>
<path opacity="0.2" d="M130.332 192.274H129.468V198.96H130.332V192.274Z" fill="#274B5B"/>
<path opacity="0.2" d="M135.734 192.274H134.87V198.96H135.734V192.274Z" fill="#274B5B"/>
<path opacity="0.2" d="M141.136 192.274H140.272V198.96H141.136V192.274Z" fill="#274B5B"/>
<path opacity="0.3" d="M139.408 192.274H138.544V198.96H139.408V192.274Z" fill="white"/>
<path opacity="0.3" d="M134.223 192.274H133.359V198.96H134.223V192.274Z" fill="white"/>
<path opacity="0.3" d="M128.821 192.274H127.957V198.96H128.821V192.274Z" fill="white"/>
<path opacity="0.3" d="M123.419 192.274H122.555V198.96H123.419V192.274Z" fill="white"/>
<path opacity="0.3" d="M118.017 192.274H117.153V198.96H118.017V192.274Z" fill="white"/>
<path opacity="0.3" d="M112.616 192.274H111.751V198.96H112.616V192.274Z" fill="white"/>
<path opacity="0.2" d="M124.931 192.274H124.066V198.96H124.931V192.274Z" fill="#274B5B"/>
<path d="M118.845 192.274H117.98V200.039H118.845V192.274Z" fill="#274B5B"/>
<path d="M124.214 192.274H123.35V200.039H124.214V192.274Z" fill="#274B5B"/>
<path d="M129.579 192.274H128.714V200.039H129.579V192.274Z" fill="#274B5B"/>
<path d="M140.309 192.274H139.445V200.039H140.309V192.274Z" fill="#274B5B"/>
<path d="M145.674 192.274H144.81V200.039H145.674V192.274Z" fill="#274B5B"/>
<path d="M134.94 192.274H134.076V200.039H134.94V192.274Z" fill="#274B5B"/>
<path opacity="0.6" d="M274.179 119.143H221.267C221.199 118.137 221.115 117.13 221.017 116.122H241.76C242.763 116.122 243.724 115.724 244.433 115.016C245.142 114.309 245.541 113.349 245.541 112.348C245.541 111.347 245.142 110.387 244.433 109.679C243.724 108.971 242.763 108.574 241.76 108.574H219.899C218.829 103.382 217.13 98.5213 214.519 94.4131C209.404 86.3654 201.421 82.3636 193.559 81.5266C185.697 80.6895 177.82 82.683 170.084 84.8308C159.787 87.7055 147.671 90.2938 139.908 80.7923C135.315 75.1604 133.484 65.9342 135.128 57.8939C135.563 55.9228 136.101 53.9758 136.738 52.0601H164.005C165.008 52.0601 165.969 51.6625 166.678 50.9547C167.387 50.2468 167.785 49.2868 167.785 48.2859C167.785 47.2851 167.387 46.3251 166.678 45.6172C165.969 44.9094 165.008 44.5118 164.005 44.5118H138.731C138.922 43.349 139.015 42.1727 139.011 40.9946C138.96 38.1581 138.286 35.3671 137.037 32.8189C135.788 30.2706 133.994 28.0271 131.781 26.2467C127.814 23.1297 123.169 22.0283 118.602 21.2426C108.401 19.4583 97.8808 18.9186 87.9448 22.3954C78.5421 12.2661 65.3003 8.8407 53.7464 13.6318C50.4479 14.9462 47.5098 17.0251 45.1748 19.697H67.7163C68.6915 19.697 69.627 20.0838 70.3165 20.7723C71.0063 21.4608 71.3935 22.3946 71.3935 23.3683C71.3935 24.342 71.0063 25.2759 70.3165 25.9644C69.627 26.6529 68.6915 27.0397 67.7163 27.0397H41.2401C39.5412 32.5468 39.5559 38.979 39.6405 45.0551C39.6405 45.738 39.6589 46.4209 39.6699 47.1038H50.3413C51.3441 47.1038 52.3053 47.5014 53.0143 48.2092C53.7233 48.917 54.1215 49.8771 54.1215 50.8779C54.1215 51.8787 53.7233 52.8388 53.0143 53.5466C52.3053 54.2545 51.3441 54.6521 50.3413 54.6521H39.806L39.8648 58.7494H64.6017C65.6044 58.7494 66.5657 59.147 67.2747 59.8548C67.9836 60.5626 68.3819 61.5227 68.3819 62.5235C68.3819 63.5243 67.9836 64.4844 67.2747 65.1922C66.5657 65.9001 65.6044 66.2977 64.6017 66.2977H39.9641C39.9641 67.1605 39.9862 68.0379 40.0009 68.9117C40.0891 75.0429 40.1553 81.343 38.5594 87.085C33.6356 104.77 16.1797 109.04 6.74391 123.028H46.4581C47.4609 123.028 48.4221 123.425 49.1311 124.133C49.8401 124.841 50.2383 125.801 50.2383 126.802C50.2383 127.803 49.8401 128.763 49.1311 129.471C48.4221 130.178 47.4609 130.576 46.4581 130.576H2.89382C2.55061 131.491 2.23804 132.426 1.95612 133.381H30.0319C31.0345 133.381 31.996 133.779 32.7049 134.486C33.4138 135.194 33.8121 136.154 33.8121 137.155C33.8121 138.156 33.4138 139.116 32.7049 139.824C31.996 140.532 31.0345 140.929 30.0319 140.929H0.367553C-0.642598 149.072 0.33646 157.338 3.2211 165.021C9.63422 181.707 24.5491 190.166 38.552 189.902C52.555 189.637 65.9181 182.137 78.4833 173.814C87.9779 167.517 97.9175 160.487 108.486 161.482C119.264 162.495 128.49 171.637 138.242 177.863C154.124 188.004 172.625 190.592 189.724 185.07C197.284 182.629 204.778 178.462 210.316 171.148C215.689 164.03 218.741 154.627 220.245 144.615H234.722C235.697 144.615 236.633 144.228 237.322 143.54C238.012 142.852 238.399 141.918 238.399 140.944C238.399 139.97 238.012 139.036 237.322 138.348C236.633 137.66 235.697 137.273 234.722 137.273H221.113C221.385 133.895 221.51 130.495 221.517 127.132V126.699H274.179C275.182 126.699 276.143 126.302 276.852 125.594C277.561 124.886 277.959 123.926 277.959 122.925C277.959 121.924 277.561 120.964 276.852 120.256C276.143 119.548 275.182 119.151 274.179 119.151V119.143Z" fill="url(#paint0_linear_336_586)"/>
<path d="M98.1455 181.7C98.1455 181.7 80.4947 203.647 78.1009 234.425C78.0781 234.737 77.9471 235.032 77.7309 235.258C77.5143 235.485 77.2257 235.63 76.9142 235.668C76.6027 235.705 76.288 235.634 76.0236 235.465C75.7588 235.297 75.5613 235.042 75.4643 234.744C69.4152 216.361 56.5706 163.215 96.6379 130.793" fill="#26C8BC"/>
<path d="M77.8399 236.253C77.93 236.541 78.1153 236.791 78.3657 236.961C78.1921 237.078 77.9936 237.152 77.7862 237.179C77.5784 237.205 77.3677 237.183 77.1702 237.115C76.9724 237.046 76.7937 236.932 76.6477 236.783C76.5017 236.633 76.3925 236.452 76.3285 236.253C70.2794 217.87 57.4348 164.723 97.5021 132.301L97.5389 133.524C59.2661 166.045 71.868 218.101 77.8399 236.253Z" fill="#F6DF9E"/>
<path opacity="0.8" d="M73.8902 229.145C73.7873 220.613 75.9679 211.673 78.8251 203.666C80.296 199.568 81.9287 195.717 83.5356 192.284C88.5687 181.566 90.9137 169.786 90.368 157.961C90.0517 151.117 89.7943 143.441 89.7943 136.604C92.9604 132.691 91.883 132.338 96.2074 128.839L97.7188 179.747C97.7188 179.747 80.068 201.694 77.6741 232.471C77.6638 232.66 77.6123 232.845 77.5237 233.013C77.4347 233.18 77.3104 233.326 77.1593 233.441" fill="#1B5A6E"/>
<path d="M73.8317 200.251C73.682 200.251 73.5357 200.207 73.411 200.124C73.2864 200.041 73.1893 199.923 73.1319 199.785C73.0745 199.646 73.0595 199.494 73.0889 199.347C73.1179 199.201 73.19 199.066 73.2963 198.96C73.4022 198.855 73.5371 198.782 73.6839 198.753C73.831 198.724 73.9832 198.739 74.1218 198.796C74.2601 198.854 74.3785 198.951 74.4616 199.075C74.5447 199.199 74.5892 199.346 74.5892 199.495C74.5892 199.696 74.5094 199.888 74.3675 200.03C74.2255 200.172 74.0328 200.251 73.8317 200.251ZM73.8317 199.172C73.7677 199.172 73.7052 199.191 73.6519 199.227C73.5989 199.262 73.5574 199.313 73.5327 199.372C73.5085 199.43 73.5018 199.495 73.5143 199.558C73.5269 199.621 73.5577 199.679 73.603 199.724C73.6482 199.769 73.7059 199.799 73.7688 199.812C73.8313 199.824 73.8964 199.818 73.9556 199.794C74.0148 199.769 74.0652 199.728 74.1009 199.675C74.1365 199.622 74.1553 199.559 74.1553 199.495C74.1546 199.41 74.12 199.329 74.0593 199.269C73.9986 199.209 73.917 199.176 73.8317 199.176V199.172Z" fill="#274B5B"/>
<path opacity="0.2" d="M73.8315 200.901C73.5535 200.901 73.2821 200.819 73.0512 200.665C72.8199 200.511 72.6401 200.292 72.5338 200.036C72.4275 199.779 72.3996 199.497 72.4536 199.225C72.508 198.953 72.6419 198.703 72.8383 198.507C73.0346 198.311 73.285 198.177 73.5575 198.124C73.83 198.069 74.1124 198.097 74.3691 198.203C74.6258 198.309 74.8449 198.489 74.9994 198.72C75.1538 198.95 75.2362 199.222 75.2362 199.499C75.2362 199.871 75.0884 200.228 74.8247 200.49C74.5614 200.754 74.204 200.901 73.8315 200.901ZM73.8315 198.959C73.7245 198.959 73.62 198.991 73.531 199.05C73.4424 199.11 73.3729 199.194 73.3321 199.292C73.2913 199.391 73.2803 199.5 73.3012 199.604C73.3222 199.709 73.3737 199.805 73.4494 199.881C73.5248 199.956 73.6211 200.007 73.7259 200.028C73.8307 200.049 73.9396 200.038 74.0385 199.997C74.1371 199.957 74.2216 199.888 74.2808 199.799C74.3404 199.71 74.372 199.606 74.372 199.499C74.372 199.428 74.3581 199.358 74.3308 199.292C74.3036 199.227 74.2639 199.167 74.2135 199.117C74.1635 199.067 74.104 199.027 74.0385 199C73.9727 198.973 73.9024 198.959 73.8315 198.959Z" fill="#274B5B"/>
<path d="M76.8545 172.426C76.7048 172.426 76.5585 172.382 76.4338 172.299C76.3091 172.216 76.2121 172.098 76.1547 171.96C76.0973 171.821 76.0826 171.669 76.1117 171.522C76.1411 171.376 76.2132 171.241 76.3191 171.136C76.425 171.03 76.5599 170.957 76.707 170.928C76.8537 170.899 77.006 170.914 77.1446 170.971C77.2829 171.029 77.4013 171.126 77.4844 171.25C77.5679 171.375 77.612 171.521 77.612 171.67C77.612 171.871 77.5322 172.063 77.3903 172.205C77.2483 172.347 77.0556 172.426 76.8545 172.426ZM76.8545 171.347C76.7905 171.347 76.728 171.366 76.675 171.402C76.6217 171.437 76.5802 171.488 76.5555 171.546C76.5312 171.605 76.5246 171.67 76.5371 171.733C76.5496 171.796 76.5805 171.853 76.6258 171.899C76.671 171.944 76.7287 171.974 76.7916 171.987C76.8541 171.999 76.9192 171.993 76.9784 171.969C77.0376 171.944 77.088 171.903 77.1237 171.85C77.1593 171.796 77.1781 171.734 77.1781 171.67C77.1781 171.585 77.1442 171.502 77.0836 171.442C77.0229 171.381 76.9405 171.347 76.8545 171.347Z" fill="#274B5B"/>
<path opacity="0.2" d="M76.8543 173.072C76.5767 173.072 76.3049 172.99 76.074 172.836C75.8431 172.682 75.6629 172.462 75.5566 172.206C75.4503 171.95 75.4224 171.668 75.4768 171.396C75.5309 171.124 75.6647 170.874 75.8611 170.678C76.0575 170.482 76.3079 170.348 76.5804 170.294C76.8529 170.24 77.1353 170.268 77.3919 170.374C77.6486 170.48 77.8681 170.66 78.0222 170.89C78.1767 171.121 78.259 171.392 78.259 171.67C78.259 172.042 78.1112 172.398 77.8475 172.661C77.5843 172.924 77.2268 173.072 76.8543 173.072ZM76.8543 171.13C76.7473 171.13 76.6429 171.162 76.5539 171.221C76.4653 171.28 76.3958 171.364 76.355 171.463C76.3141 171.562 76.3035 171.67 76.3241 171.775C76.345 171.879 76.3965 171.976 76.4723 172.051C76.5476 172.127 76.644 172.178 76.7488 172.199C76.854 172.22 76.9624 172.209 77.0614 172.168C77.1599 172.127 77.2445 172.058 77.3037 171.969C77.3633 171.881 77.3949 171.776 77.3949 171.67C77.3949 171.599 77.3809 171.528 77.3537 171.463C77.3265 171.398 77.2868 171.338 77.2368 171.288C77.1864 171.238 77.1268 171.198 77.0614 171.171C76.9955 171.144 76.9253 171.13 76.8543 171.13Z" fill="#274B5B"/>
<path d="M182.943 172.426C182.793 172.426 182.647 172.382 182.522 172.299C182.398 172.216 182.3 172.098 182.243 171.96C182.186 171.821 182.171 171.669 182.2 171.522C182.229 171.376 182.302 171.241 182.407 171.136C182.513 171.03 182.648 170.957 182.795 170.928C182.942 170.899 183.094 170.914 183.233 170.971C183.371 171.029 183.49 171.126 183.573 171.25C183.656 171.375 183.7 171.521 183.7 171.67C183.7 171.871 183.621 172.063 183.479 172.205C183.337 172.347 183.144 172.426 182.943 172.426ZM182.943 171.347C182.879 171.347 182.816 171.366 182.763 171.402C182.71 171.437 182.669 171.488 182.644 171.546C182.62 171.605 182.613 171.67 182.626 171.733C182.638 171.796 182.669 171.853 182.714 171.899C182.759 171.944 182.817 171.974 182.88 171.987C182.942 171.999 183.008 171.993 183.067 171.969C183.126 171.944 183.176 171.903 183.212 171.85C183.248 171.796 183.266 171.734 183.266 171.67C183.266 171.585 183.233 171.502 183.172 171.442C183.111 171.381 183.029 171.347 182.943 171.347Z" fill="#274B5B"/>
<path opacity="0.2" d="M182.943 173.072C182.665 173.072 182.393 172.99 182.162 172.836C181.931 172.681 181.751 172.462 181.645 172.206C181.539 171.95 181.511 171.668 181.565 171.396C181.619 171.124 181.753 170.874 181.949 170.678C182.146 170.482 182.396 170.348 182.669 170.294C182.941 170.24 183.224 170.268 183.48 170.374C183.737 170.48 183.957 170.66 184.111 170.89C184.265 171.121 184.347 171.392 184.347 171.67C184.347 172.042 184.2 172.398 183.936 172.661C183.673 172.924 183.315 173.072 182.943 173.072ZM182.943 171.13C182.836 171.13 182.731 171.162 182.643 171.221C182.554 171.28 182.484 171.364 182.443 171.463C182.403 171.562 182.392 171.67 182.412 171.775C182.433 171.879 182.485 171.975 182.561 172.051C182.636 172.127 182.732 172.178 182.837 172.199C182.942 172.22 183.051 172.209 183.15 172.168C183.248 172.127 183.333 172.058 183.392 171.969C183.452 171.88 183.483 171.776 183.483 171.67C183.483 171.598 183.469 171.528 183.442 171.463C183.415 171.398 183.375 171.338 183.325 171.288C183.275 171.238 183.215 171.198 183.15 171.171C183.084 171.144 183.014 171.13 182.943 171.13Z" fill="#274B5B"/>
<path d="M182.296 172.426C182.146 172.426 181.999 172.382 181.875 172.299C181.75 172.216 181.653 172.098 181.596 171.96C181.538 171.821 181.523 171.669 181.553 171.522C181.582 171.376 181.654 171.241 181.76 171.136C181.866 171.03 182.001 170.957 182.148 170.928C182.295 170.899 182.447 170.914 182.585 170.971C182.724 171.029 182.842 171.126 182.925 171.25C183.009 171.375 183.053 171.521 183.053 171.67C183.053 171.871 182.973 172.063 182.831 172.205C182.689 172.347 182.497 172.426 182.296 172.426ZM182.296 171.347C182.232 171.347 182.169 171.366 182.116 171.402C182.063 171.437 182.021 171.488 181.997 171.546C181.972 171.605 181.966 171.67 181.978 171.733C181.991 171.796 182.022 171.853 182.067 171.899C182.112 171.944 182.17 171.974 182.233 171.987C182.295 171.999 182.36 171.993 182.419 171.969C182.479 171.944 182.529 171.903 182.565 171.85C182.6 171.796 182.619 171.734 182.619 171.67C182.619 171.585 182.585 171.502 182.524 171.442C182.464 171.381 182.382 171.347 182.296 171.347Z" fill="#274B5B"/>
<path opacity="0.2" d="M182.296 173.072C182.018 173.072 181.746 172.99 181.515 172.836C181.284 172.682 181.104 172.462 180.998 172.206C180.892 171.95 180.864 171.668 180.918 171.396C180.972 171.124 181.106 170.874 181.303 170.678C181.499 170.482 181.749 170.348 182.022 170.294C182.294 170.24 182.577 170.268 182.833 170.374C183.09 170.48 183.31 170.66 183.464 170.89C183.618 171.121 183.7 171.392 183.7 171.67C183.7 172.042 183.553 172.398 183.289 172.661C183.026 172.924 182.669 173.072 182.296 173.072ZM182.296 171.13C182.189 171.13 182.084 171.162 181.996 171.221C181.907 171.28 181.838 171.364 181.796 171.463C181.756 171.562 181.745 171.67 181.766 171.775C181.786 171.879 181.838 171.976 181.914 172.051C181.989 172.127 182.085 172.178 182.191 172.199C182.295 172.22 182.404 172.209 182.503 172.168C182.602 172.127 182.686 172.058 182.745 171.969C182.805 171.881 182.836 171.776 182.836 171.67C182.836 171.599 182.822 171.528 182.795 171.463C182.768 171.398 182.728 171.338 182.678 171.288C182.628 171.238 182.568 171.198 182.503 171.171C182.437 171.144 182.367 171.13 182.296 171.13Z" fill="#274B5B"/>
<path d="M81.289 150.423H80.4248V221.178H81.289V150.423Z" fill="#274B5B"/>
<path opacity="0.2" d="M82.1532 148.698H81.2891V221.178H82.1532V148.698Z" fill="#274B5B"/>
<path opacity="0.3" d="M80.4247 150.423H79.5605V221.178H80.4247V150.423Z" fill="white"/>
<path d="M86.2572 141.146H85.3931V204.998H86.2572V141.146Z" fill="#274B5B"/>
<path opacity="0.2" d="M87.121 141.146H86.2568V204.998H87.121V141.146Z" fill="#274B5B"/>
<path opacity="0.3" d="M85.393 141.146H84.5288V204.998H85.393V141.146Z" fill="white"/>
<path opacity="0.8" d="M174.394 258.284C169.754 258.276 165.306 256.431 162.028 253.152C158.749 249.873 156.908 245.43 156.908 240.797V223.766H161.663V240.794C161.663 242.933 162.202 245.037 163.231 246.913C164.26 248.789 165.745 250.376 167.55 251.528C169.355 252.68 171.421 253.36 173.558 253.505C175.696 253.65 177.835 253.255 179.779 252.357C181.723 251.46 183.41 250.088 184.684 248.368C185.957 246.648 186.776 244.636 187.066 242.517C187.355 240.398 187.106 238.24 186.341 236.242C185.575 234.245 184.318 232.472 182.686 231.087L185.764 227.47C188.402 229.711 190.317 232.681 191.264 236.008C192.212 239.334 192.151 242.866 191.088 246.157C190.026 249.449 188.009 252.352 185.294 254.499C182.579 256.647 179.288 257.942 175.835 258.222C175.355 258.264 174.874 258.284 174.394 258.284Z" fill="white"/>
<path opacity="0.8" d="M172.412 250.895C171.897 250.894 171.383 250.856 170.874 250.781L171.566 246.085C172.488 246.219 173.429 246.124 174.306 245.808C175.182 245.492 175.967 244.965 176.591 244.273C177.214 243.582 177.658 242.748 177.882 241.845C178.105 240.942 178.103 239.997 177.874 239.096C177.645 238.194 177.196 237.362 176.568 236.675C175.941 235.987 175.153 235.465 174.274 235.154C173.396 234.843 172.454 234.753 171.533 234.893C170.611 235.032 169.739 235.396 168.992 235.952L166.153 232.145C167.475 231.163 169.011 230.508 170.636 230.234C172.26 229.96 173.927 230.075 175.498 230.569C177.07 231.063 178.502 231.921 179.676 233.075C180.851 234.228 181.735 235.644 182.255 237.204C182.775 238.765 182.918 240.427 182.67 242.053C182.423 243.679 181.792 245.224 180.831 246.56C179.869 247.896 178.604 248.984 177.139 249.737C175.675 250.49 174.052 250.885 172.404 250.891L172.412 250.895Z" fill="white"/>
<path opacity="0.8" d="M173.978 221.179C175.887 221.179 177.434 219.633 177.434 217.727C177.434 215.821 175.887 214.276 173.978 214.276C172.069 214.276 170.521 215.821 170.521 217.727C170.521 219.633 172.069 221.179 173.978 221.179Z" fill="white"/>
<path d="M180.777 236.902C180.687 237.191 180.502 237.441 180.251 237.611C180.425 237.727 180.623 237.802 180.831 237.828C181.039 237.855 181.249 237.833 181.447 237.764C181.645 237.696 181.824 237.582 181.97 237.432C182.116 237.283 182.225 237.101 182.288 236.902C188.338 218.52 201.182 165.373 161.115 132.951L161.078 134.174C199.351 166.68 186.753 218.747 180.777 236.902Z" fill="white"/>
<path d="M160.651 183.858C160.651 183.858 178.302 205.806 180.696 236.583C180.719 236.895 180.85 237.19 181.066 237.417C181.283 237.644 181.571 237.788 181.883 237.826C182.194 237.863 182.509 237.792 182.774 237.624C183.038 237.455 183.236 237.2 183.333 236.902C189.378 218.52 202.226 165.373 162.166 132.951" fill="#26C8BC"/>
<path opacity="0.8" d="M184.91 231.297C185.013 222.764 182.833 213.824 179.976 205.817C178.505 201.72 176.872 197.869 175.265 194.436C170.23 183.724 167.88 171.951 168.418 160.131C168.734 153.287 168.992 145.61 168.992 138.774C165.826 134.861 166.903 134.508 162.579 131.009L161.063 181.917C161.063 181.917 178.714 203.864 181.108 234.641C181.118 234.83 181.17 235.015 181.259 235.182C181.348 235.35 181.472 235.496 181.623 235.61" fill="#1B5A6E"/>
<path d="M184.888 200.457C184.739 200.457 184.592 200.412 184.468 200.329C184.343 200.246 184.246 200.128 184.189 199.99C184.131 199.852 184.116 199.7 184.146 199.553C184.175 199.406 184.247 199.271 184.353 199.165C184.458 199.06 184.593 198.988 184.741 198.958C184.888 198.929 185.04 198.944 185.178 199.002C185.317 199.059 185.435 199.156 185.518 199.28C185.601 199.404 185.646 199.551 185.646 199.7C185.646 199.901 185.566 200.093 185.424 200.235C185.282 200.377 185.089 200.457 184.888 200.457ZM184.888 199.377C184.824 199.377 184.762 199.396 184.709 199.432C184.655 199.467 184.614 199.517 184.589 199.577C184.565 199.636 184.558 199.701 184.571 199.763C184.583 199.826 184.614 199.884 184.66 199.929C184.705 199.974 184.763 200.005 184.825 200.017C184.888 200.03 184.953 200.023 185.012 199.999C185.071 199.974 185.122 199.933 185.158 199.88C185.193 199.827 185.212 199.764 185.212 199.7C185.209 199.617 185.174 199.537 185.113 199.479C185.053 199.421 184.972 199.388 184.888 199.388V199.377Z" fill="#274B5B"/>
<path opacity="0.2" d="M184.888 201.118C184.61 201.118 184.339 201.036 184.108 200.881C183.877 200.728 183.697 200.508 183.59 200.252C183.484 199.996 183.456 199.714 183.511 199.442C183.565 199.17 183.698 198.92 183.895 198.724C184.091 198.528 184.342 198.394 184.614 198.34C184.887 198.286 185.169 198.314 185.426 198.42C185.682 198.526 185.902 198.706 186.056 198.936C186.21 199.167 186.293 199.438 186.293 199.715C186.293 200.087 186.145 200.444 185.881 200.707C185.618 200.97 185.261 201.118 184.888 201.118ZM184.888 199.176C184.781 199.176 184.677 199.207 184.588 199.267C184.499 199.326 184.429 199.41 184.389 199.509C184.348 199.607 184.337 199.716 184.358 199.821C184.379 199.925 184.43 200.022 184.506 200.097C184.581 200.172 184.678 200.224 184.782 200.245C184.888 200.266 184.996 200.255 185.095 200.214C185.194 200.173 185.278 200.104 185.337 200.015C185.397 199.926 185.429 199.822 185.429 199.715C185.429 199.572 185.372 199.435 185.27 199.334C185.169 199.233 185.031 199.176 184.888 199.176Z" fill="#274B5B"/>
<path d="M178.299 150.207H177.435V223.12H178.299V150.207Z" fill="#274B5B"/>
<path opacity="0.2" d="M177.434 149.99H176.57V217.077H177.434V149.99Z" fill="#274B5B"/>
<path opacity="0.3" d="M179.162 152.366H178.298V223.121H179.162V152.366Z" fill="white"/>
<path d="M173.33 143.087H172.466V206.94H173.33V143.087Z" fill="#274B5B"/>
<path opacity="0.2" d="M172.467 143.087H171.603V204.781H172.467V143.087Z" fill="#274B5B"/>
<path opacity="0.3" d="M174.195 143.087H173.331V206.94H174.195V143.087Z" fill="white"/>
<path d="M182.06 237.942C181.938 237.942 181.815 237.934 181.693 237.92C181.007 237.844 180.37 237.53 179.893 237.032C179.416 236.535 179.128 235.886 179.082 235.199C176.765 205.266 159.563 183.58 159.39 183.363L161.916 181.336C162.1 181.564 166.495 187.064 171.227 196.441C175.474 204.852 180.762 218.039 182.2 233.628C185.142 224.405 189.408 207.355 188.422 188.767C187.172 165.212 177.979 146.334 161.14 132.698L163.181 130.183C172.499 137.636 179.883 147.219 184.708 158.122C188.735 167.249 191.073 177.5 191.662 188.595C192.721 208.589 187.867 226.814 184.877 235.897C184.687 236.493 184.311 237.012 183.804 237.38C183.298 237.748 182.687 237.945 182.06 237.942Z" fill="#274B5B"/>
<path opacity="0.8" d="M102.044 264.525C97.9703 264.538 93.9919 263.3 90.6474 260.978C87.3033 258.657 84.7546 255.365 83.3477 251.549C81.9408 247.732 81.7433 243.576 82.7822 239.644C83.821 235.712 86.0457 232.194 89.1548 229.567L92.2327 233.183C90.2985 234.825 88.8092 236.926 87.902 239.294C86.9952 241.662 86.6999 244.219 87.0434 246.731C87.3868 249.242 88.358 251.627 89.8675 253.665C91.377 255.704 93.376 257.33 95.6805 258.394C97.985 259.457 100.52 259.925 103.054 259.753C105.587 259.582 108.036 258.776 110.175 257.411C112.314 256.045 114.075 254.164 115.294 251.941C116.514 249.718 117.153 247.224 117.153 244.689V207.37H121.908V244.689C121.908 249.947 119.816 254.99 116.092 258.708C112.368 262.426 107.318 264.514 102.051 264.514L102.044 264.525Z" fill="white"/>
<path opacity="0.8" d="M138.426 273.606C135.48 273.601 132.655 272.429 130.572 270.348C128.49 268.267 127.319 265.445 127.317 262.504V225.716H132.072V262.504C132.073 263.571 132.343 264.622 132.857 265.558C133.371 266.494 134.113 267.287 135.014 267.861C135.916 268.436 136.947 268.775 138.014 268.847C139.081 268.92 140.149 268.723 141.12 268.274C142.091 267.826 142.933 267.141 143.569 266.283C144.204 265.424 144.614 264.419 144.759 263.361C144.903 262.303 144.78 261.226 144.397 260.228C144.016 259.231 143.389 258.345 142.574 257.654L145.652 254.037C147.329 255.46 148.546 257.348 149.149 259.461C149.752 261.575 149.713 263.819 149.038 265.911C148.363 268.002 147.081 269.847 145.356 271.211C143.631 272.576 141.54 273.399 139.346 273.576C139.037 273.596 138.73 273.606 138.426 273.606Z" fill="white"/>
<path opacity="0.8" d="M131.631 207.588H126.876V219.02H131.631V207.588Z" fill="white"/>
<path opacity="0.8" d="M103.272 254.995C102.757 254.994 102.244 254.956 101.735 254.881L102.426 250.185C103.348 250.319 104.289 250.224 105.166 249.908C106.042 249.592 106.827 249.065 107.451 248.374C108.075 247.682 108.518 246.848 108.742 245.945C108.966 245.042 108.963 244.098 108.734 243.196C108.505 242.294 108.056 241.462 107.429 240.775C106.801 240.087 106.013 239.565 105.134 239.254C104.256 238.943 103.315 238.853 102.393 238.992C101.472 239.132 100.599 239.496 99.852 240.052L97.0132 236.245C98.3352 235.263 99.8715 234.609 101.496 234.335C103.121 234.06 104.787 234.175 106.359 234.669C107.93 235.163 109.362 236.022 110.537 237.175C111.711 238.329 112.595 239.744 113.115 241.305C113.636 242.865 113.778 244.527 113.531 246.153C113.283 247.78 112.653 249.324 111.691 250.66C110.73 251.996 109.465 253.085 108 253.838C106.535 254.591 104.912 254.986 103.265 254.991L103.272 254.995Z" fill="white"/>
<path opacity="0.8" d="M143.299 248.574C141.803 248.574 140.342 248.132 139.099 247.302C137.855 246.473 136.886 245.294 136.314 243.915C135.742 242.536 135.592 241.018 135.883 239.553C136.175 238.089 136.895 236.745 137.953 235.689C139.01 234.633 140.357 233.914 141.824 233.623C143.291 233.332 144.811 233.481 146.192 234.052C147.573 234.624 148.754 235.591 149.585 236.833C150.416 238.074 150.859 239.533 150.859 241.026C150.856 243.027 150.059 244.946 148.642 246.361C147.224 247.776 145.303 248.571 143.299 248.574ZM143.299 238.221C142.743 238.221 142.2 238.386 141.738 238.694C141.276 239.002 140.916 239.44 140.703 239.953C140.491 240.465 140.435 241.029 140.543 241.573C140.652 242.118 140.919 242.617 141.312 243.01C141.705 243.402 142.206 243.669 142.751 243.777C143.296 243.885 143.861 243.83 144.374 243.618C144.887 243.406 145.326 243.046 145.635 242.585C145.943 242.123 146.108 241.581 146.108 241.026C146.107 240.283 145.811 239.57 145.284 239.044C144.758 238.518 144.044 238.222 143.299 238.221Z" fill="white"/>
<path opacity="0.8" d="M105.905 229.376C104.41 229.373 102.95 228.928 101.709 228.097C100.467 227.266 99.5007 226.086 98.9308 224.707C98.3604 223.328 98.2126 221.81 98.5057 220.347C98.7988 218.884 99.5199 217.54 100.577 216.486C101.635 215.432 102.982 214.714 104.447 214.424C105.913 214.133 107.433 214.283 108.813 214.854C110.194 215.425 111.374 216.392 112.205 217.633C113.035 218.873 113.479 220.332 113.48 221.824C113.478 223.828 112.679 225.749 111.258 227.166C109.838 228.582 107.912 229.377 105.905 229.376ZM105.905 219.022C105.349 219.022 104.806 219.187 104.344 219.495C103.882 219.803 103.522 220.242 103.309 220.754C103.096 221.267 103.041 221.831 103.149 222.375C103.258 222.919 103.525 223.419 103.918 223.811C104.311 224.203 104.811 224.47 105.357 224.579C105.902 224.687 106.467 224.631 106.98 224.419C107.493 224.207 107.932 223.847 108.24 223.386C108.549 222.925 108.714 222.382 108.714 221.827C108.714 221.083 108.418 220.369 107.891 219.843C107.365 219.316 106.65 219.02 105.905 219.019V219.022Z" fill="white"/>
<path opacity="0.8" d="M208.548 229.376C207.053 229.376 205.591 228.933 204.348 228.104C203.104 227.274 202.135 226.095 201.563 224.716C200.991 223.337 200.841 221.819 201.133 220.355C201.424 218.891 202.144 217.546 203.202 216.49C204.259 215.434 205.606 214.716 207.073 214.424C208.54 214.133 210.059 214.282 211.441 214.854C212.822 215.425 214.003 216.393 214.834 217.634C215.665 218.875 216.108 220.335 216.108 221.827C216.105 223.829 215.308 225.747 213.891 227.162C212.473 228.577 210.552 229.373 208.548 229.376ZM208.548 219.022C207.992 219.022 207.449 219.187 206.987 219.495C206.525 219.803 206.165 220.242 205.952 220.754C205.74 221.267 205.684 221.831 205.792 222.375C205.901 222.919 206.169 223.419 206.561 223.811C206.954 224.203 207.455 224.47 208 224.579C208.545 224.687 209.11 224.631 209.623 224.419C210.136 224.207 210.575 223.847 210.884 223.386C211.192 222.925 211.357 222.382 211.357 221.827C211.357 221.083 211.061 220.369 210.535 219.843C210.008 219.316 209.293 219.02 208.548 219.019V219.022Z" fill="white"/>
<path opacity="0.8" d="M60.5457 239.297C61.5003 239.297 62.274 238.524 62.274 237.571C62.274 236.618 61.5003 235.846 60.5457 235.846C59.5911 235.846 58.8174 236.618 58.8174 237.571C58.8174 238.524 59.5911 239.297 60.5457 239.297Z" fill="white"/>
<path opacity="0.8" d="M156.908 268.851C157.863 268.851 158.636 268.079 158.636 267.126C158.636 266.173 157.863 265.4 156.908 265.4C155.953 265.4 155.18 266.173 155.18 267.126C155.18 268.079 155.953 268.851 156.908 268.851Z" fill="white"/>
<path opacity="0.8" d="M215.03 275.324H210.276C210.272 271.949 208.927 268.714 206.538 266.328C204.147 263.941 200.907 262.599 197.527 262.595H194.287V257.848H197.527C202.167 257.853 206.617 259.696 209.899 262.972C213.18 266.248 215.026 270.69 215.03 275.324Z" fill="white"/>
<path opacity="0.8" d="M41.9646 276.239H37.21C37.221 267.132 40.849 258.401 47.2989 251.962C53.7484 245.522 62.4933 241.9 71.6143 241.889H78.476V246.636H71.618C63.7568 246.645 56.2202 249.766 50.661 255.316C45.1021 260.865 41.9746 268.39 41.9646 276.239Z" fill="white"/>
<path opacity="0.8" d="M249.317 275.324H244.581C244.573 265.599 240.701 256.275 233.814 249.397C226.928 242.519 217.59 238.651 207.849 238.64H199.472V233.904H207.849C218.845 233.92 229.386 238.29 237.16 246.055C244.934 253.82 249.306 264.345 249.317 275.324Z" fill="white"/>
<path opacity="0.8" d="M65.3006 275.323H60.5459C60.5518 270.691 62.3974 266.25 65.6782 262.975C68.9587 259.699 73.4067 257.857 78.0459 257.851H81.2856V262.598H78.0459C74.6673 262.603 71.4283 263.945 69.0392 266.33C66.6501 268.716 65.3057 271.95 65.3006 275.323Z" fill="white"/>
<path d="M76.5234 237.725C75.8982 237.727 75.2889 237.529 74.7837 237.161C74.2788 236.794 73.9041 236.275 73.714 235.68C70.7207 226.597 65.8667 208.376 66.9257 188.378C67.5141 177.283 69.8675 167.033 73.8794 157.906C78.7047 147.002 86.0883 137.419 95.406 129.967L97.4469 132.481C80.5941 146.121 71.412 164.984 70.1617 188.551C69.1762 207.139 73.4713 224.189 76.3836 233.411C77.8214 217.826 83.1093 204.635 87.3565 196.224C92.0928 186.847 96.4835 181.347 96.6673 181.12L99.1936 183.146C99.1274 183.231 94.7809 188.69 90.2064 197.766C85.9886 206.137 80.7081 219.387 79.5019 234.983C79.4552 235.67 79.1684 236.319 78.6911 236.816C78.2138 237.313 77.5769 237.627 76.8911 237.703C76.769 237.718 76.6462 237.725 76.5234 237.725Z" fill="#274B5B"/>
<path d="M133.215 3.48804C132.765 2.97898 132.21 2.57137 131.59 2.29219C130.969 2.01302 130.296 1.86865 129.615 1.86865C128.935 1.86865 128.262 2.01302 127.641 2.29219C127.02 2.57137 126.466 2.97898 126.015 3.48804C115.642 15.2107 86.415 52.9122 86.415 105.607C86.415 157.187 97.6196 180.349 101.988 187.417C102.922 188.926 104.956 189.898 107.173 189.898H152.061C154.29 189.898 156.32 188.933 157.246 187.417C161.615 180.349 172.83 157.187 172.83 105.607C172.83 52.9122 143.593 15.2107 133.215 3.48804Z" fill="#26C8BC"/>
<path d="M129.902 47.0968H129.038V189.469H129.902V47.0968Z" fill="#274B5B"/>
<path opacity="0.2" d="M129.038 47.0968H128.174V189.469H129.038V47.0968Z" fill="#274B5B"/>
<path opacity="0.3" d="M130.766 47.0968H129.902V189.469H130.766V47.0968Z" fill="white"/>
<path d="M158.206 45.8004H100.105C103.648 37.2901 107.806 29.0481 112.546 21.1398C112.96 20.4496 113.37 19.7752 113.777 19.1168C122.059 6.74064 128.402 0 128.402 0C128.402 0 137.227 9.37302 147.63 26.3164L147.781 26.5661C151.197 32.2053 154.753 38.6375 158.206 45.8004Z" fill="#ECF2FA"/>
<path d="M157.772 45.177L154.595 44.7217C149.347 37.0596 134.833 21.4231 114.829 19.268C115.197 18.5778 116.668 17.1679 117.035 16.5108C119.907 11.7967 122.522 8.62833 124.658 5.61046C125.227 4.80213 125.98 4.14015 126.855 3.67899C127.73 3.21779 128.702 2.97059 129.692 2.95769C130.681 2.94478 131.66 3.16655 132.546 3.60475C133.433 4.04293 134.203 4.68505 134.793 5.47829C139.307 11.4975 143.416 17.8104 147.09 24.3749C147.134 24.4556 147.612 24.5401 147.66 24.6245C150.767 30.2637 156.478 33.7442 157.772 45.177Z" fill="#8BBACC"/>
<path d="M108.846 40.2852C108.659 40.2848 108.475 40.236 108.313 40.1435C108.15 40.051 108.014 39.918 107.919 39.7576C107.823 39.5968 107.771 39.4143 107.767 39.2275C107.764 39.0406 107.808 38.8563 107.897 38.6918C108.949 36.7607 110.104 34.8186 111.255 32.9426C112.358 31.1069 113.491 29.2381 114.505 27.3878C114.649 27.1481 114.879 26.9732 115.149 26.8995C115.418 26.8259 115.706 26.8592 115.951 26.9926C116.197 27.1261 116.381 27.3492 116.465 27.6152C116.549 27.8812 116.527 28.1694 116.403 28.4194C115.37 30.3138 114.219 32.2156 113.093 34.055C111.968 35.8943 110.814 37.829 109.784 39.7198C109.692 39.889 109.557 40.0304 109.392 40.1299C109.227 40.2294 109.039 40.283 108.846 40.2852Z" fill="white"/>
<g opacity="0.4">
<path opacity="0.4" d="M140.401 84.8307C141.791 82.5838 142.777 80.6784 142.927 80.7445C143.078 80.8106 142.28 82.8372 140.868 85.1171C139.456 87.397 138.004 89.0197 137.89 88.928C137.776 88.8362 139.022 87.0849 140.401 84.8307Z" fill="#426270"/>
<path opacity="0.4" d="M142.896 86.8587C143.797 85.3432 144.42 84.0516 144.289 83.9741C144.158 83.8963 143.322 85.0623 142.422 86.5779C141.522 88.0934 140.898 89.3846 141.029 89.4625C141.16 89.5399 141.996 88.3743 142.896 86.8587Z" fill="#426270"/>
<path opacity="0.4" d="M140.949 86.3253C142.979 87.144 144.674 87.7094 144.626 87.8599C144.578 88.0105 142.787 87.6727 140.736 86.8356C138.684 85.9985 137.143 84.9999 137.216 84.8824C137.29 84.765 138.915 85.5139 140.949 86.3253Z" fill="#426270"/>
<path opacity="0.4" d="M142.868 85.7735C144.707 86.6362 146.263 87.1796 146.218 87.3301C146.174 87.4807 144.52 87.1502 142.637 86.2728C140.754 85.3953 139.434 84.3306 139.518 84.2205C139.603 84.1103 141.03 84.9254 142.868 85.7735Z" fill="#426270"/>
</g>
<path d="M115.693 190.977H107.813C105.585 190.977 103.555 190.008 102.628 188.492C98.2632 181.406 87.0586 158.188 87.0586 106.484C87.0586 55.8523 113.903 19.0282 125.302 5.71216C115.09 17.791 92.979 49.7688 92.979 100.158L105.941 81.9998C105.673 82.7047 79.4945 158.731 115.693 190.977Z" fill="#F6DF9E"/>
<path d="M110.405 190.005H108.243C106.015 190.005 103.985 189.035 103.058 187.519C98.6934 180.433 87.4888 157.216 87.4888 105.512C87.4888 54.8797 114.333 18.0557 125.71 4.74695C119.911 11.6087 110.236 24.9395 102.985 44.3979C95.5456 61.0623 89.6436 81.7615 89.6436 105.49C89.6436 157.197 100.848 180.415 105.213 187.497C106.151 189.035 108.181 190.005 110.405 190.005Z" fill="white"/>
<path opacity="0.8" d="M142.225 189.898H150.105C152.334 189.898 154.363 188.933 155.29 187.42C159.655 180.356 170.86 157.205 170.86 105.647C170.86 55.1698 144.016 18.4451 132.616 5.16577C142.828 17.2079 167.318 49.0863 167.318 99.3401L156.099 81.2328C156.353 81.9378 178.427 157.744 142.225 189.898Z" fill="#1B5A6E"/>
<g opacity="0.9">
<path opacity="0.9" d="M102.084 62.8503C102.453 61.4089 102.896 59.9873 103.411 58.5915C103.837 57.4493 104.328 56.3328 104.882 55.2469C105.835 53.4112 106.658 52.3648 107 52.508C107.342 52.6512 107.177 53.9435 106.71 55.915C106.478 56.9026 106.184 58.0738 105.846 59.3478L104.753 63.5148L103.698 67.7112C103.382 69.0072 103.084 70.16 102.819 71.1402C102.286 73.0971 101.83 74.3123 101.448 74.2756C101.065 74.2389 100.841 72.9429 100.889 70.8612C100.925 69.6456 101.03 68.4333 101.205 67.2302C101.422 65.7562 101.716 64.2942 102.084 62.8503Z" fill="white"/>
</g>
<g opacity="0.9">
<path opacity="0.9" d="M101.133 79.6149C101.45 77.857 101.1 76.3224 100.351 76.1876C99.6016 76.0525 98.7363 77.368 98.4186 79.1258C98.1009 80.8841 98.4506 82.4187 99.2004 82.5534C99.9498 82.6885 100.815 81.3731 101.133 79.6149Z" fill="white"/>
</g>
<g opacity="0.2">
<path opacity="0.2" d="M122.949 13.4816C124.74 12.1856 126.406 11.0585 127.626 10.2838C128.847 9.50916 129.634 9.06125 129.678 9.13101C129.722 9.20077 129.013 9.74413 127.84 10.5996L123.265 13.9038L118.702 17.2558C117.525 18.1002 116.782 18.6068 116.734 18.5518C116.687 18.4967 117.345 17.8799 118.463 16.9547C119.581 16.0295 121.158 14.7849 122.949 13.4816Z" fill="#426270"/>
<path opacity="0.2" d="M123.611 15.5822C127.549 14.0732 130.723 12.8066 130.785 12.9498C130.814 13.0195 130.05 13.4271 128.803 14.0071C127.556 14.5872 125.777 15.3398 123.809 16.0962C121.842 16.8525 120.018 17.4729 118.694 17.8731C117.37 18.2733 116.532 18.4789 116.51 18.4091C116.455 18.2623 119.676 17.0911 123.611 15.5822Z" fill="#426270"/>
</g>
<path d="M125.688 71.7937C125.538 71.7937 125.392 71.7493 125.267 71.6663C125.143 71.583 125.046 71.4647 124.988 71.3267C124.931 71.1887 124.916 71.0363 124.945 70.8898C124.974 70.7429 125.046 70.6082 125.153 70.5025C125.259 70.3967 125.394 70.3248 125.54 70.2954C125.687 70.2664 125.84 70.2815 125.978 70.3384C126.117 70.3956 126.235 70.4926 126.318 70.617C126.401 70.7415 126.446 70.8876 126.446 71.0374C126.446 71.2379 126.366 71.4302 126.224 71.5719C126.082 71.714 125.889 71.7937 125.688 71.7937ZM125.688 70.7143C125.624 70.7143 125.562 70.733 125.508 70.7686C125.455 70.8043 125.414 70.8546 125.389 70.9137C125.365 70.9728 125.358 71.0378 125.371 71.1002C125.383 71.163 125.414 71.2206 125.459 71.2658C125.505 71.3109 125.562 71.3417 125.625 71.3542C125.688 71.3667 125.753 71.3601 125.812 71.3359C125.871 71.3113 125.922 71.2698 125.957 71.2169C125.993 71.1637 126.012 71.1013 126.012 71.0374C126.012 70.9515 125.978 70.8692 125.917 70.8087C125.856 70.7481 125.774 70.7143 125.688 70.7143Z" fill="#274B5B"/>
<path opacity="0.2" d="M125.688 72.4406C125.41 72.4406 125.139 72.3583 124.908 72.2041C124.677 72.0499 124.497 71.8311 124.391 71.5749C124.284 71.3186 124.256 71.0366 124.311 70.7646C124.365 70.4925 124.499 70.2425 124.695 70.0465C124.892 69.85 125.142 69.7168 125.414 69.6624C125.687 69.6085 125.969 69.6364 126.226 69.7425C126.483 69.8486 126.702 70.0281 126.856 70.259C127.011 70.4896 127.093 70.7605 127.093 71.0381C127.093 71.41 126.945 71.7669 126.682 72.0297C126.418 72.2926 126.061 72.4406 125.688 72.4406ZM125.688 70.4984C125.581 70.4984 125.477 70.53 125.388 70.5895C125.299 70.6486 125.23 70.733 125.189 70.8314C125.148 70.9302 125.138 71.0388 125.158 71.1435C125.179 71.2481 125.231 71.3443 125.306 71.4196C125.382 71.4952 125.478 71.5466 125.583 71.5675C125.688 71.5881 125.797 71.5774 125.895 71.5367C125.994 71.4959 126.079 71.4265 126.138 71.3381C126.197 71.2492 126.229 71.1449 126.229 71.0381C126.23 70.9665 126.217 70.8957 126.19 70.8292C126.163 70.7631 126.123 70.7025 126.073 70.6515C126.023 70.6008 125.963 70.5605 125.897 70.5329C125.831 70.5054 125.76 70.4911 125.688 70.4911V70.4984Z" fill="#274B5B"/>
<path d="M125.688 57.0165C125.538 57.0165 125.392 56.9721 125.267 56.8891C125.143 56.8057 125.046 56.6875 124.988 56.5495C124.931 56.4114 124.916 56.2591 124.945 56.1126C124.974 55.9657 125.046 55.831 125.153 55.7253C125.259 55.6195 125.394 55.5476 125.54 55.5182C125.687 55.4892 125.84 55.5042 125.978 55.5611C126.117 55.6184 126.235 55.7153 126.318 55.8398C126.401 55.9643 126.446 56.1104 126.446 56.2602C126.446 56.4606 126.366 56.653 126.224 56.7947C126.082 56.9368 125.889 57.0165 125.688 57.0165ZM125.688 55.9371C125.624 55.9371 125.562 55.9558 125.508 55.9914C125.455 56.027 125.414 56.0773 125.389 56.1364C125.365 56.1956 125.358 56.2605 125.371 56.3229C125.383 56.3857 125.414 56.4434 125.459 56.4885C125.505 56.5337 125.562 56.5645 125.625 56.577C125.688 56.5895 125.753 56.5829 125.812 56.5587C125.871 56.5341 125.922 56.4926 125.957 56.4397C125.993 56.3865 126.012 56.3241 126.012 56.2602C126.011 56.175 125.976 56.0939 125.916 56.034C125.855 55.9742 125.773 55.9408 125.688 55.9408V55.9371Z" fill="#274B5B"/>
<path opacity="0.2" d="M125.688 57.6662C125.41 57.6662 125.139 57.584 124.908 57.4298C124.677 57.2756 124.497 57.0568 124.391 56.8005C124.284 56.5443 124.256 56.2619 124.311 55.9899C124.365 55.7178 124.499 55.4682 124.695 55.2721C124.892 55.0757 125.142 54.9421 125.414 54.8881C125.687 54.8341 125.969 54.8617 126.226 54.9678C126.483 55.0743 126.702 55.2538 126.856 55.4843C127.011 55.7153 127.093 55.9862 127.093 56.2638C127.093 56.6357 126.945 56.9922 126.682 57.2554C126.418 57.5183 126.061 57.6662 125.688 57.6662ZM125.688 55.7241C125.581 55.7241 125.477 55.7557 125.388 55.8148C125.299 55.8742 125.23 55.9587 125.189 56.0571C125.148 56.1558 125.138 56.2641 125.158 56.3688C125.179 56.4738 125.231 56.57 125.306 56.6452C125.382 56.7209 125.478 56.7723 125.583 56.7928C125.688 56.8137 125.797 56.8031 125.895 56.7624C125.994 56.7216 126.079 56.6522 126.138 56.5634C126.197 56.4749 126.229 56.3702 126.229 56.2638C126.229 56.1206 126.172 55.9833 126.07 55.882C125.969 55.781 125.832 55.7241 125.688 55.7241Z" fill="#274B5B"/>
<path d="M133.249 61.7632C133.099 61.7632 132.953 61.7191 132.828 61.6358C132.703 61.5528 132.606 61.4346 132.549 61.2965C132.492 61.1581 132.476 61.0061 132.506 60.8593C132.535 60.7128 132.607 60.5781 132.713 60.4723C132.819 60.3666 132.954 60.2943 133.101 60.2653C133.248 60.2359 133.4 60.2509 133.539 60.3082C133.677 60.3655 133.795 60.4624 133.879 60.5869C133.962 60.7113 134.006 60.8574 134.006 61.0069C134.006 61.1064 133.987 61.2048 133.948 61.2965C133.911 61.3883 133.855 61.4717 133.784 61.5418C133.714 61.6119 133.631 61.6677 133.539 61.7059C133.447 61.7437 133.348 61.7632 133.249 61.7632ZM133.249 60.6838C133.185 60.6838 133.122 60.7029 133.069 60.7385C133.016 60.7737 132.974 60.8244 132.95 60.8835C132.925 60.9423 132.919 61.0072 132.931 61.07C132.944 61.1328 132.975 61.1904 133.02 61.2356C133.065 61.2808 133.123 61.3116 133.186 61.3237C133.248 61.3362 133.313 61.33 133.373 61.3054C133.432 61.2811 133.482 61.2396 133.518 61.1864C133.554 61.1335 133.572 61.0708 133.572 61.0069C133.572 60.9213 133.538 60.8391 133.478 60.7785C133.417 60.7179 133.335 60.6838 133.249 60.6838Z" fill="#274B5B"/>
<path opacity="0.2" d="M133.248 62.413C132.97 62.413 132.699 62.3308 132.468 62.1769C132.237 62.0227 132.057 61.8035 131.951 61.5473C131.844 61.291 131.817 61.0091 131.871 60.737C131.925 60.465 132.059 60.2149 132.255 60.0189C132.452 59.8228 132.702 59.6892 132.975 59.6352C133.247 59.5809 133.529 59.6088 133.786 59.7149C134.043 59.821 134.262 60.0009 134.416 60.2315C134.571 60.462 134.653 60.7333 134.653 61.0105C134.653 61.3824 134.505 61.7393 134.242 62.0025C133.978 62.2654 133.621 62.413 133.248 62.413ZM133.248 60.4708C133.141 60.4708 133.037 60.5028 132.948 60.5619C132.859 60.6214 132.79 60.7054 132.749 60.8042C132.708 60.9026 132.698 61.0113 132.718 61.1159C132.739 61.2205 132.791 61.3167 132.866 61.3923C132.942 61.4676 133.038 61.519 133.143 61.5399C133.248 61.5609 133.357 61.5502 133.456 61.5091C133.554 61.4683 133.639 61.3993 133.698 61.3105C133.757 61.2216 133.789 61.1174 133.789 61.0105C133.789 60.8677 133.732 60.7304 133.631 60.6291C133.529 60.5277 133.392 60.4708 133.248 60.4708Z" fill="#274B5B"/>
<path d="M133.249 115.476C133.099 115.476 132.953 115.431 132.828 115.348C132.703 115.265 132.606 115.147 132.549 115.009C132.492 114.871 132.476 114.719 132.506 114.572C132.535 114.425 132.607 114.291 132.713 114.185C132.819 114.079 132.954 114.007 133.101 113.978C133.248 113.948 133.4 113.963 133.539 114.021C133.677 114.078 133.795 114.175 133.879 114.299C133.962 114.423 134.006 114.57 134.006 114.719C134.006 114.92 133.926 115.112 133.784 115.254C133.643 115.396 133.45 115.476 133.249 115.476ZM133.249 114.396C133.185 114.396 133.122 114.415 133.069 114.451C133.016 114.486 132.974 114.537 132.95 114.596C132.925 114.655 132.919 114.72 132.931 114.783C132.944 114.845 132.975 114.903 133.02 114.948C133.065 114.993 133.123 115.024 133.186 115.036C133.248 115.049 133.313 115.042 133.373 115.018C133.432 114.994 133.482 114.952 133.518 114.899C133.554 114.846 133.572 114.783 133.572 114.719C133.572 114.635 133.537 114.553 133.476 114.493C133.416 114.433 133.334 114.4 133.249 114.4V114.396Z" fill="#274B5B"/>
<path opacity="0.2" d="M133.248 116.126C132.97 116.126 132.699 116.043 132.468 115.889C132.237 115.735 132.057 115.516 131.951 115.26C131.844 115.004 131.817 114.722 131.871 114.45C131.925 114.177 132.059 113.927 132.255 113.731C132.452 113.535 132.702 113.402 132.975 113.348C133.247 113.293 133.529 113.321 133.786 113.427C134.043 113.534 134.262 113.713 134.416 113.944C134.571 114.175 134.653 114.446 134.653 114.723C134.653 115.095 134.505 115.452 134.242 115.715C133.978 115.978 133.621 116.126 133.248 116.126ZM133.248 114.183C133.141 114.183 133.037 114.215 132.948 114.274C132.859 114.334 132.79 114.418 132.749 114.517C132.708 114.615 132.698 114.724 132.718 114.828C132.739 114.933 132.791 115.029 132.866 115.105C132.942 115.18 133.038 115.232 133.143 115.252C133.248 115.273 133.357 115.263 133.456 115.222C133.554 115.181 133.639 115.112 133.698 115.023C133.757 114.934 133.789 114.83 133.789 114.723C133.789 114.652 133.776 114.581 133.749 114.516C133.722 114.45 133.682 114.39 133.632 114.339C133.582 114.289 133.522 114.249 133.456 114.221C133.39 114.194 133.32 114.18 133.248 114.18V114.183Z" fill="#274B5B"/>
<path d="M133.484 126.478C133.334 126.478 133.188 126.434 133.063 126.351C132.939 126.268 132.841 126.15 132.784 126.011C132.727 125.873 132.712 125.721 132.741 125.575C132.77 125.428 132.843 125.293 132.948 125.187C133.054 125.082 133.189 125.01 133.336 124.98C133.483 124.951 133.635 124.966 133.774 125.024C133.912 125.081 134.031 125.178 134.114 125.302C134.197 125.426 134.241 125.572 134.241 125.722C134.241 125.923 134.162 126.115 134.02 126.257C133.878 126.399 133.685 126.478 133.484 126.478ZM133.484 125.399C133.42 125.399 133.357 125.418 133.304 125.453C133.251 125.489 133.21 125.539 133.185 125.598C133.161 125.658 133.154 125.723 133.167 125.785C133.179 125.848 133.21 125.905 133.255 125.951C133.3 125.996 133.358 126.027 133.421 126.039C133.484 126.052 133.549 126.045 133.608 126.021C133.667 125.996 133.717 125.955 133.753 125.902C133.789 125.848 133.807 125.786 133.807 125.722C133.807 125.637 133.774 125.554 133.713 125.494C133.652 125.433 133.57 125.399 133.484 125.399Z" fill="#274B5B"/>
<path opacity="0.2" d="M133.484 127.125C133.206 127.125 132.934 127.043 132.703 126.889C132.472 126.735 132.292 126.516 132.186 126.26C132.08 126.003 132.052 125.721 132.106 125.449C132.16 125.177 132.294 124.927 132.49 124.731C132.687 124.535 132.937 124.402 133.21 124.347C133.482 124.293 133.765 124.321 134.021 124.427C134.278 124.533 134.498 124.713 134.652 124.944C134.806 125.174 134.888 125.446 134.888 125.723C134.888 126.095 134.741 126.452 134.477 126.715C134.214 126.978 133.856 127.125 133.484 127.125ZM133.484 125.183C133.377 125.183 133.272 125.215 133.184 125.274C133.095 125.333 133.025 125.418 132.984 125.517C132.944 125.615 132.933 125.724 132.953 125.828C132.974 125.933 133.026 126.029 133.102 126.105C133.177 126.18 133.273 126.231 133.378 126.252C133.483 126.273 133.592 126.262 133.691 126.221C133.789 126.181 133.874 126.112 133.933 126.023C133.993 125.934 134.024 125.83 134.024 125.723C134.021 125.582 133.963 125.447 133.862 125.348C133.761 125.25 133.625 125.194 133.484 125.194V125.183Z" fill="#274B5B"/>
<path d="M125.026 112.458C124.877 112.458 124.73 112.414 124.606 112.331C124.481 112.248 124.384 112.13 124.327 111.992C124.269 111.853 124.254 111.701 124.284 111.555C124.313 111.408 124.385 111.273 124.491 111.167C124.597 111.062 124.732 110.989 124.879 110.96C125.026 110.931 125.178 110.946 125.316 111.003C125.455 111.061 125.573 111.157 125.656 111.282C125.74 111.406 125.784 111.552 125.784 111.702C125.784 111.903 125.704 112.095 125.562 112.237C125.42 112.379 125.227 112.458 125.026 112.458ZM125.026 111.379C124.962 111.379 124.9 111.398 124.847 111.434C124.794 111.469 124.752 111.519 124.727 111.579C124.703 111.637 124.696 111.702 124.709 111.765C124.722 111.828 124.752 111.885 124.798 111.931C124.843 111.976 124.901 112.007 124.963 112.019C125.026 112.031 125.091 112.025 125.15 112C125.209 111.976 125.26 111.935 125.296 111.881C125.331 111.829 125.35 111.766 125.35 111.702C125.35 111.616 125.316 111.534 125.255 111.474C125.195 111.413 125.112 111.379 125.026 111.379Z" fill="#274B5B"/>
<path opacity="0.2" d="M125.026 113.104C124.749 113.104 124.477 113.022 124.246 112.868C124.015 112.713 123.835 112.495 123.728 112.238C123.622 111.982 123.594 111.7 123.649 111.428C123.703 111.156 123.837 110.906 124.033 110.71C124.229 110.513 124.48 110.38 124.752 110.326C125.025 110.272 125.307 110.299 125.564 110.406C125.82 110.512 126.04 110.692 126.194 110.922C126.349 111.153 126.431 111.424 126.431 111.702C126.431 112.073 126.283 112.43 126.019 112.693C125.756 112.956 125.399 113.104 125.026 113.104ZM125.026 111.162C124.919 111.162 124.815 111.193 124.726 111.253C124.637 111.312 124.568 111.396 124.527 111.495C124.486 111.594 124.475 111.702 124.496 111.807C124.517 111.912 124.568 112.008 124.644 112.083C124.72 112.159 124.816 112.21 124.921 112.231C125.026 112.252 125.134 112.241 125.233 112.2C125.332 112.159 125.416 112.09 125.476 112.001C125.535 111.913 125.567 111.808 125.567 111.702C125.567 111.558 125.51 111.421 125.409 111.32C125.307 111.219 125.17 111.162 125.026 111.162Z" fill="#274B5B"/>
<path d="M125.026 123.456C124.877 123.456 124.73 123.412 124.606 123.329C124.481 123.246 124.384 123.128 124.327 122.99C124.269 122.851 124.254 122.699 124.284 122.553C124.313 122.406 124.385 122.271 124.491 122.166C124.597 122.06 124.732 121.988 124.879 121.959C125.026 121.93 125.178 121.944 125.316 122.002C125.455 122.059 125.573 122.156 125.656 122.28C125.74 122.405 125.784 122.551 125.784 122.7C125.784 122.901 125.704 123.093 125.562 123.235C125.42 123.377 125.227 123.456 125.026 123.456ZM125.026 122.377C124.962 122.377 124.9 122.396 124.847 122.432C124.794 122.467 124.752 122.518 124.727 122.577C124.703 122.636 124.696 122.701 124.709 122.763C124.722 122.826 124.752 122.884 124.798 122.929C124.843 122.974 124.901 123.005 124.963 123.017C125.026 123.03 125.091 123.023 125.15 122.999C125.209 122.974 125.26 122.933 125.296 122.88C125.331 122.827 125.35 122.764 125.35 122.7C125.349 122.615 125.315 122.534 125.254 122.474C125.193 122.415 125.112 122.381 125.026 122.381V122.377Z" fill="#274B5B"/>
<path opacity="0.2" d="M125.026 124.092C124.749 124.092 124.477 124.01 124.246 123.856C124.015 123.702 123.835 123.483 123.728 123.226C123.622 122.97 123.594 122.688 123.649 122.416C123.703 122.144 123.837 121.894 124.033 121.698C124.229 121.502 124.48 121.368 124.752 121.314C125.025 121.26 125.307 121.288 125.564 121.394C125.82 121.5 126.04 121.68 126.194 121.911C126.349 122.141 126.431 122.412 126.431 122.69C126.431 123.062 126.283 123.418 126.019 123.682C125.756 123.944 125.399 124.092 125.026 124.092ZM125.026 122.15C124.919 122.15 124.815 122.182 124.726 122.241C124.637 122.3 124.568 122.385 124.527 122.483C124.486 122.582 124.475 122.69 124.496 122.795C124.517 122.9 124.568 122.996 124.644 123.071C124.72 123.147 124.816 123.198 124.921 123.219C125.026 123.24 125.134 123.229 125.233 123.188C125.332 123.147 125.416 123.078 125.476 122.99C125.535 122.901 125.567 122.796 125.567 122.69C125.563 122.549 125.504 122.416 125.403 122.318C125.302 122.22 125.167 122.165 125.026 122.165V122.15Z" fill="#274B5B"/>
<path d="M125.688 86.571C125.538 86.571 125.392 86.5266 125.267 86.4436C125.143 86.3603 125.046 86.2421 124.988 86.104C124.931 85.966 124.916 85.8136 124.945 85.6671C124.974 85.5203 125.046 85.3856 125.153 85.2798C125.259 85.1741 125.394 85.1021 125.54 85.0727C125.687 85.0437 125.84 85.0588 125.978 85.1157C126.117 85.173 126.235 85.2699 126.318 85.3944C126.401 85.5188 126.446 85.6649 126.446 85.8147C126.446 86.0152 126.366 86.2076 126.224 86.3493C126.082 86.4914 125.889 86.571 125.688 86.571ZM125.688 85.4917C125.624 85.4917 125.562 85.5104 125.508 85.546C125.455 85.5816 125.414 85.6319 125.389 85.691C125.365 85.7501 125.358 85.8151 125.371 85.8775C125.383 85.9403 125.414 85.9979 125.459 86.0431C125.505 86.0883 125.562 86.1191 125.625 86.1316C125.688 86.1441 125.753 86.1374 125.812 86.1132C125.871 86.0886 125.922 86.0471 125.957 85.9943C125.993 85.941 126.012 85.8786 126.012 85.8147C126.012 85.7288 125.978 85.6466 125.917 85.586C125.856 85.5254 125.774 85.4917 125.688 85.4917Z" fill="#274B5B"/>
<path opacity="0.2" d="M125.688 87.2179C125.41 87.2179 125.139 87.1357 124.908 86.9815C124.677 86.8273 124.497 86.6085 124.391 86.3522C124.284 86.0959 124.256 85.814 124.311 85.5419C124.365 85.2699 124.499 85.0199 124.695 84.8238C124.892 84.6274 125.142 84.4941 125.414 84.4398C125.687 84.3858 125.969 84.4137 126.226 84.5198C126.483 84.6259 126.702 84.8054 126.856 85.0364C127.011 85.2669 127.093 85.5379 127.093 85.8154C127.093 86.1874 126.945 86.5442 126.682 86.8071C126.418 87.0699 126.061 87.2179 125.688 87.2179ZM125.688 85.2758C125.581 85.2758 125.477 85.3073 125.388 85.3668C125.299 85.4259 125.23 85.5104 125.189 85.6087C125.148 85.7075 125.138 85.8162 125.158 85.9208C125.179 86.0254 125.231 86.1216 125.306 86.1969C125.382 86.2725 125.478 86.3239 125.583 86.3449C125.688 86.3654 125.797 86.3548 125.895 86.314C125.994 86.2733 126.079 86.2039 126.138 86.1154C126.197 86.0266 126.229 85.9223 126.229 85.8154C126.229 85.6723 126.172 85.5349 126.07 85.4336C125.969 85.3327 125.832 85.2758 125.688 85.2758Z" fill="#274B5B"/>
<path d="M142.971 41.4862C142.822 41.4862 142.675 41.4418 142.551 41.3588C142.426 41.2754 142.329 41.1576 142.272 41.0192C142.214 40.8811 142.199 40.7291 142.229 40.5823C142.258 40.4354 142.33 40.3007 142.436 40.195C142.542 40.0892 142.677 40.0173 142.824 39.9879C142.971 39.9589 143.123 39.9739 143.261 40.0312C143.4 40.0885 143.518 40.1854 143.601 40.3095C143.684 40.434 143.729 40.5801 143.729 40.7299C143.729 40.829 143.709 40.9274 143.671 41.0192C143.633 41.111 143.577 41.1943 143.507 41.2648C143.437 41.3349 143.353 41.3907 143.261 41.4285C143.17 41.4667 143.071 41.4862 142.971 41.4862ZM142.971 40.4068C142.907 40.4068 142.845 40.4259 142.792 40.4611C142.739 40.4968 142.697 40.547 142.672 40.6062C142.648 40.6653 142.641 40.7302 142.654 40.793C142.667 40.8554 142.697 40.9131 142.743 40.9582C142.788 41.0034 142.846 41.0342 142.908 41.0467C142.971 41.0592 143.036 41.053 143.095 41.0284C143.154 41.0038 143.205 40.9626 143.241 40.9094C143.276 40.8562 143.295 40.7938 143.295 40.7299C143.295 40.6443 143.261 40.5621 143.2 40.5015C143.139 40.4409 143.057 40.4068 142.971 40.4068Z" fill="#274B5B"/>
<path opacity="0.2" d="M142.971 42.1331C142.693 42.1331 142.422 42.0508 142.191 41.8966C141.96 41.7428 141.78 41.5236 141.673 41.2674C141.567 41.0111 141.539 40.7291 141.593 40.4571C141.648 40.185 141.782 39.935 141.978 39.739C142.174 39.5429 142.425 39.4093 142.697 39.3549C142.97 39.301 143.252 39.3289 143.509 39.435C143.765 39.5411 143.985 39.721 144.139 39.9515C144.293 40.1821 144.376 40.4534 144.376 40.7306C144.376 41.1025 144.228 41.4594 143.964 41.7222C143.701 41.9855 143.344 42.1331 142.971 42.1331ZM142.971 40.1909C142.864 40.1909 142.76 40.2225 142.671 40.282C142.582 40.3411 142.513 40.4255 142.472 40.5243C142.431 40.6227 142.42 40.7313 142.441 40.836C142.462 40.9406 142.513 41.0368 142.589 41.1124C142.664 41.1877 142.761 41.2391 142.866 41.26C142.97 41.2809 143.079 41.2699 143.178 41.2292C143.277 41.1884 143.361 41.1194 143.42 41.0306C143.48 40.9417 143.512 40.8374 143.512 40.7306C143.512 40.5874 143.455 40.4501 143.353 40.3491C143.252 40.2478 143.115 40.1909 142.971 40.1909Z" fill="#274B5B"/>
<path d="M115.749 41.4862C115.599 41.4862 115.452 41.4418 115.328 41.3588C115.203 41.2754 115.106 41.1576 115.049 41.0192C114.992 40.8811 114.976 40.7291 115.006 40.5823C115.035 40.4354 115.107 40.3007 115.213 40.195C115.319 40.0892 115.454 40.0173 115.601 39.9879C115.748 39.9589 115.9 39.9739 116.038 40.0312C116.177 40.0885 116.295 40.1854 116.379 40.3095C116.462 40.434 116.506 40.5801 116.506 40.7299C116.506 40.829 116.487 40.9274 116.448 41.0192C116.411 41.111 116.355 41.1943 116.284 41.2648C116.214 41.3349 116.13 41.3907 116.038 41.4285C115.947 41.4667 115.848 41.4862 115.749 41.4862ZM115.749 40.4068C115.685 40.4068 115.622 40.4259 115.569 40.4611C115.516 40.4968 115.474 40.547 115.45 40.6062C115.425 40.6653 115.419 40.7302 115.431 40.793C115.444 40.8554 115.475 40.9131 115.52 40.9582C115.565 41.0034 115.623 41.0342 115.685 41.0467C115.748 41.0592 115.813 41.053 115.873 41.0284C115.932 41.0038 115.982 40.9626 116.018 40.9094C116.053 40.8562 116.072 40.7938 116.072 40.7299C116.072 40.6443 116.038 40.5621 115.977 40.5015C115.917 40.4409 115.834 40.4068 115.749 40.4068Z" fill="#274B5B"/>
<path opacity="0.2" d="M115.748 42.1331C115.471 42.1331 115.199 42.0508 114.968 41.8966C114.737 41.7428 114.557 41.5236 114.451 41.2674C114.344 41.0111 114.316 40.7291 114.371 40.4571C114.425 40.185 114.559 39.935 114.755 39.739C114.952 39.5429 115.202 39.4093 115.474 39.3549C115.747 39.301 116.029 39.3289 116.286 39.435C116.543 39.5411 116.762 39.721 116.916 39.9515C117.071 40.1821 117.153 40.4534 117.153 40.7306C117.153 41.1025 117.005 41.4594 116.742 41.7222C116.478 41.9855 116.121 42.1331 115.748 42.1331ZM115.748 40.1909C115.641 40.1909 115.537 40.2225 115.448 40.282C115.359 40.3411 115.29 40.4255 115.249 40.5243C115.208 40.6227 115.198 40.7313 115.218 40.836C115.239 40.9406 115.291 41.0368 115.366 41.1124C115.442 41.1877 115.538 41.2391 115.643 41.26C115.748 41.2809 115.856 41.2699 115.955 41.2292C116.054 41.1884 116.139 41.1194 116.198 41.0306C116.257 40.9417 116.289 40.8374 116.289 40.7306C116.289 40.5874 116.232 40.4501 116.131 40.3491C116.029 40.2478 115.892 40.1909 115.748 40.1909Z" fill="#274B5B"/>
<path d="M129.362 41.4862C129.212 41.4862 129.066 41.4418 128.941 41.3588C128.817 41.2754 128.72 41.1576 128.662 41.0192C128.605 40.8811 128.59 40.7291 128.619 40.5823C128.648 40.4354 128.72 40.3007 128.826 40.195C128.932 40.0892 129.067 40.0173 129.214 39.9879C129.361 39.9589 129.513 39.9739 129.652 40.0312C129.79 40.0885 129.908 40.1854 129.992 40.3095C130.075 40.434 130.119 40.5801 130.119 40.7299C130.119 40.829 130.1 40.9274 130.062 41.0192C130.024 41.111 129.968 41.1943 129.898 41.2648C129.827 41.3349 129.744 41.3907 129.652 41.4285C129.56 41.4667 129.462 41.4862 129.362 41.4862ZM129.362 40.4068C129.298 40.4068 129.235 40.4259 129.182 40.4611C129.129 40.4968 129.088 40.547 129.063 40.6062C129.038 40.6653 129.032 40.7302 129.045 40.793C129.057 40.8554 129.088 40.9131 129.133 40.9582C129.178 41.0034 129.236 41.0342 129.299 41.0467C129.362 41.0592 129.427 41.053 129.486 41.0284C129.545 41.0038 129.595 40.9626 129.631 40.9094C129.666 40.8562 129.686 40.7938 129.686 40.7299C129.686 40.6443 129.651 40.5621 129.591 40.5015C129.53 40.4409 129.448 40.4068 129.362 40.4068Z" fill="#274B5B"/>
<path opacity="0.2" d="M129.362 42.1331C129.084 42.1331 128.812 42.0508 128.581 41.8966C128.35 41.7428 128.17 41.5236 128.064 41.2674C127.958 41.0111 127.93 40.7291 127.984 40.4571C128.038 40.185 128.172 39.935 128.368 39.739C128.565 39.5429 128.815 39.4093 129.088 39.3549C129.36 39.301 129.643 39.3289 129.899 39.435C130.156 39.5411 130.375 39.721 130.53 39.9515C130.684 40.1821 130.766 40.4534 130.766 40.7306C130.766 41.1025 130.619 41.4594 130.355 41.7222C130.092 41.9855 129.734 42.1331 129.362 42.1331ZM129.362 40.1909C129.255 40.1909 129.15 40.2225 129.062 40.282C128.973 40.3411 128.903 40.4255 128.862 40.5243C128.821 40.6227 128.811 40.7313 128.831 40.836C128.852 40.9406 128.904 41.0368 128.98 41.1124C129.055 41.1877 129.151 41.2391 129.256 41.26C129.361 41.2809 129.47 41.2699 129.569 41.2292C129.667 41.1884 129.752 41.1194 129.811 41.0306C129.871 40.9417 129.902 40.8374 129.902 40.7306C129.902 40.5874 129.845 40.4501 129.744 40.3491C129.643 40.2478 129.505 40.1909 129.362 40.1909Z" fill="#274B5B"/>
<path d="M125.688 139.853C125.538 139.853 125.392 139.809 125.267 139.725C125.143 139.642 125.046 139.524 124.988 139.386C124.931 139.248 124.916 139.096 124.945 138.949C124.974 138.802 125.046 138.668 125.153 138.562C125.259 138.456 125.394 138.384 125.54 138.355C125.687 138.326 125.84 138.341 125.978 138.398C126.117 138.455 126.235 138.552 126.318 138.677C126.401 138.801 126.446 138.947 126.446 139.097C126.446 139.297 126.366 139.49 126.224 139.631C126.082 139.774 125.889 139.853 125.688 139.853ZM125.688 138.774C125.624 138.774 125.562 138.793 125.508 138.828C125.455 138.864 125.414 138.914 125.389 138.973C125.365 139.032 125.358 139.097 125.371 139.16C125.383 139.222 125.414 139.28 125.459 139.325C125.505 139.37 125.562 139.401 125.625 139.414C125.688 139.426 125.753 139.42 125.812 139.395C125.871 139.371 125.922 139.329 125.957 139.276C125.993 139.223 126.012 139.161 126.012 139.097C126.011 139.012 125.976 138.931 125.916 138.871C125.855 138.811 125.773 138.778 125.688 138.778V138.774Z" fill="#274B5B"/>
<path opacity="0.2" d="M125.688 140.5C125.41 140.5 125.139 140.418 124.908 140.264C124.677 140.11 124.497 139.891 124.391 139.635C124.284 139.378 124.256 139.096 124.311 138.824C124.365 138.552 124.499 138.302 124.695 138.106C124.892 137.91 125.142 137.776 125.414 137.722C125.687 137.668 125.969 137.696 126.226 137.802C126.483 137.908 126.702 138.088 126.856 138.318C127.011 138.549 127.093 138.82 127.093 139.098C127.093 139.47 126.945 139.827 126.682 140.089C126.418 140.352 126.061 140.5 125.688 140.5ZM125.688 138.558C125.581 138.558 125.477 138.59 125.388 138.649C125.299 138.708 125.23 138.793 125.189 138.891C125.148 138.99 125.138 139.098 125.158 139.203C125.179 139.308 125.231 139.404 125.306 139.479C125.382 139.555 125.478 139.606 125.583 139.627C125.688 139.648 125.797 139.637 125.895 139.596C125.994 139.556 126.079 139.486 126.138 139.397C126.197 139.309 126.229 139.205 126.229 139.098C126.229 138.955 126.172 138.817 126.07 138.716C125.969 138.615 125.832 138.558 125.688 138.558Z" fill="#274B5B"/>
<path d="M125.688 155.666C125.538 155.666 125.392 155.621 125.267 155.538C125.143 155.455 125.046 155.337 124.988 155.199C124.931 155.061 124.916 154.909 124.945 154.762C124.974 154.615 125.046 154.48 125.153 154.375C125.259 154.269 125.394 154.197 125.54 154.168C125.687 154.139 125.84 154.154 125.978 154.211C126.117 154.268 126.235 154.365 126.318 154.489C126.401 154.614 126.446 154.76 126.446 154.91C126.446 155.11 126.366 155.302 126.224 155.444C126.082 155.586 125.889 155.666 125.688 155.666ZM125.688 154.586C125.624 154.586 125.562 154.606 125.508 154.641C125.455 154.676 125.414 154.727 125.389 154.786C125.365 154.845 125.358 154.91 125.371 154.973C125.383 155.035 125.414 155.093 125.459 155.138C125.505 155.183 125.562 155.214 125.625 155.226C125.688 155.239 125.753 155.233 125.812 155.208C125.871 155.183 125.922 155.142 125.957 155.089C125.993 155.036 126.012 154.973 126.012 154.91C126.01 154.825 125.975 154.745 125.915 154.686C125.854 154.627 125.773 154.594 125.688 154.594V154.586Z" fill="#274B5B"/>
<path opacity="0.2" d="M125.688 156.32C125.41 156.32 125.139 156.238 124.908 156.084C124.677 155.93 124.497 155.71 124.391 155.454C124.284 155.198 124.256 154.916 124.311 154.644C124.365 154.372 124.499 154.122 124.695 153.926C124.892 153.73 125.142 153.596 125.414 153.542C125.687 153.488 125.969 153.516 126.226 153.622C126.483 153.728 126.702 153.908 126.856 154.138C127.011 154.369 127.093 154.64 127.093 154.918C127.093 155.29 126.945 155.646 126.682 155.909C126.418 156.172 126.061 156.32 125.688 156.32ZM125.688 154.378C125.581 154.378 125.477 154.41 125.388 154.469C125.299 154.528 125.23 154.612 125.189 154.711C125.148 154.81 125.138 154.918 125.158 155.023C125.179 155.128 125.231 155.224 125.306 155.299C125.382 155.375 125.478 155.426 125.583 155.447C125.688 155.468 125.797 155.457 125.895 155.416C125.994 155.375 126.079 155.306 126.138 155.217C126.197 155.129 126.229 155.024 126.229 154.918C126.229 154.775 126.172 154.637 126.07 154.536C125.969 154.435 125.832 154.378 125.688 154.378Z" fill="#274B5B"/>
<path d="M125.688 171.493C125.538 171.493 125.392 171.448 125.267 171.365C125.143 171.282 125.046 171.164 124.988 171.026C124.931 170.888 124.916 170.736 124.945 170.589C124.974 170.442 125.046 170.308 125.153 170.202C125.259 170.096 125.394 170.024 125.54 169.995C125.687 169.966 125.84 169.981 125.978 170.038C126.117 170.095 126.235 170.192 126.318 170.316C126.401 170.441 126.446 170.587 126.446 170.736C126.446 170.937 126.366 171.13 126.224 171.271C126.082 171.413 125.889 171.493 125.688 171.493ZM125.688 170.413C125.624 170.413 125.562 170.432 125.508 170.468C125.455 170.503 125.414 170.554 125.389 170.613C125.365 170.672 125.358 170.737 125.371 170.8C125.383 170.862 125.414 170.92 125.459 170.965C125.505 171.01 125.562 171.041 125.625 171.053C125.688 171.066 125.753 171.06 125.812 171.035C125.871 171.011 125.922 170.969 125.957 170.916C125.993 170.863 126.012 170.8 126.012 170.736C126.012 170.651 125.978 170.569 125.917 170.508C125.856 170.448 125.774 170.413 125.688 170.413Z" fill="#274B5B"/>
<path opacity="0.2" d="M125.688 172.14C125.41 172.14 125.139 172.057 124.908 171.904C124.677 171.749 124.497 171.53 124.391 171.274C124.284 171.018 124.256 170.736 124.311 170.464C124.365 170.192 124.499 169.942 124.695 169.746C124.892 169.55 125.142 169.416 125.414 169.362C125.687 169.308 125.969 169.335 126.226 169.442C126.483 169.548 126.702 169.728 126.856 169.958C127.011 170.189 127.093 170.46 127.093 170.737C127.093 171.109 126.945 171.466 126.682 171.729C126.418 171.992 126.061 172.14 125.688 172.14ZM125.688 170.198C125.581 170.198 125.477 170.229 125.388 170.289C125.299 170.348 125.23 170.432 125.189 170.531C125.148 170.63 125.138 170.738 125.158 170.843C125.179 170.947 125.231 171.043 125.306 171.119C125.382 171.194 125.478 171.246 125.583 171.267C125.688 171.288 125.797 171.277 125.895 171.236C125.994 171.195 126.079 171.126 126.138 171.037C126.197 170.948 126.229 170.844 126.229 170.737C126.229 170.594 126.172 170.457 126.07 170.356C125.969 170.254 125.832 170.198 125.688 170.198Z" fill="#274B5B"/>
<path d="M125.688 187.31C125.538 187.31 125.392 187.265 125.267 187.182C125.143 187.099 125.046 186.981 124.988 186.843C124.931 186.705 124.916 186.553 124.945 186.406C124.974 186.259 125.046 186.125 125.153 186.019C125.259 185.913 125.394 185.841 125.54 185.812C125.687 185.783 125.84 185.798 125.978 185.855C126.117 185.912 126.235 186.009 126.318 186.134C126.401 186.258 126.446 186.404 126.446 186.554C126.446 186.754 126.366 186.947 126.224 187.088C126.082 187.23 125.889 187.31 125.688 187.31ZM125.688 186.23C125.624 186.23 125.562 186.25 125.508 186.285C125.455 186.32 125.414 186.371 125.389 186.43C125.365 186.489 125.358 186.554 125.371 186.617C125.383 186.679 125.414 186.737 125.459 186.782C125.505 186.827 125.562 186.858 125.625 186.87C125.688 186.883 125.753 186.877 125.812 186.852C125.871 186.828 125.922 186.786 125.957 186.733C125.993 186.68 126.012 186.617 126.012 186.554C126.012 186.468 125.978 186.386 125.917 186.325C125.856 186.265 125.774 186.23 125.688 186.23Z" fill="#274B5B"/>
<path opacity="0.2" d="M125.688 187.974C125.41 187.974 125.139 187.892 124.908 187.738C124.677 187.584 124.497 187.364 124.391 187.108C124.284 186.852 124.256 186.57 124.311 186.298C124.365 186.026 124.499 185.776 124.695 185.58C124.892 185.384 125.142 185.25 125.414 185.196C125.687 185.142 125.969 185.17 126.226 185.276C126.483 185.382 126.702 185.562 126.856 185.792C127.011 186.023 127.093 186.294 127.093 186.571C127.093 186.943 126.945 187.3 126.682 187.563C126.418 187.826 126.061 187.974 125.688 187.974ZM125.688 186.032C125.581 186.032 125.477 186.064 125.388 186.123C125.299 186.182 125.23 186.266 125.189 186.365C125.148 186.463 125.138 186.572 125.158 186.677C125.179 186.781 125.231 186.878 125.306 186.953C125.382 187.029 125.478 187.08 125.583 187.101C125.688 187.122 125.797 187.111 125.895 187.07C125.994 187.029 126.079 186.96 126.138 186.871C126.197 186.783 126.229 186.678 126.229 186.571C126.231 186.499 126.218 186.428 126.192 186.361C126.166 186.294 126.126 186.232 126.076 186.18C126.026 186.129 125.965 186.088 125.899 186.06C125.832 186.032 125.76 186.017 125.688 186.017V186.032Z" fill="#274B5B"/>
<path opacity="0.6" d="M130.656 108.357C140.739 108.357 148.914 100.196 148.914 90.1285C148.914 80.0612 140.739 71.9001 130.656 71.9001C120.573 71.9001 112.398 80.0612 112.398 90.1285C112.398 100.196 120.573 108.357 130.656 108.357Z" fill="#5C7869"/>
<path d="M130.873 101.671C140.957 101.671 149.131 93.5099 149.131 83.4426C149.131 73.3753 140.957 65.2142 130.873 65.2142C120.79 65.2142 112.616 73.3753 112.616 83.4426C112.616 93.5099 120.79 101.671 130.873 101.671Z" fill="#94E0F7"/>
<path opacity="0.2" d="M130.656 100.596C127.515 100.596 124.445 99.666 121.833 97.9236C119.221 96.1812 117.185 93.7048 115.983 90.8074C114.781 87.9099 114.467 84.7217 115.079 81.6458C115.692 78.57 117.205 75.7445 119.426 73.527C121.647 71.3095 124.477 69.7991 127.558 69.1874C130.639 68.5758 133.832 68.8897 136.734 70.0898C139.636 71.29 142.117 73.3221 143.862 75.9299C145.607 78.5377 146.538 81.6033 146.538 84.7393C146.535 88.9438 144.86 92.9746 141.882 95.9473C138.905 98.9204 134.868 100.592 130.656 100.596ZM130.656 69.9657C127.729 69.9657 124.868 70.8325 122.433 72.456C119.999 74.0799 118.102 76.3877 116.982 79.088C115.862 81.7883 115.569 84.7595 116.14 87.6258C116.711 90.4924 118.121 93.1255 120.19 95.1921C122.26 97.2587 124.898 98.6663 127.769 99.2365C130.64 99.8067 133.616 99.514 136.32 98.3954C139.025 97.2771 141.337 95.383 142.963 92.9529C144.589 90.5229 145.457 87.6658 145.457 84.743C145.454 80.8246 143.894 77.0669 141.119 74.2958C138.344 71.5246 134.581 69.9661 130.656 69.9621V69.9657Z" fill="#274B5B"/>
<path d="M136.981 67.1861L126.563 102.119C123.904 101.406 121.442 100.1 119.363 98.2973L128.869 66.4518C131.594 66.0858 134.366 66.3366 136.981 67.1861Z" fill="white"/>
<path d="M142.78 70.3479L133.142 102.656C132.531 102.718 131.918 102.749 131.304 102.748C130.566 102.748 129.829 102.704 129.097 102.616L139.368 68.1671C140.583 68.7655 141.727 69.4969 142.78 70.3479Z" fill="white"/>
<path opacity="0.8" d="M117.8 88.5832C117.697 88.5828 117.598 88.5454 117.519 88.4782C117.441 88.411 117.39 88.3181 117.374 88.2161C116.75 84.2671 117.502 80.2239 119.503 76.7614C120.635 74.8229 121.967 73.6591 123.463 73.3103C123.52 73.2923 123.581 73.2861 123.64 73.2919C123.7 73.2982 123.757 73.3165 123.809 73.3459C123.862 73.3753 123.907 73.4153 123.943 73.463C123.978 73.5108 124.004 73.5655 124.018 73.6235C124.032 73.6818 124.033 73.742 124.023 73.8008C124.012 73.8595 123.989 73.9153 123.956 73.9649C123.922 74.0145 123.879 74.0567 123.828 74.0886C123.778 74.1206 123.721 74.1419 123.662 74.151C122.408 74.4447 121.261 75.4727 120.253 77.1983C118.352 80.4893 117.638 84.3314 118.231 88.0839C118.239 88.1404 118.237 88.1981 118.223 88.2535C118.21 88.309 118.185 88.3615 118.15 88.407C118.116 88.4529 118.073 88.4914 118.024 88.5204C117.974 88.5494 117.92 88.5682 117.863 88.5759L117.8 88.5832Z" fill="white"/>
<path d="M143.188 85.9098C143.038 85.9098 142.892 85.8653 142.767 85.7824C142.643 85.699 142.546 85.5812 142.488 85.4428C142.431 85.3047 142.416 85.1527 142.445 85.0059C142.474 84.859 142.546 84.7243 142.652 84.6185C142.759 84.5128 142.894 84.4409 143.04 84.4115C143.187 84.3825 143.34 84.3975 143.478 84.4548C143.617 84.5121 143.735 84.609 143.818 84.7331C143.901 84.8576 143.946 85.0037 143.946 85.1535C143.946 85.3539 143.866 85.5463 143.724 85.6884C143.582 85.8301 143.389 85.9098 143.188 85.9098ZM143.188 84.8304C143.124 84.8304 143.062 84.8495 143.008 84.8847C142.955 84.9203 142.914 84.9706 142.889 85.0297C142.865 85.0889 142.858 85.1538 142.871 85.2166C142.883 85.279 142.914 85.3367 142.959 85.3818C143.005 85.427 143.062 85.4578 143.125 85.4703C143.188 85.4828 143.253 85.4765 143.312 85.4519C143.371 85.4274 143.422 85.3862 143.457 85.333C143.493 85.2798 143.512 85.2173 143.512 85.1535C143.508 85.0705 143.472 84.9919 143.412 84.9343C143.352 84.877 143.272 84.8451 143.188 84.8451V84.8304Z" fill="#274B5B"/>
<path opacity="0.2" d="M143.188 86.571C142.911 86.571 142.639 86.4887 142.408 86.3345C142.177 86.1807 141.997 85.9615 141.891 85.7052C141.784 85.449 141.756 85.167 141.811 84.895C141.865 84.6229 141.999 84.3729 142.195 84.1768C142.391 83.9808 142.642 83.8472 142.914 83.7932C143.187 83.7388 143.469 83.7668 143.726 83.8729C143.983 83.979 144.202 84.1589 144.357 84.3894C144.511 84.62 144.593 84.8913 144.593 85.1685C144.593 85.5404 144.445 85.8973 144.182 86.1601C143.918 86.4234 143.561 86.571 143.188 86.571ZM143.188 84.6288C143.082 84.6288 142.977 84.6604 142.888 84.7198C142.799 84.7789 142.73 84.8634 142.689 84.9622C142.648 85.0605 142.637 85.1692 142.658 85.2739C142.679 85.3785 142.73 85.4747 142.806 85.5503C142.882 85.6256 142.978 85.677 143.083 85.6979C143.188 85.7188 143.296 85.7082 143.395 85.6671C143.494 85.6263 143.578 85.5573 143.638 85.4684C143.697 85.3796 143.729 85.2753 143.729 85.1685C143.729 85.0976 143.715 85.0275 143.688 84.9622C143.661 84.8964 143.621 84.837 143.571 84.787C143.52 84.7367 143.461 84.6971 143.395 84.6699C143.33 84.6427 143.259 84.6288 143.188 84.6288Z" fill="#274B5B"/>
<path d="M130.656 105.229C126.597 105.229 122.628 104.027 119.252 101.775C115.877 99.5236 113.246 96.3229 111.692 92.5781C110.139 88.8333 109.732 84.7129 110.524 80.7375C111.316 76.7621 113.271 73.1102 116.142 70.2444C119.013 67.3781 122.67 65.4264 126.652 64.6356C130.633 63.8448 134.761 64.2508 138.512 65.802C142.262 67.3528 145.468 69.9797 147.723 73.35C149.979 76.7199 151.183 80.6821 151.183 84.7353C151.177 90.1689 149.012 95.3782 145.164 99.2203C141.316 103.062 136.099 105.223 130.656 105.229ZM130.656 68.7721C127.494 68.7721 124.403 69.7087 121.773 71.4625C119.144 73.2167 117.095 75.7096 115.885 78.6265C114.675 81.5434 114.358 84.7533 114.975 87.8497C115.592 90.9461 117.114 93.7907 119.351 96.0233C121.587 98.2555 124.435 99.7758 127.537 100.392C130.639 101.008 133.853 100.692 136.775 99.4835C139.696 98.2753 142.194 96.2292 143.951 93.6042C145.707 90.9788 146.645 87.8927 146.645 84.7353C146.639 80.504 144.953 76.4475 141.955 73.4557C138.958 70.4639 134.895 68.7809 130.656 68.7758V68.7721Z" fill="#274B5B"/>
<path d="M119.073 189.035V157.557C119.06 146.91 123.078 136.652 130.321 128.839C137.433 136.63 141.368 146.796 141.353 157.337V188.995" fill="#ECF2FA"/>
<path d="M131.848 133.051C125.438 140.505 121.916 150.006 121.919 159.83V190.765H119.327V159.83C119.327 149.332 123.351 139.232 130.575 131.604C131.009 132.079 131.433 132.561 131.848 133.051Z" fill="white"/>
<path d="M139.191 159.22V190.331L130.248 190.349C138.57 173.652 135.929 151.154 134.242 139.684C137.49 145.685 139.191 152.399 139.191 159.22Z" fill="#8BBACC"/>
<g opacity="0.4">
<path opacity="0.4" d="M110.368 133.154C111.758 130.907 112.744 129.001 112.895 129.067C113.045 129.134 112.248 131.16 110.835 133.44C109.423 135.72 107.971 137.343 107.857 137.251C107.743 137.159 108.989 135.404 110.368 133.154Z" fill="#426270"/>
<path opacity="0.4" d="M112.573 134.578C113.467 133.059 114.086 131.765 113.954 131.688C113.823 131.611 112.992 132.78 112.097 134.299C111.204 135.818 110.585 137.112 110.716 137.189C110.848 137.266 111.679 136.097 112.573 134.578Z" fill="#426270"/>
<path opacity="0.4" d="M110.917 134.644C112.946 135.463 114.642 136.028 114.594 136.179C114.546 136.329 112.755 135.992 110.703 135.155C108.651 134.318 107.111 133.319 107.184 133.201C107.258 133.084 108.883 133.833 110.917 134.644Z" fill="#426270"/>
<path opacity="0.4" d="M112.836 134.097C114.675 134.96 116.23 135.503 116.186 135.653C116.142 135.804 114.487 135.474 112.605 134.596C110.722 133.719 109.402 132.654 109.486 132.544C109.571 132.434 110.998 133.249 112.836 134.097Z" fill="#426270"/>
</g>
<path d="M125.905 149.991C125.755 149.991 125.609 149.947 125.484 149.864C125.36 149.78 125.263 149.662 125.205 149.524C125.148 149.386 125.133 149.234 125.162 149.087C125.191 148.94 125.263 148.806 125.369 148.7C125.475 148.594 125.61 148.522 125.757 148.493C125.904 148.464 126.056 148.479 126.195 148.536C126.333 148.593 126.452 148.69 126.535 148.814C126.618 148.939 126.662 149.085 126.662 149.235C126.662 149.435 126.583 149.628 126.441 149.77C126.298 149.911 126.106 149.991 125.905 149.991ZM125.905 148.912C125.841 148.912 125.778 148.93 125.725 148.966C125.672 149.002 125.631 149.052 125.606 149.111C125.581 149.17 125.575 149.235 125.588 149.298C125.6 149.36 125.631 149.418 125.676 149.463C125.721 149.508 125.779 149.539 125.842 149.552C125.905 149.564 125.97 149.557 126.029 149.533C126.088 149.509 126.138 149.467 126.174 149.414C126.209 149.361 126.229 149.299 126.229 149.235C126.227 149.15 126.193 149.068 126.133 149.009C126.072 148.949 125.99 148.915 125.905 148.915V148.912Z" fill="#274B5B"/>
<path opacity="0.2" d="M125.905 150.641C125.627 150.641 125.356 150.559 125.125 150.404C124.894 150.25 124.714 150.031 124.607 149.775C124.501 149.519 124.473 149.237 124.528 148.965C124.582 148.693 124.716 148.443 124.912 148.247C125.108 148.05 125.359 147.917 125.631 147.863C125.904 147.809 126.186 147.837 126.443 147.943C126.699 148.049 126.919 148.228 127.073 148.459C127.227 148.69 127.31 148.961 127.31 149.238C127.31 149.61 127.162 149.967 126.898 150.23C126.635 150.493 126.278 150.641 125.905 150.641ZM125.905 148.699C125.798 148.699 125.694 148.73 125.605 148.79C125.516 148.849 125.447 148.933 125.406 149.032C125.365 149.13 125.354 149.239 125.375 149.344C125.396 149.448 125.447 149.545 125.523 149.62C125.598 149.696 125.695 149.747 125.8 149.768C125.905 149.788 126.013 149.778 126.112 149.737C126.211 149.696 126.295 149.627 126.355 149.538C126.414 149.45 126.446 149.345 126.446 149.238C126.447 149.167 126.434 149.096 126.407 149.03C126.38 148.963 126.34 148.903 126.29 148.852C126.24 148.801 126.18 148.761 126.114 148.733C126.048 148.706 125.977 148.691 125.905 148.691V148.699Z" fill="#274B5B"/>
<path d="M125.905 181.487C125.755 181.487 125.609 181.443 125.484 181.36C125.36 181.277 125.263 181.159 125.205 181.02C125.148 180.882 125.133 180.73 125.162 180.584C125.191 180.437 125.263 180.302 125.369 180.196C125.475 180.09 125.61 180.019 125.757 179.989C125.904 179.96 126.056 179.975 126.195 180.032C126.333 180.09 126.452 180.187 126.535 180.311C126.618 180.435 126.662 180.582 126.662 180.731C126.662 180.932 126.583 181.124 126.441 181.266C126.298 181.408 126.106 181.487 125.905 181.487ZM125.905 180.408C125.841 180.408 125.778 180.427 125.725 180.462C125.672 180.498 125.631 180.548 125.606 180.607C125.581 180.666 125.575 180.731 125.588 180.794C125.6 180.857 125.631 180.914 125.676 180.959C125.721 181.005 125.779 181.035 125.842 181.048C125.905 181.06 125.97 181.054 126.029 181.03C126.088 181.005 126.138 180.964 126.174 180.911C126.209 180.857 126.229 180.795 126.229 180.731C126.229 180.646 126.194 180.563 126.134 180.503C126.073 180.442 125.991 180.408 125.905 180.408Z" fill="#274B5B"/>
<path opacity="0.2" d="M125.905 182.133C125.627 182.133 125.356 182.051 125.125 181.896C124.894 181.743 124.714 181.523 124.607 181.267C124.501 181.011 124.473 180.729 124.528 180.457C124.582 180.185 124.716 179.935 124.912 179.739C125.108 179.543 125.359 179.409 125.631 179.355C125.904 179.301 126.186 179.329 126.443 179.435C126.699 179.541 126.919 179.721 127.073 179.951C127.227 180.182 127.31 180.453 127.31 180.73C127.31 181.102 127.162 181.459 126.898 181.722C126.635 181.985 126.278 182.133 125.905 182.133ZM125.905 180.191C125.798 180.191 125.694 180.222 125.605 180.282C125.516 180.341 125.447 180.425 125.406 180.524C125.365 180.622 125.354 180.731 125.375 180.836C125.396 180.94 125.447 181.037 125.523 181.112C125.598 181.187 125.695 181.239 125.8 181.26C125.905 181.281 126.013 181.27 126.112 181.229C126.211 181.188 126.295 181.119 126.355 181.03C126.414 180.941 126.446 180.837 126.446 180.73C126.446 180.587 126.389 180.45 126.288 180.349C126.186 180.248 126.049 180.191 125.905 180.191Z" fill="#274B5B"/>
<path d="M125.905 165.74C125.755 165.74 125.609 165.696 125.484 165.613C125.36 165.53 125.263 165.412 125.205 165.274C125.148 165.135 125.133 164.983 125.162 164.837C125.191 164.69 125.263 164.555 125.369 164.45C125.475 164.344 125.61 164.272 125.757 164.243C125.904 164.213 126.056 164.228 126.195 164.286C126.333 164.343 126.452 164.44 126.535 164.564C126.618 164.689 126.662 164.835 126.662 164.984C126.662 165.185 126.583 165.377 126.441 165.519C126.298 165.661 126.106 165.74 125.905 165.74ZM125.905 164.661C125.841 164.661 125.778 164.68 125.725 164.716C125.672 164.751 125.631 164.802 125.606 164.861C125.581 164.92 125.575 164.985 125.588 165.047C125.6 165.11 125.631 165.167 125.676 165.213C125.721 165.258 125.779 165.289 125.842 165.301C125.905 165.313 125.97 165.307 126.029 165.283C126.088 165.258 126.138 165.217 126.174 165.164C126.209 165.11 126.229 165.048 126.229 164.984C126.229 164.899 126.194 164.816 126.134 164.756C126.073 164.695 125.991 164.661 125.905 164.661Z" fill="#274B5B"/>
<path opacity="0.2" d="M125.905 166.386C125.627 166.386 125.356 166.304 125.125 166.15C124.894 165.996 124.714 165.777 124.607 165.52C124.501 165.264 124.473 164.982 124.528 164.71C124.582 164.438 124.716 164.188 124.912 163.992C125.108 163.796 125.359 163.662 125.631 163.608C125.904 163.554 126.186 163.582 126.443 163.688C126.699 163.794 126.919 163.974 127.073 164.204C127.227 164.435 127.31 164.706 127.31 164.984C127.31 165.356 127.162 165.712 126.898 165.976C126.635 166.238 126.278 166.386 125.905 166.386ZM125.905 164.444C125.798 164.444 125.694 164.476 125.605 164.535C125.516 164.594 125.447 164.678 125.406 164.777C125.365 164.876 125.354 164.984 125.375 165.089C125.396 165.194 125.447 165.29 125.523 165.365C125.598 165.441 125.695 165.492 125.8 165.513C125.905 165.534 126.013 165.523 126.112 165.482C126.211 165.441 126.295 165.372 126.355 165.283C126.414 165.195 126.446 165.09 126.446 164.984C126.446 164.841 126.389 164.703 126.288 164.602C126.186 164.501 126.049 164.444 125.905 164.444Z" fill="#274B5B"/>
<path d="M132.819 149.991C132.669 149.991 132.522 149.947 132.398 149.864C132.273 149.78 132.176 149.662 132.119 149.524C132.061 149.386 132.046 149.234 132.076 149.087C132.105 148.94 132.177 148.806 132.283 148.7C132.389 148.594 132.524 148.522 132.671 148.493C132.818 148.464 132.97 148.479 133.109 148.536C133.247 148.593 133.365 148.69 133.448 148.814C133.532 148.939 133.576 149.085 133.576 149.235C133.576 149.435 133.496 149.628 133.354 149.77C133.212 149.911 133.02 149.991 132.819 149.991ZM132.819 148.912C132.755 148.912 132.692 148.93 132.639 148.966C132.586 149.002 132.544 149.052 132.52 149.111C132.495 149.17 132.489 149.235 132.501 149.298C132.514 149.36 132.545 149.418 132.59 149.463C132.635 149.508 132.693 149.539 132.756 149.552C132.818 149.564 132.883 149.557 132.942 149.533C133.002 149.509 133.052 149.467 133.088 149.414C133.123 149.361 133.142 149.299 133.142 149.235C133.141 149.15 133.107 149.068 133.046 149.009C132.985 148.949 132.904 148.915 132.819 148.915V148.912Z" fill="#274B5B"/>
<path opacity="0.2" d="M132.818 150.641C132.541 150.641 132.269 150.559 132.038 150.404C131.807 150.25 131.627 150.031 131.52 149.775C131.414 149.519 131.386 149.237 131.441 148.965C131.495 148.693 131.629 148.443 131.825 148.247C132.021 148.05 132.272 147.917 132.544 147.863C132.817 147.809 133.099 147.837 133.356 147.943C133.612 148.049 133.832 148.228 133.986 148.459C134.141 148.69 134.223 148.961 134.223 149.238C134.223 149.61 134.075 149.967 133.811 150.23C133.548 150.493 133.191 150.641 132.818 150.641ZM132.818 148.699C132.711 148.699 132.607 148.73 132.518 148.79C132.429 148.849 132.36 148.933 132.319 149.032C132.278 149.13 132.267 149.239 132.288 149.344C132.309 149.448 132.36 149.545 132.436 149.62C132.512 149.696 132.608 149.747 132.713 149.768C132.818 149.788 132.926 149.778 133.025 149.737C133.124 149.696 133.208 149.627 133.268 149.538C133.327 149.45 133.359 149.345 133.359 149.238C133.36 149.167 133.347 149.096 133.32 149.03C133.293 148.963 133.253 148.903 133.203 148.852C133.153 148.801 133.093 148.761 133.027 148.733C132.961 148.706 132.89 148.691 132.818 148.691V148.699Z" fill="#274B5B"/>
<path d="M132.819 181.487C132.669 181.487 132.522 181.443 132.398 181.36C132.273 181.277 132.176 181.159 132.119 181.02C132.061 180.882 132.046 180.73 132.076 180.584C132.105 180.437 132.177 180.302 132.283 180.196C132.389 180.09 132.524 180.019 132.671 179.989C132.818 179.96 132.97 179.975 133.109 180.032C133.247 180.09 133.365 180.187 133.448 180.311C133.532 180.435 133.576 180.582 133.576 180.731C133.576 180.932 133.496 181.124 133.354 181.266C133.212 181.408 133.02 181.487 132.819 181.487ZM132.819 180.408C132.755 180.408 132.692 180.427 132.639 180.462C132.586 180.498 132.544 180.548 132.52 180.607C132.495 180.666 132.489 180.731 132.501 180.794C132.514 180.857 132.545 180.914 132.59 180.959C132.635 181.005 132.693 181.035 132.756 181.048C132.818 181.06 132.883 181.054 132.942 181.03C133.002 181.005 133.052 180.964 133.088 180.911C133.123 180.857 133.142 180.795 133.142 180.731C133.142 180.646 133.108 180.563 133.048 180.503C132.987 180.442 132.905 180.408 132.819 180.408Z" fill="#274B5B"/>
<path opacity="0.2" d="M132.818 182.133C132.541 182.133 132.269 182.051 132.038 181.896C131.807 181.743 131.627 181.523 131.52 181.267C131.414 181.011 131.386 180.729 131.441 180.457C131.495 180.185 131.629 179.935 131.825 179.739C132.021 179.543 132.272 179.409 132.544 179.355C132.817 179.301 133.099 179.329 133.356 179.435C133.612 179.541 133.832 179.721 133.986 179.951C134.141 180.182 134.223 180.453 134.223 180.73C134.223 181.102 134.075 181.459 133.811 181.722C133.548 181.985 133.191 182.133 132.818 182.133ZM132.818 180.191C132.711 180.191 132.607 180.222 132.518 180.282C132.429 180.341 132.36 180.425 132.319 180.524C132.278 180.622 132.267 180.731 132.288 180.836C132.309 180.94 132.36 181.037 132.436 181.112C132.512 181.187 132.608 181.239 132.713 181.26C132.818 181.281 132.926 181.27 133.025 181.229C133.124 181.188 133.208 181.119 133.268 181.03C133.327 180.941 133.359 180.837 133.359 180.73C133.359 180.66 133.345 180.589 133.318 180.524C133.29 180.458 133.251 180.399 133.201 180.349C133.15 180.299 133.091 180.259 133.025 180.232C132.959 180.205 132.889 180.191 132.818 180.191Z" fill="#274B5B"/>
<path d="M132.819 165.74C132.669 165.74 132.522 165.696 132.398 165.613C132.273 165.53 132.176 165.412 132.119 165.274C132.061 165.135 132.046 164.983 132.076 164.837C132.105 164.69 132.177 164.555 132.283 164.45C132.389 164.344 132.524 164.272 132.671 164.243C132.818 164.213 132.97 164.228 133.109 164.286C133.247 164.343 133.365 164.44 133.448 164.564C133.532 164.689 133.576 164.835 133.576 164.984C133.576 165.185 133.496 165.377 133.354 165.519C133.212 165.661 133.02 165.74 132.819 165.74ZM132.819 164.661C132.755 164.661 132.692 164.68 132.639 164.716C132.586 164.751 132.544 164.802 132.52 164.861C132.495 164.92 132.489 164.985 132.501 165.047C132.514 165.11 132.545 165.167 132.59 165.213C132.635 165.258 132.693 165.289 132.756 165.301C132.818 165.313 132.883 165.307 132.942 165.283C133.002 165.258 133.052 165.217 133.088 165.164C133.123 165.11 133.142 165.048 133.142 164.984C133.142 164.899 133.108 164.816 133.048 164.756C132.987 164.695 132.905 164.661 132.819 164.661Z" fill="#274B5B"/>
<path opacity="0.2" d="M132.818 166.386C132.541 166.386 132.269 166.304 132.038 166.15C131.807 165.996 131.627 165.777 131.52 165.52C131.414 165.264 131.386 164.982 131.441 164.71C131.495 164.438 131.629 164.188 131.825 163.992C132.021 163.796 132.272 163.662 132.544 163.608C132.817 163.554 133.099 163.582 133.356 163.688C133.612 163.794 133.832 163.974 133.986 164.204C134.141 164.435 134.223 164.706 134.223 164.984C134.223 165.356 134.075 165.712 133.811 165.976C133.548 166.238 133.191 166.386 132.818 166.386ZM132.818 164.444C132.711 164.444 132.607 164.476 132.518 164.535C132.429 164.594 132.36 164.678 132.319 164.777C132.278 164.876 132.267 164.984 132.288 165.089C132.309 165.194 132.36 165.29 132.436 165.365C132.512 165.441 132.608 165.492 132.713 165.513C132.818 165.534 132.926 165.523 133.025 165.482C133.124 165.441 133.208 165.372 133.268 165.283C133.327 165.195 133.359 165.09 133.359 164.984C133.359 164.913 133.345 164.843 133.318 164.777C133.29 164.712 133.251 164.652 133.201 164.602C133.15 164.552 133.091 164.512 133.025 164.485C132.959 164.458 132.889 164.444 132.818 164.444Z" fill="#274B5B"/>
<path d="M129.902 131.009H129.038V189.469H129.902V131.009Z" fill="#274B5B"/>
<path opacity="0.2" d="M129.251 133.165H128.387V188.819H129.251V133.165Z" fill="#274B5B"/>
<path opacity="0.8" d="M130.98 133.165H130.116V188.603H130.98V133.165Z" fill="white"/>
<path d="M143.082 202.517H115.642C112.635 202.514 109.751 201.32 107.624 199.197C105.497 197.073 104.301 194.194 104.298 191.191V189.572H154.426V191.191C154.423 194.194 153.227 197.073 151.1 199.197C148.973 201.32 146.09 202.514 143.082 202.517ZM107.703 192.81C108.079 194.636 109.073 196.277 110.52 197.456C111.966 198.635 113.775 199.28 115.642 199.283H143.082C144.949 199.28 146.758 198.635 148.205 197.456C149.651 196.277 150.646 194.636 151.021 192.81H107.703Z" fill="#274B5B"/>
<path opacity="0.15" d="M152.411 58.3451C153.918 57.9824 155.509 58.2324 156.832 59.0401C158.155 59.8474 159.103 61.1467 159.467 62.6516L160.857 68.401C161.22 69.9063 160.97 71.4938 160.161 72.8151C159.352 74.1361 158.051 75.0825 156.544 75.4464C155.036 75.8087 153.446 75.5591 152.123 74.7514C150.8 73.9437 149.852 72.6447 149.487 71.1399L148.097 65.3905C147.734 63.8852 147.985 62.2974 148.793 60.9764C149.602 59.6554 150.903 58.709 152.411 58.3451Z" fill="white"/>
<path opacity="0.15" d="M147.218 55.8052C148.503 54.937 150.08 54.6135 151.603 54.9061C153.127 55.1987 154.471 56.0835 155.341 57.3656C156.211 58.648 156.535 60.2226 156.242 61.7437C155.949 63.2644 155.063 64.6066 153.779 65.4756C152.494 66.3439 150.917 66.667 149.393 66.3744C147.87 66.0818 146.526 65.1973 145.655 63.9153C144.786 62.6329 144.462 61.0579 144.755 59.5372C145.048 58.0161 145.934 56.6739 147.218 55.8052Z" fill="white"/>
<g opacity="0.4">
<path opacity="0.4" d="M152.069 100.147C153.459 97.9005 154.444 95.995 154.595 96.0611C154.746 96.1272 153.948 98.1538 152.536 100.434C151.124 102.714 149.671 104.336 149.557 104.245C149.443 104.153 150.69 102.402 152.069 100.147Z" fill="#426270"/>
<path opacity="0.4" d="M154.272 101.574C155.166 100.055 155.785 98.7614 155.653 98.6843C155.522 98.6072 154.691 99.7761 153.797 101.295C152.902 102.815 152.284 104.109 152.416 104.185C152.547 104.263 153.378 103.094 154.272 101.574Z" fill="#426270"/>
<path opacity="0.4" d="M152.606 101.642C154.635 102.461 156.331 103.026 156.283 103.177C156.235 103.327 154.444 102.989 152.392 102.152C150.34 101.315 148.8 100.317 148.873 100.199C148.947 100.082 150.583 100.827 152.606 101.642Z" fill="#426270"/>
<path opacity="0.4" d="M154.536 101.091C156.375 101.953 157.93 102.497 157.886 102.647C157.842 102.798 156.187 102.467 154.304 101.59C152.422 100.712 151.101 99.6477 151.186 99.5375C151.271 99.4274 152.697 100.228 154.536 101.091Z" fill="#426270"/>
</g>
<g opacity="0.4">
<path opacity="0.4" d="M134.569 33.7071C135.959 31.4602 136.944 29.5547 137.095 29.6208C137.246 29.6869 136.448 31.7135 135.036 33.9934C133.624 36.2733 132.171 37.896 132.057 37.8042C131.943 37.7124 133.186 35.9613 134.569 33.7071Z" fill="#426270"/>
<path opacity="0.4" d="M136.77 35.1371C137.664 33.6179 138.282 32.3239 138.151 32.2469C138.019 32.1699 137.188 33.3389 136.294 34.858C135.4 36.3772 134.781 37.6713 134.913 37.748C135.044 37.8251 135.875 36.6562 136.77 35.1371Z" fill="#426270"/>
<path opacity="0.4" d="M135.113 35.2017C137.143 36.0204 138.838 36.5858 138.79 36.7362C138.742 36.8867 136.951 36.5491 134.9 35.712C132.848 34.8749 131.307 33.8763 131.38 33.7588C131.454 33.6414 133.083 34.3866 135.113 35.2017Z" fill="#426270"/>
<path opacity="0.4" d="M137.036 34.6499C138.875 35.5127 140.43 36.0561 140.386 36.2066C140.342 36.3571 138.687 36.0267 136.804 35.1492C134.922 34.2718 133.601 33.2071 133.686 33.0969C133.771 32.9868 135.198 33.8018 137.036 34.6499Z" fill="#426270"/>
</g>
<path d="M154.856 43.9691H100.841V45.0485H154.856V43.9691Z" fill="#8BBACC"/>
<path d="M159.655 47.9192H99.3115L100.047 44.6847H159.287L159.655 47.9192Z" fill="#274B5B"/>
<path d="M151.631 191.517H106.728C103.922 191.517 101.407 190.273 100.164 188.268C95.4095 180.558 84.3521 157.098 84.3521 105.552C84.3521 55.0338 111.008 18.0446 122.47 4.48625C123.295 3.51031 124.323 2.72591 125.483 2.18783C126.643 1.64975 127.906 1.37097 129.185 1.37097C130.464 1.37097 131.728 1.64975 132.887 2.18783C134.047 2.72591 135.075 3.51031 135.9 4.48625C147.358 18.0446 174.018 55.0338 174.007 105.552C174.007 157.087 162.95 180.565 158.195 188.268C156.97 190.269 154.444 191.517 151.631 191.517ZM129.174 4.60741C127.868 4.60652 126.604 5.06838 125.607 5.91074C125.368 6.11204 125.147 6.3331 124.945 6.57159C113.715 19.8583 87.5917 56.0985 87.5917 105.552C87.5917 127.657 89.6436 146.914 93.6886 162.789C97.0238 175.873 100.903 183.304 102.922 186.568C103.555 187.592 105.088 188.279 106.728 188.279H151.631C153.282 188.279 154.808 187.592 155.433 186.572C157.452 183.301 161.317 175.866 164.671 162.785C168.715 146.91 170.767 127.654 170.767 105.548C170.767 56.0985 144.659 19.8583 133.421 6.57159C132.953 6.01486 132.378 5.55631 131.732 5.22232C131.085 4.88838 130.378 4.68561 129.652 4.62576C129.493 4.61354 129.333 4.60741 129.174 4.60741Z" fill="#274B5B"/>
<path d="M119.827 189.509H116.587V158.574C116.568 147.658 120.753 137.153 128.277 129.232L129.465 127.98L130.641 129.24C138.031 137.136 142.135 147.543 142.122 158.35V189.461H138.882V158.357C138.892 148.976 135.543 139.9 129.439 132.768C123.22 139.929 119.803 149.092 119.819 158.57L119.827 189.509Z" fill="#274B5B"/>
<path d="M182.943 171.994C182.793 171.994 182.647 171.949 182.522 171.866C182.398 171.783 182.3 171.665 182.243 171.527C182.186 171.388 182.171 171.236 182.2 171.09C182.229 170.943 182.302 170.808 182.407 170.702C182.513 170.597 182.648 170.525 182.795 170.495C182.942 170.466 183.094 170.481 183.233 170.538C183.371 170.596 183.49 170.692 183.573 170.817C183.656 170.941 183.7 171.088 183.7 171.237C183.7 171.438 183.621 171.63 183.479 171.772C183.337 171.914 183.144 171.994 182.943 171.994ZM182.943 170.914C182.879 170.914 182.816 170.933 182.763 170.969C182.71 171.004 182.669 171.054 182.644 171.114C182.62 171.173 182.613 171.238 182.626 171.3C182.638 171.363 182.669 171.421 182.714 171.466C182.759 171.511 182.817 171.542 182.88 171.554C182.942 171.567 183.008 171.56 183.067 171.536C183.126 171.511 183.176 171.47 183.212 171.416C183.248 171.364 183.266 171.301 183.266 171.237C183.266 171.152 183.231 171.071 183.17 171.011C183.11 170.951 183.028 170.918 182.943 170.918V170.914Z" fill="#274B5B"/>
<path opacity="0.2" d="M182.943 172.643C182.665 172.643 182.393 172.561 182.162 172.407C181.931 172.253 181.751 172.034 181.645 171.777C181.539 171.521 181.511 171.239 181.565 170.967C181.619 170.695 181.753 170.445 181.949 170.249C182.146 170.053 182.396 169.919 182.669 169.865C182.941 169.811 183.224 169.839 183.48 169.945C183.737 170.051 183.957 170.231 184.111 170.462C184.265 170.692 184.347 170.963 184.347 171.241C184.347 171.613 184.2 171.969 183.936 172.233C183.673 172.495 183.315 172.643 182.943 172.643ZM182.943 170.701C182.836 170.701 182.731 170.733 182.643 170.792C182.554 170.851 182.484 170.936 182.443 171.034C182.403 171.133 182.392 171.241 182.412 171.346C182.433 171.451 182.485 171.547 182.561 171.622C182.636 171.698 182.732 171.749 182.837 171.77C182.942 171.791 183.051 171.78 183.15 171.74C183.248 171.698 183.333 171.629 183.392 171.541C183.452 171.452 183.483 171.347 183.483 171.241C183.483 171.098 183.426 170.96 183.325 170.859C183.224 170.758 183.086 170.701 182.943 170.701Z" fill="#274B5B"/>
</g>
<defs>
<linearGradient id="paint0_linear_336_586" x1="-0.000173453" y1="100.706" x2="277.959" y2="100.706" gradientUnits="userSpaceOnUse">
<stop stop-color="#E5FFFB"/>
<stop offset="0.38" stop-color="#DEF4FF"/>
</linearGradient>
</defs>
</svg>
