<svg width="404" height="404" viewBox="0 0 404 404" fill="none" xmlns="http://www.w3.org/2000/svg">
<path d="M196.78 9.21231C199.078 5.15633 204.922 5.15633 207.22 9.21231L252.535 89.1815C253.769 91.3593 256.225 92.5421 258.697 92.1491L349.473 77.7176C354.077 76.9856 357.72 81.5544 355.982 85.8801L321.713 171.169C320.78 173.491 321.386 176.149 323.235 177.837L391.116 239.81C394.559 242.953 393.258 248.65 388.792 249.989L300.745 276.372C298.347 277.091 296.647 279.222 296.48 281.72L290.351 373.431C290.04 378.082 284.775 380.618 280.944 377.961L205.42 325.572C203.363 324.146 200.637 324.146 198.58 325.572L123.056 377.961C119.225 380.618 113.96 378.082 113.649 373.431L107.52 281.72C107.353 279.222 105.653 277.091 103.255 276.372L15.2075 249.989C10.7418 248.65 9.44144 242.953 12.8843 239.81L80.7651 177.837C82.6136 176.149 83.2202 173.491 82.287 171.169L48.0178 85.8801C46.2797 81.5544 49.9232 76.9856 54.5272 77.7176L145.303 92.1491C147.775 92.5421 150.231 91.3593 151.465 89.1815L196.78 9.21231Z" fill="#32385B"/>
<g clip-path="url(#clip0_326_99)">
<mask id="mask0_326_99" style="mask-type:luminance" maskUnits="userSpaceOnUse" x="100" y="72" width="218" height="249">
<path d="M317.273 72.498H100.044V320.853H317.273V72.498Z" fill="white"/>
</mask>
<g mask="url(#mask0_326_99)">
<path d="M306.124 119.47H278.504C273.406 119.47 269.273 123.607 269.273 128.711V280.775C269.273 285.879 273.406 290.017 278.504 290.017H306.124C311.222 290.017 315.355 285.879 315.355 280.775V128.711C315.355 123.607 311.222 119.47 306.124 119.47Z" fill="white"/>
<path opacity="0.45" d="M290.885 186.11V117.615H156.949V289.032H290.885V186.11Z" fill="#C9D2DF"/>
<path d="M227.827 238.919H303.917V232.976H227.827V238.919Z" fill="#C9D2DF"/>
<path d="M227.827 252.424H303.917V246.481H227.827V252.424Z" fill="#C9D2DF"/>
<path d="M227.827 265.945H303.917V260.002H227.827V265.945Z" fill="#C9D2DF"/>
<path d="M227.827 188.792H303.917V182.848H227.827V188.792Z" fill="#C9D2DF"/>
<path d="M227.827 202.268H303.917V196.325H227.827V202.268Z" fill="#C9D2DF"/>
<path d="M227.827 215.83H303.917V209.887H227.827V215.83Z" fill="#C9D2DF"/>
<path d="M227.827 137.08H303.917V131.137H227.827V137.08Z" fill="#C9D2DF"/>
<path d="M227.827 164.147H303.917V130.734H227.827V164.147Z" fill="#C9D2DF"/>
<path d="M311.879 290.304C311.543 290.304 311.221 290.17 310.983 289.933C310.745 289.694 310.612 289.372 310.612 289.036C310.612 288.699 310.745 288.376 310.983 288.139C311.221 287.901 311.543 287.767 311.879 287.767C312.172 287.767 312.462 287.709 312.733 287.596C313.002 287.482 313.248 287.316 313.453 287.107C313.659 286.897 313.82 286.65 313.93 286.377C314.038 286.105 314.092 285.814 314.087 285.52V202.603C314.087 202.266 314.22 201.943 314.458 201.706C314.695 201.467 315.018 201.334 315.354 201.334C315.69 201.334 316.012 201.467 316.25 201.706C316.487 201.943 316.621 202.266 316.621 202.603V285.52C316.621 286.783 316.123 287.994 315.234 288.89C314.346 289.786 313.14 290.294 311.879 290.304Z" fill="#3E3126"/>
<path d="M303.265 290.297H287.337C287.001 290.297 286.679 290.163 286.441 289.925C286.204 289.688 286.07 289.364 286.07 289.028C286.07 288.692 286.204 288.369 286.441 288.131C286.679 287.894 287.001 287.76 287.337 287.76H303.265C303.601 287.76 303.923 287.894 304.161 288.131C304.398 288.369 304.531 288.692 304.531 289.028C304.531 289.364 304.398 289.688 304.161 289.925C303.923 290.163 303.601 290.297 303.265 290.297Z" fill="#3E3126"/>
<path d="M270.178 290.309H184.893C183.633 290.3 182.427 289.791 181.538 288.895C180.65 287.999 180.151 286.787 180.151 285.525V124.944C180.161 122.669 181.068 120.49 182.675 118.882C184.281 117.273 186.458 116.365 188.731 116.355H308.187C310.459 116.365 312.635 117.273 314.242 118.882C315.849 120.49 316.756 122.669 316.765 124.944V186.118C316.765 186.455 316.632 186.777 316.395 187.015C316.157 187.253 315.835 187.387 315.499 187.387C315.163 187.387 314.841 187.253 314.603 187.015C314.365 186.777 314.232 186.455 314.232 186.118V124.944C314.232 123.339 313.595 121.8 312.462 120.665C311.327 119.53 309.79 118.892 308.187 118.892H188.731C187.127 118.892 185.59 119.53 184.456 120.665C183.322 121.8 182.686 123.339 182.686 124.944V285.525C182.68 285.818 182.734 286.11 182.843 286.382C182.952 286.654 183.113 286.903 183.319 287.112C183.525 287.321 183.77 287.487 184.04 287.6C184.311 287.714 184.601 287.772 184.893 287.772H270.178C270.514 287.772 270.836 287.906 271.074 288.143C271.311 288.382 271.445 288.704 271.445 289.04C271.445 289.377 271.311 289.7 271.074 289.937C270.836 290.175 270.514 290.309 270.178 290.309Z" fill="#3E3126"/>
<path d="M279.808 97.9805H101.204V299.875H279.808V97.9805Z" fill="white"/>
<path opacity="0.2" d="M279.808 156.715V295.733C279.808 296.431 279.669 297.122 279.402 297.766C279.134 298.41 278.741 298.995 278.247 299.487C277.752 299.978 277.166 300.368 276.52 300.632C275.875 300.895 275.184 301.028 274.486 301.024H116.841C211.392 273.554 259.5 198.826 279.808 156.715Z" fill="#C9D2DF"/>
<path opacity="0.5" d="M279.771 160.82H102.071V161.581H279.771V160.82Z" fill="#C9D2DF"/>
<path opacity="0.5" d="M279.771 214.699H102.071V215.46H279.771V214.699Z" fill="#C9D2DF"/>
<path opacity="0.5" d="M279.771 272.359H102.071V273.119H279.771V272.359Z" fill="#C9D2DF"/>
<path d="M104.786 79.3772H277.092C277.803 79.3772 278.484 79.6597 278.987 80.1627C279.489 80.6656 279.771 81.3477 279.771 82.059V96.845H102.072V82.0952C102.067 81.7369 102.134 81.3813 102.268 81.0493C102.403 80.7174 102.603 80.4158 102.856 80.1624C103.109 79.909 103.41 79.709 103.742 79.5742C104.073 79.4393 104.429 79.3723 104.786 79.3772Z" fill="#C3C6E3"/>
<path d="M118.072 89.3111C119.852 89.3111 121.294 87.8671 121.294 86.0857C121.294 84.3044 119.852 82.8604 118.072 82.8604C116.293 82.8604 114.851 84.3044 114.851 86.0857C114.851 87.8671 116.293 89.3111 118.072 89.3111Z" fill="#57A8B2"/>
<path d="M127.845 89.3111C129.624 89.3111 131.066 87.8671 131.066 86.0857C131.066 84.3044 129.624 82.8604 127.845 82.8604C126.065 82.8604 124.623 84.3044 124.623 86.0857C124.623 87.8671 126.065 89.3111 127.845 89.3111Z" fill="#57A8B2"/>
<path d="M137.654 89.3111C139.434 89.3111 140.876 87.8671 140.876 86.0857C140.876 84.3044 139.434 82.8604 137.654 82.8604C135.875 82.8604 134.433 84.3044 134.433 86.0857C134.433 87.8671 135.875 89.3111 137.654 89.3111Z" fill="#57A8B2"/>
<path opacity="0.2" d="M279.808 101.492H102.072C101.741 101.438 101.439 101.268 101.222 101.013C101.005 100.757 100.885 100.432 100.885 100.096C100.885 99.7606 101.005 99.4359 101.222 99.1802C101.439 98.9246 101.741 98.7547 102.072 98.7012H279.808C280.139 98.7547 280.44 98.9246 280.657 99.1802C280.875 99.4359 280.994 99.7606 280.994 100.096C280.994 100.432 280.875 100.757 280.657 101.013C280.44 101.268 280.139 101.438 279.808 101.492Z" fill="#C9D2DF"/>
<path d="M118.072 89.3111C119.852 89.3111 121.294 87.8671 121.294 86.0857C121.294 84.3044 119.852 82.8604 118.072 82.8604C116.293 82.8604 114.851 84.3044 114.851 86.0857C114.851 87.8671 116.293 89.3111 118.072 89.3111Z" fill="#8F98D8"/>
<path d="M127.845 89.3111C129.624 89.3111 131.066 87.8671 131.066 86.0857C131.066 84.3044 129.624 82.8604 127.845 82.8604C126.065 82.8604 124.623 84.3044 124.623 86.0857C124.623 87.8671 126.065 89.3111 127.845 89.3111Z" fill="#8F98D8"/>
<path d="M137.654 89.3111C139.434 89.3111 140.876 87.8671 140.876 86.0857C140.876 84.3044 139.434 82.8604 137.654 82.8604C135.875 82.8604 134.433 84.3044 134.433 86.0857C134.433 87.8671 135.875 89.3111 137.654 89.3111Z" fill="#8F98D8"/>
<path d="M118.143 89.9278C117.376 89.9713 116.614 89.7835 115.955 89.3887C115.297 88.9939 114.771 88.4103 114.447 87.7132C114.123 87.0163 114.015 86.238 114.138 85.4791C114.261 84.7201 114.608 84.0155 115.135 83.4563C115.662 82.8971 116.344 82.5091 117.094 82.3424C117.843 82.1757 118.626 82.2379 119.34 82.5212C120.054 82.8045 120.666 83.2957 121.098 83.9312C121.53 84.5668 121.762 85.3175 121.763 86.0863C121.765 87.0685 121.39 88.0141 120.717 88.7285C120.044 89.443 119.123 89.8722 118.143 89.9278ZM118.143 83.3683C117.626 83.3611 117.119 83.508 116.685 83.7903C116.252 84.0726 115.912 84.4775 115.71 84.9537C115.507 85.4298 115.45 85.9555 115.546 86.464C115.643 86.9725 115.888 87.4408 116.251 87.8094C116.614 88.1779 117.078 88.4301 117.585 88.5337C118.092 88.6374 118.617 88.5879 119.096 88.3915C119.574 88.1951 119.983 87.8608 120.271 87.4309C120.559 87.001 120.713 86.4952 120.713 85.9776C120.718 85.6366 120.655 85.2982 120.528 84.9817C120.401 84.6654 120.213 84.3775 119.973 84.1347C119.734 83.8918 119.449 83.6991 119.135 83.5675C118.821 83.436 118.484 83.3682 118.143 83.3683Z" fill="#3E3126"/>
<path d="M127.844 89.9338C127.087 89.9266 126.349 89.6952 125.722 89.2688C125.096 88.8424 124.61 88.24 124.325 87.5374C124.04 86.8348 123.97 86.0636 124.122 85.3209C124.274 84.5781 124.642 83.897 125.18 83.3634C125.718 82.8298 126.402 82.4675 127.145 82.3222C127.888 82.1769 128.658 82.255 129.357 82.5468C130.056 82.8386 130.653 83.331 131.073 83.9619C131.493 84.5928 131.718 85.334 131.718 86.0923C131.708 87.1144 131.296 88.0915 130.57 88.8108C129.845 89.5302 128.865 89.9338 127.844 89.9338ZM127.844 83.3743C127.329 83.3743 126.825 83.5273 126.396 83.814C125.968 84.1007 125.634 84.5082 125.436 84.985C125.239 85.4618 125.188 85.9864 125.288 86.4926C125.389 86.9987 125.637 87.4637 126.001 87.8286C126.366 88.1935 126.83 88.442 127.336 88.5427C127.841 88.6434 128.365 88.5917 128.842 88.3942C129.318 88.1968 129.725 87.8623 130.011 87.4332C130.298 87.0041 130.451 86.4996 130.451 85.9835C130.455 85.6396 130.391 85.298 130.262 84.9793C130.133 84.6605 129.941 84.3709 129.698 84.1276C129.455 83.8843 129.166 83.6923 128.847 83.5629C128.529 83.4335 128.188 83.3694 127.844 83.3743Z" fill="#3E3126"/>
<path d="M137.655 89.9339C136.637 89.9339 135.661 89.5292 134.942 88.8088C134.222 88.0883 133.818 87.1113 133.818 86.0924C133.818 85.0736 134.222 84.0965 134.942 83.3761C135.661 82.6557 136.637 82.251 137.655 82.251C138.673 82.251 139.649 82.6557 140.368 83.3761C141.088 84.0965 141.492 85.0736 141.492 86.0924C141.492 87.1113 141.088 88.0883 140.368 88.8088C139.649 89.5292 138.673 89.9339 137.655 89.9339ZM137.655 83.4832C137.021 83.5583 136.437 83.8636 136.013 84.3412C135.589 84.8188 135.355 85.4354 135.355 86.0743C135.355 86.7132 135.589 87.3298 136.013 87.8074C136.437 88.285 137.021 88.5904 137.655 88.6655C138.289 88.5904 138.873 88.285 139.297 87.8074C139.721 87.3298 139.955 86.7132 139.955 86.0743C139.955 85.4354 139.721 84.8188 139.297 84.3412C138.873 83.8636 138.289 83.5583 137.655 83.4832Z" fill="#3E3126"/>
<path d="M218.487 135.521H202.053V138.493H218.487V135.521Z" fill="#C9D2DF"/>
<path d="M219.029 188.792H202.595V191.764H219.029V188.792Z" fill="#C9D2DF"/>
<path d="M219.029 242.317H202.595V245.289H219.029V242.317Z" fill="#C9D2DF"/>
<path d="M192.677 172.301H118.687C118.108 172.301 117.638 172.772 117.638 173.352V177.194C117.638 177.774 118.108 178.244 118.687 178.244H192.677C193.257 178.244 193.728 177.774 193.728 177.194V173.352C193.728 172.772 193.257 172.301 192.677 172.301Z" fill="#C9D2DF"/>
<path d="M192.677 185.819H118.687C118.108 185.819 117.638 186.289 117.638 186.869V190.711C117.638 191.291 118.108 191.762 118.687 191.762H192.677C193.257 191.762 193.728 191.291 193.728 190.711V186.869C193.728 186.289 193.257 185.819 192.677 185.819Z" fill="#C9D2DF"/>
<path d="M192.677 199.339H118.687C118.108 199.339 117.638 199.81 117.638 200.39V204.231C117.638 204.812 118.108 205.283 118.687 205.283H192.677C193.257 205.283 193.728 204.812 193.728 204.231V200.39C193.728 199.81 193.257 199.339 192.677 199.339Z" fill="#C9D2DF"/>
<path d="M192.677 114.132H118.687C118.108 114.132 117.638 114.602 117.638 115.183V119.024C117.638 119.605 118.108 120.075 118.687 120.075H192.677C193.257 120.075 193.728 119.605 193.728 119.024V115.183C193.728 114.602 193.257 114.132 192.677 114.132Z" fill="#C9D2DF"/>
<path d="M192.677 127.652H118.687C118.108 127.652 117.638 128.123 117.638 128.703V132.545C117.638 133.125 118.108 133.596 118.687 133.596H192.677C193.257 133.596 193.728 133.125 193.728 132.545V128.703C193.728 128.123 193.257 127.652 192.677 127.652Z" fill="#C9D2DF"/>
<path d="M192.677 141.17H118.687C118.108 141.17 117.638 141.64 117.638 142.221V146.062C117.638 146.643 118.108 147.113 118.687 147.113H192.677C193.257 147.113 193.728 146.643 193.728 146.062V142.221C193.728 141.64 193.257 141.17 192.677 141.17Z" fill="#C9D2DF"/>
<path d="M192.677 225.612H118.687C118.108 225.612 117.638 226.083 117.638 226.664V230.505C117.638 231.086 118.108 231.556 118.687 231.556H192.677C193.257 231.556 193.728 231.086 193.728 230.505V226.664C193.728 226.083 193.257 225.612 192.677 225.612Z" fill="#C9D2DF"/>
<path d="M192.677 239.133H118.687C118.108 239.133 117.638 239.603 117.638 240.184V244.025C117.638 244.606 118.108 245.076 118.687 245.076H192.677C193.257 245.076 193.728 244.606 193.728 244.025V240.184C193.728 239.603 193.257 239.133 192.677 239.133Z" fill="#C9D2DF"/>
<path d="M192.677 252.653H118.687C118.108 252.653 117.638 253.124 117.638 253.704V257.546C117.638 258.126 118.108 258.597 118.687 258.597H192.677C193.257 258.597 193.728 258.126 193.728 257.546V253.704C193.728 253.124 193.257 252.653 192.677 252.653Z" fill="#C9D2DF"/>
<path d="M206.432 118.336L207.626 120.728L210.269 121.126L208.351 123.011L208.821 125.657L206.432 124.388L204.043 125.657L204.514 123.011L202.595 121.126L205.237 120.728L206.432 118.336Z" fill="#FF9C01"/>
<path d="M216.352 118.336L217.546 120.728L220.189 121.126L218.27 123.011L218.741 125.657L216.352 124.388L213.963 125.657L214.433 123.011L212.515 121.126L215.157 120.728L216.352 118.336Z" fill="#FF9C01"/>
<path d="M226.27 118.336L227.464 120.728L230.107 121.126L228.188 123.011L228.623 125.657L226.27 124.388L223.881 125.657L224.351 123.011L222.396 121.126L225.075 120.728L226.27 118.336Z" fill="#FF9C01"/>
<path d="M236.188 118.336L237.382 120.728L240.025 121.126L238.106 123.011L238.541 125.657L236.188 124.388L233.799 125.657L234.269 123.011L232.314 121.126L234.993 120.728L236.188 118.336Z" fill="#FF9C01"/>
<path d="M246.107 118.336L247.265 120.728L249.944 121.126L248.025 123.011L248.46 125.657L246.107 124.388L243.718 125.657L244.152 123.011L242.234 121.126L244.912 120.728L246.107 118.336Z" fill="#FF9C01"/>
<path d="M206.432 171.621L207.626 174.05L210.269 174.412L208.351 176.296L208.821 178.942L206.432 177.71L204.043 178.942L204.514 176.296L202.595 174.412L205.237 174.05L206.432 171.621Z" fill="#FF9C01"/>
<path d="M216.352 171.621L217.546 174.05L220.189 174.412L218.27 176.296L218.741 178.942L216.352 177.71L213.963 178.942L214.433 176.296L212.515 174.412L215.157 174.05L216.352 171.621Z" fill="#FF9C01"/>
<path d="M226.27 171.621L227.464 174.05L230.107 174.412L228.188 176.296L228.623 178.942L226.27 177.71L223.881 178.942L224.351 176.296L222.396 174.412L225.075 174.05L226.27 171.621Z" fill="#FF9C01"/>
<path d="M236.188 171.621L237.382 174.05L240.025 174.412L238.106 176.296L238.541 178.942L236.188 177.71L233.799 178.942L234.269 176.296L232.314 174.412L234.993 174.05L236.188 171.621Z" fill="#FF9C01"/>
<path d="M246.107 171.621L247.265 174.05L249.944 174.412L248.025 176.296L248.46 178.942L246.107 177.71L243.718 178.942L244.152 176.296L242.234 174.412L244.912 174.05L246.107 171.621Z" fill="#FF9C01"/>
<path d="M206.432 224.921L207.626 227.313L210.269 227.711L208.351 229.596L208.821 232.241L206.432 230.973L204.043 232.241L204.514 229.596L202.595 227.711L205.237 227.313L206.432 224.921Z" fill="#FF9C01"/>
<path d="M216.352 224.921L217.546 227.313L220.189 227.711L218.27 229.596L218.741 232.241L216.352 230.973L213.963 232.241L214.433 229.596L212.515 227.711L215.157 227.313L216.352 224.921Z" fill="#FF9C01"/>
<path d="M226.27 224.921L227.464 227.313L230.107 227.711L228.188 229.596L228.623 232.241L226.27 230.973L223.881 232.241L224.351 229.596L222.396 227.711L225.075 227.313L226.27 224.921Z" fill="#FF9C01"/>
<path d="M236.188 224.921L237.382 227.313L240.025 227.711L238.106 229.596L238.541 232.241L236.188 230.973L233.799 232.241L234.269 229.596L232.314 227.711L234.993 227.313L236.188 224.921Z" fill="#FF9C01"/>
<path d="M246.107 224.921L247.265 227.313L249.944 227.711L248.025 229.596L248.46 232.241L246.107 230.973L243.718 232.241L244.152 229.596L242.234 227.711L244.912 227.313L246.107 224.921Z" fill="#FF9C01"/>
<path opacity="0.45" d="M183.844 76.4912H166.723C165.123 76.4912 163.827 77.7892 163.827 79.3904V79.4267C163.827 81.0279 165.123 82.3259 166.723 82.3259H183.844C185.444 82.3259 186.741 81.0279 186.741 79.4267V79.3904C186.741 77.7892 185.444 76.4912 183.844 76.4912Z" fill="white"/>
<path opacity="0.45" d="M183.085 88.8064C185.104 88.8064 186.741 87.7193 186.741 86.3783C186.741 85.0373 185.104 83.9502 183.085 83.9502C181.065 83.9502 179.428 85.0373 179.428 86.3783C179.428 87.7193 181.065 88.8064 183.085 88.8064Z" fill="white"/>
<path d="M315.355 196.442C316.415 196.442 317.273 195.582 317.273 194.522C317.273 193.46 316.415 192.601 315.355 192.601C314.295 192.601 313.436 193.46 313.436 194.522C313.436 195.582 314.295 196.442 315.355 196.442Z" fill="#3E3126"/>
<path d="M279.772 94.0576H101.204V96.8481H279.772V94.0576Z" fill="#8F98D8"/>
<path d="M279.807 98.6628H102.071C101.735 98.6628 101.413 98.5291 101.175 98.2913C100.938 98.0534 100.804 97.7308 100.804 97.3944C100.804 97.0579 100.938 96.7354 101.175 96.4975C101.413 96.2596 101.735 96.126 102.071 96.126H279.807C280.143 96.126 280.465 96.2596 280.703 96.4975C280.941 96.7354 281.074 97.0579 281.074 97.3944C281.074 97.7308 280.941 98.0534 280.703 98.2913C280.465 98.5291 280.143 98.6628 279.807 98.6628Z" fill="#3E3126"/>
<path d="M102.071 239.197C101.798 239.213 101.524 239.171 101.268 239.072C101.012 238.973 100.781 238.821 100.589 238.625C100.396 238.43 100.249 238.195 100.155 237.937C100.061 237.68 100.023 237.404 100.044 237.131V179.147C100.044 178.637 100.246 178.148 100.606 177.788C100.966 177.428 101.454 177.226 101.963 177.226C102.472 177.226 102.96 177.428 103.319 177.788C103.679 178.148 103.881 178.637 103.881 179.147V237.131C103.901 237.386 103.87 237.643 103.789 237.886C103.708 238.129 103.579 238.353 103.411 238.545C103.242 238.738 103.037 238.895 102.807 239.006C102.577 239.118 102.327 239.183 102.071 239.197Z" fill="#3E3126"/>
<path d="M167.229 303.859H106.705C105.83 303.859 104.964 303.687 104.156 303.352C103.348 303.017 102.613 302.526 101.995 301.906C101.376 301.287 100.886 300.552 100.551 299.743C100.216 298.934 100.044 298.067 100.044 297.191V250.84C100.044 250.298 100.256 249.778 100.635 249.392C101.015 249.006 101.53 248.784 102.071 248.774C102.612 248.784 103.128 249.006 103.507 249.392C103.886 249.778 104.098 250.298 104.098 250.84V297.191C104.098 297.883 104.373 298.547 104.862 299.036C105.35 299.526 106.013 299.8 106.705 299.8H167.229C167.767 299.8 168.282 300.014 168.662 300.395C169.042 300.775 169.256 301.292 169.256 301.83C169.256 302.368 169.042 302.884 168.662 303.265C168.282 303.646 167.767 303.859 167.229 303.859Z" fill="#3E3126"/>
<path d="M275.175 303.495H222.397C221.955 303.495 221.532 303.319 221.22 303.007C220.907 302.694 220.732 302.27 220.732 301.828C220.732 301.386 220.907 300.962 221.22 300.649C221.532 300.337 221.955 300.161 222.397 300.161H275.175C275.616 300.161 276.04 300.337 276.352 300.649C276.664 300.962 276.84 301.386 276.84 301.828C276.84 302.27 276.664 302.694 276.352 303.007C276.04 303.319 275.616 303.495 275.175 303.495Z" fill="#3E3126"/>
<path d="M279.808 281.714C279.299 281.714 278.811 281.511 278.451 281.151C278.092 280.79 277.889 280.302 277.889 279.793V84.0949C277.871 82.0501 277.053 80.0939 275.613 78.6445C274.172 77.1951 272.221 76.3678 270.179 76.3395H234.198C233.688 76.3395 233.201 76.1372 232.841 75.7769C232.481 75.4167 232.279 74.9282 232.279 74.4188C232.279 73.9094 232.481 73.4208 232.841 73.0606C233.201 72.7004 233.688 72.498 234.198 72.498L270.179 72.498C273.261 72.498 276.216 73.7237 278.396 75.9053C280.575 78.0869 281.799 81.0459 281.799 84.1312V279.829C281.799 280.086 281.747 280.34 281.646 280.576C281.544 280.812 281.396 281.025 281.209 281.201C281.024 281.378 280.803 281.514 280.561 281.603C280.321 281.69 280.064 281.728 279.808 281.714Z" fill="#3E3126"/>
<path d="M102.071 163.1C101.81 163.114 101.549 163.076 101.303 162.986C101.058 162.896 100.834 162.757 100.644 162.577C100.454 162.397 100.303 162.18 100.2 161.939C100.097 161.699 100.044 161.44 100.044 161.179V84.1317C100.049 82.5931 100.357 81.0707 100.952 79.6519C101.547 78.2332 102.416 76.9462 103.509 75.865C104.602 74.7838 105.899 73.9298 107.323 73.352C108.747 72.7743 110.272 72.4842 111.809 72.4986H217.183C217.692 72.4986 218.18 72.7009 218.54 73.0611C218.9 73.4213 219.102 73.9099 219.102 74.4193C219.102 74.9287 218.9 75.4172 218.54 75.7775C218.18 76.1377 217.692 76.34 217.183 76.34H111.809C109.741 76.34 107.758 77.1597 106.292 78.6199C104.827 80.0801 103.999 82.0618 103.99 84.1317V161.179C103.99 161.688 103.787 162.176 103.428 162.537C103.068 162.897 102.58 163.1 102.071 163.1Z" fill="#3E3126"/>
<path opacity="0.2" d="M153.112 291.894C155.951 291.894 158.253 289.59 158.253 286.748C158.253 283.906 155.951 281.602 153.112 281.602C150.274 281.602 147.972 283.906 147.972 286.748C147.972 289.59 150.274 291.894 153.112 291.894Z" fill="#C9D2DF"/>
<path opacity="0.2" d="M160.315 279.645C161.455 279.645 162.379 278.72 162.379 277.579C162.379 276.439 161.455 275.514 160.315 275.514C159.176 275.514 158.252 276.439 158.252 277.579C158.252 278.72 159.176 279.645 160.315 279.645Z" fill="#C9D2DF"/>
<path opacity="0.2" d="M138.813 288.818C139.953 288.818 140.877 287.893 140.877 286.752C140.877 285.611 139.953 284.687 138.813 284.687C137.674 284.687 136.75 285.611 136.75 286.752C136.75 287.893 137.674 288.818 138.813 288.818Z" fill="#C9D2DF"/>
<path d="M199.482 319.472C204.072 319.473 208.527 317.914 212.118 315.05C215.708 312.187 218.222 308.187 219.246 303.707H245.309V314.906H254.793V303.707H260.983V314.906H270.467V303.707H281.038C281.638 303.717 282.233 303.603 282.787 303.372C283.341 303.141 283.842 302.799 284.259 302.366C284.685 301.952 285.023 301.457 285.253 300.908C285.483 300.361 285.601 299.772 285.598 299.177C285.598 297.966 285.118 296.805 284.263 295.949C283.407 295.092 282.247 294.611 281.038 294.611H219.246C218.388 290.891 216.5 287.49 213.798 284.796C211.096 282.103 207.689 280.227 203.971 279.384C200.252 278.541 196.371 278.765 192.773 280.031C189.176 281.297 186.008 283.553 183.634 286.539C181.259 289.526 179.774 293.123 179.349 296.916C178.925 300.71 179.577 304.547 181.232 307.986C182.887 311.425 185.477 314.327 188.705 316.359C191.933 318.391 195.669 319.469 199.482 319.472ZM199.482 290.009C201.293 290.009 203.063 290.546 204.57 291.554C206.076 292.562 207.25 293.993 207.943 295.669C208.636 297.344 208.818 299.188 208.464 300.966C208.11 302.745 207.238 304.379 205.957 305.661C204.676 306.943 203.045 307.817 201.268 308.17C199.491 308.524 197.65 308.342 195.977 307.649C194.304 306.954 192.873 305.779 191.867 304.271C190.861 302.764 190.324 300.991 190.324 299.177C190.314 297.968 190.544 296.768 190.999 295.646C191.455 294.526 192.128 293.507 192.98 292.647C193.831 291.788 194.844 291.107 195.96 290.641C197.076 290.176 198.273 289.936 199.482 289.936V290.009Z" fill="#FFB320"/>
<path d="M208.605 300.627H285.31V298.344H208.605V300.627Z" fill="#FFE56B"/>
<path d="M179.066 300.627H190.36V298.344H179.066V300.627Z" fill="#FFE56B"/>
<path d="M208.605 299.511H285.31V297.227H208.605V299.511Z" fill="#FFE56B"/>
<path d="M179.066 299.511H190.36V297.227H179.066V299.511Z" fill="#FFE56B"/>
<path d="M208.64 306.94H218.233L217.111 309.223H208.64V306.94Z" fill="#FFE56B"/>
<path d="M180.731 306.94H190.36V309.223H181.383L180.731 306.94Z" fill="#FFE56B"/>
<path d="M180.081 293.561C181.106 289.311 183.476 285.507 186.836 282.714C190.195 279.921 194.366 278.289 198.727 278.061C203.088 277.833 207.406 279.021 211.039 281.448C214.671 283.875 217.423 287.412 218.885 291.532C213.674 287.392 207.184 285.2 200.533 285.335C196.741 285.218 192.967 285.889 189.446 287.305C185.927 288.72 182.738 290.851 180.081 293.561Z" fill="#F27C00"/>
<path d="M269.129 311.68C268.899 311.68 268.678 311.588 268.515 311.425C268.352 311.263 268.261 311.041 268.261 310.81V302.475C268.261 302.361 268.283 302.248 268.327 302.143C268.37 302.037 268.435 301.941 268.515 301.86C268.596 301.78 268.692 301.715 268.797 301.672C268.902 301.628 269.015 301.606 269.129 301.606H278.469C278.699 301.606 278.92 301.697 279.083 301.86C279.246 302.023 279.338 302.245 279.338 302.475C279.338 302.706 279.246 302.927 279.083 303.09C278.92 303.253 278.699 303.345 278.469 303.345H270.179V310.955C270.135 311.191 270 311.398 269.803 311.534C269.607 311.67 269.364 311.722 269.129 311.68Z" fill="white"/>
<path d="M266.559 314.579H262.323C262.093 314.579 261.872 314.488 261.709 314.325C261.547 314.161 261.455 313.94 261.455 313.71V303.345H255.7C255.469 303.345 255.248 303.253 255.085 303.09C254.922 302.927 254.831 302.706 254.831 302.475C254.831 302.245 254.922 302.023 255.085 301.86C255.248 301.697 255.469 301.606 255.7 301.606H262.252C262.365 301.606 262.479 301.628 262.584 301.672C262.689 301.715 262.785 301.78 262.866 301.86C262.946 301.941 263.01 302.037 263.054 302.143C263.097 302.248 263.12 302.361 263.12 302.475V312.84H266.74C266.857 312.835 266.974 312.854 267.084 312.895C267.193 312.937 267.293 313 267.378 313.081C267.463 313.162 267.53 313.26 267.576 313.368C267.621 313.476 267.645 313.592 267.645 313.71C267.642 313.843 267.611 313.973 267.552 314.092C267.493 314.212 267.409 314.316 267.305 314.399C267.202 314.482 267.081 314.542 266.952 314.572C266.824 314.604 266.689 314.606 266.559 314.579Z" fill="white"/>
<path d="M251.101 314.579H246.685C246.454 314.579 246.233 314.488 246.071 314.325C245.908 314.161 245.816 313.94 245.816 313.71V303.345H240.133C239.902 303.345 239.681 303.253 239.519 303.09C239.356 302.927 239.264 302.706 239.264 302.475C239.264 302.245 239.356 302.023 239.519 301.86C239.681 301.697 239.902 301.606 240.133 301.606H246.685C246.915 301.606 247.136 301.697 247.299 301.86C247.462 302.023 247.553 302.245 247.553 302.475V312.84H251.173C251.404 312.84 251.625 312.931 251.788 313.095C251.951 313.258 252.042 313.479 252.042 313.71C252.043 313.83 252.018 313.95 251.97 314.06C251.922 314.17 251.851 314.27 251.763 314.352C251.674 314.434 251.57 314.496 251.456 314.535C251.342 314.575 251.221 314.59 251.101 314.579Z" fill="white"/>
<path d="M199.482 320.86C196.565 320.861 193.677 320.275 190.991 319.135C188.305 317.995 185.876 316.324 183.849 314.224C181.822 312.124 180.238 309.636 179.192 306.909C178.147 304.183 177.66 301.273 177.763 298.354C178.051 293.256 180.121 288.421 183.612 284.699C187.103 280.976 191.791 278.602 196.856 277.992C201.919 277.383 207.036 278.577 211.309 281.365C215.581 284.155 218.737 288.36 220.223 293.244H281.038C281.854 293.18 282.674 293.286 283.448 293.554C284.221 293.824 284.931 294.25 285.532 294.806C286.133 295.363 286.612 296.038 286.94 296.788C287.269 297.539 287.438 298.35 287.438 299.17C287.438 299.989 287.269 300.8 286.94 301.551C286.612 302.302 286.133 302.977 285.532 303.533C284.931 304.09 284.221 304.516 283.448 304.784C282.674 305.053 281.854 305.158 281.038 305.095H271.843V313.466C271.843 314.209 271.551 314.923 271.029 315.452C270.507 315.982 269.799 316.283 269.056 316.293H262.432C261.682 316.293 260.965 315.995 260.435 315.465C259.905 314.935 259.608 314.216 259.608 313.466V305.095H256.17V313.285C256.17 314.083 255.853 314.848 255.289 315.412C254.726 315.976 253.962 316.293 253.165 316.293H246.939C246.142 316.293 245.377 315.976 244.814 315.412C244.251 314.848 243.934 314.083 243.934 313.285V305.095H232.387C232.064 305.042 231.772 304.876 231.561 304.627C231.35 304.378 231.234 304.063 231.234 303.736C231.234 303.409 231.35 303.093 231.561 302.844C231.772 302.595 232.064 302.43 232.387 302.377H245.31C245.668 302.386 246.009 302.536 246.259 302.793C246.509 303.05 246.649 303.395 246.649 303.754V313.285C246.657 313.36 246.69 313.429 246.742 313.481C246.796 313.534 246.864 313.567 246.939 313.575H253.165C253.239 313.567 253.308 313.534 253.361 313.481C253.413 313.429 253.446 313.36 253.455 313.285V303.754C253.454 303.395 253.594 303.05 253.844 302.793C254.094 302.536 254.435 302.386 254.793 302.377H260.984C261.163 302.377 261.34 302.413 261.505 302.482C261.67 302.552 261.819 302.654 261.944 302.782C262.069 302.911 262.166 303.063 262.232 303.229C262.297 303.397 262.328 303.574 262.323 303.754V313.466H269.056V303.645C269.056 303.286 269.196 302.941 269.446 302.684C269.696 302.427 270.037 302.278 270.396 302.268H281.038C281.456 302.272 281.871 302.191 282.257 302.029C282.643 301.867 282.992 301.627 283.282 301.326C283.58 301.033 283.817 300.683 283.978 300.297C284.14 299.911 284.223 299.497 284.223 299.079C284.228 298.657 284.149 298.238 283.991 297.847C283.833 297.456 283.599 297.1 283.303 296.8C283.007 296.5 282.654 296.262 282.265 296.1C281.876 295.937 281.459 295.853 281.038 295.853H219.247C218.942 295.852 218.647 295.748 218.411 295.557C218.174 295.366 218.009 295.1 217.943 294.802C216.927 290.593 214.502 286.858 211.07 284.221C207.639 281.583 203.408 280.202 199.083 280.306C194.295 280.462 189.739 282.41 186.314 285.765C182.89 289.119 180.846 293.637 180.586 298.426C180.454 301.693 181.169 304.938 182.662 307.845C184.156 310.752 186.377 313.222 189.107 315.014C191.838 316.806 194.986 317.86 198.244 318.071C201.502 318.282 204.76 317.645 207.699 316.221C207.86 316.141 208.036 316.096 208.215 316.086C208.394 316.076 208.573 316.102 208.742 316.163C208.911 316.224 209.066 316.318 209.198 316.44C209.329 316.562 209.435 316.709 209.509 316.873C209.661 317.196 209.682 317.566 209.567 317.903C209.452 318.241 209.211 318.522 208.893 318.685C205.959 320.107 202.742 320.851 199.482 320.86ZM216.242 311.98C215.973 311.982 215.709 311.906 215.482 311.763C215.333 311.665 215.205 311.537 215.105 311.389C215.006 311.239 214.938 311.073 214.905 310.897C214.871 310.721 214.872 310.541 214.909 310.366C214.947 310.191 215.018 310.025 215.12 309.878C216.453 307.922 217.41 305.735 217.943 303.427C218.009 303.13 218.174 302.864 218.411 302.674C218.647 302.482 218.942 302.378 219.247 302.377H227.21C227.407 302.344 227.609 302.356 227.801 302.409C227.993 302.462 228.171 302.557 228.323 302.686C228.475 302.815 228.597 302.977 228.681 303.157C228.764 303.339 228.808 303.536 228.808 303.736C228.808 303.935 228.764 304.132 228.681 304.314C228.597 304.495 228.475 304.656 228.323 304.786C228.171 304.915 227.993 305.009 227.801 305.062C227.609 305.116 227.407 305.127 227.21 305.095H220.332C219.688 307.343 218.686 309.472 217.364 311.401C217.241 311.584 217.074 311.734 216.878 311.836C216.682 311.937 216.463 311.987 216.242 311.98ZM199.482 309.697C197.405 309.697 195.376 309.081 193.65 307.926C191.923 306.772 190.578 305.13 189.784 303.209C188.989 301.289 188.781 299.176 189.186 297.137C189.591 295.099 190.591 293.226 192.059 291.756C193.527 290.287 195.398 289.285 197.434 288.88C199.47 288.475 201.581 288.682 203.499 289.478C205.417 290.273 207.057 291.62 208.21 293.349C209.364 295.077 209.98 297.109 209.98 299.188C209.98 301.975 208.873 304.648 206.905 306.619C204.937 308.59 202.266 309.697 199.482 309.697ZM199.482 291.396C197.943 291.396 196.438 291.853 195.158 292.709C193.878 293.565 192.881 294.782 192.292 296.206C191.703 297.63 191.549 299.196 191.849 300.708C192.149 302.219 192.89 303.607 193.979 304.697C195.067 305.787 196.454 306.529 197.964 306.829C199.473 307.13 201.038 306.976 202.461 306.386C203.882 305.797 205.098 304.798 205.953 303.517C206.808 302.235 207.265 300.729 207.265 299.188C207.265 297.121 206.445 295.139 204.985 293.678C203.526 292.217 201.546 291.396 199.482 291.396Z" fill="#3E3126"/>
<path d="M212.803 316.257C213.643 316.257 214.323 315.575 214.323 314.735C214.323 313.894 213.643 313.213 212.803 313.213C211.963 313.213 211.282 313.894 211.282 314.735C211.282 315.575 211.963 316.257 212.803 316.257Z" fill="#3E3126"/>
<path d="M102.072 171.874C103.052 171.874 103.846 171.079 103.846 170.098C103.846 169.118 103.052 168.323 102.072 168.323C101.092 168.323 100.298 169.118 100.298 170.098C100.298 171.079 101.092 171.874 102.072 171.874Z" fill="#3E3126"/>
<path d="M225.69 76.1902C226.67 76.1902 227.464 75.3952 227.464 74.4144C227.464 73.4337 226.67 72.6387 225.69 72.6387C224.711 72.6387 223.917 73.4337 223.917 74.4144C223.917 75.3952 224.711 76.1902 225.69 76.1902Z" fill="#3E3126"/>
<path d="M258.125 135.41C257.982 135.445 257.833 135.445 257.69 135.41C257.561 135.358 257.445 135.281 257.345 135.184C257.246 135.086 257.167 134.97 257.113 134.842C257.059 134.714 257.032 134.577 257.032 134.438C257.031 134.299 257.058 134.161 257.111 134.033L262.939 120.298C263.044 120.038 263.249 119.831 263.507 119.722C263.765 119.614 264.056 119.612 264.315 119.718C264.574 119.823 264.781 120.028 264.889 120.286C264.998 120.545 265 120.835 264.894 121.095L259.102 134.757C259.032 134.958 258.899 135.129 258.722 135.247C258.546 135.365 258.336 135.422 258.125 135.41Z" fill="#3E3126"/>
<path d="M265.763 128.823C265.632 128.855 265.496 128.855 265.365 128.823C265.236 128.771 265.119 128.695 265.02 128.597C264.921 128.5 264.842 128.384 264.788 128.256C264.735 128.128 264.707 127.99 264.706 127.851C264.705 127.712 264.733 127.575 264.785 127.446L267.863 120.198C267.915 120.069 267.992 119.953 268.089 119.854C268.187 119.755 268.303 119.677 268.431 119.623C268.558 119.569 268.695 119.541 268.834 119.54C268.972 119.539 269.11 119.566 269.238 119.618C269.366 119.67 269.483 119.748 269.582 119.845C269.68 119.943 269.759 120.059 269.813 120.187C269.866 120.315 269.895 120.452 269.895 120.591C269.896 120.729 269.87 120.867 269.817 120.995L266.704 128.243C266.62 128.421 266.487 128.57 266.32 128.673C266.153 128.776 265.959 128.828 265.763 128.823Z" fill="#3E3126"/>
</g>
</g>
<defs>
<clipPath id="clip0_326_99">
<rect width="218" height="249" fill="white" transform="translate(100 72)"/>
</clipPath>
</defs>
</svg>
