<svg width="404" height="404" viewBox="0 0 404 404" fill="none" xmlns="http://www.w3.org/2000/svg">
<path d="M196.78 9.21231C199.078 5.15633 204.922 5.15633 207.22 9.21231L252.535 89.1815C253.769 91.3593 256.225 92.5421 258.697 92.1491L349.473 77.7176C354.077 76.9856 357.72 81.5544 355.982 85.8801L321.713 171.169C320.78 173.491 321.386 176.149 323.235 177.837L391.116 239.81C394.559 242.953 393.258 248.65 388.792 249.989L300.745 276.372C298.347 277.091 296.647 279.222 296.48 281.72L290.351 373.431C290.04 378.082 284.775 380.618 280.944 377.961L205.42 325.572C203.363 324.146 200.637 324.146 198.58 325.572L123.056 377.961C119.225 380.618 113.96 378.082 113.649 373.431L107.52 281.72C107.353 279.222 105.653 277.091 103.255 276.372L15.2075 249.989C10.7418 248.65 9.44144 242.953 12.8843 239.81L80.7651 177.837C82.6136 176.149 83.2202 173.491 82.287 171.169L48.0178 85.8801C46.2797 81.5544 49.9232 76.9856 54.5272 77.7176L145.303 92.1491C147.775 92.5421 150.231 91.3593 151.465 89.1815L196.78 9.21231Z" fill="#32385B"/>
<mask id="mask0_326_99" style="mask-type:luminance" maskUnits="userSpaceOnUse" x="104" y="97" width="183" height="209">
<path d="M286.39 97.4181H104.037V305.877H286.39V97.4181Z" fill="white"/>
</mask>
<g mask="url(#mask0_326_99)">
<path d="M277.03 136.844H253.844C249.565 136.844 246.096 140.317 246.096 144.601V272.237C246.096 276.521 249.565 279.994 253.844 279.994H277.03C281.31 279.994 284.779 276.521 284.779 272.237V144.601C284.779 140.317 281.31 136.844 277.03 136.844Z" fill="white"/>
<path opacity="0.45" d="M264.238 192.779V135.287H151.806V279.167H264.238V192.779Z" fill="#C9D2DF"/>
<path d="M211.304 237.105H275.178V232.116H211.304V237.105Z" fill="#C9D2DF"/>
<path d="M211.304 248.441H275.178V243.452H211.304V248.441Z" fill="#C9D2DF"/>
<path d="M211.304 259.79H275.178V254.801H211.304V259.79Z" fill="#C9D2DF"/>
<path d="M211.304 195.03H275.178V190.042H211.304V195.03Z" fill="#C9D2DF"/>
<path d="M211.304 206.342H275.178V201.353H211.304V206.342Z" fill="#C9D2DF"/>
<path d="M211.304 217.725H275.178V212.736H211.304V217.725Z" fill="#C9D2DF"/>
<path d="M211.304 151.625H275.178V146.637H211.304V151.625Z" fill="#C9D2DF"/>
<path d="M211.304 174.344H275.178V146.299H211.304V174.344Z" fill="#C9D2DF"/>
<path d="M254.94 118.807H105.01V288.268H254.94V118.807Z" fill="white"/>
<path opacity="0.5" d="M254.909 171.551H105.739V172.19H254.909V171.551Z" fill="#C9D2DF"/>
<path opacity="0.5" d="M254.909 216.776H105.739V217.414H254.909V216.776Z" fill="#C9D2DF"/>
<path opacity="0.5" d="M254.909 265.173H105.739V265.811H254.909V265.173Z" fill="#C9D2DF"/>
<path d="M108.018 103.192H252.66C253.257 103.192 253.828 103.429 254.25 103.851C254.672 104.274 254.909 104.846 254.909 105.443V117.854H105.739V105.473C105.735 105.173 105.791 104.874 105.904 104.596C106.017 104.317 106.185 104.064 106.397 103.851C106.61 103.639 106.863 103.471 107.141 103.357C107.419 103.244 107.718 103.188 108.018 103.192Z" fill="#C3C6E3"/>
<path d="M203.463 150.317H189.668V152.812H203.463V150.317Z" fill="#C9D2DF"/>
<path d="M203.919 195.031H190.124V197.525H203.919V195.031Z" fill="#C9D2DF"/>
<path d="M203.919 239.957H190.124V242.451H203.919V239.957Z" fill="#C9D2DF"/>
<path d="M181.798 181.188H119.687C119.2 181.188 118.806 181.583 118.806 182.071V185.295C118.806 185.782 119.2 186.177 119.687 186.177H181.798C182.284 186.177 182.679 185.782 182.679 185.295V182.071C182.679 181.583 182.284 181.188 181.798 181.188Z" fill="#C9D2DF"/>
<path d="M181.798 192.534H119.687C119.2 192.534 118.806 192.929 118.806 193.416V196.641C118.806 197.128 119.2 197.523 119.687 197.523H181.798C182.284 197.523 182.679 197.128 182.679 196.641V193.416C182.679 192.929 182.284 192.534 181.798 192.534Z" fill="#C9D2DF"/>
<path d="M181.798 203.883H119.687C119.2 203.883 118.806 204.278 118.806 204.765V207.989C118.806 208.476 119.2 208.872 119.687 208.872H181.798C182.284 208.872 182.679 208.476 182.679 207.989V204.765C182.679 204.278 182.284 203.883 181.798 203.883Z" fill="#C9D2DF"/>
<path d="M181.798 132.364H119.687C119.2 132.364 118.806 132.759 118.806 133.246V136.47C118.806 136.957 119.2 137.352 119.687 137.352H181.798C182.284 137.352 182.679 136.957 182.679 136.47V133.246C182.679 132.759 182.284 132.364 181.798 132.364Z" fill="#C9D2DF"/>
<path d="M181.798 143.712H119.687C119.2 143.712 118.806 144.107 118.806 144.594V147.819C118.806 148.306 119.2 148.701 119.687 148.701H181.798C182.284 148.701 182.679 148.306 182.679 147.819V144.594C182.679 144.107 182.284 143.712 181.798 143.712Z" fill="#C9D2DF"/>
<path d="M181.798 155.058H119.687C119.2 155.058 118.806 155.453 118.806 155.94V159.165C118.806 159.652 119.2 160.047 119.687 160.047H181.798C182.284 160.047 182.679 159.652 182.679 159.165V155.94C182.679 155.453 182.284 155.058 181.798 155.058Z" fill="#C9D2DF"/>
<path d="M181.798 225.935H119.687C119.2 225.935 118.806 226.331 118.806 226.818V230.042C118.806 230.53 119.2 230.924 119.687 230.924H181.798C182.284 230.924 182.679 230.53 182.679 230.042V226.818C182.679 226.331 182.284 225.935 181.798 225.935Z" fill="#C9D2DF"/>
<path d="M181.798 237.284H119.687C119.2 237.284 118.806 237.679 118.806 238.166V241.391C118.806 241.878 119.2 242.272 119.687 242.272H181.798C182.284 242.272 182.679 241.878 182.679 241.391V238.166C182.679 237.679 182.284 237.284 181.798 237.284Z" fill="#C9D2DF"/>
<path d="M181.798 248.633H119.687C119.2 248.633 118.806 249.027 118.806 249.515V252.739C118.806 253.226 119.2 253.622 119.687 253.622H181.798C182.284 253.622 182.679 253.226 182.679 252.739V249.515C182.679 249.027 182.284 248.633 181.798 248.633Z" fill="#C9D2DF"/>
<path d="M193.345 135.892L194.347 137.9L196.566 138.235L194.955 139.816L195.35 142.037L193.345 140.972L191.339 142.037L191.734 139.816L190.124 138.235L192.342 137.9L193.345 135.892Z" fill="#FF9C01"/>
<path d="M201.671 135.892L202.674 137.9L204.892 138.235L203.282 139.816L203.677 142.037L201.671 140.972L199.666 142.037L200.061 139.816L198.45 138.235L200.668 137.9L201.671 135.892Z" fill="#FF9C01"/>
<path d="M209.997 135.892L211 137.9L213.218 138.235L211.607 139.816L211.972 142.037L209.997 140.972L207.991 142.037L208.386 139.816L206.746 138.235L208.994 137.9L209.997 135.892Z" fill="#FF9C01"/>
<path d="M218.323 135.892L219.326 137.9L221.544 138.235L219.933 139.816L220.298 142.037L218.323 140.972L216.317 142.037L216.712 139.816L215.071 138.235L217.319 137.9L218.323 135.892Z" fill="#FF9C01"/>
<path d="M226.649 135.892L227.621 137.9L229.87 138.235L228.26 139.816L228.624 142.037L226.649 140.972L224.644 142.037L225.008 139.816L223.398 138.235L225.646 137.9L226.649 135.892Z" fill="#FF9C01"/>
<path d="M193.345 180.618L194.347 182.656L196.566 182.96L194.955 184.541L195.35 186.762L193.345 185.728L191.339 186.762L191.734 184.541L190.124 182.96L192.342 182.656L193.345 180.618Z" fill="#FF9C01"/>
<path d="M201.671 180.618L202.674 182.656L204.892 182.96L203.282 184.541L203.677 186.762L201.671 185.728L199.666 186.762L200.061 184.541L198.45 182.96L200.668 182.656L201.671 180.618Z" fill="#FF9C01"/>
<path d="M209.997 180.618L211 182.656L213.218 182.96L211.607 184.541L211.972 186.762L209.997 185.728L207.991 186.762L208.386 184.541L206.746 182.96L208.994 182.656L209.997 180.618Z" fill="#FF9C01"/>
<path d="M218.323 180.618L219.326 182.656L221.544 182.96L219.933 184.541L220.298 186.762L218.323 185.728L216.317 186.762L216.712 184.541L215.071 182.96L217.319 182.656L218.323 180.618Z" fill="#FF9C01"/>
<path d="M226.649 180.618L227.621 182.656L229.87 182.96L228.26 184.541L228.624 186.762L226.649 185.728L224.644 186.762L225.008 184.541L223.398 182.96L225.646 182.656L226.649 180.618Z" fill="#FF9C01"/>
<path d="M193.345 225.355L194.347 227.363L196.566 227.697L194.955 229.279L195.35 231.5L193.345 230.435L191.339 231.5L191.734 229.279L190.124 227.697L192.342 227.363L193.345 225.355Z" fill="#FF9C01"/>
<path d="M201.671 225.355L202.674 227.363L204.892 227.697L203.282 229.279L203.677 231.5L201.671 230.435L199.666 231.5L200.061 229.279L198.45 227.697L200.668 227.363L201.671 225.355Z" fill="#FF9C01"/>
<path d="M209.997 225.355L211 227.363L213.218 227.697L211.607 229.279L211.972 231.5L209.997 230.435L207.991 231.5L208.386 229.279L206.746 227.697L208.994 227.363L209.997 225.355Z" fill="#FF9C01"/>
<path d="M218.323 225.355L219.326 227.363L221.544 227.697L219.933 229.279L220.298 231.5L218.323 230.435L216.317 231.5L216.712 229.279L215.071 227.697L217.319 227.363L218.323 225.355Z" fill="#FF9C01"/>
<path d="M226.649 225.355L227.621 227.363L229.87 227.697L228.26 229.279L228.624 231.5L226.649 230.435L224.644 231.5L225.008 229.279L223.398 227.697L225.646 227.363L226.649 225.355Z" fill="#FF9C01"/>
<path d="M251.05 291.307H206.745C206.375 291.307 206.02 291.16 205.758 290.897C205.495 290.635 205.348 290.279 205.348 289.908C205.348 289.537 205.495 289.181 205.758 288.919C206.02 288.656 206.375 288.509 206.745 288.509H251.05C251.421 288.509 251.776 288.656 252.038 288.919C252.301 289.181 252.448 289.537 252.448 289.908C252.448 290.279 252.301 290.635 252.038 290.897C251.776 291.16 251.421 291.307 251.05 291.307Z" fill="#3E3126"/>
<path d="M187.51 304.718C191.364 304.718 195.103 303.409 198.117 301.006C201.131 298.602 203.241 295.245 204.101 291.485H225.98V300.884H233.941V291.485H239.137V300.884H247.099V291.485H255.972C256.476 291.493 256.976 291.398 257.441 291.204C257.906 291.01 258.327 290.723 258.676 290.36C259.034 290.012 259.318 289.596 259.511 289.136C259.704 288.676 259.803 288.182 259.801 287.683C259.801 286.666 259.397 285.692 258.679 284.973C257.961 284.254 256.987 283.85 255.972 283.85H204.101C203.381 280.728 201.796 277.873 199.528 275.612C197.259 273.351 194.4 271.777 191.278 271.069C188.156 270.362 184.898 270.55 181.878 271.612C178.859 272.674 176.2 274.568 174.206 277.075C172.213 279.582 170.966 282.601 170.61 285.785C170.253 288.97 170.801 292.19 172.19 295.077C173.579 297.963 175.754 300.399 178.464 302.104C181.174 303.81 184.309 304.715 187.51 304.718ZM187.51 279.987C189.031 279.987 190.517 280.438 191.781 281.284C193.045 282.13 194.031 283.332 194.612 284.738C195.194 286.144 195.347 287.692 195.05 289.184C194.753 290.677 194.021 292.049 192.946 293.125C191.871 294.201 190.501 294.934 189.01 295.231C187.518 295.528 185.972 295.376 184.568 294.793C183.163 294.21 181.962 293.224 181.118 291.959C180.273 290.693 179.822 289.205 179.822 287.683C179.814 286.667 180.007 285.66 180.389 284.719C180.772 283.779 181.337 282.923 182.052 282.202C182.766 281.481 183.617 280.909 184.554 280.518C185.49 280.127 186.495 279.926 187.51 279.926V279.987Z" fill="#FFB320"/>
</g>
</svg>
