<svg xmlns:inkscape="http://www.inkscape.org/namespaces/inkscape"
    xmlns:sodipodi="http://sodipodi.sourceforge.net/DTD/sodipodi-0.dtd"
    xmlns="http://www.w3.org/2000/svg" xmlns:svg="http://www.w3.org/2000/svg" version="1.1"
    id="svg2" xml:space="preserve" width="142.12801" height="40" viewBox="0 0 142.12801 40"
    sodipodi:docname="Sk_Sk-block-green-ru.svg"
    inkscape:version="1.1.1 (1:1.1+202109281949+c3084ef5ed)">
    <defs id="defs6"/>
    <sodipodi:namedview id="namedview4" pagecolor="#ffffff" bordercolor="#666666" borderopacity="1.0" inkscape:pageshadow="2" inkscape:pageopacity="0.0" inkscape:pagecheckerboard="0" showgrid="false" inkscape:zoom="2.7563443" inkscape:cx="63.127091" inkscape:cy="35.554339" inkscape:window-width="1920" inkscape:window-height="997" inkscape:window-x="0" inkscape:window-y="0" inkscape:window-maximized="1" inkscape:current-layer="g8" width="142.12801px"/><g id="g8" inkscape:groupmode="layer" inkscape:label="ink_ext_XXXXXX" transform="matrix(1.3333333,0,0,-1.3333333,0,65.653333)"><g id="g10" transform="matrix(0.06092681,0,0,0.06092681,0,19.239561)"><path d="M 123.098,492.398 C 55.1172,492.398 0,437.289 0,369.301 V 123.098 C 0,55.1133 55.1172,0.00390625 123.098,0.00390625 h 246.203 c 67.984,0 123.101,55.10939375 123.101,123.09409375 v 369.3 H 123.098" style="fill:#B1EC52;fill-opacity:1;fill-rule:nonzero;stroke:none" id="path12"/><path d="m 134.578,295.777 c -4.027,17.61 13.543,33.192 36.27,33.192 20.472,0 40.992,-4.59 48.8,-33.133 h 26.243 v -43.559 c -32.719,26.895 -103.653,10.02 -111.313,43.5 z m 272.301,12.059 h -59.117 l -56.239,-61.594 v 123.059 h -45.632 v -29.817 c -1.489,1.922 -3.059,3.832 -4.817,5.696 -16.594,17.566 -40.5,26.472 -71.066,26.472 -35.348,0 -55.445,-15.82 -66.082,-29.089 -13.2112,-16.473 -19.1096,-38.958 -15.0276,-57.278 10.5743,-47.426 54.5816,-55 86.9106,-59.203 25.523,-3.32 49.941,-7.953 49.293,-30.703 -0.676,-23.609 -27.289,-29.414 -44.758,-29.414 -45.496,0 -47.031,33.629 -47.031,33.629 H 84.3828 c 0.7149,-12.629 4.5313,-32.903 20.0782,-50.301 17.023,-19.063 42.555,-28.723 75.883,-28.723 25.566,0 48.855,8.328 65.547,23.118 v -20.325 h 45.632 v 58.09 l 16.145,17.66 46.09,-75.75 h 53.105 l -67.07,110.946 67.086,73.527" style="fill:#424b52;fill-opacity:1;fill-rule:nonzero;stroke:none" id="path14"/><path d="m 698.176,259.133 c -1.274,2.301 -3.059,4.601 -4.848,6.898 -2.047,2.043 -4.344,4.086 -7.406,5.875 -2.813,1.789 -6.387,3.063 -10.473,4.34 -4.09,1.024 -8.683,1.535 -14.304,1.535 -2.297,0 -5.106,-0.258 -8.172,-0.765 -3.067,-0.77 -6.387,-1.789 -9.707,-3.321 -3.321,-1.789 -6.641,-4.09 -9.961,-6.902 -3.063,-2.805 -6.129,-6.641 -8.43,-11.234 -2.805,-4.856 -4.852,-10.469 -6.387,-17.11 -1.527,-6.64 -2.293,-14.558 -2.293,-23.754 0,-9.961 1.02,-18.644 3.063,-26.562 2.043,-7.922 5.109,-14.563 8.937,-19.922 3.836,-5.367 8.688,-9.449 14.305,-12.262 5.363,-2.808 11.746,-4.34 18.645,-4.34 8.175,0 14.558,1.278 19.668,3.575 5.109,2.554 9.195,5.621 12.257,9.195 3.067,3.57 5.368,7.406 6.641,11.238 1.531,3.828 2.812,7.406 3.574,10.215 h 38.055 c -2.039,-11.492 -5.36,-21.453 -10.215,-29.883 -4.852,-8.426 -10.727,-15.32 -17.621,-20.941 -6.899,-5.621 -14.559,-9.707 -23.242,-12.516 -8.688,-2.812 -17.879,-4.086 -27.582,-4.086 -13.539,0 -25.797,2.297 -36.27,6.895 -10.472,4.344 -19.41,10.98 -26.562,19.152 -7.153,8.434 -12.516,18.649 -16.348,30.652 -3.828,11.747 -5.617,25.028 -5.617,39.59 0,11.235 1.023,21.453 3.32,30.649 2.043,9.195 5.11,17.367 8.938,24.515 3.832,7.157 8.425,13.028 13.793,18.395 5.109,5.109 10.726,9.449 17.113,12.769 6.129,3.321 12.516,5.875 19.41,7.661 6.895,1.535 13.789,2.3 20.688,2.3 9.96,0 18.902,-1.027 26.562,-3.066 7.664,-2.301 14.559,-4.855 20.43,-8.43 5.875,-3.574 10.73,-7.406 14.816,-12 4.086,-4.601 7.66,-9.199 10.219,-13.793 2.555,-4.855 4.34,-9.707 5.875,-14.304 1.273,-4.852 2.039,-9.196 2.293,-13.282 h -38.309 l -1.789,6.129 c -0.765,2.301 -1.785,4.34 -3.066,6.895" style="fill:#424b52;fill-opacity:1;fill-rule:nonzero;stroke:none" id="path16"/><path d="m 843.352,258.879 h 47 l -56.192,-56.445 58.488,-79.43 h -45.976 l -39.844,57.469 -14.301,-14.563 v -42.906 h -35.242 v 135.875 h 35.242 v -51.594 l 50.825,51.594" style="fill:#424b52;fill-opacity:1;fill-rule:nonzero;stroke:none" id="path18"/><path d="m 924.676,175.871 c 1.027,-5.105 2.812,-9.703 5.621,-13.535 2.555,-4.086 5.875,-7.406 9.961,-9.707 4.086,-2.301 9.195,-3.574 15.328,-3.574 6.379,0 11.746,1.273 15.832,3.574 4.09,2.301 7.41,5.621 9.961,9.449 2.555,3.832 4.344,8.172 5.363,13.285 1.02,5.11 1.531,10.215 1.531,15.578 0,5.364 -0.511,10.473 -1.531,15.579 -1.019,5.109 -2.808,9.707 -5.363,13.535 -2.551,3.836 -5.871,6.898 -9.961,9.453 -4.086,2.301 -9.453,3.32 -15.832,3.32 -6.133,0 -11.242,-1.277 -15.328,-3.578 -4.086,-2.297 -7.406,-5.613 -9.961,-9.449 -2.809,-4.086 -4.594,-8.426 -5.621,-13.535 -1.02,-5.106 -1.785,-10.215 -1.785,-15.325 0,-5.109 0.765,-10.214 1.785,-15.07 z m -33.711,43.93 c 3.066,8.941 7.66,16.601 13.789,22.988 6.133,6.383 13.285,11.238 21.969,14.816 8.679,3.575 18.132,5.36 28.863,5.36 10.98,0 20.687,-1.785 29.367,-5.36 8.684,-3.578 15.837,-8.433 21.707,-14.816 5.88,-6.387 10.48,-14.047 13.8,-22.988 3.06,-8.688 4.59,-18.387 4.59,-28.86 0,-10.468 -1.53,-20.175 -4.59,-28.863 -3.32,-8.937 -7.92,-16.598 -13.8,-22.984 -5.87,-6.129 -13.023,-11.239 -21.707,-14.817 -8.68,-3.574 -18.387,-5.363 -29.367,-5.363 -10.731,0 -20.184,1.789 -28.863,5.363 -8.684,3.578 -15.836,8.688 -21.969,14.817 -6.129,6.386 -10.723,14.047 -13.789,22.984 -3.067,8.688 -4.852,18.395 -4.852,28.863 0,10.473 1.785,20.172 4.852,28.86" style="fill:#424b52;fill-opacity:1;fill-rule:nonzero;stroke:none" id="path20"/><path d="m 1091.46,230.277 -0.5,-25.289 c -0.52,-14.3 -1.54,-26.816 -2.82,-37.543 -1.53,-10.73 -3.83,-19.668 -6.89,-26.816 -3.32,-7.156 -7.66,-12.516 -13.03,-16.352 -5.36,-3.574 -12.51,-5.363 -20.94,-5.363 -4.09,0 -7.41,0.258 -10.47,0.512 -3.07,0.512 -5.37,1.277 -7.41,2.047 v 29.625 c 1.28,-0.508 2.81,-1.024 4.6,-1.535 1.78,-0.254 3.83,-0.508 6.38,-0.508 2.81,0 5.11,0.765 7.15,2.554 2.05,1.532 3.84,4.34 5.37,8.68 1.53,4.348 2.55,10.223 3.57,17.883 0.77,7.66 1.28,17.367 1.54,29.367 l 1.02,51.34 h 109.31 V 123.004 h -34.99 v 107.273 h -41.89" style="fill:#424b52;fill-opacity:1;fill-rule:nonzero;stroke:none" id="path22"/><path d="m 1280.14,258.879 h 46.99 l -56.19,-56.445 58.49,-79.43 h -45.97 l -39.85,57.469 -14.3,-14.563 v -42.906 h -35.24 v 135.875 h 35.24 v -51.594 l 50.83,51.594" style="fill:#424b52;fill-opacity:1;fill-rule:nonzero;stroke:none" id="path24"/><path d="m 1361.46,175.871 c 1.02,-5.105 2.81,-9.703 5.62,-13.535 2.55,-4.086 5.87,-7.406 9.96,-9.707 4.09,-2.301 9.19,-3.574 15.33,-3.574 6.38,0 11.74,1.273 15.83,3.574 4.09,2.301 7.41,5.621 9.96,9.449 2.56,3.832 4.34,8.172 5.36,13.285 1.03,5.11 1.54,10.215 1.54,15.578 0,5.364 -0.51,10.473 -1.54,15.579 -1.02,5.109 -2.8,9.707 -5.36,13.535 -2.55,3.836 -5.87,6.898 -9.96,9.453 -4.09,2.301 -9.45,3.32 -15.83,3.32 -6.14,0 -11.24,-1.277 -15.33,-3.578 -4.09,-2.297 -7.41,-5.613 -9.96,-9.449 -2.81,-4.086 -4.6,-8.426 -5.62,-13.535 -1.02,-5.106 -1.79,-10.215 -1.79,-15.325 0,-5.109 0.77,-10.214 1.79,-15.07 z m -33.71,43.93 c 3.06,8.941 7.66,16.601 13.79,22.988 6.13,6.383 13.28,11.238 21.96,14.816 8.69,3.575 18.14,5.36 28.87,5.36 10.98,0 20.69,-1.785 29.37,-5.36 8.68,-3.578 15.83,-8.433 21.71,-14.816 5.87,-6.387 10.47,-14.047 13.79,-22.988 3.06,-8.688 4.59,-18.387 4.59,-28.86 0,-10.468 -1.53,-20.175 -4.59,-28.863 -3.32,-8.937 -7.92,-16.598 -13.79,-22.984 -5.88,-6.129 -13.03,-11.239 -21.71,-14.817 -8.68,-3.574 -18.39,-5.363 -29.37,-5.363 -10.73,0 -20.18,1.789 -28.87,5.363 -8.68,3.578 -15.83,8.688 -21.96,14.817 -6.13,6.386 -10.73,14.047 -13.79,22.984 -3.07,8.688 -4.86,18.395 -4.86,28.863 0,10.473 1.79,20.172 4.86,28.86" style="fill:#424b52;fill-opacity:1;fill-rule:nonzero;stroke:none" id="path26"/><path d="m 1553.17,149.563 c 3.07,1.281 5.37,2.558 7.16,4.343 1.53,1.532 2.81,3.324 3.32,5.364 0.51,2.046 0.76,3.832 0.76,5.621 0,3.32 -0.25,6.129 -1.27,8.425 -0.77,2.047 -2.05,3.836 -4.09,5.11 -1.79,1.531 -4.34,2.301 -7.41,2.812 -3.06,0.508 -6.64,0.766 -10.98,0.766 h -27.07 v -33.969 h 27.07 c 5.11,0 9.45,0.508 12.51,1.528 z m -2.29,56.957 c 2.55,0.765 4.59,1.535 6.13,2.808 1.53,1.027 2.8,2.555 3.32,4.348 0.76,1.785 1.02,4.086 1.02,6.379 0,2.047 -0.26,3.836 -1.02,5.621 -0.52,1.535 -1.79,3.066 -3.32,4.34 -1.28,1.027 -3.33,2.047 -5.88,2.812 -2.55,0.77 -5.62,1.024 -9.45,1.024 h -28.09 V 205.5 h 27.07 c 4.08,0 7.4,0.508 10.22,1.02 z m 15.83,50.828 c 5.62,-1.278 10.73,-3.071 15.32,-5.618 4.35,-2.812 7.92,-6.386 10.48,-10.988 2.55,-4.594 3.83,-10.465 3.83,-17.621 0,-4.086 -0.26,-7.66 -1.28,-10.473 -0.76,-3.062 -2.04,-5.617 -3.57,-7.66 -1.54,-2.3 -3.32,-4.086 -5.11,-5.363 -2.05,-1.531 -3.83,-2.812 -6.13,-3.832 6.9,-2.301 12,-6.129 15.58,-11.492 3.57,-5.363 5.36,-11.496 5.36,-18.899 0,-6.386 -1.02,-12.261 -3.06,-17.367 -2.3,-5.113 -5.37,-9.707 -9.45,-13.281 -4.09,-3.832 -8.95,-6.641 -14.82,-8.688 -5.87,-2.039 -12.26,-3.062 -19.41,-3.062 h -76.11 v 135.875 h 70.24 c 6.38,0 12.26,-0.508 18.13,-1.531" style="fill:#424b52;fill-opacity:1;fill-rule:nonzero;stroke:none" id="path28"/><path d="m 1649.21,175.871 c 1.02,-5.105 2.81,-9.703 5.62,-13.535 2.55,-4.086 5.87,-7.406 9.96,-9.707 4.09,-2.301 9.19,-3.574 15.33,-3.574 6.38,0 11.74,1.273 15.83,3.574 4.09,2.301 7.41,5.621 9.96,9.449 2.56,3.832 4.34,8.172 5.36,13.285 1.03,5.11 1.54,10.215 1.54,15.578 0,5.364 -0.51,10.473 -1.54,15.579 -1.02,5.109 -2.8,9.707 -5.36,13.535 -2.55,3.836 -5.87,6.898 -9.96,9.453 -4.09,2.301 -9.45,3.32 -15.83,3.32 -6.14,0 -11.24,-1.277 -15.33,-3.578 -4.09,-2.297 -7.41,-5.613 -9.96,-9.449 -2.81,-4.086 -4.6,-8.426 -5.62,-13.535 -1.02,-5.106 -1.79,-10.215 -1.79,-15.325 0,-5.109 0.77,-10.214 1.79,-15.07 z m -33.71,43.93 c 3.06,8.941 7.66,16.601 13.79,22.988 6.13,6.383 13.28,11.238 21.96,14.816 8.68,3.575 18.14,5.36 28.87,5.36 10.98,0 20.68,-1.785 29.37,-5.36 8.68,-3.578 15.83,-8.433 21.7,-14.816 5.88,-6.387 10.48,-14.047 13.8,-22.988 3.06,-8.688 4.59,-18.387 4.59,-28.86 0,-10.468 -1.53,-20.175 -4.59,-28.863 -3.32,-8.937 -7.92,-16.598 -13.8,-22.984 -5.87,-6.129 -13.02,-11.239 -21.7,-14.817 -8.69,-3.574 -18.39,-5.363 -29.37,-5.363 -10.73,0 -20.19,1.789 -28.87,5.363 -8.68,3.578 -15.83,8.688 -21.96,14.817 -6.13,6.386 -10.73,14.047 -13.79,22.984 -3.07,8.688 -4.86,18.395 -4.86,28.863 0,10.473 1.79,20.172 4.86,28.86" style="fill:#424b52;fill-opacity:1;fill-rule:nonzero;stroke:none" id="path30"/></g></g><style xmlns="" class="darkreader darkreader--fallback">html, body, body :not(iframe) {
    background-color: #1a1b1c !important;
    border-color: #79746d !important;
    color: #f3f2f0 !important;
}
div[style*="background-color: rgb(135, 135, 135)"] {
    background-color: #878787 !important;
}</style></svg>