<svg width="384" height="374" viewBox="0 0 384 374" fill="none" xmlns="http://www.w3.org/2000/svg">
<path d="M186.78 3.21231C189.078 -0.843674 194.922 -0.84367 197.22 3.21231L242.535 83.1815C243.769 85.3593 246.225 86.5421 248.697 86.1491L339.473 71.7176C344.077 70.9856 347.72 75.5544 345.982 79.8801L311.713 165.169C310.78 167.491 311.386 170.149 313.235 171.837L381.116 233.81C384.559 236.953 383.258 242.65 378.792 243.989L290.745 270.372C288.347 271.091 286.647 273.222 286.48 275.72L280.351 367.431C280.04 372.082 274.775 374.618 270.944 371.961L195.42 319.572C193.363 318.146 190.637 318.146 188.58 319.572L113.056 371.961C109.225 374.618 103.96 372.082 103.649 367.431L97.5196 275.72C97.3527 273.222 95.6529 271.091 93.2552 270.372L5.20749 243.989C0.741776 242.65 -0.558561 236.953 2.8843 233.81L70.7651 171.837C72.6136 170.149 73.2202 167.491 72.287 165.169L38.0178 79.8801C36.2797 75.5544 39.9232 70.9856 44.5272 71.7176L135.303 86.1491C137.775 86.5421 140.231 85.3593 141.465 83.1815L186.78 3.21231Z" fill="#32385B"/>
</svg>
