<svg width="203" height="145" viewBox="0 0 203 145" fill="none" xmlns="http://www.w3.org/2000/svg">
<path d="M9.28839 57.885V16.4924H193.663V133.174C193.663 136.113 192.496 138.932 190.419 141.01C188.341 143.088 185.524 144.256 182.586 144.256H26.491C24.0049 144.26 21.5429 143.767 19.25 142.806C16.9571 141.845 14.8797 140.435 13.14 138.658C11.4003 136.881 10.0337 134.774 9.12036 132.461C8.20707 130.148 7.76569 127.675 7.8222 125.189L9.28839 57.885Z" fill="white"/>
<path d="M57.4101 45.5333L59.9839 50.7807L65.8159 51.6607L61.613 55.7348L62.5905 61.5363L57.4101 58.7985L52.1972 61.5363L53.1746 55.7348L48.9717 51.6607L54.8036 50.7807L57.4101 45.5333Z" fill="#FF9C01"/>
<path d="M79.0763 45.5333L81.6507 50.7807L87.4824 51.6607L83.2797 55.7348L84.2567 61.5363L79.0763 58.7985L73.8636 61.5363L74.8736 55.7348L70.6709 51.6607L76.4703 50.7807L79.0763 45.5333Z" fill="#FF9C01"/>
<path d="M100.742 45.5333L103.316 50.7807L109.148 51.6607L104.945 55.7348L105.923 61.5363L100.742 58.7985L95.5287 61.5363L96.5388 55.7348L92.3037 51.6607L98.1354 50.7807L100.742 45.5333Z" fill="#FF9C01"/>
<path d="M122.408 45.5333L125.015 50.7807L130.814 51.6607L126.612 55.7348L127.589 61.5363L122.408 58.7985L117.196 61.5363L118.206 55.7348L114.003 51.6607L119.802 50.7807L122.408 45.5333Z" fill="#FF9C01"/>
<path d="M144.075 45.5333L146.681 50.7807L152.481 51.6607L148.277 55.7348L149.255 61.5363L144.075 58.7985L138.862 61.5363L139.872 55.7348L135.668 51.6607L141.468 50.7807L144.075 45.5333Z" fill="#FF9C01"/>
<path d="M193.662 0.425415H9.28734C4.26702 0.425415 0.197266 4.49663 0.197266 9.51876C0.197266 14.5408 4.26702 18.6121 9.28734 18.6121H193.662C198.683 18.6121 202.753 14.5408 202.753 9.51876C202.753 4.49663 198.683 0.425415 193.662 0.425415Z" fill="#6AE184"/>
<path d="M141.86 73.0093H79.1095C78.6059 73.0093 78.1973 73.4174 78.1973 73.9219V77.1481C78.1973 77.6526 78.6059 78.0607 79.1095 78.0607H141.86C142.364 78.0607 142.772 77.6526 142.772 77.1481V73.9219C142.772 73.4174 142.364 73.0093 141.86 73.0093Z" fill="#C9D2DF"/>
<path d="M141.86 84.4786H79.1095C78.6059 84.4786 78.1973 84.8867 78.1973 85.3913V88.6174C78.1973 89.1213 78.6059 89.53 79.1095 89.53H141.86C142.364 89.53 142.772 89.1213 142.772 88.6174V85.3913C142.772 84.8867 142.364 84.4786 141.86 84.4786Z" fill="#C9D2DF"/>
<path d="M141.86 95.9237H79.1095C78.6059 95.9237 78.1973 96.3325 78.1973 96.8363V100.063C78.1973 100.567 78.6059 100.976 79.1095 100.976H141.86C142.364 100.976 142.772 100.567 142.772 100.063V96.8363C142.772 96.3325 142.364 95.9237 141.86 95.9237Z" fill="#C9D2DF"/>
<path d="M65.7507 89.3728C65.4507 88.6969 65.0185 88.0872 64.4802 87.5799C63.9739 87.0929 63.404 86.6761 62.786 86.3415C62.1867 86.0178 61.5663 85.7345 60.9289 85.4944L58.5505 84.5163C57.8867 84.2526 57.2787 83.8654 56.7585 83.3757C56.5347 83.1619 56.3583 82.9036 56.2404 82.6169C56.1226 82.3309 56.066 82.0233 56.0744 81.7137C56.064 81.2409 56.1644 80.7714 56.3676 80.3445C56.6089 79.9647 56.9617 79.6686 57.3776 79.4973C57.9272 79.2828 58.5148 79.183 59.1044 79.2039C59.7222 79.1857 60.3324 79.3442 60.8637 79.6598C61.3714 79.9614 61.8144 80.36 62.167 80.8335C62.5485 81.3475 62.8863 81.8925 63.177 82.4631L65.9786 80.7357C65.6091 79.9519 65.1261 79.2275 64.5454 78.5847C63.8973 77.8913 63.1233 77.3267 62.2647 76.9227C61.6972 76.6522 61.0937 76.4654 60.4728 76.3682V73.109H57.6383V76.3682C56.9044 76.4816 56.1909 76.7008 55.5205 77.0205C54.574 77.4286 53.7612 78.095 53.1747 78.9428C52.5947 79.7125 52.2855 80.6521 52.295 81.6159C52.2714 82.4955 52.4615 83.3676 52.8489 84.1582C53.1841 84.8387 53.6489 85.4478 54.2172 85.9503C54.7618 86.4259 55.3637 86.8312 56.0092 87.1564C56.5681 87.443 57.1449 87.6933 57.736 87.9064C58.5505 88.1991 59.2999 88.5256 60.0167 88.8514C60.6584 89.1765 61.2419 89.6062 61.7434 90.1222C62.2118 90.6375 62.4577 91.3167 62.4276 92.0128C62.4404 92.5558 62.3172 93.0941 62.0693 93.577C61.8319 94.004 61.4674 94.3453 61.0266 94.555C60.4603 94.7931 59.8486 94.9044 59.2347 94.8808C58.4742 94.899 57.7221 94.719 57.0518 94.3594C56.3814 93.9945 55.7935 93.4954 55.325 92.8931C54.7504 92.1443 54.2589 91.3356 53.8589 90.481L51.1221 92.2732C51.568 93.3315 52.1967 94.3021 52.9792 95.1419C53.7481 95.9762 54.665 96.6615 55.6834 97.1627C56.303 97.4217 56.9469 97.618 57.6057 97.7489V101.008H60.375V97.7489C61.2521 97.672 62.1106 97.4521 62.9163 97.0973C63.9158 96.6359 64.7552 95.8872 65.3273 94.9463C65.9119 93.9615 66.2052 92.8317 66.1741 91.687C66.193 90.8945 66.0487 90.1073 65.7507 89.3728Z" fill="#42CAF8"/>
</svg>
