<svg width="404" height="404" viewBox="0 0 404 404" fill="none" xmlns="http://www.w3.org/2000/svg">
<path d="M196.78 9.21231C199.078 5.15633 204.922 5.15633 207.22 9.21231L252.535 89.1815C253.769 91.3593 256.225 92.5421 258.697 92.1491L349.473 77.7176C354.077 76.9856 357.72 81.5544 355.982 85.8801L321.713 171.169C320.78 173.491 321.386 176.149 323.235 177.837L391.116 239.81C394.559 242.953 393.258 248.65 388.792 249.989L300.745 276.372C298.347 277.091 296.647 279.222 296.48 281.72L290.351 373.431C290.04 378.082 284.775 380.618 280.944 377.961L205.42 325.572C203.363 324.146 200.637 324.146 198.58 325.572L123.056 377.961C119.225 380.618 113.96 378.082 113.649 373.431L107.52 281.72C107.353 279.222 105.653 277.091 103.255 276.372L15.2075 249.989C10.7418 248.65 9.44144 242.953 12.8843 239.81L80.7651 177.837C82.6136 176.149 83.2202 173.491 82.287 171.169L48.0178 85.8801C46.2797 81.5544 49.9232 76.9856 54.5272 77.7176L145.303 92.1491C147.775 92.5421 150.231 91.3593 151.465 89.1815L196.78 9.21231Z" fill="#32385B"/>
<g clip-path="url(#clip0_326_97)">
<mask id="mask0_326_97" style="mask-type:luminance" maskUnits="userSpaceOnUse" x="31" y="79" width="350" height="186">
<path d="M381 79H31V265H381V79Z" fill="white"/>
</mask>
<g mask="url(#mask0_326_97)">
<path d="M156.869 152.466H115.565C112.654 152.466 110.294 154.827 110.294 157.739V256.674C110.294 259.585 112.654 261.946 115.565 261.946H156.869C159.78 261.946 162.14 259.585 162.14 256.674V157.739C162.14 154.827 159.78 152.466 156.869 152.466Z" fill="#E0F0F5"/>
<path d="M227.912 119.334H185.658C183.009 119.334 180.862 121.482 180.862 124.131V258.59C180.862 261.239 183.009 263.386 185.658 263.386H227.912C230.56 263.386 232.707 261.239 232.707 258.59V124.131C232.707 121.482 230.56 119.334 227.912 119.334Z" fill="#E0F0F5"/>
<path d="M296.478 80.4404H255.347C252.389 80.4404 249.989 82.8396 249.989 85.7992V256.587C249.989 259.547 252.389 261.946 255.347 261.946H296.478C299.437 261.946 301.834 259.547 301.834 256.587V85.7992C301.834 82.8396 299.437 80.4404 296.478 80.4404Z" fill="#E0F0F5"/>
<path d="M302.554 196.417V257.091C302.557 257.796 302.419 258.493 302.151 259.144C301.882 259.795 301.487 260.387 300.989 260.885C300.491 261.383 299.899 261.778 299.249 262.046C298.598 262.315 297.902 262.452 297.196 262.45H256.081C255.375 262.452 254.679 262.315 254.026 262.046C253.375 261.778 252.782 261.384 252.284 260.886C251.784 260.388 251.389 259.797 251.118 259.146C250.849 258.495 250.709 257.796 250.709 257.091V201.185C250.709 198.893 251.62 196.694 253.24 195.073C254.86 193.452 257.059 192.542 259.349 192.542C261.642 192.542 263.84 193.452 265.461 195.073C267.081 196.694 267.991 198.893 267.991 201.185V213.213C267.991 215.506 268.902 217.704 270.522 219.325C272.142 220.946 274.34 221.856 276.631 221.856C278.923 221.856 281.122 220.946 282.742 219.325C284.362 217.704 285.273 215.506 285.273 213.213V196.417C285.273 194.125 286.183 191.926 287.803 190.305C289.423 188.684 291.622 187.774 293.915 187.774C296.205 187.774 298.404 188.684 300.024 190.305C301.644 191.926 302.554 194.125 302.554 196.417Z" fill="#BDDFE9"/>
<path d="M231.916 171.367V257.971C231.918 258.675 231.78 259.373 231.512 260.024C231.243 260.675 230.849 261.266 230.351 261.764C229.853 262.262 229.262 262.657 228.611 262.925C227.96 263.194 227.262 263.332 226.559 263.33H185.442C184.737 263.332 184.039 263.194 183.388 262.926C182.736 262.657 182.144 262.263 181.645 261.765C181.146 261.267 180.75 260.676 180.479 260.025C180.209 259.374 180.07 258.676 180.07 257.971V207.826C180.07 205.534 180.981 203.336 182.601 201.715C184.222 200.094 186.42 199.183 188.711 199.183C191.003 199.183 193.201 200.094 194.821 201.715C196.442 203.336 197.352 205.534 197.352 207.826V214.093C197.352 216.385 198.262 218.583 199.883 220.204C201.503 221.825 203.701 222.736 205.993 222.736C208.285 222.736 210.483 221.825 212.103 220.204C213.724 218.583 214.634 216.385 214.634 214.093V171.367C214.634 169.074 215.544 166.876 217.165 165.255C218.785 163.634 220.983 162.724 223.275 162.724C225.567 162.724 227.764 163.634 229.385 165.255C231.005 166.876 231.916 169.074 231.916 171.367Z" fill="#BDDFE9"/>
<path d="M162.86 197.857V255.651C162.862 256.355 162.725 257.053 162.456 257.704C162.188 258.355 161.793 258.946 161.295 259.444C160.797 259.942 160.206 260.337 159.555 260.606C158.904 260.874 158.207 261.011 157.503 261.009H116.386C115.682 261.011 114.983 260.874 114.332 260.606C113.68 260.337 113.088 259.943 112.589 259.445C112.09 258.947 111.694 258.356 111.424 257.705C111.154 257.054 111.015 256.356 111.015 255.651V205.506C111.015 203.214 111.925 201.016 113.545 199.395C115.166 197.774 117.364 196.863 119.655 196.863C121.947 196.863 124.145 197.774 125.766 199.395C127.386 201.016 128.297 203.214 128.297 205.506V211.773C128.297 214.065 129.207 216.263 130.827 217.884C132.448 219.505 134.646 220.416 136.937 220.416C139.229 220.416 141.427 219.505 143.047 217.884C144.668 216.263 145.578 214.065 145.578 211.773V197.857C145.578 195.565 146.489 193.366 148.109 191.745C149.729 190.125 151.928 189.214 154.219 189.214C156.511 189.214 158.709 190.125 160.329 191.745C161.95 193.366 162.86 195.565 162.86 197.857Z" fill="#BDDFE9"/>
<path d="M313.184 105.663C314.559 105.663 315.675 104.548 315.675 103.171C315.675 101.795 314.559 100.679 313.184 100.679C311.808 100.679 310.692 101.795 310.692 103.171C310.692 104.548 311.808 105.663 313.184 105.663Z" fill="#EEF0F1"/>
<path d="M320.471 121.049C319.102 121.039 317.777 120.556 316.725 119.68C315.672 118.805 314.956 117.592 314.698 116.247C314.439 114.903 314.655 113.51 315.308 112.306C315.958 111.103 317.009 110.162 318.277 109.646C319.543 109.129 320.952 109.068 322.26 109.472C323.567 109.877 324.694 110.722 325.45 111.865C326.203 113.007 326.539 114.376 326.397 115.738C326.257 117.1 325.648 118.371 324.677 119.334C323.557 120.441 322.043 121.058 320.471 121.049ZM320.471 110.691C319.325 110.756 318.247 111.257 317.458 112.092C316.67 112.926 316.231 114.031 316.231 115.178C316.231 116.327 316.67 117.431 317.458 118.265C318.247 119.1 319.325 119.601 320.471 119.666C321.059 119.672 321.644 119.561 322.192 119.34C322.738 119.119 323.236 118.793 323.655 118.379C324.076 117.966 324.41 117.473 324.64 116.93C324.869 116.387 324.989 115.804 324.993 115.214C325 114.028 324.537 112.886 323.707 112.038C322.875 111.191 321.744 110.707 320.557 110.691H320.471Z" fill="#EEF0F1"/>
<path d="M135.497 244.66C144.644 244.66 152.059 237.243 152.059 228.094C152.059 218.944 144.644 211.528 135.497 211.528C126.351 211.528 118.936 218.944 118.936 228.094C118.936 237.243 126.351 244.66 135.497 244.66Z" fill="#A3CAD3"/>
<path d="M136.937 236.017C146.084 236.017 153.499 228.6 153.499 219.451C153.499 210.302 146.084 202.885 136.937 202.885C127.79 202.885 120.375 210.302 120.375 219.451C120.375 228.6 127.79 236.017 136.937 236.017Z" fill="white"/>
<path d="M135.497 238.898C131.937 238.898 128.456 237.842 125.496 235.863C122.535 233.885 120.228 231.072 118.866 227.782C117.503 224.492 117.146 220.871 117.841 217.378C118.536 213.885 120.25 210.677 122.768 208.159C125.285 205.641 128.493 203.926 131.985 203.231C135.477 202.536 139.097 202.892 142.386 204.255C145.675 205.618 148.487 207.926 150.465 210.887C152.443 213.849 153.499 217.33 153.499 220.891C153.491 225.665 151.592 230.24 148.218 233.615C144.844 236.991 140.269 238.89 135.497 238.898ZM135.497 205.766C132.506 205.766 129.583 206.653 127.096 208.315C124.609 209.977 122.671 212.339 121.526 215.103C120.382 217.867 120.083 220.908 120.666 223.842C121.249 226.776 122.69 229.471 124.804 231.587C126.919 233.702 129.614 235.143 132.547 235.726C135.48 236.31 138.521 236.01 141.284 234.865C144.047 233.721 146.409 231.782 148.07 229.294C149.732 226.807 150.619 223.883 150.619 220.891C150.615 216.881 149.02 213.036 146.185 210.2C143.35 207.364 139.506 205.77 135.497 205.766Z" fill="#183154"/>
<path d="M276.633 148.145C285.779 148.145 293.194 140.728 293.194 131.579C293.194 122.43 285.779 115.013 276.633 115.013C267.485 115.013 260.07 122.43 260.07 131.579C260.07 140.728 267.485 148.145 276.633 148.145Z" fill="#BDDFE9"/>
<path d="M278.072 140.942C287.218 140.942 294.633 133.525 294.633 124.376C294.633 115.227 287.218 107.81 278.072 107.81C268.926 107.81 261.511 115.227 261.511 124.376C261.511 133.525 268.926 140.942 278.072 140.942Z" fill="#8FDAFF"/>
<path d="M293.194 124.953C293.201 128.653 291.969 132.249 289.694 135.166C287.419 138.084 284.233 140.155 280.644 141.049C277.054 141.943 273.268 141.608 269.893 140.098C266.515 138.587 263.742 135.989 262.015 132.717C264.402 133.998 267.068 134.667 269.777 134.662C272.64 134.677 275.458 133.947 277.956 132.546C280.454 131.145 282.546 129.119 284.026 126.667C285.506 124.215 286.325 121.421 286.402 118.558C286.48 115.694 285.812 112.86 284.467 110.332C287.111 111.745 289.323 113.854 290.86 116.43C292.397 119.006 293.205 121.953 293.194 124.953Z" fill="#38609B"/>
<path d="M276.618 142.383C273.312 142.384 270.07 141.476 267.247 139.758C264.424 138.039 262.127 135.577 260.607 132.641C259.09 129.704 258.408 126.406 258.638 123.108C258.867 119.81 260 116.639 261.911 113.942C263.823 111.244 266.439 109.125 269.474 107.815C272.509 106.505 275.845 106.056 279.118 106.516C282.391 106.976 285.474 108.328 288.031 110.424C290.587 112.52 292.518 115.278 293.611 118.398C294.557 121.114 294.841 124.017 294.437 126.865C294.033 129.713 292.956 132.423 291.293 134.77C289.631 137.116 287.43 139.032 284.878 140.356C282.325 141.68 279.494 142.375 276.618 142.383ZM276.618 109.251C273.404 109.249 270.273 110.27 267.679 112.167C265.083 114.063 263.16 116.737 262.186 119.8C261.21 122.864 261.236 126.158 262.258 129.205C263.28 132.253 265.247 134.897 267.869 136.752C270.494 138.608 273.64 139.581 276.854 139.528C280.068 139.476 283.181 138.402 285.745 136.462C288.306 134.522 290.186 131.816 291.107 128.737C292.031 125.658 291.95 122.364 290.876 119.334C289.828 116.389 287.895 113.839 285.343 112.034C282.791 110.229 279.745 109.257 276.618 109.251Z" fill="#183154"/>
<path d="M222.54 149.585C222.216 149.58 221.903 149.466 221.652 149.261C221.401 149.056 221.227 148.772 221.156 148.455C221.087 148.139 221.125 147.808 221.267 147.516C221.408 147.225 221.644 146.989 221.935 146.848L259.38 129.029C259.718 128.895 260.094 128.896 260.435 129.029C260.773 129.163 261.048 129.42 261.205 129.748C261.363 130.077 261.389 130.453 261.28 130.8C261.17 131.148 260.935 131.441 260.618 131.622L223.174 149.441C222.977 149.54 222.76 149.589 222.54 149.585Z" fill="#183154"/>
<path d="M109.574 105.534L122.694 132.14L143.418 133.739L129.017 143.823L137.657 182.717L112.455 169.911L112.44 161.253L85.812 171.193L88.3323 157.119L90.1325 138.061L96.4404 132.14L109.574 105.534Z" fill="#BDDFE9"/>
<path d="M289.71 183.135C292.238 183.135 294.288 181.084 294.288 178.554C294.288 176.024 292.238 173.973 289.71 173.973C287.179 173.973 285.129 176.024 285.129 178.554C285.129 181.084 287.179 183.135 289.71 183.135Z" fill="#BDDFE9"/>
<path opacity="0.5" d="M281.716 186.564C282.98 186.564 284.007 185.539 284.007 184.274C284.007 183.009 282.98 181.983 281.716 181.983C280.452 181.983 279.426 183.009 279.426 184.274C279.426 185.539 280.452 186.564 281.716 186.564Z" fill="#BDDFE9"/>
<path d="M199.728 194.227C202.257 194.227 204.308 192.176 204.308 189.646C204.308 187.116 202.257 185.065 199.728 185.065C197.199 185.065 195.148 187.116 195.148 189.646C195.148 192.176 197.199 194.227 199.728 194.227Z" fill="#BDDFE9"/>
<path opacity="0.5" d="M191.721 197.655C192.986 197.655 194.011 196.63 194.011 195.365C194.011 194.1 192.986 193.074 191.721 193.074C190.456 193.074 189.431 194.1 189.431 195.365C189.431 196.63 190.456 197.655 191.721 197.655Z" fill="#BDDFE9"/>
<path d="M134.302 192.513C136.831 192.513 138.882 190.462 138.882 187.932C138.882 185.402 136.831 183.351 134.302 183.351C131.773 183.351 129.722 185.402 129.722 187.932C129.722 190.462 131.773 192.513 134.302 192.513Z" fill="#BDDFE9"/>
<path opacity="0.5" d="M126.295 195.941C127.559 195.941 128.585 194.916 128.585 193.651C128.585 192.386 127.559 191.361 126.295 191.361C125.03 191.361 124.005 192.386 124.005 193.651C124.005 194.916 125.03 195.941 126.295 195.941Z" fill="#BDDFE9"/>
<path d="M199.728 121.207H227.581C227.581 122.048 227.247 122.854 226.653 123.448C226.059 124.042 225.253 124.376 224.412 124.376H202.911C202.071 124.376 201.265 124.042 200.67 123.448C200.076 122.854 199.742 122.048 199.742 121.207H199.728Z" fill="white"/>
<path d="M156.984 263.386H115.667C113.86 263.386 112.127 262.669 110.85 261.391C109.572 260.113 108.854 258.38 108.854 256.573V158.617C108.854 156.81 109.572 155.077 110.85 153.799C112.127 152.522 113.86 151.804 115.667 151.804H156.984C158.791 151.804 160.524 152.522 161.801 153.799C163.079 155.077 163.796 156.81 163.796 158.617V256.573C163.796 258.38 163.079 260.113 161.801 261.391C160.524 262.669 158.791 263.386 156.984 263.386ZM115.667 154.642C114.624 154.642 113.624 155.056 112.886 155.793C112.149 156.531 111.735 157.531 111.735 158.574V256.53C111.729 257.05 111.827 257.566 112.022 258.048C112.217 258.53 112.505 258.969 112.871 259.338C113.237 259.708 113.672 260.002 114.152 260.202C114.632 260.402 115.146 260.505 115.667 260.505H156.984C158.026 260.502 159.024 260.086 159.76 259.349C160.497 258.613 160.912 257.615 160.916 256.573V158.617C160.916 157.575 160.502 156.574 159.765 155.837C159.027 155.099 158.027 154.685 156.984 154.685L115.667 154.642Z" fill="#183154"/>
<path d="M226.659 263.387H185.341C183.535 263.387 181.802 262.669 180.524 261.391C179.247 260.113 178.529 258.38 178.529 256.573V125.644C178.529 123.837 179.247 122.104 180.524 120.826C181.802 119.548 183.535 118.83 185.341 118.83H226.659C228.466 118.83 230.198 119.548 231.476 120.826C232.753 122.104 233.471 123.837 233.471 125.644V256.573C233.471 258.38 232.753 260.113 231.476 261.391C230.198 262.669 228.466 263.387 226.659 263.387ZM185.341 121.711C184.298 121.711 183.298 122.126 182.561 122.863C181.824 123.601 181.409 124.601 181.409 125.644V256.573C181.409 257.616 181.824 258.616 182.561 259.354C183.298 260.091 184.298 260.506 185.341 260.506H226.659C227.701 260.502 228.699 260.086 229.435 259.35C230.171 258.613 230.587 257.615 230.591 256.573V125.644C230.591 124.601 230.176 123.601 229.439 122.863C228.702 122.126 227.702 121.711 226.659 121.711H185.341Z" fill="#183154"/>
<path d="M250.406 120.775C250.024 120.775 249.659 120.623 249.389 120.353C249.119 120.083 248.967 119.717 248.967 119.334V113.817C248.967 113.435 249.119 113.069 249.389 112.798C249.659 112.528 250.024 112.377 250.406 112.377C250.788 112.377 251.155 112.528 251.426 112.798C251.694 113.069 251.847 113.435 251.847 113.817V119.334C251.847 119.717 251.694 120.083 251.426 120.353C251.155 120.623 250.788 120.775 250.406 120.775Z" fill="#183154"/>
<path d="M250.406 127.243C250.024 127.243 249.659 127.092 249.389 126.822C249.119 126.551 248.967 126.185 248.967 125.803V124.607C248.967 124.225 249.119 123.859 249.389 123.589C249.659 123.319 250.024 123.167 250.406 123.167C250.788 123.167 251.155 123.319 251.426 123.589C251.694 123.859 251.847 124.225 251.847 124.607V125.803C251.847 126.185 251.694 126.551 251.426 126.822C251.155 127.092 250.788 127.243 250.406 127.243Z" fill="#183154"/>
<path d="M297.096 263.386H255.779C253.972 263.386 252.24 262.669 250.963 261.391C249.686 260.113 248.967 258.38 248.967 256.573V130.657C248.967 130.275 249.119 129.909 249.389 129.638C249.659 129.368 250.024 129.216 250.406 129.216C250.788 129.216 251.155 129.368 251.426 129.638C251.694 129.909 251.847 130.275 251.847 130.657V256.573C251.852 257.615 252.266 258.613 253.002 259.35C253.74 260.086 254.738 260.502 255.779 260.505H297.096C298.14 260.505 299.14 260.091 299.878 259.354C300.614 258.616 301.028 257.616 301.028 256.573V253.504C301.028 253.122 301.179 252.756 301.45 252.486C301.721 252.216 302.087 252.064 302.469 252.064C302.849 252.064 303.216 252.216 303.487 252.486C303.758 252.756 303.908 253.122 303.908 253.504V256.573C303.908 258.38 303.19 260.113 301.913 261.391C300.635 262.669 298.904 263.386 297.096 263.386Z" fill="#183154"/>
<path d="M302.469 220.762C302.087 220.762 301.721 220.61 301.45 220.34C301.179 220.07 301.028 219.703 301.028 219.321V85.8137C301.028 84.7707 300.614 83.7704 299.878 83.0329C299.14 82.2954 298.14 81.881 297.096 81.881H255.779C254.738 81.8848 253.74 82.3004 253.002 83.0371C252.266 83.7738 251.852 84.7718 251.847 85.8137V108.545C251.847 108.927 251.694 109.294 251.426 109.564C251.155 109.834 250.788 109.986 250.406 109.986C250.024 109.986 249.659 109.834 249.389 109.564C249.119 109.294 248.967 108.927 248.967 108.545V85.8137C248.967 84.0066 249.686 82.2735 250.963 80.9957C252.24 79.7179 253.972 79 255.779 79H297.096C298.904 79 300.635 79.7179 301.913 80.9957C303.19 82.2735 303.908 84.0066 303.908 85.8137V219.321C303.908 219.703 303.758 220.07 303.487 220.34C303.216 220.61 302.849 220.762 302.469 220.762Z" fill="#183154"/>
<path d="M272.168 113.4C271.976 113.425 271.784 113.373 271.631 113.255C271.478 113.138 271.378 112.965 271.354 112.774C271.33 112.583 271.382 112.389 271.498 112.237C271.616 112.084 271.791 111.984 271.98 111.96L272.398 111.859C272.489 111.835 272.585 111.831 272.679 111.845C272.773 111.859 272.863 111.892 272.943 111.942C273.024 111.992 273.094 112.057 273.149 112.134C273.203 112.212 273.243 112.299 273.262 112.392C273.306 112.577 273.273 112.772 273.175 112.934C273.074 113.096 272.915 113.212 272.729 113.256L272.354 113.357L272.168 113.4Z" fill="white"/>
<path d="M264.52 123.455C264.426 123.451 264.332 123.429 264.247 123.389C264.162 123.35 264.083 123.293 264.02 123.224C263.956 123.154 263.906 123.073 263.874 122.984C263.841 122.895 263.825 122.801 263.83 122.706C263.83 122.418 264.19 115.676 269.922 112.781C270.092 112.695 270.288 112.681 270.47 112.74C270.649 112.799 270.799 112.928 270.887 113.098C270.93 113.181 270.956 113.273 270.965 113.368C270.974 113.462 270.963 113.557 270.932 113.648C270.902 113.738 270.856 113.821 270.793 113.892C270.732 113.963 270.655 114.022 270.57 114.063C265.572 116.598 265.269 122.706 265.269 122.706C265.273 122.805 265.258 122.905 265.221 122.997C265.184 123.09 265.129 123.174 265.059 123.245C264.989 123.315 264.904 123.37 264.812 123.406C264.718 123.442 264.62 123.459 264.52 123.455Z" fill="white"/>
<path d="M205.993 176.653C215.14 176.653 222.555 169.236 222.555 160.087C222.555 150.938 215.14 143.521 205.993 143.521C196.846 143.521 189.431 150.938 189.431 160.087C189.431 169.236 196.846 176.653 205.993 176.653Z" fill="#BDDFE9"/>
<path d="M205.993 169.767C215.14 169.767 222.555 162.35 222.555 153.201C222.555 144.052 215.14 136.635 205.993 136.635C196.846 136.635 189.431 144.052 189.431 153.201C189.431 162.35 196.846 169.767 205.993 169.767Z" fill="white"/>
<path d="M149.87 214.409C149.552 214.408 149.243 214.302 148.991 214.106C148.84 213.991 148.714 213.846 148.619 213.681C148.524 213.516 148.462 213.334 148.438 213.145C148.414 212.956 148.428 212.764 148.478 212.581C148.529 212.397 148.615 212.225 148.732 212.075L189.805 159.151C190.047 158.875 190.385 158.701 190.749 158.666C191.114 158.63 191.479 158.735 191.769 158.959C192.059 159.184 192.253 159.51 192.311 159.872C192.369 160.234 192.287 160.605 192.081 160.908L151.008 213.905C150.868 214.069 150.693 214.199 150.496 214.286C150.299 214.373 150.085 214.415 149.87 214.409Z" fill="#183154"/>
<path d="M214.029 139.055C215.622 142.168 216.187 145.707 215.644 149.162C215.1 152.617 213.475 155.811 211.003 158.284C208.53 160.757 205.337 162.382 201.883 162.926C198.429 163.47 194.891 162.905 191.778 161.311C192.959 163.649 194.677 165.673 196.791 167.218C198.906 168.763 201.356 169.784 203.942 170.199C206.527 170.613 209.174 170.408 211.665 169.601C214.156 168.794 216.42 167.407 218.272 165.555C220.123 163.703 221.51 161.438 222.317 158.947C223.124 156.455 223.328 153.808 222.914 151.221C222.5 148.635 221.479 146.184 219.934 144.069C218.39 141.954 216.366 140.236 214.029 139.055Z" fill="#BDDFE9"/>
<path d="M108.134 92.5693L121.254 119.176L150.619 123.44L129.377 144.154L134.388 173.397L108.134 159.597L81.8805 173.397L86.8923 144.154L65.6499 123.44L95.0003 119.176L108.134 92.5693Z" fill="#8FDAFF"/>
<path d="M129.377 144.746L134.388 174.075L108.134 160.188L81.8804 174.075L84.5448 158.503C94.6103 157.058 104.302 153.683 113.088 148.563C124.036 142.162 133.286 133.225 140.062 122.504L150.619 124.046L129.377 144.746Z" fill="#38609B"/>
<path d="M115.062 109.251C114.793 109.253 114.53 109.18 114.301 109.04C114.072 108.9 113.886 108.698 113.766 108.459L112.081 105.016C111.924 104.676 111.907 104.288 112.031 103.935C112.156 103.582 112.413 103.291 112.748 103.124C113.083 102.958 113.47 102.928 113.827 103.042C114.183 103.156 114.482 103.404 114.659 103.734L116.358 107.177C116.442 107.347 116.491 107.532 116.502 107.721C116.514 107.91 116.489 108.1 116.427 108.279C116.366 108.459 116.269 108.624 116.144 108.766C116.018 108.908 115.866 109.024 115.695 109.107C115.498 109.202 115.281 109.252 115.062 109.251Z" fill="#183154"/>
<path d="M136.304 177.229L108.134 162.421L79.9651 177.229L85.3369 145.855L62.5537 123.656L94.0498 119.076L108.134 90.5244L112.138 98.6489C112.294 98.9891 112.312 99.3768 112.187 99.7298C112.063 100.083 111.806 100.373 111.471 100.54C111.135 100.707 110.748 100.736 110.392 100.623C110.035 100.509 109.737 100.261 109.56 99.931L108.12 97.05L95.9651 121.697L68.7463 125.644L88.4332 144.846L83.7814 171.971L108.134 159.165L132.473 171.971L127.821 144.846L147.522 125.644L120.289 121.697L118.964 119.004C118.795 118.661 118.767 118.266 118.889 117.904C119.01 117.542 119.271 117.243 119.612 117.073C119.783 116.99 119.967 116.941 120.157 116.929C120.346 116.917 120.536 116.942 120.715 117.004C120.894 117.065 121.06 117.162 121.202 117.287C121.343 117.413 121.459 117.565 121.542 117.736L122.205 119.061L153.715 123.656L130.918 145.855L136.304 177.229Z" fill="#183154"/>
<path d="M118.057 115.33C117.791 115.329 117.531 115.254 117.305 115.114C117.078 114.975 116.895 114.775 116.775 114.537L116.243 113.457C116.156 113.286 116.103 113.099 116.088 112.908C116.074 112.716 116.096 112.524 116.156 112.341C116.215 112.159 116.31 111.989 116.435 111.844C116.56 111.698 116.712 111.578 116.884 111.491C117.055 111.404 117.241 111.351 117.433 111.336C117.624 111.322 117.817 111.344 117.999 111.404C118.182 111.463 118.351 111.558 118.496 111.683C118.643 111.808 118.762 111.961 118.849 112.132L119.382 113.212C119.552 113.554 119.579 113.95 119.458 114.311C119.336 114.673 119.076 114.972 118.734 115.142C118.527 115.26 118.295 115.324 118.057 115.33Z" fill="#183154"/>
<g opacity="0.15">
<path opacity="0.15" d="M105.816 141.317C110.875 141.317 114.976 137.215 114.976 132.155C114.976 127.096 110.875 122.994 105.816 122.994C100.758 122.994 96.6567 127.096 96.6567 132.155C96.6567 137.215 100.758 141.317 105.816 141.317Z" fill="white"/>
<path opacity="0.15" d="M95.274 150.262C97.8033 150.262 99.8537 148.212 99.8537 145.682C99.8537 143.152 97.8033 141.101 95.274 141.101C92.7448 141.101 90.6943 143.152 90.6943 145.682C90.6943 148.212 92.7448 150.262 95.274 150.262Z" fill="white"/>
</g>
<path d="M108.581 113.068C109.154 113.068 109.703 112.841 110.109 112.435C110.514 112.03 110.741 111.48 110.741 110.907C110.741 110.334 110.514 109.785 110.109 109.379C109.703 108.974 109.154 108.747 108.581 108.747C108.008 108.747 107.459 108.974 107.054 109.379C106.648 109.785 106.421 110.334 106.421 110.907C106.421 111.48 106.648 112.03 107.054 112.435C107.459 112.841 108.008 113.068 108.581 113.068Z" fill="#FDFEFF"/>
<path d="M101.481 127.977C102.299 124.58 103.676 121.342 105.557 118.398C106.666 116.626 103.857 114.998 102.763 116.77C100.734 119.951 99.2451 123.446 98.356 127.113C97.8951 129.144 101.006 129.994 101.481 127.977Z" fill="#FDFEFF"/>
<path d="M205.993 171.194C202.431 171.197 198.949 170.143 195.986 168.165C193.023 166.188 190.714 163.375 189.35 160.085C187.985 156.794 187.628 153.172 188.322 149.678C189.016 146.184 190.731 142.974 193.249 140.455C195.768 137.936 198.977 136.22 202.47 135.526C205.963 134.832 209.584 135.189 212.874 136.554C216.164 137.919 218.975 140.229 220.953 143.192C222.929 146.156 223.983 149.639 223.98 153.202C223.969 157.97 222.07 162.54 218.699 165.911C215.329 169.283 210.76 171.182 205.993 171.194ZM205.993 138.062C203.002 138.059 200.078 138.943 197.589 140.603C195.101 142.262 193.161 144.623 192.013 147.386C190.866 150.148 190.564 153.189 191.145 156.124C191.725 159.059 193.163 161.755 195.276 163.872C197.389 165.99 200.082 167.433 203.014 168.019C205.947 168.606 208.988 168.309 211.752 167.167C214.516 166.025 216.88 164.088 218.544 161.602C220.208 159.117 221.097 156.193 221.1 153.202C221.1 149.191 219.509 145.345 216.677 142.506C213.845 139.668 210.002 138.069 205.993 138.062Z" fill="#183154"/>
<path d="M302.554 246.489C302.172 246.489 301.805 246.338 301.537 246.068C301.266 245.797 301.113 245.431 301.113 245.049V236.118C301.113 235.736 301.266 235.369 301.537 235.099C301.805 234.829 302.172 234.677 302.554 234.677C302.936 234.677 303.303 234.829 303.572 235.099C303.843 235.369 303.995 235.736 303.995 236.118V245.049C303.995 245.431 303.843 245.797 303.572 246.068C303.303 246.338 302.936 246.489 302.554 246.489Z" fill="#183154"/>
<path d="M302.554 230.672C302.172 230.672 301.805 230.52 301.537 230.25C301.266 229.98 301.113 229.614 301.113 229.232V227.518C301.113 227.136 301.266 226.769 301.537 226.499C301.805 226.229 302.172 226.077 302.554 226.077C302.936 226.077 303.303 226.229 303.572 226.499C303.843 226.769 303.995 227.136 303.995 227.518V229.232C303.995 229.614 303.843 229.98 303.572 230.25C303.303 230.52 302.936 230.672 302.554 230.672Z" fill="#183154"/>
</g>
</g>
<defs>
<clipPath id="clip0_326_97">
<rect width="295" height="186" fill="white" transform="translate(48 79)"/>
</clipPath>
</defs>
</svg>
