<svg width="404" height="404" viewBox="0 0 404 404" fill="none" xmlns="http://www.w3.org/2000/svg">
<path d="M196.78 9.21231C199.078 5.15633 204.922 5.15633 207.22 9.21231L252.535 89.1815C253.769 91.3593 256.225 92.5421 258.697 92.1491L349.473 77.7176C354.077 76.9856 357.72 81.5544 355.982 85.8801L321.713 171.169C320.78 173.491 321.386 176.149 323.235 177.837L391.116 239.81C394.559 242.953 393.258 248.65 388.792 249.989L300.745 276.372C298.347 277.091 296.647 279.222 296.48 281.72L290.351 373.431C290.04 378.082 284.775 380.618 280.944 377.961L205.42 325.572C203.363 324.146 200.637 324.146 198.58 325.572L123.056 377.961C119.225 380.618 113.96 378.082 113.649 373.431L107.52 281.72C107.353 279.222 105.653 277.091 103.255 276.372L15.2075 249.989C10.7418 248.65 9.44144 242.953 12.8843 239.81L80.7651 177.837C82.6136 176.149 83.2202 173.491 82.287 171.169L48.0178 85.8801C46.2797 81.5544 49.9232 76.9856 54.5272 77.7176L145.303 92.1491C147.775 92.5421 150.231 91.3593 151.465 89.1815L196.78 9.21231Z" fill="#32385B"/>
<g clip-path="url(#clip0_326_97)">
<mask id="mask0_326_97" style="mask-type:luminance" maskUnits="userSpaceOnUse" x="48" y="79" width="318" height="169">
<path d="M365.966 79H48V248H365.966V79Z" fill="white"/>
</mask>
<g mask="url(#mask0_326_97)">
<path d="M162.349 145.751H124.826C122.181 145.751 120.037 147.896 120.037 150.542V240.435C120.037 243.08 122.181 245.225 124.826 245.225H162.349C164.994 245.225 167.137 243.08 167.137 240.435V150.542C167.137 147.896 164.994 145.751 162.349 145.751Z" fill="#E0F0F5"/>
<path d="M226.89 115.648H188.503C186.097 115.648 184.146 117.599 184.146 120.006V242.175C184.146 244.582 186.097 246.534 188.503 246.534H226.89C229.296 246.534 231.246 244.582 231.246 242.175V120.006C231.246 117.599 229.296 115.648 226.89 115.648Z" fill="#E0F0F5"/>
<path d="M289.18 80.3086H251.814C249.126 80.3086 246.946 82.4885 246.946 85.1775V240.356C246.946 243.045 249.126 245.225 251.814 245.225H289.18C291.868 245.225 294.046 243.045 294.046 240.356V85.1775C294.046 82.4885 291.868 80.3086 289.18 80.3086Z" fill="#E0F0F5"/>
<path d="M144.241 221.666C152.551 221.666 159.287 214.927 159.287 206.614C159.287 198.301 152.551 191.562 144.241 191.562C135.932 191.562 129.195 198.301 129.195 206.614C129.195 214.927 135.932 221.666 144.241 221.666Z" fill="white"/>
<path d="M142.933 224.284C139.698 224.284 136.536 223.324 133.847 221.526C131.158 219.729 129.061 217.173 127.824 214.184C126.586 211.194 126.262 207.905 126.893 204.731C127.524 201.557 129.081 198.642 131.369 196.354C133.656 194.066 136.57 192.508 139.742 191.876C142.915 191.245 146.203 191.569 149.191 192.807C152.18 194.046 154.734 196.143 156.531 198.833C158.328 201.524 159.287 204.687 159.287 207.923C159.28 212.26 157.555 216.417 154.49 219.484C151.424 222.551 147.268 224.277 142.933 224.284ZM142.933 194.18C140.216 194.18 137.56 194.986 135.301 196.496C133.042 198.006 131.281 200.152 130.241 202.664C129.201 205.175 128.929 207.938 129.459 210.604C129.989 213.27 131.298 215.719 133.219 217.641C135.14 219.563 137.588 220.871 140.253 221.402C142.918 221.932 145.68 221.66 148.19 220.62C150.7 219.58 152.846 217.818 154.355 215.558C155.865 213.298 156.67 210.641 156.67 207.923C156.667 204.279 155.219 200.785 152.643 198.209C150.067 195.632 146.575 194.183 142.933 194.18Z" fill="#183154"/>
<path d="M272.459 135.281C280.768 135.281 287.504 128.542 287.504 120.229C287.504 111.916 280.768 105.177 272.459 105.177C264.15 105.177 257.414 111.916 257.414 120.229C257.414 128.542 264.15 135.281 272.459 135.281Z" fill="#8FDAFF"/>
<path d="M271.138 136.589C268.135 136.591 265.189 135.765 262.624 134.204C260.06 132.643 257.973 130.406 256.592 127.738C255.214 125.07 254.595 122.073 254.803 119.077C255.011 116.08 256.041 113.199 257.777 110.748C259.514 108.297 261.89 106.371 264.648 105.181C267.405 103.991 270.436 103.583 273.409 104.001C276.382 104.419 279.183 105.648 281.506 107.552C283.829 109.456 285.582 111.962 286.576 114.797C287.435 117.265 287.693 119.903 287.326 122.49C286.959 125.078 285.981 127.54 284.469 129.672C282.96 131.804 280.96 133.545 278.642 134.748C276.323 135.951 273.75 136.583 271.138 136.589ZM271.138 106.486C268.218 106.484 265.374 107.412 263.017 109.135C260.659 110.858 258.911 113.288 258.026 116.071C257.14 118.854 257.164 121.847 258.092 124.617C259.02 127.386 260.807 129.788 263.19 131.474C265.574 133.16 268.432 134.044 271.352 133.996C274.272 133.949 277.1 132.973 279.429 131.21C281.756 129.447 283.464 126.989 284.301 124.191C285.14 121.393 285.066 118.401 284.091 115.648C283.138 112.971 281.383 110.655 279.064 109.014C276.745 107.374 273.978 106.491 271.138 106.486Z" fill="#183154"/>
<path d="M222.009 143.134C221.715 143.129 221.431 143.025 221.203 142.839C220.975 142.653 220.816 142.395 220.752 142.107C220.689 141.82 220.724 141.519 220.853 141.254C220.981 140.989 221.195 140.775 221.46 140.647L255.478 124.456C255.785 124.335 256.126 124.335 256.436 124.457C256.743 124.578 256.993 124.811 257.136 125.11C257.279 125.409 257.303 125.75 257.203 126.066C257.104 126.382 256.89 126.648 256.602 126.812L222.585 143.003C222.407 143.092 222.209 143.137 222.009 143.134Z" fill="#183154"/>
<path d="M206.977 161.471C215.286 161.471 222.023 154.732 222.023 146.419C222.023 138.106 215.286 131.367 206.977 131.367C198.667 131.367 191.931 138.106 191.931 146.419C191.931 154.732 198.667 161.471 206.977 161.471Z" fill="white"/>
<path d="M155.991 202.033C155.702 202.032 155.421 201.935 155.193 201.758C155.055 201.653 154.94 201.521 154.854 201.372C154.768 201.222 154.712 201.056 154.69 200.884C154.668 200.713 154.681 200.538 154.726 200.372C154.772 200.205 154.851 200.049 154.957 199.912L192.271 151.825C192.491 151.574 192.797 151.417 193.129 151.385C193.46 151.352 193.791 151.448 194.055 151.651C194.319 151.855 194.495 152.151 194.547 152.48C194.6 152.809 194.525 153.146 194.338 153.422L157.025 201.575C156.897 201.724 156.739 201.842 156.56 201.921C156.381 202 156.187 202.039 155.991 202.033Z" fill="#183154"/>
<path d="M118.075 91.3291L129.994 115.504L156.671 119.378L137.373 138.199L141.926 164.769L118.075 152.23L94.2236 164.769L98.7767 138.199L79.4785 119.378L106.143 115.504L118.075 91.3291Z" fill="#8FDAFF"/>
<path d="M137.373 138.737L141.926 165.385L118.075 152.768L94.2236 165.385L96.6442 151.236C105.788 149.924 114.593 146.857 122.575 142.205C132.521 136.389 140.925 128.269 147.081 118.528L156.671 119.928L137.373 138.737Z" fill="#38609B"/>
<g opacity="0.15">
<path opacity="0.15" d="M115.968 135.621C120.564 135.621 124.289 131.894 124.289 127.297C124.289 122.7 120.564 118.973 115.968 118.973C111.373 118.973 107.647 122.7 107.647 127.297C107.647 131.894 111.373 135.621 115.968 135.621Z" fill="white"/>
<path opacity="0.15" d="M106.391 143.749C108.689 143.749 110.552 141.885 110.552 139.587C110.552 137.288 108.689 135.425 106.391 135.425C104.093 135.425 102.23 137.288 102.23 139.587C102.23 141.885 104.093 143.749 106.391 143.749Z" fill="white"/>
</g>
<path d="M206.977 162.767C203.741 162.77 200.577 161.812 197.886 160.015C195.194 158.219 193.096 155.664 191.857 152.673C190.617 149.683 190.292 146.393 190.923 143.218C191.554 140.043 193.111 137.126 195.399 134.838C197.687 132.549 200.603 130.99 203.776 130.359C206.95 129.729 210.239 130.054 213.228 131.294C216.217 132.534 218.771 134.633 220.567 137.325C222.363 140.018 223.321 143.182 223.318 146.419C223.308 150.752 221.583 154.904 218.52 157.968C215.458 161.031 211.308 162.757 206.977 162.767ZM206.977 132.663C204.26 132.661 201.603 133.464 199.342 134.972C197.082 136.48 195.319 138.625 194.277 141.135C193.235 143.645 192.96 146.408 193.488 149.075C194.015 151.741 195.321 154.191 197.24 156.115C199.16 158.039 201.606 159.35 204.271 159.883C206.935 160.416 209.697 160.146 212.209 159.108C214.72 158.071 216.867 156.311 218.379 154.052C219.89 151.794 220.699 149.138 220.701 146.419C220.701 142.776 219.256 139.281 216.683 136.702C214.11 134.123 210.619 132.67 206.977 132.663Z" fill="#183154"/>
</g>
</g>
<defs>
<clipPath id="clip0_326_97">
<rect width="254" height="169" fill="white" transform="translate(62 79)"/>
</clipPath>
</defs>
</svg>
