<svg width="404" height="404" viewBox="0 0 404 404" fill="none" xmlns="http://www.w3.org/2000/svg">
<path d="M196.78 9.21231C199.078 5.15633 204.922 5.15633 207.22 9.21231L252.535 89.1815C253.769 91.3593 256.225 92.5421 258.697 92.1491L349.473 77.7176C354.077 76.9856 357.72 81.5544 355.982 85.8801L321.713 171.169C320.78 173.491 321.386 176.149 323.235 177.837L391.116 239.81C394.559 242.953 393.258 248.65 388.792 249.989L300.745 276.372C298.347 277.091 296.647 279.222 296.48 281.72L290.351 373.431C290.04 378.082 284.775 380.618 280.944 377.961L205.42 325.572C203.363 324.146 200.637 324.146 198.58 325.572L123.056 377.961C119.225 380.618 113.96 378.082 113.649 373.431L107.52 281.72C107.353 279.222 105.653 277.091 103.255 276.372L15.2075 249.989C10.7418 248.65 9.44144 242.953 12.8843 239.81L80.7651 177.837C82.6136 176.149 83.2202 173.491 82.287 171.169L48.0178 85.8801C46.2797 81.5544 49.9232 76.9856 54.5272 77.7176L145.303 92.1491C147.775 92.5421 150.231 91.3593 151.465 89.1815L196.78 9.21231Z" fill="#32385B"/>
<g clip-path="url(#clip0_336_817)">
<mask id="mask0_336_817" style="mask-type:luminance" maskUnits="userSpaceOnUse" x="77" y="93" width="254" height="185">
<path d="M330.878 93H77V277.832H330.878V93Z" fill="white"/>
</mask>
<g mask="url(#mask0_336_817)">
<path d="M312.578 182.327H309.14V258.963H312.578V182.327Z" fill="#D9E1E4"/>
<path d="M310.87 185.5C318.282 185.5 324.29 179.49 324.29 172.077C324.29 164.663 318.282 158.653 310.87 158.653C303.459 158.653 297.451 164.663 297.451 172.077C297.451 179.49 303.459 185.5 310.87 185.5Z" fill="white"/>
<path d="M308.504 245.511C306.917 240.998 303.786 237.193 299.663 234.768C295.541 232.344 290.694 231.456 285.981 232.264C281.267 233.071 276.991 235.521 273.911 239.179C270.829 242.837 269.142 247.468 269.147 252.252V274.705L282.079 275.072H312.7C315.644 275.072 318.522 274.198 320.969 272.562C323.417 270.926 325.325 268.601 326.452 265.881C327.577 263.161 327.872 260.167 327.299 257.279C326.723 254.391 325.305 251.738 323.224 249.656C321.143 247.574 318.491 246.156 315.604 245.582C312.717 245.007 309.724 245.302 307.004 246.429C304.285 247.556 301.96 249.464 300.325 251.912C298.69 254.361 297.817 257.239 297.817 260.184" fill="#67F4AA"/>
<path d="M152.116 133.392C152.129 128.619 150.381 124.008 147.208 120.443C144.036 116.877 139.66 114.606 134.919 114.065C130.177 113.524 125.403 114.75 121.508 117.508C117.614 120.267 114.873 124.365 113.809 129.018C112.141 128.119 110.292 127.606 108.399 127.518C106.507 127.429 104.618 127.768 102.874 128.508C101.129 129.248 99.5733 130.371 98.3212 131.794C97.0691 133.216 96.1528 134.903 95.6401 136.727C95.1273 138.552 95.0312 140.469 95.3589 142.336C95.6866 144.202 96.4297 145.972 97.5332 147.513C98.6367 149.054 100.072 150.327 101.734 151.237C103.396 152.149 105.241 152.674 107.133 152.776V152.795H134.551V152.707C139.357 152.251 143.819 150.018 147.067 146.447C150.315 142.875 152.116 138.22 152.116 133.392Z" fill="#C8D3D9"/>
<path opacity="0.4" d="M311.202 129.243C311.214 124.47 309.467 119.859 306.294 116.294C303.121 112.728 298.745 110.457 294.004 109.916C289.263 109.375 284.488 110.601 280.594 113.359C276.699 116.118 273.958 120.216 272.895 124.869C271.227 123.97 269.378 123.457 267.485 123.369C265.592 123.28 263.703 123.618 261.959 124.359C260.215 125.099 258.659 126.222 257.407 127.645C256.155 129.067 255.238 130.753 254.726 132.578C254.213 134.403 254.117 136.32 254.445 138.186C254.772 140.053 255.515 141.823 256.619 143.363C257.722 144.904 259.158 146.177 260.82 147.088C262.481 147.999 264.327 148.525 266.219 148.626V148.646H293.637V148.558C298.442 148.101 302.905 145.869 306.153 142.298C309.401 138.726 311.201 134.071 311.202 129.243Z" fill="#C8D3D9"/>
<g opacity="0.2">
<path opacity="0.2" d="M118.113 172.746C118.113 174.882 117.294 176.937 115.824 178.487C114.355 180.037 112.348 180.966 110.215 181.081C110.069 181.081 109.92 181.081 109.771 181.081H93.3477C92.9403 181.081 92.5377 181.061 92.14 181.024C89.794 180.801 87.5551 179.935 85.6698 178.521C83.7846 177.106 82.3262 175.199 81.4553 173.009C80.5843 170.818 80.3347 168.43 80.7338 166.107C81.1329 163.784 82.1653 161.616 83.7172 159.842C85.2692 158.068 87.2804 156.757 89.5295 156.054C91.7786 155.35 94.1783 155.281 96.4641 155.854C98.7499 156.427 100.833 157.62 102.485 159.302C104.136 160.983 105.291 163.088 105.823 165.385C107.095 164.701 108.522 164.359 109.965 164.392C111.408 164.424 112.818 164.831 114.057 165.571C115.297 166.312 116.323 167.361 117.035 168.617C117.748 169.873 118.123 171.292 118.123 172.736L118.113 172.746Z" fill="#C8D3D9"/>
<path opacity="0.2" d="M93.3479 181.091H92.1279V181.034C92.5281 181.071 92.9307 181.091 93.3479 181.091Z" fill="#C8D3D9"/>
<path opacity="0.2" d="M110.215 181.08H109.771C109.92 181.09 110.069 181.085 110.215 181.08Z" fill="#C8D3D9"/>
</g>
<path d="M105.792 251.153H123.237V275.071H97.6177V259.332C97.6177 257.163 98.4788 255.083 100.012 253.549C101.544 252.016 103.623 251.154 105.792 251.153Z" fill="#67F4AA"/>
<path d="M127.995 169.27C118.75 169.27 111.403 166.254 106.192 160.306C102.776 156.425 98.4814 149.106 97.3298 136.27C96.9113 131.678 96.9439 127.055 97.4274 122.469C97.4442 122.339 97.5118 122.222 97.6152 122.142C97.7186 122.062 97.8494 122.027 97.9788 122.044C98.1082 122.061 98.2257 122.128 98.3053 122.232C98.3849 122.335 98.4202 122.466 98.4034 122.595C98.3741 122.84 95.4388 146.57 106.943 159.664C111.955 165.39 119.043 168.294 127.995 168.294C128.125 168.294 128.249 168.345 128.34 168.437C128.432 168.528 128.483 168.653 128.483 168.782C128.483 168.912 128.432 169.036 128.34 169.127C128.249 169.219 128.125 169.27 127.995 169.27Z" fill="#000201"/>
<path d="M133.119 169.27C123.874 169.27 116.527 166.254 111.316 160.306C107.9 156.425 103.605 149.106 102.454 136.27C102.035 131.678 102.068 127.055 102.551 122.469C102.568 122.339 102.636 122.222 102.739 122.142C102.843 122.062 102.973 122.027 103.103 122.044C103.232 122.061 103.35 122.128 103.429 122.232C103.509 122.335 103.544 122.466 103.527 122.595C103.498 122.84 100.563 146.57 112.067 159.664C117.079 165.39 124.167 168.294 133.119 168.294C133.249 168.294 133.373 168.345 133.464 168.437C133.556 168.528 133.607 168.653 133.607 168.782C133.607 168.912 133.556 169.036 133.464 169.127C133.373 169.219 133.249 169.27 133.119 169.27Z" fill="#000201"/>
<path d="M145.685 117.895H87.3696V122.776H145.685V117.895Z" fill="#F9AB64"/>
<path d="M145.441 117.65H87.126V119.603H145.441V117.65Z" fill="#D88A4A"/>
<path d="M114.941 102.274H108.841V142.301H114.941V102.274Z" fill="#D9E1E4"/>
<path d="M114.331 142.789H108.232C108.07 142.789 107.915 142.725 107.8 142.61C107.686 142.496 107.622 142.341 107.622 142.179V102.152C107.622 101.991 107.686 101.835 107.8 101.721C107.915 101.607 108.07 101.542 108.232 101.542H114.331C114.493 101.542 114.648 101.607 114.763 101.721C114.877 101.835 114.941 101.991 114.941 102.152V142.179C114.941 142.341 114.877 142.496 114.763 142.61C114.648 142.725 114.493 142.789 114.331 142.789ZM108.842 141.569H113.721V102.763H108.842V141.569Z" fill="#000201"/>
<path d="M119.821 96.1729H114.209V269.458H119.821V96.1729Z" fill="#F9AB64"/>
<path d="M141.537 215.032H119.089V266.529H141.537V215.032Z" fill="#D9E1E4"/>
<path d="M254.263 127.901H156.177V140.592H254.263V127.901Z" fill="#6B838C"/>
<path d="M134.827 245.295V274.217H105.901C105.901 270.418 106.65 266.656 108.103 263.146C109.557 259.637 111.688 256.448 114.374 253.762C117.061 251.076 120.249 248.946 123.759 247.493C127.268 246.041 131.029 245.294 134.827 245.295Z" fill="#67F4AA"/>
<path d="M275.735 166.707H132.265V272.631H275.735V166.707Z" fill="#536B77"/>
<path d="M214.98 233.092V200.388H267.683V246.963L227.912 253.838L215.051 247.107L214.98 233.092Z" fill="#F68D27"/>
<path d="M215.102 230.259L242.234 201.028H265.975L214.614 258.353C214.614 258.353 214.497 230.259 215.102 230.259Z" fill="#F9AB64"/>
<path d="M214.948 226.72L215.224 226.432L239.68 200.724H235.234L214.868 221.985" fill="#F9AB64"/>
<path d="M136.169 171.1H132.509V271.898H136.169V171.1Z" fill="#6B838C"/>
<path d="M285.129 170.246L254.629 134.369H156.543L128.193 167.715C127 168.899 126.141 169.792 125.921 170.124C125.631 170.569 125.43 171.066 125.331 171.588H125.26V172.02C125.213 172.426 125.213 172.835 125.26 173.241V175.1C125.273 176.27 125.517 177.426 125.977 178.502C126.437 179.577 127.104 180.552 127.941 181.369C128.778 182.187 129.767 182.832 130.852 183.267C131.938 183.703 133.099 183.92 134.268 183.906C135.438 183.893 136.593 183.649 137.669 183.189C138.744 182.729 139.718 182.061 140.536 181.224C141.353 180.388 141.998 179.398 142.433 178.312C142.868 177.226 143.085 176.065 143.072 174.895V173.599V175.1C143.085 176.27 143.329 177.426 143.789 178.502C144.249 179.577 144.916 180.552 145.753 181.369C146.589 182.187 147.579 182.832 148.664 183.267C149.75 183.703 150.911 183.92 152.08 183.906C153.25 183.893 154.405 183.649 155.48 183.189C156.556 182.729 157.53 182.061 158.348 181.224C159.165 180.388 159.81 179.398 160.245 178.312C160.68 177.226 160.897 176.065 160.883 174.895V173.819V175.1C160.911 177.463 161.875 179.718 163.565 181.369C165.254 183.021 167.53 183.933 169.892 183.906C172.254 183.879 174.508 182.914 176.159 181.224C177.81 179.535 178.723 177.258 178.695 174.895V174.039V175.1C178.709 176.27 178.952 177.426 179.412 178.502C179.872 179.577 180.54 180.552 181.376 181.369C182.213 182.187 183.202 182.832 184.288 183.267C185.373 183.703 186.534 183.92 187.704 183.906C188.873 183.893 190.029 183.649 191.104 183.189C192.179 182.729 193.153 182.061 193.971 181.224C194.788 180.388 195.433 179.398 195.868 178.312C196.303 177.226 196.52 176.065 196.507 174.895V174.273V175.115C196.534 177.478 197.499 179.733 199.188 181.384C200.877 183.036 203.153 183.948 205.515 183.921C207.877 183.894 210.132 182.929 211.783 181.239C213.434 179.549 214.346 177.273 214.319 174.91V174.493V175.115C214.346 177.478 215.31 179.733 217 181.384C218.689 183.036 220.965 183.948 223.327 183.921C225.689 183.894 227.943 182.929 229.595 181.239C231.245 179.549 232.158 177.273 232.13 174.91V174.712V175.115C232.155 177.478 233.116 179.734 234.804 181.387C236.491 183.041 238.766 183.956 241.128 183.932C243.49 183.908 245.745 182.946 247.398 181.258C249.051 179.57 249.966 177.295 249.942 174.932V175.115C249.969 177.478 250.934 179.733 252.623 181.384C254.313 183.036 256.589 183.948 258.95 183.921C261.313 183.894 263.567 182.929 265.218 181.239C266.869 179.549 267.781 177.273 267.754 174.91V171.588V175.108C267.781 177.47 268.745 179.725 270.435 181.377C272.124 183.028 274.4 183.941 276.762 183.914C279.124 183.886 281.379 182.922 283.029 181.232C284.681 179.542 285.593 177.265 285.566 174.903V171.588L285.129 170.246ZM166.891 134.735H166.469L166.547 134.613L166.891 134.735Z" fill="#D6393A"/>
<path d="M206.928 247.116V200.632H139.829V268.481H206.806C206.806 268.481 206.728 246.958 206.928 247.116Z" fill="#F68D27"/>
<path d="M140.475 232.48L169.474 201.242H194.85L139.951 262.502C139.951 262.502 139.834 232.48 140.475 232.48Z" fill="#F9AB64"/>
<path d="M140.317 228.699L140.61 228.392L166.744 200.92H161.993L140.231 223.64" fill="#F9AB64"/>
<path d="M210 134.5L214.004 169.392L214.248 174.029C214.248 174.029 213.748 181 219 183.5L223 184.5C223 184.5 228.56 184.381 231 179.5C233.44 174.619 231.816 171.588 231.816 171.588L222 134.5H210Z" fill="white"/>
<path d="M166.546 134.369L142.879 170.246V173.907C142.879 173.907 141.415 183.425 150.687 184.158C159.958 184.89 160.849 176.125 160.849 176.125L160.69 171.954L161.178 169.27L177 134L166.546 134.369Z" fill="white"/>
<path d="M188.141 134.491L178.625 170.124L178.137 173.541C178.137 173.541 178.283 182.356 184.798 183.684C191.313 185.012 194.092 181.512 194.775 180.333C195.458 179.154 196.192 173.297 196.192 173.297L200.096 134.247L188.141 134.491Z" fill="white"/>
<path d="M232.5 134L249.383 169.88L249.871 176.411C249.871 176.411 251.814 184.244 259 184C266.186 183.756 267.476 176.907 267.476 176.907L267.439 172.321L244 134H232.5Z" fill="white"/>
<path d="M150.443 141.813C150.401 141.812 150.359 141.808 150.318 141.801C142.267 140.112 138.055 135.008 135.923 131.025C134.535 128.439 133.625 125.622 133.239 122.712C133.231 122.632 133.239 122.551 133.263 122.474C133.286 122.397 133.325 122.326 133.376 122.264C133.427 122.202 133.49 122.15 133.561 122.112C133.632 122.075 133.71 122.051 133.79 122.044C133.87 122.036 133.951 122.044 134.028 122.068C134.105 122.091 134.177 122.13 134.239 122.181C134.301 122.232 134.352 122.295 134.39 122.366C134.428 122.437 134.451 122.515 134.459 122.595C134.839 125.358 135.707 128.032 137.023 130.491C139.932 135.928 144.484 139.331 150.558 140.605C150.705 140.634 150.837 140.718 150.926 140.839C151.016 140.96 151.058 141.11 151.044 141.26C151.029 141.41 150.96 141.55 150.849 141.652C150.738 141.754 150.593 141.811 150.443 141.813Z" fill="#000201"/>
<path d="M185.822 272.997V246.882H279.029V273.272" fill="#D9E1E4"/>
<path d="M330.39 272.875H90.0537V276.78H330.39V272.875Z" fill="#536B77"/>
<path d="M330.268 277.832H90.4196C90.2578 277.832 90.1026 277.768 89.9882 277.653C89.8738 277.539 89.8096 277.384 89.8096 277.222V272.677C89.8096 272.515 89.8738 272.36 89.9882 272.246C90.1026 272.132 90.2578 272.067 90.4196 272.067H330.268C330.429 272.067 330.585 272.132 330.7 272.246C330.814 272.36 330.878 272.515 330.878 272.677V277.222C330.878 277.384 330.814 277.539 330.7 277.653C330.585 277.768 330.429 277.832 330.268 277.832ZM91.0296 276.612H329.658V273.287H91.0296V276.612Z" fill="#000201"/>
<path d="M265.875 245.344C265.875 245.344 264.68 235.635 270.779 231.86C270.779 231.86 274.642 238.981 268.935 247.043L267.876 246.967" fill="#98EF78"/>
<path d="M267.227 247.687C267.098 247.688 266.974 247.637 266.883 247.546C266.707 247.37 262.561 243.175 263.206 237.539C263.677 233.39 266.604 229.629 271.902 226.342C272.01 226.274 272.142 226.252 272.267 226.28C272.392 226.308 272.501 226.385 272.57 226.493C273.526 228.055 274.319 229.712 274.934 231.438C276.294 235.23 276.474 238.645 275.452 241.31C274.276 244.385 271.548 246.528 267.356 247.68C267.314 247.689 267.27 247.691 267.227 247.687ZM271.997 227.43C267.232 230.488 264.599 233.922 264.174 237.644C263.659 242.159 266.595 245.774 267.38 246.653C271.099 245.574 273.507 243.658 274.542 240.956C276.518 235.777 272.992 229.134 271.997 227.425V227.43Z" fill="#000201"/>
<path d="M267.295 246.92C267.271 246.924 267.246 246.924 267.222 246.92C267.16 246.901 267.108 246.858 267.078 246.801C267.048 246.744 267.042 246.677 267.061 246.615C269.92 237.463 270.233 232.775 270.233 232.728C270.236 232.663 270.266 232.603 270.314 232.56C270.363 232.517 270.427 232.495 270.491 232.499C270.556 232.503 270.616 232.532 270.66 232.581C270.702 232.629 270.724 232.693 270.721 232.757C270.721 232.804 270.394 237.541 267.514 246.762C267.498 246.807 267.468 246.846 267.429 246.875C267.39 246.903 267.343 246.919 267.295 246.92Z" fill="#000201"/>
<path d="M270.43 235.504C270.366 235.512 270.301 235.493 270.249 235.453C270.198 235.413 270.165 235.354 270.157 235.289C270.149 235.224 270.168 235.159 270.208 235.108C270.248 235.057 270.307 235.024 270.372 235.016L272.897 234.376C272.928 234.369 272.961 234.367 272.992 234.371C273.024 234.376 273.054 234.387 273.082 234.403C273.109 234.42 273.134 234.441 273.153 234.467C273.172 234.493 273.186 234.522 273.194 234.553C273.201 234.584 273.203 234.617 273.198 234.648C273.194 234.68 273.183 234.711 273.166 234.738C273.15 234.766 273.128 234.79 273.103 234.809C273.077 234.828 273.048 234.842 273.017 234.85L270.489 235.497L270.43 235.504Z" fill="#000201"/>
<path d="M269.801 237.349C269.739 237.349 269.68 237.325 269.635 237.283L267.273 235.086C267.226 235.043 267.197 234.981 267.195 234.917C267.192 234.852 267.216 234.789 267.26 234.741C267.304 234.694 267.365 234.665 267.43 234.663C267.494 234.66 267.557 234.684 267.605 234.728L269.967 236.924C270.002 236.958 270.027 237.001 270.038 237.049C270.049 237.096 270.045 237.146 270.027 237.192C270.009 237.237 269.978 237.276 269.938 237.304C269.898 237.331 269.85 237.346 269.801 237.346V237.349Z" fill="#000201"/>
<path d="M269.471 239.802C269.407 239.806 269.343 239.784 269.295 239.741C269.246 239.698 269.217 239.637 269.213 239.573C269.209 239.508 269.231 239.444 269.274 239.396C269.317 239.347 269.378 239.318 269.442 239.314L271.765 239.023C271.797 239.019 271.829 239.022 271.86 239.03C271.891 239.039 271.92 239.053 271.946 239.073C271.971 239.093 271.992 239.117 272.008 239.145C272.024 239.173 272.034 239.204 272.038 239.236C272.046 239.3 272.028 239.364 271.988 239.415C271.948 239.466 271.89 239.499 271.826 239.507L269.503 239.8L269.471 239.802Z" fill="#000201"/>
<path d="M268.329 242.299C268.295 242.299 268.261 242.291 268.229 242.277C268.197 242.263 268.169 242.242 268.146 242.216L266.965 240.883C266.944 240.859 266.928 240.831 266.917 240.801C266.907 240.77 266.902 240.738 266.904 240.706C266.906 240.674 266.914 240.643 266.929 240.614C266.942 240.585 266.962 240.559 266.986 240.538C267.01 240.517 267.038 240.5 267.069 240.49C267.099 240.479 267.131 240.475 267.163 240.477C267.195 240.479 267.226 240.487 267.255 240.501C267.284 240.515 267.31 240.535 267.331 240.559L268.512 241.894C268.543 241.929 268.563 241.972 268.57 242.019C268.577 242.065 268.571 242.112 268.551 242.155C268.532 242.198 268.501 242.234 268.462 242.26C268.422 242.285 268.376 242.299 268.329 242.299Z" fill="#000201"/>
<path d="M266.863 245.64C266.863 245.64 267.688 237.486 263.477 234.313C263.477 234.313 260.81 240.297 264.75 247.067L265.482 247.004" fill="#98EF78"/>
<path d="M265.929 247.688C265.877 247.688 265.825 247.68 265.775 247.663C263.069 246.76 261.232 245.142 260.315 242.855C258.119 237.398 261.93 230.101 262.093 229.793C262.127 229.731 262.173 229.678 262.229 229.636C262.285 229.593 262.35 229.564 262.418 229.549C262.487 229.534 262.559 229.534 262.628 229.549C262.697 229.564 262.762 229.594 262.818 229.637C266.41 232.348 268.43 235.445 268.833 238.843C269.401 243.707 266.432 247.366 266.305 247.519C266.258 247.573 266.2 247.616 266.136 247.645C266.071 247.674 266 247.689 265.929 247.688ZM262.699 230.772C261.889 232.519 259.527 238.252 261.222 242.487C261.991 244.403 263.514 245.791 265.753 246.616C266.39 245.718 268.303 242.67 267.862 238.933C267.51 235.968 265.773 233.225 262.699 230.772Z" fill="#000201"/>
<path d="M265.882 247.004C265.827 247.005 265.773 246.988 265.728 246.955C265.684 246.922 265.652 246.874 265.638 246.82C263.65 239.076 263.428 235.105 263.425 235.057C263.425 234.994 263.449 234.934 263.492 234.888C263.536 234.843 263.595 234.816 263.657 234.813C263.69 234.811 263.723 234.816 263.754 234.827C263.785 234.839 263.814 234.857 263.838 234.88C263.862 234.902 263.881 234.93 263.894 234.96C263.907 234.991 263.913 235.023 263.913 235.057C263.913 235.096 264.138 239.035 266.109 246.723C266.117 246.754 266.119 246.786 266.115 246.818C266.11 246.85 266.099 246.881 266.083 246.908C266.067 246.936 266.045 246.96 266.02 246.979C265.994 246.999 265.965 247.013 265.934 247.021C265.916 247.017 265.899 247.011 265.882 247.004Z" fill="#000201"/>
<path d="M263.718 237.412C263.694 237.416 263.669 237.416 263.645 237.412L261.9 236.875C261.838 236.856 261.786 236.813 261.756 236.756C261.725 236.698 261.719 236.631 261.738 236.569C261.757 236.507 261.8 236.455 261.857 236.424C261.915 236.394 261.982 236.387 262.044 236.407L263.789 236.946C263.853 236.955 263.912 236.99 263.951 237.043C263.99 237.095 264.007 237.161 263.997 237.225C263.988 237.29 263.953 237.349 263.901 237.388C263.848 237.427 263.783 237.444 263.718 237.434V237.412Z" fill="#000201"/>
<path d="M264.145 238.962C264.085 238.963 264.027 238.941 263.982 238.901C263.933 238.858 263.904 238.798 263.901 238.733C263.897 238.669 263.919 238.605 263.962 238.557L265.592 236.714C265.613 236.689 265.638 236.668 265.667 236.652C265.696 236.637 265.728 236.627 265.761 236.624C265.794 236.622 265.827 236.626 265.858 236.636C265.89 236.646 265.918 236.663 265.943 236.684C265.968 236.706 265.988 236.733 266.002 236.763C266.016 236.792 266.024 236.824 266.026 236.857C266.027 236.89 266.022 236.923 266.01 236.954C265.998 236.985 265.981 237.013 265.958 237.037L264.328 238.882C264.305 238.907 264.277 238.928 264.245 238.942C264.214 238.956 264.179 238.963 264.145 238.962Z" fill="#000201"/>
<path d="M264.389 241.024H264.352L262.747 240.78C262.682 240.771 262.624 240.735 262.585 240.683C262.546 240.63 262.53 240.564 262.539 240.499C262.549 240.435 262.584 240.377 262.637 240.338C262.689 240.299 262.755 240.282 262.82 240.292L264.425 240.536C264.457 240.538 264.489 240.547 264.517 240.562C264.546 240.576 264.572 240.596 264.593 240.62C264.614 240.645 264.63 240.673 264.64 240.704C264.65 240.734 264.654 240.766 264.651 240.798C264.649 240.831 264.64 240.862 264.626 240.89C264.611 240.919 264.591 240.945 264.567 240.966C264.542 240.987 264.514 241.003 264.484 241.013C264.453 241.023 264.421 241.027 264.389 241.024Z" fill="#000201"/>
<path d="M265.167 243.12C265.122 243.121 265.078 243.108 265.04 243.084C265.001 243.061 264.97 243.027 264.949 242.987C264.929 242.947 264.92 242.902 264.924 242.857C264.927 242.812 264.943 242.769 264.97 242.732L265.785 241.612C265.823 241.56 265.88 241.525 265.945 241.514C266.008 241.504 266.074 241.52 266.126 241.558C266.179 241.597 266.214 241.654 266.224 241.718C266.234 241.782 266.218 241.848 266.18 241.9L265.365 243.02C265.342 243.052 265.313 243.077 265.278 243.094C265.244 243.112 265.206 243.121 265.167 243.12Z" fill="#000201"/>
<path d="M193.508 245.344C193.508 245.344 194.704 235.635 188.604 231.86C188.604 231.86 184.741 238.981 190.448 247.043L191.51 246.967" fill="#98EF78"/>
<path d="M192.166 247.688C192.123 247.688 192.079 247.682 192.037 247.67C187.843 246.518 185.117 244.376 183.941 241.3C182.921 238.635 183.099 235.221 184.458 231.428C185.074 229.702 185.868 228.045 186.825 226.483C186.894 226.376 187.003 226.3 187.127 226.272C187.252 226.243 187.382 226.265 187.491 226.332C192.791 229.62 195.716 233.388 196.19 237.53C196.834 243.175 192.688 247.37 192.51 247.536C192.466 247.583 192.412 247.62 192.353 247.646C192.294 247.672 192.231 247.686 192.166 247.688ZM187.396 227.43C186.403 229.139 182.875 235.797 184.854 240.959C185.888 243.658 188.296 245.574 192.012 246.653C192.801 245.772 195.736 242.145 195.219 237.637C194.779 233.913 192.149 230.481 187.386 227.425L187.396 227.43Z" fill="#000201"/>
<path d="M192.091 246.921C192.037 246.924 191.984 246.908 191.94 246.877C191.896 246.846 191.863 246.802 191.847 246.75C188.968 237.53 188.645 232.792 188.643 232.746C188.641 232.714 188.645 232.682 188.656 232.652C188.666 232.621 188.683 232.593 188.704 232.569C188.726 232.545 188.751 232.526 188.78 232.511C188.809 232.498 188.84 232.489 188.872 232.487C188.904 232.485 188.937 232.49 188.967 232.5C188.997 232.511 189.025 232.527 189.049 232.549C189.073 232.57 189.093 232.596 189.107 232.624C189.121 232.653 189.129 232.685 189.131 232.717C189.131 232.763 189.456 237.452 192.315 246.604C192.334 246.665 192.328 246.732 192.299 246.789C192.269 246.846 192.218 246.889 192.157 246.909C192.135 246.916 192.113 246.92 192.091 246.921Z" fill="#000201"/>
<path d="M188.953 235.504H188.894L186.366 234.864C186.304 234.848 186.25 234.808 186.217 234.752C186.183 234.697 186.174 234.63 186.19 234.568C186.205 234.505 186.246 234.451 186.301 234.418C186.357 234.384 186.423 234.375 186.486 234.391L189.014 235.03C189.078 235.038 189.137 235.072 189.178 235.123C189.218 235.175 189.235 235.24 189.227 235.305C189.219 235.369 189.186 235.428 189.134 235.468C189.083 235.508 189.017 235.526 188.953 235.518V235.504Z" fill="#000201"/>
<path d="M189.582 237.348C189.549 237.348 189.515 237.341 189.485 237.328C189.454 237.315 189.427 237.295 189.404 237.27C189.36 237.223 189.337 237.16 189.339 237.096C189.341 237.031 189.369 236.97 189.416 236.926L191.778 234.73C191.802 234.708 191.829 234.691 191.86 234.68C191.89 234.668 191.922 234.664 191.954 234.665C191.987 234.666 192.018 234.674 192.047 234.688C192.077 234.701 192.103 234.721 192.124 234.744C192.168 234.792 192.191 234.855 192.188 234.92C192.185 234.984 192.157 235.045 192.11 235.088L189.75 237.285C189.705 237.327 189.644 237.35 189.582 237.348Z" fill="#000201"/>
<path d="M189.912 239.801H189.882L187.557 239.509C187.525 239.505 187.494 239.494 187.466 239.478C187.438 239.462 187.413 239.441 187.394 239.416C187.374 239.39 187.359 239.361 187.35 239.33C187.342 239.299 187.34 239.266 187.344 239.234C187.348 239.202 187.358 239.171 187.374 239.143C187.39 239.115 187.411 239.09 187.437 239.07C187.462 239.05 187.491 239.036 187.523 239.027C187.554 239.019 187.586 239.017 187.618 239.02L189.941 239.311C190.006 239.315 190.066 239.344 190.109 239.393C190.152 239.441 190.174 239.505 190.17 239.57C190.166 239.634 190.137 239.695 190.089 239.738C190.04 239.781 189.976 239.803 189.912 239.799V239.801Z" fill="#000201"/>
<path d="M191.054 242.299C191.007 242.298 190.961 242.284 190.922 242.259C190.883 242.233 190.853 242.197 190.834 242.154C190.815 242.112 190.808 242.064 190.815 242.018C190.822 241.972 190.842 241.929 190.873 241.894L192.052 240.559C192.073 240.535 192.099 240.515 192.128 240.501C192.157 240.487 192.188 240.479 192.22 240.477C192.252 240.475 192.284 240.479 192.314 240.49C192.345 240.5 192.373 240.517 192.397 240.538C192.421 240.559 192.441 240.585 192.454 240.614C192.469 240.643 192.477 240.674 192.479 240.706C192.481 240.738 192.476 240.77 192.466 240.801C192.455 240.831 192.439 240.859 192.418 240.883L191.237 242.216C191.214 242.242 191.186 242.263 191.154 242.277C191.122 242.291 191.088 242.299 191.054 242.299Z" fill="#000201"/>
<path d="M192.522 245.64C192.522 245.64 191.698 237.486 195.909 234.313C195.909 234.313 198.576 240.297 194.635 247.067L193.903 247.004" fill="#98EF78"/>
<path d="M193.454 247.687C193.383 247.687 193.312 247.671 193.247 247.641C193.182 247.611 193.125 247.566 193.079 247.511C192.952 247.358 189.982 243.699 190.553 238.835C190.951 235.437 192.974 232.34 196.565 229.629C196.622 229.586 196.687 229.556 196.756 229.541C196.825 229.526 196.896 229.526 196.966 229.541C197.034 229.556 197.099 229.585 197.156 229.627C197.212 229.669 197.259 229.723 197.292 229.785C197.454 230.092 201.255 237.39 199.069 242.847C198.151 245.137 196.316 246.752 193.611 247.658C193.561 247.676 193.508 247.686 193.454 247.687ZM196.685 230.771C193.611 233.212 191.876 235.967 191.524 238.937C191.08 242.674 192.988 245.722 193.633 246.62C195.87 245.796 197.395 244.407 198.164 242.488C199.864 238.244 197.497 232.516 196.685 230.771Z" fill="#000201"/>
<path d="M193.501 247.005H193.44C193.409 246.996 193.38 246.983 193.354 246.963C193.328 246.944 193.307 246.92 193.29 246.892C193.274 246.864 193.263 246.834 193.259 246.802C193.254 246.77 193.256 246.738 193.264 246.707C195.241 239.019 195.46 235.08 195.46 235.041C195.46 235.007 195.467 234.975 195.48 234.944C195.493 234.914 195.512 234.886 195.536 234.863C195.56 234.841 195.588 234.823 195.619 234.811C195.65 234.8 195.683 234.795 195.716 234.796C195.779 234.8 195.838 234.827 195.881 234.872C195.924 234.918 195.948 234.978 195.948 235.041C195.948 235.08 195.724 239.06 193.735 246.804C193.725 246.86 193.696 246.91 193.654 246.946C193.611 246.983 193.557 247.003 193.501 247.005Z" fill="#000201"/>
<path d="M195.668 237.412C195.603 237.422 195.537 237.405 195.484 237.366C195.432 237.327 195.397 237.269 195.387 237.204C195.377 237.14 195.394 237.074 195.433 237.021C195.471 236.968 195.53 236.933 195.594 236.924L197.341 236.384C197.372 236.375 197.405 236.372 197.437 236.375C197.469 236.378 197.5 236.388 197.528 236.403C197.556 236.418 197.581 236.439 197.602 236.464C197.622 236.488 197.637 236.517 197.646 236.548C197.656 236.579 197.659 236.611 197.656 236.643C197.653 236.675 197.643 236.706 197.628 236.734C197.613 236.763 197.592 236.788 197.567 236.808C197.542 236.828 197.514 236.844 197.483 236.853L195.738 237.39C195.716 237.401 195.692 237.408 195.668 237.412Z" fill="#000201"/>
<path d="M195.233 238.962C195.199 238.962 195.164 238.955 195.133 238.941C195.101 238.927 195.073 238.907 195.05 238.881L193.418 237.036C193.375 236.988 193.353 236.924 193.357 236.86C193.362 236.795 193.391 236.735 193.44 236.692C193.488 236.649 193.552 236.628 193.616 236.632C193.681 236.636 193.741 236.666 193.784 236.714L195.416 238.557C195.459 238.605 195.48 238.669 195.476 238.733C195.472 238.798 195.443 238.858 195.394 238.901C195.35 238.94 195.292 238.962 195.233 238.962Z" fill="#000201"/>
<path d="M195.006 241.024C194.941 241.029 194.878 241.008 194.828 240.966C194.779 240.923 194.749 240.863 194.744 240.798C194.739 240.734 194.76 240.67 194.802 240.62C194.845 240.571 194.905 240.541 194.97 240.536L196.573 240.292C196.637 240.282 196.703 240.299 196.756 240.338C196.809 240.377 196.843 240.435 196.853 240.499C196.863 240.564 196.847 240.63 196.808 240.683C196.769 240.735 196.71 240.771 196.646 240.78L195.043 241.024H195.006Z" fill="#000201"/>
<path d="M194.216 243.121C194.177 243.121 194.14 243.112 194.105 243.094C194.071 243.077 194.041 243.052 194.018 243.021L193.203 241.9C193.184 241.875 193.171 241.845 193.163 241.814C193.156 241.783 193.154 241.75 193.159 241.718C193.164 241.687 193.176 241.656 193.192 241.629C193.209 241.602 193.231 241.578 193.257 241.559C193.283 241.54 193.312 241.526 193.344 241.519C193.375 241.511 193.407 241.51 193.439 241.515C193.471 241.52 193.501 241.531 193.529 241.548C193.556 241.564 193.58 241.586 193.599 241.613L194.414 242.733C194.44 242.769 194.456 242.812 194.46 242.857C194.463 242.902 194.455 242.947 194.434 242.988C194.414 243.028 194.382 243.062 194.344 243.085C194.305 243.109 194.261 243.121 194.216 243.121Z" fill="#000201"/>
<path d="M218.147 245.133C218.147 245.133 216.773 233.979 223.781 229.639C223.781 229.639 228.219 237.825 221.663 247.085L220.443 246.997" fill="#98EF78"/>
<path d="M219.699 247.753C219.57 247.753 219.446 247.702 219.355 247.611C219.154 247.409 214.414 242.613 215.15 236.162C215.69 231.428 219.04 227.115 225.108 223.351C225.217 223.284 225.348 223.261 225.473 223.289C225.598 223.317 225.707 223.393 225.776 223.5C226.871 225.292 227.778 227.191 228.485 229.168C230.042 233.509 230.249 237.414 229.083 240.46C227.738 243.972 224.618 246.418 219.828 247.736C219.786 247.748 219.742 247.753 219.699 247.753ZM225.206 224.442C219.672 227.967 216.617 231.952 216.122 236.265C215.514 241.532 218.989 245.754 219.852 246.713C224.171 245.468 226.97 243.25 228.17 240.124C230.473 234.085 226.296 226.307 225.206 224.442Z" fill="#000201"/>
<path d="M219.777 246.909C219.752 246.909 219.727 246.904 219.704 246.897C219.642 246.878 219.59 246.835 219.56 246.778C219.53 246.72 219.524 246.653 219.543 246.592C222.834 236.06 223.202 230.679 223.202 230.625C223.207 230.56 223.236 230.5 223.285 230.457C223.334 230.414 223.398 230.393 223.462 230.397C223.527 230.401 223.588 230.431 223.63 230.479C223.673 230.528 223.695 230.592 223.69 230.657C223.69 230.71 223.317 236.148 220.009 246.736C219.993 246.785 219.963 246.829 219.921 246.86C219.879 246.892 219.829 246.909 219.777 246.909Z" fill="#000201"/>
<path d="M223.38 233.79C223.348 233.794 223.316 233.792 223.285 233.783C223.253 233.774 223.224 233.76 223.199 233.74C223.173 233.72 223.152 233.696 223.136 233.668C223.12 233.639 223.11 233.608 223.106 233.577C223.102 233.544 223.104 233.512 223.113 233.481C223.121 233.45 223.136 233.42 223.156 233.395C223.176 233.369 223.2 233.348 223.228 233.332C223.256 233.316 223.287 233.306 223.319 233.302L226.223 232.57C226.254 232.562 226.286 232.56 226.318 232.565C226.35 232.57 226.38 232.58 226.408 232.597C226.435 232.613 226.459 232.635 226.479 232.661C226.498 232.686 226.512 232.715 226.519 232.747C226.527 232.778 226.529 232.81 226.524 232.842C226.52 232.873 226.509 232.904 226.492 232.931C226.476 232.959 226.454 232.983 226.429 233.002C226.403 233.021 226.374 233.035 226.342 233.043L223.439 233.775L223.38 233.79Z" fill="#000201"/>
<path d="M222.665 235.912C222.604 235.912 222.545 235.888 222.5 235.846L219.777 233.337C219.729 233.293 219.701 233.232 219.698 233.167C219.696 233.102 219.719 233.039 219.763 232.992C219.807 232.944 219.868 232.916 219.933 232.913C219.998 232.911 220.061 232.934 220.108 232.978L222.822 235.499C222.845 235.521 222.865 235.548 222.878 235.577C222.891 235.606 222.899 235.638 222.9 235.67C222.901 235.702 222.896 235.734 222.885 235.765C222.873 235.795 222.856 235.822 222.834 235.846C222.788 235.889 222.728 235.912 222.665 235.912Z" fill="#000201"/>
<path d="M222.278 238.73C222.218 238.73 222.16 238.708 222.115 238.669C222.07 238.629 222.041 238.574 222.034 238.515C222.026 238.451 222.044 238.386 222.084 238.336C222.124 238.285 222.182 238.252 222.246 238.244L224.916 237.91C224.947 237.906 224.98 237.908 225.011 237.917C225.042 237.925 225.071 237.94 225.097 237.96C225.122 237.979 225.144 238.004 225.16 238.032C225.176 238.06 225.186 238.091 225.19 238.123C225.194 238.155 225.192 238.188 225.183 238.219C225.175 238.25 225.16 238.279 225.14 238.305C225.12 238.33 225.096 238.352 225.068 238.367C225.039 238.384 225.008 238.394 224.977 238.398L222.307 238.732L222.278 238.73Z" fill="#000201"/>
<path d="M220.958 241.598C220.923 241.598 220.889 241.591 220.857 241.577C220.826 241.562 220.798 241.541 220.775 241.515L219.418 239.983C219.395 239.959 219.378 239.931 219.366 239.9C219.354 239.869 219.349 239.836 219.35 239.803C219.352 239.77 219.36 239.738 219.374 239.708C219.388 239.679 219.408 239.652 219.433 239.63C219.458 239.609 219.486 239.592 219.518 239.582C219.549 239.571 219.582 239.568 219.615 239.571C219.648 239.573 219.68 239.583 219.709 239.598C219.738 239.614 219.763 239.635 219.784 239.661L221.141 241.193C221.172 241.228 221.192 241.272 221.199 241.318C221.206 241.365 221.199 241.412 221.18 241.455C221.16 241.498 221.129 241.534 221.09 241.559C221.05 241.585 221.005 241.598 220.958 241.598Z" fill="#000201"/>
<path d="M219.279 245.473C219.279 245.473 220.228 236.104 215.39 232.457C215.39 232.457 212.325 239.333 216.854 247.113L217.693 247.04" fill="#98EF78"/>
<path d="M218.208 247.753C218.155 247.754 218.102 247.745 218.052 247.729C214.965 246.696 212.871 244.851 211.825 242.242C210.778 239.633 210.795 236.29 211.9 232.372C212.387 230.621 213.04 228.921 213.852 227.296C213.886 227.234 213.932 227.181 213.988 227.138C214.044 227.096 214.109 227.067 214.177 227.052C214.246 227.037 214.317 227.036 214.387 227.052C214.456 227.067 214.521 227.097 214.577 227.14C218.688 230.244 221.004 233.785 221.458 237.666C222.109 243.226 218.715 247.404 218.571 247.58C218.526 247.633 218.471 247.676 218.408 247.706C218.346 247.736 218.277 247.752 218.208 247.753ZM214.47 228.274C213.808 229.692 213.261 231.162 212.835 232.668C212.12 235.208 211.522 238.874 212.732 241.891C213.628 244.129 215.416 245.745 218.032 246.696C218.737 245.72 221.019 242.157 220.499 237.773C220.091 234.313 218.064 231.12 214.47 228.274Z" fill="#000201"/>
<path d="M218.154 247.003C218.099 247.005 218.044 246.988 218 246.955C217.956 246.922 217.924 246.874 217.91 246.82C215.626 237.927 215.37 233.358 215.37 233.311C215.37 233.249 215.394 233.189 215.436 233.144C215.479 233.099 215.537 233.071 215.599 233.067C215.662 233.067 215.722 233.092 215.768 233.134C215.813 233.178 215.84 233.237 215.843 233.299C215.843 233.343 216.102 237.873 218.371 246.723C218.379 246.754 218.381 246.786 218.377 246.818C218.372 246.85 218.362 246.881 218.345 246.908C218.329 246.936 218.307 246.96 218.282 246.979C218.256 246.999 218.227 247.013 218.196 247.02C218.181 247.016 218.168 247.01 218.154 247.003Z" fill="#000201"/>
<path d="M215.665 235.984C215.641 235.984 215.617 235.98 215.594 235.972L213.589 235.355C213.557 235.346 213.528 235.331 213.502 235.311C213.477 235.29 213.455 235.265 213.44 235.237C213.424 235.208 213.414 235.177 213.411 235.144C213.408 235.111 213.411 235.078 213.42 235.047C213.43 235.016 213.446 234.987 213.467 234.962C213.488 234.937 213.514 234.917 213.543 234.902C213.572 234.887 213.604 234.878 213.637 234.876C213.669 234.874 213.702 234.878 213.733 234.889L215.738 235.506C215.803 235.516 215.861 235.551 215.9 235.603C215.939 235.656 215.956 235.722 215.946 235.787C215.936 235.851 215.901 235.91 215.848 235.948C215.796 235.987 215.73 236.004 215.665 235.994V235.984Z" fill="#000201"/>
<path d="M216.166 237.766C216.106 237.766 216.049 237.745 216.005 237.705C215.956 237.663 215.927 237.602 215.922 237.538C215.918 237.473 215.94 237.41 215.983 237.361L217.857 235.243C217.9 235.197 217.96 235.171 218.022 235.168C218.085 235.166 218.146 235.187 218.194 235.229C218.241 235.27 218.27 235.329 218.276 235.391C218.281 235.454 218.262 235.516 218.223 235.565L216.349 237.684C216.326 237.71 216.298 237.73 216.266 237.745C216.234 237.759 216.2 237.766 216.166 237.766Z" fill="#000201"/>
<path d="M216.427 240.133H216.39L214.546 239.853C214.481 239.843 214.423 239.808 214.384 239.755C214.345 239.703 214.328 239.637 214.338 239.572C214.348 239.507 214.383 239.449 214.436 239.41C214.488 239.371 214.554 239.355 214.619 239.365L216.463 239.645C216.528 239.65 216.588 239.68 216.631 239.73C216.673 239.779 216.694 239.843 216.689 239.908C216.684 239.972 216.654 240.032 216.605 240.075C216.556 240.117 216.491 240.138 216.427 240.133Z" fill="#000201"/>
<path d="M217.332 242.542C217.281 242.542 217.232 242.526 217.19 242.496C217.139 242.458 217.104 242.401 217.094 242.337C217.084 242.274 217.099 242.209 217.137 242.157L218.071 240.868C218.09 240.842 218.114 240.82 218.141 240.803C218.169 240.786 218.199 240.775 218.231 240.77C218.263 240.765 218.295 240.766 218.326 240.774C218.357 240.782 218.387 240.795 218.413 240.814C218.465 240.852 218.499 240.909 218.509 240.973C218.519 241.036 218.504 241.101 218.467 241.153L217.542 242.442C217.518 242.475 217.486 242.501 217.45 242.519C217.413 242.536 217.372 242.544 217.332 242.542Z" fill="#000201"/>
</g>
</g>
<defs>
<clipPath id="clip0_336_817">
<rect width="254" height="185" fill="white" transform="translate(77 93)"/>
</clipPath>
</defs>
</svg>
