<svg xmlns="http://www.w3.org/2000/svg" viewBox="0 0 270.413 342.64" height="342.64" width="270.413" xml:space="preserve" id="svg2" version="1.1"><defs id="defs6"><linearGradient id="linearGradient26" spreadMethod="pad" gradientTransform="scale(1149.477 -1149.477) rotate(-76.396 -.327 -1.005)" gradientUnits="userSpaceOnUse" y2="0" x2="1" y1="0" x1="0"><stop id="stop22" offset="0" stop-opacity="1" stop-color="#03a288"/><stop id="stop24" offset="1" stop-opacity="1" stop-color="#66c430"/></linearGradient><linearGradient id="linearGradient42" spreadMethod="pad" gradientTransform="scale(1149.477 -1149.477) rotate(-76.396 -.059 -1.216)" gradientUnits="userSpaceOnUse" y2="0" x2="1" y1="0" x1="0"><stop id="stop38" offset="0" stop-opacity="1" stop-color="#03a288"/><stop id="stop40" offset="1" stop-opacity="1" stop-color="#66c430"/></linearGradient><linearGradient id="linearGradient58" spreadMethod="pad" gradientTransform="scale(1149.477 -1149.477) rotate(-76.396 -.714 -.7)" gradientUnits="userSpaceOnUse" y2="0" x2="1" y1="0" x1="0"><stop id="stop54" offset="0" stop-opacity="1" stop-color="#03a288"/><stop id="stop56" offset="1" stop-opacity="1" stop-color="#66c430"/></linearGradient><linearGradient id="linearGradient74" spreadMethod="pad" gradientTransform="scale(1149.477 -1149.477) rotate(-76.396 -.368 -.972)" gradientUnits="userSpaceOnUse" y2="0" x2="1" y1="0" x1="0"><stop id="stop70" offset="0" stop-opacity="1" stop-color="#03a288"/><stop id="stop72" offset="1" stop-opacity="1" stop-color="#66c430"/></linearGradient><linearGradient id="linearGradient90" spreadMethod="pad" gradientTransform="scale(1149.477 -1149.477) rotate(-76.396 -.267 -1.052)" gradientUnits="userSpaceOnUse" y2="0" x2="1" y1="0" x1="0"><stop id="stop86" offset="0" stop-opacity="1" stop-color="#03a288"/><stop id="stop88" offset="1" stop-opacity="1" stop-color="#66c430"/></linearGradient><linearGradient id="linearGradient106" spreadMethod="pad" gradientTransform="scale(1149.477 -1149.477) rotate(-76.396 -.165 -1.132)" gradientUnits="userSpaceOnUse" y2="0" x2="1" y1="0" x1="0"><stop id="stop102" offset="0" stop-opacity="1" stop-color="#03a288"/><stop id="stop104" offset="1" stop-opacity="1" stop-color="#66c430"/></linearGradient><linearGradient id="linearGradient122" spreadMethod="pad" gradientTransform="scale(1149.477 -1149.477) rotate(-76.396 -.673 -.733)" gradientUnits="userSpaceOnUse" y2="0" x2="1" y1="0" x1="0"><stop id="stop118" offset="0" stop-opacity="1" stop-color="#03a288"/><stop id="stop120" offset="1" stop-opacity="1" stop-color="#66c430"/></linearGradient><linearGradient id="linearGradient138" spreadMethod="pad" gradientTransform="scale(1149.477 -1149.477) rotate(-76.396 -.613 -.78)" gradientUnits="userSpaceOnUse" y2="0" x2="1" y1="0" x1="0"><stop id="stop134" offset="0" stop-opacity="1" stop-color="#03a288"/><stop id="stop136" offset="1" stop-opacity="1" stop-color="#66c430"/></linearGradient><linearGradient id="linearGradient154" spreadMethod="pad" gradientTransform="scale(1149.477 -1149.477) rotate(-76.396 -.345 -.99)" gradientUnits="userSpaceOnUse" y2="0" x2="1" y1="0" x1="0"><stop id="stop150" offset="0" stop-opacity="1" stop-color="#03a288"/><stop id="stop152" offset="1" stop-opacity="1" stop-color="#66c430"/></linearGradient><linearGradient id="linearGradient170" spreadMethod="pad" gradientTransform="scale(1149.477 -1149.477) rotate(-76.396 -.571 -.812)" gradientUnits="userSpaceOnUse" y2="0" x2="1" y1="0" x1="0"><stop id="stop166" offset="0" stop-opacity="1" stop-color="#03a288"/><stop id="stop168" offset="1" stop-opacity="1" stop-color="#66c430"/></linearGradient><linearGradient id="linearGradient186" spreadMethod="pad" gradientTransform="scale(1149.477 -1149.477) rotate(-76.396 -.225 -1.085)" gradientUnits="userSpaceOnUse" y2="0" x2="1" y1="0" x1="0"><stop id="stop182" offset="0" stop-opacity="1" stop-color="#03a288"/><stop id="stop184" offset="1" stop-opacity="1" stop-color="#66c430"/></linearGradient><linearGradient id="linearGradient202" spreadMethod="pad" gradientTransform="scale(1149.477 -1149.477) rotate(-76.396 -.142 -1.15)" gradientUnits="userSpaceOnUse" y2="0" x2="1" y1="0" x1="0"><stop id="stop198" offset="0" stop-opacity="1" stop-color="#03a288"/><stop id="stop200" offset="1" stop-opacity="1" stop-color="#66c430"/></linearGradient><linearGradient id="linearGradient218" spreadMethod="pad" gradientTransform="scale(1149.477 -1149.477) rotate(-76.396 -.1 -1.183)" gradientUnits="userSpaceOnUse" y2="0" x2="1" y1="0" x1="0"><stop id="stop214" offset="0" stop-opacity="1" stop-color="#03a288"/><stop id="stop216" offset="1" stop-opacity="1" stop-color="#66c430"/></linearGradient><linearGradient id="linearGradient234" spreadMethod="pad" gradientTransform="scale(1149.477 -1149.477) rotate(-76.396 -.202 -1.103)" gradientUnits="userSpaceOnUse" y2="0" x2="1" y1="0" x1="0"><stop id="stop230" offset="0" stop-opacity="1" stop-color="#03a288"/><stop id="stop232" offset="1" stop-opacity="1" stop-color="#66c430"/></linearGradient><linearGradient id="linearGradient250" spreadMethod="pad" gradientTransform="scale(1149.477 -1149.477) rotate(-76.396 -.387 -.958)" gradientUnits="userSpaceOnUse" y2="0" x2="1" y1="0" x1="0"><stop id="stop246" offset="0" stop-opacity="1" stop-color="#03a288"/><stop id="stop248" offset="1" stop-opacity="1" stop-color="#66c430"/></linearGradient><linearGradient id="linearGradient266" spreadMethod="pad" gradientTransform="scale(1149.477 -1149.477) rotate(-76.396 0 -1.263)" gradientUnits="userSpaceOnUse" y2="0" x2="1" y1="0" x1="0"><stop id="stop262" offset="0" stop-opacity="1" stop-color="#03a288"/><stop id="stop264" offset="1" stop-opacity="1" stop-color="#66c430"/></linearGradient><linearGradient id="linearGradient282" spreadMethod="pad" gradientTransform="scale(1149.477 -1149.477) rotate(-76.396 -.04 -1.23)" gradientUnits="userSpaceOnUse" y2="0" x2="1" y1="0" x1="0"><stop id="stop278" offset="0" stop-opacity="1" stop-color="#03a288"/><stop id="stop280" offset="1" stop-opacity="1" stop-color="#66c430"/></linearGradient><linearGradient id="linearGradient298" spreadMethod="pad" gradientTransform="scale(1149.477 -1149.477) rotate(-76.396 -.082 -1.197)" gradientUnits="userSpaceOnUse" y2="0" x2="1" y1="0" x1="0"><stop id="stop294" offset="0" stop-opacity="1" stop-color="#03a288"/><stop id="stop296" offset="1" stop-opacity="1" stop-color="#66c430"/></linearGradient><linearGradient id="linearGradient314" spreadMethod="pad" gradientTransform="matrix(270.361 1117.23 1117.23 -270.361 1192.43 1162)" gradientUnits="userSpaceOnUse" y2="0" x2="1" y1="0" x1="0"><stop id="stop310" offset="0" stop-opacity="1" stop-color="#03a288"/><stop id="stop312" offset="1" stop-opacity="1" stop-color="#66c430"/></linearGradient><linearGradient id="linearGradient330" spreadMethod="pad" gradientTransform="scale(1149.477 -1149.477) rotate(-76.396 -.53 -.845)" gradientUnits="userSpaceOnUse" y2="0" x2="1" y1="0" x1="0"><stop id="stop326" offset="0" stop-opacity="1" stop-color="#03a288"/><stop id="stop328" offset="1" stop-opacity="1" stop-color="#66c430"/></linearGradient><linearGradient id="linearGradient346" spreadMethod="pad" gradientTransform="scale(1149.477 -1149.477) rotate(-76.396 -.47 -.892)" gradientUnits="userSpaceOnUse" y2="0" x2="1" y1="0" x1="0"><stop id="stop342" offset="0" stop-opacity="1" stop-color="#03a288"/><stop id="stop344" offset="1" stop-opacity="1" stop-color="#66c430"/></linearGradient><linearGradient id="linearGradient362" spreadMethod="pad" gradientTransform="scale(1149.477 -1149.477) rotate(-76.396 .042 -1.295)" gradientUnits="userSpaceOnUse" y2="0" x2="1" y1="0" x1="0"><stop id="stop358" offset="0" stop-opacity="1" stop-color="#03a288"/><stop id="stop360" offset="1" stop-opacity="1" stop-color="#66c430"/></linearGradient><linearGradient id="linearGradient378" spreadMethod="pad" gradientTransform="scale(1149.477 -1149.477) rotate(-76.396 -.306 -1.021)" gradientUnits="userSpaceOnUse" y2="0" x2="1" y1="0" x1="0"><stop id="stop374" offset="0" stop-opacity="1" stop-color="#03a288"/><stop id="stop376" offset="1" stop-opacity="1" stop-color="#66c430"/></linearGradient><linearGradient id="linearGradient394" spreadMethod="pad" gradientTransform="scale(1149.477 -1149.477) rotate(-76.396 -.304 -1.023)" gradientUnits="userSpaceOnUse" y2="0" x2="1" y1="0" x1="0"><stop id="stop390" offset="0" stop-opacity="1" stop-color="#03a288"/><stop id="stop392" offset="1" stop-opacity="1" stop-color="#66c430"/></linearGradient><linearGradient id="linearGradient410" spreadMethod="pad" gradientTransform="scale(1149.477 -1149.477) rotate(-76.396 -.16 -1.136)" gradientUnits="userSpaceOnUse" y2="0" x2="1" y1="0" x1="0"><stop id="stop406" offset="0" stop-opacity="1" stop-color="#03a288"/><stop id="stop408" offset="1" stop-opacity="1" stop-color="#66c430"/></linearGradient><linearGradient id="linearGradient426" spreadMethod="pad" gradientTransform="scale(1149.477 -1149.477) rotate(-76.396 -.017 -1.248)" gradientUnits="userSpaceOnUse" y2="0" x2="1" y1="0" x1="0"><stop id="stop422" offset="0" stop-opacity="1" stop-color="#03a288"/><stop id="stop424" offset="1" stop-opacity="1" stop-color="#66c430"/></linearGradient><linearGradient id="linearGradient442" spreadMethod="pad" gradientTransform="scale(1149.477 -1149.477) rotate(-76.396 .084 -1.328)" gradientUnits="userSpaceOnUse" y2="0" x2="1" y1="0" x1="0"><stop id="stop438" offset="0" stop-opacity="1" stop-color="#03a288"/><stop id="stop440" offset="1" stop-opacity="1" stop-color="#66c430"/></linearGradient><clipPath id="clipPath20" clipPathUnits="userSpaceOnUse"><path id="path18" d="M1003.05 1607.88c0 44.44-36.155 80.6-80.597 80.6-44.441 0-80.601-36.16-80.601-80.6s36.16-80.6 80.601-80.6c44.442 0 80.597 36.16 80.597 80.6z"/></clipPath><clipPath id="clipPath36" clipPathUnits="userSpaceOnUse"><path id="path34" d="M1588.12 2243.92c30.57 0 55.35 24.78 55.35 55.35s-24.78 55.35-55.35 55.35-55.35-24.78-55.35-55.35 24.78-55.35 55.35-55.35z"/></clipPath><clipPath id="clipPath52" clipPathUnits="userSpaceOnUse"><path id="path50" d="M256.941 1890.08c-28.535 0-51.664-23.13-51.664-51.66 0-28.53 23.129-51.66 51.664-51.66 28.532 0 51.661 23.13 51.661 51.66 0 28.53-23.129 51.66-51.661 51.66z"/></clipPath><clipPath id="clipPath68" clipPathUnits="userSpaceOnUse"><path id="path66" d="M789.367 1435.64c-32.203 0-58.308-26.11-58.308-58.31s26.105-58.31 58.308-58.31 58.305 26.11 58.305 58.31-26.102 58.31-58.305 58.31z"/></clipPath><clipPath id="clipPath84" clipPathUnits="userSpaceOnUse"><path id="path82" d="M922.453 1194.76c-26.492 0-47.973-21.48-47.973-47.97s21.481-47.97 47.973-47.97c26.492 0 47.973 21.48 47.973 47.97s-21.481 47.97-47.973 47.97z"/></clipPath><clipPath id="clipPath100" clipPathUnits="userSpaceOnUse"><path id="path98" d="M1055.59 953.102c-20.38 0-36.91-16.532-36.91-36.911 0-20.382 16.53-36.902 36.91-36.902 20.38 0 36.9 16.52 36.9 36.902 0 20.379-16.52 36.911-36.9 36.911z"/></clipPath><clipPath id="clipPath116" clipPathUnits="userSpaceOnUse"><path id="path114" d="M390.023 2109.57c-22.418 0-40.593-18.17-40.593-40.59s18.175-40.59 40.593-40.59c22.418 0 40.59 18.17 40.59 40.59s-18.172 40.59-40.59 40.59z"/></clipPath><clipPath id="clipPath132" clipPathUnits="userSpaceOnUse"><path id="path130" d="M390.008 1648.44c-22.418 0-40.594-18.17-40.594-40.59s18.176-40.59 40.594-40.59c22.418 0 40.59 18.17 40.59 40.59s-18.172 40.59-40.59 40.59z"/></clipPath><clipPath id="clipPath148" clipPathUnits="userSpaceOnUse"><path id="path146" d="M1055.56 2240.44c32.6 0 59.04 26.44 59.04 59.04 0 32.61-26.44 59.04-59.04 59.04-32.61 0-59.044-26.43-59.044-59.04 0-32.6 26.434-59.04 59.044-59.04z"/></clipPath><clipPath id="clipPath164" clipPathUnits="userSpaceOnUse"><path id="path162" d="M523.184 1915.91c-42.801 0-77.493-34.69-77.493-77.49s34.692-77.49 77.493-77.49c42.793 0 77.492 34.69 77.492 77.49s-34.699 77.49-77.492 77.49z"/></clipPath><clipPath id="clipPath180" clipPathUnits="userSpaceOnUse"><path id="path178" d="M1055.56 1449.37c-39.78 0-72.025-32.25-72.025-72.03s32.245-72.03 72.025-72.03c39.78 0 72.03 32.25 72.03 72.03s-32.25 72.03-72.03 72.03z"/></clipPath><clipPath id="clipPath196" clipPathUnits="userSpaceOnUse"><path id="path194" d="M1235.67 1838.42c0-47.54 38.67-86.21 86.2-86.21 47.54 0 86.21 38.67 86.21 86.21 0 47.53-38.67 86.2-86.21 86.2-47.53 0-86.2-38.67-86.2-86.2z"/></clipPath><clipPath id="clipPath212" clipPathUnits="userSpaceOnUse"><path id="path210" d="M1454.96 1991.35c42.73 0 77.49 34.76 77.49 77.49s-34.76 77.5-77.49 77.5-77.49-34.77-77.49-77.5 34.76-77.49 77.49-77.49z"/></clipPath><clipPath id="clipPath228" clipPathUnits="userSpaceOnUse"><path id="path226" d="M1321.8 2225.47c40.7 0 73.8 33.1 73.8 73.8 0 40.7-33.1 73.8-73.8 73.8-40.7 0-73.8-33.1-73.8-73.8 0-40.7 33.1-73.8 73.8-73.8z"/></clipPath><clipPath id="clipPath244" clipPathUnits="userSpaceOnUse"><path id="path242" d="M922.445 1993.86c41.418 0 75.114 33.69 75.114 75.11s-33.696 75.11-75.114 75.11c-41.418 0-75.109-33.69-75.109-75.11s33.691-75.11 75.109-75.11z"/></clipPath><clipPath id="clipPath260" clipPathUnits="userSpaceOnUse"><path id="path258" d="M1588.03 1898.13c-32.98 0-59.71-26.74-59.71-59.71 0-32.98 26.73-59.71 59.71-59.71 32.97 0 59.7 26.73 59.7 59.71 0 32.97-26.73 59.71-59.7 59.71z"/></clipPath><clipPath id="clipPath276" clipPathUnits="userSpaceOnUse"><path id="path274" d="M1454.9 1671.93c-35.39 0-64.07-28.68-64.07-64.06s28.68-64.06 64.07-64.06c35.37 0 64.06 28.68 64.06 64.06s-28.69 64.06-64.06 64.06z"/></clipPath><clipPath id="clipPath292" clipPathUnits="userSpaceOnUse"><path id="path290" d="M1321.76 1434.86c-31.77 0-57.53-25.76-57.53-57.53 0-31.78 25.76-57.53 57.53-57.53 31.78 0 57.53 25.75 57.53 57.53 0 31.77-25.75 57.53-57.53 57.53z"/></clipPath><clipPath id="clipPath308" clipPathUnits="userSpaceOnUse"><path id="path306" d="M1188.75 1194.76c-26.49 0-47.97-21.48-47.97-47.97 0-26.5 21.48-47.97 47.97-47.97 26.5 0 47.97 21.47 47.97 47.97 0 26.49-21.47 47.97-47.97 47.97z"/></clipPath><clipPath id="clipPath324" clipPathUnits="userSpaceOnUse"><path id="path322" d="M656.43 2003.81c35.988 0 65.168 29.18 65.168 65.17s-29.18 65.16-65.168 65.16c-35.992 0-65.164-29.17-65.164-65.16 0-35.99 29.172-65.17 65.164-65.17z"/></clipPath><clipPath id="clipPath340" clipPathUnits="userSpaceOnUse"><path id="path338" d="M656.227 1673.02c-35.989 0-65.168-29.18-65.168-65.17s29.179-65.17 65.168-65.17c35.992 0 65.164 29.18 65.164 65.17s-29.172 65.17-65.164 65.17z"/></clipPath><clipPath id="clipPath356" clipPathUnits="userSpaceOnUse"><path id="path354" d="M1721.13 2120.63c-28.53 0-51.66-23.13-51.66-51.67 0-28.53 23.13-51.66 51.66-51.66 28.53 0 51.66 23.13 51.66 51.66 0 28.54-23.13 51.67-51.66 51.67z"/></clipPath><clipPath id="clipPath372" clipPathUnits="userSpaceOnUse"><path id="path370" d="M1228.84 1697.91c-18.11 8.4-39.94 20.65-50.77 28.48-35.34 25.52-57.29 68.14-57.29 111.24 0 44.11 26.88 90.53 68.49 118.25 9.69 6.46 21.92 12.96 33.75 19.25 6.87 3.64 13.2 7 18.71 10.16 29.5 16.96 46.42 47.01 46.42 82.47 0 55.1-44.52 99.93-99.24 99.93-26.99 0-52.94-10.84-71.2-29.75-19.22-19.9-28.8-47.28-27.69-79.16.16-4.3.38-8.49.59-12.64.99-19.43 1.9-37.19-2.28-59.64-8.02-43.07-31.71-77.69-65-94.99-29.248-15.22-78.264-22.44-121.814-4.2-14.985 6.28-26.184 13.64-38.043 21.43-7.067 4.64-14.356 9.43-23.118 14.45-24.289 13.9-53.738 17.38-80.761 9.53-22.082-6.42-45.746-25.95-57.547-47.48-26.039-47.56-8.602-106.67 39.695-134.55 33.094-19.1 70.102-12.83 91.727-1.65 16.347 8.47 27.785 15.83 36.976 21.74 7.496 4.83 13.871 8.94 20.035 11.66 26.211 11.54 51.211 17.39 74.301 17.39 23.297 0 44.449-5.83 62.859-17.33 36.15-22.61 57.02-55.07 62.03-96.48 1.91-15.87 1.15-27.76.25-41.53-.67-10.27-1.43-21.77-1.1-36.88 1.19-57 44.17-99.98 99.99-99.98 53.77 0 99.2 45.75 99.2 99.91 0 38.23-23.23 73.7-59.17 90.37z"/></clipPath><clipPath id="clipPath388" clipPathUnits="userSpaceOnUse"><path id="path386" d="M1188.55 2492.57c20.38 0 36.9 16.52 36.9 36.9s-16.52 36.9-36.9 36.9-36.9-16.52-36.9-36.9 16.52-36.9 36.9-36.9z"/></clipPath><clipPath id="clipPath404" clipPathUnits="userSpaceOnUse"><path id="path402" d="M1454.7 2488.65c22.42 0 40.59 18.17 40.59 40.59s-18.17 40.59-40.59 40.59-40.59-18.17-40.59-40.59 18.17-40.59 40.59-40.59z"/></clipPath><clipPath id="clipPath420" clipPathUnits="userSpaceOnUse"><path id="path418" d="M1720.97 2492.37c20.38 0 36.9 16.52 36.9 36.9 0 20.37-16.52 36.9-36.9 36.9s-36.9-16.53-36.9-36.9c0-20.38 16.52-36.9 36.9-36.9z"/></clipPath><clipPath id="clipPath436" clipPathUnits="userSpaceOnUse"><path id="path434" d="M1854.14 2258.89c22.41 0 40.59 18.18 40.59 40.59 0 22.42-18.18 40.6-40.59 40.6-22.42 0-40.59-18.18-40.59-40.6 0-22.41 18.17-40.59 40.59-40.59z"/></clipPath></defs><g transform="matrix(1.33333 0 0 -1.33333 0 342.64)" id="g10"><g transform="scale(.1)" id="g12"><g id="g14"><g clip-path="url(#clipPath20)" id="g16"><path id="path28" d="M1003.05 1607.88c0 44.44-36.155 80.6-80.597 80.6-44.441 0-80.601-36.16-80.601-80.6s36.16-80.6 80.601-80.6c44.442 0 80.597 36.16 80.597 80.6" fill="url(#linearGradient26)" fill-opacity="1" fill-rule="nonzero" stroke="none"/></g></g><g id="g30"><g clip-path="url(#clipPath36)" id="g32"><path id="path44" d="M1588.12 2243.92c30.57 0 55.35 24.78 55.35 55.35s-24.78 55.35-55.35 55.35-55.35-24.78-55.35-55.35 24.78-55.35 55.35-55.35" fill="url(#linearGradient42)" fill-opacity="1" fill-rule="nonzero" stroke="none"/></g></g><g id="g46"><g clip-path="url(#clipPath52)" id="g48"><path id="path60" d="M256.941 1890.08c-28.535 0-51.664-23.13-51.664-51.66 0-28.53 23.129-51.66 51.664-51.66 28.532 0 51.661 23.13 51.661 51.66 0 28.53-23.129 51.66-51.661 51.66" fill="url(#linearGradient58)" fill-opacity="1" fill-rule="nonzero" stroke="none"/></g></g><g id="g62"><g clip-path="url(#clipPath68)" id="g64"><path id="path76" d="M789.367 1435.64c-32.203 0-58.308-26.11-58.308-58.31s26.105-58.31 58.308-58.31 58.305 26.11 58.305 58.31-26.102 58.31-58.305 58.31" fill="url(#linearGradient74)" fill-opacity="1" fill-rule="nonzero" stroke="none"/></g></g><g id="g78"><g clip-path="url(#clipPath84)" id="g80"><path id="path92" d="M922.453 1194.76c-26.492 0-47.973-21.48-47.973-47.97s21.481-47.97 47.973-47.97c26.492 0 47.973 21.48 47.973 47.97s-21.481 47.97-47.973 47.97" fill="url(#linearGradient90)" fill-opacity="1" fill-rule="nonzero" stroke="none"/></g></g><g id="g94"><g clip-path="url(#clipPath100)" id="g96"><path id="path108" d="M1055.59 953.102c-20.38 0-36.91-16.532-36.91-36.911 0-20.382 16.53-36.902 36.91-36.902 20.38 0 36.9 16.52 36.9 36.902 0 20.379-16.52 36.911-36.9 36.911" fill="url(#linearGradient106)" fill-opacity="1" fill-rule="nonzero" stroke="none"/></g></g><g id="g110"><g clip-path="url(#clipPath116)" id="g112"><path id="path124" d="M390.023 2109.57c-22.418 0-40.593-18.17-40.593-40.59s18.175-40.59 40.593-40.59c22.418 0 40.59 18.17 40.59 40.59s-18.172 40.59-40.59 40.59" fill="url(#linearGradient122)" fill-opacity="1" fill-rule="nonzero" stroke="none"/></g></g><g id="g126"><g clip-path="url(#clipPath132)" id="g128"><path id="path140" d="M390.008 1648.44c-22.418 0-40.594-18.17-40.594-40.59s18.176-40.59 40.594-40.59c22.418 0 40.59 18.17 40.59 40.59s-18.172 40.59-40.59 40.59" fill="url(#linearGradient138)" fill-opacity="1" fill-rule="nonzero" stroke="none"/></g></g><g id="g142"><g clip-path="url(#clipPath148)" id="g144"><path id="path156" d="M1055.56 2240.44c32.6 0 59.04 26.44 59.04 59.04 0 32.61-26.44 59.04-59.04 59.04-32.61 0-59.044-26.43-59.044-59.04 0-32.6 26.434-59.04 59.044-59.04" fill="url(#linearGradient154)" fill-opacity="1" fill-rule="nonzero" stroke="none"/></g></g><g id="g158"><g clip-path="url(#clipPath164)" id="g160"><path id="path172" d="M523.184 1915.91c-42.801 0-77.493-34.69-77.493-77.49s34.692-77.49 77.493-77.49c42.793 0 77.492 34.69 77.492 77.49s-34.699 77.49-77.492 77.49" fill="url(#linearGradient170)" fill-opacity="1" fill-rule="nonzero" stroke="none"/></g></g><g id="g174"><g clip-path="url(#clipPath180)" id="g176"><path id="path188" d="M1055.56 1449.37c-39.78 0-72.025-32.25-72.025-72.03s32.245-72.03 72.025-72.03c39.78 0 72.03 32.25 72.03 72.03s-32.25 72.03-72.03 72.03" fill="url(#linearGradient186)" fill-opacity="1" fill-rule="nonzero" stroke="none"/></g></g><g id="g190"><g clip-path="url(#clipPath196)" id="g192"><path id="path204" d="M1235.67 1838.42c0-47.54 38.67-86.21 86.2-86.21 47.54 0 86.21 38.67 86.21 86.21 0 47.53-38.67 86.2-86.21 86.2-47.53 0-86.2-38.67-86.2-86.2" fill="url(#linearGradient202)" fill-opacity="1" fill-rule="nonzero" stroke="none"/></g></g><g id="g206"><g clip-path="url(#clipPath212)" id="g208"><path id="path220" d="M1454.96 1991.35c42.73 0 77.49 34.76 77.49 77.49s-34.76 77.5-77.49 77.5-77.49-34.77-77.49-77.5 34.76-77.49 77.49-77.49" fill="url(#linearGradient218)" fill-opacity="1" fill-rule="nonzero" stroke="none"/></g></g><g id="g222"><g clip-path="url(#clipPath228)" id="g224"><path id="path236" d="M1321.8 2225.47c40.7 0 73.8 33.1 73.8 73.8 0 40.7-33.1 73.8-73.8 73.8-40.7 0-73.8-33.1-73.8-73.8 0-40.7 33.1-73.8 73.8-73.8" fill="url(#linearGradient234)" fill-opacity="1" fill-rule="nonzero" stroke="none"/></g></g><g id="g238"><g clip-path="url(#clipPath244)" id="g240"><path id="path252" d="M922.445 1993.86c41.418 0 75.114 33.69 75.114 75.11s-33.696 75.11-75.114 75.11c-41.418 0-75.109-33.69-75.109-75.11s33.691-75.11 75.109-75.11" fill="url(#linearGradient250)" fill-opacity="1" fill-rule="nonzero" stroke="none"/></g></g><g id="g254"><g clip-path="url(#clipPath260)" id="g256"><path id="path268" d="M1588.03 1898.13c-32.98 0-59.71-26.74-59.71-59.71 0-32.98 26.73-59.71 59.71-59.71 32.97 0 59.7 26.73 59.7 59.71 0 32.97-26.73 59.71-59.7 59.71" fill="url(#linearGradient266)" fill-opacity="1" fill-rule="nonzero" stroke="none"/></g></g><g id="g270"><g clip-path="url(#clipPath276)" id="g272"><path id="path284" d="M1454.9 1671.93c-35.39 0-64.07-28.68-64.07-64.06s28.68-64.06 64.07-64.06c35.37 0 64.06 28.68 64.06 64.06s-28.69 64.06-64.06 64.06" fill="url(#linearGradient282)" fill-opacity="1" fill-rule="nonzero" stroke="none"/></g></g><g id="g286"><g clip-path="url(#clipPath292)" id="g288"><path id="path300" d="M1321.76 1434.86c-31.77 0-57.53-25.76-57.53-57.53 0-31.78 25.76-57.53 57.53-57.53 31.78 0 57.53 25.75 57.53 57.53 0 31.77-25.75 57.53-57.53 57.53" fill="url(#linearGradient298)" fill-opacity="1" fill-rule="nonzero" stroke="none"/></g></g><g id="g302"><g clip-path="url(#clipPath308)" id="g304"><path id="path316" d="M1188.75 1194.76c-26.49 0-47.97-21.48-47.97-47.97 0-26.5 21.48-47.97 47.97-47.97 26.5 0 47.97 21.47 47.97 47.97 0 26.49-21.47 47.97-47.97 47.97" fill="url(#linearGradient314)" fill-opacity="1" fill-rule="nonzero" stroke="none"/></g></g><g id="g318"><g clip-path="url(#clipPath324)" id="g320"><path id="path332" d="M656.43 2003.81c35.988 0 65.168 29.18 65.168 65.17s-29.18 65.16-65.168 65.16c-35.992 0-65.164-29.17-65.164-65.16 0-35.99 29.172-65.17 65.164-65.17" fill="url(#linearGradient330)" fill-opacity="1" fill-rule="nonzero" stroke="none"/></g></g><g id="g334"><g clip-path="url(#clipPath340)" id="g336"><path id="path348" d="M656.227 1673.02c-35.989 0-65.168-29.18-65.168-65.17s29.179-65.17 65.168-65.17c35.992 0 65.164 29.18 65.164 65.17s-29.172 65.17-65.164 65.17" fill="url(#linearGradient346)" fill-opacity="1" fill-rule="nonzero" stroke="none"/></g></g><g id="g350"><g clip-path="url(#clipPath356)" id="g352"><path id="path364" d="M1721.13 2120.63c-28.53 0-51.66-23.13-51.66-51.67 0-28.53 23.13-51.66 51.66-51.66 28.53 0 51.66 23.13 51.66 51.66 0 28.54-23.13 51.67-51.66 51.67" fill="url(#linearGradient362)" fill-opacity="1" fill-rule="nonzero" stroke="none"/></g></g><g id="g366"><g clip-path="url(#clipPath372)" id="g368"><path id="path380" d="M1228.84 1697.91c-18.11 8.4-39.94 20.65-50.77 28.48-35.34 25.52-57.29 68.14-57.29 111.24 0 44.11 26.88 90.53 68.49 118.25 9.69 6.46 21.92 12.96 33.75 19.25 6.87 3.64 13.2 7 18.71 10.16 29.5 16.96 46.42 47.01 46.42 82.47 0 55.1-44.52 99.93-99.24 99.93-26.99 0-52.94-10.84-71.2-29.75-19.22-19.9-28.8-47.28-27.69-79.16.16-4.3.38-8.49.59-12.64.99-19.43 1.9-37.19-2.28-59.64-8.02-43.07-31.71-77.69-65-94.99-29.248-15.22-78.264-22.44-121.814-4.2-14.985 6.28-26.184 13.64-38.043 21.43-7.067 4.64-14.356 9.43-23.118 14.45-24.289 13.9-53.738 17.38-80.761 9.53-22.082-6.42-45.746-25.95-57.547-47.48-26.039-47.56-8.602-106.67 39.695-134.55 33.094-19.1 70.102-12.83 91.727-1.65 16.347 8.47 27.785 15.83 36.976 21.74 7.496 4.83 13.871 8.94 20.035 11.66 26.211 11.54 51.211 17.39 74.301 17.39 23.297 0 44.449-5.83 62.859-17.33 36.15-22.61 57.02-55.07 62.03-96.48 1.91-15.87 1.15-27.76.25-41.53-.67-10.27-1.43-21.77-1.1-36.88 1.19-57 44.17-99.98 99.99-99.98 53.77 0 99.2 45.75 99.2 99.91 0 38.23-23.23 73.7-59.17 90.37" fill="url(#linearGradient378)" fill-opacity="1" fill-rule="nonzero" stroke="none"/></g></g><g id="g382"><g clip-path="url(#clipPath388)" id="g384"><path id="path396" d="M1188.55 2492.57c20.38 0 36.9 16.52 36.9 36.9s-16.52 36.9-36.9 36.9-36.9-16.52-36.9-36.9 16.52-36.9 36.9-36.9" fill="url(#linearGradient394)" fill-opacity="1" fill-rule="nonzero" stroke="none"/></g></g><g id="g398"><g clip-path="url(#clipPath404)" id="g400"><path id="path412" d="M1454.7 2488.65c22.42 0 40.59 18.17 40.59 40.59s-18.17 40.59-40.59 40.59-40.59-18.17-40.59-40.59 18.17-40.59 40.59-40.59" fill="url(#linearGradient410)" fill-opacity="1" fill-rule="nonzero" stroke="none"/></g></g><g id="g414"><g clip-path="url(#clipPath420)" id="g416"><path id="path428" d="M1720.97 2492.37c20.38 0 36.9 16.52 36.9 36.9 0 20.37-16.52 36.9-36.9 36.9s-36.9-16.53-36.9-36.9c0-20.38 16.52-36.9 36.9-36.9" fill="url(#linearGradient426)" fill-opacity="1" fill-rule="nonzero" stroke="none"/></g></g><g id="g430"><g clip-path="url(#clipPath436)" id="g432"><path id="path444" d="M1854.14 2258.89c22.41 0 40.59 18.18 40.59 40.59 0 22.42-18.18 40.6-40.59 40.6-22.42 0-40.59-18.18-40.59-40.6 0-22.41 18.17-40.59 40.59-40.59" fill="url(#linearGradient442)" fill-opacity="1" fill-rule="nonzero" stroke="none"/></g></g><path id="path446" d="M999.523 391.66V228.969h-32.539V364.93h-38.113c-7.762 0-14.293-5.821-15.187-13.532l-12.938-66.648c-6.773-41.059-23.566-60.27-51.687-60.27-4.649 0-9.434.301-12.227 1-1.629.231-3.254.7-4.648 1.161v25.57h6.972c15.11 0 23.735 9.379 27.887 32.539l14.297 75.992c3.355 18.656 17.07 30.918 34.836 30.918h83.347" fill="#181210" fill-opacity="1" fill-rule="nonzero" stroke="none"/><path id="path448" d="M570.637 255.859h-79.024v1.161c2.551 2.789 5.11 5.812 7.2 9.07 3.492 5.801 7.207 13.711 7.906 22.308l7.929 65.422c.778 6.43 6.239 11.27 12.723 11.27h43.266zm53.449 0h-20.914V391.82h-89.633c-15.84 0-29.195-11.8-31.141-27.531l-9.382-75.891c-2.551-21.148-13.946-32.539-27.887-32.539h-2.324v-26.711h181.281v26.711" fill="#181210" fill-opacity="1" fill-rule="nonzero" stroke="none"/><path id="path450" d="M730.48 368.582c-30.445 0-53.449-23.473-53.449-58.102 0-34.628 23.004-58.109 53.449-58.109 30.45 0 53.461 23.481 53.461 58.109 0 34.629-23.011 58.102-53.461 58.102zm0 27.887c51.137 0 87.161-36.02 87.161-85.989 0-49.968-36.024-86-87.161-86-51.125 0-87.152 36.032-87.152 86 0 49.969 36.027 85.989 87.152 85.989" fill="#181210" fill-opacity="1" fill-rule="nonzero" stroke="none"/><path id="path452" d="M1044.75 229.129V391.82h32.54V280.262h1.16l81.35 111.558h32.54V229.129h-32.54v111.562h-1.16l-81.35-111.562h-32.54" fill="#181210" fill-opacity="1" fill-rule="nonzero" stroke="none"/><path id="path454" d="M1385.97 391.82V229.129h-32.54v67.402h-83.67v-67.402h-32.54V391.82h32.54v-68.558h83.67v68.558h32.54" fill="#181210" fill-opacity="1" fill-rule="nonzero" stroke="none"/><path id="path456" d="M1469.08 289.559h56.94l-27.89 67.402h-1.16zm116.21-60.43h-34.87l-12.78 32.543h-80.18l-12.78-32.543h-34.87l67.4 162.691h40.68l67.4-162.691" fill="#181210" fill-opacity="1" fill-rule="nonzero" stroke="none"/><path id="path458" d="M295.336 472.449v162.692h32.543V523.582h1.156l81.348 111.559h32.543V472.449h-32.543v111.563h-1.16l-81.344-111.563h-32.543" fill="#181210" fill-opacity="1" fill-rule="nonzero" stroke="none"/><path id="path460" d="M488.406 635.141h107.407l10.089-26.731h-84.957V472.449h-32.539v162.692" fill="#181210" fill-opacity="1" fill-rule="nonzero" stroke="none"/><path id="path462" d="M700.07 516.609h-9.332c-12.703 0-22.578 7.672-27.414 19.422l-40.824 99.11h36.023l36.192-87.352a10.958 10.958 0 0110.137-6.777h5.308l39.008 94.129h36.023l-67.257-162.692h-36.028l18.164 44.16" fill="#181210" fill-opacity="1" fill-rule="nonzero" stroke="none"/><path id="path464" d="M943.637 635.449V472.762h-32.535v135.957h-38.118c-7.761 0-14.293-5.821-15.187-13.528l-12.938-66.652c-6.773-41.059-23.566-60.258-51.687-60.258-4.649 0-9.434.289-12.227.989-1.629.23-3.254.699-4.648 1.171V496h6.973c15.109 0 23.734 9.379 27.886 32.539l14.297 75.992c3.356 18.668 17.07 30.918 34.836 30.918h83.348" fill="#181210" fill-opacity="1" fill-rule="nonzero" stroke="none"/><path id="path466" d="M1081.95 693.25c9.29 0 16.26-6.98 16.26-16.27 0-9.3-6.97-16.269-16.26-16.269-9.3 0-16.27 6.969-16.27 16.269 0 9.29 6.97 16.27 16.27 16.27zm-52.3 0c9.3 0 16.27-6.98 16.27-16.27 0-9.3-6.97-16.269-16.27-16.269-9.29 0-16.27 6.969-16.27 16.269 0 9.29 6.98 16.27 16.27 16.27zm-40.439-58.109h130.149V608.41h-97.61v-39.66h67.4v-26.73h-67.4v-42.84h99.94v-26.731H989.211v162.692" fill="#181210" fill-opacity="1" fill-rule="nonzero" stroke="none"/><path id="path468" d="M1191.41 542.18v-43h48.8c21.15 0 30.22 9.062 30.22 20.922 0 13.007-9.07 22.078-30.22 22.078zm39.51 26.718c18.59 0 27.89 9.301 27.89 19.762s-9.3 19.75-27.89 19.75h-39.51v-39.512zm-72.05 66.243h72.05c42.99 0 61.59-18.59 61.59-44.161 0-13.011-6.74-20.679-13.25-25.558-3.95-2.793-8.6-4.891-13.48-6.281v-1.161c7.21-1.628 13.48-3.949 19.29-7.21 11.62-6.731 18.13-15.329 19.06-31.829 0-24.41-22.08-46.492-64.15-46.492h-81.11v162.692" fill="#181210" fill-opacity="1" fill-rule="nonzero" stroke="none"/><path id="path470" d="M1461.47 631.66c5.58-2.328 10.46-5.121 14.65-8.14l-13.95-22.079c-3.49 2.098-7.2 3.719-11.15 5.348-7.21 2.793-16.28 5.109-27.2 5.109-34.63 0-58.1-23.468-58.1-58.097 0-34.641 23.47-58.11 58.1-58.11 11.85 0 21.62 3.02 29.05 6.508 4.42 1.86 8.14 3.949 11.62 6.281l13.95-22.089c-4.42-3.481-9.53-6.5-15.34-9.289-10.46-4.883-23.94-9.301-41.6-9.301-53.23 0-89.48 36.031-89.48 86 0 49.961 36.25 85.988 89.48 85.988 16.97 0 30.44-4.18 39.97-8.129" fill="#181210" fill-opacity="1" fill-rule="nonzero" stroke="none"/><path id="path472" d="M1615.56 550.309v1.16h.01c6.29 1.75 14.99 7.39 20.31 20.09l26.54 63.582h-33.7l-19.54-47.032a31.156 31.156 0 00-28.77-19.211h-32.25v66.243h-32.54V472.449h32.54v69.731h34.86l47.65-69.731h38.35l-53.46 77.86" fill="#181210" fill-opacity="1" fill-rule="nonzero" stroke="none"/><path id="path474" d="M1742.22 532.879h56.95l-27.89 67.402h-1.16zm116.21-60.43h-34.86l-12.78 32.543h-80.19l-12.78-32.543h-34.86l67.4 162.692h40.67l67.4-162.692" fill="#181210" fill-opacity="1" fill-rule="nonzero" stroke="none"/><path id="path476" d="M1952.56 554.961h43v53.449h-43c-22.32 0-33.7-11.621-33.7-26.73 0-13.008 11.62-26.719 33.7-26.719zm75.53 80.18V472.449h-32.53v55.781h-45.33l-39.51-55.781h-37.18l44.15 61.59v1.16c-6.04 2.09-11.38 5.352-16.26 9.301-8.6 7.43-16.27 18.59-16.27 37.18 0 31.379 22.07 53.461 67.4 53.461h75.53" fill="#181210" fill-opacity="1" fill-rule="nonzero" stroke="none"/><path id="path478" d="M209.242 550.309v1.16h.004c6.289 1.75 14.996 7.39 20.313 20.09l26.539 63.582h-33.7l-19.539-47.032a31.166 31.166 0 00-28.773-19.211h-26.324v66.243h-32.543v-66.243H88.606a31.158 31.158 0 00-28.77 19.211l-19.54 47.032H6.595l26.543-63.582c5.312-12.7 14.02-18.34 20.308-20.09h.008v-1.16L0 472.449h38.348l47.644 69.731h29.227v-69.731h32.543v69.731h28.937l47.645-69.731h38.351l-53.453 77.86" fill="#181210" fill-opacity="1" fill-rule="nonzero" stroke="none"/><path id="path480" d="M680.809 67.11V56.39h-22.364V1.872h-13.05v54.52h-22.368V67.11h57.782" fill="#181210" fill-opacity="1" fill-rule="nonzero" stroke="none"/><path id="path482" d="M709.156 67.11h52.192V56.39h-39.141V39.61h27.027V28.89h-27.027v-16.3h40.074V1.87h-53.125v65.24" fill="#181210" fill-opacity="1" fill-rule="nonzero" stroke="none"/><path id="path484" d="M799.02 1.871h-15.844l24.695 33.55-21.898 31.688h15.843l15.375-22.37h.469l15.375 22.37h15.844l-21.902-31.687 24.695-33.55h-15.844l-18.168 24.23h-.469L799.02 1.872" fill="#181210" fill-opacity="1" fill-rule="nonzero" stroke="none"/><path id="path486" d="M937.805 67.11V1.87h-13.047v27.02h-33.547V1.87H878.16v65.24h13.051v-27.5h33.547v27.5h13.047" fill="#181210" fill-opacity="1" fill-rule="nonzero" stroke="none"/><path id="path488" d="M1003.44 57.781c-12.21 0-21.436-9.41-21.436-23.289 0-13.89 9.226-23.3 21.436-23.3 12.21 0 21.43 9.41 21.43 23.3 0 13.88-9.22 23.29-21.43 23.29zm0 11.188c20.5 0 34.95-14.45 34.95-34.477C1038.39 14.45 1023.94 0 1003.44 0c-20.502 0-34.948 14.45-34.948 34.492 0 20.027 14.446 34.477 34.948 34.477" fill="#181210" fill-opacity="1" fill-rule="nonzero" stroke="none"/><path id="path490" d="M1128.25 67.11V1.87h-13.05v54.52h-33.08V1.87h-13.05v65.24h59.18" fill="#181210" fill-opacity="1" fill-rule="nonzero" stroke="none"/><path id="path492" d="M1179.44 26.102h22.83l-11.18 27.02h-.47zm46.6-24.23h-13.98l-5.13 13.05h-32.15l-5.13-13.05h-13.98l27.03 65.237h16.31l27.03-65.238" fill="#181210" fill-opacity="1" fill-rule="nonzero" stroke="none"/><path id="path494" d="M1266.51 56.39v-23.3h16.77c8.85 0 14.44 5.59 14.44 11.648 0 6.051-5.59 11.653-14.44 11.653zm16.77 10.72c18.17 0 27.96-9.79 27.96-22.372 0-12.578-9.79-22.367-27.96-22.367h-16.77v-20.5h-13.06V67.11h29.83" fill="#181210" fill-opacity="1" fill-rule="nonzero" stroke="none"/><path id="path496" d="M1382.74 67.11h13.51l-4.66-16.778c-1.95-7.184-4.84-11.473-7.36-13.8-1.4-1.403-2.8-2.423-4.29-2.981v-.461l21.44-31.219H1386l-19.1 27.961h-13.98V1.872h-13.05v65.237h13.05V40.551h12.11c7.46 0 11.46 4.187 13.05 9.781l4.66 16.777" fill="#181210" fill-opacity="1" fill-rule="nonzero" stroke="none"/></g></g></svg>