<svg width="118" height="53" viewBox="0 0 118 53" fill="none" xmlns="http://www.w3.org/2000/svg"><path d="M93.43 11.325H57.941a4.293 4.293 0 00-4.29 4.296v20.921a4.293 4.293 0 004.29 4.296h35.49a4.294 4.294 0 004.29-4.296V15.621a4.293 4.293 0 00-4.29-4.296z" fill="url(#paint0_linear_674_1626)"/><path d="M71.09 25.719H49.026a4.293 4.293 0 00-4.29 4.296v11.492a4.293 4.293 0 004.29 4.296H71.09a4.293 4.293 0 004.29-4.296V30.015a4.293 4.293 0 00-4.29-4.296z" fill="#ABF8E7" fill-opacity=".76"/><path fill-rule="evenodd" clip-rule="evenodd" d="M16.324 15.454v19.805h68.36V15.454h-68.36zm-1.003-.39c0-.34.275-.614.613-.614h69.14c.337 0 .613.273.613.613V35.65c0 .34-.276.613-.613.613h-69.14a.613.613 0 01-.613-.613V15.063z" fill="url(#paint1_linear_674_1626)"/><path d="M28.015 21.902c-.312 0-.549-.08-.71-.242-.151-.162-.227-.432-.227-.81v-.905c-.344-.087-.78-.13-1.308-.13a3.33 3.33 0 00-1.907.567c-.55.377-.985.943-1.308 1.698-.324.755-.485 1.678-.485 2.767 0 1.769.296 3.01.889 3.721.603.712 1.486 1.068 2.65 1.068.775 0 1.421-.108 1.938-.324v-3.494h-1.81a.386.386 0 01-.306-.13.498.498 0 01-.098-.307c0-.119.038-.221.114-.308a.432.432 0 01.339-.145h2.747c.28 0 .468.054.565.162.097.097.146.259.146.485v3.349c0 .302-.044.518-.13.647-.075.119-.204.216-.388.291a8.59 8.59 0 01-1.648.47c-.538.086-1.13.129-1.777.129-1.734 0-3.01-.485-3.829-1.456-.819-.982-1.228-2.378-1.228-4.19 0-1.295.237-2.379.711-3.252.474-.874 1.11-1.521 1.907-1.942.807-.42 1.712-.63 2.714-.63.872 0 1.696.118 2.472.355.258.086.43.183.517.291.097.097.145.265.145.502v.954c0 .28-.059.486-.177.615-.108.13-.28.194-.518.194zm5.408 7.459c0 .453-.075.75-.226.89-.151.14-.42.21-.808.21-.248 0-.42-.06-.517-.178-.086-.13-.13-.324-.13-.582V23.1c0-.26.044-.448.13-.567.097-.13.27-.194.517-.194.355 0 .614.092.775.275.173.173.259.442.259.81v5.937zm-1.874-9.076a.97.97 0 01.29-.712.967.967 0 01.712-.292c.269 0 .5.098.694.292a.944.944 0 01.307.712c0 .27-.102.506-.307.711a.948.948 0 01-.694.292.967.967 0 01-.711-.292 1.005 1.005 0 01-.291-.711zm7.907 2.054a3.88 3.88 0 011.47.275v-3.122c0-.475.081-.815.243-1.02.161-.205.425-.307.791-.307.248 0 .415.065.501.194.097.119.146.308.146.566v10.776c0 .258-.043.453-.13.582-.086.119-.253.178-.5.178-.657 0-.986-.56-.986-1.683l-.048-.016c-.313.518-.668.933-1.067 1.246-.398.302-.9.453-1.502.453a2.551 2.551 0 01-1.971-.874c-.528-.593-.792-1.537-.792-2.83 0-1.511.334-2.622 1.002-3.334.667-.722 1.615-1.084 2.843-1.084zm-2.1 4.288c0 .97.15 1.672.452 2.103.313.431.717.647 1.212.647.29 0 .587-.102.888-.307.302-.216.55-.48.744-.793.194-.324.29-.642.29-.955v-3.381c0-.237-.134-.453-.403-.647-.27-.205-.63-.308-1.083-.308-.69 0-1.212.27-1.567.81-.356.528-.533 1.472-.533 2.83zm13.58 1.796a.523.523 0 01.403-.178c.097 0 .183.032.259.097a.307.307 0 01.113.242.86.86 0 01-.21.55c-.711.885-1.702 1.327-2.973 1.327-1.26 0-2.214-.34-2.86-1.02-.635-.69-.953-1.639-.953-2.847 0-1.38.323-2.432.97-3.155.645-.733 1.583-1.1 2.81-1.1.98 0 1.767.28 2.36.841.592.561.888 1.365.888 2.411 0 .529-.307.793-.92.793h-4.347c-.01.086-.016.205-.016.356 0 .928.183 1.66.55 2.2.365.54.93.81 1.696.81.517 0 .926-.109 1.227-.324a3.71 3.71 0 00.695-.615l.307-.389zm-2.537-5.437c-.517 0-.943.221-1.277.664-.334.442-.533 1.127-.598 2.054h3.022c.194 0 .334-.032.42-.097.086-.075.129-.2.129-.372 0-.722-.172-1.278-.517-1.666-.334-.389-.727-.583-1.18-.583zm14.708 1.748c0 .809-.123 1.64-.371 2.491-.237.852-.722 1.607-1.454 2.265-.733.648-1.772.971-3.118.971-1.347 0-2.386-.323-3.119-.97-.721-.659-1.2-1.414-1.438-2.266a9.28 9.28 0 01-.355-2.491c0-.81.118-1.64.355-2.492.237-.852.717-1.607 1.438-2.265.733-.658 1.772-.987 3.118-.987 1.347 0 2.386.33 3.119.987.732.658 1.217 1.418 1.454 2.281.248.852.371 1.678.371 2.476zm-1.825 0c0-1.252-.21-2.384-.63-3.398-.42-1.014-1.25-1.52-2.489-1.52-1.217 0-2.035.506-2.455 1.52-.42 1.014-.63 2.147-.63 3.398 0 1.24.21 2.367.63 3.381.42 1.014 1.238 1.52 2.456 1.52 1.238 0 2.067-.5 2.488-1.504.42-1.014.63-2.146.63-3.397zm3.972-1.7c0-.258.054-.436.161-.533.108-.108.285-.162.533-.162a.79.79 0 01.695.356c.172.227.258.572.258 1.036v.113h.033c.28-.453.662-.815 1.147-1.084.485-.28 1.045-.42 1.68-.42 1.519 0 2.278.814 2.278 2.442v4.919c0 .258-.048.453-.145.582-.086.119-.253.178-.5.178-.367 0-.631-.102-.793-.307-.161-.205-.242-.545-.242-1.02V25.09c0-.594-.13-1.02-.388-1.279-.248-.258-.576-.388-.985-.388-.302 0-.614.087-.937.26a2.238 2.238 0 00-.808.679c-.205.28-.307.587-.307.922v4.028c0 .464-.081.771-.242.922-.151.152-.415.227-.792.227-.248 0-.42-.06-.517-.178-.087-.13-.13-.324-.13-.582v-6.666zm15.107 5.389a.522.522 0 01.404-.178c.097 0 .183.032.259.097a.307.307 0 01.113.242.86.86 0 01-.21.55c-.711.885-1.702 1.327-2.973 1.327-1.26 0-2.214-.34-2.86-1.02-.636-.69-.953-1.639-.953-2.847 0-1.38.323-2.432.97-3.155.645-.733 1.583-1.1 2.81-1.1.98 0 1.767.28 2.36.841.592.561.888 1.365.888 2.411 0 .529-.307.793-.92.793h-4.347a3.08 3.08 0 00-.016.356c0 .928.183 1.66.55 2.2.365.54.93.81 1.696.81.517 0 .926-.109 1.227-.324a3.71 3.71 0 00.695-.615l.307-.389zm-2.536-5.437c-.517 0-.943.221-1.277.664-.334.442-.533 1.127-.598 2.054h3.022c.194 0 .333-.032.42-.097.086-.075.129-.2.129-.372 0-.722-.172-1.278-.517-1.666-.334-.389-.727-.583-1.18-.583z" fill="#000"/><path d="M58.137 25.328c-2.034 0-2.321 3.143-2.361 4.104a.266.266 0 00.27.276h4.39a.266.266 0 00.27-.29c-.093-.978-.545-4.09-2.57-4.09zm.056-.502c1.03 0 1.866-.824 1.866-1.84 0-1.017-.836-1.842-1.866-1.842-1.031 0-1.867.825-1.867 1.841 0 1.017.836 1.841 1.867 1.841z" fill="#000"/><defs><linearGradient id="paint0_linear_674_1626" x1="75.686" y1="11.325" x2="75.686" y2="40.838" gradientUnits="userSpaceOnUse"><stop stop-color="#50E6DC"/><stop offset="1" stop-color="#37DBAA"/></linearGradient><linearGradient id="paint1_linear_674_1626" x1="44.61" y1="21.551" x2="59.018" y2="21.306" gradientUnits="userSpaceOnUse"><stop stop-color="#86EFE8"/><stop offset="1" stop-color="#fff"/></linearGradient></defs></svg>