<svg width="15" height="15" viewBox="0 0 15 15" fill="none" xmlns="http://www.w3.org/2000/svg"><path fill-rule="evenodd" clip-rule="evenodd" d="M.916.04a1.21 1.21 0 00-.9.983c-.044.257.007 1.311.095 1.96.361 2.672 1.39 5.006 3.138 7.114.313.378 1.276 1.341 1.653 1.654 2.108 1.747 4.442 2.777 7.113 3.138.655.089 1.704.14 1.964.095.497-.086.886-.454.988-.938.022-.103.033-.65.033-1.628 0-1.57-.006-1.65-.149-1.928a1.318 1.318 0 00-.422-.452c-.223-.131-.366-.163-.85-.19-.912-.053-1.495-.146-2.228-.357-.373-.108-.433-.117-.677-.106-.236.01-.29.023-.461.113-.107.056-.59.401-1.073.768-.484.367-.89.667-.9.667-.04 0-.607-.33-.949-.553-1.268-.822-2.233-1.857-3.02-3.239-.178-.312-.209-.385-.182-.43.018-.028.326-.44.685-.912.358-.474.682-.914.719-.979.036-.065.088-.202.114-.305.06-.235.043-.39-.103-.91a8.889 8.889 0 01-.338-2.14c-.02-.453-.065-.673-.18-.868a1.26 1.26 0 00-.801-.569C3.953-.016 1.103-.006.915.04z" fill="#0E636D"/></svg>