<svg width="15" height="16" viewBox="0 0 15 16" fill="none" xmlns="http://www.w3.org/2000/svg"><path fill-rule="evenodd" clip-rule="evenodd" d="M3.638.538C1.838.786.424 2.14.055 3.972c-.079.39-.072 1.157.014 1.558.073.34.21.748.422 1.257a15.284 15.284 0 005.64 6.836c1.297.861 2.86 1.597 3.838 1.808.399.086 1.165.093 1.558.014 1.233-.249 2.25-.955 2.876-2a4.11 4.11 0 00.557-1.598c.087-.638.04-.847-.223-.984-.105-.054-3.502-.78-3.653-.78-.067 0-.16.02-.206.043-.046.025-.373.336-.728.692l-.644.646-.327-.173a12.441 12.441 0 01-2.033-1.378 15.753 15.753 0 01-1.49-1.47 13.356 13.356 0 01-1.443-2.11l-.18-.336.657-.66c.362-.364.673-.693.692-.73a.514.514 0 00.035-.191c0-.1-.644-3.187-.74-3.545a.547.547 0 00-.282-.336c-.114-.048-.397-.047-.757.003zm.22.946c0 .011.133.64.295 1.398l.296 1.377-.688.692c-.38.38-.704.72-.721.756-.078.154-.041.312.17.734a12.79 12.79 0 002.464 3.384 12.673 12.673 0 003.308 2.422c.394.203.498.245.61.245a.563.563 0 00.2-.032c.035-.018.375-.343.756-.721l.691-.689 1.391.299c.765.164 1.396.303 1.403.31a.972.972 0 01-.026.224c-.284 1.598-1.781 2.777-3.403 2.681-.52-.03-1.015-.184-1.936-.598a14.047 14.047 0 01-4.273-2.974A13.74 13.74 0 011.97 7.721c-.39-.715-.839-1.781-.959-2.272a3.365 3.365 0 01.064-1.707c.324-.99 1.093-1.785 2.05-2.12.34-.118.732-.193.732-.138z" fill="#fff"/></svg>