<svg width="512" height="512" viewBox="0 0 512 512" fill="none" xmlns="http://www.w3.org/2000/svg">
<g clip-path="url(#clip0_10116_8842)">
<path d="M512 256C512 114.615 397.385 0 256 0C114.615 0 0 114.615 0 256C0 397.385 114.615 512 256 512C397.385 512 512 397.385 512 256Z" fill="#383838"/>
<path d="M254.365 280C183.415 280 173.409 368.98 172.008 396.19C171.785 400.524 176.087 404 181.424 404H334.575C340.106 404 344.478 400.26 343.958 395.783C340.743 368.105 324.966 280 254.365 280Z" fill="white"/>
<path d="M320 210C320 239.823 290.451 264 254 264C217.549 264 188 239.823 188 210C188 180.177 217.549 156 254 156C290.451 156 320 180.177 320 210Z" fill="white"/>
<path d="M428 258.234C428 281.647 423.676 305.685 415.028 330.347C406.76 355.009 389.84 376.861 364.275 395.904C338.71 414.636 302.43 424 255.436 424C208.442 424 172.162 414.636 146.597 395.904C121.408 376.861 104.678 355.009 96.4064 330.347C88.1356 305.685 84 281.647 84 258.234C84 234.821 88.1356 210.783 96.4064 186.121C104.678 161.459 121.408 139.607 146.597 120.564C172.162 101.522 208.442 92 255.436 92C302.43 92 338.71 101.522 364.275 120.564C389.84 139.607 406.76 161.616 415.028 186.59C423.676 211.252 428 235.133 428 258.234ZM364.275 258.234C364.275 222.022 356.944 189.243 342.282 159.898C327.62 130.554 298.671 115.882 255.436 115.882C212.953 115.882 184.38 130.554 169.718 159.898C155.056 189.243 147.724 222.022 147.724 258.234C147.724 294.134 155.056 326.757 169.718 356.102C184.38 385.446 212.953 400.12 255.436 400.12C298.671 400.12 327.62 385.602 342.282 356.57C356.944 327.225 364.275 294.447 364.275 258.234Z" fill="white"/>
</g>
<defs>
<clipPath id="clip0_10116_8842">
<rect width="512" height="512" fill="white"/>
</clipPath>
</defs>
</svg>
