<svg width="40" height="40" viewBox="0 0 40 40" fill="none" xmlns="http://www.w3.org/2000/svg">
<path d="M19.5833 28.3333C17.1566 28.3333 12.9167 20 11.25 15C13.3333 16.9444 18.209 23.3333 19.5833 23.3333C22.9167 23.3333 32.0833 6.66667 38.75 3.75C32.9167 9.58333 23.75 28.3333 19.5833 28.3333Z" fill="#C5F6F9"/>
<path fill-rule="evenodd" clip-rule="evenodd" d="M31.8542 16.7482C32.1377 17.7841 32.2891 18.8745 32.2891 20.0003C32.2891 26.7875 26.787 32.2896 19.9998 32.2896C13.2127 32.2896 7.71056 26.7875 7.71056 20.0003C7.71056 13.2131 13.2127 7.71104 19.9998 7.71104C23.2593 7.71104 26.2224 8.97999 28.422 11.0508C28.6474 10.7847 28.8748 10.5205 29.1043 10.2593C26.7212 8.03099 23.5198 6.66699 19.9998 6.66699C12.636 6.66699 6.6665 12.6365 6.6665 20.0003C6.6665 27.3641 12.636 33.3337 19.9998 33.3337C27.3636 33.3337 33.3332 27.3641 33.3332 20.0003C33.3332 18.4088 33.0543 16.8824 32.5428 15.4673C32.3109 15.8979 32.0814 16.3251 31.8542 16.7482Z" fill="#C5F6F9"/>
</svg>
