<svg width="210" height="353" viewBox="0 0 210 353" fill="none" xmlns="http://www.w3.org/2000/svg">
<path d="M180.501 4C170.501 25 152.501 14.5 152.501 14.5C170.501 22.5 166.001 29 161.501 45C168.641 26.2117 177.501 24.0227 186.001 27.5C175.001 23 174.311 17 180.501 4Z" fill="#ACBAFD"/>
<path d="M195.501 53C199.001 63.5 198.501 64.5 190.001 68C199.501 65.5 200.001 66.7095 204.001 77.5C202.001 66.2095 202.001 66 209.001 61.5C203.501 64 199.334 64.5 195.501 53Z" fill="#ACBAFD"/>
<path d="M107.597 1C152.597 69 176.097 273.2 82.0971 258C-35.4029 239 67.2948 82.7709 98.5971 188C122.097 267 56.5002 319.5 2.00024 345M2.00024 345C0.50027 345.702 17.0002 331.5 23.0002 313.5M2.00024 345C2.00024 345 28.9002 344.8 38.5002 352M152.501 14.5C152.501 14.5 170.501 25 180.501 4C174.311 17 175.001 23 186.001 27.5C177.501 24.0227 168.641 26.2117 161.501 45C166.001 29 170.501 22.5 152.501 14.5ZM195.501 53C199.001 63.5 198.501 64.5 190.001 68C199.501 65.5 200.001 66.7095 204.001 77.5C202.001 66.2095 202.001 66 209.001 61.5C203.501 64 199.334 64.5 195.501 53Z" stroke="#ACBAFD" stroke-width="2" stroke-linecap="round" stroke-linejoin="round"/>
</svg>
