<svg width="48" height="44" viewBox="0 0 48 44" fill="none" xmlns="http://www.w3.org/2000/svg">
<path id="logo" fill-rule="evenodd" clip-rule="evenodd" d="M36.6852 42.8808C43.154 38.8303 47.439 31.7586 47.439 23.7122C47.439 11.1357 36.9708 0.94043 24.0576 0.94043C11.1445 0.94043 0.67627 11.1357 0.67627 23.7122C0.67627 31.8563 5.06592 39.0018 11.6666 43.0269C11.5544 42.4784 11.54 41.895 11.6408 41.291C12.6275 35.3832 15.4832 27.0577 23.7424 27.0577C31.862 27.0577 35.2371 35.1041 36.6198 40.9894C36.7737 41.6444 36.7881 42.2813 36.6852 42.8808ZM31.7841 17.772C31.7841 22.1464 28.143 25.6926 23.6514 25.6926C19.1599 25.6926 15.5188 22.1464 15.5188 17.772C15.5188 13.3975 19.1599 9.85132 23.6514 9.85132C28.143 9.85132 31.7841 13.3975 31.7841 17.772Z" fill="#E6E6E6"/>
</svg>
