<svg width="30" height="18" viewBox="0 0 30 18" fill="none" xmlns="http://www.w3.org/2000/svg">
<g id="Group">
<path id="Union" d="M29.8409 16.256C29.8046 16.1736 29.7707 16.1054 29.7393 16.0506C29.2188 15.0648 28.2241 13.8548 26.7559 12.4202L26.7249 12.3873L26.7093 12.3712L26.6936 12.3547H26.6779C26.0115 11.6867 25.5895 11.2375 25.4128 11.0076C25.0895 10.5695 25.0171 10.1261 25.1938 9.67683C25.3186 9.33738 25.7876 8.62052 26.5996 7.52526C27.0267 6.94481 27.3649 6.47959 27.6147 6.1291C29.4164 3.6103 30.1974 2.00075 29.9578 1.29983L29.8648 1.13603C29.8022 1.03742 29.6408 0.947204 29.3808 0.864932C29.1202 0.782832 28.787 0.769255 28.3808 0.823969L23.8825 0.856647C23.8096 0.829492 23.7055 0.832023 23.57 0.864932L23.3668 0.914353L23.2885 0.955489L23.2264 1.00491C23.1743 1.03759 23.117 1.09507 23.0545 1.17722C22.9923 1.25909 22.9403 1.35517 22.8987 1.46466C22.4089 2.7897 21.8521 4.02166 21.2272 5.16047C20.8419 5.83954 20.488 6.42804 20.1648 6.92634C19.8421 7.42446 19.5714 7.79147 19.3529 8.02672C19.134 8.2622 18.9365 8.45085 18.7592 8.59336C18.5821 8.73593 18.4469 8.79617 18.3533 8.77413C18.2595 8.7521 18.1711 8.73023 18.0875 8.70837C17.9418 8.60976 17.8246 8.47565 17.7362 8.30593C17.6475 8.1362 17.5877 7.92258 17.5565 7.66524C17.5254 7.40772 17.507 7.18622 17.5018 6.99998C17.4969 6.81398 17.4992 6.55088 17.5097 6.21143C17.5206 5.87181 17.5254 5.64203 17.5254 5.52155C17.5254 5.10536 17.5331 4.65366 17.5486 4.16636C17.5644 3.67905 17.5771 3.29295 17.5878 3.0085C17.5984 2.72377 17.6033 2.42253 17.6033 2.10494C17.6033 1.78736 17.585 1.5383 17.5486 1.35753C17.5123 1.1766 17.4575 1.00034 17.385 0.83185C17.312 0.662128 17.2051 0.530837 17.0648 0.437633C16.9243 0.344545 16.7496 0.270672 16.5416 0.215785C15.9896 0.084437 15.2868 0.0133836 14.4327 0.00233722C12.496 -0.0195254 11.2515 0.111995 10.6996 0.396727C10.481 0.517029 10.2831 0.681401 10.1062 0.889326C9.91868 1.13033 9.89253 1.26185 10.0279 1.28349C10.6528 1.38193 11.0951 1.61741 11.3555 1.98971L11.4493 2.18699C11.5223 2.32932 11.5952 2.58132 11.6681 2.94263C11.7409 3.30394 11.7879 3.70362 11.8086 4.14145C11.8606 4.94098 11.8606 5.6254 11.8086 6.19475C11.7565 6.76433 11.7072 7.20773 11.6602 7.52532C11.6132 7.8429 11.543 8.10025 11.4493 8.2973C11.3555 8.49441 11.2931 8.61488 11.2618 8.65861C11.2305 8.70233 11.2045 8.72989 11.1838 8.74071C11.0492 8.79525 10.9062 8.82317 10.762 8.82304C10.6161 8.82304 10.4392 8.74629 10.231 8.5929C10.0228 8.43952 9.80675 8.22883 9.58282 7.9605C9.3589 7.69211 9.10637 7.31705 8.82511 6.83526C8.54407 6.35348 8.25247 5.78408 7.95048 5.12705L7.70063 4.65056C7.54444 4.34402 7.33107 3.89768 7.06032 3.31193C6.7894 2.72596 6.54994 2.15914 6.34177 1.6116C6.25856 1.38164 6.13355 1.20656 5.96696 1.08609L5.88879 1.03667C5.83681 0.992943 5.75338 0.946514 5.63893 0.897035C5.52338 0.847367 5.40285 0.811585 5.27966 0.790369L0.999856 0.823048C0.562514 0.823048 0.265775 0.92724 0.109527 1.13534L0.0469947 1.23378C0.0157561 1.28861 0 1.37617 0 1.4967C0 1.61718 0.0312386 1.76504 0.0937707 1.94011C0.718544 3.4843 1.39797 4.97355 2.13205 6.40808C2.86613 7.84261 3.50404 8.99817 4.04538 9.87371C4.58683 10.7499 5.13873 11.5768 5.70108 12.3541C6.26343 13.1316 6.63567 13.6299 6.81779 13.8488C7.00014 14.0682 7.14337 14.2321 7.24748 14.3416L7.63804 14.7358C7.88795 14.9986 8.25494 15.3135 8.73916 15.6802C9.2235 16.0472 9.7597 16.4086 10.348 16.7647C10.9365 17.1204 11.6211 17.4106 12.4021 17.635C13.1831 17.8597 13.9432 17.9498 14.6826 17.9063H16.4789C16.8432 17.8732 17.1192 17.7528 17.3068 17.5448L17.369 17.4625C17.4108 17.3971 17.4499 17.2956 17.486 17.159C17.5225 17.0221 17.5407 16.8713 17.5407 16.7073C17.53 16.2365 17.5641 15.8122 17.642 15.4344C17.7199 15.0568 17.8086 14.772 17.9078 14.5803C18.007 14.3887 18.119 14.227 18.2435 14.096C18.3684 13.9646 18.4573 13.885 18.5095 13.8576C18.5614 13.8301 18.6028 13.8114 18.634 13.8002C18.884 13.7126 19.1781 13.7974 19.5168 14.055C19.8553 14.3123 20.1728 14.6301 20.4697 15.0077C20.7665 15.3857 21.1231 15.8098 21.5396 16.2806C21.9563 16.7516 22.3206 17.1017 22.6329 17.332L22.9452 17.5291C23.1537 17.6606 23.4245 17.7811 23.7578 17.8906C24.0905 18 24.382 18.0274 24.6322 17.9727L28.6307 17.9071C29.0262 17.9071 29.334 17.8382 29.5523 17.7016C29.771 17.5647 29.9009 17.4139 29.9428 17.2499C29.9846 17.0857 29.9869 16.8994 29.9508 16.6911C29.9137 16.4833 29.8772 16.3381 29.8409 16.256Z" fill="white"/>
</g>
</svg>
