<svg width="128" height="128" viewBox="0 0 128 128" fill="none" xmlns="http://www.w3.org/2000/svg">
<rect width="128" height="128" rx="64" fill="#383838"/>
<path d="M63.5913 70C45.8538 70 43.3523 92.2451 43.0021 99.0475C42.9463 100.131 44.0218 101 45.356 101H83.6437C85.0264 101 86.1195 100.065 85.9895 98.9458C85.1858 92.0263 81.2414 70 63.5913 70Z" fill="white"/>
<path d="M80 52.5C80 59.9558 72.6127 66 63.5 66C54.3873 66 47 59.9558 47 52.5C47 45.0442 54.3873 39 63.5 39C72.6127 39 80 45.0442 80 52.5Z" fill="white"/>
<path d="M107 64.5585C107 70.4118 105.919 76.4213 103.757 82.5867C101.69 88.7522 97.4601 94.2153 91.0688 98.976C84.6776 103.659 75.6076 106 63.859 106C52.1104 106 43.0404 103.659 36.6492 98.976C30.3519 94.2153 26.1694 88.7522 24.1016 82.5867C22.0339 76.4213 21 70.4118 21 64.5585C21 58.7052 22.0339 52.6958 24.1016 46.5303C26.1694 40.3648 30.3519 34.9017 36.6492 30.1411C43.0404 25.3804 52.1104 23 63.859 23C75.6076 23 84.6776 25.3804 91.0688 30.1411C97.4601 34.9017 101.69 40.4039 103.757 46.6474C105.919 52.8129 107 58.7833 107 64.5585ZM91.0688 64.5585C91.0688 55.5054 89.2361 47.3108 85.5705 39.9746C81.9049 32.6385 74.6678 28.9704 63.859 28.9704C53.2382 28.9704 46.0951 32.6385 42.4295 39.9746C38.7639 47.3108 36.9311 55.5054 36.9311 64.5585C36.9311 73.5336 38.7639 81.6892 42.4295 89.0254C46.0951 96.3615 53.2382 100.03 63.859 100.03C74.6678 100.03 81.9049 96.4006 85.5705 89.1425C89.2361 81.8063 91.0688 73.6117 91.0688 64.5585Z" fill="white"/>
</svg>
