<svg width="540" height="540" viewBox="0 0 540 540" fill="none" xmlns="http://www.w3.org/2000/svg"><path d="M172.821 236.33c-12.84 8.211-16.908 20.876-18.097 24.833-2.443 8.123-.446 13.681-6.129 17.959-5.683 4.275-8.569 18.434-17.061 25.805-10.945 9.498-25.707 18.791-20.617 35.48 8.793 28.832 45.068 28.317 71.084 29.743 8.455.464 16.708-.855 25.13-.855 16.266 0 33.545 4.032 49.628 6.341 30.912 4.436 54.462 29.231 84.358 37.342 19.259 5.225 33.858-2.093 50.362-10.971 9.498-5.109 20.024-12.946 17.207-24.911-1.976-8.4-8.222-16.192-11.54-24.208-2.168-5.231-6.753-8.483-9.077-13.438-5.122-10.92 8.387-12.915 16.42-13.84 7.621-.877 13.748-.103 20.356-4.327 9.703-6.206 16.345-16.151 20.093-26.572 6.494-18.071 2.035-34.173-.735-52.241-2.26-14.74-5.172-27.898-13.902-40.463-15.04-21.642-35.513-29.509-59.702-37.947-10.898-3.802-24.725-4.484-34.728-9.864-11.366-6.112-13.489-12.693-11.595-24.811.588-3.755 5.545-22.406-.682-24.207-11.512-3.331-29.151 7.079-37.509 13.739-12.594 10.034-14.475 20.447-13.851 35.128.475 11.148-3.174 22.157-10.439 31.052-14.363 17.588-38.738 30.381-59.858 38.954-9.911 4.021-20.04 6.475-29.116 12.279zm-49.866-120.937c5.323-4.331 8.322-10.728 11.735-16.544 4.736-5.577 18.046-20.506 25.553-16.18 5.521 3.182 4.284 7.799 2.845 13.17l-.039.145c-1.496 5.584 1.581 5.637 6.868 6.228 4.467.499 16.792-6.53 21.276-6.228 6.182.417 19.454-5.729 30.891-5.729 11.758-2.672 30.356 11.957 19.347 31.532-3.072 12.805-43.895 22.503-55.048 30.784-8.496 6.309-13.681 20.95-25.143 25.585-6.242 3.931-24.687 16.036-31.894 17.782-8.75 2.12-17.298 0-16.93-10.659.446-12.933 2.768-19.366 4.536-26.258.973-3.795 6.441-12.65 1.812-15.745-1.911-1.278-4.703-1.191-6.348-2.782-2.06-1.993-.708-6.752-.368-9.176.57-4.073 2.542-8.334 5.372-11.305 1.663-1.747 3.673-3.104 5.535-4.62z" fill="#fff"/><path d="M214.393 58.62v8.376m-15.637-11.169c2.997 2.998 4.557 6.759 6.143 10.61m-17.87-7.259c3.049 1.68 5.529 3.528 7.818 6.143" stroke="#fff" stroke-width="5" stroke-linecap="round"/><path fill-rule="evenodd" clip-rule="evenodd" d="M239.432 245.456c0 .002 0 .002-.002.002.011-.01.013-.01.002-.002zm-5.723 3.466c-5.571 1.453-11.101 3.469-16.505 5.601a2.136 2.136 0 01-2.773-1.204 2.136 2.136 0 011.203-2.773c7.029-2.775 14.509-5.449 22.109-6.93.624-.122 1.687-.261 2.645-.184.438.036 1.158.132 1.806.532.359.222.772.586 1.037 1.15a2.67 2.67 0 01.182 1.691c-.159.74-.576 1.274-.879 1.595a5.875 5.875 0 01-.973.806c-.421.284-1.135.68-1.306.776-.021.013-.036.019-.038.021-.749.453-1.49.898-2.224 1.334-3.311 1.98-6.445 3.853-9.376 6.189a96.469 96.469 0 00-4.541 3.878c.287-.135.573-.271.862-.41 1.999-.952 4.062-1.935 6.133-2.777.227-.092 2.001-.655 3.575-1.089.801-.22 1.661-.438 2.323-.555.287-.052.727-.12 1.14-.097h.01c.135.007.759.041 1.33.481.385.3.748.791.836 1.454a2.235 2.235 0 01-.231 1.308c-.594 1.155-1.518 2.081-2.336 2.784a33.955 33.955 0 01-1.852 1.445c-.177.132-.342.254-.485.363a59.688 59.688 0 01-2.965 2.093c2.069-.75 4.151-1.49 6.246-2.191a54.3 54.3 0 012.382-.71c.511-.139 1.118-.288 1.59-.35.126-.017.289-.034.464-.037.122-.002.488-.004.896.148.22.079.609.261.941.665.382.459.538 1.032.491 1.575a2.244 2.244 0 01-.662 1.407c-1.523 1.556-3.556 2.766-5.214 3.756-.439.259-.849.504-1.219.737-3.339 2.095-6.721 4.086-10.099 6.053 2.566-1.072 5.266-2.104 8.113-2.72.37-.081.797-.16 1.208-.196.314-.028.994-.075 1.65.186.385.151.93.478 1.272 1.133.344.662.3 1.314.186 1.75-.192.742-.692 1.334-1.041 1.708-.066.073-.137.178-.278.475l-.062.137a8.892 8.892 0 01-.626 1.186c-1.319 2.018-3.35 3.65-4.936 4.926-.252.201-.492.395-.716.579-1.373 1.127-2.739 2.223-4.094 3.312-1.967 1.579-3.912 3.14-5.821 4.745 4.938-2.058 9.936-4.072 15.009-5.879-.028.011-.028.011.034-.017l.18-.077.066-.03c.169-.072.387-.168.631-.273a31.505 31.505 0 011.917-.759c.329-.115.684-.229 1.022-.312.276-.066.767-.173 1.281-.128a2.43 2.43 0 011.301.502c.644.509.9 1.253.862 1.924a2.63 2.63 0 01-.357 1.156 4.395 4.395 0 01-.449.623c-2.501 2.933-5.633 5.562-8.478 7.909.226-.089.459-.171.686-.231a2.793 2.793 0 011.075-.087c.259.032.701.132 1.129.472.197.158.359.34.483.537a9.61 9.61 0 013.296-.565c-.002 0 .037 0 .139-.004l.347-.017c.066-.004.139-.009.214-.011.222-.012.472-.025.711-.036.317-.015.655-.028.92-.03.119 0 .29 0 .453.013h.002c.058.006.254.021.481.088h.002c.083.025.428.124.772.404a2.145 2.145 0 01.637 2.458c-.393.983-1.06 1.813-1.595 2.422-.241.276-.492.543-.712.78l-.098.105c-.254.274-.458.496-.629.701-2.09 2.519-4.431 5.264-7.23 7.453-1.115.872-2.302 1.47-3.469 1.919a20.527 20.527 0 01-3.709 1.888c-.069.028-.124.045-.141.051l-.062.017c-.03.009-.056.015-.075.022l-.137.034c-.096.023-.22.053-.361.085-.282.065-.648.144-1.013.212-.342.066-.759.137-1.106.167h-.002a3.122 3.122 0 01-.829-.03h-.011c-.113-.021-.797-.145-1.31-.776a2.16 2.16 0 01-.481-1.531v-.002c-.295.107-.588.212-.881.312a2.526 2.526 0 01-.314.088l-.003.002c-.034.006-.258.056-.536.043h-.009a2.115 2.115 0 01-1.16-.409 2.128 2.128 0 01-.759-2.432c.158-.456.431-.731.491-.793l.005-.005c.1-.1.188-.171.23-.203.142-.107.272-.177.291-.188h.002c.126-.068.302-.15.424-.207.301-.137.761-.34 1.242-.552a651.81 651.81 0 011.654-.72l.734-.319c.446-.196.889-.395 1.329-.594-.59.147-1.182.286-1.774.419l-.336.209c-.904.556-1.913 1.108-2.918 1.48-.953.355-2.202.658-3.444.355a2.961 2.961 0 01-1.21-.599c-.359.058-.714.116-1.069.171a83.3 83.3 0 01-.528.083 44.29 44.29 0 01-2.214.219c-.211.014-.431.027-.62.032a3.58 3.58 0 01-.334-.007 2.275 2.275 0 01-.86-.205c-.093-.043-1.391-.641-1.247-2.157a2.158 2.158 0 01.961-1.597c.286-.188.579-.28.645-.299.003-.002.005-.002.008-.002.223-.071.511-.137.821-.203 1.68-.355 3.375-.627 5.01-.888.312-.049.62-.1.926-.149.519-.357 1.092-.716 1.59-1.031l.045-.027c.62-.39 1.082-.682 1.366-.894.729-.547 1.456-1.088 2.181-1.627 2.781-2.067 5.509-4.098 8.143-6.27l.434-.359c.863-.712 1.729-1.426 2.582-2.146-4.338 1.646-8.643 3.422-12.949 5.233-.128.053-2.062.816-3.922 1.515-.935.351-1.884.697-2.598.935-.344.115-.692.224-.97.293-.103.023-.362.087-.646.096h-.006c-.075.004-.617.03-1.171-.287a2.152 2.152 0 01-.878-2.796c.593-1.253 1.613-2.3 2.476-3.091a38.973 38.973 0 011.456-1.251c.368-.308.678-.568.949-.81 2.98-2.674 6.123-5.197 9.212-7.679a525.318 525.318 0 003.955-3.198c.28-.231.556-.453.827-.673 1.253-1.014 2.386-1.933 3.258-2.942-1.783.575-3.564 1.302-5.402 2.084-.404.172-.812.347-1.223.524-2.407 1.033-4.936 2.119-7.529 2.918-.169.052-.404.096-.517.118l-.009.002c-.177.034-.406.075-.663.115-.511.084-1.175.178-1.817.236-.573.053-1.364.1-2.009-.009-.18-.03-.43-.085-.695-.201a2.42 2.42 0 01-1.034-.821 2.286 2.286 0 01-.357-1.86c.122-.513.389-.87.554-1.064 1.376-1.606 3.28-2.863 5.053-3.887a85.416 85.416 0 012.67-1.456l.023-.012c.855-.454 1.627-.862 2.315-1.262l.327-.19c1.416-.821 2.824-1.64 4.227-2.463a50.452 50.452 0 00-1.49.586l-.216.088c-.601.243-1.261.506-1.937.746-1.321.466-2.899.906-4.489.859a2.223 2.223 0 01-1.112-.333 2.167 2.167 0 01-.998-1.501 2.264 2.264 0 01.32-1.552c.201-.329.479-.607.623-.752.365-.36.874-.796 1.353-1.189.96-.789 2.071-1.638 2.298-1.792 1.392-.955 2.828-1.864 4.226-2.744l.485-.308-.47.224c-.733.349-1.475.704-2.234 1.058-2.736 1.279-5.609 2.527-8.651 3.363a2.703 2.703 0 01-.695.101c-.267 0-.896-.045-1.471-.537a2.205 2.205 0 01-.765-1.772c.018-.411.144-.723.208-.866.222-.502.634-.96.82-1.167a29.553 29.553 0 011.516-1.518l.462-.436c3.151-2.991 6.391-6.067 9.882-8.848 2.487-1.982 5.131-3.669 7.756-5.261zm9.505 18.466h-.002.002zm-6.563 8.829s0 .002-.002.002c.004-.007.006-.009.002-.002zm6.428 15.244h-.011.011zm-29.176 6.721s.006 0 .021-.004c-.015.004-.023.006-.021.004zm3.172-30.104l.009-.013a.036.036 0 01-.009.013z" fill="#FF6754"/><path fill-rule="evenodd" clip-rule="evenodd" d="M232.589 241.465h-5.986c-5.549 0-10.047 4.498-10.047 10.048v53.871c0 5.548 4.498 10.048 10.047 10.048h5.986c5.55 0 10.048-4.5 10.048-10.048v-53.871c0-5.55-4.498-10.048-10.048-10.048zm-5.986-3.206c-7.319 0-13.254 5.932-13.254 13.254v53.871c0 7.32 5.935 13.255 13.254 13.255h5.986c7.32 0 13.254-5.935 13.254-13.255v-53.871c0-7.322-5.934-13.254-13.254-13.254h-5.986z" fill="#000"/><path d="M249.905 273.745c0-7.321 5.934-13.254 13.254-13.254h5.772c7.32 0 13.254 5.933 13.254 13.254v31.426c0 7.319-5.934 13.254-13.254 13.254h-5.772c-7.32 0-13.254-5.935-13.254-13.254v-31.426z" fill="#fff"/><path fill-rule="evenodd" clip-rule="evenodd" d="M268.931 263.698h-5.772c-5.55 0-10.048 4.498-10.048 10.047v31.426c0 5.547 4.498 10.047 10.048 10.047h5.772c5.55 0 10.047-4.5 10.047-10.047v-31.426c0-5.549-4.497-10.047-10.047-10.047zm-5.772-3.207c-7.32 0-13.254 5.933-13.254 13.254v31.426c0 7.319 5.934 13.254 13.254 13.254h5.772c7.32 0 13.254-5.935 13.254-13.254v-31.426c0-7.321-5.934-13.254-13.254-13.254h-5.772zm-36.556-19.026c-5.549 0-10.047 4.499-10.047 10.048v53.871c0 5.55 4.498 10.048 10.047 10.048h5.986c5.549 0 10.048-4.498 10.048-10.048v-53.871c0-5.549-4.499-10.048-10.048-10.048h-5.986zm-13.254 10.048c0-7.32 5.934-13.254 13.254-13.254h5.986c7.32 0 13.254 5.934 13.254 13.254v53.871c0 7.321-5.934 13.255-13.254 13.255h-5.986c-7.32 0-13.254-5.934-13.254-13.255v-53.871z" fill="#000"/><path d="M305.701 235.8h-5.986c-6.435 0-11.651 5.216-11.651 11.651v57.72c0 6.434 5.216 11.65 11.651 11.65h5.986c6.434 0 11.65-5.216 11.65-11.65v-57.72c0-6.435-5.216-11.651-11.65-11.651z" fill="#fff"/><path fill-rule="evenodd" clip-rule="evenodd" d="M299.715 237.403c-5.549 0-10.047 4.499-10.047 10.048v57.72c0 5.549 4.498 10.047 10.047 10.047h5.986c5.549 0 10.047-4.498 10.047-10.047v-57.72c0-5.549-4.498-10.048-10.047-10.048h-5.986zm-13.254 10.048c0-7.32 5.934-13.254 13.254-13.254h5.986c7.32 0 13.254 5.934 13.254 13.254v57.72c0 7.32-5.934 13.254-13.254 13.254h-5.986c-7.32 0-13.254-5.934-13.254-13.254v-57.72zm50.024-50.453c-5.549 0-10.048 4.499-10.048 10.048v98.123c0 5.55 4.499 10.048 10.048 10.048h5.772c5.549 0 10.047-4.498 10.047-10.048v-98.123c0-5.549-4.498-10.048-10.047-10.048h-5.772zm-13.255 10.048c0-7.32 5.935-13.254 13.255-13.254h5.772c7.32 0 13.254 5.934 13.254 13.254v98.123c0 7.32-5.934 13.255-13.254 13.255h-5.772c-7.32 0-13.255-5.935-13.255-13.255v-98.123z" fill="#000"/><g filter="url(#filter0_i_672_1220)"><path fill-rule="evenodd" clip-rule="evenodd" d="M332.57 337.672c-53.079-.965-106.714-1.939-158.466.952a1.603 1.603 0 11-.179-3.202c51.866-2.897 105.716-1.919 158.868-.954 26.308.477 52.445.952 78.086.952a1.603 1.603 0 110 3.207c-25.767 0-51.97-.477-78.309-.955z" fill="#000"/></g><path d="M181.688 93.556a3.18 3.18 0 012.322-3.597c11.79-3.129 19.534-4.651 31.545-5.992a3.179 3.179 0 013.464 2.523 450.288 450.288 0 012.757 14.555 3.18 3.18 0 01-2.285 3.612c-11.655 3.205-19.191 4.525-31.574 5.952a3.18 3.18 0 01-3.475-2.494 309.407 309.407 0 01-2.754-14.559z" fill="#32A89D"/><path fill-rule="evenodd" clip-rule="evenodd" d="M190.204 106.906l-.003-.006.003.006zm-.542-2.03a95.755 95.755 0 01-.244-1.055 251.441 251.441 0 01-1.607-7.834 251.535 251.535 0 01-1.407-7.986 90.113 90.113 0 01-.242-1.646 96.24 96.24 0 013.688-.937c3.666-.87 8.562-1.904 13.514-2.883 4.95-.979 9.922-1.894 13.735-2.526a130.42 130.42 0 014.519-.684c.047.213.094.449.143.706.03.15.062.316.094.49.105.56.227 1.212.353 1.707.077.306.222.835.485 1.337.126.242.407.723.922 1.148.603.496 1.586.94 2.768.715l.126-.024.069-.013c.192.75.391 1.654.57 2.594a41.17 41.17 0 01.479 3.057 4.851 4.851 0 01-.072.013l-.101.02a3.371 3.371 0 00-2.268 1.59 3.678 3.678 0 00-.479 1.404c-.077.57-.023 1.114.011 1.416.058.503.175 1.146.273 1.68l.077.421c.028.16.054.311.077.452-1.107.276-2.618.62-4.425 1.009-3.788.817-8.76 1.811-13.732 2.761a662.84 662.84 0 01-13.66 2.481c-1.435.242-2.676.441-3.666.587zm38.151-19.645zm-1.676-1.287zm-41.642 2.946l.008-.004-.008.004zm-1.707-2.653c-.398 1.345 3.871 23.563 4.563 24.084.693.52 39.682-6.868 40.783-7.858.62-.558.278-2.421-.004-3.968-.22-1.199-.404-2.208-.079-2.27l.085-.016c.765-.144 2.121-.398 2.672-1.255.573-.89-1.255-10.38-2.037-10.753-.742-.353-2.076-.097-2.858.053l-.126.024c-.327.061-.524-.989-.761-2.25-.312-1.66-.693-3.685-1.527-4.026-1.468-.602-40.313 6.889-40.711 8.235z" fill="#000"/><path d="M501.276 229.177a3.18 3.18 0 00-3.724-2.129c-11.471 2.576-18.82 4.695-29.734 8.761a3.178 3.178 0 00-1.952 3.828 363.873 363.873 0 003.562 12.068 3.179 3.179 0 003.703 2.161c11.385-2.458 18.472-4.647 29.742-8.805a3.18 3.18 0 001.974-3.805 252.326 252.326 0 00-3.571-12.079z" fill="#fff"/><path fill-rule="evenodd" clip-rule="evenodd" d="M499.137 241.116v-.008.008zm-.469-2.101c-.045-.184-.094-.376-.145-.577a228.881 228.881 0 00-1.886-6.764 223.798 223.798 0 00-2.103-6.805c-.128-.384-.248-.739-.359-1.06-.798.167-1.781.396-2.92.676-3.211.791-7.455 1.945-11.722 3.168-4.265 1.223-8.521 2.503-11.753 3.538a121.22 121.22 0 00-3.463 1.156l.072.261c.037.122.077.261.122.408.143.481.314 1.061.419 1.512.062.276.171.784.167 1.33-.002.265-.03.812-.291 1.419a3.359 3.359 0 01-1.945 1.83c.139.575.314 1.225.508 1.89.236.801.488 1.58.723 2.227a3.343 3.343 0 012.527.43c.564.351.898.789 1.052 1.013.318.456.508.941.605 1.197.162.43.333 1.001.472 1.458l.105.349c.004.013.008.028.013.04.93-.222 2.12-.53 3.51-.902 3.29-.883 7.578-2.099 11.85-3.354a600.087 600.087 0 0011.68-3.542c1.061-.338 1.993-.639 2.762-.898zm-29.328 9.992l-.002-.004a.006.006 0 01.002.004zm-4.72-4.506c0-.003 0-.003-.002-.005a.008.008 0 01.002.005zm-2.067-6.993zm33.413-14.011h-.013.013zm.25-3.149c.853.894 6.437 20.001 6.104 20.685-.332.686-33.82 10.567-35.079 10.236-.71-.188-1.191-1.783-1.591-3.109-.309-1.026-.57-1.891-.85-1.808-.024.006-.047.015-.073.021-.656.195-1.819.541-2.595.092-.808-.468-3.19-8.63-2.726-9.237.438-.573 1.586-.909 2.258-1.105l.109-.032c.28-.084.012-.984-.308-2.068-.424-1.423-.939-3.161-.424-3.764.909-1.061 34.324-10.802 35.175-9.911z" fill="#000"/><path fill-rule="evenodd" clip-rule="evenodd" d="M505.09 228.771c-.566.124-.833.579-.934.78-.25.496-.282 1.063-.252 1.556.032.511.145 1.072.299 1.64.308 1.14.821 2.439 1.381 3.696 1.125 2.519 2.497 4.998 3.008 5.894.314.558.571.988.78 1.343.141.237.263.442.37.63l-.389.039a55.63 55.63 0 00-1.834.201c-7.192.945-14.283 3.087-21.232 5.526-2.816.988-5.588 2.018-8.336 3.038-4.089 1.515-8.125 3.014-12.161 4.324a1.07 1.07 0 00.66 2.036c4.058-1.319 8.188-2.852 12.322-4.385 2.745-1.018 5.492-2.037 8.222-2.995 6.905-2.424 13.832-4.509 20.803-5.424.692-.091 1.193-.138 1.633-.181.282-.026.539-.052.804-.084.286-.034.59-.079.855-.162.25-.079.673-.257.926-.706.26-.463.177-.929.1-1.197a4.37 4.37 0 00-.365-.821c-.135-.25-.334-.583-.563-.972-.222-.377-.476-.806-.737-1.266-.498-.876-1.832-3.283-2.912-5.708a34.049 34.049 0 01-.596-1.413c.519.56.975 1.084 1.419 1.678a1.068 1.068 0 101.71-1.282c-.671-.896-1.353-1.64-2.135-2.454-.075-.08-.21-.287-.4-.674-.111-.222-.199-.419-.293-.624a23.073 23.073 0 00-.248-.532 6.974 6.974 0 00-.295-.571 2.614 2.614 0 00-.417-.556c-.154-.15-.583-.504-1.193-.374zm5.366 15.428l-.011.004a.07.07 0 00.011-.004zm-.393.742a.015.015 0 01.002.006l-.002-.006z" fill="#FF6754"/><path d="M482.917 69.789c-.739 2.25-1.394 4.068-3.072 8.722-.844 2.343-1.639 4.658-2.884 6.839-.786 1.376-2.441 3.79-2.978 5.278-.401 1.114 2.162.406 2.767.216 2.026-.64 1.665-.529 3.501-1.05 1.17-.33 2.038-.397 2.692-.555 0 0 .199.449-.165.962-1.783 2.524-3.089 4.818-4.846 7.358-.934 1.351-1.89 2.785-2.585 4.253l-.008.017c-.137.288-.481 1.014.237.705 1.054-.451 2.206-.959 2.206-.959 9.798-6.057 17.481-15.229 17.408-15.278-.981-.664-3.134-.736-4.258-1.033-.312-.083-1.364-.265-1.225-.652.675-1.87 2.456-3.624 3.589-5.279.603-.879 7.662-9.158 6.433-10.016-.135-.093-.379-.366-2.108-.501l-2.766-.216c-2.277-.164-3.284-.257-6.397-.5-1.902-.148-3.497-.433-4.797-.374-.421.019-.68 2.086-.744 2.063z" fill="#32A89D"/><g filter="url(#filter1_i_672_1220)"><path fill-rule="evenodd" clip-rule="evenodd" d="M482.428 66.749a1.602 1.602 0 011.753-1.438c.147.014.485.043.964.083 1.594.134 4.76.4 7.73.73 1.945.216 3.878.468 5.323.743.707.135 1.374.288 1.881.47.237.084.56.216.845.426.203.15.985.8.729 1.875-.045.181-.097.422-.159.697a39.803 39.803 0 01-.474 2.003c-.261.942-.672 2.197-1.407 3.02-.789.885-1.956 2.38-3.001 3.933-1.08 1.602-1.894 3.067-2.145 3.94-.183.644-.579 1.193-.94 1.608.432.012.836.01 1.129.01l.194-.001c.599 0 1.189.05 1.693.22.494.168 1.285.6 1.475 1.577.163.827-.241 1.484-.444 1.773a5.53 5.53 0 01-.875.931c-.609.534-1.394 1.077-2.073 1.528a68.03 68.03 0 01-.834.545c-.342.222-.624.405-.842.559-.404.286-.811.571-1.217.857-4.878 3.43-9.752 6.858-13.838 10.941a1.603 1.603 0 01-2.266-2.267c4.291-4.29 9.39-7.874 14.221-11.271l1.253-.88c.258-.183.637-.43 1.034-.687.24-.156.486-.316.716-.469l.257-.171a17.23 17.23 0 01-1.02-.069c-.509-.051-1.171-.147-1.708-.377-.246-.105-.727-.347-1.043-.866-.413-.68-.306-1.414-.009-1.935.342-.598.911-1.164 1.281-1.534l.16-.16c.216-.221.372-.392.486-.541.104-.14.128-.204.128-.204v.002c.402-1.411 1.488-3.248 2.567-4.85 1.112-1.653 2.367-3.266 3.269-4.278.179-.2.44-.766.705-1.735.129-.466.231-.908.325-1.335a20.94 20.94 0 00-.652-.135c-1.319-.25-3.151-.491-5.079-.706a280.762 280.762 0 00-7.501-.71c-.552-.045-.954-.08-1.155-.1a1.601 1.601 0 01-1.436-1.752zm12.527 19.817s0 .002-.002.002c.019-.033.025-.036.002-.002z" fill="#fff"/></g><path d="M473.535 452.095c-1.527 1.811-2.816 3.252-6.114 6.937-1.659 1.858-3.262 3.707-5.236 5.263-1.242.982-3.681 2.6-4.735 3.78-.791.883 1.852 1.186 2.482 1.235 2.119.165 1.742.133 3.641.338 1.208.131 2.037.394 2.704.492 0 0 .015.492-.513.832-2.6 1.671-4.669 3.311-7.249 5.008-1.373.902-2.794 1.873-3.989 2.974l-.015.013c-.235.216-.825.761-.043.744 1.146-.024 2.405-.064 2.405-.064 11.352-1.948 21.91-7.575 21.861-7.649-.661-.982-2.63-1.856-3.562-2.551-.258-.194-1.165-.756-.891-1.064 1.325-1.482 3.634-2.442 5.306-3.551.887-.588 10.533-5.622 9.712-6.879-.088-.135-.212-.481-1.766-1.253-1.672-.834-2.482-1.236-2.482-1.236-2.05-1.005-2.95-1.468-5.744-2.858-1.71-.851-3.083-1.712-4.31-2.144-.395-.141-1.411 1.68-1.462 1.633z" fill="#FF6754"/><path fill-rule="evenodd" clip-rule="evenodd" d="M250.722 48.085a1.604 1.604 0 011.947-1.161h.002l.084.017c.064.012.145.027.252.045.199.034.458.076.77.127l.051.008c.667.109 1.554.254 2.57.436 2.024.364 4.591.883 7.022 1.581 2.382.684 4.823 1.591 6.458 2.808.821.611 1.601 1.418 1.954 2.469.381 1.138.178 2.296-.481 3.351-1.201 1.922-3.01 3.466-4.805 4.76a63.974 63.974 0 01-2.73 1.835l-.475.304c-.72.463-1.4.9-2.031 1.33a19.174 19.174 0 01-.836.534l-.352.224c.607.237 1.316.513 1.988.795 1.101.462 2.308 1.018 3.29 1.65.491.316.979.684 1.376 1.11.39.418.789.993.918 1.72.346 1.99-.33 3.658-1.473 4.955-1.097 1.243-2.636 2.17-4.167 2.881-1.548.72-3.219 1.28-4.684 1.726-.609.186-1.165.348-1.663.494-.752.219-1.379.401-1.877.576-6.058 2.115-12.204 4.195-18.442 5.896a1.603 1.603 0 11-.845-3.093c6.123-1.67 12.183-3.719 18.229-5.83.566-.199 1.338-.424 2.17-.667.487-.143.994-.291 1.492-.443 1.419-.433 2.922-.94 4.269-1.566 1.364-.635 2.441-1.336 3.113-2.096.611-.692.859-1.39.726-2.229a1.068 1.068 0 00-.109-.135c-.151-.162-.401-.366-.769-.603-.738-.475-1.734-.944-2.794-1.389-.669-.28-1.285-.52-1.858-.742-.363-.142-.71-.276-1.041-.41a11.73 11.73 0 01-1.078-.483 2.795 2.795 0 01-.557-.384 1.837 1.837 0 01-.422-.567 1.667 1.667 0 01-.015-1.385c.428-.96 1.292-1.65 1.905-2.086.338-.24.68-.456.973-.639l.147-.093c.238-.147.422-.262.575-.367.674-.46 1.401-.927 2.123-1.391l.458-.294a60.78 60.78 0 002.593-1.741c1.687-1.216 3.091-2.467 3.959-3.856.233-.376.19-.542.16-.631-.06-.175-.263-.496-.829-.917-1.142-.85-3.102-1.63-5.428-2.299-2.277-.654-4.724-1.15-6.706-1.506a144.92 144.92 0 00-2.516-.428l-.154-.025a22.24 22.24 0 01-1.276-.228 1.605 1.605 0 01-1.161-1.948zm7.657 17.942l.009.005-.009-.005z" fill="#fff"/><path d="M245.221 54.098c-.911 2.186-1.706 3.947-3.741 8.456-1.024 2.27-1.995 4.517-3.406 6.594-.891 1.31-2.73 3.59-3.379 5.03-.488 1.08 2.122.574 2.74.431 2.07-.48 1.702-.397 3.572-.773 1.193-.24 2.063-.239 2.728-.345 0 0 .163.463-.239.946-1.976 2.378-3.455 4.564-5.405 6.96-1.036 1.273-2.099 2.628-2.909 4.038l-.009.017c-.158.276-.558.972.184.721 1.084-.367 2.273-.784 2.273-.784 10.24-5.277 18.613-13.823 18.543-13.878-.926-.739-3.068-.978-4.165-1.361-.305-.107-1.34-.37-1.171-.745.819-1.813 2.732-3.423 3.991-4.984.669-.83 8.35-8.534 7.189-9.485-.126-.104-.348-.395-2.06-.664l-2.741-.43c-2.258-.341-3.254-.512-6.339-.996-1.885-.297-3.452-.705-4.754-.747-.419-.014-.84 2.027-.902 2z" fill="#FF6754"/><path d="M103.544 439.454c1.071 1.728 1.994 3.102 4.359 6.625 1.19 1.773 2.326 3.538 3.898 5.024.992.939 3.011 2.484 3.766 3.611.567.842-2.124 1.133-2.761 1.18-2.138.158-1.757.128-3.687.323-1.229.126-2.114.376-2.798.472 0 0-.135.468.305.793 2.165 1.597 3.813 3.162 5.954 4.782 1.138.862 2.309 1.79 3.224 2.841l.01.013c.18.205.632.725-.139.71-1.128-.023-2.365-.06-2.365-.06-10.766-1.86-19.846-7.234-19.779-7.302.895-.941 3.06-1.775 4.15-2.44.305-.186 1.34-.722 1.144-1.015-.95-1.415-3.002-2.332-4.386-3.391-.735-.562-9.055-5.37-7.937-6.569.122-.13.33-.46 2.055-1.199l2.762-1.18c2.275-.96 3.28-1.403 6.386-2.73 1.901-.815 3.47-1.636 4.791-2.05.427-.133.987 1.605 1.048 1.562z" fill="#32A89D"/><path fill-rule="evenodd" clip-rule="evenodd" d="M89.337 438.631a1.068 1.068 0 01-.427 1.45c-.297.162-.927.447-1.712.799-.486.218-1.031.464-1.593.725-1.532.705-3.308 1.571-4.812 2.473-.753.449-1.416.898-1.94 1.326-.537.44-.856.806-1.002 1.075a.573.573 0 00-.079.214v.002c0 .004 0 .006.007.019.04.071.249.317 1 .594a799.974 799.974 0 0111.254 4.31c.168.066.338.133.508.197.864.335 1.74.675 2.49 1.011.85.378 1.748.838 2.266 1.411.277.306.58.793.504 1.419-.074.612-.473 1.035-.845 1.311-.722.534-1.972.966-3.718 1.372-.4.094-1.406.426-2.607.92-1.19.489-2.49 1.105-3.485 1.735-.5.319-.884.616-1.136.877a1.63 1.63 0 00-.224.276c.013.01.027.021.044.032.23.16.707.374 1.586.568 5.397 1.202 10.86 2.025 16.364 2.852l2.842.43c6.448.985 12.932 2.067 19.297 3.861a1.07 1.07 0 01-.58 2.058c-6.228-1.757-12.598-2.822-19.039-3.805-.94-.143-1.883-.286-2.826-.427-5.501-.828-11.047-1.664-16.523-2.882-.982-.218-1.779-.507-2.347-.904-.602-.422-1.047-1.052-.99-1.862.048-.704.466-1.277.859-1.683.416-.432.957-.834 1.527-1.195 1.147-.727 2.575-1.398 3.819-1.909 1.233-.507 2.366-.891 2.933-1.024 1.376-.321 2.196-.609 2.645-.838-.264-.173-.67-.389-1.237-.641a50.463 50.463 0 00-2.375-.962c-.174-.069-.35-.137-.527-.205-3.746-1.458-7.464-2.901-11.223-4.297-.913-.34-1.696-.815-2.11-1.535-.465-.81-.315-1.651.045-2.318.341-.63.91-1.203 1.529-1.71.633-.519 1.393-1.026 2.195-1.507 1.605-.962 3.465-1.866 5.014-2.58.679-.314 1.28-.584 1.777-.808.681-.306 1.17-.526 1.401-.652a1.07 1.07 0 011.45.427zm4.395 17.064s0-.002-.002-.002l.002.002zm.022-.505l.004-.004-.004.004zm-10.036 6.895l.003.004-.003-.004z" fill="#FF6754"/><path d="M445.885 188.833c-1.191 3.543-2.223 6.413-4.872 13.759-1.334 3.699-2.602 7.35-4.415 10.847a60.655 60.655 0 00-3.087 7.089c-.634 1.759 3.44-.391 3.731-.53 2.602-1.225 5.349-2.555 8.181-3.132.733-.15.426.201.15.543a23.212 23.212 0 00-1.685 2.362 1691.94 1691.94 0 00-7.542 12.299c-1.327 2.187-2.689 4.502-3.732 6.841l-.013.025c-.205.46-.721 1.614.211 1.056.734-.44 1.555-1.426 2.091-2.043 2.444-2.82 24.379-25.175 24.296-25.241-1.144-.902-3.818-.755-5.182-1.076-.381-.089-1.668-.243-1.449-.853 1.064-2.954 3.495-5.86 5.107-8.536.855-1.422 10.135-14.241 8.707-15.411-.156-.127-.902.012-1.09.026-1.531.119-3.049.137-4.586.148-2.818.021-5.716.071-8.495-.468-1.582-.306-3.526-1.209-5.15-.963-.528.08-1.099 3.285-1.176 3.258z" fill="#FF6754"/><path fill-rule="evenodd" clip-rule="evenodd" d="M456.234 189.383c-1.529.231-3.046.364-4.545.489l-.413.035c-2.661.223-5.511.463-8.307.138-.549-.064-1.197-.2-1.798-.326-.31-.066-.609-.128-.874-.177-.684-.126-1.274-.189-1.772-.148a9.918 9.918 0 00-.218.94c-.062.334-.116.663-.163.945-.008.051-.017.101-.023.149-.026.148-.05.292-.071.401-.011.048-.026.124-.049.198a1.082 1.082 0 01-.032.092c-.911 3.586-1.732 6.552-3.793 13.991l-.004.015c-.079.288-.158.577-.239.865-.96 3.484-1.931 6.998-3.386 10.419a58.47 58.47 0 00-2.2 6.142 18.91 18.91 0 001.663-.902l.165-.099c.117-.066.235-.132.354-.201 2.375-1.349 5.011-2.845 7.801-3.64.188-.054.509-.135.836-.079a1.153 1.153 0 01.977 1.265c-.03.316-.186.573-.235.656l-.004.007c-.062.1-.137.209-.189.284l-.023.032a21.931 21.931 0 00-1.432 2.367 1824.722 1824.722 0 00-6.587 12.828 103.626 103.626 0 00-1.661 3.397c2.178-2.704 6.657-8.089 10.92-13.198l2.64-3.166c1.682-2.018 3.245-3.889 4.513-5.413a667.31 667.31 0 002.138-2.58 13.21 13.21 0 00-.783-.056 33.8 33.8 0 00-.951-.023l-.486-.009c-.461-.011-.951-.03-1.374-.096a.38.38 0 01-.051-.007c-.165-.017-.672-.074-1.039-.179-.225-.064-.575-.186-.866-.451a1.435 1.435 0 01-.406-.626 1.425 1.425 0 01-.011-.82c.453-1.64 1.266-3.258 2.106-4.77.316-.571.63-1.118.936-1.649.532-.924 1.039-1.801 1.477-2.674.154-.306.582-1.045 1.142-2.013l.59-1.021a198.34 198.34 0 002.886-5.162c.983-1.837 1.877-3.625 2.43-5.005.184-.459.321-.849.411-1.165zm-28.193 35.237s0-.005.004-.018c-.002.011-.002.018-.004.018zm29.283-37.502c.107.017.321.061.535.21.429.301.573.75.617 1.064.045.315.015.641-.036.929-.103.583-.338 1.284-.633 2.023-.598 1.493-1.537 3.367-2.529 5.218a195.155 195.155 0 01-2.92 5.22l-.641 1.112c-.537.927-.909 1.57-1.033 1.816-.462.92-1.024 1.897-1.58 2.862-.299.519-.596 1.035-.874 1.537-.693 1.25-1.306 2.466-1.71 3.648.07.01.139.018.209.026l.013.002a9.064 9.064 0 001.311.099l.434.008c.333.005.694.011 1.043.025.513.022 1.062.064 1.58.164.508.097 1.058.264 1.528.581.216.192.438.619.47.814.003.113-.019.293-.036.359-.03.111-.073.192-.083.214a1.2 1.2 0 01-.069.115 8.05 8.05 0 01-.254.332c-.148.186-.366.453-.639.786-.55.669-1.343 1.623-2.298 2.775-1.27 1.524-2.833 3.399-4.517 5.415l-2.638 3.164c-5.33 6.392-10.901 13.092-11.989 14.558-.034.047-.073.098-.111.152-.223.299-.505.684-.808 1.05-.349.423-.783.897-1.251 1.229a2.294 2.294 0 01-.536.291c-.191.068-.55.153-.943-.011a1.21 1.21 0 01-.695-.795 1.594 1.594 0 01-.049-.563c.034-.434.229-.968.303-1.175l.015-.043c.89-2.48 2.1-4.945 3.258-7.228 2.177-4.29 4.385-8.572 6.593-12.842.126-.245.257-.487.394-.724-1.773.746-3.506 1.729-5.247 2.717-.091.053-.185.105-.28.158.003 0-.004.002-.019.011-.004.004-.01.006-.017.01l-.034.022-.019.01a29.957 29.957 0 01-.676.396c-.41.231-.947.517-1.471.744-.263.113-.54.218-.812.295-.254.07-.579.139-.909.115-.337-.023-.872-.166-1.177-.707-.27-.477-.191-.981-.103-1.3a61.449 61.449 0 012.589-7.435c1.398-3.283 2.33-6.664 3.3-10.173.077-.281.154-.562.233-.844 2.085-7.53 2.895-10.457 3.812-14.067l.051-.205c.011-.055.022-.121.035-.201.006-.044.015-.092.023-.141.045-.281.105-.642.173-1.005.079-.421.182-.892.31-1.28.062-.189.146-.408.261-.605.077-.132.338-.557.868-.678 1.026-.237 2.112-.102 3.038.067.4.074.757.15 1.088.22.519.111.979.209 1.445.263 2.576.299 5.231.077 7.948-.151l.347-.029c1.532-.128 3.012-.258 4.487-.486h-.002l.042-.009.077-.015.052-.011c.098-.021.231-.048.367-.071a3.44 3.44 0 01.471-.05 1.79 1.79 0 01.318.018z" fill="#000"/><path d="M67.79 227.533c2.413 5.163 4.479 9.336 9.767 20.014 2.663 5.374 5.213 10.689 8.616 15.681 2.147 3.151 4.265 6.802 5.955 10.214 1.267 2.557-5.564-.024-6.051-.184-4.34-1.424-8.932-2.98-13.55-3.388-1.195-.105-.653.376-.162.846a35.157 35.157 0 013.037 3.295 2718.052 2718.052 0 0113.832 17.363c2.437 3.089 4.949 6.368 6.954 9.733l.022.038c.394.661 1.386 2.324-.19 1.631-1.235-.543-2.69-1.898-3.637-2.747-4.317-3.863-42.638-34.059-42.512-34.174 1.702-1.554 6.007-1.772 8.147-2.484.595-.197 2.636-.644 2.197-1.529-2.126-4.294-6.431-8.29-9.395-12.072-1.574-2.011-18.265-19.872-16.142-21.878.231-.218 1.446-.132 1.748-.141 2.469-.072 4.904-.297 7.367-.534 4.516-.432 9.166-.836 13.54-2.11 2.49-.725 5.473-2.411 8.112-2.309.855.034 2.227 4.789 2.345 4.735z" fill="#FF6754"/><path fill-rule="evenodd" clip-rule="evenodd" d="M44.267 224.57l.053-.002c2.53-.075 5.016-.303 7.477-.541.218-.019.437-.04.656-.062 4.286-.408 8.856-.844 13.185-2.105.849-.248 1.823-.627 2.737-.982.478-.183.94-.363 1.359-.515 1.08-.389 2.032-.656 2.87-.731a14 14 0 01.591 1.343c.188.479.36.957.507 1.366l.079.216c.077.213.154.425.218.581.028.071.074.182.13.289.011.021.036.068.075.128 2.39 5.111 4.474 9.321 9.7 19.87l.01.024c.203.408.406.819.608 1.229 2.442 4.943 4.908 9.932 8.12 14.646a86.584 86.584 0 015.183 8.716c-1.225-.27-2.55-.736-3.163-.952-.126-.044-.222-.079-.28-.096-.203-.068-.407-.134-.612-.201-4.13-1.357-8.694-2.858-13.313-3.266-.316-.028-.814-.056-1.278.105-.263.089-.69.301-.962.778-.286.5-.237.996-.15 1.304.136.474.458.823.559.932l.007.008c.126.135.274.278.376.377l.044.04a33.316 33.316 0 012.894 3.138c4.626 5.77 9.248 11.551 13.825 17.353 1.353 1.716 2.711 3.467 3.985 5.246-3.864-3.215-12.902-10.433-21.471-17.256-1.705-1.358-3.394-2.7-5.023-3.998-3.2-2.546-6.17-4.91-8.583-6.836a1380.166 1380.166 0 01-4.101-3.286c.427-.129.896-.244 1.396-.351a56.16 56.16 0 011.51-.303c.252-.047.505-.097.762-.148.732-.145 1.492-.308 2.134-.522l.105-.029c.28-.082 1.02-.298 1.555-.546.326-.153.823-.419 1.189-.865a2.11 2.11 0 00.46-1.014 2.079 2.079 0 00-.202-1.244c-1.156-2.334-2.874-4.532-4.603-6.561a183.351 183.351 0 00-1.924-2.206c-1.087-1.233-2.118-2.403-3.045-3.585-.325-.417-1.2-1.404-2.343-2.696l-1.203-1.361c-1.75-1.986-3.903-4.453-5.938-6.916-2.044-2.473-3.93-4.9-5.169-6.805a17.083 17.083 0 01-.996-1.708zm54.242 44.829l-.007-.019.007.019zm-56.434-47.843a1.947 1.947 0 00-.72.421c-.565.533-.681 1.217-.67 1.713.013.487.148.968.306 1.389.318.849.878 1.837 1.542 2.86 1.344 2.07 3.33 4.612 5.39 7.104 2.069 2.506 4.25 5.005 6.007 6.997.476.541.916 1.039 1.313 1.486 1.093 1.238 1.85 2.093 2.11 2.424.978 1.249 2.129 2.555 3.265 3.844.61.695 1.217 1.383 1.79 2.054 1.44 1.689 2.737 3.346 3.69 5.009-.041.013-.085.026-.128.041-.115.036-.225.068-.335.1l-.02.004c-.102.03-.226.069-.33.103-.429.141-1.009.272-1.74.417l-.691.135c-.526.1-1.094.209-1.64.327-.806.175-1.657.389-2.437.677-.769.285-1.572.678-2.21 1.259-.27.323-.497.997-.496 1.296.028.175.113.445.157.543.08.162.171.274.195.304.065.081.125.138.144.158.05.049.105.098.145.132.087.077.206.178.345.295.284.235.699.573 1.222.996a907.49 907.49 0 004.377 3.509c2.415 1.928 5.388 4.294 8.59 6.843l5.02 3.995c10.137 8.074 20.737 16.542 22.849 18.432l.218.197c.43.386.981.882 1.558 1.346.665.537 1.477 1.125 2.303 1.486.268.12.58.231.908.28.309.047.852.071 1.374-.252.581-.357.781-.915.828-1.306a2.315 2.315 0 00-.071-.864 5.179 5.179 0 00-.434-1.05c-.138-.26-.284-.504-.375-.656l-.024-.041c-2.064-3.465-4.635-6.817-7.073-9.908a2711.087 2711.087 0 00-13.841-17.372c-.306-.382-.62-.754-.94-1.118 3.12.616 6.242 1.642 9.363 2.666l.493.163.033.01c.024.009.054.02.092.032.076.028.176.065.295.105.238.084.552.193.912.31.712.231 1.635.509 2.522.699.443.096.907.175 1.349.212.418.036.93.043 1.418-.077.488-.118 1.24-.449 1.564-1.298.297-.774.044-1.513-.187-1.979-1.72-3.474-3.876-7.192-6.068-10.407-3.08-4.517-5.449-9.312-7.91-14.293l-.592-1.195c-5.292-10.685-7.349-14.838-9.751-19.982l-.136-.291-.106-.288-.074-.205c-.147-.407-.335-.93-.54-1.456-.239-.607-.526-1.287-.831-1.834a4.706 4.706 0 00-.58-.841c-.171-.192-.69-.735-1.517-.767-1.659-.064-3.317.43-4.734.938-.602.219-1.144.43-1.652.627-.803.314-1.519.594-2.251.808-4.025 1.171-8.313 1.582-12.678 1.999l-.56.053c-2.466.237-4.852.456-7.26.528.002 0 .002 0 0 0l-.074-.002-.126-.002-.083-.002c-.163-.002-.378-.007-.599-.002a5.886 5.886 0 00-.734.053 2.817 2.817 0 00-.47.109z" fill="#000"/><path fill-rule="evenodd" clip-rule="evenodd" d="M81.983 202.116c.651-.638 1.504-.714 2.308-.453.817.266 1.491.655 1.95 1.192.48.561.684 1.238.602 1.934-.153 1.308-1.246 2.364-2.458 2.984a73.1 73.1 0 01-.984.496c.03.208.062.419.097.632.585 3.603 1.72 7.458 1.792 7.687 3.991 12.561 10.417 24.112 16.886 35.739 2.236 4.017 4.476 8.044 6.623 12.125.035.067.123.221.246.434.399.691 1.169 2.027 1.775 3.278.409.842.798 1.748 1.013 2.546.106.395.185.816.18 1.218-.005.387-.09.915-.483 1.341-.751.814-1.894 1.278-3.036 1.56-1.176.291-2.523.43-3.851.481-2.659.103-5.397-.143-6.873-.355-.06-.008-.145-.027-.197-.038l-.015-.002c-.072-.017-.16-.035-.26-.056-.104-.019-.218-.043-.334-.062.001.004.002.009.004.011.158.417.41.898.749 1.436.679 1.078 1.644 2.284 2.702 3.493 1.054 1.206 2.174 2.384 3.153 3.415l.078.081c.927.975 1.755 1.847 2.22 2.433 1.137 1.436 2.378 2.907 3.66 4.425l.055.066c1.297 1.537 2.633 3.121 3.916 4.737 2.561 3.23 4.959 6.651 6.487 10.234a1.086 1.086 0 01-.567 1.411 1.052 1.052 0 01-1.401-.541c-1.417-3.322-3.677-6.57-6.203-9.755-1.261-1.588-2.576-3.149-3.876-4.69l-.065-.077c-1.274-1.509-2.534-3.001-3.691-4.464-.404-.508-1.179-1.325-2.175-2.373-.975-1.024-2.124-2.234-3.21-3.476-1.084-1.237-2.133-2.539-2.898-3.754-.383-.609-.71-1.218-.934-1.808-.22-.579-.367-1.208-.313-1.826.047-.526.392-.851.675-1.002.244-.131.491-.169.644-.184.323-.032.682 0 .963.036.3.039.595.094.819.139.103.019.195.039.263.054l.017.004.088.017h-.001c1.383.199 3.982.43 6.478.333 1.251-.047 2.439-.177 3.417-.419.917-.226 1.522-.519 1.858-.823 0-.126-.028-.333-.108-.628-.162-.603-.482-1.368-.874-2.176-.567-1.17-1.178-2.228-1.59-2.942a27.479 27.479 0 01-.401-.708c-2.095-3.982-4.302-7.95-6.517-11.93-6.498-11.679-13.074-23.497-17.134-36.276-.09-.285-1.257-4.247-1.864-7.987l-.008-.049c-10.852 5.009-22.806 7.764-34.363 10.428-1.83.421-3.65.84-5.455 1.268a1.05 1.05 0 01-1.271-.796c-.125-.573.24-1.15.817-1.287 1.822-.429 3.653-.85 5.486-1.274 11.797-2.721 23.734-5.475 34.503-10.548-.095-1.069-.11-2.08.014-2.913.101-.683.323-1.458.872-1.996zm1.19 3.894l.267-.136c.922-.473 1.25-1.033 1.28-1.295.011-.089-.001-.185-.114-.316-.131-.154-.422-.374-1.01-.565a.858.858 0 00-.157-.037c-.048.074-.148.279-.214.725-.066.447-.08.998-.052 1.624zm26.698 65.999l.001-.008-.001.008z" fill="#000"/><path d="M465.048 373.895c-.032.048-23.945-14.083-26.293-15.9 6.76-7.6 13.349-14.313 21.147-21.252 1.116-.992 9.09-7.726 7.576-8.001-1.312-.24-1.248-.345-5.16-1.084-4.412-.832-6.405-1.118-9.659-1.582-3.386-.486-5.079-2.685-.874-4.336 12.115-4.75 26.767-9.5 34.844-11.417 4.579-.633 5.438-1.681 6.828 3.084 1.793 6.157 3.388 12.874 4.096 19.253.786 7.083.9 13.667 0 21.085-.193 1.584-.637 1.659-1.717.297-2.287-2.884-4.466-5.791-7.283-8.209-1.114-.956-6.503 6.499-7.104 7.26-5.514 6.965-11.422 13.457-16.401 20.802z" fill="#32A89D"/><path fill-rule="evenodd" clip-rule="evenodd" d="M493.811 302.073c.468.759.832 1.764 1.185 2.976 1.806 6.203 3.426 13.017 4.149 19.524.797 7.185.915 13.895-.002 21.455-.051.436-.135.91-.306 1.323-.15.365-.566 1.15-1.539 1.317-.864.147-1.514-.327-1.777-.541-.333-.272-.649-.631-.942-.999l-.766-.968c-1.842-2.337-3.574-4.534-5.656-6.443l-.056.047c-.571.489-1.302 1.276-2.071 2.183-1.172 1.381-2.262 2.828-2.884 3.653-.199.263-.351.464-.44.579-1.837 2.32-3.692 4.56-5.531 6.779-3.775 4.558-7.48 9.028-10.8 13.928-.41.414-1.186.697-1.432.699a2.677 2.677 0 01-.344-.06c-.097-.028-.169-.06-.188-.066v-.003a2.51 2.51 0 01-.206-.102 8.933 8.933 0 01-.226-.126c-.184-.105-.449-.259-.781-.451-.664-.389-1.614-.945-2.755-1.619a1768.89 1768.89 0 01-8.496-5.047 946.343 946.343 0 01-8.935-5.402c-2.532-1.554-4.565-2.835-5.238-3.356l-1.357-1.05 1.141-1.283c6.796-7.64 13.427-14.4 21.279-21.384.135-.122.351-.308.627-.549.953-.827 2.621-2.275 4.111-3.688a44.42 44.42 0 001.479-1.462 95.61 95.61 0 00-3.033-.614c-4.379-.825-6.345-1.107-9.586-1.571h-.002c-.986-.141-1.911-.414-2.677-.819-.731-.384-1.511-.994-1.872-1.911-.417-1.06-.12-2.118.568-2.926.627-.734 1.589-1.302 2.749-1.758 12.156-4.767 26.885-9.545 35.058-11.484l.074-.019.075-.011c.706-.096 1.225-.188 1.721-.273.349-.062.684-.122 1.063-.178.748-.113 1.624-.213 2.458.009.962.254 1.65.864 2.161 1.691zm-6.886 1.917c-7.995 1.905-22.521 6.615-34.554 11.335-.669.261-1.067.502-1.287.675.045.03.1.062.166.097.372.196.928.38 1.636.481 3.264.468 5.282.756 9.729 1.594a90.73 90.73 0 013.623.744l.434.103c.385.092.64.154 1.095.235.453.084 1.105.383 1.389 1.135.227.601.069 1.138-.01 1.362-.176.49-.524.962-.806 1.315-.627.776-1.584 1.736-2.561 2.661-1.554 1.473-3.335 3.021-4.267 3.831-.248.214-.436.376-.543.473-7.275 6.473-13.492 12.749-19.794 19.753.875.562 2.076 1.31 3.513 2.193a934.142 934.142 0 008.905 5.381 1432.817 1432.817 0 0010.971 6.503c3.196-4.564 6.749-8.855 10.266-13.103 1.815-2.191 3.619-4.371 5.362-6.569.044-.06.147-.192.29-.385.575-.765 1.845-2.448 3.104-3.933.793-.932 1.655-1.879 2.427-2.54.372-.321.816-.656 1.287-.866.384-.173 1.411-.519 2.298.242 2.548 2.187 4.6 4.759 6.552 7.236.671-6.595.522-12.585-.192-19.017-.693-6.251-2.26-12.87-4.041-18.979-.342-1.172-.607-1.822-.834-2.187a.975.975 0 00-.196-.251.125.125 0 00-.058-.027c-.128-.035-.413-.052-1.156.062-.212.032-.499.081-.832.139-.56.096-1.249.213-1.916.307z" fill="#000"/><path fill-rule="evenodd" clip-rule="evenodd" d="M429.304 355.032a1.07 1.07 0 011.507-.122c5.913 5.032 12.568 9.31 19.287 13.626 1.212.78 2.427 1.559 3.639 2.345 7.681 4.983 15.268 10.195 21.523 16.773.254-.263.575-.643.958-1.141.985-1.283 2.225-3.139 3.484-5.105a358.278 358.278 0 003.519-5.657l.12-.197.793-1.289c-1.631 1.546-3.014 3.233-3.769 5.116-.218.547-.84.815-1.39.594a1.067 1.067 0 01-.594-1.389c1.644-4.113 5.71-7.256 8.859-9.65a36.227 36.227 0 011.644-1.199 7.83 7.83 0 01.528-.332c.124-.07.327-.179.554-.228.085-.018.404-.084.752.083a1.12 1.12 0 01.622 1.007 1.252 1.252 0 01-.109.487 1.69 1.69 0 01-.126.237c-.141.231-.372.514-.607.787-.381.447-.904 1.018-1.426 1.589-.143.156-.289.314-.428.468-.677.742-1.28 1.417-1.614 1.862-.228.305-.951 1.483-1.986 3.172-1.011 1.648-2.274 3.709-3.542 5.691-1.261 1.973-2.544 3.895-3.589 5.257-.515.669-1.011 1.255-1.443 1.639-.205.184-.475.396-.785.516-.331.128-.972.226-1.466-.304-6.157-6.631-13.755-11.875-21.647-16.993-1.195-.776-2.399-1.548-3.605-2.324-6.716-4.314-13.508-8.679-19.541-13.812a1.07 1.07 0 01-.122-1.507z" fill="#000"/><path fill-rule="evenodd" clip-rule="evenodd" d="M489.545 369.026c.59-.05 1.105.387 1.154.974l1.368 16.418a1.068 1.068 0 11-2.129.18l-1.368-16.418a1.067 1.067 0 01.975-1.154zM350.683 64.616a1.067 1.067 0 011.352.675c.746 2.232 1.438 4.528 2.135 6.833 1.668 5.533 3.356 11.126 5.843 16.056.222.438.397.506.444.521.075.024.244.04.584-.092.336-.13.72-.356 1.163-.648.13-.086.271-.182.419-.282.306-.207.633-.428.921-.603l.426-.255c1.599-.961 3.546-2.133 5.346-3.476a8.984 8.984 0 01-.609-.81c-.695-1.04-1.176-2.266-1.133-3.549.047-1.322.646-2.573 1.871-3.606.643-.542 1.46-.82 2.244-.913a5.277 5.277 0 012.371.258c.735.265 1.469.747 1.896 1.519.447.81.46 1.766.056 2.743-.682 1.642-1.963 3.137-3.434 4.457.811.562 1.668.95 2.403 1.075 2.343.4 4.667-.592 6.429-2.404 1.727-1.775 2.804-4.233 2.772-6.614a15.545 15.545 0 01-.938-1.674c-.806-1.698-1.225-2.878-1.317-3.595a2.061 2.061 0 01.017-.668c.051-.232.233-.73.804-.914.496-.161.902.055 1.047.144.184.112.336.257.449.382.447.49.932 1.35 1.315 2.363.348.924.637 2.048.731 3.269.772 1.112 1.764 2.226 2.85 3.005.855.614 1.699.97 2.488 1.02.755.049 1.556-.174 2.397-.91 1.528-1.34 2.063-3.071 1.376-4.45a1.07 1.07 0 011.916-.953c1.282 2.58.053 5.313-1.884 7.01-1.233 1.083-2.584 1.524-3.94 1.437-1.321-.084-2.546-.66-3.6-1.417a12.65 12.65 0 01-1.836-1.632c-.485 2.137-1.61 4.14-3.115 5.688-2.12 2.18-5.115 3.566-8.32 3.02-1.238-.21-2.574-.867-3.745-1.782-1.969 1.503-4.13 2.802-5.798 3.803l-.43.26c-.245.147-.485.31-.754.493a37.14 37.14 0 01-.515.346c-.462.305-1.007.64-1.572.858-.562.217-1.269.366-1.998.134-.757-.24-1.313-.819-1.704-1.595-2.578-5.106-4.353-10.992-6.046-16.598-.682-2.26-1.351-4.476-2.052-6.577a1.068 1.068 0 01.675-1.352zm33.362 5.302zm-13.063 12.085c1.41-1.24 2.516-2.534 3.054-3.835.204-.487.129-.747.05-.89-.101-.182-.334-.392-.751-.542a3.141 3.141 0 00-1.396-.146c-.487.058-.874.22-1.116.424-.806.68-1.09 1.383-1.111 2.045-.024.702.241 1.491.774 2.29.149.225.316.444.496.654zm12.632-27.177a1.07 1.07 0 011.513 0l7.91 7.91a1.07 1.07 0 01-1.513 1.512l-7.91-7.91a1.07 1.07 0 010-1.512zm19.99 3.524a1.07 1.07 0 01-.536 1.413c-.18.081-.437.18-.691.277l-.376.146a8.61 8.61 0 00-1.11.517c-.34.199-.541.377-.639.516-.066.096-.075.15-.049.244.105.384.504.842 1.259 1.335.661.432 1.411.775 2.046 1.065l.165.076c.384.176.962.347 1.716.556l.299.082c.65.179 1.381.38 2.085.618.81.275 1.652.624 2.358 1.1.71.479 1.364 1.142 1.646 2.07.316 1.043.186 1.996-.323 2.79-.477.746-1.221 1.247-1.95 1.59-1.455.684-3.266.928-4.35 1.005a1.07 1.07 0 01-.152-2.132c1.005-.072 2.497-.293 3.592-.808.545-.256.887-.536 1.06-.807.143-.224.227-.522.077-1.017-.088-.291-.321-.599-.795-.918-.477-.321-1.112-.597-1.852-.849-.637-.216-1.299-.398-1.953-.578a66.587 66.587 0 00-.313-.086c-.718-.198-1.466-.412-2.037-.673l-.171-.079c-.618-.282-1.513-.69-2.317-1.215-.847-.553-1.834-1.385-2.153-2.569a2.37 2.37 0 01.357-2.02c.355-.51.862-.877 1.321-1.144.468-.273.973-.488 1.394-.656.192-.077.355-.138.494-.192a9.11 9.11 0 00.485-.193 1.07 1.07 0 011.413.536z" fill="#000"/><path fill-rule="evenodd" clip-rule="evenodd" d="M389.266 71.589c.37.46.295 1.133-.167 1.502l-7.482 5.986a1.067 1.067 0 11-1.334-1.67l7.482-5.985a1.067 1.067 0 011.501.167zm33.712 9.121c.499-.011.971-.023 1.399-.044a1.068 1.068 0 11.106 2.132 61.24 61.24 0 01-1.594.052c-.984.022-1.952.045-2.944.16-1.475.17-2.764.533-3.771 1.299-.656.498-1.131 1.262-1.462 2.208-.332.943-.496 1.995-.575 2.973-.456 5.599 1.543 11.684 6.338 14.525 2.595 1.539 5.364 1.567 7.636-.242 1.035-.821 1.747-2.101 2.285-3.642.439-1.256.729-2.58 1.009-3.854.067-.295.131-.588.195-.876.036-.159.092-.38.158-.651.3-1.211.84-3.402 1.026-5.302a10.11 10.11 0 00.054-1.52c-.024-.447-.092-.73-.161-.88-.002-.002-.002-.004-.002-.005a1.627 1.627 0 00-.414.167c-1.935 1.028-3.491 2.724-4.601 4.69-.117.207-.25.456-.374.713.257.067.49.229.639.471.312.501.158 1.16-.344 1.47a4.166 4.166 0 01-.866.424c-.254.083-.658.171-1.081.014a1.33 1.33 0 01-.834-.965 2 2 0 010-.805c.079-.423.261-.887.436-1.273.182-.403.387-.795.558-1.097 1.263-2.236 3.085-4.266 5.46-5.527.603-.32 1.278-.528 1.949-.377.731.163 1.176.683 1.42 1.211.231.504.323 1.093.353 1.656.032.577.002 1.21-.06 1.844-.206 2.082-.808 4.51-1.097 5.677a30.38 30.38 0 00-.13.538c-.06.259-.118.531-.18.813-.282 1.28-.607 2.759-1.092 4.148-.593 1.699-1.478 3.421-2.97 4.608-3.097 2.464-6.856 2.31-10.064.408-5.751-3.408-7.874-10.463-7.38-16.534.086-1.072.272-2.325.689-3.508.414-1.18 1.083-2.363 2.184-3.199 1.448-1.1 3.177-1.53 4.821-1.721 1.084-.126 2.238-.153 3.281-.178zm3.049 12.245l.013-.004a.06.06 0 01-.013.004zm.872.699zm14.197-6.797c1.439-1.879 3.795-2.754 6.623-2.394 1.137.145 2.506.534 3.572 1.368 1.127.88 1.873 2.228 1.674 4.063-.276 2.569-1.079 4.35-2.535 5.2-1.452.846-3.141.522-4.579-.08-1.351-.567-2.747-1.493-4.004-2.457.04.356.104.725.192 1.107a1.068 1.068 0 11-2.084.477c-.27-1.174-.362-2.31-.276-3.368-.389-.339-.74-.653-1.045-.925-.099-.09-.195-.175-.285-.255a1.068 1.068 0 111.424-1.596l.229.206.22.195a6.578 6.578 0 01.874-1.54zm.877 3.062c1.445 1.205 3.136 2.466 4.705 3.123 1.244.522 2.11.534 2.674.204.563-.327 1.236-1.231 1.488-3.58.111-1.037-.269-1.685-.863-2.15-.655-.51-1.602-.814-2.527-.932-2.228-.283-3.767.412-4.656 1.573a4.733 4.733 0 00-.821 1.762zm22.271-.837c-.096.13-.167.269-.218.403a2.35 2.35 0 00-.128.908c.01.256.053.5.096.693a1.068 1.068 0 001.83.492c.032.005.064.01.098.013.319.033.896.017 1.302-.46.408-.482.314-1.04.235-1.297a1.988 1.988 0 00-.425-.731 1.841 1.841 0 00-.712-.495 1.069 1.069 0 00-2.078.474zm1.794 1.124zM453.485 63.77c-.458.051-.821.093-1.054.113a1.07 1.07 0 11-.186-2.13c.169-.014.468-.048.866-.094 1.242-.141 3.426-.39 5.468-.484 1.357-.063 2.743-.063 3.839.093.541.077 1.086.202 1.538.42.44.211.989.611 1.139 1.327.274 1.298-.539 2.258-1.152 2.835-.31.293-.659.569-.958.806l-.049.039c-.329.261-.594.474-.8.678-.615.612-1.231 1.184-1.834 1.744-1.148 1.067-2.249 2.092-3.23 3.267-.428.512-.569.84-.603 1.007-.021.098-.006.112.002.12l.004.003c.048.058.193.181.546.312.34.125.784.225 1.314.299 1.063.147 2.32.17 3.47.165l.804-.008c.791-.009 1.52-.017 1.937.028.483.052 1.28.299 1.472 1.17.077.346.015.659-.057.882-.075.23-.186.444-.302.63-.438.709-1.255 1.547-2.016 2.289-.303.296-.6.58-.885.852-.34.323-.658.628-.942.91l.342.003c.419.007.959.034 1.453.204.541.186 1.088.568 1.354 1.277a1.07 1.07 0 01-1.997.766.42.42 0 00-.054-.022c-.149-.051-.395-.081-.788-.087a15.227 15.227 0 00-.377-.001c-.282 0-.609.002-.874-.013-.404-.024-.99-.09-1.479-.416a1.192 1.192 0 01-.469-.592 1.246 1.246 0 01-.057-.623c.045-.293.181-.533.269-.674.195-.307.492-.641.789-.952.389-.406.898-.892 1.409-1.38.278-.264.553-.529.814-.782.515-.503.958-.958 1.281-1.338-.188 0-.396.003-.627.006-.295.003-.626.007-.989.008-1.161.006-2.549-.015-3.774-.185-.613-.085-1.222-.212-1.761-.41-.524-.194-1.08-.49-1.471-.976-.432-.536-.583-1.201-.434-1.91.139-.65.522-1.294 1.054-1.932 1.065-1.274 2.343-2.465 3.551-3.591a72.127 72.127 0 001.65-1.568c.304-.301.665-.587.977-.835l.022-.017c.322-.255.605-.48.846-.708.368-.346.49-.56.524-.695-.171-.076-.458-.155-.883-.216-.894-.127-2.116-.135-3.44-.074-1.954.09-3.931.316-5.192.46zm9.626-.109l-.004-.005c.004.003.006.005.004.005zm.817 12.04v.001c0-.004.002-.004 0-.001zm-2.995 6.332s0-.004.004-.01a.056.056 0 01-.004.01z" fill="#000"/><path fill-rule="evenodd" clip-rule="evenodd" d="M449.97 48.934a3.715 3.715 0 00-.784-.575 1.636 1.636 0 00-.704-.19 1.277 1.277 0 00-.992.427c-1.088 1.22-1.667 2.974-2.069 4.575-.177.704-.329 1.42-.472 2.089-.024.108-.045.215-.069.32-.164.772-.318 1.458-.492 2.04a11.68 11.68 0 01-.235.688c-.013.034-.028.071-.04.11a6.96 6.96 0 00-.159.446 1.352 1.352 0 00-.049.225 1.11 1.11 0 00.002.292 1.079 1.079 0 001.741.702c.096-.073.164-.151.194-.184.122-.14.299-.388.513-.697l.263-.374c1.003-1.435 2.063-2.952 2.893-4.617.113.738.248 1.471.389 2.195.164.831.335 1.636.504 2.425.263 1.235.52 2.43.721 3.627.1.582.652.974 1.233.875.582-.099.975-.65.874-1.233-.207-1.226-.481-2.515-.754-3.793-.167-.781-.332-1.558-.481-2.314a64.26 64.26 0 01-.289-1.581c.045.063.092.124.135.185.079.106.154.211.229.313.354.487.658.903.806 1.073a1.068 1.068 0 101.618-1.396c-.084-.098-.312-.411-.669-.9l-.259-.352a74.313 74.313 0 00-1.687-2.24 36.147 36.147 0 00-.583-.723c-.002-.106-.002-.213-.002-.319 0-.054-.003-.15-.026-.263a1.097 1.097 0 00-.336-.598 1.076 1.076 0 00-.964-.258zm-1.755 1.33c-.006-.003-.009-.004-.002-.002l.002.001zm.43.357l.03.03a9.647 9.647 0 00-.094.231c-.18.439-.351.873-.492 1.23-.15.378-.263.668-.314.778l-.154.321c.28-1.023.607-1.91 1.024-2.59z" fill="#000"/><path fill-rule="evenodd" clip-rule="evenodd" d="M343.244 67.983a1.069 1.069 0 011.405.558c4.557 10.567 8.549 21.354 11.751 32.431.207.719.306 1.785.387 2.805.017.211.034.423.049.635.069.871.135 1.742.24 2.523.064.482.141.9.231 1.238.04.152.079.274.117.371a252.36 252.36 0 003.235-2.94c2.984-2.743 6.46-5.936 10.124-8.728 5.086-3.875 10.776-7.173 16.382-7.468.139-.008.316-.007.5.032.165.035.494.135.737.454.28.367.266.773.197 1.025-.06.227-.173.398-.246.496a3.378 3.378 0 01-.53.54c-.19.162-.41.332-.639.5-.458.333-.996.695-1.477 1.019-.498.334-.917.616-1.185.818-.675.51-3.151 2.644-5.385 4.666-.421.38-.831.754-1.214 1.11 1.274-.441 2.557-.994 3.865-1.589.402-.183.808-.37 1.219-.559 2.067-.953 4.211-1.942 6.383-2.58 1.659-.486 2.954-.713 3.927-.607.507.055.996.207 1.403.525.419.327.66.76.78 1.21.214.81.051 1.773-.135 2.618-.094.431-.211.892-.329 1.358l-.017.065a56 56 0 00-.37 1.523 1.068 1.068 0 11-2.086-.463c.124-.558.258-1.093.384-1.585l.013-.05c.12-.479.229-.91.317-1.307.194-.879.222-1.365.156-1.613-.013-.045-.024-.064-.026-.069l-.002-.002c-.002-.002-.075-.058-.319-.084-.526-.058-1.477.058-3.093.532-2.007.59-3.983 1.5-6.05 2.452-.419.193-.842.388-1.27.583-2.49 1.131-5.12 2.228-7.88 2.623-.072.01-.709.101-1.092-.483a1.103 1.103 0 01-.177-.687 1.15 1.15 0 01.077-.341 1.96 1.96 0 01.318-.511c.201-.247.511-.572.872-.93a93.197 93.197 0 012.912-2.725c2.223-2.01 4.767-4.21 5.53-4.785.186-.142.424-.308.682-.483-3.91 1.066-7.939 3.504-11.837 6.472-3.58 2.729-6.93 5.807-9.893 8.53-1.189 1.092-2.313 2.126-3.367 3.058-.404.358-.932.69-1.561.684-.699-.007-1.178-.421-1.46-.823-.269-.383-.438-.856-.558-1.301a12.55 12.55 0 01-.282-1.505c-.113-.847-.186-1.797-.254-2.672l-.045-.6c-.088-1.082-.175-1.913-.31-2.382-3.175-10.977-7.134-21.68-11.662-32.177a1.07 1.07 0 01.558-1.405zm44.055 23.559h-.002.002zm-12.798 9.389l-.009.001h-.002l.011-.001zm1.034 1.5l-.002.004.002-.004z" fill="#FF6754"/><path fill-rule="evenodd" clip-rule="evenodd" d="M333.336 148.956c-.761.967-1.439 1.831-1.935 2.392a1.603 1.603 0 11-2.401-2.126c.447-.506 1.016-1.231 1.706-2.112.513-.654 1.095-1.395 1.745-2.198 1.46-1.803 3.193-3.812 4.948-5.325.877-.756 1.811-1.434 2.767-1.895.949-.457 2.039-.76 3.166-.581 2.452.39 3.801 2.722 4.474 5.927.52 2.46.943 4.929 1.362 7.363.053.317.109.632.162.947.475 2.753.958 5.463 1.587 8.15a1.604 1.604 0 01-3.124.729c-.65-2.787-1.148-5.58-1.622-8.334-.056-.317-.109-.633-.165-.949-.419-2.441-.831-4.847-1.338-7.246-.633-3.008-1.541-3.373-1.839-3.42-.248-.039-.654.005-1.269.302-.61.294-1.304.779-2.068 1.436-1.526 1.315-3.11 3.137-4.549 4.914-.551.682-1.099 1.377-1.607 2.026z" fill="#000"/><path fill-rule="evenodd" clip-rule="evenodd" d="M339.706 141.158a1.604 1.604 0 011.672 1.532c.77 17.668-8.666 32.288-22.124 42.833l-.47.37c-3.852 3.026-14.139 11.104-23.881 15.881-5.026 2.465-10.244 4.226-14.456 3.653-2.182-.297-4.145-1.229-5.603-3.025-1.071-1.318-1.798-3.016-2.197-5.082-17.819 12.952-38.655 25.942-60.516 29.794a1.604 1.604 0 01-.557-3.159c21.714-3.825 42.598-17.058 60.694-30.33-.126-3.222.09-7.187.922-10.967.953-4.329 2.779-8.718 6.131-11.297 1.453-1.117 3.732-1.701 5.787-1.596 2.048.105 4.493.956 5.462 3.42.874 2.221.57 4.511-.272 6.601-.838 2.078-2.251 4.082-3.809 5.878-3.119 3.597-7.081 6.656-9.107 8.168-.599.445-1.199.891-1.804 1.338.237 2.518.904 4.162 1.757 5.211.859 1.06 2.029 1.662 3.544 1.869 3.188.433 7.645-.919 12.611-3.355 9.425-4.622 19.479-12.514 23.342-15.547l.445-.349c12.929-10.131 21.608-23.851 20.899-40.169a1.603 1.603 0 011.53-1.672zm-64.261 50.117l.019-.014c2.001-1.492 5.723-4.379 8.603-7.698 1.44-1.661 2.603-3.357 3.255-4.975.648-1.607.744-3.009.263-4.229-.299-.762-1.158-1.316-2.642-1.392-1.473-.075-2.95.384-3.666.935-2.454 1.889-4.058 5.369-4.956 9.445-.583 2.654-.84 5.432-.876 7.928z" fill="#000"/><path d="M122.078 432.733c-4.355-12.559-6.556-20.219-10.661-32.864.241-2.984.475-3.666 3.007-5.374 4.335-2.922 9.623-5.522 14.708-6.933 5.349-1.486 8.189 3.153 9.491 6.907 3.313 9.55 6.685 19.503 10.955 28.627.255.545 1.399 2.296 1.008 4.263-.999 2.561-2.821 3.046-4.199 3.692-4.525 2.123-11.757 5.911-17.114 8.132 0 0-2.932.579-4.457-.755-1.195-1.043-2.236-4.248-2.738-5.695z" fill="#fff"/><path fill-rule="evenodd" clip-rule="evenodd" d="M136.112 380.125c1.722 1.612 2.828 3.897 3.504 5.845l.633 1.823c3.115 8.996 6.308 18.212 10.28 26.701.018.038.051.098.094.177.353.648 1.42 2.604.995 4.75l-.019.094-.035.09c-1.045 2.677-2.956 3.502-4.254 4.06-.178.077-.344.149-.495.22-1.496.701-3.32 1.601-5.287 2.572-3.875 1.913-8.305 4.1-11.873 5.579l-.098.041-.105.021-.193-1.051.193 1.051h-.001l-.005.002-.011.003c-.009 0-.02.002-.035.004a2.566 2.566 0 01-.116.021 10.036 10.036 0 01-1.719.111c-.992-.023-2.42-.22-3.467-1.135-.425-.372-.782-.881-1.078-1.389a15.292 15.292 0 01-.827-1.689c-.425-1.001-.782-2.04-1.029-2.76l-.106-.306c-2.821-8.136-4.745-14.233-6.86-20.941-1.154-3.658-2.364-7.495-3.809-11.944l-.066-.203.018-.216c.117-1.454.24-2.599.769-3.589.543-1.014 1.438-1.736 2.714-2.596 4.415-2.977 9.808-5.633 15.021-7.08 3.074-.853 5.492.073 7.267 1.734zm-7.14 49.885c3.49-1.454 7.726-3.545 11.519-5.42 1.994-.983 3.865-1.909 5.441-2.646.203-.096.403-.184.598-.272 1.235-.543 2.313-1.019 3.014-2.738.212-1.257-.364-2.371-.754-3.128a11.342 11.342 0 01-.191-.38c-4.021-8.594-7.248-17.91-10.355-26.88l-.641-1.85c-.627-1.806-1.591-3.719-2.952-4.993-1.308-1.223-2.985-1.877-5.261-1.245-4.956 1.377-10.139 3.921-14.393 6.79-1.258.846-1.745 1.319-2.013 1.819-.267.5-.384 1.146-.501 2.527 1.426 4.397 2.622 8.186 3.758 11.792 2.11 6.687 4.018 12.737 6.83 20.847l.111.321c.249.723.579 1.685.972 2.61.227.535.465 1.033.708 1.452.251.43.471.712.644.864.478.416 1.278.596 2.134.617a7.78 7.78 0 001.031-.047c.13-.015.232-.03.301-.04z" fill="#000"/><path fill-rule="evenodd" clip-rule="evenodd" d="M115.645 403.747c.286.515.101 1.17-.413 1.465l-.8.453c-.663.374-1.199.677-1.649.966-.616.398-.933.686-1.107.949-.289.438-.399 1.146.327 3.438.836 2.642 1.686 5.293 2.829 7.711l.015.028c.138-.048.37-.167.756-.407.067-.04.138-.085.214-.134.395-.25.897-.567 1.395-.781.611-.258 1.44-.464 2.289-.089.536.237.776.868.535 1.411-.242.543-.873.79-1.409.555-.072-.032-.225-.064-.603.097-.323.139-.646.342-1.041.59l-.275.173c-.432.267-1.081.667-1.751.744a1.89 1.89 0 01-1.216-.259c-.387-.242-.652-.601-.835-.99-1.215-2.567-2.105-5.355-2.935-7.978-.703-2.221-.982-3.889-.067-5.278.428-.65 1.057-1.14 1.744-1.582.508-.327 1.124-.673 1.81-1.063.238-.132.484-.271.738-.416a1.054 1.054 0 011.449.397zm-.741 15.104l-.001-.003.001.003zm31.783-31.594a253.486 253.486 0 00-4.672 2.011 1.067 1.067 0 11-.894-1.941c.23-.107 2.539-1.122 4.742-2.044a84.633 84.633 0 012.994-1.199c.392-.145.75-.267 1.013-.336.096-.025.312-.079.532-.072a1.108 1.108 0 011.017.729c.309.481.485.795.62 1.135.068.171.122.34.175.504l.007.024c.057.175.123.381.223.658.276.768-.223 1.322-.447 1.516-.248.216-.558.374-.791.483-.218.101-.457.197-.661.28a5.805 5.805 0 00-.613.268c-.389.205-.953.451-1.524.694-.076.032-.153.067-.231.099-.522.222-1.065.455-1.572.69-.562.259-1.081.46-1.536.635-.164.062-.32.122-.466.182a8.94 8.94 0 00-1.669.84 1.07 1.07 0 01-1.165-1.792c.749-.487 1.404-.78 2.041-1.034.189-.075.37-.146.549-.214a20.88 20.88 0 001.349-.558c.538-.25 1.113-.494 1.632-.716l.227-.098a22.113 22.113 0 001.362-.616c.226-.122.499-.233.725-.325.031-.013.061-.026.091-.036.174-.071.331-.135.474-.199a2.554 2.554 0 00-.033-.103 6.074 6.074 0 00-.133-.391 2.63 2.63 0 00-.17-.344c-.087.03-.183.064-.286.102-.756.28-1.813.708-2.91 1.168zm3.775-1.452l-.009.002.009-.002z" fill="#000"/><path fill-rule="evenodd" clip-rule="evenodd" d="M42.567 261.295c.564.163.886.755.72 1.323a979.681 979.681 0 01-3.288 10.918c-5.093 16.677-10.21 33.435-11.077 50.755-.255 5.105-.227 10.079 1.132 14.248 1.336 4.094 3.958 7.422 9.018 9.293 8.938 3.307 18.011 2.056 27.344.064 1.541-.329 3.091-.68 4.649-1.03 7.79-1.76 15.768-3.562 23.695-2.972 2.676.201 4.8.994 6.393 2.262 1.596 1.27 2.591 2.963 3.093 4.84.994 3.717.078 8.183-1.877 11.933-3.675 7.046-5.777 13.929-5.465 21.974.285 7.356 1.453 15.415 5.253 21.555 1.201 1.941 2.537 3.016 4.053 3.897.713.413 1.458.78 2.274 1.18.075.037.15.075.226.111.894.441 1.857.922 2.863 1.522.503.302.664.958.359 1.469-.305.511-.96.68-1.463.378-.927-.553-1.823-1.002-2.713-1.44l-.235-.116c-.803-.393-1.613-.793-2.391-1.244-1.747-1.013-3.365-2.313-4.786-4.609-4.1-6.625-5.282-15.15-5.57-22.594-.33-8.519 1.912-15.779 5.71-23.062 1.793-3.44 2.516-7.337 1.703-10.375-.4-1.499-1.17-2.779-2.368-3.732-1.2-.956-2.899-1.636-5.241-1.809-7.581-.567-15.19 1.148-22.977 2.905-1.58.355-3.168.714-4.765 1.054-9.375 2.001-18.973 3.384-28.52-.147-5.72-2.115-8.772-5.971-10.288-10.619-1.492-4.574-1.49-9.902-1.235-15.02.882-17.615 6.097-34.685 11.196-51.37 1.105-3.619 2.205-7.219 3.254-10.802.166-.569.759-.9 1.324-.74zm110.544 143.318a238.293 238.293 0 00-4.672 2.014 1.067 1.067 0 01-1.418-.524 1.067 1.067 0 01.523-1.417c.231-.107 2.539-1.123 4.743-2.044a83.519 83.519 0 012.993-1.199c.392-.146.75-.268 1.013-.336a1.86 1.86 0 01.532-.073c.066.002.182.013.317.056a1.101 1.101 0 01.7.673c.31.481.485.796.621 1.136.068.171.122.339.174.502l.008.023c.056.178.122.383.223.661.275.767-.224 1.321-.447 1.516-.248.216-.559.374-.792.483-.218.1-.457.196-.661.28-.029.013-.058.023-.086.034a5.708 5.708 0 00-.527.233c-.389.205-.953.451-1.523.695l-.232.098c-.522.223-1.065.456-1.572.689-.562.26-1.081.461-1.535.634-.165.065-.32.124-.467.184a9.026 9.026 0 00-1.668.84 1.068 1.068 0 11-1.165-1.791c.748-.487 1.404-.78 2.04-1.035.19-.077.371-.145.549-.213.434-.169.855-.33 1.349-.558.538-.251 1.113-.494 1.633-.717l.226-.098a21.518 21.518 0 001.362-.616c.227-.121.5-.233.725-.325.031-.012.061-.025.092-.036.173-.07.33-.135.474-.199l-.034-.104a6.63 6.63 0 00-.133-.392 2.56 2.56 0 00-.17-.342c-.087.03-.182.064-.286.103-.755.28-1.812.708-2.909 1.165zm3.774-1.449l-.008.002.008-.002zm-12.34-290.735c-.508 3.816-1.145 7.592-1.783 11.282a1.595 1.595 0 11-3.142-.544c1.529-8.841 2.989-17.845 2.763-26.66l-.009-.337a37.749 37.749 0 01-.011-.49v-.056l.001-.04.009-.105c.01-.076.126-.464.288-.748 1.278-.666 2.726.225 2.833.504a2.958 2.958 0 01.049.267c.003.023.004.04.004.047l.003.035.004.095.007.182.008.17c.026.629.08 1.88.165 3.378.174 3.06.47 6.918.889 8.714 1.073 4.604 3.111 8.739 5.267 13.114.332.674.667 1.354 1.002 2.043l.015.022c.042.059.103.142.182.248l.266.349.305.401c.202.268.421.564.592.82.082.125.178.275.256.428.039.075.094.188.139.323.029.086.137.409.075.815a4.05 4.05 0 01-.058.296c1.473-.931 3.182-1.631 5.345-1.94a1.595 1.595 0 01.451 3.158c-3.708.531-5.513 2.375-8.279 5.202-.375.383-.768.785-1.186 1.204l-.004.003c-.029.03-.201.205-.46.332-.096.047-.599.294-1.226.08-.798-.273-1.015-.976-1.062-1.253a1.647 1.647 0 01.056-.774c.028-.092.061-.171.081-.219a9.59 9.59 0 01.333-.674c.121-.231.291-.545.479-.893.195-.363.41-.762.611-1.142A50.02 50.02 0 00151 127.69c.199-.434.342-.78.435-1.035a55.017 55.017 0 00-.603-.804l-.29-.382c-.085-.114-.17-.228-.241-.329l-.001-.001c-.049-.071-.163-.231-.245-.401-.331-.681-.668-1.363-1.006-2.049-1.623-3.289-3.286-6.658-4.504-10.26zm-21.217 3.535a1.624 1.624 0 012.277-.112c4.953 4.434 10.278 11.249 9.408 19.039-.124 1.108-.533 2.069-1.272 2.778-.732.703-1.641 1.016-2.505 1.105-1.66.171-3.438-.443-4.728-1.203-1.534-.903-2.429-1.167-2.909-1.184-.201-.007-.282.032-.313.049-.038.02-.122.078-.237.256-.266.413-.508 1.156-.74 2.39-.141.749-.26 1.554-.393 2.455-.085.573-.175 1.184-.28 1.843a1.61 1.61 0 01-1.843 1.327 1.597 1.597 0 01-1.341-1.824c.091-.569.176-1.144.259-1.706.142-.958.278-1.881.429-2.68.237-1.257.561-2.544 1.193-3.522.334-.517.782-.996 1.389-1.329.615-.337 1.291-.471 1.991-.446 1.321.046 2.798.662 4.443 1.63.94.553 2.016.847 2.746.771.331-.034.501-.132.595-.222.087-.084.251-.297.312-.839.688-6.164-3.566-12.025-8.367-16.323a1.584 1.584 0 01-.114-2.253zM51.111 60.956c.901.016 1.62.759 1.604 1.66-.057 3.277-.207 6.637-.36 10.04-.348 7.787-.706 15.797.022 23.545 1.037 11.041 4.266 21.124 12.688 28.557 6.783 5.987 15.44 8.654 24.449 10.813l-.021-.033c-.403-.634-.943-1.343-1.508-2.041a61.73 61.73 0 01-2.826-2.484c-2.603-2.445-5.03-5.253-6.475-8.422a5.38 5.38 0 01-.264-.676 2.416 2.416 0 01-.09-.444 1.78 1.78 0 01.168-.963 1.681 1.681 0 011.496-.938c.425-.003.74.155.849.212.258.136.471.322.59.431.52.473 1.303 1.4 2.101 2.389 1.386 1.716 3.087 3.96 4.213 5.446l.575.757c.174.229.452.555.813.979.253.298.547.643.875 1.036.1.119.2.241.303.366 1.463 1.205 2.948 2.339 4.353 3.414l.406.31c1.008.771 1.83 1.526 2.328 2.298.543.842.82 1.925.25 3.004-.458.87-1.322 1.407-2.035 1.77a16.54 16.54 0 01-1.5.655 1.632 1.632 0 01-.484 3.006c-.367.078-3.063.63-5.667 1.123-1.3.247-2.594.481-3.568.635-.481.075-.915.137-1.242.167a4.145 4.145 0 01-.526.022 1.95 1.95 0 01-.494-.077 1.65 1.65 0 01-1.186-1.7c.057-.832.561-1.417.903-1.739.378-.357.845-.66 1.303-.916.925-.517 2.105-.997 3.25-1.411a72.273 72.273 0 013.323-1.094l.918-.279a32.4 32.4 0 001.1-.343c1.042-.369 1.827-.673 2.39-.959a4.33 4.33 0 00.418-.238c-.223-.284-.652-.706-1.414-1.292-.351.875-1.134 1.302-1.874 1.43-.698.12-1.489.019-2.295-.174-9.12-2.177-18.572-4.979-26.065-11.592-9.297-8.206-12.702-19.242-13.778-30.7-.75-7.98-.376-16.375-.024-24.261.149-3.343.294-6.595.348-9.685a1.632 1.632 0 011.66-1.604zm32.937 85.539l.015-.019a.094.094 0 01-.015.019zm-4.857-23.907l.008.006-.008-.006zm10.86 14.073l-.001-.011a.063.063 0 01.001.011z" fill="#000"/><path fill-rule="evenodd" clip-rule="evenodd" d="M51.274 76.27c-1.253.712-2.445 1.792-2.66 2.046a1.63 1.63 0 11-2.488-2.112c.492-.58 1.993-1.895 3.536-2.772.76-.433 1.725-.874 2.695-.95.508-.04 1.103.013 1.678.302a2.88 2.88 0 011.315 1.386c.963 2.065.819 4.28.193 6.347-.623 2.058-1.765 4.12-3.02 6.028-1.252 1.902-2.675 3.739-3.92 5.345l-.027.036c-1.285 1.658-2.323 3.005-2.922 4.033-.44.754-.793 1.368-1.041 1.89a5.57 5.57 0 00-.203.472c.2.028.466.047.813.047.896 0 1.728.213 2.441.678.71.462 1.195 1.105 1.517 1.79.614 1.311.698 2.924.617 4.375-.135 2.42-.793 5.123-1.194 6.771-.084.346-.157.645-.211.885-.208.918-.556 1.775-.836 2.441l-.076.18.042-.011c1.773-.467 3.479-.345 4.62.961.971 1.111 1.125 2.686 1.138 3.902.01.984-.08 2.093-.164 3.105-.025.309-.05.609-.07.893-.085 1.148-.108 2.06-.009 2.729l.074-.022.331-.094c.349-.097.907-.243 1.504-.219.899.035 1.68.456 2.128 1.245.35.616.39 1.297.404 1.665a15.166 15.166 0 01.008.584l.002.137c.29.052.656.097 1.077.138.3.029.577.052.855.076.206.017.414.034.633.054.437.04.957.093 1.346.191a1.632 1.632 0 01-.79 3.167c-.104-.026-.37-.063-.853-.107-.16-.015-.352-.031-.557-.048a82.47 82.47 0 01-.952-.084 14.869 14.869 0 01-1.594-.225 4.868 4.868 0 01-.783-.226 2.456 2.456 0 01-.936-.62c-.565-.625-.657-1.403-.688-1.792a9.098 9.098 0 01-.023-.754v-.01l-.063.018a8.65 8.65 0 01-1.02.249c-.462.073-1.225.117-1.956-.339-.749-.467-1.102-1.229-1.27-1.95-.286-1.234-.216-2.717-.123-4 .027-.36.055-.708.083-1.046.08-.973.152-1.862.144-2.68-.013-1.171-.207-1.645-.331-1.787l-.002-.002c-.016-.019-.046-.054-.181-.078-.179-.031-.535-.036-1.152.126-.608.16-1.153.271-1.631.318-.452.043-.992.045-1.507-.137a2.148 2.148 0 01-1.35-1.354c-.187-.563-.112-1.099-.041-1.429.12-.565.404-1.233.633-1.771l.092-.218c.277-.659.523-1.284.662-1.895.07-.312.156-.669.251-1.061.405-1.672.962-3.977 1.078-6.059.073-1.297-.05-2.244-.313-2.806-.117-.25-.239-.373-.343-.441-.1-.065-.29-.148-.66-.148-1.012 0-1.998-.116-2.776-.549a2.718 2.718 0 01-1.065-1.043 2.735 2.735 0 01-.338-1.379c.009-.799.322-1.585.622-2.216.318-.668.745-1.404 1.169-2.132.723-1.24 1.898-2.757 3.108-4.32l.053-.068c1.264-1.631 2.62-3.383 3.8-5.177 1.186-1.801 2.134-3.558 2.624-5.178.457-1.512.478-2.77.061-3.815-.261.053-.672.209-1.208.514zm1.395-.535h-.002.002zm4.394 54.526c-.02-.008-.016-.009.003.001l-.003-.001zm.452.494l.004.015-.004-.015zm-4.941-3.583l.01-.001-.01.001zm.56.327l.002.004-.002-.004zm-6.128-10.74l.002-.017a.1.1 0 01-.002.017z" fill="#fff"/><path d="M381.482 390.145c5.27-.917 8.002 6.056 3.515 8.965-2.724 1.764-3.012 5.646-.584 7.799 3.991 3.547.267 10.037-4.793 8.335-3.078-1.032-6.291 1.155-6.458 4.398-.272 5.331-7.67 6.432-9.502 1.417-1.114-3.049-4.83-4.197-7.468-2.307-4.341 3.115-9.818-1.992-7.041-6.558 1.684-2.775.265-6.401-2.859-7.29-5.139-1.462-4.592-8.93.71-9.597 3.22-.406 5.165-3.773 3.91-6.766-2.063-4.925 4.113-9.145 7.936-5.419 2.325 2.266 6.169 1.689 7.725-1.161 2.557-4.688 9.699-2.456 9.18 2.856-.316 3.23 2.531 5.883 5.729 5.328z" fill="#32A89D"/><g filter="url(#filter2_i_672_1220)"><path d="M413.729 402.456c3.016-5.757 11.757-3.234 11.244 3.243-.31 3.929 3.222 7.074 7.091 6.33 6.366-1.221 9.883 7.159 4.502 10.772-3.273 2.198-3.54 6.914-.538 9.468 4.938 4.199.523 12.136-5.661 10.195-3.76-1.18-7.617 1.552-7.743 5.49-.208 6.486-9.182 7.974-11.533 1.926-1.431-3.672-5.98-4.985-9.146-2.638-5.212 3.865-12.014-2.174-8.735-7.773 1.991-3.401.182-7.766-3.63-8.771-6.268-1.65-5.776-10.721.64-11.644 3.901-.563 6.186-4.697 4.587-8.299-2.629-5.924 4.812-11.144 9.547-6.719 2.88 2.689 7.545 1.909 9.375-1.58z" fill="#fff"/></g><path fill-rule="evenodd" clip-rule="evenodd" d="M416.238 428.366c4.934 1.424 9.949-1.323 11.292-5.975 1.34-4.652-1.441-9.65-6.375-11.072-4.934-1.423-9.949 1.324-11.289 5.975-1.343 4.654 1.438 9.65 6.372 11.072zm-.592 2.054c6.012 1.736 12.252-1.595 13.936-7.437 1.687-5.843-1.821-11.984-7.833-13.718-6.013-1.734-12.253 1.595-13.938 7.437-1.686 5.843 1.822 11.985 7.835 13.718z" fill="#000"/><path fill-rule="evenodd" clip-rule="evenodd" d="M421.07 397.676c-2.489 4.75-8.821 5.798-12.726 2.151-3.098-2.895-7.784.573-6.136 4.288 2.174 4.9-.93 10.52-6.236 11.283-4.07.588-4.453 6.394-.399 7.463 5.175 1.364 7.638 7.292 4.929 11.918-2.069 3.536 2.224 7.493 5.618 4.975 4.299-3.188 10.471-1.407 12.41 3.58 1.533 3.938 7.273 2.878 7.405-1.218.171-5.357 5.413-9.064 10.52-7.461 4 1.255 6.768-3.865 3.637-6.529-4.084-3.471-3.718-9.883.731-12.871 3.375-2.266 1.257-7.696-2.908-6.897-5.248 1.007-10.047-3.253-9.624-8.598.329-4.16-5.284-5.78-7.221-2.084zm9.352 2.253c.514-6.479-8.23-9-11.246-3.245-1.83 3.491-6.493 4.271-9.372 1.58-4.738-4.423-12.179.795-9.55 6.719 1.602 3.604-.684 7.739-4.587 8.301-6.416.923-6.905 9.994-.637 11.644 3.809 1.003 5.62 5.37 3.627 8.769-3.277 5.601 3.523 11.641 8.735 7.775 3.168-2.349 7.718-1.036 9.146 2.638 2.353 6.048 11.326 4.558 11.533-1.926.128-3.94 3.983-6.669 7.743-5.489 6.184 1.941 10.601-5.997 5.663-10.198-3.004-2.552-2.734-7.268.539-9.468 5.378-3.613 1.862-11.993-4.503-10.77-3.871.742-7.403-2.403-7.091-6.33z" fill="#000"/><path fill-rule="evenodd" clip-rule="evenodd" d="M388.312 392.93c-4.594.8-8.675-3.01-8.221-7.64.299-3.049-3.761-4.222-5.176-1.625-2.234 4.092-7.756 4.923-11.093 1.67-2.14-2.087-5.646.26-4.472 3.059 1.8 4.297-.99 9.132-5.616 9.714-2.954.372-3.328 4.583-.391 5.421 4.481 1.276 6.518 6.475 4.098 10.454-1.586 2.61 1.552 5.447 3.972 3.713 3.788-2.717 9.122-1.064 10.719 3.309 1.043 2.852 5.209 2.19 5.361-.793.237-4.656 4.853-7.798 9.272-6.315 2.804.943 4.985-2.674 2.693-4.709-3.48-3.089-3.074-8.656.84-11.191 2.536-1.644.992-5.584-1.986-5.067zm3.149 6.86c4.488-2.909 1.755-9.883-3.514-8.966-3.198.556-6.046-2.097-5.729-5.325.521-5.314-6.623-7.546-9.18-2.858-1.554 2.85-5.4 3.429-7.724 1.163-3.824-3.728-10 .492-7.937 5.417 1.255 2.993-.691 6.36-3.91 6.766-5.302.667-5.847 8.134-.708 9.599 3.121.887 4.543 4.513 2.856 7.287-2.775 4.567 2.7 9.674 7.042 6.559 2.638-1.89 6.354-.742 7.467 2.307 1.832 5.015 9.231 3.914 9.505-1.418.164-3.243 3.377-5.43 6.456-4.397 5.06 1.702 8.786-4.789 4.793-8.335-2.427-2.153-2.14-6.035.583-7.799z" fill="#000"/><path fill-rule="evenodd" clip-rule="evenodd" d="M366.11 404.671c1.43 3.649 5.491 5.423 9.042 4.032 3.551-1.392 5.325-5.454 3.895-9.103-1.43-3.649-5.494-5.426-9.042-4.032-3.551 1.392-5.326 5.454-3.895 9.103zm-1.991.78c1.854 4.727 7.143 7.074 11.814 5.242 4.671-1.83 6.956-7.147 5.105-11.873-1.854-4.727-7.143-7.074-11.814-5.244-4.673 1.832-6.958 7.148-5.105 11.875z" fill="#000"/><g filter="url(#filter3_i_672_1220)"><path d="M193.895 432.41c1.056-.56 6.41-2.55 13.159-6.073 1.573-.821 3.761-1.727 10.986-4.002 7.319 0 8.555-10.742 16.92-12.168 0 5.513-2.702 11.685 1.806 13.117 3.81 1.21 15.211 0 23.099 0 10.646 0 22.434-2.09 32.892 4.755 10.455 6.843 9.019 15.751 3.131 27.791-5.889 12.037-30.942 24.24-42.107 29.529-8.504 4.029-24.713 7.698-34.788 9.979l-.002.002c-10.077 2.281-13.974 4.468-27.853 3.232-13.879-1.238-16.255-6.37-18.794-9.733-2.539-3.363-2.689-11.942-2.214-14.887.475-2.948 2.872-8.41 3.707-10.837 1.997-5.8 2.567-7.285 2.852-9.126.285-1.841 2.704-6.881 3.421-8.936 3.138-4.562 4.523-5.334 5.23-5.988.706-.654 7.498-6.094 8.555-6.655z" fill="#fff"/></g><path fill-rule="evenodd" clip-rule="evenodd" d="M185.611 441.992c1.791-1.184 3.937-1.945 6.381-1.4 2.437.545 3.965 1.986 5.043 3.692.81 1.282 1.405 2.789 1.949 4.168.151.383.298.757.445 1.112a1.069 1.069 0 01-1.976.817c-.177-.43-.343-.851-.507-1.264-.532-1.344-1.026-2.595-1.718-3.69-.861-1.363-1.959-2.358-3.702-2.749-1.695-.378-3.248.113-4.736 1.097-1.509.998-2.856 2.441-4.087 3.818-2.698 3.016-4.234 6.3-4.667 9.729-.435 3.433.226 7.084 2.036 10.843 1.189 2.469 3.323 4.485 5.76 5.504 2.42 1.011 5.091 1.026 7.467-.399 1.835-1.099 4.042-3.03 5.868-5.276 1.822-2.243 3.156-4.665 3.462-6.769-.223-.098-.606-.134-1.255.032-.721.189-1.568.576-2.487 1.067-.585.314-1.15.642-1.71.964-.329.193-.657.383-.987.567-.826.466-1.701.928-2.433 1.109-.617.154-1.118.248-1.502.274a2.213 2.213 0 01-.637-.038c-.195-.045-.658-.197-.879-.702-.218-.5-.021-.934.067-1.094.104-.19.242-.344.347-.449.221-.22.514-.443.808-.648a22.759 22.759 0 012.085-1.25c.683-.368 1.369-.702 1.764-.841.525-.186 2.573-.848 4.476-1.128.924-.135 1.965-.206 2.796.01.427.112.912.327 1.265.761l.028.035c.511.547.768 1.272.903 1.939.179.882.192 1.896.143 2.86-.05.975-.168 1.964-.277 2.815l-.057.439c-.087.671-.156 1.201-.177 1.577a1.07 1.07 0 11-2.134-.122c.026-.459.108-1.092.195-1.761l.052-.404c.056-.436.112-.894.159-1.356-.661 1.208-1.476 2.378-2.356 3.461-1.955 2.405-4.345 4.513-6.428 5.762-3.05 1.83-6.449 1.766-9.39.536-2.926-1.222-5.449-3.612-6.862-6.548-1.959-4.068-2.725-8.132-2.231-12.037.494-3.91 2.242-7.587 5.194-10.886 1.223-1.366 2.734-3.008 4.502-4.177zm7.028 22.502l.002-.002-.002.002zm30.871-21.626c.039.295.073.637.071.618.532 4.436-.024 8.962-.836 13.201a76.686 76.686 0 001.601 7.518c.543 2.046 1.154 3.705 2.418 5.12a1.07 1.07 0 01-1.595 1.424c-1.608-1.802-2.324-3.865-2.888-5.994a74.278 74.278 0 01-.716-2.916c-.105.387-.214.778-.327 1.165a35.079 35.079 0 01-.565 1.757c0 .013-.002.024-.004.035-.173 1.169-.464 2.372-.956 3.302-.483.917-1.338 1.854-2.682 1.779-1.206-.071-2.07-.885-2.645-1.751a7.87 7.87 0 01-.635-1.176c-.414.821-.996 1.606-1.848 2.16a1.92 1.92 0 01-1.075.327 1.947 1.947 0 01-1.024-.317c-.53-.335-.929-.891-1.233-1.428-.626-1.107-1.153-2.693-1.581-4.258a66.789 66.789 0 01-1.044-4.547 107.25 107.25 0 01-.31-1.64l-.032-.175-.063-.344-.031-.161-.009-.047-.004-.017a1.07 1.07 0 112.08-.494c.022.094.071.362.14.738.083.451.195 1.062.326 1.727a64.477 64.477 0 001.009 4.395c.421 1.542.893 2.91 1.38 3.769.18.319.326.503.423.599.523-.387.922-1.005 1.236-1.813.274-.708.454-1.481.607-2.245a19.435 19.435 0 01-.188-1.599c-.079-1.051-.061-2.061.095-2.785.029-.133.061-.261.1-.379.019-.057.046-.13.083-.207.03-.062.101-.199.233-.329a1.093 1.093 0 011.617.066c.024-.387.065-.784.122-1.169.118-.768.334-1.64.789-2.296.24-.344.575-.676 1.037-.866.475-.197.981-.207 1.477-.075.693.186 1.161.671 1.467 1.137.305.466.517 1.012.667 1.516.102.338.188.697.258 1.037.052-.242.092-.438.12-.581-.633-4.058-.938-8.186-.844-12.246.006-.28-.026-.654-.069-1.131l-.002-.025c-.038-.443-.083-.96-.083-1.443.002-.466.042-1.056.28-1.561.128-.269.329-.551.639-.763a1.834 1.834 0 011.037-.303c.536 0 .885.318 1.054.519.175.209.292.449.372.643.162.398.278.881.361 1.309.085.44.15.88.19 1.22zm-4.923 21.38c.282-2.101.199-4.335.051-5.077-.036-.184-.07-.385-.107-.601-.092-.536-.196-1.152-.38-1.761-.124-.411-.263-.738-.409-.958a.896.896 0 00-.173-.207c-.038-.032-.057-.037-.06-.039a.32.32 0 00-.104-.015.402.402 0 00-.099.109c-.169.244-.327.716-.431 1.401-.184 1.192-.142 2.556-.12 3.24.002.082.006.154.006.216l.007.302c.017.786.042 2.078.216 3.305.1.703.239 1.325.425 1.789.071.173.135.301.192.391.09-.122.195-.293.317-.521.224-.428.449-.967.669-1.574zm-1.178-8.66h-.002.002zm-.009.002l-.004.002.004-.002zm-4.583 3.384l.002.009-.002-.009z" fill="#000"/><path fill-rule="evenodd" clip-rule="evenodd" d="M280.413 438.638c.701.329 1.157.938 1.426 1.627.605 1.552.004 3.123-.695 4.288-.72 1.201-1.716 2.262-2.379 2.933a32.326 32.326 0 01-2.213 2.033c.319.667.731 1.08 1.161 1.332.983.579 2.476.583 4.402.032 3.675-1.052 7.912-3.82 10.381-5.434l.278-.182a1.068 1.068 0 111.169 1.789l-.34.223c-2.424 1.586-6.901 4.515-10.9 5.66-2.08.595-4.308.791-6.074-.245a4.922 4.922 0 01-1.791-1.839c-.941.678-1.956 1.319-2.987 1.821-1.408.687-2.963 1.172-4.446 1.033a4.61 4.61 0 01-3.089-1.563c-.028.146-.058.289-.09.432-.483 2.125-1.49 4.41-3.713 5.385a2.043 2.043 0 01-1.121.165 2.024 2.024 0 01-.992-.445c-.506-.406-.848-1.022-1.092-1.618-.374-.911-.648-2.091-.849-3.331-.611.949-1.584 1.655-2.473 2.189-.635.383-1.364.748-1.973 1.054-.304.152-.58.291-.795.406a1.069 1.069 0 11-1.014-1.881c.327-.175.654-.34.986-.504.551-.276 1.114-.558 1.697-.907.907-.545 1.556-1.092 1.858-1.657.235-.44.457-1.278.635-2.375.171-1.058.284-2.234.357-3.266.045-.652.072-1.24.09-1.693a22.24 22.24 0 01.012-.817v-.011c.003-.062.005-.175.015-.254l.013-.064c.002-.017.017-.086.047-.169a2.14 2.14 0 01.139-.254c.114-.133.53-.385.84-.437.325.043.77.304.892.447.053.082.122.22.141.274.03.088.043.16.045.179l.008.067.005.057c.002.039.002.082.002.107 0 .067 0 .161-.002.278l-.02.633c.007 1.184.079 4.256.434 7.074.208 1.644.501 3.102.888 4.042.173.419.324.637.416.732 1.227-.565 2.001-1.954 2.437-3.878.278-1.223.389-2.536.432-3.727-.295-1.333-.365-2.717-.295-3.946.002-.06.009-.143.026-.233.008-.04.023-.117.058-.207v-.002a1.09 1.09 0 01.998-.706 1.071 1.071 0 01.951.545h.002c.073.126.109.246.122.285v.002c.058.19.105.479.141.722.077.524.159 1.264.161 1.687 0 .479 0 1.037-.017 1.642.164.669.395 1.298.701 1.849.598 1.082 1.351 1.484 2.187 1.563.917.087 2.05-.212 3.309-.825 1.08-.526 2.161-1.24 3.147-1.986a12.894 12.894 0 01-.276-2.536c-.026-1.4.252-3.012.928-4.419.68-1.411 1.804-2.697 3.504-3.24.729-.233 1.496-.265 2.195.064zm-4.436 8.549c.492-.441.922-.853 1.266-1.202.645-.654 1.488-1.56 2.069-2.531.603-1.007.768-1.815.535-2.411-.131-.338-.272-.439-.342-.473-.073-.034-.255-.083-.635.039-.982.314-1.721 1.077-2.228 2.133-.511 1.061-.737 2.333-.718 3.453.006.355.025.686.053.992zm-43.392 4.252c.378.186.829.573.898 1.24.109 1.081-.233 2.244-.71 3.32-.485 1.098-1.169 2.236-1.888 3.307-.194.288-.393.577-.592.859.124.47.265.921.415 1.34.374 1.041.769 1.773 1.06 2.104.609.695 1.246.994 1.877 1.075.652.081 1.388-.062 2.168-.417 1.582-.72 3.1-2.202 3.978-3.574a1.07 1.07 0 111.8 1.152c-1.049 1.644-2.86 3.442-4.891 4.368-1.026.468-2.168.737-3.324.592-1.182-.152-2.288-.727-3.215-1.787-.548-.624-1.042-1.627-1.435-2.711l-.008.011-.15.199c-.62.827-1.125 1.498-1.441 1.992a1.07 1.07 0 01-1.798-1.157c.361-.562.913-1.297 1.509-2.092l.169-.225c.317-.421.648-.866.984-1.325a17.098 17.098 0 01-.227-1.311c-.179-1.329-.209-2.717.049-3.925.259-1.197.845-2.385 2.042-3.003.254-.131.568-.197.802-.231.267-.041.581-.06.895-.043.295.015.68.071 1.033.242zm-2.805 5.631c.408-.667.765-1.319 1.039-1.935.319-.723.492-1.326.534-1.807a2.5 2.5 0 00-.382.026 1.248 1.248 0 00-.167.034c-.383.212-.714.678-.9 1.537-.133.614-.169 1.349-.124 2.145zm1.005-3.677h.002-.002zm-24.47-5.982c.57.152.909.74.756 1.309l-1.087 4.048a1.07 1.07 0 11-2.065-.553l1.087-4.049a1.067 1.067 0 011.309-.755z" fill="#000"/><path fill-rule="evenodd" clip-rule="evenodd" d="M242.818 431.19c1.181-.092 2.378.246 3.528 1.088 2.725 1.992 4.192 5.59 4.761 8.515 1.436 7.39-.971 16.12-4.684 22.339-.011.019-.028.052-.052.092-.134.24-.455.812-.846 1.289-.237.287-.554.614-.949.843-.413.239-.973.401-1.593.222-.59-.173-1.041-.562-1.366-.939l-.088-.104a1.07 1.07 0 01-.722-.364c-.46-.524-.68-.727-.776-.801l-.032-.011c-.338-.113-.573-.317-.819-.594-.229-.259-.547-.68-1.043-1.375-1.251-1.753-2.459-4.102-3.096-6.157-1.744-5.616-1.766-12.236.793-17.737.779-1.672 2.136-3.752 3.893-5.056.89-.66 1.933-1.158 3.091-1.25zm-3.392 28.293c-.966-1.492-1.856-3.311-2.343-4.883-1.621-5.218-1.601-11.278.688-16.202.695-1.494 1.864-3.228 3.23-4.241.674-.498 1.341-.785 1.986-.836.622-.049 1.319.111 2.098.682 2.09 1.531 3.399 4.498 3.922 7.198 1.309 6.732-.891 14.926-4.418 20.835-.039.064-.08.134-.122.211-.152.267-.342.601-.595.909a1.683 1.683 0 01-.352.34 1.103 1.103 0 01-.283-.253 4.114 4.114 0 01-.521-.821c-.291-.577-.5-1.184-.646-1.605-.023-.075-.047-.141-.068-.203-.763-2.164-1.073-4.083-.866-6.281a1.07 1.07 0 10-2.129-.201 15.395 15.395 0 00.419 5.351z" fill="#000"/><path fill-rule="evenodd" clip-rule="evenodd" d="M290.313 456.448c-1.748.312-3.48.79-4.658 1.118-13.222 3.685-25.67 10.883-37.853 17.927-3.464 2.003-6.903 3.991-10.334 5.885a1.072 1.072 0 01-1.454-.419 1.071 1.071 0 01.421-1.453c3.341-1.845 6.723-3.801 10.15-5.781 12.217-7.067 24.986-14.453 38.497-18.218 1.172-.327 2.993-.832 4.857-1.163 1.815-.323 3.861-.52 5.407-.092.145.041.324.105.495.216.174.111.396.306.516.622.26.686-.169 1.212-.304 1.36a2.988 2.988 0 01-.622.498c-.216.134-.46.265-.71.391-.778.387-1.787.789-2.484 1.067l-.459.184c-6.347 2.595-12.534 5.171-18.293 8.737-3.271 2.024-6.709 4.25-9.248 7.003.457-.207.861-.408 1.096-.526l.171-.083c.898-.432 1.794-.979 2.752-1.563.243-.15.491-.301.744-.453 1.21-.729 2.52-1.475 3.888-1.931.146-.049.317-.096.49-.117h.002c.103-.011.528-.06.911.231.54.412.461 1.017.399 1.238a1.64 1.64 0 01-.243.489c-.27.381-.804.883-1.324 1.347-.553.494-1.21 1.043-1.808 1.543-.107.09-.212.178-.314.261-.481.402-.9.75-1.195 1.007a1.069 1.069 0 01-1.756-.998c-.536.314-1.079.613-1.62.872l-.098.049c-.394.197-1.758.881-2.831 1.225a4.838 4.838 0 01-.955.22 2.08 2.08 0 01-.55-.006 1.404 1.404 0 01-.727-.327c-.619-.541-.442-1.289-.318-1.612.139-.368.402-.757.723-1.159 2.849-3.574 7.048-6.274 10.686-8.527 5.93-3.673 12.277-6.311 18.609-8.898.157-.064.336-.137.531-.214l.457-.183c-.521.053-1.075.132-1.644.233zm4.47-.133h-.004.004zm-22.079 14.06l-.006.009.006-.009z" fill="#FF6754"/><path fill-rule="evenodd" clip-rule="evenodd" d="M265.049 364.047c0 .002-.002.002-.007.004a.022.022 0 00.007-.004zm-.697.624l-.002.004.002.065v-.069zm.004 1.847c.205 2.527.885 4.489 2.159 6.056 1.277 1.57 3.066 2.63 5.268 3.511a1.068 1.068 0 10.793-1.984c-2.044-.819-3.453-1.708-4.402-2.876-.938-1.154-1.518-2.685-1.693-4.955-.017-.22-.01-.517-.002-.902l.006-.276c.009-.466.015-1.045-.062-1.533a2.58 2.58 0 00-.26-.823 1.482 1.482 0 00-.984-.761c-.476-.104-.9.054-1.193.216-.301.169-.594.417-.885.706-4.083 4.085-7.572 9.042-10.84 13.692-.291.413-.582.823-.868 1.231-.092.131-1.381 2.151-2.548 4.118-.588.987-1.163 1.992-1.552 2.762-.189.374-.36.739-.458 1.035a1.961 1.961 0 00-.109.594c.002.12.017.378.186.641.212.329.554.496.885.515 1.035.058 2.076-.434 2.961-1.015.919-.605 1.847-1.424 2.698-2.277 1.701-1.706 3.209-3.658 3.869-4.617a50.186 50.186 0 004.718-8.513c-1.793 21.121-6.674 39.7-15.161 58.618a1.07 1.07 0 00.539 1.413 1.067 1.067 0 001.411-.537c8.628-19.231 13.577-38.138 15.368-59.633.037-.425.111-2.309.148-3.931l.008-.475zm-3.707 2.317c-2.343 2.876-4.519 5.969-6.657 9.007l-.853 1.212c0-.002-.002.004-.01.015a60.31 60.31 0 01-.216.336c-.146.228-.344.545-.58.919-.468.75-1.073 1.731-1.652 2.704a70.195 70.195 0 00-.866 1.499c.682-.481 1.409-1.125 2.127-1.843 1.595-1.599 3.021-3.448 3.624-4.323a47.798 47.798 0 005.083-9.526zm-11.798 17.618l.002-.009c0 .007-.002.009-.002.009zm30.816 100.406a1.07 1.07 0 011.338-.703l9.077 2.815a1.07 1.07 0 01-.632 2.042l-9.077-2.815a1.072 1.072 0 01-.706-1.339zm23.238 6.961a1.069 1.069 0 01.974-1.155l9.64-.825a1.068 1.068 0 11.181 2.129l-9.639.826a1.068 1.068 0 01-1.156-.975zm43.518-6.458a1.067 1.067 0 01-.727 1.325l-11.843 3.442a1.07 1.07 0 01-.597-2.054l11.844-3.44a1.067 1.067 0 011.323.727zm28.516-16.051a1.07 1.07 0 01-.291 1.484l-12.762 8.568a1.068 1.068 0 01-1.193-1.774l12.764-8.568a1.067 1.067 0 011.482.29z" fill="#000"/><path fill-rule="evenodd" clip-rule="evenodd" d="M369.815 464.721c-1.016.59-1.901 1.103-2.476 1.383a1.068 1.068 0 01-.936-1.922c.5-.244 1.302-.71 2.339-1.31.156-.092.316-.184.483-.281 1.246-.722 2.727-1.571 4.247-2.353 1.516-.778 3.1-1.507 4.55-1.98 1.396-.457 2.877-.746 4.074-.406 1.122.316 1.43 1.413 1.516 2.114.096.781.011 1.702-.12 2.544a28.555 28.555 0 01-.498 2.414c-.077.312-.143.571-.197.782-.072.289-.122.483-.141.588-.4 2.217-.65 3.677-.626 5.071.021 1.353.303 2.691 1.067 4.602.22.55-.047 1.172-.597 1.39a1.067 1.067 0 01-1.387-.596c-.832-2.08-1.193-3.679-1.221-5.362-.028-1.642.269-3.318.661-5.485.032-.174.113-.501.209-.881.049-.197.103-.406.154-.618.165-.669.344-1.462.464-2.234.122-.789.169-1.473.111-1.954a1.342 1.342 0 00-.075-.342c-.553-.118-1.466-.009-2.732.404-1.291.421-2.757 1.092-4.233 1.851-1.468.755-2.913 1.582-4.155 2.301l-.481.28zm11.574-4.892l.012.018c-.01-.009-.012-.015-.012-.018z" fill="#000"/><path fill-rule="evenodd" clip-rule="evenodd" d="M296.348 100.94c-9.62 6.343-18.086 15.024-21.654 19.642-3.453 4.468-4.279 8.184-4.859 14.515a308.935 308.935 0 00-.342 4.184c-.464 6.016-1.086 14.068-3.144 25.727-2.629 14.902-10.342 24.118-22.993 31.883-9.961 6.113-23.078 11.379-39.25 17.872-4.203 1.688-8.612 3.458-13.226 5.347-22.297 9.132-33.085 19.474-38.438 28.829-4.816 8.417-5.307 16.134-5.67 21.843-.041.647-.08 1.268-.124 1.862-.364 4.911-2.849 9.561-5.709 13.33-2.839 3.742-6.127 6.72-8.34 8.354-20.061 20.069-27.309 31.296-29.103 39.395-.886 3.999-.451 7.285.511 10.601.465 1.606 1.051 3.208 1.677 4.92l.08.22c.651 1.784 1.338 3.679 1.937 5.749 1.084 3.744 3.896 6.986 7.748 9.758 3.845 2.767 8.634 4.998 13.498 6.743 9.756 3.499 19.572 4.96 22.193 4.96.989 0 3.433-.129 6.974-.317 15.743-.836 53.164-2.824 80.795.324 32.284 3.678 54.502 17.444 73.829 29.419 1.056.654 2.104 1.303 3.144 1.945 19.917 12.29 45.388 18.661 64.474 19.509 4.481.2 8.92-1.614 13.166-4.755 4.244-3.139 8.218-7.549 11.736-12.388 7.04-9.688 12.115-20.909 13.788-26.558.765-2.581.383-5.833-.78-9.421-1.156-3.565-3.038-7.325-5.103-10.845-3.162-5.393-6.627-10.035-8.527-12.58-.601-.806-1.045-1.401-1.274-1.744-.97-1.455-2.071-4.351-1.15-7.421.946-3.15 3.901-6.117 10.306-7.884 6.044-1.668 13.414-5.447 20.245-10.265 6.831-4.819 13.025-10.609 16.775-16.234 1.815-2.722 3.115-6.497 4.005-10.793.886-4.282 1.349-9.003 1.535-13.562.372-9.149-.378-17.486-.989-20.132-.179-.778-.433-2.378-.784-4.591a532.096 532.096 0 00-1.092-6.686c-.979-5.723-2.377-13.083-4.372-21.037-4.001-15.948-10.368-34.136-20.47-46.342-10.044-12.138-27.942-19.868-44.968-25.045-8.486-2.58-16.698-4.511-23.525-6.039-1.3-.291-2.553-.568-3.751-.833-5.049-1.116-9.11-2.014-11.498-2.81-5.925-1.975-9.027-4.734-9.897-8.525-.833-3.631.491-7.885 2.404-12.561 1.858-4.541 2.881-10.618 1.446-16.665-1.426-6.009-5.296-12.071-13.38-16.632-3.859-2.176-8.368-2.363-13.182-1.175-4.821 1.189-9.863 3.738-14.672 6.909zm14.16-8.985c5.154-1.271 10.265-1.137 14.744 1.39 8.59 4.845 12.843 11.396 14.41 18 1.558 6.565.443 13.102-1.547 17.967-1.935 4.729-2.962 8.385-2.299 11.274.626 2.729 2.869 5.101 8.489 6.975 2.271.757 6.178 1.621 11.215 2.735 1.212.268 2.489.551 3.825.85 6.841 1.531 15.116 3.476 23.68 6.079 17.07 5.191 35.515 13.067 45.993 25.728 10.421 12.591 16.88 31.173 20.896 47.185 2.013 8.025 3.421 15.442 4.406 21.197.465 2.718.832 5.037 1.122 6.874.331 2.093.564 3.561.73 4.282.672 2.912 1.418 11.463 1.042 20.7-.189 4.633-.661 9.478-1.578 13.908-.914 4.415-2.286 8.496-4.319 11.546-3.946 5.919-10.365 11.887-17.322 16.795-6.958 4.908-14.553 8.825-20.908 10.578-5.994 1.654-8.169 4.245-8.827 6.439-.682 2.274.141 4.51.881 5.62.167.251.538.747 1.058 1.443 1.84 2.464 5.555 7.438 8.808 12.985 2.104 3.588 4.07 7.497 5.293 11.268 1.215 3.747 1.742 7.496.796 10.687-1.747 5.895-6.934 17.335-14.109 27.208-3.591 4.941-7.713 9.536-12.194 12.85-4.479 3.313-9.393 5.4-14.532 5.172-19.394-.862-45.229-7.317-65.502-19.826-1.026-.633-2.059-1.273-3.099-1.917-19.34-11.98-41.196-25.519-72.993-29.142-27.356-3.116-64.188-1.169-80.158-.325-3.707.196-6.29.332-7.369.332-2.937 0-13.003-1.531-22.914-5.086-4.969-1.783-9.96-4.094-14.026-7.02-4.058-2.92-7.284-6.518-8.552-10.898-.577-1.992-1.24-3.824-1.892-5.611l-.089-.243c-.618-1.692-1.227-3.356-1.713-5.035-1.03-3.551-1.53-7.214-.545-11.659 1.945-8.781 9.65-20.415 29.735-40.5l.058-.058.066-.049c2.062-1.512 5.235-4.369 7.968-7.971 2.742-3.614 4.959-7.871 5.28-12.196.043-.579.081-1.193.122-1.838.359-5.715.874-13.902 5.948-22.77 5.657-9.885 16.888-20.493 39.484-29.746 4.672-1.913 9.119-3.699 13.343-5.395 16.142-6.482 29.032-11.658 38.825-17.668 12.253-7.521 19.505-16.262 22.006-30.433 2.037-11.545 2.651-19.479 3.116-25.493.118-1.528.226-2.933.346-4.241.596-6.495 1.48-10.689 5.296-15.627 3.7-4.788 12.336-13.637 22.17-20.12 4.918-3.243 10.19-5.93 15.336-7.2z" fill="#fff"/><path fill-rule="evenodd" clip-rule="evenodd" d="M182.693 173.374a1.47 1.47 0 011.522 1.416c1.126 29.393 3.237 58.783 5.585 88.122.855 10.694 2.111 21.355 3.37 32.046l.255 2.165c1.341 11.407 2.655 22.848 3.449 34.339.449 6.501.445 13.005.441 19.452l-.001 1.84a1.47 1.47 0 01-1.466 1.474 1.47 1.47 0 01-1.467-1.474l.001-1.829c.004-6.465.008-12.866-.434-19.259-.788-11.41-2.094-22.786-3.436-34.196l-.256-2.178c-1.258-10.679-2.519-21.392-3.38-32.143l1.462-.119-1.462.118c-2.348-29.351-4.463-58.789-5.592-88.244a1.47 1.47 0 011.409-1.53z" fill="#000"/><defs><filter id="filter0_i_672_1220" x="172.411" y="333.496" width="255.071" height="20.13" filterUnits="userSpaceOnUse" color-interpolation-filters="sRGB"><feFlood flood-opacity="0" result="BackgroundImageFix"/><feBlend in="SourceGraphic" in2="BackgroundImageFix" result="shape"/><feColorMatrix in="SourceAlpha" values="0 0 0 0 0 0 0 0 0 0 0 0 0 0 0 0 0 0 127 0" result="hardAlpha"/><feOffset dx="20" dy="20"/><feGaussianBlur stdDeviation="7.5"/><feComposite in2="hardAlpha" operator="arithmetic" k2="-1" k3="1"/><feColorMatrix values="0 0 0 0 0.196078 0 0 0 0 0.658824 0 0 0 0 0.615686 0 0 0 1 0"/><feBlend in2="shape" result="effect1_innerShadow_672_1220"/></filter><filter id="filter1_i_672_1220" x="475.16" y="65.303" width="30.544" height="42.946" filterUnits="userSpaceOnUse" color-interpolation-filters="sRGB"><feFlood flood-opacity="0" result="BackgroundImageFix"/><feBlend in="SourceGraphic" in2="BackgroundImageFix" result="shape"/><feColorMatrix in="SourceAlpha" values="0 0 0 0 0 0 0 0 0 0 0 0 0 0 0 0 0 0 127 0" result="hardAlpha"/><feOffset dx="10" dy="10"/><feGaussianBlur stdDeviation="2"/><feComposite in2="hardAlpha" operator="arithmetic" k2="-1" k3="1"/><feColorMatrix values="0 0 0 0 0.196078 0 0 0 0 0.658824 0 0 0 0 0.615686 0 0 0 1 0"/><feBlend in2="shape" result="effect1_innerShadow_672_1220"/></filter><filter id="filter2_i_672_1220" x="385.134" y="399.242" width="58.073" height="58.462" filterUnits="userSpaceOnUse" color-interpolation-filters="sRGB"><feFlood flood-opacity="0" result="BackgroundImageFix"/><feBlend in="SourceGraphic" in2="BackgroundImageFix" result="shape"/><feColorMatrix in="SourceAlpha" values="0 0 0 0 0 0 0 0 0 0 0 0 0 0 0 0 0 0 127 0" result="hardAlpha"/><feOffset dx="10" dy="10"/><feGaussianBlur stdDeviation="2"/><feComposite in2="hardAlpha" operator="arithmetic" k2="-1" k3="1"/><feColorMatrix values="0 0 0 0 0.196078 0 0 0 0 0.658824 0 0 0 0 0.615686 0 0 0 1 0"/><feBlend in2="shape" result="effect1_innerShadow_672_1220"/></filter><filter id="filter3_i_672_1220" x="169.917" y="410.167" width="134.551" height="92.763" filterUnits="userSpaceOnUse" color-interpolation-filters="sRGB"><feFlood flood-opacity="0" result="BackgroundImageFix"/><feBlend in="SourceGraphic" in2="BackgroundImageFix" result="shape"/><feColorMatrix in="SourceAlpha" values="0 0 0 0 0 0 0 0 0 0 0 0 0 0 0 0 0 0 127 0" result="hardAlpha"/><feOffset dx="10" dy="10"/><feGaussianBlur stdDeviation="2"/><feComposite in2="hardAlpha" operator="arithmetic" k2="-1" k3="1"/><feColorMatrix values="0 0 0 0 0.196078 0 0 0 0 0.658824 0 0 0 0 0.615686 0 0 0 1 0"/><feBlend in2="shape" result="effect1_innerShadow_672_1220"/></filter></defs></svg>