<svg width="63" height="63" viewBox="0 0 63 63" fill="none" xmlns="http://www.w3.org/2000/svg">
<path fill-rule="evenodd" clip-rule="evenodd" d="M23.2991 0.0520048C22.2045 0.114693 20.1861 0.454979 18.9476 0.785783C13.9691 2.11516 9.70273 5.00014 6.46607 9.22571C-1.11345 19.121 -2.14786 34.7595 3.99022 46.656C5.53685 49.6536 7.17367 51.9152 9.50584 54.2771C12.579 57.3897 16.0916 59.6611 20.0828 61.1171C30.6018 64.9543 42.9237 62.8318 52.0244 55.6151C53.2833 54.6166 55.4335 52.5164 56.4604 51.2816C61.1291 45.6691 63.4522 38.3864 62.927 31.0102C62.4461 24.2576 60.1088 18.1855 55.8603 12.6521C54.5917 10.9998 52.2485 8.60056 50.5436 7.20825C47.9743 5.11012 44.2187 2.95165 41.399 1.95271C38.0848 0.778394 36.3023 0.472837 31.9391 0.330959C30.0661 0.270119 28.0511 0.166665 27.4615 0.101268C26.4339 -0.0127765 24.7746 -0.0323587 23.2991 0.0520048ZM35.0294 4.4043C38.8697 4.73831 41.5605 5.51778 44.2275 7.06871C46.4736 8.37481 48.0266 9.55615 50.0866 11.5253C54.2444 15.5001 56.9003 20.1294 58.5048 26.1995C59.1299 28.5642 59.2503 30.2 59.1089 34.4067C58.9856 38.0755 58.7403 40.1232 58.3303 40.9058C58.2111 41.1335 58.0555 41.1381 53.461 41.049C50.8505 40.9984 46.3875 40.8648 43.5433 40.7522L38.3719 40.5475L38.2169 39.6324C37.7797 37.053 36.9704 35.7304 33.4672 31.87C32.5735 30.885 29.9266 27.7513 27.5855 24.9064C22.5921 18.8386 21.7736 17.8916 21.2384 17.5633C20.3136 16.996 18.9748 17.6362 18.9775 18.6445C18.9781 18.9049 19.3799 20.3926 19.8703 21.9506C20.3607 23.5085 21.3918 26.8338 22.1614 29.3401C22.9311 31.8464 24.0128 35.2635 24.5652 36.9338C25.1877 38.8163 25.5696 40.1738 25.5696 40.5054L25.5699 41.0401L23.8984 41.0097C22.9791 40.993 20.5242 40.9241 18.443 40.8566C16.3619 40.7893 13.0414 40.7042 11.0643 40.6677C9.08721 40.6311 6.88772 40.5699 6.17672 40.5317L4.88387 40.4623L4.69719 39.8275C4.4308 38.9216 4.04925 36.4795 3.76117 33.8354C3.36133 30.1649 3.33535 29.5437 3.49402 27.4177C4.02756 20.267 7.0662 13.1132 11.3297 8.97065C13.8121 6.55859 16.9957 5.24117 21.7855 4.64385C24.3166 4.32831 32.4612 4.18102 35.0294 4.4043ZM23.2405 7.61542C22.8566 7.94437 22.7946 8.0732 22.7946 8.54083C22.7946 9.21118 23.9347 12.6459 24.3709 13.2895C24.7667 13.8735 25.4804 14.1237 26.07 13.8853C26.5972 13.6721 27.0831 13.0793 27.0831 12.6493C27.0831 12.3069 25.8358 8.45043 25.5371 7.86924C25.3389 7.48364 24.8094 7.23313 24.1926 7.23313C23.8062 7.23313 23.5808 7.32353 23.2405 7.61542ZM38.6424 8.6582C38.1848 8.90907 37.6073 10.1104 36.9961 12.0827C36.4786 13.7531 36.4765 13.7705 36.7343 14.2572C36.9695 14.7015 37.5175 14.9921 38.1196 14.9921C38.8227 14.9921 39.2673 14.7029 39.4886 14.1018C40.3727 11.7005 40.7448 10.5281 40.7947 9.9872C40.8468 9.42314 40.8139 9.31155 40.4914 8.95907C40.0492 8.4758 39.2207 8.34107 38.6424 8.6582ZM11.3166 13.4778C10.9641 13.603 10.4401 14.1687 10.3043 14.5708C10.1312 15.0829 10.3807 15.7155 10.8924 16.0622C11.5662 16.5188 13.79 17.4553 14.2003 17.4553C15.0512 17.4553 15.7321 16.7857 15.7307 15.9505C15.7294 15.1842 15.1395 14.7348 12.9135 13.8044C11.9383 13.3967 11.6886 13.3456 11.3166 13.4778ZM49.0658 16.8622C48.6854 16.9609 46.2217 19.0663 45.9533 19.522C45.5228 20.2526 45.7164 21.1063 46.4056 21.5167C47.3053 22.0522 47.8842 21.7822 49.8183 19.9251C50.8959 18.8905 50.922 18.8517 50.922 18.2855C50.922 17.2995 50.0262 16.6126 49.0658 16.8622ZM26.8376 28.7243C29.8673 32.436 32.6823 35.6405 34.0893 36.9797C34.5798 37.4466 35.1898 39.1016 35.2544 40.1412C35.3115 41.0616 35.3023 41.1005 34.9407 41.4536C34.5525 41.8325 33.8545 42.0851 33.1919 42.0862C32.712 42.0871 31.6007 41.7715 30.9301 41.4439C30.1292 41.0526 28.5967 39.8838 28.5967 39.6643C28.5967 39.5544 28.1942 38.2671 27.7023 36.8039C27.0208 34.7763 24.9953 28.3426 24.2283 25.7685C24.1634 25.5504 24.1761 25.5434 24.3402 25.7069C24.4421 25.8085 25.566 27.1663 26.8376 28.7243ZM7.71174 28.8892C6.95949 29.3482 6.82214 30.4882 7.44573 31.0971C7.8462 31.488 8.41707 31.6046 10.3956 31.6993L12.0603 31.7791L12.5083 31.3417C12.9027 30.9565 12.9563 30.8301 12.9563 30.2856C12.9563 29.8035 12.8859 29.5852 12.6376 29.297C12.2526 28.8503 12.109 28.8207 9.86608 28.7265C8.26382 28.6591 8.06428 28.6742 7.71174 28.8892ZM50.7709 29.2849C49.5562 29.3905 49.059 29.6046 48.7173 30.1694C48.3297 30.8101 48.6597 31.7948 49.3847 32.1608C49.6692 32.3044 49.9789 32.3177 50.9917 32.2294C51.6818 32.1692 52.7769 32.1179 53.4252 32.1156C54.7632 32.1105 55.2245 31.9337 55.4818 31.3274C55.8172 30.5367 55.5322 29.6685 54.82 29.3111C54.4829 29.142 52.5603 29.1296 50.7709 29.2849ZM31.129 38.1554C30.6048 38.6672 30.5757 39.5364 31.0638 40.1028C32.0897 41.2934 33.9675 40.0556 33.3444 38.5995C33.1045 38.0389 32.6908 37.7764 32.0469 37.7764C31.6234 37.7764 31.4392 37.8526 31.129 38.1554ZM43.4171 43.7557C45.9839 43.8578 50.0563 43.9762 52.4671 44.019C54.8779 44.0618 56.8502 44.1249 56.8502 44.1593C56.8502 44.1936 56.5597 44.7529 56.2046 45.402C51.5491 53.9129 42.1114 59.206 31.5922 59.206C27.646 59.206 24.2291 58.5964 20.7815 57.2772C14.6055 54.9141 9.87301 50.7069 6.91838 44.9526C6.56256 44.2596 6.27132 43.6555 6.27132 43.6102C6.27132 43.5201 10.1383 43.6055 18.38 43.878C25.261 44.1054 28.1752 44.1062 28.5927 43.8804C28.8746 43.7281 28.9822 43.75 29.7279 44.1113C32.2217 45.3198 34.979 45.2572 36.7241 43.9525C37.2934 43.5268 37.3971 43.4937 38.0461 43.5303C38.4334 43.5522 40.8504 43.6536 43.4171 43.7557Z" fill="#FF6754"/>
</svg>
