<svg width="53" height="78" viewBox="0 0 53 78" fill="none" xmlns="http://www.w3.org/2000/svg">
<path fill-rule="evenodd" clip-rule="evenodd" d="M10.42 1.05926C7.748 2.35526 5 7.01126 5 10.2423C5 11.6273 6.165 14.1453 7.589 15.8373C9.814 18.4823 10.848 18.9143 14.954 18.9143C23.79 18.9143 27.243 13.4433 23.452 5.45426C21.114 0.527261 15.451 -1.38274 10.42 1.05926ZM20.602 4.42526C22.637 6.46026 23.056 7.74126 22.807 11.1683C22.551 14.7023 22.025 15.6263 19.617 16.7753C17.323 17.8703 15.947 17.9153 12.883 16.9973C6.646 15.1283 4.948 8.87526 9.455 4.36926C12.726 1.09726 17.297 1.12126 20.602 4.42526ZM36.338 8.39026C33.444 10.4173 32.51 16.0663 34.449 19.8153C36.399 23.5863 39.104 24.4293 42.92 22.4553C49.571 19.0163 49.777 11.5193 43.316 8.07726C40.43 6.54126 38.879 6.61026 36.338 8.39026ZM43.777 10.4713C46.929 12.6783 46.73 17.1953 43.365 19.8413C41.916 20.9813 40.141 21.9143 39.422 21.9143C37.676 21.9143 35 17.9803 35 15.4143C35 12.6003 37.741 8.91426 39.834 8.91426C40.781 8.91426 42.555 9.61526 43.777 10.4713ZM6.404 22.2733C2.33 24.1353 0 29.9863 0 38.3523C0 46.0423 0.608 47.9143 3.107 47.9143C4.709 47.9143 5 47.1543 5 42.9793C5 40.2653 5.535 36.7773 6.189 35.2293C7.3 32.6023 7.429 32.9143 8.136 39.9143C8.553 44.0393 8.849 54.1643 8.795 62.4143C8.699 76.9603 8.761 77.4243 10.813 77.7293C13.415 78.1163 13.903 76.3633 14.248 65.4143C14.448 59.0813 14.813 57.4143 16 57.4143C17.21 57.4143 17.555 59.2803 17.785 67.0703C18.02 75.0433 18.365 76.8403 19.759 77.3753C20.756 77.7573 21.907 77.3953 22.569 76.4893C23.974 74.5673 25.256 47.6413 24.352 39.0073C23.856 34.2643 23.983 32.7863 24.841 33.3163C25.524 33.7383 26 36.6553 26 40.4143C26 46.7163 27.365 49.5263 29.096 46.7923C30.347 44.8183 30.204 30.7973 28.895 27.0423C28.287 25.2983 26.896 23.3933 25.804 22.8093C22.463 21.0213 9.901 20.6743 6.404 22.2733ZM26.165 25.8693C27.174 27.1163 28 29.5223 28 31.2163C28 33.8863 27.834 34.0783 26.75 32.6603C26.063 31.7603 24.885 30.8873 24.133 30.7193C23.016 30.4703 22.722 34.3623 22.524 52.0323C22.263 75.2893 20.847 83.3573 20 66.4143L19.5 56.4143L15.75 56.1043L12 55.7933V65.8543C12 71.3873 11.662 75.9143 11.25 75.9133C10.838 75.9123 10.5 65.3383 10.5 52.4153C10.5 39.4923 10.247 28.9173 9.937 28.9163C9.627 28.9153 8.197 30.1523 6.759 31.6643C4.913 33.6043 3.863 36.1813 3.192 40.4143L2.241 46.4143L2.121 39.1323C1.991 31.2883 3.617 25.8553 6.656 23.9823C7.781 23.2893 11.588 22.9933 16.415 23.2243C23.175 23.5473 24.597 23.9333 26.165 25.8693ZM35.298 27.1133C32.51 28.4603 32.269 29.6293 32.77 39.4143C33.044 44.7553 32.651 49.3953 31.59 53.3743C29.876 59.8003 29.501 69.5783 30.885 71.7623C31.355 72.5043 32.586 72.9493 33.62 72.7513C35.262 72.4373 35.537 71.2843 35.789 63.6533C36.016 56.7873 36.391 54.9143 37.539 54.9143C38.597 54.9143 39 56.1173 39 59.2743C39 67.8123 40.133 72.9143 42.029 72.9143C42.995 72.9143 44.059 72.2023 44.393 71.3323C44.727 70.4623 45 62.2873 45 53.1663C45 37.1143 45.905 32.5643 46.978 43.2253C47.412 47.5443 47.855 48.4653 49.615 48.7163C51.286 48.9543 51.862 48.3523 52.365 45.8413C54.059 37.3703 52.218 29.5953 48.003 27.4163C44.68 25.6973 38.532 25.5513 35.298 27.1133ZM48.083 29.7803C49.972 31.3103 50.465 32.8593 50.816 38.3593C51.337 46.5413 49.576 49.4293 48.68 41.8623C47.993 36.0553 46.319 33.1953 44.61 34.9043C43.957 35.5573 43.386 42.8333 43.154 53.4363C42.941 63.2293 42.384 70.6523 41.887 70.3443C41.399 70.0433 41 65.9983 41 61.3553V52.9143L37.75 52.9123L34.5 52.9103V41.3783C34.5 28.3823 34.727 27.9553 41.639 27.9293C44.209 27.9203 46.653 28.6223 48.083 29.7803ZM34 62.4143C34 67.4143 33.588 70.9143 33 70.9143C31.916 70.9143 31.639 59.8633 32.63 56.1643C33.683 52.2373 34 53.6843 34 62.4143Z" fill="#0E616C"/>
</svg>
