<svg width="92" height="90" viewBox="0 0 92 90" fill="none" xmlns="http://www.w3.org/2000/svg">
<path fill-rule="evenodd" clip-rule="evenodd" d="M8 5C11.1066 5 14.0685 4.47374 16.8559 3.97671L16.8806 3.97232C19.7003 3.46951 22.3333 3 25 3H42.5C43.3284 3 44 2.32843 44 1.5C44 0.671573 43.3284 0 42.5 0H25C22.0661 0 19.2096 0.509524 16.4747 0.997363L16.3293 1.02329C13.5087 1.52626 10.8008 2 8 2C7.01471 2 5.25045 2.20705 3.70346 2.65116C2.93455 2.87191 2.11238 3.18067 1.44974 3.61983C0.826313 4.033 0 4.80156 0 6C0 7.56446 0.264926 9.03088 0.506403 10.3675L0.523864 10.4642C0.776175 11.8617 1 13.1379 1 14.5C1 17.3594 1.3776 20.2059 1.73873 22.9283C1.83964 23.6891 1.93928 24.4402 2.02903 25.1792C2.44772 28.6267 2.67149 31.9137 2.02776 35.2127C1.86911 36.0258 2.39964 36.8136 3.21273 36.9722C4.02583 37.1309 4.81358 36.6004 4.97224 35.7873C5.71007 32.0059 5.43384 28.3309 5.00714 24.8175C4.90848 24.0051 4.80269 23.2059 4.69811 22.4158C4.34211 19.7262 4 17.1416 4 14.5C4 12.8329 3.72433 11.3059 3.47681 9.93492L3.47614 9.93118C3.23501 8.5956 3.02264 7.41485 3.00169 6.19598C3.02805 6.17521 3.06254 6.14999 3.10704 6.1205C3.39955 5.92664 3.88607 5.71992 4.53128 5.53469C5.81255 5.16686 7.29828 5 8 5ZM2.9257 6.26691C2.92511 6.26686 2.92827 6.26219 2.93696 6.25305C2.93064 6.26239 2.92629 6.26696 2.9257 6.26691Z" fill="#0E616C"/>
<path d="M91 72.5C91 71.6716 90.3284 71 89.5 71C88.6716 71 88 71.6716 88 72.5C88 73.7881 88.0856 75.2123 88.1697 76.6111C88.2155 77.3738 88.261 78.1296 88.2918 78.851C88.3829 80.9845 88.3597 82.9667 87.9802 84.6746C87.8824 85.1145 87.5748 85.5073 86.7494 85.8349C85.8892 86.1764 84.6822 86.3462 83.2571 86.3848C81.8548 86.4227 80.3663 86.332 78.9948 86.2266C78.7098 86.2047 78.4251 86.1817 78.1451 86.159C77.1322 86.077 76.1807 86 75.5 86C74.6716 86 74 86.6716 74 87.5C74 88.3284 74.6716 89 75.5 89C76.0477 89 76.8228 89.0625 77.8036 89.1416C78.1047 89.1658 78.4256 89.1917 78.7648 89.2178C80.1537 89.3245 81.7717 89.426 83.3382 89.3837C84.882 89.3419 86.5063 89.1591 87.8562 88.6233C89.2409 88.0737 90.5223 87.0644 90.9087 85.3254C91.3777 83.2152 91.3823 80.9058 91.289 78.723C91.253 77.8792 91.2038 77.0693 91.1563 76.2859C91.0759 74.9605 91 73.7107 91 72.5Z" fill="#0E616C"/>
<path d="M84.5 7.5H8.5V83.5H84.5V7.5Z" fill="#0E616C"/>
<path d="M52.4272 13.5575C47.9997 14.0558 43.8214 16.0371 40.7114 19.11L39.8686 19.9524H20.0099L19.725 20.249C19.4282 20.5337 19.4282 20.5574 19.4282 22.7998C19.4282 25.0421 19.4282 25.0659 19.725 25.3506C19.8793 25.5167 20.1523 25.6472 20.3185 25.6472C20.4847 25.6472 20.7577 25.5167 20.912 25.3506C21.1969 25.0777 21.2087 25.0065 21.2087 23.393V21.732H38.4442L38.2305 22.0523C37.7795 22.7405 37.1029 23.8913 36.9129 24.2828L36.7111 24.6981H31.0491C25.5057 24.6981 25.387 24.6981 25.0784 24.9472C24.6867 25.2557 24.6511 25.8845 25.0072 26.2404C25.2327 26.4658 25.3989 26.4777 30.598 26.4777C35.631 26.4777 35.9396 26.4896 35.8802 26.6794C35.8446 26.798 35.7141 27.2726 35.5716 27.7472L35.3105 28.6014L30.2894 28.637C25.5413 28.6726 25.2565 28.6845 25.0191 28.898C24.6748 29.2065 24.6748 29.9183 25.0191 30.2268C25.2565 30.4404 25.5413 30.4522 30.1232 30.4878L34.9781 30.5234L34.9069 31.437C34.8713 31.9353 34.8238 32.4217 34.7882 32.4929C34.7526 32.6115 33.6961 32.6471 29.9926 32.6471C25.3989 32.6471 25.2327 32.659 25.0072 32.8844C24.6511 33.2403 24.6867 33.8691 25.0784 34.1776C25.387 34.4149 25.5176 34.4268 30.1114 34.4268H34.8357L34.9188 35.1623C35.1087 37.0725 35.6666 39.2081 36.45 41.0352C36.6162 41.4385 36.7586 41.8063 36.7586 41.8419C36.7586 41.8775 36.3907 41.9012 35.9396 41.9012C35.2393 41.9012 35.0612 41.9487 34.7763 42.186L34.444 42.4707L34.4083 55.5096C34.3846 62.6756 34.4083 68.762 34.444 69.0467C34.5864 70.0433 34.4558 70.0196 38.8478 70.0196C41.2218 70.0196 42.8005 69.9721 42.9311 69.9009C43.0617 69.8297 43.216 69.5806 43.2872 69.3314C43.3584 69.0467 43.4059 65.5349 43.4059 59.1994V49.5062L44.3674 50.0876C44.9015 50.4079 45.4357 50.7045 45.5544 50.7401C45.7681 50.8113 45.7799 51.0961 45.7799 59.8519C45.7799 65.7366 45.8274 69.0467 45.8986 69.3314C45.9699 69.5806 46.1242 69.8297 46.2547 69.9009C46.5515 70.067 54.0297 70.067 54.3264 69.9009C54.457 69.8297 54.6113 69.5806 54.6825 69.3314C54.7538 69.0467 54.8012 66.0688 54.8012 60.9315V52.9706L55.3473 52.8876C55.6559 52.852 56.107 52.8164 56.3562 52.8164H56.8192V66.8281L57.1159 67.1128C57.4839 67.4925 57.935 67.4925 58.3029 67.1128L58.5997 66.8281V52.4842L59.2288 52.3418C61.3417 51.8435 63.4783 50.9181 65.3538 49.6961L66.5171 48.9249L71.1939 53.5994C74.3158 56.7316 76.0369 58.357 76.3693 58.5231C78.1142 59.3655 80.2152 58.0485 80.2034 56.1146C80.1915 55.0587 79.9897 54.8096 75.0161 49.8266L70.3155 45.1165L70.9803 44.1199C71.7993 42.9097 72.9507 40.5369 73.3661 39.2081C74.0665 36.9657 74.1971 35.9928 74.2089 33.2403C74.2089 30.4404 74.0902 29.5505 73.4255 27.3794C72.832 25.4336 71.4194 22.5625 70.8497 22.1116C70.5885 21.91 70.1019 21.9337 69.7814 22.1591C69.354 22.4557 69.4371 23.0133 70.0544 24.093C72.6421 28.5302 73.2 33.9641 71.5738 38.8521C68.7012 47.513 59.8342 52.5791 50.8248 50.7401C44.7591 49.4944 39.56 44.891 37.5421 38.9352C36.4856 35.8149 36.3432 31.8048 37.1622 28.637C38.7291 22.6455 43.5246 17.6744 49.4003 15.9778C55.3948 14.2456 61.6741 15.5863 66.2678 19.5846C67.7634 20.8896 67.9534 20.9608 68.4994 20.5337C68.7249 20.3557 68.808 20.1778 68.808 19.893C68.808 19.5608 68.6774 19.3829 67.9652 18.7185C63.8938 14.8626 58.0299 12.9287 52.4272 13.5575ZM38.4917 44.6538C38.8715 45.1995 39.7024 46.1724 40.3434 46.8368L41.5067 48.0351V68.2399H36.2838V43.6809H37.8032L38.4917 44.6538ZM73.8291 51.1316C77.8175 55.1299 78.4228 55.7824 78.4228 56.0909C78.411 56.7316 77.8175 57.1587 77.2358 56.9451C77.0696 56.8858 74.8974 54.7977 72.4047 52.3062L67.8584 47.7741L68.4757 47.1571C68.8199 46.8131 69.1285 46.5283 69.1641 46.5283C69.1997 46.5283 71.3007 48.6046 73.8291 51.1316ZM49.1036 52.1401C50.1125 52.4367 52.0949 52.8164 52.629 52.8164H52.902V68.2399H47.6792V59.9824C47.6792 52.1757 47.691 51.7249 47.8928 51.7842C47.9997 51.8079 48.5457 51.974 49.1036 52.1401Z" fill="white"/>
<path d="M52.3085 17.1642C46.6346 17.9354 41.7678 21.7201 39.6075 26.9997C38.7528 29.0997 38.4205 30.82 38.4205 33.181C38.4205 36.5623 39.2632 39.4097 41.0912 42.1385C43.5721 45.8283 47.1925 48.213 51.6557 49.091C53.2344 49.3995 56.1307 49.3757 57.7332 49.0317C60.9263 48.3673 63.6089 46.9436 65.8761 44.7131C68.998 41.6521 70.7073 37.5708 70.7073 33.181C70.7073 30.8319 70.2206 28.5065 69.3066 26.537C66.2678 19.9286 59.4781 16.1795 52.3085 17.1642ZM57.5907 19.11C62.6118 20.2252 66.5527 23.7252 68.1908 28.5539C69.271 31.7217 69.1523 35.5894 67.8584 38.6979C65.4725 44.4639 59.395 48.1181 53.2344 47.5012C48.1184 46.9791 43.8807 44.0605 41.5898 39.4691C39.7262 35.72 39.7262 30.6183 41.5898 26.8929C43.4178 23.2625 46.4328 20.6642 50.2906 19.4184C52.3679 18.7422 55.371 18.6117 57.5907 19.11Z" fill="white"/>
<path d="M19.6775 28.0912L19.4282 28.4116V73.5907L19.725 73.8755L20.0099 74.1721H58.0181L58.3029 73.8755C58.5878 73.6026 58.5997 73.5314 58.5997 71.9179C58.5997 69.8535 58.481 69.545 57.6857 69.545C57.4245 69.545 57.2346 69.6399 57.0684 69.8535C56.8548 70.1264 56.8192 70.3399 56.8192 71.2772V72.3924H21.2087V28.4116L20.9595 28.0912C20.7814 27.8658 20.6034 27.7828 20.3185 27.7828C20.0336 27.7828 19.8555 27.8658 19.6775 28.0912Z" fill="white"/>
<path d="M25.0785 36.8115C24.6868 37.1199 24.6512 37.7488 25.0073 38.1047C25.2328 38.3301 25.399 38.342 28.9244 38.342C32.4499 38.342 32.616 38.3301 32.8416 38.1047C33.2333 37.7132 33.1977 37.2149 32.7704 36.8233C32.4736 36.5623 32.438 36.5623 28.9363 36.5623C25.5296 36.5623 25.3871 36.5742 25.0785 36.8115Z" fill="white"/>
<path d="M23.2859 49.5893L23.2503 59.0688C23.2266 64.2772 23.2503 68.7619 23.2859 69.0467C23.4284 70.0551 23.2978 70.0196 27.7372 70.0196C32.1767 70.0196 32.0461 70.0551 32.1886 69.0467C32.2242 68.7619 32.2479 64.2772 32.2242 59.0688L32.1886 49.5893L31.5238 49.0198H23.9507L23.2859 49.5893ZM30.3487 68.2399H25.1258V50.7994H30.3487V68.2399Z" fill="white"/>
</svg>
