<svg width="92" height="90" viewBox="0 0 92 90" fill="none" xmlns="http://www.w3.org/2000/svg">
<path fill-rule="evenodd" clip-rule="evenodd" d="M8 5C11.1066 5 14.0685 4.47374 16.8559 3.97671L16.8806 3.97232C19.7003 3.46951 22.3333 3 25 3H42.5C43.3284 3 44 2.32843 44 1.5C44 0.671573 43.3284 0 42.5 0H25C22.0661 0 19.2096 0.509524 16.4747 0.997363L16.3293 1.02329C13.5087 1.52626 10.8008 2 8 2C7.01471 2 5.25045 2.20705 3.70346 2.65116C2.93455 2.87191 2.11238 3.18067 1.44974 3.61983C0.826313 4.033 0 4.80156 0 6C0 7.56446 0.264926 9.03088 0.506403 10.3675L0.523864 10.4642C0.776175 11.8617 1 13.1379 1 14.5C1 17.3594 1.3776 20.2059 1.73873 22.9283C1.83964 23.6891 1.93928 24.4402 2.02903 25.1792C2.44772 28.6267 2.67149 31.9137 2.02776 35.2127C1.86911 36.0258 2.39964 36.8136 3.21273 36.9722C4.02583 37.1309 4.81358 36.6004 4.97224 35.7873C5.71007 32.0059 5.43384 28.3309 5.00714 24.8175C4.90848 24.0051 4.80269 23.2059 4.69811 22.4158C4.34211 19.7262 4 17.1416 4 14.5C4 12.8329 3.72433 11.3059 3.47681 9.93492L3.47614 9.93118C3.23501 8.5956 3.02264 7.41485 3.00169 6.19598C3.02805 6.17521 3.06254 6.14999 3.10704 6.1205C3.39955 5.92664 3.88607 5.71992 4.53128 5.53469C5.81255 5.16686 7.29828 5 8 5ZM2.9257 6.26691C2.92511 6.26686 2.92827 6.26219 2.93696 6.25305C2.93064 6.26239 2.92629 6.26696 2.9257 6.26691Z" fill="#0E616C"/>
<path d="M91 72.5C91 71.6716 90.3284 71 89.5 71C88.6716 71 88 71.6716 88 72.5C88 73.7881 88.0856 75.2123 88.1697 76.6111C88.2155 77.3738 88.261 78.1296 88.2918 78.851C88.3829 80.9845 88.3597 82.9667 87.9802 84.6746C87.8824 85.1145 87.5748 85.5073 86.7494 85.8349C85.8892 86.1764 84.6822 86.3462 83.2571 86.3848C81.8548 86.4227 80.3663 86.332 78.9948 86.2266C78.7098 86.2047 78.4251 86.1817 78.1451 86.159C77.1322 86.077 76.1807 86 75.5 86C74.6716 86 74 86.6716 74 87.5C74 88.3284 74.6716 89 75.5 89C76.0477 89 76.8228 89.0625 77.8036 89.1416C78.1047 89.1658 78.4256 89.1917 78.7648 89.2178C80.1537 89.3245 81.7717 89.426 83.3382 89.3837C84.882 89.3419 86.5063 89.1591 87.8562 88.6233C89.2409 88.0737 90.5223 87.0644 90.9087 85.3254C91.3777 83.2152 91.3823 80.9058 91.289 78.723C91.253 77.8792 91.2038 77.0693 91.1563 76.2859C91.0759 74.9605 91 73.7107 91 72.5Z" fill="#0E616C"/>
<path d="M84.5 7.5H8.5V83.5H84.5V7.5Z" fill="#0E616C"/>
<path fill-rule="evenodd" clip-rule="evenodd" d="M61.8484 14.4637C61.5869 14.4894 60.7908 14.5669 60.0795 14.6358C53.4985 15.2727 46.7105 17.8384 41.2088 21.7682L39.9424 22.6727L38.8982 22.3942C35.2288 21.4156 31.657 21.9444 28.2237 23.9749C27.4025 24.4606 26.5967 25.2029 22.7168 29.0475C17.9278 33.793 17.8271 33.9159 18.171 34.5923C18.2492 34.746 20.4318 36.9939 23.0213 39.5874L27.7296 44.303L27.2192 48.1062L26.709 51.9094L26.9473 52.2941C27.0784 52.5057 27.3514 52.8371 27.5539 53.0306L27.9221 53.3825L25.3898 55.9391C20.6628 60.7117 20.5465 60.8409 20.5465 61.3262C20.5465 61.8134 21.0354 62.4462 21.4379 62.4799C22.1739 62.5416 22.2338 62.4927 25.9489 58.7941L29.644 55.1157L32.5829 58.0529L35.5218 60.99L30.5183 65.9753C27.7663 68.7172 25.4447 71.1207 25.359 71.3166C25.0226 72.0868 25.5615 72.9192 26.3966 72.9192C26.849 72.9192 26.9762 72.8124 29.9164 69.9605C31.5941 68.3332 33.9263 66.0388 35.0992 64.8616L37.2315 62.7215L37.7446 63.1938C38.0268 63.4537 38.3948 63.7183 38.5622 63.7819C38.7859 63.8668 39.8605 63.7644 42.6054 63.3963L46.344 62.8953L51.0655 67.5981C53.6622 70.1846 55.9128 72.3647 56.0667 72.4428C56.744 72.7863 56.867 72.6857 61.6182 67.9024C65.4674 64.0272 66.2106 63.2223 66.6968 62.4021C68.7297 58.9729 69.2592 55.4053 68.2794 51.7403L68.0006 50.6974L68.9062 49.4326C72.8331 43.948 75.2485 37.5974 76.0698 30.5982C76.2675 28.9136 76.2675 23.973 76.0698 22.2884C75.7067 19.1933 75.0907 16.3913 74.6841 15.9852C74.2982 15.5997 71.4559 14.9758 68.5043 14.6286C67.395 14.498 62.6827 14.3813 61.8484 14.4637ZM68.8051 17.0657C69.6241 17.1682 70.8803 17.3711 71.5964 17.5165L72.8984 17.7807L73.1641 19.0849C73.6767 21.6016 73.8441 23.4166 73.8371 26.3839C73.8281 30.2457 73.4228 33.151 72.4047 36.6521C70.5559 43.0099 67.1942 48.5904 62.4282 53.2138C58.7673 56.7649 55.017 59.2071 50.3904 61.0525L48.5595 61.7828L38.7016 51.9367L28.8437 42.0905L29.5749 40.2619C30.976 36.7577 32.8053 33.644 35.2174 30.6576C36.2034 29.4367 38.6963 26.8904 39.9198 25.8541C46.2087 20.528 53.8278 17.4384 62.1455 16.8415C63.4198 16.7501 67.3369 16.882 68.8051 17.0657ZM37.1657 24.4451L37.6801 24.5143L36.1481 26.0723C32.1425 30.1459 29.3156 34.4396 27.3258 39.472C27.1774 39.8474 27.0216 40.1546 26.9797 40.1546C26.9378 40.1546 25.5527 38.8046 23.9015 37.1545L20.8996 34.1545L24.6156 30.4648C26.6593 28.4355 28.6524 26.5608 29.0446 26.2991C31.5854 24.6025 34.0874 24.0314 37.1657 24.4451ZM53.987 29.5172C49.7941 30.6451 46.1947 31.6378 45.9885 31.723C45.7823 31.8084 45.5307 32.0383 45.4294 32.234C45.0996 32.8709 45.2788 33.2149 46.6632 34.6026L47.9342 35.8768L45.4889 38.3421C43.8692 39.9752 43.0244 40.9129 42.9866 41.12C42.8331 41.9598 43.5609 42.7169 44.3768 42.5658C44.8869 42.4714 50.6792 36.6878 50.7685 36.1838C50.8657 35.6351 50.6712 35.2957 49.6969 34.3127C49.0698 33.6802 48.8423 33.3788 48.9602 33.337C49.4732 33.1554 60.2867 30.3047 60.3234 30.3413C60.3598 30.3777 57.5107 41.153 57.3227 41.6904C57.2816 41.8078 56.978 41.579 56.3466 40.9546C55.3626 39.9815 55.0228 39.7873 54.4734 39.884C54.0093 39.9658 44.2531 49.6572 44.1327 50.1561C43.9123 51.0694 44.6849 51.8398 45.5951 51.6145C45.81 51.5613 47.4385 50.023 50.3501 47.1231L54.7781 42.7125L56.0551 43.9789C56.8097 44.7273 57.4666 45.2779 57.6611 45.325C58.1077 45.4334 58.6724 45.1796 58.8809 44.7769C59.1319 44.2921 63.2152 28.9899 63.2152 28.5341C63.2152 27.964 62.6654 27.4501 62.0656 27.4595C61.8154 27.4634 58.1801 28.3893 53.987 29.5172ZM39.5992 44.3329C39.3136 44.4707 38.9689 45.0956 38.9689 45.4757C38.9689 45.8298 39.5163 46.4171 39.9308 46.5081C40.4066 46.6125 40.8962 46.3986 41.145 45.9778C41.7574 44.9426 40.6897 43.8067 39.5992 44.3329ZM44.1641 60.7629C44.1503 60.7751 43.0769 60.9318 41.7787 61.111L39.4182 61.437L34.3047 56.3296L29.1914 51.2224L29.5226 48.8233L29.8538 46.4244L37.0214 53.5826C40.9636 57.5197 44.1777 60.7508 44.1641 60.7629ZM66.3246 55.2311C66.3454 57.6286 65.775 59.4817 64.3698 61.5822C64.1077 61.9739 62.2309 63.9646 60.1992 66.0059L56.5051 69.7174L53.5015 66.7191C51.8494 65.07 50.4978 63.6865 50.4978 63.6446C50.4978 63.6028 50.8053 63.4472 51.1812 63.2989C56.2615 61.295 60.9955 58.1541 64.9386 54.1711L66.1272 52.9705L66.2194 53.3589C66.2702 53.5724 66.3175 54.4149 66.3246 55.2311ZM17.9911 63.5344C17.5508 63.7145 17.2834 64.1288 17.2834 64.631C17.2834 65.0196 17.3552 65.1725 17.6689 65.4524C17.8808 65.6417 18.1846 65.7965 18.344 65.7965C19.6165 65.7965 20.065 64.1406 18.9372 63.606C18.5086 63.4029 18.3435 63.3904 17.9911 63.5344ZM25.479 63.6015C25.075 63.814 16.3103 72.4919 15.7803 73.2041C15.313 73.832 15.3294 74.2613 15.8399 74.7711C16.3501 75.2808 16.7799 75.2973 17.4088 74.8313C18.2315 74.2217 26.9461 65.395 27.0818 65.0339C27.4529 64.0459 26.4085 63.1125 25.479 63.6015Z" fill="white"/>
</svg>
