<svg width="37" height="37" viewBox="0 0 37 37" fill="none" xmlns="http://www.w3.org/2000/svg">
<path fill-rule="evenodd" clip-rule="evenodd" d="M35.8797 25.854C35.046 24.1745 33.9473 22.6405 32.626 21.3106C32.1764 20.7879 31.6491 20.2721 31.2376 19.8694L31.1801 19.8131C30.9678 19.6054 30.7924 19.4329 30.6488 19.2843C32.4555 16.7721 34.0018 14.082 35.2635 11.2556L35.3144 11.1416L35.3501 11.0219C35.5159 10.4656 35.7069 9.4077 35.0313 8.45167C34.333 7.46354 33.2148 7.28533 32.4661 7.28533H29.0214C28.3032 7.25241 27.5921 7.44655 26.9896 7.84125C26.3826 8.23893 25.9182 8.81899 25.6627 9.49706C24.9208 11.2641 23.9926 12.9449 22.8949 14.5113V10.4745C22.8949 9.95267 22.8458 9.07978 22.287 8.34302C21.618 7.46087 20.6506 7.28533 19.979 7.28533H14.513C13.8088 7.26904 13.1239 7.52085 12.5976 7.99088C12.0586 8.47225 11.7282 9.14465 11.6767 9.86549L11.6718 9.93378V10.0022C11.6718 10.7465 11.9667 11.2955 12.2023 11.6407C12.3078 11.7953 12.4206 11.936 12.4919 12.0249L12.5083 12.0454C12.5843 12.1402 12.6351 12.2034 12.686 12.2726C12.8199 12.4548 13.0125 12.7356 13.067 13.4624V15.7204C12.1247 14.1714 11.1306 12.11 10.3827 9.90843L10.3712 9.87464L10.3585 9.84131C10.172 9.35286 9.87284 8.64217 9.27376 8.09831C8.5739 7.46296 7.74611 7.28533 6.99329 7.28533H3.49815C2.73654 7.28533 1.81839 7.4635 1.1333 8.18619C0.459602 8.89687 0.383301 9.74843 0.383301 10.2012V10.4053L0.426284 10.6048C1.39438 15.0982 3.38914 19.306 6.25384 22.8993C7.55262 24.9476 9.3125 26.6643 11.3935 27.9121C13.5076 29.1797 15.8927 29.927 18.3523 30.0923L18.4164 30.0966H18.4807C19.5934 30.0966 20.7534 30.0005 21.6257 29.4193C22.8024 28.6351 22.8949 27.4308 22.8949 26.8307V25.0862C23.1968 25.3304 23.5715 25.659 24.0302 26.1005C24.5847 26.6556 25.0261 27.1364 25.4048 27.5562L25.6069 27.7809L25.6081 27.7822C25.9021 28.1096 26.1916 28.4319 26.4551 28.6969C26.7864 29.0299 27.1948 29.3968 27.7081 29.6679C28.264 29.9614 28.8475 30.0942 29.4672 30.0942H32.9647C33.7015 30.0942 34.7584 29.9199 35.5014 29.0585C36.3112 28.1197 36.2493 26.969 35.9947 26.1422L35.9489 25.9934L35.8797 25.854ZM27.1122 26.0159C26.7184 25.5794 26.2437 25.062 25.6437 24.4621L25.6387 24.4572C23.5599 22.4529 22.5885 22.1037 21.9016 22.1037C21.5363 22.1037 21.1321 22.1447 20.8698 22.4715C20.7459 22.6257 20.6809 22.8117 20.6444 23.0057C20.608 23.1993 20.5954 23.4266 20.5954 23.6855V26.8307C20.5954 27.2213 20.5312 27.3853 20.3505 27.5057C20.1099 27.6661 19.5955 27.7961 18.4936 27.7971C16.4021 27.6545 14.374 27.018 12.576 25.9399C10.7742 24.8596 9.25487 23.3667 8.14312 21.5841L8.13102 21.5647L8.1167 21.5469C5.44735 18.2245 3.5873 14.3269 2.68325 10.1624C2.68815 9.96162 2.73165 9.84252 2.80212 9.76818C2.87474 9.69158 3.05069 9.58482 3.49815 9.58482H6.99329C7.3821 9.58482 7.58332 9.66939 7.72813 9.80086C7.89231 9.94991 8.03471 10.203 8.20771 10.655C9.06559 13.1782 10.2257 15.538 11.3243 17.273C11.8734 18.1403 12.4138 18.8621 12.9006 19.3722C13.1437 19.6269 13.382 19.8379 13.6095 19.9879C13.8297 20.1331 14.0793 20.2476 14.336 20.2476C14.4714 20.2476 14.6298 20.2337 14.7824 20.1662C14.9465 20.0935 15.0738 19.9724 15.1638 19.8102C15.3229 19.5232 15.3665 19.098 15.3665 18.5411V13.3846L15.3657 13.3725C15.2862 12.118 14.9075 11.4123 14.5387 10.9106C14.4578 10.8007 14.3781 10.7014 14.3084 10.6145L14.2893 10.5906C14.2127 10.4951 14.1518 10.418 14.1017 10.3446C14.0099 10.2101 13.9744 10.1164 13.9715 10.0159C13.9834 9.89669 14.0396 9.78605 14.1293 9.706C14.2223 9.6229 14.3441 9.57965 14.4687 9.58482H19.979C20.2949 9.58482 20.4013 9.6619 20.4548 9.73251C20.5304 9.83219 20.5954 10.0395 20.5954 10.4745V17.4168C20.5954 18.2415 20.9755 18.7997 21.5276 18.7997C22.1628 18.7997 22.6208 18.4143 23.4215 17.6135L23.4349 17.6001L23.4469 17.5855C25.2417 15.3967 26.7086 12.9584 27.8004 10.3469L27.8074 10.3273C27.8895 10.0965 28.0449 9.89895 28.2497 9.76473C28.4546 9.63051 28.6978 9.56701 28.9421 9.58391L28.9553 9.58482H32.4661C32.9449 9.58482 33.1024 9.70668 33.1534 9.77873C33.2075 9.85541 33.2452 10.0197 33.1531 10.342C31.8944 13.1572 30.3378 15.8294 28.5107 18.3137L28.4992 18.3313C28.3218 18.6026 28.1272 18.9027 28.0991 19.2474C28.0688 19.6174 28.229 19.9539 28.5092 20.3145C28.7133 20.6164 29.1345 21.0286 29.5617 21.4468L29.602 21.4862C30.0499 21.9246 30.5352 22.3995 30.9247 22.8593L30.9351 22.8716L30.9465 22.8829C32.1077 24.0412 33.0733 25.3802 33.8057 26.8476C33.9225 27.2471 33.851 27.4513 33.7602 27.5566C33.6538 27.6799 33.4157 27.7947 32.9647 27.7947H29.4672C29.1941 27.7947 28.9833 27.7409 28.7819 27.6345C28.572 27.5237 28.3561 27.3473 28.0854 27.0752C27.8674 26.856 27.6292 26.5909 27.3386 26.2675C27.2666 26.1873 27.1912 26.1034 27.1122 26.0159Z" fill="white"/>
</svg>
