<svg width="30" height="30" viewBox="0 0 30 30" fill="none" xmlns="http://www.w3.org/2000/svg">
<rect width="30" height="30" fill="white"/>
<path d="M16.8 23.3729C20.7105 19.8889 24.7674 16.692 28.9516 13.7972L28.8484 15.4739C24.5746 12.0901 20.215 8.92338 15.7011 6.08769C16.0611 5.69572 16.4164 5.30156 16.7764 4.90958C17.5414 11.1282 17.2783 17.4879 16.0048 23.5634L15.1171 22.2087C17.1131 21.8835 18.8911 20.434 20.6678 19.2821C22.543 18.0522 24.4193 16.8251 26.2966 15.6007L26.9292 17.3335C23.7779 19.0229 20.6264 20.7226 17.4747 22.4326C16.7495 22.8256 16.0335 21.5642 16.6918 20.8696C19.2359 18.1555 22.1458 16.082 25.2726 14.7554C26.1196 14.3945 26.761 15.9683 25.8824 16.4256C23.7489 17.5799 21.617 18.7385 19.4866 19.9012L18.8631 18.1934C21.2256 17.1391 23.4652 15.6655 25.5186 13.8145L25.9407 15.5088C24.2945 15.4995 22.66 15.8706 21.1132 16.605L20.4653 14.8303C22.9699 13.7534 25.5636 13.0661 28.1922 12.7829L28.4576 14.7586C25.5327 14.9493 22.6046 14.4744 19.8049 13.3553L20.3261 11.4453C22.2213 12.6315 24.358 14.6512 23.3775 17.7469C23.3291 17.9123 23.2488 18.0586 23.1442 18.1715C23.0396 18.2845 22.9143 18.3603 22.7806 18.3917C22.6469 18.423 22.5092 18.4087 22.3809 18.3503C22.2527 18.2918 22.1382 18.1912 22.0486 18.0581C20.9267 16.2965 19.9972 14.3412 19.2866 12.2479C19.7666 12.2168 20.2405 12.169 20.7282 12.1485L18.5938 20.8792C18.3804 21.7589 17.4779 21.6985 17.1745 20.9751C16.6009 19.6638 16.2824 18.1895 16.2469 16.6809C16.2113 15.1724 16.4598 13.6754 16.9706 12.3207C17.2388 11.5914 18.0787 11.3834 18.3723 12.2306C18.9905 13.9878 19.4207 15.8471 19.6509 17.7566C19.1567 17.7811 18.6609 17.8118 18.1683 17.8405C18.272 15.4696 18.1937 13.0912 17.9345 10.7406C17.9134 10.5519 17.9345 10.3594 17.9952 10.1859C18.0558 10.0124 18.1535 9.86529 18.2766 9.76209C18.3996 9.65888 18.5428 9.60394 18.6892 9.6038C18.8355 9.60367 18.9788 9.65836 19.102 9.76134L23.8155 13.3591L22.6327 14.0919C22.6468 13.3663 20.6862 11.9902 20.2701 11.5721L17.6374 9.07635C16.9518 8.42587 17.4877 6.90091 18.3262 7.31335L24.3278 10.2514L23.8146 12.1616L18.8176 9.14392L19.6629 7.52971C21.0673 9.38485 22.2941 11.4546 23.3167 13.6937C23.3924 13.8985 23.4144 14.13 23.3792 14.3526C23.344 14.5752 23.2535 14.7765 23.1218 14.9255C22.5032 15.5135 21.9904 15.4011 21.3744 14.8765C20.7583 14.3519 20.8423 13.839 20.6006 14.9103C20.3744 16.1952 20.2781 17.5131 20.3142 18.8305L18.8274 18.1387C19.3098 17.4406 19.5876 16.5433 19.6121 15.6047L20.5477 16.7248C16.9071 17.0346 13.2635 17.3256 9.62578 17.654C9.44138 17.689 9.25342 17.6377 9.0953 17.5092C8.93717 17.3808 8.81911 17.1835 8.76207 16.9524C8.70504 16.7213 8.71272 16.4714 8.78375 16.247C8.85478 16.0226 8.98458 15.8382 9.15008 15.7266C12.2677 13.5438 15.8137 12.6197 19.336 13.0723C20.0399 13.1483 20.3726 14.6625 19.6022 14.9964C16.3321 16.4612 12.9316 17.3753 9.48353 17.7165C7.47067 17.8985 4.07969 18.6014 2.96493 15.6773C1.85016 12.7532 4.04232 11.4259 5.94074 11.5657C9.8786 11.8654 13.8167 12.2521 17.7524 12.589C18.6531 12.6659 18.6703 14.3602 17.8173 14.5968C13.2632 15.882 8.66714 17.1061 3.99741 16.2767C3.81343 16.2483 3.64318 16.1356 3.51709 15.9588C3.39099 15.782 3.31727 15.5525 3.30909 15.3114C3.30091 15.0703 3.3588 14.8333 3.47243 14.6427C3.58605 14.4521 3.74801 14.3203 3.92936 14.2709C8.46781 12.9058 13.1055 12.1784 17.763 12.1012C18.6747 12.0791 18.6633 13.8782 17.8407 14.1011C13.6978 15.2228 9.43789 15.4113 5.24609 14.6584C5.0592 14.636 4.88483 14.5264 4.75516 14.3497C4.62549 14.1729 4.54928 13.9411 4.54059 13.6969C4.53191 13.4527 4.59134 13.2126 4.70791 13.0211C4.82448 12.8295 4.99033 12.6993 5.17483 12.6545C9.52361 11.0738 13.9907 10.1089 18.4984 9.77685C18.6919 9.74525 18.8873 9.81178 19.0441 9.96266C19.201 10.1135 19.3073 10.3372 19.3411 10.5874C19.3748 10.8375 19.3334 11.095 19.2255 11.3065C19.1175 11.518 18.9512 11.6673 18.7611 11.7236C16.7476 12.3284 14.6826 12.5923 12.6173 12.5087C11.5588 12.4732 10.5063 12.3573 9.4591 12.2021C8.97596 12.1277 8.49177 12.018 8.0048 11.9869C7.69362 11.9851 7.38245 11.9833 7.0728 11.9857C5.94685 11.9664 5.7105 12.7545 6.36378 14.35C7.31779 13.8409 8.01312 15.7346 7.05285 16.2373C4.00535 17.8487 2.74651 12.5921 5.31877 10.5942C6.96059 9.33137 9.08691 10.1492 10.8477 10.364C13.4035 10.716 15.9865 10.5154 18.4922 9.77048L18.7548 11.7172C14.256 12.0756 9.79918 13.0551 5.45914 14.639L5.38788 12.6352C9.44322 13.3643 13.5645 13.182 17.5725 12.0963L17.6406 14.1021C13.1192 14.1997 8.61888 14.9278 4.21656 16.2741L4.14851 14.2682C8.69158 15.0737 13.146 13.8708 17.5679 12.6112L17.636 14.617L10.8856 14.0422C9.7608 13.9471 8.63543 13.8541 7.5095 13.7631C7.04329 13.7243 5.92995 13.4309 5.48442 13.5994C5.13555 13.9896 4.78821 14.3839 4.43477 14.7616C4.5696 15.0123 4.74575 15.2205 4.95034 15.371C5.15492 15.5216 5.38275 15.6106 5.61717 15.6317C7.56652 16.2878 10.0945 15.6434 12.0576 15.2823C14.3987 14.8488 16.7044 14.1368 18.9458 13.1554L19.2152 15.0774C15.962 14.6483 12.6851 15.506 9.81171 17.5388L9.35644 15.6244C12.9876 15.3103 16.6272 14.9654 20.268 14.6453C20.3893 14.6238 20.5128 14.6376 20.6294 14.6858C20.7461 14.7339 20.8531 14.8152 20.9428 14.9238C21.0324 15.0323 21.1024 15.1654 21.1478 15.3135C21.1932 15.4616 21.2127 15.6209 21.2051 15.78C21.197 17.0931 20.8191 18.3566 20.1431 19.3307C20.0361 19.5047 19.8901 19.631 19.7255 19.692C19.5609 19.753 19.3857 19.7457 19.2245 19.671C19.0632 19.5963 18.9238 19.4581 18.8256 19.2754C18.7275 19.0928 18.6754 18.8748 18.6768 18.6519C18.7097 16.9982 18.5905 13.1297 19.9815 12.181C20.6698 11.7085 22.5585 12.909 22.0802 13.3538L21.8838 14.5814C20.9325 12.5006 19.792 10.577 18.487 8.85208C17.9641 8.152 18.6323 6.80624 19.3356 7.23589L24.3385 10.2806C25.2181 10.8058 24.7683 12.6204 23.8146 12.1616L17.8134 9.19256L18.5007 7.42538C19.9015 8.76434 21.3234 10.0646 22.7143 11.4301C23.5464 12.2561 24.1826 12.8143 24.1401 14.2588C24.1265 15.0506 23.4171 15.3467 22.9572 14.9916L18.2614 11.3777L19.4306 10.3923C19.7014 12.9143 19.7782 15.4652 19.6598 18.007C19.6423 18.2406 19.5608 18.4581 19.4301 18.6197C19.2995 18.7813 19.1285 18.8761 18.9486 18.8868C18.7686 18.8975 18.5917 18.8234 18.4503 18.678C18.3089 18.5326 18.2125 18.3256 18.1787 18.0951C17.9609 16.3637 17.5651 14.6784 17.0019 13.0847C17.4692 13.0512 17.9365 13.0177 18.4053 12.9884C17.9768 14.1004 17.7671 15.3336 17.7951 16.5772C17.8231 17.8209 18.0879 19.036 18.5657 20.1133C18.0889 20.1424 17.6215 20.1862 17.1417 20.207L19.2411 11.4774C19.2958 11.2916 19.3908 11.1305 19.5145 11.0138C19.6381 10.897 19.7852 10.8296 19.9378 10.8197C20.0903 10.8098 20.2418 10.8579 20.3738 10.9581C20.5057 11.0583 20.6125 11.2063 20.681 11.3841C21.3389 13.3136 22.1968 15.1164 23.2308 16.7421C22.7909 16.8508 22.3495 16.9552 21.9019 17.0533C22.5216 15.1334 20.8841 14.018 19.8003 13.3428C18.9133 12.7864 19.351 11.0355 20.3215 11.4328C22.9304 12.484 25.6598 12.9362 28.3877 12.7693C29.2506 12.7212 29.3275 14.6652 28.4576 14.7586C25.9623 14.9963 23.4972 15.616 21.1132 16.605C20.2089 16.9809 19.5411 15.2595 20.4653 14.8303C22.2667 13.9951 24.1671 13.5805 26.0791 13.6055C26.6871 13.6129 27.0195 14.8354 26.5012 15.2999C24.3388 17.2508 21.9805 18.8047 19.4927 19.9179C18.6311 20.3032 17.9888 18.6838 18.8692 18.2101C21.0047 17.0613 23.1391 15.9097 25.2726 14.7554L25.8824 16.4256C22.8802 17.6977 20.0863 19.6872 17.6435 22.2922L16.8606 20.7292C20.0112 19.0233 23.1581 17.3111 26.3015 15.5925C26.4763 15.503 26.6707 15.5031 26.8455 15.593C27.0202 15.6829 27.1623 15.8558 27.243 16.0768C27.3237 16.2978 27.337 16.5505 27.2802 16.7838C27.2235 17.0171 27.1009 17.2136 26.9372 17.3337C24.8713 18.7091 22.8054 20.0878 20.7394 21.4701C19.0108 22.5921 17.3414 23.8976 15.3961 24.2323C15.2606 24.26 15.1219 24.2421 14.9932 24.1801C14.8646 24.1182 14.7503 24.0143 14.6613 23.8784C14.5722 23.7425 14.5114 23.5792 14.4847 23.404C14.4579 23.2287 14.4661 23.0475 14.5084 22.8776C15.6923 17.1363 15.9229 11.1323 15.1848 5.26576C15.0957 4.54788 15.6845 3.72747 16.2601 4.08765C20.8945 6.95656 25.3789 10.2195 29.6843 13.8554C29.79 13.9535 29.8744 14.0856 29.9293 14.2387C29.9842 14.3919 30.0078 14.561 29.9977 14.7295C29.9877 14.8981 29.9443 15.0604 29.8719 15.2006C29.7994 15.3409 29.7004 15.4544 29.5843 15.5301C25.3849 18.239 21.3284 21.2639 17.33 24.4371C16.864 24.8078 16.3459 23.7872 16.8 23.3729Z" fill="#E97F03"/>
<path d="M17.8581 16.3016C13.8617 17.3488 9.6273 17.4426 5.57774 17.9135C4.34825 18.0556 2.65391 18.5932 1.48386 17.7462C0.41131 16.9617 0.10717 15.3428 0.0231934 13.8639C-0.0363579 12.7642 -0.0425415 11.3908 0.791111 10.7566C1.90916 9.90014 4.51668 10.2919 5.74949 10.245C9.72471 10.1544 13.7004 10.3865 17.6535 10.9398C17.7818 10.9572 17.9046 11.0172 18.0099 11.1143C18.1153 11.2113 18.1998 11.3419 18.2552 11.4937C18.3106 11.6455 18.3351 11.8133 18.3264 11.981C18.3177 12.1487 18.276 12.3107 18.2053 12.4513C17.0232 14.8117 13.9236 13.9979 12.0942 14.015C10.4872 14.0274 8.88331 14.0448 7.28251 14.0671C5.66437 14.0813 3.23669 13.5577 2.06592 15.3786C1.63836 16.0378 0.692877 15.7735 0.774601 14.7808L0.868763 13.5961C0.962608 12.4321 2.33697 12.5791 2.26357 13.7561L2.18528 14.9412L0.898533 14.3559C2.35688 11.9984 4.5988 12.207 6.72682 12.179C8.3328 12.1638 9.93619 12.145 11.537 12.1227C12.7296 12.1058 16.2677 12.8069 16.9832 11.3755L17.529 12.8703C14.9019 12.5112 12.2522 12.2838 9.60337 12.2095C8.27974 12.1727 6.95661 12.1732 5.63396 12.2109C4.53317 12.2426 1.93368 11.636 1.50074 13.1739C1.10646 14.5701 2.32719 16.1589 3.27255 16.3259C4.02304 16.4651 4.94308 16.2075 5.69654 16.1503C7.10905 16.0501 8.52323 15.9438 9.9391 15.8313C12.5429 15.6314 15.2258 15.2392 17.827 15.4198C17.9002 15.4448 17.9653 15.4996 18.0129 15.5762C18.0605 15.6529 18.088 15.7473 18.0915 15.8458C18.095 15.9443 18.0742 16.0416 18.0322 16.1236C17.9902 16.2056 17.9292 16.268 17.8581 16.3016Z" fill="#E97F03"/>
<path d="M14.9645 25.4724C17.1435 23.3238 19.4037 21.3187 21.7368 19.4647C24.1758 17.4571 26.5987 15.05 29.2015 13.4479C29.3198 13.3774 29.4537 13.3647 29.5787 13.4121C29.7037 13.4594 29.8115 13.5636 29.8824 13.7058C29.9534 13.8479 29.9828 14.0185 29.9653 14.1865C29.9477 14.3545 29.8845 14.5087 29.787 14.6211C27.7001 16.8611 25.1561 18.5702 22.8593 20.4077C20.3959 22.4543 17.8427 24.3113 15.2126 25.969C15.1627 26.0013 15.1055 26.0087 15.0517 25.9896C14.998 25.9706 14.9515 25.9265 14.921 25.8658C14.8906 25.805 14.8783 25.7318 14.8866 25.66C14.8949 25.5883 14.9232 25.523 14.966 25.4766L14.9645 25.4724Z" fill="#E97F03"/>
<path d="M15.4673 24.4595C15.5957 24.4919 15.7289 24.4628 15.8422 24.3776C15.9555 24.2923 16.0413 24.1566 16.084 23.9955C16.1787 23.7167 16.1973 23.3263 15.9483 23.204C16.1156 23.0594 16.2845 22.919 16.4533 22.7786C16.4197 23.5138 16.2369 24.2242 15.9236 24.8373C15.7091 25.2619 15.095 25.0331 15.1777 24.4955C15.2683 23.8608 15.3716 23.2285 15.4701 22.594C15.7303 22.7145 15.9889 22.8307 16.2459 22.9532L15.1111 25.1204C15.0432 25.2356 14.9441 25.3126 14.834 25.3357C14.7239 25.3587 14.6113 25.326 14.5191 25.2443C14.4269 25.1626 14.3622 25.038 14.3383 24.8962C14.3144 24.7543 14.333 24.6059 14.3904 24.4814C14.8337 23.5021 15.0845 22.3953 15.1204 21.2593C15.42 21.2939 15.7195 21.3285 16.0208 21.3569L15.6358 23.9199L14.7553 23.6615C14.8241 23.4192 14.9133 23.1898 14.9946 22.9603C15.1686 22.4788 15.8152 22.5595 15.7472 23.1699C15.7109 23.4689 15.6778 23.7658 15.6242 24.0602C15.511 24.7191 14.6255 24.4792 14.7437 23.8018L15.146 21.2435C15.273 20.5146 16.0787 20.5684 16.0464 21.3411C15.9861 22.6741 15.6736 23.9669 15.1368 25.1045L14.3904 24.4814L15.5648 22.3152C15.8622 21.7624 16.4172 22.2275 16.3163 22.8123C16.2153 23.397 16.105 24.0746 15.9923 24.7025L15.2516 24.2347C15.5068 23.7832 15.6626 23.2494 15.7021 22.691C15.7095 22.606 15.7334 22.5248 15.7716 22.4552C15.8098 22.3855 15.861 22.3297 15.9203 22.293C15.9796 22.2562 16.0452 22.2397 16.1107 22.2451C16.1763 22.2505 16.2398 22.2775 16.2951 22.3236C17.2669 23.1552 16.418 25.7393 15.3341 24.9669C15.1505 24.8298 15.2722 24.4421 15.4718 24.472L15.4673 24.4595Z" fill="#E97F03"/>
</svg>
