<svg width="57" height="65" viewBox="0 0 57 65" fill="none" xmlns="http://www.w3.org/2000/svg">
<path fill-rule="evenodd" clip-rule="evenodd" d="M24.0939 0.158662C23.0774 0.563624 22.8217 1.36758 22.7821 4.28485L22.7679 5.33338L19.0416 5.30075C13.9704 5.25618 13.8157 5.32399 13.6446 7.66829L13.5463 9.0141L11.155 9.01436C8.27456 9.01461 3.6981 9.22516 2.46443 9.41411C1.34607 9.58542 0.8375 9.83952 0.552014 10.3693C0.222468 10.9806 0.245071 17.6289 0.579039 18.3477C0.768217 18.7546 0.815224 19.7765 0.816371 23.4906C0.8185 31.2758 0.501403 47.887 0.244252 53.4574C0.110436 56.3547 0.00102388 59.4757 0.00102388 60.3928C0.00102388 62.8304 -0.196999 62.716 4.91473 63.2331C10.8498 63.8335 17.1603 64.2632 24.4877 64.5658C30.8003 64.8266 43.7202 65.0423 50.0669 64.9929C55.3254 64.952 55.337 64.9513 55.7421 64.656C55.9655 64.4933 56.3398 64.0738 56.574 63.7237L57 63.0871L56.9943 37.6697C56.9892 15.8752 56.955 12.2071 56.7543 11.9348C56.6256 11.7602 56.5176 11.4401 56.5144 11.2234C56.5063 10.672 55.8723 9.99648 55.1926 9.81488C54.8034 9.71101 53.042 9.6611 49.5885 9.65615L44.5519 9.64904V8.31161C44.5519 6.82078 44.3574 6.2929 43.6488 5.86076C43.2441 5.6139 42.9989 5.58545 41.2793 5.58545C40.2241 5.58545 38.6863 5.54837 37.8618 5.50291L36.3624 5.4205L36.3619 4.39178C36.3613 2.84736 36.0604 1.12757 35.7266 0.759946C35.0683 0.0349767 34.7627 -0.00172251 29.4014 5.53048e-05C25.827 0.00132518 24.3804 0.0445008 24.0939 0.158662ZM32.1039 4.44257V5.45847H29.5651H27.0264V4.52727C27.0264 4.015 27.0755 3.55785 27.1357 3.51137C27.1956 3.46477 28.338 3.42667 29.6744 3.42667H32.1039V4.44257ZM29.647 8.89778C35.4575 8.97512 40.2384 9.05855 40.2711 9.08306C40.3457 9.1388 40.6303 16.9223 40.5599 16.977C40.5317 16.9988 35.2824 16.887 28.8948 16.7287L17.2809 16.4408L17.3163 15.9339C17.3356 15.655 17.4647 13.9873 17.6029 12.2278C17.7411 10.4682 17.8542 8.9322 17.8542 8.81423C17.8542 8.63721 17.9611 8.61359 18.4684 8.6786C18.8063 8.72191 23.8366 8.82045 29.647 8.89778ZM12.9784 15.3952C12.889 18.699 12.9778 19.0898 13.9189 19.5335C14.5639 19.8376 15.4871 19.8806 26.6988 20.1295C31.5183 20.2366 37.0073 20.3712 38.8963 20.4286C40.7854 20.486 42.4807 20.4969 42.6634 20.453C43.2747 20.3057 44.1669 19.8114 44.3431 19.5224C45.0235 18.4061 45.0672 18.1196 44.9472 15.5608L44.8309 13.0777H48.7861H52.7415V37.3322V61.5867L49.9161 61.5844C39.2951 61.5761 24.9489 61.2347 17.8689 60.8222C12.8016 60.5268 4.53719 59.8125 4.33016 59.652C4.27627 59.6103 4.35014 56.8713 4.49412 53.5653C4.776 47.0943 5.07426 31.2951 5.07688 22.6929C5.07819 18.2618 5.03806 17.3119 4.83283 16.9312C4.5082 16.3289 4.47331 12.706 4.79189 12.68C5.73155 12.6034 9.16377 12.4826 10.9111 12.4647L13.0585 12.4428L12.9784 15.3952ZM43.3048 26.1935C43.1145 26.2784 40.24 28.4101 36.917 30.9307C29.97 36.2003 24.8175 39.9723 21.191 42.4432C20.8435 42.68 20.8391 42.6772 19.3245 41.2446C18.4895 40.4547 17.5441 39.5942 17.2237 39.3323C16.3322 38.6036 15.9018 38.6585 13.4318 39.8161C12.3058 40.3438 10.8113 41.008 10.1108 41.2921C9.41044 41.5761 8.6937 41.95 8.51828 42.1229C8.14353 42.4922 7.94911 43.1703 8.09144 43.6103C8.14697 43.7816 8.98721 44.5677 9.95881 45.3573C10.9304 46.1468 13.0317 47.9176 14.6281 49.2924C17.5402 51.8 18.9565 52.8816 19.5823 53.0758C20.2314 53.2773 20.8117 53.038 23.0738 51.636C26.8459 49.2981 30.1817 46.9281 36.8525 41.8467C45.6177 35.1699 48.8778 32.5466 49.1214 31.9746C49.3725 31.3848 49.2458 31.1439 47.6327 29.1416C46.9575 28.3034 46.2015 27.3453 45.9527 27.0124C45.7039 26.6795 45.3442 26.3223 45.1536 26.2187C44.7375 25.9929 43.7846 25.98 43.3048 26.1935ZM44.5135 30.5702L45.2084 31.4273L36.7316 37.9705C32.0693 41.5691 27.18 45.2549 25.8664 46.1611C22.9531 48.1707 20.3583 49.814 20.1901 49.7562C19.858 49.6422 12.7767 43.6291 12.7767 43.4611C12.7767 43.3287 15.3898 42.1332 15.5676 42.1843C15.6384 42.2046 16.4799 42.9641 17.4378 43.872C18.3958 44.78 19.3646 45.6514 19.5907 45.8086C20.1703 46.2115 21.0237 46.1873 21.7697 45.7468C23.6335 44.6463 32.9043 37.9298 39.3107 33.0389C41.6979 31.2164 43.6888 29.7225 43.7348 29.7191C43.7808 29.7158 44.1312 30.0986 44.5135 30.5702Z" fill="#FF6754"/>
</svg>
