<svg width="70" height="56" viewBox="0 0 70 56" fill="none" xmlns="http://www.w3.org/2000/svg">
<path fill-rule="evenodd" clip-rule="evenodd" d="M35.713 0.113809C35.561 0.179727 34.5747 0.906729 33.5214 1.72924C30.9459 3.74047 25.8152 7.40419 19.7637 11.5532C15.4899 14.4833 14.6703 14.9922 14.0791 15.0826C13.6992 15.1406 11.8186 15.1931 9.89983 15.1989C5.78764 15.2115 1.33342 15.4579 0.86729 15.6984C0.30541 15.9883 -0.0321012 16.6144 0.00241699 17.3027C0.0194021 17.642 0.055838 21.1166 0.0833704 25.0241C0.135833 32.4548 0.326779 36.9602 0.615663 37.5896C0.914958 38.2415 1.4241 38.5249 2.37774 38.5705C2.85866 38.5935 4.6243 38.6893 6.30158 38.7836C7.97873 38.878 9.39726 38.9245 9.4537 38.8872C9.51027 38.8498 10.5421 38.7997 11.7468 38.776L13.9371 38.7327L16.1283 40.2813C18.5892 42.0205 22.2743 44.9065 26.9491 48.7556C30.904 52.012 34.1624 54.56 34.764 54.8669C35.4089 55.1957 36.1631 54.9369 36.919 54.1271C38.4624 52.4741 40.1568 50.514 40.3126 50.2016C40.408 50.0099 40.8781 49.2816 41.357 48.5831C46.6031 40.9323 49.5028 30.9576 48.9408 22.4956C48.5139 16.0677 46.6802 10.8598 43.2035 6.20082C41.5176 3.94159 38.4311 0.995938 37.0472 0.325479C36.2711 -0.050546 36.1398 -0.0713468 35.713 0.113809ZM63.1795 0.21503C62.6246 0.446476 61.8985 1.11327 61.6624 1.60839C61.2533 2.46591 61.3283 3.14692 62.0343 4.98544C63.6165 9.10619 64.5394 12.7349 65.1935 17.4069C65.5318 19.823 65.5287 27.0284 65.1884 29.4186C64.0629 37.3239 61.8255 43.6062 57.8225 50.1017C56.5863 52.1077 56.4839 52.4489 56.8519 53.3385C57.4257 54.7255 59.1651 55.2529 60.3735 54.4062C60.5596 54.2758 61.1936 53.3959 61.7825 52.4506C70.9761 37.6933 72.5434 19.4207 66.0404 2.8081C65.2309 0.739883 64.8539 0.260001 63.9775 0.182072C63.6517 0.153068 63.2925 0.168009 63.1795 0.21503ZM56.3992 5.13383C55.5889 5.43383 54.9609 6.3123 54.9609 7.14594C54.9609 7.39174 55.2647 8.40028 55.6362 9.38715C56.859 12.6366 57.7197 16.1621 58.1304 19.6041C58.3629 21.5514 58.3619 26.846 58.1289 28.6862C57.3047 35.1951 55.4169 40.5294 51.8999 46.2867C51.2677 47.3216 51.1255 47.6681 51.1255 48.1737C51.1255 49.2753 52.2933 50.1095 53.4972 49.868C54.287 49.7095 55.3509 48.203 57.1283 44.7262C60.3924 38.341 61.9867 31.6749 61.9978 24.3649C62.007 18.3246 61.0555 13.2113 58.8361 7.3727C58.104 5.44687 57.9525 5.2519 57.0155 5.03041C56.9025 5.0036 56.6252 5.05019 56.3992 5.13383ZM33.1573 6.67689C30.5965 9.5433 28.8585 14.797 28.0329 22.1676C27.7284 24.8864 27.5721 29.9667 27.7092 32.6894C27.9352 37.1749 28.4965 40.107 30.1905 45.651C30.4198 46.4013 30.5843 47.0398 30.5562 47.07C30.528 47.1 28.842 45.7698 26.8094 44.1139C20.2698 38.7863 15.2651 35.1198 14.4939 35.0916C14.2625 35.0831 12.8405 35.1305 11.3337 35.1968C8.5191 35.3206 4.18761 35.1959 3.86366 34.9818C3.59108 34.8016 3.40246 28.2555 3.52437 23.211L3.62478 19.0598L4.86729 18.9655C5.55067 18.9136 8.20967 18.8291 10.7763 18.7778C14.5186 18.703 15.5244 18.641 15.8539 18.4649C16.5861 18.0734 27.8252 10.3091 30.716 8.1977C32.2604 7.06962 33.5519 6.14237 33.586 6.1371C33.6201 6.13183 33.4273 6.37484 33.1573 6.67689ZM40.6246 8.49652C42.5089 10.7455 44.3527 14.8857 45.0818 18.5055C45.8777 22.4562 45.8041 27.4394 44.8871 31.7018C43.7774 36.8597 41.6252 41.9313 38.6899 46.3062C38.0971 47.1896 37.7875 47.5115 37.3163 47.7344C36.2168 48.2546 35.1463 48.0205 34.5169 47.1221C34.3116 46.8291 33.7288 45.1805 33.0743 43.0416C31.9738 39.4449 31.5941 37.9113 31.7185 37.5649C31.7551 37.4629 32.0838 37.2598 32.449 37.1133C34.4942 36.2934 36.606 34.3396 37.4697 32.4684C38.1856 30.9176 38.4234 29.6654 38.3552 27.8073C38.2519 24.9896 37.2843 22.7793 35.1809 20.5563C34.1593 19.4766 32.6973 18.3329 32.0383 18.098C31.7923 18.0102 32.6772 14.494 33.3999 12.6877C34.4893 9.96459 35.9142 8.36147 37.6654 7.88905C37.9492 7.81259 38.6127 7.7767 39.14 7.80951C40.0693 7.86723 40.1151 7.88847 40.6246 8.49652ZM49.806 9.19174C48.8036 9.84535 48.6999 10.6424 49.3921 12.3767C50.3761 14.8433 51.0923 17.7034 51.4767 20.7028C51.7632 22.9361 51.6866 27.7567 51.3316 29.858C50.5752 34.3337 49.0218 38.6052 46.8035 42.3092C45.6508 44.2342 45.5615 44.492 45.8448 45.0778C46.2176 45.8489 47.1779 46.1768 48.0383 45.8269C48.9077 45.4734 51.8507 39.7224 52.9629 36.2033C54.1912 32.3169 54.6869 29.055 54.6869 24.8578C54.6869 19.7547 53.8545 15.3294 52.01 10.6271C51.6263 9.64906 51.4121 9.289 51.1168 9.12567C50.6023 8.8412 50.3219 8.85526 49.806 9.19174ZM32.398 22.4663C33.3507 23.2661 34.2842 24.5814 34.7097 25.7235C34.9638 26.4056 35.0228 26.8493 35.0263 28.1002C35.0303 29.509 34.9969 29.7121 34.629 30.5172C34.1235 31.623 32.9295 32.9109 31.9488 33.4084L31.1954 33.7904L31.1015 31.8609C30.9609 28.9657 31.26 21.8013 31.5217 21.8016C31.5682 21.8016 31.9626 22.1007 32.398 22.4663Z" fill="#FF6754"/>
</svg>
