<svg width="92" height="90" viewBox="0 0 92 90" fill="none" xmlns="http://www.w3.org/2000/svg">
<path fill-rule="evenodd" clip-rule="evenodd" d="M8 5C11.1066 5 14.0685 4.47374 16.8559 3.97671L16.8806 3.97232C19.7003 3.46951 22.3333 3 25 3H42.5C43.3284 3 44 2.32843 44 1.5C44 0.671573 43.3284 0 42.5 0H25C22.0661 0 19.2096 0.509524 16.4747 0.997363L16.3293 1.02329C13.5087 1.52626 10.8008 2 8 2C7.01471 2 5.25045 2.20705 3.70346 2.65116C2.93455 2.87191 2.11238 3.18067 1.44974 3.61983C0.826313 4.033 0 4.80156 0 6C0 7.56446 0.264926 9.03088 0.506403 10.3675L0.523864 10.4642C0.776175 11.8617 1 13.1379 1 14.5C1 17.3594 1.3776 20.2059 1.73873 22.9283C1.83964 23.6891 1.93928 24.4402 2.02903 25.1792C2.44772 28.6267 2.67149 31.9137 2.02776 35.2127C1.86911 36.0258 2.39964 36.8136 3.21273 36.9722C4.02583 37.1309 4.81358 36.6004 4.97224 35.7873C5.71007 32.0059 5.43384 28.3309 5.00714 24.8175C4.90848 24.0051 4.80269 23.2059 4.69811 22.4158C4.34211 19.7262 4 17.1416 4 14.5C4 12.8329 3.72433 11.3059 3.47681 9.93492L3.47614 9.93118C3.23501 8.5956 3.02264 7.41485 3.00169 6.19598C3.02805 6.17521 3.06254 6.14999 3.10704 6.1205C3.39955 5.92664 3.88607 5.71992 4.53128 5.53469C5.81255 5.16686 7.29828 5 8 5ZM2.9257 6.26691C2.92511 6.26686 2.92827 6.26219 2.93696 6.25305C2.93064 6.26239 2.92629 6.26696 2.9257 6.26691Z" fill="#0E616C"/>
<path d="M91 72.5C91 71.6716 90.3284 71 89.5 71C88.6716 71 88 71.6716 88 72.5C88 73.7881 88.0856 75.2123 88.1697 76.6111C88.2155 77.3738 88.261 78.1296 88.2918 78.851C88.3829 80.9845 88.3597 82.9667 87.9802 84.6746C87.8824 85.1145 87.5748 85.5073 86.7494 85.8349C85.8892 86.1764 84.6822 86.3462 83.2571 86.3848C81.8548 86.4227 80.3663 86.332 78.9948 86.2266C78.7098 86.2047 78.4251 86.1817 78.1451 86.159C77.1322 86.077 76.1807 86 75.5 86C74.6716 86 74 86.6716 74 87.5C74 88.3284 74.6716 89 75.5 89C76.0477 89 76.8228 89.0625 77.8036 89.1416C78.1047 89.1658 78.4256 89.1917 78.7648 89.2178C80.1537 89.3245 81.7717 89.426 83.3382 89.3837C84.882 89.3419 86.5063 89.1591 87.8562 88.6233C89.2409 88.0737 90.5223 87.0644 90.9087 85.3254C91.3777 83.2152 91.3823 80.9058 91.289 78.723C91.253 77.8792 91.2038 77.0693 91.1563 76.2859C91.0759 74.9605 91 73.7107 91 72.5Z" fill="#0E616C"/>
<path d="M84.5 7.5H8.5V83.5H84.5V7.5Z" fill="#0E616C"/>
<path d="M17.412 14.6526C16.8117 14.8495 15.7828 15.9077 15.5991 16.5352C15.3908 17.2612 15.3908 29.4426 15.5991 30.1686C15.795 30.8453 16.8117 31.8666 17.4855 32.0635C17.8529 32.1742 19.4209 32.2111 22.9609 32.2111H27.9342L34.0099 35.8778L34.0834 32.2111H38.1992C41.0655 32.2111 42.4619 32.1619 42.8172 32.0635C43.4909 31.8666 44.5076 30.8453 44.7036 30.1686C44.9118 29.4549 44.9118 17.2612 44.7036 16.5598C44.6301 16.2891 44.3238 15.7969 44.0299 15.477C43.0867 14.4311 44.0054 14.4927 30.1023 14.505C21.54 14.5173 17.7059 14.5542 17.412 14.6526ZM42.5844 16.769L42.8907 17.0643V29.6395L42.5844 29.9348L42.2904 30.2424H32.1112V32.4449L30.2861 31.3498L28.4609 30.2424H18.0122L17.7182 29.9348L17.412 29.6395V17.0643L17.7182 16.769L18.0122 16.4614H42.2904L42.5844 16.769Z" fill="white"/>
<path d="M21.3318 20.5587C21.0991 20.6326 20.6214 20.9771 20.2906 21.3216C19.4209 22.1829 19.1759 23.1058 19.5189 24.2624C19.7149 24.9391 20.7316 25.9604 21.4053 26.1573C22.5568 26.5018 23.4755 26.2557 24.3329 25.3821C25.5334 24.1886 25.5701 22.6505 24.4309 21.3831C23.6347 20.4972 22.4955 20.1896 21.3318 20.5587ZM22.9855 22.6751C23.598 23.278 23.1692 24.3362 22.3118 24.3362C21.8096 24.3362 21.3318 23.8563 21.3318 23.3519C21.3318 22.8474 21.8096 22.3675 22.3118 22.3675C22.5445 22.3675 22.8018 22.4782 22.9855 22.6751Z" fill="white"/>
<path d="M29.1715 20.5587C28.9387 20.6326 28.461 20.9771 28.1303 21.3216C27.2606 22.1829 27.0156 23.1058 27.3586 24.2624C27.5545 24.9391 28.5712 25.9604 29.245 26.1573C30.3964 26.5018 31.3151 26.2557 32.1726 25.3821C33.373 24.1886 33.4097 22.6505 32.2706 21.3831C31.4743 20.4972 30.3352 20.1896 29.1715 20.5587ZM30.8251 22.6751C31.4376 23.278 31.0089 24.3362 30.1514 24.3362C29.6492 24.3362 29.1715 23.8563 29.1715 23.3519C29.1715 22.8474 29.6492 22.3675 30.1514 22.3675C30.3842 22.3675 30.6414 22.4782 30.8251 22.6751Z" fill="white"/>
<path d="M37.0111 20.5587C36.4109 20.7556 35.3819 21.8138 35.1982 22.4413C34.8552 23.598 35.1002 24.5208 35.9699 25.3821C36.5946 26.0219 37.2194 26.3049 37.9911 26.3049C38.7628 26.3049 39.3875 26.0219 40.0122 25.3821C41.2127 24.1886 41.2494 22.6505 40.1102 21.3831C39.314 20.4972 38.1748 20.1896 37.0111 20.5587ZM38.6648 22.6751C39.2773 23.278 38.8485 24.3362 37.9911 24.3362C37.4888 24.3362 37.0111 23.8563 37.0111 23.3519C37.0111 22.8474 37.4888 22.3675 37.9911 22.3675C38.2238 22.3675 38.481 22.4782 38.6648 22.6751Z" fill="white"/>
<path d="M48.7701 22.5275C48.1699 22.7244 47.1409 23.7825 46.9572 24.4101C46.7489 25.136 46.7489 39.2862 46.9572 40.0122C47.1532 40.6889 48.1699 41.7102 48.8436 41.9071C49.1253 41.9932 49.8848 42.0547 50.534 42.0547H51.7099V46.6074L60.7745 42.0547H67.2176C71.9214 42.0547 73.8078 42.0178 74.1753 41.9071C74.849 41.7102 75.8657 40.6889 76.0617 40.0122C76.2699 39.2985 76.2699 25.136 76.0617 24.4347C75.9882 24.164 75.682 23.6718 75.388 23.3519C74.4448 22.306 75.3635 22.3675 61.4604 22.3798C52.8981 22.3921 49.0641 22.4291 48.7701 22.5275ZM73.9425 24.6439L74.2488 24.9392V39.4831L73.9425 39.7784L73.6486 40.086H60.2845L53.6698 43.4082V40.086H51.5262C49.407 40.086 49.3703 40.086 49.0763 39.7784L48.7701 39.4831V24.9392L49.0763 24.6439L49.3703 24.3363H73.6486L73.9425 24.6439Z" fill="white"/>
<path d="M62.4898 36.1486H60.5299V30.2424H58.57V36.1486H56.6101V32.2111H54.6502V36.1486H52.6903V38.1173H72.2893V26.305H70.3294V36.1486H68.3695V28.2737H66.4096V36.1486H64.4497V26.305H62.4898V36.1486Z" fill="white"/>
<path d="M30.3597 38.2034C30.3352 38.2649 30.1147 39.0647 29.8942 40.0122C29.5634 41.3656 29.4287 41.7348 29.2327 41.8209C29.098 41.8824 28.4855 42.1408 27.8608 42.3992L26.7338 42.8791L25.2272 41.9809C24.3942 41.4764 23.6592 41.0703 23.598 41.0703C23.4388 41.0703 18.392 46.1398 18.392 46.2997C18.392 46.3736 18.7962 47.0995 19.2985 47.9362L20.2049 49.4497L19.7149 50.5817C19.4455 51.2092 19.1882 51.8245 19.1392 51.9598C19.0657 52.1444 18.6738 52.292 17.2773 52.6366L15.5134 53.0795V60.5606L17.2773 61.0036C18.6738 61.3481 19.0657 61.4958 19.1392 61.6804C19.1882 61.8157 19.4455 62.4309 19.7149 63.0585L20.2049 64.1905L19.2985 65.7039C18.7962 66.5406 18.392 67.2666 18.392 67.3404C18.392 67.5004 23.4388 72.5698 23.598 72.5698C23.6592 72.5698 24.3942 72.1638 25.2272 71.6593L26.7338 70.7611L27.8608 71.2409C28.4855 71.4993 29.098 71.7577 29.2327 71.8192C29.4165 71.8931 29.5634 72.2868 29.9064 73.6895L30.3474 75.4614H37.795L38.236 73.6895L38.677 71.9054L39.6447 71.5239C40.1837 71.3148 40.7961 71.0441 41.0044 70.9333L41.3841 70.7365L42.903 71.6593C43.736 72.1515 44.4832 72.5698 44.5444 72.5698C44.7037 72.5698 49.7504 67.5004 49.7504 67.3404C49.7504 67.2666 49.3462 66.5406 48.844 65.7039L47.9498 64.1905L48.4275 63.0585C48.6847 62.4309 48.942 61.8157 49.0032 61.6804C49.0767 61.4958 49.4687 61.3481 50.8651 61.0036L52.629 60.5606V53.0795L50.8651 52.6366C49.4687 52.292 49.0767 52.1444 49.0032 51.9598C48.942 51.8245 48.6847 51.2092 48.4275 50.5817L47.9498 49.4497L48.844 47.9362C49.3462 47.0995 49.7504 46.3613 49.7504 46.2997C49.7504 46.1398 44.7037 41.0703 44.5444 41.0703C44.4709 41.0703 43.736 41.4887 42.903 41.9809L41.3841 42.9037L41.0044 42.7068C40.7961 42.5961 40.1837 42.3254 39.6447 42.1162L38.677 41.7348L38.236 39.9506L37.795 38.1788L34.108 38.1419C32.0746 38.1296 30.3842 38.1542 30.3597 38.2034ZM36.6558 41.7102L37.0723 43.3467L38.236 43.7281C38.8852 43.9373 39.8529 44.3433 40.4164 44.6263L41.4208 45.1554L42.8785 44.2941L44.3362 43.4451L47.3985 46.5458L46.5411 47.9978L45.6836 49.4374L46.2104 50.4464C46.4921 51.0124 46.8963 51.9844 47.1046 52.6242L47.4843 53.7809L49.1135 54.2115L50.7304 54.6422V58.998L49.1135 59.4286L47.4843 59.8593L47.1046 61.0159C46.8963 61.6557 46.4921 62.6278 46.2104 63.1938L45.6836 64.2028L46.5411 65.6424L47.3985 67.0943L44.3362 70.1951L42.8785 69.346L41.4208 68.4847L40.4164 69.0138C39.8529 69.2968 38.8852 69.7029 38.236 69.912L37.0723 70.2935L36.6558 71.93L36.2394 73.5542H31.9031L31.4866 71.93L31.0701 70.2935L29.9064 69.912C29.2572 69.7029 28.2773 69.2968 27.726 69.0015L26.7216 68.4847L25.5212 69.1984C24.8719 69.5798 24.2227 69.9736 24.088 70.0597C23.8552 70.2197 23.7205 70.1089 22.2873 68.657L20.7316 67.0943L21.6014 65.6547L22.4588 64.2028L21.9443 63.1938C21.6503 62.6401 21.2461 61.6557 21.0379 61.0036L20.6581 59.8347L19.029 59.4163L17.4121 58.998V54.6422L19.029 54.2238L20.6581 53.8055L21.0379 52.6366C21.2461 51.9844 21.6503 51.0001 21.9443 50.4464L22.4588 49.4374L21.6014 47.9855L20.7316 46.5458L22.2873 44.9832C23.7205 43.5312 23.8552 43.4205 24.088 43.5805C24.2227 43.6666 24.8719 44.0603 25.5212 44.4418L26.7216 45.1554L27.726 44.6386C28.2773 44.3433 29.2572 43.9373 29.8942 43.7281L31.0579 43.3467L31.4744 41.7102L31.9031 40.086H36.2394L36.6558 41.7102Z" fill="white"/>
<path d="M32.0253 45.1923C29.5632 45.6353 27.5543 46.7181 25.7414 48.5638C24.1612 50.1633 23.1445 51.9844 22.5933 54.1869C22.2993 55.3558 22.2993 58.2843 22.5933 59.4532C23.1445 61.6557 24.1612 63.4768 25.7414 65.0764C27.9095 67.2912 30.4574 68.4355 33.5197 68.5955C36.9128 68.7677 39.8772 67.5988 42.3393 65.1256C44.0175 63.4399 44.9852 61.7296 45.5486 59.4532C45.8426 58.2843 45.8426 55.3558 45.5486 54.1869C45.2424 52.9688 44.6667 51.603 44.0175 50.5448C43.258 49.2897 41.4941 47.5548 40.2079 46.755C37.807 45.2785 34.7569 44.6879 32.0253 45.1923ZM36.3983 47.2595C38.9585 47.9608 40.8939 49.3636 42.2903 51.5045C43.3682 53.1533 43.8092 54.6791 43.8092 56.8201C43.8092 59.6009 42.8905 61.8403 40.9796 63.7598C37.1823 67.5742 31.0331 67.5988 27.2236 63.8213C25.2514 61.8649 24.3327 59.6378 24.3327 56.8201C24.3327 54.6791 24.7737 53.1656 25.8639 51.4799C27.3093 49.2651 29.5754 47.7148 32.2335 47.1488C33.2135 46.9396 35.4429 47.0011 36.3983 47.2595Z" fill="white"/>
<path d="M32.6134 51.1108C29.5143 51.9475 27.5911 55.1836 28.3751 58.2351C29.1958 61.3851 32.4052 63.3415 35.4797 62.5417C38.6156 61.7173 40.5632 58.4935 39.767 55.4297C38.9463 52.2428 35.688 50.2741 32.6134 51.1108ZM35.9207 53.3871C36.7414 53.8301 37.1212 54.2238 37.5989 55.1467C37.8684 55.6758 37.9174 55.9342 37.9174 56.8201C37.9296 57.7798 37.8929 57.9275 37.5131 58.6412C37.0477 59.5025 36.6557 59.8716 35.737 60.3638C35.2103 60.6345 34.953 60.6837 34.0711 60.6837C33.1891 60.6837 32.9319 60.6345 32.4052 60.3638C31.4865 59.8716 31.0945 59.5025 30.629 58.6412C30.2493 57.9275 30.2125 57.7798 30.2248 56.8201C30.2248 55.5896 30.5188 54.8514 31.315 54.0516C32.5399 52.8211 34.3651 52.5627 35.9207 53.3871Z" fill="white"/>
<path d="M63.5309 54.0516C62.4775 54.2484 61.669 54.5191 60.7135 54.9867L59.9786 55.3558L57.1367 55.0236C55.5688 54.8391 54.2581 54.716 54.2091 54.7529C54.1724 54.7898 54.5644 55.8234 55.0666 57.0292C55.5811 58.2351 55.9975 59.281 55.9975 59.3302C55.9975 59.3917 55.8628 59.7239 55.7035 60.0685C53.7681 64.1782 54.5889 69.0384 57.7737 72.2745C61.9507 76.5319 68.7369 76.5811 72.9752 72.3852C77.2135 68.1894 77.2624 61.3604 73.0854 57.1154C70.5865 54.5684 66.973 53.4117 63.5309 54.0516ZM68.0632 56.2541C69.4473 56.697 70.4885 57.3492 71.6155 58.4812C73.2202 60.0931 74.0531 61.8895 74.2124 64.0674C74.3348 65.9254 73.8081 68.0295 72.8404 69.4691C72.3994 70.1212 72.1667 70.195 72.1667 69.6906C72.1667 69.2107 71.5665 68.1894 70.9418 67.5988C70.611 67.2912 69.9373 66.8359 69.4473 66.5898L68.5409 66.1469L68.9206 65.3963C69.2881 64.6457 69.2881 64.6211 69.2881 62.6647V60.696L68.8471 59.8962C67.5364 57.5091 64.4496 57.1031 62.6244 59.0964C61.6935 60.1177 61.571 60.5237 61.571 62.7877C61.571 64.7565 61.571 64.7565 61.9507 65.4455L62.3305 66.1346L61.424 66.5898C60.9218 66.8359 60.2481 67.2912 59.9173 67.5988C59.2926 68.1894 58.6924 69.2107 58.6924 69.6906C58.6924 70.195 58.4597 70.1212 58.0187 69.4691C57.0632 68.0295 56.5243 65.9254 56.6467 64.0797C56.7447 62.7508 56.9775 61.9633 57.6634 60.5606L58.2269 59.4409L57.7369 58.2843C57.149 56.9062 57.0755 56.9677 59.0599 57.2384L60.3461 57.4107L60.9708 57.0539C61.7792 56.5986 63.0777 56.1064 63.8739 55.9588C64.9763 55.7619 66.9607 55.8972 68.0632 56.2541ZM66.5075 60.1054C67.218 60.6345 67.3282 60.9175 67.365 62.3817C67.4262 64.1043 67.365 64.4242 66.8382 65.0272C66.434 65.507 66.4095 65.5932 66.4095 66.4053V67.2789L67.9897 68.0664C68.9206 68.5462 69.6801 69.0138 69.8393 69.2107L70.1088 69.5552L67.7692 69.5921C66.483 69.6044 64.3761 69.6044 63.0899 69.5921L60.7503 69.5552L61.0198 69.2107C61.179 69.0138 61.9385 68.5462 62.8694 68.0664L64.4496 67.2789V66.3807C64.4496 65.5809 64.4128 65.4455 64.1556 65.1994C63.6044 64.6703 63.4697 64.2151 63.4697 62.7631C63.4697 61.5819 63.5064 61.3358 63.7514 60.8682C64.1434 60.13 64.8048 59.7485 65.5888 59.8101C65.9195 59.8347 66.3238 59.97 66.5075 60.1054ZM70.513 71.9054C69.9986 72.336 68.5654 73.0128 67.6344 73.2712C66.5565 73.5665 64.3026 73.5665 63.2247 73.2712C62.2937 73.0128 60.8605 72.336 60.3461 71.9054L59.9786 71.5978H70.8805L70.513 71.9054Z" fill="white"/>
</svg>
