<svg width="73" height="78" viewBox="0 0 73 78" fill="none" xmlns="http://www.w3.org/2000/svg">
<path fill-rule="evenodd" clip-rule="evenodd" d="M30.4061 1.05926C27.7341 2.35526 24.9861 7.01126 24.9861 10.2423C24.9861 11.6273 26.1511 14.1453 27.5751 15.8373C29.8001 18.4823 30.8341 18.9143 34.9401 18.9143C43.7761 18.9143 47.2291 13.4433 43.4381 5.45426C41.1001 0.527261 35.4371 -1.38274 30.4061 1.05926ZM40.5881 4.42526C42.6231 6.46026 43.0421 7.74126 42.7931 11.1683C42.5371 14.7023 42.0111 15.6263 39.6031 16.7753C37.3091 17.8703 35.9331 17.9153 32.8691 16.9973C26.6321 15.1283 24.9341 8.87526 29.4411 4.36926C32.7121 1.09726 37.2831 1.12126 40.5881 4.42526ZM56.3241 8.39026C53.4301 10.4173 52.4961 16.0663 54.4351 19.8153C56.3851 23.5863 59.0901 24.4293 62.9061 22.4553C69.5571 19.0163 69.7631 11.5193 63.3021 8.07726C60.4161 6.54126 58.8651 6.61026 56.3241 8.39026ZM63.7631 10.4713C66.9151 12.6783 66.7161 17.1953 63.3511 19.8413C61.9021 20.9813 60.1271 21.9143 59.4081 21.9143C57.6621 21.9143 54.9861 17.9803 54.9861 15.4143C54.9861 12.6003 57.7271 8.91426 59.8201 8.91426C60.7671 8.91426 62.5411 9.61526 63.7631 10.4713ZM8.62108 11.9873C6.61108 13.5683 5.98608 14.9493 5.98608 17.8123C5.98608 25.2283 14.5361 28.8443 18.9131 23.2793C21.3621 20.1663 21.5151 17.8373 19.5231 13.9863C17.1481 9.39326 12.9061 8.61626 8.62108 11.9873ZM17.4291 14.1373C19.7011 17.3803 19.3381 20.4923 16.4221 22.7863C13.2761 25.2603 10.0711 24.4033 8.19108 20.5843C5.15408 14.4153 13.5301 8.57026 17.4291 14.1373ZM26.3901 22.2733C22.3161 24.1353 19.9861 29.9863 19.9861 38.3523C19.9861 46.0423 20.5941 47.9143 23.0931 47.9143C24.6951 47.9143 24.9861 47.1543 24.9861 42.9793C24.9861 40.2653 25.5211 36.7773 26.1751 35.2293C27.2861 32.6023 27.4151 32.9143 28.1221 39.9143C28.5391 44.0393 28.8351 54.1643 28.7811 62.4143C28.6851 76.9603 28.7471 77.4243 30.7991 77.7293C33.4011 78.1163 33.8891 76.3633 34.2341 65.4143C34.4341 59.0813 34.7991 57.4143 35.9861 57.4143C37.1961 57.4143 37.5411 59.2803 37.7711 67.0703C38.0061 75.0433 38.3511 76.8403 39.7451 77.3753C40.7421 77.7573 41.8931 77.3953 42.5551 76.4893C43.9601 74.5673 45.2421 47.6413 44.3381 39.0073C43.8421 34.2643 43.9691 32.7863 44.8271 33.3163C45.5101 33.7383 45.9861 36.6553 45.9861 40.4143C45.9861 46.7163 47.3511 49.5263 49.0821 46.7923C50.3331 44.8183 50.1901 30.7973 48.8811 27.0423C48.2731 25.2983 46.8821 23.3933 45.7901 22.8093C42.4491 21.0213 29.8871 20.6743 26.3901 22.2733ZM46.1511 25.8693C47.1601 27.1163 47.9861 29.5223 47.9861 31.2163C47.9861 33.8863 47.8201 34.0783 46.7361 32.6603C46.0491 31.7603 44.8711 30.8873 44.1191 30.7193C43.0021 30.4703 42.7081 34.3623 42.5101 52.0323C42.2491 75.2893 40.8331 83.3573 39.9861 66.4143L39.4861 56.4143L35.7361 56.1043L31.9861 55.7933V65.8543C31.9861 71.3873 31.6491 75.9143 31.2361 75.9133C30.8231 75.9123 30.4861 65.3383 30.4861 52.4153C30.4861 39.4923 30.2331 28.9173 29.9231 28.9163C29.6131 28.9153 28.1831 30.1523 26.7451 31.6643C24.8991 33.6043 23.8491 36.1813 23.1781 40.4143L22.2271 46.4143L22.1071 39.1323C21.9771 31.2883 23.6031 25.8553 26.6421 23.9823C27.7671 23.2893 31.5741 22.9933 36.4011 23.2243C43.1611 23.5473 44.5831 23.9333 46.1511 25.8693ZM55.2841 27.1133C52.4961 28.4603 52.2551 29.6293 52.7561 39.4143C53.0301 44.7553 52.6371 49.3953 51.5761 53.3743C49.8621 59.8003 49.4871 69.5783 50.8711 71.7623C51.3411 72.5043 52.5721 72.9493 53.6061 72.7513C55.2481 72.4373 55.5231 71.2843 55.7751 63.6533C56.0021 56.7873 56.3771 54.9143 57.5251 54.9143C58.5831 54.9143 58.9861 56.1173 58.9861 59.2743C58.9861 67.8123 60.1191 72.9143 62.0151 72.9143C62.9811 72.9143 64.0451 72.2023 64.3791 71.3323C64.7131 70.4623 64.9861 62.2873 64.9861 53.1663C64.9861 37.1143 65.8911 32.5643 66.9641 43.2253C67.3981 47.5443 67.8411 48.4653 69.6011 48.7163C71.2721 48.9543 71.8481 48.3523 72.3511 45.8413C74.0451 37.3703 72.2041 29.5953 67.9891 27.4163C64.6661 25.6973 58.5181 25.5513 55.2841 27.1133ZM4.21508 27.5833C1.89708 28.5163 -0.0139236 33.7433 7.64368e-05 39.1143C0.0180764 46.3273 0.837076 48.9143 3.10308 48.9143C5.13908 48.9143 5.25408 48.5153 5.00908 42.2663C4.92008 39.9843 5.32908 37.8203 5.91708 37.4573C6.66008 36.9973 6.98608 42.1263 6.98608 54.2883C6.98608 71.1133 7.06508 71.8043 9.06108 72.4383C10.2031 72.8003 11.4401 72.7943 11.8111 72.4233C12.1821 72.0533 12.6431 67.7373 12.8351 62.8323C13.0281 57.9273 13.6061 53.9143 14.1211 53.9143C14.6841 53.9143 14.7871 57.4973 14.3801 62.8913C13.7901 70.7143 13.9151 71.9503 15.3571 72.5033C18.9571 73.8843 19.9861 71.1953 19.9861 60.3993C19.9861 51.8273 19.7161 50.0243 18.3561 49.5023C16.9511 48.9633 16.7891 47.4413 17.1881 38.4873L17.6501 28.0973L14.6931 27.5053C11.2371 26.8143 6.03008 26.8533 4.21508 27.5833ZM68.0691 29.7803C69.9581 31.3103 70.4511 32.8593 70.8021 38.3593C71.3231 46.5413 69.5621 49.4293 68.6661 41.8623C67.9791 36.0553 66.3051 33.1953 64.5961 34.9043C63.9431 35.5573 63.3721 42.8333 63.1401 53.4363C62.9271 63.2293 62.3701 70.6523 61.8731 70.3443C61.3851 70.0433 60.9861 65.9983 60.9861 61.3553V52.9143L57.7361 52.9123L54.4861 52.9103V41.3783C54.4861 28.3823 54.7131 27.9553 61.6251 27.9293C64.1951 27.9203 66.6391 28.6223 68.0691 29.7803ZM15.1091 39.5713C14.8921 47.5393 15.1401 49.9103 16.2621 50.5713C18.0691 51.6363 18.9881 58.4953 18.2641 65.5113C17.3661 74.2093 15.9861 71.7273 15.9861 61.4143C15.9861 51.9473 15.9771 51.9143 13.4861 51.9143C10.9951 51.9143 10.9861 51.9473 10.9861 61.4143C10.9861 67.0813 10.5821 70.9143 9.98608 70.9143C9.36008 70.9143 8.98008 64.6543 8.97108 54.1643C8.96208 44.9513 8.56408 36.7973 8.08608 36.0423C6.74908 33.9313 4.75408 35.1743 3.38108 38.9743L2.13808 42.4143L2.06208 37.8873C2.01808 35.2523 2.65108 32.4093 3.57708 31.0873C4.93708 29.1463 5.91008 28.8593 10.2771 29.1153L15.3861 29.4143L15.1091 39.5713ZM3.98608 44.9733C3.98608 45.4913 3.53608 45.9143 2.98608 45.9143C2.43608 45.9143 1.98608 45.2123 1.98608 44.3553C1.98608 43.4983 2.43608 43.0743 2.98608 43.4143C3.53608 43.7543 3.98608 44.4553 3.98608 44.9733ZM53.9861 62.4143C53.9861 67.4143 53.5741 70.9143 52.9861 70.9143C51.9021 70.9143 51.6251 59.8633 52.6161 56.1643C53.6691 52.2373 53.9861 53.6843 53.9861 62.4143Z" fill="#0E616C"/>
</svg>
