<svg width="37" height="37" viewBox="0 0 37 37" fill="none" xmlns="http://www.w3.org/2000/svg">
<path fill-rule="evenodd" clip-rule="evenodd" d="M8.97708 21.4919C9.04419 21.5145 9.11192 21.5306 9.17958 21.5404C9.25337 21.7138 9.34872 21.9382 9.45995 22.2005C9.7314 22.8407 10.0972 23.7066 10.4747 24.6099C11.2446 26.4521 12.0213 28.351 12.1928 28.8946C12.4051 29.5665 12.6296 30.0234 12.8746 30.3353C13.0013 30.4965 13.1478 30.6374 13.3193 30.744C13.4056 30.7977 13.4968 30.8417 13.5919 30.8745C13.5961 30.8759 13.6003 30.8774 13.6045 30.8787C14.0951 31.064 14.5423 30.9868 14.8224 30.8925C14.9722 30.842 15.0934 30.781 15.1794 30.7316C15.2232 30.7065 15.2602 30.6829 15.2897 30.6631L15.2967 30.6584L19.6293 27.9565L24.6337 31.7933C24.7076 31.85 24.7881 31.8974 24.8734 31.9347C25.4746 32.197 26.0568 32.2885 26.6045 32.2137C27.1512 32.139 27.5853 31.9093 27.9084 31.6508C28.2249 31.3976 28.4394 31.1141 28.573 30.9034C28.6412 30.7958 28.6924 30.7007 28.7285 30.6278C28.7467 30.5911 28.7613 30.5596 28.7726 30.5342L28.787 30.5008L28.7925 30.4877L28.7947 30.4821L28.7958 30.4795L28.7967 30.4771C28.823 30.4114 28.8432 30.3433 28.857 30.2739L33.4257 7.23988C33.4403 7.16621 33.4476 7.09129 33.4476 7.01619C33.4476 6.34165 33.1935 5.70025 32.5959 5.31103C32.0851 4.97837 31.5161 4.96405 31.1565 4.99135C30.7686 5.02079 30.4103 5.11655 30.1699 5.19308C30.0448 5.2329 29.9399 5.27132 29.8642 5.30063C29.8262 5.31537 29.7951 5.32801 29.7718 5.33764L29.7544 5.34498L4.13239 15.3961L4.12907 15.3973C4.11274 15.4033 4.09178 15.4111 4.06686 15.4208C4.01725 15.4401 3.95077 15.4673 3.87312 15.5025C3.72169 15.5711 3.50925 15.6784 3.29124 15.8277C2.94296 16.0662 2.14199 16.7194 2.27686 17.7976C2.38446 18.6577 2.97372 19.1859 3.33273 19.44C3.52986 19.5794 3.71714 19.6792 3.85353 19.7441C3.9168 19.7742 4.04817 19.8276 4.10518 19.8508L4.11956 19.8566L8.97708 21.4919ZM30.6511 7.46235L30.6475 7.46391C30.6348 7.46945 30.6219 7.47477 30.609 7.47985L4.95583 17.5432C4.94244 17.5484 4.92894 17.5535 4.91536 17.5582L4.90108 17.5636C4.88467 17.57 4.85704 17.5812 4.82236 17.5969C4.8027 17.6058 4.78218 17.6156 4.76125 17.626C4.79 17.6422 4.81751 17.6563 4.84196 17.6679C4.86543 17.6791 4.88333 17.6867 4.89313 17.6907L9.71076 19.3126C9.79894 19.3423 9.88114 19.3816 9.9566 19.4291L25.8641 10.1169L25.879 10.1081C25.8906 10.1013 25.9058 10.0925 25.9241 10.0821C25.9603 10.0617 26.01 10.0344 26.0692 10.0043C26.1796 9.94813 26.3562 9.86472 26.5552 9.80322C26.6937 9.76039 27.1023 9.63977 27.5439 9.78142C27.8165 9.86885 28.0987 10.0568 28.2823 10.3752C28.3734 10.5334 28.422 10.6923 28.4456 10.8378C28.5081 11.0669 28.4982 11.2932 28.4493 11.4886C28.3438 11.9094 28.0482 12.2376 27.7792 12.4887C27.5487 12.704 24.5664 15.5796 21.6244 18.4184C20.1572 19.834 18.705 21.2357 17.6196 22.2835L16.9067 22.9717L25.9083 29.873C26.1148 29.9469 26.2368 29.9431 26.2933 29.9354C26.3606 29.9262 26.4156 29.9003 26.4719 29.8553C26.5348 29.805 26.5898 29.737 26.6309 29.6722L26.6326 29.6695L31.0637 7.32922C30.9979 7.34503 30.9314 7.36385 30.8673 7.38425C30.7947 7.40735 30.7349 7.42935 30.6952 7.44474C30.6755 7.45235 30.6614 7.45813 30.6537 7.46131L30.6511 7.46235ZM17.68 26.4621L15.8842 25.0853L15.449 27.8534L17.68 26.4621ZM14.2367 22.3532L16.0226 20.629C17.1081 19.5812 18.5604 18.1794 20.0277 16.7636L21.5185 15.3253L11.5234 21.1764L11.577 21.3029C11.8494 21.9453 12.2168 22.8151 12.5963 23.7232C12.8801 24.4022 13.1769 25.1172 13.4472 25.7791L13.8811 23.0191C13.9229 22.753 14.0529 22.5227 14.2367 22.3532Z" fill="white"/>
</svg>
