<svg width="37" height="37" viewBox="0 0 37 37" fill="none" xmlns="http://www.w3.org/2000/svg">
<path d="M12.4179 9.50723C12.1331 9.46562 11.8427 9.52278 11.5949 9.6692H11.5738C10.9986 10.0064 10.4805 10.4325 10.0386 10.9318C9.67141 11.3563 9.47221 11.7859 9.4199 12.1994C9.38871 12.4458 9.40984 12.6923 9.48328 12.9277L9.50943 12.9438C9.92291 14.1591 10.4632 15.3281 11.1231 16.4287C11.9732 17.9749 13.0194 19.4049 14.2358 20.6832L14.272 20.7355L14.3293 20.7778L14.3655 20.82L14.4078 20.8562C15.6907 22.0761 17.1241 23.1272 18.6733 23.984C20.4439 24.9477 21.5184 25.4035 22.1632 25.5926V25.6027C22.3524 25.66 22.5244 25.6862 22.6974 25.6862C23.247 25.6459 23.7673 25.4228 24.1753 25.0524C24.6723 24.6104 25.0937 24.0901 25.4228 23.5121V23.5021C25.7316 22.9206 25.627 22.3703 25.1813 21.9981C24.2888 21.2179 23.3236 20.5249 22.2991 19.9287C21.6129 19.5564 20.9158 19.7818 20.6331 20.159L20.0305 20.9186C19.7216 21.2959 19.1603 21.2435 19.1603 21.2435L19.1442 21.2536C14.9581 20.1842 13.8414 15.9458 13.8414 15.9458C13.8414 15.9458 13.7891 15.3693 14.1764 15.0756L14.9309 14.4679C15.2921 14.1742 15.5436 13.478 15.1563 12.7909C14.5641 11.7649 13.8727 10.7995 13.0919 9.90863C12.9212 9.6986 12.6817 9.55571 12.4158 9.50522L12.4179 9.50723Z" fill="white"/>
<path d="M19.4919 7.66486C19.0686 7.66486 18.7254 8.00803 18.7254 8.43136C18.7254 8.85468 19.0686 9.19785 19.4919 9.19785C21.4303 9.19785 23.0411 9.83147 24.3135 11.0447C24.9686 11.7091 25.4785 12.4955 25.8132 13.3562C26.1493 14.22 26.3021 15.1411 26.2629 16.0638C26.2449 16.4867 26.5732 16.8441 26.9961 16.8621C27.4191 16.8801 27.7765 16.5518 27.7945 16.1289C27.8428 14.9938 27.6546 13.8613 27.2419 12.8004C26.8293 11.7395 26.2011 10.7728 25.3962 9.95895L25.3808 9.94421C23.8019 8.43418 21.8004 7.66486 19.4919 7.66486Z" fill="white"/>
<path d="M19.4397 10.1856C19.0164 10.1856 18.6732 10.5288 18.6732 10.9521C18.6732 11.3754 19.0164 11.7186 19.4397 11.7186H19.4648C20.8635 11.8172 21.8813 12.2834 22.5949 13.0487C23.3253 13.837 23.7038 14.816 23.6757 16.0273C23.6659 16.4505 24.0011 16.8015 24.4243 16.8113C24.8475 16.8211 25.1985 16.486 25.2083 16.0628C25.2451 14.4723 24.7337 13.1008 23.7184 12.0058L23.7171 12.0043C22.6798 10.8912 21.2568 10.3024 19.5424 10.1873L19.5168 10.1856H19.4397Z" fill="white"/>
<path d="M19.4107 12.7524C18.988 12.7301 18.6272 13.0548 18.605 13.4775C18.5827 13.9003 18.9074 14.261 19.3301 14.2832C19.9719 14.317 20.381 14.5095 20.6383 14.7693C20.8966 15.0301 21.0899 15.4478 21.1251 16.1028C21.1478 16.5255 21.509 16.8498 21.9317 16.827C22.3544 16.8043 22.6786 16.4432 22.6559 16.0205C22.6064 15.1006 22.3186 14.2874 21.7275 13.6906C21.1353 13.0926 20.3267 12.8006 19.4107 12.7524Z" fill="white"/>
<path fill-rule="evenodd" clip-rule="evenodd" d="M11.0412 3.65375C15.9194 2.56333 20.9781 2.56334 25.8563 3.65375L26.376 3.76992C29.2838 4.41989 31.5787 6.65012 32.3116 9.53809C33.5498 14.4174 33.5498 19.5287 32.3116 24.4079C31.5787 27.2959 29.2837 29.5261 26.376 30.1761L25.8563 30.2923C22.7921 30.9772 19.6566 31.2319 16.5394 31.0564L12.4721 34.6956C12.1598 34.975 11.7202 35.0624 11.3247 34.9236C10.9293 34.7849 10.6407 34.4419 10.5715 34.0286L9.89878 30.0101C7.28903 29.1991 5.26562 27.0864 4.5859 24.4079C3.34767 19.5287 3.34767 14.4174 4.5859 9.53809C5.31878 6.65012 7.61376 4.41989 10.5215 3.76992L11.0412 3.65375ZM25.3546 5.89786C20.8068 4.88129 16.0907 4.88129 11.5429 5.89786L11.0231 6.01403C8.96152 6.47486 7.33436 8.05612 6.81474 10.1037C5.67071 14.6118 5.67071 19.3342 6.81474 23.8423C7.33436 25.8899 8.96152 27.4712 11.0231 27.932L11.1604 27.9627C11.6171 28.0648 11.9663 28.4334 12.0436 28.8949L12.4947 31.5898L15.365 29.0216C15.5968 28.8142 15.9027 28.7096 16.2129 28.7315C19.2689 28.9479 22.3485 28.7201 25.3546 28.0482L25.8744 27.932C27.936 27.4712 29.5631 25.8899 30.0828 23.8423C31.2268 19.3342 31.2268 14.6118 30.0828 10.1037C29.5631 8.05612 27.936 6.47486 25.8744 6.01403L25.3546 5.89786Z" fill="white"/>
</svg>
