<svg width="30" height="30" viewBox="0 0 30 30" fill="none" xmlns="http://www.w3.org/2000/svg">
<rect width="30" height="30" fill="white"/>
<path d="M13.2 23.3729C9.28946 19.8889 5.23258 16.692 1.04837 13.7972L1.15157 15.4739C5.42535 12.0901 9.78499 8.92338 14.2989 6.08769C13.9389 5.69572 13.5836 5.30156 13.2236 4.90958C12.4586 11.1282 12.7217 17.4879 13.9952 23.5634L14.8829 22.2087C12.8869 21.8835 11.1089 20.434 9.33222 19.2821C7.45697 18.0522 5.5807 16.8251 3.70342 15.6007L3.07076 17.3335C6.22211 19.0229 9.37362 20.7226 12.5253 22.4326C13.2505 22.8256 13.9665 21.5642 13.3082 20.8696C10.7641 18.1555 7.85423 16.082 4.72742 14.7554C3.88044 14.3945 3.23902 15.9683 4.11762 16.4256C6.25106 17.5799 8.38297 18.7385 10.5134 19.9012L11.1369 18.1934C8.77444 17.1391 6.53485 15.6655 4.48136 13.8145L4.05928 15.5088C5.70554 15.4995 7.34003 15.8706 8.88678 16.605L9.5347 14.8303C7.03006 13.7534 4.43642 13.0661 1.80782 12.7829L1.54243 14.7586C4.46734 14.9493 7.39537 14.4744 10.1951 13.3553L9.67395 11.4453C7.77867 12.6315 5.64198 14.6512 6.62248 17.7469C6.67086 17.9123 6.75125 18.0586 6.85584 18.1715C6.96043 18.2845 7.08568 18.3603 7.21941 18.3917C7.35314 18.423 7.49082 18.4087 7.61907 18.3503C7.74733 18.2918 7.8618 18.1912 7.95138 18.0581C9.07328 16.2965 10.0028 14.3412 10.7134 12.2479C10.2334 12.2168 9.75954 12.169 9.27178 12.1485L11.4062 20.8792C11.6196 21.7589 12.5221 21.6985 12.8255 20.9751C13.3991 19.6638 13.7176 18.1895 13.7531 16.6809C13.7887 15.1724 13.5402 13.6754 13.0294 12.3207C12.7612 11.5914 11.9213 11.3834 11.6277 12.2306C11.0095 13.9878 10.5793 15.8471 10.3491 17.7566C10.8433 17.7811 11.3391 17.8118 11.8317 17.8405C11.728 15.4696 11.8063 13.0912 12.0655 10.7406C12.0866 10.5519 12.0655 10.3594 12.0048 10.1859C11.9442 10.0124 11.8465 9.86529 11.7234 9.76209C11.6004 9.65888 11.4572 9.60394 11.3108 9.6038C11.1645 9.60367 11.0212 9.65836 10.898 9.76134L6.18447 13.3591L7.36734 14.0919C7.35317 13.3663 9.31384 11.9902 9.72985 11.5721L12.3626 9.07635C13.0482 8.42587 12.5123 6.90091 11.6738 7.31335L5.67218 10.2514L6.18538 12.1616L11.1824 9.14392L10.3371 7.52971C8.93268 9.38485 7.70585 11.4546 6.68333 13.6937C6.60757 13.8985 6.5856 14.13 6.62082 14.3526C6.65604 14.5752 6.74649 14.7765 6.87823 14.9255C7.49684 15.5135 8.00957 15.4011 8.62561 14.8765C9.24165 14.3519 9.15767 13.839 9.39936 14.9103C9.62563 16.1952 9.72192 17.5131 9.6858 18.8305L11.1726 18.1387C10.6902 17.4406 10.4124 16.5433 10.3879 15.6047L9.45225 16.7248C13.0929 17.0346 16.7365 17.3256 20.3742 17.654C20.5586 17.689 20.7466 17.6377 20.9047 17.5092C21.0628 17.3808 21.1809 17.1835 21.2379 16.9524C21.295 16.7213 21.2873 16.4714 21.2162 16.247C21.1452 16.0226 21.0154 15.8382 20.8499 15.7266C17.7323 13.5438 14.1863 12.6197 10.664 13.0723C9.96014 13.1483 9.62742 14.6625 10.3978 14.9964C13.6679 16.4612 17.0684 17.3753 20.5165 17.7165C22.5293 17.8985 25.9203 18.6014 27.0351 15.6773C28.1498 12.7532 25.9577 11.4259 24.0593 11.5657C20.1214 11.8654 16.1833 12.2521 12.2476 12.589C11.3469 12.6659 11.3297 14.3602 12.1827 14.5968C16.7368 15.882 21.3329 17.1061 26.0026 16.2767C26.1866 16.2483 26.3568 16.1356 26.4829 15.9588C26.609 15.782 26.6827 15.5525 26.6909 15.3114C26.6991 15.0703 26.6412 14.8333 26.5276 14.6427C26.4139 14.4521 26.252 14.3203 26.0706 14.2709C21.5322 12.9058 16.8945 12.1784 12.237 12.1012C11.3253 12.0791 11.3367 13.8782 12.1593 14.1011C16.3022 15.2228 20.5621 15.4113 24.7539 14.6584C24.9408 14.636 25.1152 14.5264 25.2448 14.3497C25.3745 14.1729 25.4507 13.9411 25.4594 13.6969C25.4681 13.4527 25.4087 13.2126 25.2921 13.0211C25.1755 12.8295 25.0097 12.6993 24.8252 12.6545C20.4764 11.0738 16.0093 10.1089 11.5016 9.77685C11.3081 9.74525 11.1127 9.81178 10.9559 9.96266C10.799 10.1135 10.6927 10.3372 10.6589 10.5874C10.6252 10.8375 10.6666 11.095 10.7745 11.3065C10.8825 11.518 11.0488 11.6673 11.2389 11.7236C13.2524 12.3284 15.3174 12.5923 17.3827 12.5087C18.4412 12.4732 19.4937 12.3573 20.5409 12.2021C21.024 12.1277 21.5082 12.018 21.9952 11.9869C22.3064 11.9851 22.6175 11.9833 22.9272 11.9857C24.0532 11.9664 24.2895 12.7545 23.6362 14.35C22.6822 13.8409 21.9869 15.7346 22.9471 16.2373C25.9946 17.8487 27.2535 12.5921 24.6812 10.5942C23.0394 9.33137 20.9131 10.1492 19.1523 10.364C16.5965 10.716 14.0135 10.5154 11.5078 9.77048L11.2452 11.7172C15.744 12.0756 20.2008 13.0551 24.5409 14.639L24.6121 12.6352C20.5568 13.3643 16.4355 13.182 12.4275 12.0963L12.3594 14.1021C16.8808 14.1997 21.3811 14.9278 25.7834 16.2741L25.8515 14.2682C21.3084 15.0737 16.854 13.8708 12.4321 12.6112L12.364 14.617L19.1144 14.0422C20.2392 13.9471 21.3646 13.8541 22.4905 13.7631C22.9567 13.7243 24.07 13.4309 24.5156 13.5994C24.8645 13.9896 25.2118 14.3839 25.5652 14.7616C25.4304 15.0123 25.2542 15.2205 25.0497 15.371C24.8451 15.5216 24.6172 15.6106 24.3828 15.6317C22.4335 16.2878 19.9055 15.6434 17.9424 15.2823C15.6013 14.8488 13.2956 14.1368 11.0542 13.1554L10.7848 15.0774C14.038 14.6483 17.3149 15.506 20.1883 17.5388L20.6436 15.6244C17.0124 15.3103 13.3728 14.9654 9.73195 14.6453C9.61068 14.6238 9.48725 14.6376 9.37057 14.6858C9.25389 14.7339 9.14687 14.8152 9.05723 14.9238C8.96759 15.0323 8.89756 15.1654 8.85219 15.3135C8.80683 15.4616 8.78726 15.6209 8.7949 15.78C8.80298 17.0931 9.1809 18.3566 9.85691 19.3307C9.9639 19.5047 10.1099 19.631 10.2745 19.692C10.4391 19.753 10.6143 19.7457 10.7755 19.671C10.9368 19.5963 11.0762 19.4581 11.1744 19.2754C11.2725 19.0928 11.3246 18.8748 11.3232 18.6519C11.2903 16.9982 11.4095 13.1297 10.0185 12.181C9.33022 11.7085 7.44151 12.909 7.91981 13.3538L8.11623 14.5814C9.06748 12.5006 10.208 10.577 11.513 8.85208C12.0359 8.152 11.3677 6.80624 10.6644 7.23589L5.66151 10.2806C4.78191 10.8058 5.23174 12.6204 6.18538 12.1616L12.1866 9.19256L11.4993 7.42538C10.0985 8.76434 8.67656 10.0646 7.28573 11.4301C6.45356 12.2561 5.81738 12.8143 5.85991 14.2588C5.87349 15.0506 6.58294 15.3467 7.04277 14.9916L11.7386 11.3777L10.5694 10.3923C10.2986 12.9143 10.2218 15.4652 10.3402 18.007C10.3577 18.2406 10.4392 18.4581 10.5699 18.6197C10.7005 18.7813 10.8715 18.8761 11.0514 18.8868C11.2314 18.8975 11.4083 18.8234 11.5497 18.678C11.6911 18.5326 11.7875 18.3256 11.8213 18.0951C12.0391 16.3637 12.4349 14.6784 12.9981 13.0847C12.5308 13.0512 12.0635 13.0177 11.5947 12.9884C12.0232 14.1004 12.2329 15.3336 12.2049 16.5772C12.1769 17.8209 11.9121 19.036 11.4343 20.1133C11.9111 20.1424 12.3785 20.1862 12.8583 20.207L10.7589 11.4774C10.7042 11.2916 10.6092 11.1305 10.4855 11.0138C10.3619 10.897 10.2148 10.8296 10.0622 10.8197C9.90968 10.8098 9.75821 10.8579 9.62625 10.9581C9.49428 11.0583 9.38752 11.2063 9.31895 11.3841C8.66111 13.3136 7.8032 15.1164 6.76921 16.7421C7.20907 16.8508 7.65047 16.9552 8.09811 17.0533C7.47838 15.1334 9.11592 14.018 10.1997 13.3428C11.0867 12.7864 10.649 11.0355 9.67852 11.4328C7.0696 12.484 4.34021 12.9362 1.61232 12.7693C0.749443 12.7212 0.672514 14.6652 1.54243 14.7586C4.03771 14.9963 6.50281 15.616 8.88678 16.605C9.79115 16.9809 10.4589 15.2595 9.5347 14.8303C7.7333 13.9951 5.8329 13.5805 3.92089 13.6055C3.31289 13.6129 2.98052 14.8354 3.49881 15.2999C5.66122 17.2508 8.0195 18.8047 10.5073 19.9179C11.3689 20.3032 12.0112 18.6838 11.1308 18.2101C8.99531 17.0613 6.86086 15.9097 4.72742 14.7554L4.11762 16.4256C7.11975 17.6977 9.91369 19.6872 12.3565 22.2922L13.1394 20.7292C9.98881 19.0233 6.84187 17.3111 3.69854 15.5925C3.52369 15.503 3.32927 15.5031 3.15452 15.593C2.97977 15.6829 2.83771 15.8558 2.75702 16.0768C2.67633 16.2978 2.66302 16.5505 2.71978 16.7838C2.77654 17.0171 2.89913 17.2136 3.06282 17.3337C5.12868 18.7091 7.1946 20.0878 9.26057 21.4701C10.9892 22.5921 12.6586 23.8976 14.6039 24.2323C14.7394 24.26 14.8781 24.2421 15.0068 24.1801C15.1354 24.1182 15.2497 24.0143 15.3387 23.8784C15.4278 23.7425 15.4886 23.5792 15.5153 23.404C15.5421 23.2287 15.5339 23.0475 15.4916 22.8776C14.3077 17.1363 14.0771 11.1323 14.8152 5.26576C14.9043 4.54788 14.3155 3.72747 13.7399 4.08765C9.10555 6.95656 4.62114 10.2195 0.315702 13.8554C0.210019 13.9535 0.125618 14.0856 0.0706968 14.2387C0.0157757 14.3919 -0.00779789 14.561 0.00226594 14.7295C0.0123298 14.8981 0.0556889 15.0604 0.128131 15.2006C0.200574 15.3409 0.299637 15.4544 0.415698 15.5301C4.61507 18.239 8.67157 21.2639 12.67 24.4371C13.136 24.8078 13.6541 23.7872 13.2 23.3729Z" fill="#E97F03"/>
<path d="M12.1419 16.3016C16.1383 17.3488 20.3727 17.4426 24.4223 17.9135C25.6517 18.0556 27.3461 18.5932 28.5161 17.7462C29.5887 16.9617 29.8928 15.3428 29.9768 13.8639C30.0364 12.7642 30.0425 11.3908 29.2089 10.7566C28.0908 9.90014 25.4833 10.2919 24.2505 10.245C20.2753 10.1544 16.2996 10.3865 12.3465 10.9398C12.2182 10.9572 12.0954 11.0172 11.9901 11.1143C11.8847 11.2113 11.8002 11.3419 11.7448 11.4937C11.6894 11.6455 11.6649 11.8133 11.6736 11.981C11.6823 12.1487 11.724 12.3107 11.7947 12.4513C12.9768 14.8117 16.0764 13.9979 17.9058 14.015C19.5128 14.0274 21.1167 14.0448 22.7175 14.0671C24.3356 14.0813 26.7633 13.5577 27.9341 15.3786C28.3616 16.0378 29.3071 15.7735 29.2254 14.7808L29.1312 13.5961C29.0374 12.4321 27.663 12.5791 27.7364 13.7561L27.8147 14.9412L29.1015 14.3559C27.6431 11.9984 25.4012 12.207 23.2732 12.179C21.6672 12.1638 20.0638 12.145 18.463 12.1227C17.2704 12.1058 13.7323 12.8069 13.0168 11.3755L12.471 12.8703C15.0981 12.5112 17.7478 12.2838 20.3966 12.2095C21.7203 12.1727 23.0434 12.1732 24.366 12.2109C25.4668 12.2426 28.0663 11.636 28.4993 13.1739C28.8935 14.5701 27.6728 16.1589 26.7274 16.3259C25.977 16.4651 25.0569 16.2075 24.3035 16.1503C22.891 16.0501 21.4768 15.9438 20.0609 15.8313C17.4571 15.6314 14.7742 15.2392 12.173 15.4198C12.0998 15.4448 12.0347 15.4996 11.9871 15.5762C11.9395 15.6529 11.912 15.7473 11.9085 15.8458C11.905 15.9443 11.9258 16.0416 11.9678 16.1236C12.0098 16.2056 12.0708 16.268 12.1419 16.3016Z" fill="#E97F03"/>
<path d="M15.0355 25.4724C12.8565 23.3238 10.5963 21.3187 8.26324 19.4647C5.8242 17.4571 3.40133 15.05 0.798546 13.4479C0.680152 13.3774 0.546272 13.3647 0.421286 13.4121C0.2963 13.4594 0.188521 13.5636 0.117574 13.7058C0.0466276 13.8479 0.0172329 14.0185 0.0347423 14.1865C0.0522518 14.3545 0.115501 14.5087 0.212973 14.6211C2.29988 16.8611 4.84395 18.5702 7.14069 20.4077C9.60406 22.4543 12.1573 24.3113 14.7874 25.969C14.8373 26.0013 14.8945 26.0087 14.9483 25.9896C15.002 25.9706 15.0485 25.9265 15.079 25.8658C15.1094 25.805 15.1217 25.7318 15.1134 25.66C15.1051 25.5883 15.0768 25.523 15.034 25.4766L15.0355 25.4724Z" fill="#E97F03"/>
<path d="M14.5327 24.4595C14.4043 24.4919 14.2711 24.4628 14.1578 24.3776C14.0445 24.2923 13.9587 24.1566 13.916 23.9955C13.8213 23.7167 13.8027 23.3263 14.0517 23.204C13.8844 23.0594 13.7155 22.919 13.5467 22.7786C13.5803 23.5138 13.7631 24.2242 14.0764 24.8373C14.2909 25.2619 14.905 25.0331 14.8223 24.4955C14.7317 23.8608 14.6284 23.2285 14.5299 22.594C14.2697 22.7145 14.0111 22.8307 13.7541 22.9532L14.8889 25.1204C14.9568 25.2356 15.0559 25.3126 15.166 25.3357C15.2761 25.3587 15.3887 25.326 15.4809 25.2443C15.5731 25.1626 15.6378 25.038 15.6617 24.8962C15.6856 24.7543 15.667 24.6059 15.6096 24.4814C15.1663 23.5021 14.9155 22.3953 14.8796 21.2593C14.58 21.2939 14.2805 21.3285 13.9792 21.3569L14.3642 23.9199L15.2447 23.6615C15.1759 23.4192 15.0867 23.1898 15.0054 22.9603C14.8314 22.4788 14.1848 22.5595 14.2528 23.1699C14.2891 23.4689 14.3222 23.7658 14.3758 24.0602C14.489 24.7191 15.3745 24.4792 15.2563 23.8018L14.854 21.2435C14.727 20.5146 13.9213 20.5684 13.9536 21.3411C14.0139 22.6741 14.3264 23.9669 14.8632 25.1045L15.6096 24.4814L14.4352 22.3152C14.1378 21.7624 13.5828 22.2275 13.6837 22.8123C13.7847 23.397 13.895 24.0746 14.0077 24.7025L14.7484 24.2347C14.4932 23.7832 14.3374 23.2494 14.2979 22.691C14.2905 22.606 14.2666 22.5248 14.2284 22.4552C14.1902 22.3855 14.139 22.3297 14.0797 22.293C14.0204 22.2562 13.9548 22.2397 13.8893 22.2451C13.8237 22.2505 13.7602 22.2775 13.7049 22.3236C12.7331 23.1552 13.582 25.7393 14.6659 24.9669C14.8495 24.8298 14.7278 24.4421 14.5282 24.472L14.5327 24.4595Z" fill="#E97F03"/>
</svg>
