<svg width="92" height="90" viewBox="0 0 92 90" fill="none" xmlns="http://www.w3.org/2000/svg">
<path fill-rule="evenodd" clip-rule="evenodd" d="M8 5C11.1066 5 14.0685 4.47374 16.8559 3.97671L16.8806 3.97232C19.7003 3.46951 22.3333 3 25 3H42.5C43.3284 3 44 2.32843 44 1.5C44 0.671573 43.3284 0 42.5 0H25C22.0661 0 19.2096 0.509524 16.4747 0.997363L16.3293 1.02329C13.5087 1.52626 10.8008 2 8 2C7.01471 2 5.25045 2.20705 3.70346 2.65116C2.93455 2.87191 2.11238 3.18067 1.44974 3.61983C0.826313 4.033 0 4.80156 0 6C0 7.56446 0.264926 9.03088 0.506403 10.3675L0.523864 10.4642C0.776175 11.8617 1 13.1379 1 14.5C1 17.3594 1.3776 20.2059 1.73873 22.9283C1.83964 23.6891 1.93928 24.4402 2.02903 25.1792C2.44772 28.6267 2.67149 31.9137 2.02776 35.2127C1.86911 36.0258 2.39964 36.8136 3.21273 36.9722C4.02583 37.1309 4.81358 36.6004 4.97224 35.7873C5.71007 32.0059 5.43384 28.3309 5.00714 24.8175C4.90848 24.0051 4.80269 23.2059 4.69811 22.4158C4.34211 19.7262 4 17.1416 4 14.5C4 12.8329 3.72433 11.3059 3.47681 9.93492L3.47614 9.93118C3.23501 8.5956 3.02264 7.41485 3.00169 6.19598C3.02805 6.17521 3.06254 6.14999 3.10704 6.1205C3.39955 5.92664 3.88607 5.71992 4.53128 5.53469C5.81255 5.16686 7.29828 5 8 5ZM2.9257 6.26691C2.92511 6.26686 2.92827 6.26219 2.93696 6.25305C2.93064 6.26239 2.92629 6.26696 2.9257 6.26691Z" fill="#0E616C"/>
<path d="M91 72.5C91 71.6716 90.3284 71 89.5 71C88.6716 71 88 71.6716 88 72.5C88 73.7881 88.0856 75.2123 88.1697 76.6111C88.2155 77.3738 88.261 78.1296 88.2918 78.851C88.3829 80.9845 88.3597 82.9667 87.9802 84.6746C87.8824 85.1145 87.5748 85.5073 86.7494 85.8349C85.8892 86.1764 84.6822 86.3462 83.2571 86.3848C81.8548 86.4227 80.3663 86.332 78.9948 86.2266C78.7098 86.2047 78.4251 86.1817 78.1451 86.159C77.1322 86.077 76.1807 86 75.5 86C74.6716 86 74 86.6716 74 87.5C74 88.3284 74.6716 89 75.5 89C76.0477 89 76.8228 89.0625 77.8036 89.1416C78.1047 89.1658 78.4256 89.1917 78.7648 89.2178C80.1537 89.3245 81.7717 89.426 83.3382 89.3837C84.882 89.3419 86.5063 89.1591 87.8562 88.6233C89.2409 88.0737 90.5223 87.0644 90.9087 85.3254C91.3777 83.2152 91.3823 80.9058 91.289 78.723C91.253 77.8792 91.2038 77.0693 91.1563 76.2859C91.0759 74.9605 91 73.7107 91 72.5Z" fill="#0E616C"/>
<path d="M84.5 7.5H8.5V83.5H84.5V7.5Z" fill="#0E616C"/>
<path d="M40.7276 13.4714C33.9925 14.0988 28.077 16.8735 23.4563 21.5544C17.7902 27.3211 14.88 35.3558 15.5333 43.4027C16.5786 56.1183 25.8914 66.4573 38.1975 68.5927C39.8011 68.8701 41.7967 69.0028 42.2006 68.8581C42.8301 68.6288 42.9845 67.712 42.4619 67.2173C42.2362 67.0002 41.9511 66.9399 40.8345 66.8434C34.6458 66.2884 29.2411 63.7549 24.9292 59.3636C21.7577 56.1545 19.6195 52.4387 18.4198 48.0715C18.0278 46.6841 17.6121 44.2351 17.5408 42.9925L17.4933 42.2445L19.7264 42.2083C21.8408 42.1721 21.9715 42.16 22.2209 41.9067C22.6129 41.5086 22.5773 40.833 22.1497 40.4711C21.8408 40.1936 21.7695 40.1815 19.6314 40.1815H17.4458L17.4933 39.904C17.5289 39.7593 17.5883 39.2043 17.624 38.6735C17.814 36.0435 18.7287 32.7259 19.9878 30.1079C21.3894 27.1643 22.6723 25.3184 24.9173 23.0383C27.1624 20.7582 28.9798 19.4553 31.8781 18.0317C34.4558 16.7529 37.7224 15.8239 40.3119 15.6309C40.8345 15.5947 41.3809 15.5344 41.5354 15.4982L41.7967 15.4499V17.1751C41.7967 18.9003 41.7967 18.9244 42.1055 19.2381C42.45 19.5759 43.0202 19.6603 43.3528 19.3949C43.7448 19.0933 43.816 18.7314 43.816 17.1148V15.4982L44.9207 15.5947C56.8705 16.596 66.4802 26.0182 67.9294 38.1306C67.9888 38.6856 68.0482 39.2646 68.0482 39.3973C68.0482 39.5662 67.478 39.0595 66.0645 37.6239C64.9598 36.514 63.9263 35.5489 63.7482 35.4886C63.0948 35.2352 62.4772 35.7057 62.4653 36.4416C62.4653 36.8277 62.691 37.0931 65.5774 40.0247C68.6065 43.101 68.7134 43.1976 69.1648 43.1976C69.6161 43.1976 69.7349 43.101 72.5858 40.2056C74.225 38.5649 75.6267 37.081 75.7217 36.9001C75.9593 36.4416 75.9236 36.14 75.6029 35.766C75.3891 35.5127 75.2228 35.4282 74.8902 35.4282C74.4863 35.4282 74.3081 35.573 72.3482 37.5636C71.196 38.7338 70.1982 39.6989 70.1507 39.6989C70.1032 39.6989 70.0675 39.4818 70.0675 39.2164C70.0675 38.3719 69.7112 36.0556 69.3429 34.5114C67.2286 25.7045 60.7429 18.3333 52.3092 15.1483C50.8481 14.5934 48.4249 13.9661 46.7738 13.7006C45.5741 13.5197 41.8086 13.3749 40.7276 13.4714Z" fill="white"/>
<path d="M55.338 27.1643C55.1717 27.2246 52.5822 29.7822 49.565 32.8344L44.089 38.396L43.4357 38.2512C42.9368 38.1306 42.6399 38.1306 42.1528 38.2392L41.5114 38.384L38.8269 35.6575C36.2849 33.0998 36.1067 32.943 35.6909 32.943C35.097 32.943 34.6694 33.3773 34.6694 33.9805C34.6694 34.4028 34.8238 34.5837 37.3539 37.1775L40.0385 39.9161L39.9078 40.3142C39.4564 41.6413 40.1929 43.3303 41.5352 43.9938C42.141 44.2954 43.4832 44.2954 44.0534 43.9938C45.4076 43.2699 46.0609 41.8705 45.7164 40.4228L45.562 39.7955L51.1092 34.1615C56.4427 28.7447 56.6446 28.5275 56.6446 28.0811C56.6446 27.6589 56.3358 27.1522 56.0626 27.1522C56.0032 27.1522 55.8844 27.1281 55.7894 27.1039C55.7062 27.0678 55.5043 27.1039 55.338 27.1643ZM43.4714 40.5314C43.8871 40.9657 43.9109 41.3759 43.5308 41.8222C42.9606 42.5099 41.7965 42.0635 41.7965 41.1587C41.7965 40.7003 42.3191 40.1815 42.7705 40.1815C42.9962 40.1815 43.2457 40.3022 43.4714 40.5314Z" fill="white"/>
<path d="M48.3893 48.5541C44.8376 49.2538 42.1055 52.3422 41.8323 55.9856C41.7611 56.9266 41.7611 56.9387 42.1293 57.3006C42.5926 57.7832 43.0083 57.7832 43.4716 57.3247C43.7329 57.0472 43.8161 56.8542 43.8161 56.4802C43.8161 55.0446 44.4694 53.5245 45.5978 52.3543C47.2727 50.617 49.5534 50.05 51.834 50.8221C53.2832 51.3047 54.2691 52.1854 54.9106 53.5607C55.255 54.3087 55.2788 54.4414 55.2788 55.684C55.2788 56.8663 55.2432 57.0834 54.97 57.6746C54.7561 58.1451 52.9625 60.377 48.9713 65.1544C45.8354 68.9063 42.9489 72.3688 42.5332 72.8634C41.666 73.913 41.6067 74.2628 42.1412 74.8178L42.4857 75.1676H49.8147C57.5476 75.1676 57.6783 75.1556 57.8802 74.6248C58.0227 74.2508 57.9515 73.7441 57.7258 73.4666L57.5001 73.1771L45.0277 73.0564L50.6937 66.2763C55.3738 60.6786 56.431 59.3636 56.7399 58.6759C57.2388 57.5781 57.3813 56.8663 57.3694 55.5272C57.3575 52.3181 55.1481 49.5313 51.9528 48.6868C50.9432 48.4214 49.3752 48.361 48.3893 48.5541Z" fill="white"/>
<path d="M70.8396 48.4937C70.7089 48.5541 70.4951 48.723 70.3526 48.8798C69.8061 49.5071 56.0746 69.5819 56.0152 69.8473C55.9202 70.2334 56.229 70.8125 56.5972 70.9452C56.7754 71.0176 59.6025 71.0658 63.5462 71.0658H70.1863V72.791C70.1863 74.3593 70.21 74.5403 70.4238 74.7816C70.7564 75.1435 71.2316 75.24 71.5998 75.0349C72.1106 74.7454 72.2056 74.3955 72.2056 72.6583V71.0658H73.7854C75.4841 71.0658 75.8285 70.9693 76.1136 70.4505C76.3156 70.0766 76.2205 69.594 75.8642 69.2562C75.6266 69.039 75.4484 69.0149 73.9042 69.0149H72.2056L72.1818 59.0016C72.1462 49.1814 72.1462 48.9884 71.9086 48.7591C71.6236 48.4696 71.1603 48.361 70.8396 48.4937ZM70.1863 60.8716V69.0149H64.6034C61.5387 69.0149 59.0205 68.9787 59.0205 68.9425C59.0205 68.8581 70.1031 52.7283 70.1625 52.7283C70.1744 52.7283 70.1863 56.3958 70.1863 60.8716Z" fill="white"/>
</svg>
