<svg width="88" height="78" viewBox="0 0 88 78" fill="none" xmlns="http://www.w3.org/2000/svg">
<path fill-rule="evenodd" clip-rule="evenodd" d="M45.3283 1.05926C42.6563 2.35526 39.9083 7.01126 39.9083 10.2423C39.9083 11.6273 41.0733 14.1453 42.4973 15.8373C44.7223 18.4823 45.7563 18.9143 49.8623 18.9143C58.6983 18.9143 62.1513 13.4433 58.3603 5.45426C56.0223 0.527261 50.3593 -1.38274 45.3283 1.05926ZM55.5103 4.42526C57.5453 6.46026 57.9643 7.74126 57.7153 11.1683C57.4593 14.7023 56.9333 15.6263 54.5253 16.7753C52.2313 17.8703 50.8553 17.9153 47.7913 16.9973C41.5543 15.1283 39.8563 8.87526 44.3633 4.36926C47.6343 1.09726 52.2053 1.12126 55.5103 4.42526ZM71.2463 8.39026C68.3523 10.4173 67.4183 16.0663 69.3573 19.8153C71.3073 23.5863 74.0123 24.4293 77.8283 22.4553C84.4793 19.0163 84.6853 11.5193 78.2243 8.07726C75.3383 6.54126 73.7873 6.61026 71.2463 8.39026ZM78.6853 10.4713C81.8373 12.6783 81.6383 17.1953 78.2733 19.8413C76.8243 20.9813 75.0493 21.9143 74.3303 21.9143C72.5843 21.9143 69.9083 17.9803 69.9083 15.4143C69.9083 12.6003 72.6493 8.91426 74.7423 8.91426C75.6893 8.91426 77.4633 9.61526 78.6853 10.4713ZM23.5433 11.9873C21.5333 13.5683 20.9083 14.9493 20.9083 17.8123C20.9083 25.2283 29.4583 28.8443 33.8353 23.2793C36.2843 20.1663 36.4373 17.8373 34.4453 13.9863C32.0703 9.39326 27.8283 8.61626 23.5433 11.9873ZM32.3513 14.1373C34.6233 17.3803 34.2603 20.4923 31.3443 22.7863C28.1983 25.2603 24.9933 24.4033 23.1133 20.5843C20.0763 14.4153 28.4523 8.57026 32.3513 14.1373ZM6.13129 21.4713C2.00429 24.3613 4.22129 30.9143 9.32429 30.9143C11.8203 30.9143 14.9083 28.0903 14.9083 25.8083C14.9083 23.5093 11.9593 19.9143 10.0743 19.9143C9.12729 19.9143 7.35329 20.6153 6.13129 21.4713ZM41.3123 22.2733C37.2383 24.1353 34.9083 29.9863 34.9083 38.3523C34.9083 46.0423 35.5163 47.9143 38.0153 47.9143C39.6173 47.9143 39.9083 47.1543 39.9083 42.9793C39.9083 40.2653 40.4433 36.7773 41.0973 35.2293C42.2083 32.6023 42.3373 32.9143 43.0443 39.9143C43.4613 44.0393 43.7573 54.1643 43.7033 62.4143C43.6073 76.9603 43.6693 77.4243 45.7213 77.7293C48.3233 78.1163 48.8113 76.3633 49.1563 65.4143C49.3563 59.0813 49.7213 57.4143 50.9083 57.4143C52.1183 57.4143 52.4633 59.2803 52.6933 67.0703C52.9283 75.0433 53.2733 76.8403 54.6673 77.3753C55.6643 77.7573 56.8153 77.3953 57.4773 76.4893C58.8823 74.5673 60.1643 47.6413 59.2603 39.0073C58.7643 34.2643 58.8913 32.7863 59.7493 33.3163C60.4323 33.7383 60.9083 36.6553 60.9083 40.4143C60.9083 46.7163 62.2733 49.5263 64.0043 46.7923C65.2553 44.8183 65.1123 30.7973 63.8033 27.0423C63.1953 25.2983 61.8043 23.3933 60.7123 22.8093C57.3713 21.0213 44.8093 20.6743 41.3123 22.2733ZM12.5363 24.5703C13.0233 26.5083 12.7213 27.5783 11.4173 28.5313C7.83329 31.1523 3.95129 26.2713 7.10829 23.1143C9.19529 21.0273 11.8243 21.7323 12.5363 24.5703ZM61.0733 25.8693C62.0823 27.1163 62.9083 29.5223 62.9083 31.2163C62.9083 33.8863 62.7423 34.0783 61.6583 32.6603C60.9713 31.7603 59.7933 30.8873 59.0413 30.7193C57.9243 30.4703 57.6303 34.3623 57.4323 52.0323C57.1713 75.2893 55.7553 83.3573 54.9083 66.4143L54.4083 56.4143L50.6583 56.1043L46.9083 55.7933V65.8543C46.9083 71.3873 46.5713 75.9143 46.1583 75.9133C45.7453 75.9123 45.4083 65.3383 45.4083 52.4153C45.4083 39.4923 45.1553 28.9173 44.8453 28.9163C44.5353 28.9153 43.1053 30.1523 41.6673 31.6643C39.8213 33.6043 38.7713 36.1813 38.1003 40.4143L37.1493 46.4143L37.0293 39.1323C36.8993 31.2883 38.5253 25.8553 41.5643 23.9823C42.6893 23.2893 46.4963 22.9933 51.3233 23.2243C58.0833 23.5473 59.5053 23.9333 61.0733 25.8693ZM70.2063 27.1133C67.4183 28.4603 67.1773 29.6293 67.6783 39.4143C67.9523 44.7553 67.5593 49.3953 66.4983 53.3743C64.7843 59.8003 64.4093 69.5783 65.7933 71.7623C66.2633 72.5043 67.4943 72.9493 68.5283 72.7513C70.1703 72.4373 70.4453 71.2843 70.6973 63.6533C70.9243 56.7873 71.2993 54.9143 72.4473 54.9143C73.5053 54.9143 73.9083 56.1173 73.9083 59.2743C73.9083 67.8123 75.0413 72.9143 76.9373 72.9143C77.9033 72.9143 78.9673 72.2023 79.3013 71.3323C79.6353 70.4623 79.9083 62.2873 79.9083 53.1663C79.9083 37.1143 80.8133 32.5643 81.8863 43.2253C82.3203 47.5443 82.7633 48.4653 84.5233 48.7163C86.1943 48.9543 86.7703 48.3523 87.2733 45.8413C88.9673 37.3703 87.1263 29.5953 82.9113 27.4163C79.5883 25.6973 73.4403 25.5513 70.2063 27.1133ZM19.1373 27.5833C16.8193 28.5163 14.9083 33.7433 14.9223 39.1143C14.9403 46.3273 15.7593 48.9143 18.0253 48.9143C20.0613 48.9143 20.1763 48.5153 19.9313 42.2663C19.8423 39.9843 20.2513 37.8203 20.8393 37.4573C21.5823 36.9973 21.9083 42.1263 21.9083 54.2883C21.9083 71.1133 21.9873 71.8043 23.9833 72.4383C25.1253 72.8003 26.3623 72.7943 26.7333 72.4233C27.1043 72.0533 27.5653 67.7373 27.7573 62.8323C27.9503 57.9273 28.5283 53.9143 29.0433 53.9143C29.6063 53.9143 29.7093 57.4973 29.3023 62.8913C28.7123 70.7143 28.8373 71.9503 30.2793 72.5033C33.8793 73.8843 34.9083 71.1953 34.9083 60.3993C34.9083 51.8273 34.6383 50.0243 33.2783 49.5023C31.8733 48.9633 31.7113 47.4413 32.1103 38.4873L32.5723 28.0973L29.6153 27.5053C26.1593 26.8143 20.9523 26.8533 19.1373 27.5833ZM82.9913 29.7803C84.8803 31.3103 85.3733 32.8593 85.7243 38.3593C86.2453 46.5413 84.4843 49.4293 83.5883 41.8623C82.9013 36.0553 81.2273 33.1953 79.5183 34.9043C78.8653 35.5573 78.2943 42.8333 78.0623 53.4363C77.8493 63.2293 77.2923 70.6523 76.7953 70.3443C76.3073 70.0433 75.9083 65.9983 75.9083 61.3553V52.9143L72.6583 52.9123L69.4083 52.9103V41.3783C69.4083 28.3823 69.6353 27.9553 76.5473 27.9293C79.1173 27.9203 81.5613 28.6223 82.9913 29.7803ZM30.0313 39.5713C29.8143 47.5393 30.0623 49.9103 31.1843 50.5713C32.9913 51.6363 33.9103 58.4953 33.1863 65.5113C32.2883 74.2093 30.9083 71.7273 30.9083 61.4143C30.9083 51.9473 30.8993 51.9143 28.4083 51.9143C25.9173 51.9143 25.9083 51.9473 25.9083 61.4143C25.9083 67.0813 25.5043 70.9143 24.9083 70.9143C24.2823 70.9143 23.9023 64.6543 23.8933 54.1643C23.8843 44.9513 23.4863 36.7973 23.0083 36.0423C21.6713 33.9313 19.6763 35.1743 18.3033 38.9743L17.0603 42.4143L16.9843 37.8873C16.9403 35.2523 17.5733 32.4093 18.4993 31.0873C19.8593 29.1463 20.8323 28.8593 25.1993 29.1153L30.3083 29.4143L30.0313 39.5713ZM1.37329 34.3273C-0.789709 37.6293 -0.284709 46.2643 2.09729 46.7173C3.42829 46.9693 3.86929 46.1213 4.17329 42.7263C4.38529 40.3543 4.63729 44.1843 4.73329 51.2373C4.89229 62.8583 5.07229 64.0293 6.65829 63.7283C8.05729 63.4623 8.52329 61.9933 8.98129 56.4053L9.55529 49.4143L9.73129 56.7373C9.88529 63.0973 10.1363 64.0173 11.6433 63.7273C14.6383 63.1503 15.6293 47.9143 12.6713 47.9143C12.0833 47.9143 11.8413 44.9163 12.0673 40.4323C12.4823 32.2133 12.2823 31.9143 6.34929 31.9143C3.86429 31.9143 2.53029 32.5613 1.37329 34.3273ZM9.90829 41.3833C9.90829 47.4983 9.64529 48.7503 8.45729 48.2953C7.50929 47.9313 6.90329 45.9483 6.70729 42.5763C6.43929 37.9503 6.17429 37.4223 4.15829 37.4933C1.63129 37.5833 1.68829 37.6513 2.51529 35.4963C2.90329 34.4833 4.34329 33.9143 6.51529 33.9143H9.90829V41.3833ZM18.9083 44.9733C18.9083 45.4913 18.4583 45.9143 17.9083 45.9143C17.3583 45.9143 16.9083 45.2123 16.9083 44.3553C16.9083 43.4983 17.3583 43.0743 17.9083 43.4143C18.4583 43.7543 18.9083 44.4553 18.9083 44.9733ZM68.9083 62.4143C68.9083 67.4143 68.4963 70.9143 67.9083 70.9143C66.8243 70.9143 66.5473 59.8633 67.5383 56.1643C68.5913 52.2373 68.9083 53.6843 68.9083 62.4143Z" fill="#0E616C"/>
</svg>
