<svg width="70" height="70" viewBox="0 0 70 70" fill="none" xmlns="http://www.w3.org/2000/svg">
<path fill-rule="evenodd" clip-rule="evenodd" d="M30.8463 0.0735745C27.8877 0.560199 25.6313 2.65794 24.9427 5.56233C24.6525 6.78611 24.2367 14.7398 24.0591 22.4623C23.8678 30.7815 23.9364 35.8956 24.2567 37.1948C24.9645 40.066 26.4778 41.6118 29.3818 42.4296C30.4924 42.7423 30.5792 42.7444 33.1322 42.5107C34.5696 42.3792 37.6958 42.1893 40.0795 42.089L44.4133 41.9062L46.872 43.5392C50.1977 45.7479 52.2671 47.0051 56.6552 49.4825C60.8261 51.8373 61.0753 51.9142 62.0976 51.1632C62.832 50.6237 63.1551 49.9506 63.0601 49.1587C63.0202 48.8268 62.4872 47.0832 61.8756 45.2844C61.2641 43.4855 60.7636 41.9228 60.7636 41.8116C60.7636 41.6521 61.1177 41.6262 62.4409 41.6894C65.3165 41.8263 66.7409 41.4035 67.9264 40.0604C68.7345 39.1448 69.4602 37.4112 69.7602 35.6797C69.9688 34.4755 70.0018 33.3665 69.9999 27.6132C69.9976 20.046 69.6126 7.7637 69.3201 5.92408C68.8632 3.04979 67.6853 1.49963 65.282 0.610149C64.4735 0.31107 66.4041 0.353884 38.9247 0.0253311C34.9334 -0.0224471 31.2982 -0.000574799 30.8463 0.0735745ZM48.8515 4.74374C50.8364 4.86257 53.1108 4.87668 55.8345 4.78733C63.4547 4.53743 64.033 4.59094 64.9092 5.62717C65.7025 6.56552 65.7069 6.60818 65.9184 15.4333C66.0258 19.914 66.096 26.1997 66.0744 29.4018L66.0351 35.2235L65.6868 35.9898C65.0624 37.3637 64.7179 37.4497 60.6952 37.2354C58.718 37.1301 58.2344 37.1503 57.4834 37.3701C56.5315 37.6487 56.1961 37.9071 55.8755 38.6094C55.6092 39.1931 55.6641 39.459 56.6515 42.3621C57.1058 43.6981 57.4775 44.8236 57.4775 44.8637C57.4775 44.9913 52.5549 42.042 50.2891 40.5566C49.0842 39.7667 47.7903 38.9199 47.4138 38.675C47.0373 38.4299 46.5553 38.0746 46.3428 37.8852C46.0228 37.6003 45.744 37.5317 44.7197 37.4864C43.1031 37.4148 36.3162 37.7238 33.1369 38.0137C31.761 38.1392 30.3867 38.1969 30.0828 38.1418C29.3533 38.0097 28.7276 37.5139 28.3645 36.7804C28.0939 36.2341 28.0611 35.8708 27.9718 32.4416C27.8573 28.0397 28.0904 17.3681 28.4349 11.2374C28.6496 7.41932 28.709 6.88228 28.9901 6.2244C29.3533 5.37432 30.0359 4.79416 30.9266 4.57869C31.7112 4.38882 44.961 4.51075 48.8515 4.74374ZM5.34308 18.4004C3.57337 18.7345 2.05354 19.578 1.12618 20.7409C0.118846 22.0041 -0.173344 23.453 0.0935154 25.8625C0.181282 26.6547 0.528788 32.9922 0.865889 39.9456C1.20299 46.899 1.51626 52.9023 1.56213 53.2863C1.74355 54.8032 3.13481 56.7099 4.65409 57.5237C6.27716 58.393 6.85565 58.4829 10.8216 58.4829C13.1728 58.4829 14.4839 58.5385 14.4833 58.6381C14.4816 58.9204 13.2627 64.0361 12.7646 65.8513C12.4581 66.9688 12.3033 67.7974 12.3506 68.069C12.472 68.7671 13.0816 69.5343 13.7418 69.8199C14.3352 70.0766 14.3587 70.0746 14.9419 69.7118C15.286 69.4977 16.2725 68.4425 17.2811 67.2101C18.2404 66.0376 20.448 63.5071 22.1867 61.5868L25.3482 58.0951L32.205 58.0939C36.3404 58.0933 39.4138 58.0281 39.949 57.9296C41.7184 57.6045 43.3093 56.4303 43.958 54.9708C44.6821 53.3418 44.8765 51.9837 44.8766 48.555C44.8768 45.1396 44.8338 44.9147 44.0713 44.3325C43.4544 43.8616 42.6102 43.8616 41.9934 44.3325C41.2366 44.9104 41.1892 45.1502 41.175 48.4774C41.1596 52.0225 41.0096 52.8122 40.2394 53.3978C39.9835 53.5925 39.6138 53.7532 39.4179 53.7551C39.2219 53.7569 35.7652 53.7745 31.7363 53.7938C25.2141 53.8253 24.366 53.8573 24.0003 54.0859C23.4668 54.4193 22.4001 55.4751 19.9953 58.0491C18.9221 59.1978 18.0442 60.1065 18.0442 60.0685C18.0442 60.0305 18.1997 59.1346 18.3898 58.0778C18.7704 55.9606 18.7434 55.4431 18.2189 54.8098C17.5157 53.9606 16.1069 53.8922 11.1981 54.4685C8.58127 54.7758 7.46645 54.694 6.54853 54.128C5.64102 53.5685 5.29967 53.1239 5.22889 52.4095C5.19644 52.0813 4.89261 46.0885 4.55359 39.0924C4.21471 32.0963 3.88076 25.9365 3.81161 25.404C3.61157 23.8631 3.89541 23.1573 4.96819 22.5273C5.69894 22.0984 7.30366 22.0139 10.2243 22.2507C13.5233 22.5182 19.5466 22.696 20.055 22.5407C20.7497 22.3285 21.1934 21.6076 21.1934 20.6907C21.1934 19.7805 20.9424 19.1597 20.413 18.7608C20.088 18.5158 19.6333 18.4552 17.428 18.363C13.8218 18.2124 6.21472 18.236 5.34308 18.4004Z" fill="#FF6754"/>
</svg>
